M48
; DRILL file {KiCad 5.99.0-unknown-8eca23aabe~115~ubuntu20.04.1} date Tue Feb  2 12:30:42 2021
; FORMAT={-:-/ absolute / inch / decimal}
; #@! TF.CreationDate,2021-02-02T12:30:42+00:00
; #@! TF.GenerationSoftware,Kicad,Pcbnew,5.99.0-unknown-8eca23aabe~115~ubuntu20.04.1
FMAT,2
INCH
T1C0.0118
T2C0.0394
%
G90
G05
T1
X5.8346Y-2.9764
X5.8386Y-2.8228
X5.8386Y-2.874
X5.8386Y-2.9252
X5.8622Y-3.0354
X5.874Y-2.9252
X5.9134Y-3.0591
X5.9213Y-2.9764
X5.9331Y-2.9173
X5.9528Y-2.7244
X5.9843Y-3.2205
X5.9858Y-2.7898
X5.9921Y-3.2756
X6.0276Y-3.315
X6.0433Y-3.4055
X6.0669Y-2.748
X6.0895Y-2.7018
X6.0906Y-2.8701
X6.0906Y-2.9173
X6.0906Y-2.9646
X6.0906Y-3.0118
X6.0906Y-3.0591
X6.0906Y-3.1063
X6.0906Y-3.1535
X6.1142Y-2.8465
X6.1142Y-2.8937
X6.1142Y-2.9409
X6.1142Y-2.9882
X6.1142Y-3.0354
X6.1142Y-3.0827
X6.1142Y-3.1299
X6.1181Y-3.315
X6.1535Y-2.7638
X6.1772Y-2.7913
X6.1811Y-3.2126
T2
X5.685Y-2.25
X5.685Y-2.35
X5.685Y-2.45
X5.685Y-2.55
X5.685Y-2.65
X5.685Y-2.75
X5.685Y-2.85
X5.685Y-2.95
X5.685Y-3.05
X5.685Y-3.15
X5.685Y-3.25
X5.685Y-3.35
X5.685Y-3.45
X5.685Y-3.55
X5.685Y-3.65
X5.685Y-3.75
X5.785Y-2.25
X5.785Y-2.35
X5.785Y-2.45
X5.785Y-2.55
X5.785Y-2.65
X5.785Y-2.75
X5.785Y-2.85
X5.785Y-2.95
X5.785Y-3.05
X5.785Y-3.15
X5.785Y-3.25
X5.785Y-3.35
X5.785Y-3.45
X5.785Y-3.55
X5.785Y-3.65
X5.785Y-3.75
T0
M30
