%TF.GenerationSoftware,KiCad,Pcbnew,5.99.0-unknown-8eca23aabe~115~ubuntu20.04.1*%
%TF.CreationDate,2021-02-02T12:30:47+00:00*%
%TF.ProjectId,31pin_lcd_breakout,33317069-6e5f-46c6-9364-5f627265616b,rev?*%
%TF.SameCoordinates,Original*%
%TF.FileFunction,Soldermask,Top*%
%TF.FilePolarity,Negative*%
%FSLAX46Y46*%
G04 Gerber Fmt 4.6, Leading zero omitted, Abs format (unit mm)*
G04 Created by KiCad (PCBNEW 5.99.0-unknown-8eca23aabe~115~ubuntu20.04.1) date 2021-02-02 12:30:47*
%MOMM*%
%LPD*%
G01*
G04 APERTURE LIST*
G04 Aperture macros list*
%AMRoundRect*
0 Rectangle with rounded corners*
0 $1 Rounding radius*
0 $2 $3 $4 $5 $6 $7 $8 $9 X,Y pos of 4 corners*
0 Add a 4 corners polygon primitive as box body*
4,1,4,$2,$3,$4,$5,$6,$7,$8,$9,$2,$3,0*
0 Add four circle primitives for the rounded corners*
1,1,$1+$1,$2,$3*
1,1,$1+$1,$4,$5*
1,1,$1+$1,$6,$7*
1,1,$1+$1,$8,$9*
0 Add four rect primitives between the rounded corners*
20,1,$1+$1,$2,$3,$4,$5,0*
20,1,$1+$1,$4,$5,$6,$7,0*
20,1,$1+$1,$6,$7,$8,$9,0*
20,1,$1+$1,$8,$9,$2,$3,0*%
G04 Aperture macros list end*
%ADD10RoundRect,0.050000X0.850000X0.850000X-0.850000X0.850000X-0.850000X-0.850000X0.850000X-0.850000X0*%
%ADD11O,1.800000X1.800000*%
%ADD12RoundRect,0.050000X0.350000X-0.150000X0.350000X0.150000X-0.350000X0.150000X-0.350000X-0.150000X0*%
%ADD13RoundRect,0.050000X0.475000X-0.225000X0.475000X0.225000X-0.475000X0.225000X-0.475000X-0.225000X0*%
G04 APERTURE END LIST*
D10*
%TO.C,J1*%
X146939000Y-95250000D03*
D11*
X144399000Y-95250000D03*
X146939000Y-92710000D03*
X144399000Y-92710000D03*
X146939000Y-90170000D03*
X144399000Y-90170000D03*
X146939000Y-87630000D03*
X144399000Y-87630000D03*
X146939000Y-85090000D03*
X144399000Y-85090000D03*
X146939000Y-82550000D03*
X144399000Y-82550000D03*
X146939000Y-80010000D03*
X144399000Y-80010000D03*
X146939000Y-77470000D03*
X144399000Y-77470000D03*
X146939000Y-74930000D03*
X144399000Y-74930000D03*
X146939000Y-72390000D03*
X144399000Y-72390000D03*
X146939000Y-69850000D03*
X144399000Y-69850000D03*
X146939000Y-67310000D03*
X144399000Y-67310000D03*
X146939000Y-64770000D03*
X144399000Y-64770000D03*
X146939000Y-62230000D03*
X144399000Y-62230000D03*
X146939000Y-59690000D03*
X144399000Y-59690000D03*
X146939000Y-57150000D03*
X144399000Y-57150000D03*
%TD*%
D12*
%TO.C,J2*%
X156450000Y-80700000D03*
X153550000Y-80400000D03*
X156450000Y-80100000D03*
X153550000Y-79800000D03*
X156450000Y-79500000D03*
X153550000Y-79200000D03*
X156450000Y-78900000D03*
X153550000Y-78600000D03*
X156450000Y-78300000D03*
X153550000Y-78000000D03*
X156450000Y-77700000D03*
X153550000Y-77400000D03*
X156450000Y-77100000D03*
X153550000Y-76800000D03*
X156450000Y-76500000D03*
X153550000Y-76200000D03*
X156450000Y-75900000D03*
X153550000Y-75600000D03*
X156450000Y-75300000D03*
X153550000Y-75000000D03*
X156450000Y-74700000D03*
X153550000Y-74400000D03*
X156450000Y-74100000D03*
X153550000Y-73800000D03*
X156450000Y-73500000D03*
X153550000Y-73200000D03*
X156450000Y-72900000D03*
X153550000Y-72600000D03*
X156450000Y-72300000D03*
X153550000Y-72000000D03*
X156450000Y-71700000D03*
D13*
X155775000Y-71000000D03*
X155775000Y-81400000D03*
%TD*%
M02*
