%TF.GenerationSoftware,KiCad,Pcbnew,5.99.0-unknown-8eca23aabe~115~ubuntu20.04.1*%
%TF.CreationDate,2021-02-02T12:30:47+00:00*%
%TF.ProjectId,31pin_lcd_breakout,33317069-6e5f-46c6-9364-5f627265616b,rev?*%
%TF.SameCoordinates,Original*%
%TF.FileFunction,Legend,Top*%
%TF.FilePolarity,Positive*%
%FSLAX46Y46*%
G04 Gerber Fmt 4.6, Leading zero omitted, Abs format (unit mm)*
G04 Created by KiCad (PCBNEW 5.99.0-unknown-8eca23aabe~115~ubuntu20.04.1) date 2021-02-02 12:30:47*
%MOMM*%
%LPD*%
G01*
G04 APERTURE LIST*
%ADD10C,0.120000*%
G04 APERTURE END LIST*
D10*
X148691666Y-64453333D02*
X148725000Y-64420000D01*
X148791666Y-64386666D01*
X148958333Y-64386666D01*
X149025000Y-64420000D01*
X149058333Y-64453333D01*
X149091666Y-64520000D01*
X149091666Y-64586666D01*
X149058333Y-64686666D01*
X148658333Y-65086666D01*
X149091666Y-65086666D01*
X149691666Y-64386666D02*
X149558333Y-64386666D01*
X149491666Y-64420000D01*
X149458333Y-64453333D01*
X149391666Y-64553333D01*
X149358333Y-64686666D01*
X149358333Y-64953333D01*
X149391666Y-65020000D01*
X149425000Y-65053333D01*
X149491666Y-65086666D01*
X149625000Y-65086666D01*
X149691666Y-65053333D01*
X149725000Y-65020000D01*
X149758333Y-64953333D01*
X149758333Y-64786666D01*
X149725000Y-64720000D01*
X149691666Y-64686666D01*
X149625000Y-64653333D01*
X149491666Y-64653333D01*
X149425000Y-64686666D01*
X149391666Y-64720000D01*
X149358333Y-64786666D01*
X149025000Y-94933333D02*
X149058333Y-94900000D01*
X149125000Y-94866666D01*
X149291666Y-94866666D01*
X149358333Y-94900000D01*
X149391666Y-94933333D01*
X149425000Y-95000000D01*
X149425000Y-95066666D01*
X149391666Y-95166666D01*
X148991666Y-95566666D01*
X149425000Y-95566666D01*
X149358333Y-92560000D02*
X149358333Y-93026666D01*
X149191666Y-92293333D02*
X149025000Y-92793333D01*
X149458333Y-92793333D01*
X149091666Y-85406666D02*
X148691666Y-85406666D01*
X148891666Y-85406666D02*
X148891666Y-84706666D01*
X148825000Y-84806666D01*
X148758333Y-84873333D01*
X148691666Y-84906666D01*
X149525000Y-84706666D02*
X149591666Y-84706666D01*
X149658333Y-84740000D01*
X149691666Y-84773333D01*
X149725000Y-84840000D01*
X149758333Y-84973333D01*
X149758333Y-85140000D01*
X149725000Y-85273333D01*
X149691666Y-85340000D01*
X149658333Y-85373333D01*
X149591666Y-85406666D01*
X149525000Y-85406666D01*
X149458333Y-85373333D01*
X149425000Y-85340000D01*
X149391666Y-85273333D01*
X149358333Y-85140000D01*
X149358333Y-84973333D01*
X149391666Y-84840000D01*
X149425000Y-84773333D01*
X149458333Y-84740000D01*
X149525000Y-84706666D01*
X148691666Y-66993333D02*
X148725000Y-66960000D01*
X148791666Y-66926666D01*
X148958333Y-66926666D01*
X149025000Y-66960000D01*
X149058333Y-66993333D01*
X149091666Y-67060000D01*
X149091666Y-67126666D01*
X149058333Y-67226666D01*
X148658333Y-67626666D01*
X149091666Y-67626666D01*
X149691666Y-67160000D02*
X149691666Y-67626666D01*
X149525000Y-66893333D02*
X149358333Y-67393333D01*
X149791666Y-67393333D01*
X150596666Y-59373333D02*
X150630000Y-59340000D01*
X150696666Y-59306666D01*
X150863333Y-59306666D01*
X150930000Y-59340000D01*
X150963333Y-59373333D01*
X150996666Y-59440000D01*
X150996666Y-59506666D01*
X150963333Y-59606666D01*
X150563333Y-60006666D01*
X150996666Y-60006666D01*
X151330000Y-60006666D02*
X151463333Y-60006666D01*
X151530000Y-59973333D01*
X151563333Y-59940000D01*
X151630000Y-59840000D01*
X151663333Y-59706666D01*
X151663333Y-59440000D01*
X151630000Y-59373333D01*
X151596666Y-59340000D01*
X151530000Y-59306666D01*
X151396666Y-59306666D01*
X151330000Y-59340000D01*
X151296666Y-59373333D01*
X151263333Y-59440000D01*
X151263333Y-59606666D01*
X151296666Y-59673333D01*
X151330000Y-59706666D01*
X151396666Y-59740000D01*
X151530000Y-59740000D01*
X151596666Y-59706666D01*
X151630000Y-59673333D01*
X151663333Y-59606666D01*
X149158333Y-87546666D02*
X149091666Y-87513333D01*
X149058333Y-87480000D01*
X149025000Y-87413333D01*
X149025000Y-87380000D01*
X149058333Y-87313333D01*
X149091666Y-87280000D01*
X149158333Y-87246666D01*
X149291666Y-87246666D01*
X149358333Y-87280000D01*
X149391666Y-87313333D01*
X149425000Y-87380000D01*
X149425000Y-87413333D01*
X149391666Y-87480000D01*
X149358333Y-87513333D01*
X149291666Y-87546666D01*
X149158333Y-87546666D01*
X149091666Y-87580000D01*
X149058333Y-87613333D01*
X149025000Y-87680000D01*
X149025000Y-87813333D01*
X149058333Y-87880000D01*
X149091666Y-87913333D01*
X149158333Y-87946666D01*
X149291666Y-87946666D01*
X149358333Y-87913333D01*
X149391666Y-87880000D01*
X149425000Y-87813333D01*
X149425000Y-87680000D01*
X149391666Y-87613333D01*
X149358333Y-87580000D01*
X149291666Y-87546666D01*
X149358333Y-89786666D02*
X149225000Y-89786666D01*
X149158333Y-89820000D01*
X149125000Y-89853333D01*
X149058333Y-89953333D01*
X149025000Y-90086666D01*
X149025000Y-90353333D01*
X149058333Y-90420000D01*
X149091666Y-90453333D01*
X149158333Y-90486666D01*
X149291666Y-90486666D01*
X149358333Y-90453333D01*
X149391666Y-90420000D01*
X149425000Y-90353333D01*
X149425000Y-90186666D01*
X149391666Y-90120000D01*
X149358333Y-90086666D01*
X149291666Y-90053333D01*
X149158333Y-90053333D01*
X149091666Y-90086666D01*
X149058333Y-90120000D01*
X149025000Y-90186666D01*
X150996666Y-82866666D02*
X150596666Y-82866666D01*
X150796666Y-82866666D02*
X150796666Y-82166666D01*
X150730000Y-82266666D01*
X150663333Y-82333333D01*
X150596666Y-82366666D01*
X151663333Y-82866666D02*
X151263333Y-82866666D01*
X151463333Y-82866666D02*
X151463333Y-82166666D01*
X151396666Y-82266666D01*
X151330000Y-82333333D01*
X151263333Y-82366666D01*
X149091666Y-77786666D02*
X148691666Y-77786666D01*
X148891666Y-77786666D02*
X148891666Y-77086666D01*
X148825000Y-77186666D01*
X148758333Y-77253333D01*
X148691666Y-77286666D01*
X149691666Y-77086666D02*
X149558333Y-77086666D01*
X149491666Y-77120000D01*
X149458333Y-77153333D01*
X149391666Y-77253333D01*
X149358333Y-77386666D01*
X149358333Y-77653333D01*
X149391666Y-77720000D01*
X149425000Y-77753333D01*
X149491666Y-77786666D01*
X149625000Y-77786666D01*
X149691666Y-77753333D01*
X149725000Y-77720000D01*
X149758333Y-77653333D01*
X149758333Y-77486666D01*
X149725000Y-77420000D01*
X149691666Y-77386666D01*
X149625000Y-77353333D01*
X149491666Y-77353333D01*
X149425000Y-77386666D01*
X149391666Y-77420000D01*
X149358333Y-77486666D01*
X149091666Y-80326666D02*
X148691666Y-80326666D01*
X148891666Y-80326666D02*
X148891666Y-79626666D01*
X148825000Y-79726666D01*
X148758333Y-79793333D01*
X148691666Y-79826666D01*
X149691666Y-79860000D02*
X149691666Y-80326666D01*
X149525000Y-79593333D02*
X149358333Y-80093333D01*
X149791666Y-80093333D01*
X148691666Y-69533333D02*
X148725000Y-69500000D01*
X148791666Y-69466666D01*
X148958333Y-69466666D01*
X149025000Y-69500000D01*
X149058333Y-69533333D01*
X149091666Y-69600000D01*
X149091666Y-69666666D01*
X149058333Y-69766666D01*
X148658333Y-70166666D01*
X149091666Y-70166666D01*
X149358333Y-69533333D02*
X149391666Y-69500000D01*
X149458333Y-69466666D01*
X149625000Y-69466666D01*
X149691666Y-69500000D01*
X149725000Y-69533333D01*
X149758333Y-69600000D01*
X149758333Y-69666666D01*
X149725000Y-69766666D01*
X149325000Y-70166666D01*
X149758333Y-70166666D01*
X150996666Y-80326666D02*
X150596666Y-80326666D01*
X150796666Y-80326666D02*
X150796666Y-79626666D01*
X150730000Y-79726666D01*
X150663333Y-79793333D01*
X150596666Y-79826666D01*
X151230000Y-79626666D02*
X151663333Y-79626666D01*
X151430000Y-79893333D01*
X151530000Y-79893333D01*
X151596666Y-79926666D01*
X151630000Y-79960000D01*
X151663333Y-80026666D01*
X151663333Y-80193333D01*
X151630000Y-80260000D01*
X151596666Y-80293333D01*
X151530000Y-80326666D01*
X151330000Y-80326666D01*
X151263333Y-80293333D01*
X151230000Y-80260000D01*
X148691666Y-72073333D02*
X148725000Y-72040000D01*
X148791666Y-72006666D01*
X148958333Y-72006666D01*
X149025000Y-72040000D01*
X149058333Y-72073333D01*
X149091666Y-72140000D01*
X149091666Y-72206666D01*
X149058333Y-72306666D01*
X148658333Y-72706666D01*
X149091666Y-72706666D01*
X149525000Y-72006666D02*
X149591666Y-72006666D01*
X149658333Y-72040000D01*
X149691666Y-72073333D01*
X149725000Y-72140000D01*
X149758333Y-72273333D01*
X149758333Y-72440000D01*
X149725000Y-72573333D01*
X149691666Y-72640000D01*
X149658333Y-72673333D01*
X149591666Y-72706666D01*
X149525000Y-72706666D01*
X149458333Y-72673333D01*
X149425000Y-72640000D01*
X149391666Y-72573333D01*
X149358333Y-72440000D01*
X149358333Y-72273333D01*
X149391666Y-72140000D01*
X149425000Y-72073333D01*
X149458333Y-72040000D01*
X149525000Y-72006666D01*
X150996666Y-85406666D02*
X151130000Y-85406666D01*
X151196666Y-85373333D01*
X151230000Y-85340000D01*
X151296666Y-85240000D01*
X151330000Y-85106666D01*
X151330000Y-84840000D01*
X151296666Y-84773333D01*
X151263333Y-84740000D01*
X151196666Y-84706666D01*
X151063333Y-84706666D01*
X150996666Y-84740000D01*
X150963333Y-84773333D01*
X150930000Y-84840000D01*
X150930000Y-85006666D01*
X150963333Y-85073333D01*
X150996666Y-85106666D01*
X151063333Y-85140000D01*
X151196666Y-85140000D01*
X151263333Y-85106666D01*
X151296666Y-85073333D01*
X151330000Y-85006666D01*
X150596666Y-61913333D02*
X150630000Y-61880000D01*
X150696666Y-61846666D01*
X150863333Y-61846666D01*
X150930000Y-61880000D01*
X150963333Y-61913333D01*
X150996666Y-61980000D01*
X150996666Y-62046666D01*
X150963333Y-62146666D01*
X150563333Y-62546666D01*
X150996666Y-62546666D01*
X151230000Y-61846666D02*
X151696666Y-61846666D01*
X151396666Y-62546666D01*
X150996666Y-77786666D02*
X150596666Y-77786666D01*
X150796666Y-77786666D02*
X150796666Y-77086666D01*
X150730000Y-77186666D01*
X150663333Y-77253333D01*
X150596666Y-77286666D01*
X151630000Y-77086666D02*
X151296666Y-77086666D01*
X151263333Y-77420000D01*
X151296666Y-77386666D01*
X151363333Y-77353333D01*
X151530000Y-77353333D01*
X151596666Y-77386666D01*
X151630000Y-77420000D01*
X151663333Y-77486666D01*
X151663333Y-77653333D01*
X151630000Y-77720000D01*
X151596666Y-77753333D01*
X151530000Y-77786666D01*
X151363333Y-77786666D01*
X151296666Y-77753333D01*
X151263333Y-77720000D01*
X150596666Y-64453333D02*
X150630000Y-64420000D01*
X150696666Y-64386666D01*
X150863333Y-64386666D01*
X150930000Y-64420000D01*
X150963333Y-64453333D01*
X150996666Y-64520000D01*
X150996666Y-64586666D01*
X150963333Y-64686666D01*
X150563333Y-65086666D01*
X150996666Y-65086666D01*
X151630000Y-64386666D02*
X151296666Y-64386666D01*
X151263333Y-64720000D01*
X151296666Y-64686666D01*
X151363333Y-64653333D01*
X151530000Y-64653333D01*
X151596666Y-64686666D01*
X151630000Y-64720000D01*
X151663333Y-64786666D01*
X151663333Y-64953333D01*
X151630000Y-65020000D01*
X151596666Y-65053333D01*
X151530000Y-65086666D01*
X151363333Y-65086666D01*
X151296666Y-65053333D01*
X151263333Y-65020000D01*
X150896666Y-92326666D02*
X151330000Y-92326666D01*
X151096666Y-92593333D01*
X151196666Y-92593333D01*
X151263333Y-92626666D01*
X151296666Y-92660000D01*
X151330000Y-92726666D01*
X151330000Y-92893333D01*
X151296666Y-92960000D01*
X151263333Y-92993333D01*
X151196666Y-93026666D01*
X150996666Y-93026666D01*
X150930000Y-92993333D01*
X150896666Y-92960000D01*
X150996666Y-75246666D02*
X150596666Y-75246666D01*
X150796666Y-75246666D02*
X150796666Y-74546666D01*
X150730000Y-74646666D01*
X150663333Y-74713333D01*
X150596666Y-74746666D01*
X151230000Y-74546666D02*
X151696666Y-74546666D01*
X151396666Y-75246666D01*
X150563333Y-56766666D02*
X150996666Y-56766666D01*
X150763333Y-57033333D01*
X150863333Y-57033333D01*
X150930000Y-57066666D01*
X150963333Y-57100000D01*
X150996666Y-57166666D01*
X150996666Y-57333333D01*
X150963333Y-57400000D01*
X150930000Y-57433333D01*
X150863333Y-57466666D01*
X150663333Y-57466666D01*
X150596666Y-57433333D01*
X150563333Y-57400000D01*
X151663333Y-57466666D02*
X151263333Y-57466666D01*
X151463333Y-57466666D02*
X151463333Y-56766666D01*
X151396666Y-56866666D01*
X151330000Y-56933333D01*
X151263333Y-56966666D01*
X150896666Y-87246666D02*
X151363333Y-87246666D01*
X151063333Y-87946666D01*
X148691666Y-61913333D02*
X148725000Y-61880000D01*
X148791666Y-61846666D01*
X148958333Y-61846666D01*
X149025000Y-61880000D01*
X149058333Y-61913333D01*
X149091666Y-61980000D01*
X149091666Y-62046666D01*
X149058333Y-62146666D01*
X148658333Y-62546666D01*
X149091666Y-62546666D01*
X149491666Y-62146666D02*
X149425000Y-62113333D01*
X149391666Y-62080000D01*
X149358333Y-62013333D01*
X149358333Y-61980000D01*
X149391666Y-61913333D01*
X149425000Y-61880000D01*
X149491666Y-61846666D01*
X149625000Y-61846666D01*
X149691666Y-61880000D01*
X149725000Y-61913333D01*
X149758333Y-61980000D01*
X149758333Y-62013333D01*
X149725000Y-62080000D01*
X149691666Y-62113333D01*
X149625000Y-62146666D01*
X149491666Y-62146666D01*
X149425000Y-62180000D01*
X149391666Y-62213333D01*
X149358333Y-62280000D01*
X149358333Y-62413333D01*
X149391666Y-62480000D01*
X149425000Y-62513333D01*
X149491666Y-62546666D01*
X149625000Y-62546666D01*
X149691666Y-62513333D01*
X149725000Y-62480000D01*
X149758333Y-62413333D01*
X149758333Y-62280000D01*
X149725000Y-62213333D01*
X149691666Y-62180000D01*
X149625000Y-62146666D01*
X151330000Y-95566666D02*
X150930000Y-95566666D01*
X151130000Y-95566666D02*
X151130000Y-94866666D01*
X151063333Y-94966666D01*
X150996666Y-95033333D01*
X150930000Y-95066666D01*
X151296666Y-89786666D02*
X150963333Y-89786666D01*
X150930000Y-90120000D01*
X150963333Y-90086666D01*
X151030000Y-90053333D01*
X151196666Y-90053333D01*
X151263333Y-90086666D01*
X151296666Y-90120000D01*
X151330000Y-90186666D01*
X151330000Y-90353333D01*
X151296666Y-90420000D01*
X151263333Y-90453333D01*
X151196666Y-90486666D01*
X151030000Y-90486666D01*
X150963333Y-90453333D01*
X150930000Y-90420000D01*
X149091666Y-75246666D02*
X148691666Y-75246666D01*
X148891666Y-75246666D02*
X148891666Y-74546666D01*
X148825000Y-74646666D01*
X148758333Y-74713333D01*
X148691666Y-74746666D01*
X149491666Y-74846666D02*
X149425000Y-74813333D01*
X149391666Y-74780000D01*
X149358333Y-74713333D01*
X149358333Y-74680000D01*
X149391666Y-74613333D01*
X149425000Y-74580000D01*
X149491666Y-74546666D01*
X149625000Y-74546666D01*
X149691666Y-74580000D01*
X149725000Y-74613333D01*
X149758333Y-74680000D01*
X149758333Y-74713333D01*
X149725000Y-74780000D01*
X149691666Y-74813333D01*
X149625000Y-74846666D01*
X149491666Y-74846666D01*
X149425000Y-74880000D01*
X149391666Y-74913333D01*
X149358333Y-74980000D01*
X149358333Y-75113333D01*
X149391666Y-75180000D01*
X149425000Y-75213333D01*
X149491666Y-75246666D01*
X149625000Y-75246666D01*
X149691666Y-75213333D01*
X149725000Y-75180000D01*
X149758333Y-75113333D01*
X149758333Y-74980000D01*
X149725000Y-74913333D01*
X149691666Y-74880000D01*
X149625000Y-74846666D01*
X150596666Y-66993333D02*
X150630000Y-66960000D01*
X150696666Y-66926666D01*
X150863333Y-66926666D01*
X150930000Y-66960000D01*
X150963333Y-66993333D01*
X150996666Y-67060000D01*
X150996666Y-67126666D01*
X150963333Y-67226666D01*
X150563333Y-67626666D01*
X150996666Y-67626666D01*
X151230000Y-66926666D02*
X151663333Y-66926666D01*
X151430000Y-67193333D01*
X151530000Y-67193333D01*
X151596666Y-67226666D01*
X151630000Y-67260000D01*
X151663333Y-67326666D01*
X151663333Y-67493333D01*
X151630000Y-67560000D01*
X151596666Y-67593333D01*
X151530000Y-67626666D01*
X151330000Y-67626666D01*
X151263333Y-67593333D01*
X151230000Y-67560000D01*
X149091666Y-82866666D02*
X148691666Y-82866666D01*
X148891666Y-82866666D02*
X148891666Y-82166666D01*
X148825000Y-82266666D01*
X148758333Y-82333333D01*
X148691666Y-82366666D01*
X149358333Y-82233333D02*
X149391666Y-82200000D01*
X149458333Y-82166666D01*
X149625000Y-82166666D01*
X149691666Y-82200000D01*
X149725000Y-82233333D01*
X149758333Y-82300000D01*
X149758333Y-82366666D01*
X149725000Y-82466666D01*
X149325000Y-82866666D01*
X149758333Y-82866666D01*
X153527333Y-92414166D02*
X153960666Y-92414166D01*
X153727333Y-92680833D01*
X153827333Y-92680833D01*
X153894000Y-92714166D01*
X153927333Y-92747500D01*
X153960666Y-92814166D01*
X153960666Y-92980833D01*
X153927333Y-93047500D01*
X153894000Y-93080833D01*
X153827333Y-93114166D01*
X153627333Y-93114166D01*
X153560666Y-93080833D01*
X153527333Y-93047500D01*
X154627333Y-93114166D02*
X154227333Y-93114166D01*
X154427333Y-93114166D02*
X154427333Y-92414166D01*
X154360666Y-92514166D01*
X154294000Y-92580833D01*
X154227333Y-92614166D01*
X155460666Y-93114166D02*
X155460666Y-92414166D01*
X155727333Y-92414166D01*
X155794000Y-92447500D01*
X155827333Y-92480833D01*
X155860666Y-92547500D01*
X155860666Y-92647500D01*
X155827333Y-92714166D01*
X155794000Y-92747500D01*
X155727333Y-92780833D01*
X155460666Y-92780833D01*
X156160666Y-93114166D02*
X156160666Y-92647500D01*
X156160666Y-92414166D02*
X156127333Y-92447500D01*
X156160666Y-92480833D01*
X156194000Y-92447500D01*
X156160666Y-92414166D01*
X156160666Y-92480833D01*
X156494000Y-92647500D02*
X156494000Y-93114166D01*
X156494000Y-92714166D02*
X156527333Y-92680833D01*
X156594000Y-92647500D01*
X156694000Y-92647500D01*
X156760666Y-92680833D01*
X156794000Y-92747500D01*
X156794000Y-93114166D01*
X154710666Y-94241166D02*
X154377333Y-94241166D01*
X154377333Y-93541166D01*
X155344000Y-94174500D02*
X155310666Y-94207833D01*
X155210666Y-94241166D01*
X155144000Y-94241166D01*
X155044000Y-94207833D01*
X154977333Y-94141166D01*
X154944000Y-94074500D01*
X154910666Y-93941166D01*
X154910666Y-93841166D01*
X154944000Y-93707833D01*
X154977333Y-93641166D01*
X155044000Y-93574500D01*
X155144000Y-93541166D01*
X155210666Y-93541166D01*
X155310666Y-93574500D01*
X155344000Y-93607833D01*
X155644000Y-94241166D02*
X155644000Y-93541166D01*
X155810666Y-93541166D01*
X155910666Y-93574500D01*
X155977333Y-93641166D01*
X156010666Y-93707833D01*
X156044000Y-93841166D01*
X156044000Y-93941166D01*
X156010666Y-94074500D01*
X155977333Y-94141166D01*
X155910666Y-94207833D01*
X155810666Y-94241166D01*
X155644000Y-94241166D01*
X153294000Y-95001500D02*
X153394000Y-95034833D01*
X153427333Y-95068166D01*
X153460666Y-95134833D01*
X153460666Y-95234833D01*
X153427333Y-95301500D01*
X153394000Y-95334833D01*
X153327333Y-95368166D01*
X153060666Y-95368166D01*
X153060666Y-94668166D01*
X153294000Y-94668166D01*
X153360666Y-94701500D01*
X153394000Y-94734833D01*
X153427333Y-94801500D01*
X153427333Y-94868166D01*
X153394000Y-94934833D01*
X153360666Y-94968166D01*
X153294000Y-95001500D01*
X153060666Y-95001500D01*
X153760666Y-95368166D02*
X153760666Y-94901500D01*
X153760666Y-95034833D02*
X153794000Y-94968166D01*
X153827333Y-94934833D01*
X153894000Y-94901500D01*
X153960666Y-94901500D01*
X154460666Y-95334833D02*
X154394000Y-95368166D01*
X154260666Y-95368166D01*
X154194000Y-95334833D01*
X154160666Y-95268166D01*
X154160666Y-95001500D01*
X154194000Y-94934833D01*
X154260666Y-94901500D01*
X154394000Y-94901500D01*
X154460666Y-94934833D01*
X154494000Y-95001500D01*
X154494000Y-95068166D01*
X154160666Y-95134833D01*
X155094000Y-95368166D02*
X155094000Y-95001500D01*
X155060666Y-94934833D01*
X154994000Y-94901500D01*
X154860666Y-94901500D01*
X154794000Y-94934833D01*
X155094000Y-95334833D02*
X155027333Y-95368166D01*
X154860666Y-95368166D01*
X154794000Y-95334833D01*
X154760666Y-95268166D01*
X154760666Y-95201500D01*
X154794000Y-95134833D01*
X154860666Y-95101500D01*
X155027333Y-95101500D01*
X155094000Y-95068166D01*
X155427333Y-95368166D02*
X155427333Y-94668166D01*
X155494000Y-95101500D02*
X155694000Y-95368166D01*
X155694000Y-94901500D02*
X155427333Y-95168166D01*
X156094000Y-95368166D02*
X156027333Y-95334833D01*
X155994000Y-95301500D01*
X155960666Y-95234833D01*
X155960666Y-95034833D01*
X155994000Y-94968166D01*
X156027333Y-94934833D01*
X156094000Y-94901500D01*
X156194000Y-94901500D01*
X156260666Y-94934833D01*
X156294000Y-94968166D01*
X156327333Y-95034833D01*
X156327333Y-95234833D01*
X156294000Y-95301500D01*
X156260666Y-95334833D01*
X156194000Y-95368166D01*
X156094000Y-95368166D01*
X156927333Y-94901500D02*
X156927333Y-95368166D01*
X156627333Y-94901500D02*
X156627333Y-95268166D01*
X156660666Y-95334833D01*
X156727333Y-95368166D01*
X156827333Y-95368166D01*
X156894000Y-95334833D01*
X156927333Y-95301500D01*
X157160666Y-94901500D02*
X157427333Y-94901500D01*
X157260666Y-94668166D02*
X157260666Y-95268166D01*
X157294000Y-95334833D01*
X157360666Y-95368166D01*
X157427333Y-95368166D01*
X154277333Y-96495166D02*
X154044000Y-96161833D01*
X153877333Y-96495166D02*
X153877333Y-95795166D01*
X154144000Y-95795166D01*
X154210666Y-95828500D01*
X154244000Y-95861833D01*
X154277333Y-95928500D01*
X154277333Y-96028500D01*
X154244000Y-96095166D01*
X154210666Y-96128500D01*
X154144000Y-96161833D01*
X153877333Y-96161833D01*
X154844000Y-96461833D02*
X154777333Y-96495166D01*
X154644000Y-96495166D01*
X154577333Y-96461833D01*
X154544000Y-96395166D01*
X154544000Y-96128500D01*
X154577333Y-96061833D01*
X154644000Y-96028500D01*
X154777333Y-96028500D01*
X154844000Y-96061833D01*
X154877333Y-96128500D01*
X154877333Y-96195166D01*
X154544000Y-96261833D01*
X155110666Y-96028500D02*
X155277333Y-96495166D01*
X155444000Y-96028500D01*
X156210666Y-96295166D02*
X156544000Y-96295166D01*
X156144000Y-96495166D02*
X156377333Y-95795166D01*
X156610666Y-96495166D01*
X149041666Y-57466666D02*
X149408333Y-57000000D01*
X149041666Y-57000000D02*
X149408333Y-57466666D01*
X150596666Y-69533333D02*
X150630000Y-69500000D01*
X150696666Y-69466666D01*
X150863333Y-69466666D01*
X150930000Y-69500000D01*
X150963333Y-69533333D01*
X150996666Y-69600000D01*
X150996666Y-69666666D01*
X150963333Y-69766666D01*
X150563333Y-70166666D01*
X150996666Y-70166666D01*
X151663333Y-70166666D02*
X151263333Y-70166666D01*
X151463333Y-70166666D02*
X151463333Y-69466666D01*
X151396666Y-69566666D01*
X151330000Y-69633333D01*
X151263333Y-69666666D01*
X148658333Y-59306666D02*
X149091666Y-59306666D01*
X148858333Y-59573333D01*
X148958333Y-59573333D01*
X149025000Y-59606666D01*
X149058333Y-59640000D01*
X149091666Y-59706666D01*
X149091666Y-59873333D01*
X149058333Y-59940000D01*
X149025000Y-59973333D01*
X148958333Y-60006666D01*
X148758333Y-60006666D01*
X148691666Y-59973333D01*
X148658333Y-59940000D01*
X149525000Y-59306666D02*
X149591666Y-59306666D01*
X149658333Y-59340000D01*
X149691666Y-59373333D01*
X149725000Y-59440000D01*
X149758333Y-59573333D01*
X149758333Y-59740000D01*
X149725000Y-59873333D01*
X149691666Y-59940000D01*
X149658333Y-59973333D01*
X149591666Y-60006666D01*
X149525000Y-60006666D01*
X149458333Y-59973333D01*
X149425000Y-59940000D01*
X149391666Y-59873333D01*
X149358333Y-59740000D01*
X149358333Y-59573333D01*
X149391666Y-59440000D01*
X149425000Y-59373333D01*
X149458333Y-59340000D01*
X149525000Y-59306666D01*
X150996666Y-72706666D02*
X150596666Y-72706666D01*
X150796666Y-72706666D02*
X150796666Y-72006666D01*
X150730000Y-72106666D01*
X150663333Y-72173333D01*
X150596666Y-72206666D01*
X151330000Y-72706666D02*
X151463333Y-72706666D01*
X151530000Y-72673333D01*
X151563333Y-72640000D01*
X151630000Y-72540000D01*
X151663333Y-72406666D01*
X151663333Y-72140000D01*
X151630000Y-72073333D01*
X151596666Y-72040000D01*
X151530000Y-72006666D01*
X151396666Y-72006666D01*
X151330000Y-72040000D01*
X151296666Y-72073333D01*
X151263333Y-72140000D01*
X151263333Y-72306666D01*
X151296666Y-72373333D01*
X151330000Y-72406666D01*
X151396666Y-72440000D01*
X151530000Y-72440000D01*
X151596666Y-72406666D01*
X151630000Y-72373333D01*
X151663333Y-72306666D01*
%TO.C,J1*%
X143356071Y-72770000D02*
X142959000Y-72770000D01*
X145829000Y-94870000D02*
X145441929Y-94870000D01*
X145896071Y-61850000D02*
X145441929Y-61850000D01*
X140299000Y-65150000D02*
X134299000Y-65150000D01*
X145896071Y-72770000D02*
X145441929Y-72770000D01*
X143356071Y-67690000D02*
X142959000Y-67690000D01*
X143356071Y-72010000D02*
X142959000Y-72010000D01*
X143356071Y-88010000D02*
X142959000Y-88010000D01*
X145896071Y-66930000D02*
X145441929Y-66930000D01*
X134299000Y-88010000D02*
X134299000Y-87250000D01*
X145896071Y-62610000D02*
X145441929Y-62610000D01*
X140299000Y-72770000D02*
X134299000Y-72770000D01*
X143356071Y-82930000D02*
X142959000Y-82930000D01*
X143356071Y-69470000D02*
X142959000Y-69470000D01*
X140299000Y-67690000D02*
X134299000Y-67690000D01*
X134299000Y-93090000D02*
X134299000Y-92330000D01*
X140299000Y-94970000D02*
X134299000Y-94970000D01*
X145896071Y-59310000D02*
X145441929Y-59310000D01*
X140299000Y-55820000D02*
X140299000Y-96580000D01*
X134299000Y-59310000D02*
X140299000Y-59310000D01*
X142959000Y-81280000D02*
X140299000Y-81280000D01*
X134299000Y-66930000D02*
X140299000Y-66930000D01*
X143356071Y-92330000D02*
X142959000Y-92330000D01*
X134299000Y-92330000D02*
X140299000Y-92330000D01*
X134299000Y-64390000D02*
X140299000Y-64390000D01*
X134299000Y-56770000D02*
X140299000Y-56770000D01*
X140299000Y-93090000D02*
X134299000Y-93090000D01*
X145896071Y-77850000D02*
X145441929Y-77850000D01*
X142959000Y-93980000D02*
X140299000Y-93980000D01*
X134299000Y-70230000D02*
X134299000Y-69470000D01*
X143356071Y-60070000D02*
X142959000Y-60070000D01*
X143356071Y-62610000D02*
X142959000Y-62610000D01*
X145896071Y-56770000D02*
X145441929Y-56770000D01*
X143356071Y-80390000D02*
X142959000Y-80390000D01*
X143356071Y-75310000D02*
X142959000Y-75310000D01*
X142959000Y-55820000D02*
X140299000Y-55820000D01*
X140299000Y-75310000D02*
X134299000Y-75310000D01*
X145896071Y-72010000D02*
X145441929Y-72010000D01*
X142959000Y-71120000D02*
X140299000Y-71120000D01*
X145829000Y-95630000D02*
X145441929Y-95630000D01*
X134299000Y-60070000D02*
X134299000Y-59310000D01*
X142959000Y-60960000D02*
X140299000Y-60960000D01*
X143356071Y-65150000D02*
X142959000Y-65150000D01*
X142959000Y-91440000D02*
X140299000Y-91440000D01*
X140299000Y-95330000D02*
X134299000Y-95330000D01*
X143356071Y-70230000D02*
X142959000Y-70230000D01*
X143356071Y-90550000D02*
X142959000Y-90550000D01*
X134299000Y-89790000D02*
X140299000Y-89790000D01*
X143356071Y-56770000D02*
X142959000Y-56770000D01*
X145896071Y-85470000D02*
X145441929Y-85470000D01*
X134299000Y-94870000D02*
X140299000Y-94870000D01*
X143356071Y-79630000D02*
X142959000Y-79630000D01*
X145896071Y-82170000D02*
X145441929Y-82170000D01*
X134299000Y-75310000D02*
X134299000Y-74550000D01*
X140299000Y-96580000D02*
X142959000Y-96580000D01*
X142959000Y-58420000D02*
X140299000Y-58420000D01*
X134299000Y-67690000D02*
X134299000Y-66930000D01*
X142959000Y-78740000D02*
X140299000Y-78740000D01*
X140299000Y-88010000D02*
X134299000Y-88010000D01*
X148209000Y-95250000D02*
X148209000Y-96520000D01*
X140299000Y-90550000D02*
X134299000Y-90550000D01*
X145896071Y-87250000D02*
X145441929Y-87250000D01*
X134299000Y-95630000D02*
X134299000Y-94870000D01*
X140299000Y-62610000D02*
X134299000Y-62610000D01*
X142959000Y-88900000D02*
X140299000Y-88900000D01*
X145896071Y-75310000D02*
X145441929Y-75310000D01*
X145896071Y-65150000D02*
X145441929Y-65150000D01*
X134299000Y-90550000D02*
X134299000Y-89790000D01*
X145896071Y-84710000D02*
X145441929Y-84710000D01*
X140299000Y-77850000D02*
X134299000Y-77850000D01*
X148209000Y-96520000D02*
X146939000Y-96520000D01*
X142959000Y-96580000D02*
X142959000Y-55820000D01*
X134299000Y-82170000D02*
X140299000Y-82170000D01*
X134299000Y-79630000D02*
X140299000Y-79630000D01*
X142959000Y-63500000D02*
X140299000Y-63500000D01*
X143356071Y-66930000D02*
X142959000Y-66930000D01*
X134299000Y-57530000D02*
X134299000Y-56770000D01*
X134299000Y-77090000D02*
X140299000Y-77090000D01*
X140299000Y-60070000D02*
X134299000Y-60070000D01*
X145896071Y-88010000D02*
X145441929Y-88010000D01*
X142959000Y-83820000D02*
X140299000Y-83820000D01*
X140299000Y-95090000D02*
X134299000Y-95090000D01*
X145896071Y-67690000D02*
X145441929Y-67690000D01*
X134299000Y-80390000D02*
X134299000Y-79630000D01*
X134299000Y-72770000D02*
X134299000Y-72010000D01*
X143356071Y-61850000D02*
X142959000Y-61850000D01*
X143356071Y-89790000D02*
X142959000Y-89790000D01*
X142959000Y-76200000D02*
X140299000Y-76200000D01*
X142959000Y-68580000D02*
X140299000Y-68580000D01*
X145896071Y-90550000D02*
X145441929Y-90550000D01*
X134299000Y-82930000D02*
X134299000Y-82170000D01*
X134299000Y-72010000D02*
X140299000Y-72010000D01*
X145896071Y-80390000D02*
X145441929Y-80390000D01*
X143356071Y-74550000D02*
X142959000Y-74550000D01*
X145896071Y-79630000D02*
X145441929Y-79630000D01*
X145896071Y-74550000D02*
X145441929Y-74550000D01*
X134299000Y-77850000D02*
X134299000Y-77090000D01*
X145896071Y-57530000D02*
X145441929Y-57530000D01*
X134299000Y-69470000D02*
X140299000Y-69470000D01*
X140299000Y-82930000D02*
X134299000Y-82930000D01*
X143356071Y-77850000D02*
X142959000Y-77850000D01*
X134299000Y-61850000D02*
X140299000Y-61850000D01*
X145896071Y-89790000D02*
X145441929Y-89790000D01*
X140299000Y-95570000D02*
X134299000Y-95570000D01*
X143356071Y-85470000D02*
X142959000Y-85470000D01*
X143356071Y-82170000D02*
X142959000Y-82170000D01*
X143356071Y-93090000D02*
X142959000Y-93090000D01*
X143356071Y-87250000D02*
X142959000Y-87250000D01*
X143356071Y-57530000D02*
X142959000Y-57530000D01*
X145896071Y-69470000D02*
X145441929Y-69470000D01*
X140299000Y-95450000D02*
X134299000Y-95450000D01*
X134299000Y-65150000D02*
X134299000Y-64390000D01*
X143356071Y-94870000D02*
X142959000Y-94870000D01*
X145896071Y-93090000D02*
X145441929Y-93090000D01*
X145896071Y-77090000D02*
X145441929Y-77090000D01*
X140299000Y-70230000D02*
X134299000Y-70230000D01*
X140299000Y-80390000D02*
X134299000Y-80390000D01*
X134299000Y-87250000D02*
X140299000Y-87250000D01*
X145896071Y-60070000D02*
X145441929Y-60070000D01*
X142959000Y-66040000D02*
X140299000Y-66040000D01*
X145896071Y-92330000D02*
X145441929Y-92330000D01*
X142959000Y-73660000D02*
X140299000Y-73660000D01*
X143356071Y-95630000D02*
X142959000Y-95630000D01*
X143356071Y-84710000D02*
X142959000Y-84710000D01*
X143356071Y-77090000D02*
X142959000Y-77090000D01*
X140299000Y-57530000D02*
X134299000Y-57530000D01*
X134299000Y-74550000D02*
X140299000Y-74550000D01*
X145896071Y-64390000D02*
X145441929Y-64390000D01*
X140299000Y-95630000D02*
X134299000Y-95630000D01*
X142959000Y-86360000D02*
X140299000Y-86360000D01*
X143356071Y-59310000D02*
X142959000Y-59310000D01*
X140299000Y-85470000D02*
X134299000Y-85470000D01*
X134299000Y-62610000D02*
X134299000Y-61850000D01*
X145896071Y-70230000D02*
X145441929Y-70230000D01*
X140299000Y-95210000D02*
X134299000Y-95210000D01*
X134299000Y-85470000D02*
X134299000Y-84710000D01*
X134299000Y-84710000D02*
X140299000Y-84710000D01*
X145896071Y-82930000D02*
X145441929Y-82930000D01*
X143356071Y-64390000D02*
X142959000Y-64390000D01*
%TO.C,J2*%
X152700000Y-82350000D02*
X152700000Y-70050000D01*
X152700000Y-70050000D02*
X157300000Y-70050000D01*
X157300000Y-81350000D02*
X156300000Y-82350000D01*
X157300000Y-70050000D02*
X157300000Y-81350000D01*
X156300000Y-82350000D02*
X152700000Y-82350000D01*
%TD*%
M02*
