G04 #@! TF.GenerationSoftware,KiCad,Pcbnew,5.0.2-bee76a0~70~ubuntu18.04.1*
G04 #@! TF.CreationDate,2018-11-30T19:37:06+00:00*
G04 #@! TF.ProjectId,fpgaboy,66706761-626f-4792-9e6b-696361645f70,rev?*
G04 #@! TF.SameCoordinates,Original*
G04 #@! TF.FileFunction,Copper,L4,Bot*
G04 #@! TF.FilePolarity,Positive*
%FSLAX46Y46*%
G04 Gerber Fmt 4.6, Leading zero omitted, Abs format (unit mm)*
G04 Created by KiCad (PCBNEW 5.0.2-bee76a0~70~ubuntu18.04.1) date Fri 30 Nov 2018 19:37:06 GMT*
%MOMM*%
%LPD*%
G01*
G04 APERTURE LIST*
G04 #@! TA.AperFunction,SMDPad,CuDef*
%ADD10R,2.000000X0.400000*%
G04 #@! TD*
G04 #@! TA.AperFunction,ComponentPad*
%ADD11R,1.700000X1.700000*%
G04 #@! TD*
G04 #@! TA.AperFunction,ComponentPad*
%ADD12O,1.700000X1.700000*%
G04 #@! TD*
G04 #@! TA.AperFunction,ComponentPad*
%ADD13O,1.250000X0.950000*%
G04 #@! TD*
G04 #@! TA.AperFunction,ComponentPad*
%ADD14O,1.000000X1.550000*%
G04 #@! TD*
G04 #@! TA.AperFunction,ComponentPad*
%ADD15C,1.200000*%
G04 #@! TD*
G04 #@! TA.AperFunction,ComponentPad*
%ADD16C,2.000000*%
G04 #@! TD*
G04 #@! TA.AperFunction,ViaPad*
%ADD17C,0.600000*%
G04 #@! TD*
G04 #@! TA.AperFunction,Conductor*
%ADD18C,0.300000*%
G04 #@! TD*
G04 #@! TA.AperFunction,Conductor*
%ADD19C,0.150000*%
G04 #@! TD*
G04 #@! TA.AperFunction,Conductor*
%ADD20C,0.200000*%
G04 #@! TD*
G04 #@! TA.AperFunction,Conductor*
%ADD21C,0.254000*%
G04 #@! TD*
G04 APERTURE END LIST*
D10*
G04 #@! TO.P,P1,1*
G04 #@! TO.N,GND*
X177000000Y-96800000D03*
G04 #@! TO.P,P1,2*
G04 #@! TO.N,/LCD_RESET*
X177000000Y-97600000D03*
G04 #@! TO.P,P1,3*
G04 #@! TO.N,/LCD_SDO*
X177000000Y-98400000D03*
G04 #@! TO.P,P1,4*
G04 #@! TO.N,/LCD_SDA*
X177000000Y-99200000D03*
G04 #@! TO.P,P1,5*
G04 #@! TO.N,/LCD_CS*
X177000000Y-100000000D03*
G04 #@! TO.P,P1,6*
G04 #@! TO.N,/LCD_D~C~*
X177000000Y-100800000D03*
G04 #@! TO.P,P1,7*
G04 #@! TO.N,/LCD_SCL*
X177000000Y-101600000D03*
G04 #@! TO.P,P1,8*
G04 #@! TO.N,GND*
X177000000Y-102400000D03*
G04 #@! TO.P,P1,9*
G04 #@! TO.N,+3V3*
X177000000Y-103200000D03*
G04 #@! TO.P,P1,10*
G04 #@! TO.N,+BATT*
X177000000Y-104000000D03*
G04 #@! TO.P,P1,11*
G04 #@! TO.N,Net-(P1-Pad11)*
X177000000Y-104800000D03*
G04 #@! TO.P,P1,12*
G04 #@! TO.N,Net-(P1-Pad12)*
X177000000Y-105600000D03*
G04 #@! TO.P,P1,13*
G04 #@! TO.N,Net-(P1-Pad13)*
X177000000Y-106400000D03*
G04 #@! TO.P,P1,14*
G04 #@! TO.N,Net-(P1-Pad14)*
X177000000Y-107200000D03*
G04 #@! TO.P,P1,15*
G04 #@! TO.N,Net-(P1-Pad15)*
X177000000Y-108000000D03*
G04 #@! TO.P,P1,16*
G04 #@! TO.N,Net-(P1-Pad16)*
X177000000Y-108800000D03*
G04 #@! TO.P,P1,17*
G04 #@! TO.N,Net-(P1-Pad17)*
X177000000Y-109600000D03*
G04 #@! TO.P,P1,18*
G04 #@! TO.N,Net-(P1-Pad18)*
X177000000Y-110400000D03*
G04 #@! TD*
D11*
G04 #@! TO.P,J1,1*
G04 #@! TO.N,GND*
X132000000Y-122000000D03*
D12*
G04 #@! TO.P,J1,2*
G04 #@! TO.N,/FPGA_UART_RX*
X132000000Y-119460000D03*
G04 #@! TO.P,J1,3*
G04 #@! TO.N,/FPGA_UART_TX*
X132000000Y-116920000D03*
G04 #@! TO.P,J1,4*
G04 #@! TO.N,/uC_SWD*
X132000000Y-114380000D03*
G04 #@! TO.P,J1,5*
G04 #@! TO.N,/uC_SWCLK*
X132000000Y-111840000D03*
G04 #@! TO.P,J1,6*
G04 #@! TO.N,/uC_~RST*
X132000000Y-109300000D03*
G04 #@! TO.P,J1,7*
G04 #@! TO.N,/FPGA_CFG_~RST*
X132000000Y-106760000D03*
G04 #@! TO.P,J1,8*
G04 #@! TO.N,/FPGA_CFG_DONE*
X132000000Y-104220000D03*
G04 #@! TO.P,J1,9*
G04 #@! TO.N,/FPGA_CFG_~SS*
X132000000Y-101680000D03*
G04 #@! TO.P,J1,10*
G04 #@! TO.N,/FPGA_CFG_SCK*
X132000000Y-99140000D03*
G04 #@! TO.P,J1,11*
G04 #@! TO.N,/FPGA_CFG_SI*
X132000000Y-96600000D03*
G04 #@! TO.P,J1,12*
G04 #@! TO.N,+BATT*
X132000000Y-94060000D03*
G04 #@! TD*
D13*
G04 #@! TO.P,P3,6*
G04 #@! TO.N,GND*
X144500900Y-84562540D03*
X139500900Y-84562540D03*
D14*
X145500900Y-81862540D03*
X138500900Y-81862540D03*
G04 #@! TD*
D15*
G04 #@! TO.P,SW1,1*
G04 #@! TO.N,+BATT*
X165000000Y-82000000D03*
G04 #@! TO.P,SW1,2*
G04 #@! TO.N,Net-(R12-Pad1)*
X167000000Y-82000000D03*
G04 #@! TO.P,SW1,3*
G04 #@! TO.N,N/C*
X169000000Y-82000000D03*
D16*
G04 #@! TO.P,SW1,*
G04 #@! TO.N,*
X162900000Y-82000000D03*
X171100000Y-82000000D03*
G04 #@! TD*
D11*
G04 #@! TO.P,P2,1*
G04 #@! TO.N,+BATT*
X132000000Y-88500000D03*
D12*
G04 #@! TO.P,P2,2*
G04 #@! TO.N,GND*
X134540000Y-88500000D03*
G04 #@! TD*
G04 #@! TO.P,J2,6*
G04 #@! TO.N,GND*
X149200000Y-122000000D03*
G04 #@! TO.P,J2,5*
G04 #@! TO.N,/GPIO_SW4*
X146660000Y-122000000D03*
G04 #@! TO.P,J2,4*
G04 #@! TO.N,/GPIO_SW3*
X144120000Y-122000000D03*
G04 #@! TO.P,J2,3*
G04 #@! TO.N,/GPIO_SW2*
X141580000Y-122000000D03*
G04 #@! TO.P,J2,2*
G04 #@! TO.N,/GPIO_SW1*
X139040000Y-122000000D03*
D11*
G04 #@! TO.P,J2,1*
G04 #@! TO.N,/GPIO_SW0*
X136500000Y-122000000D03*
G04 #@! TD*
G04 #@! TO.P,J4,1*
G04 #@! TO.N,/GPIO_SW5*
X136500000Y-118000000D03*
D12*
G04 #@! TO.P,J4,2*
G04 #@! TO.N,/GPIO_SW6*
X139040000Y-118000000D03*
G04 #@! TO.P,J4,3*
G04 #@! TO.N,/GPIO_SW7*
X141580000Y-118000000D03*
G04 #@! TO.P,J4,4*
G04 #@! TO.N,/GPIO_SW8*
X144120000Y-118000000D03*
G04 #@! TO.P,J4,5*
G04 #@! TO.N,/GPIO_SW9*
X146660000Y-118000000D03*
G04 #@! TO.P,J4,6*
G04 #@! TO.N,GND*
X149200000Y-118000000D03*
G04 #@! TD*
D11*
G04 #@! TO.P,P4,1*
G04 #@! TO.N,Net-(C30-Pad1)*
X174500000Y-88500000D03*
D12*
G04 #@! TO.P,P4,2*
G04 #@! TO.N,GND*
X177040000Y-88500000D03*
G04 #@! TD*
D17*
G04 #@! TO.N,GND*
X163199999Y-106200967D03*
X162400000Y-106200968D03*
X161600000Y-105400000D03*
X162400000Y-105400000D03*
X163200000Y-105400000D03*
X161600000Y-104600000D03*
X162400000Y-104600000D03*
X154200000Y-124000000D03*
X170400000Y-116400000D03*
X164000000Y-124400000D03*
X172000000Y-128000000D03*
X178000000Y-122000000D03*
X136000000Y-128000000D03*
X169400000Y-93600000D03*
X178800000Y-110400000D03*
X171400000Y-100600000D03*
X174400000Y-110400000D03*
X177000000Y-93800000D03*
X140500000Y-111000000D03*
X150500000Y-105500002D03*
X150500000Y-104500000D03*
X143500000Y-111000000D03*
X146500000Y-111000000D03*
X143500000Y-99000000D03*
X139500000Y-106000000D03*
X161700000Y-99500000D03*
X161124990Y-88877656D03*
X147100000Y-99325054D03*
X146300000Y-96800000D03*
X162500000Y-88500000D03*
X171000000Y-108900000D03*
X134200000Y-108600000D03*
X154283378Y-116683378D03*
X153225021Y-110406863D03*
X156800000Y-83200000D03*
X149000000Y-108800000D03*
X149000000Y-101000000D03*
X171900000Y-112500000D03*
X171600000Y-123075000D03*
X174250010Y-106598783D03*
X171400000Y-101550000D03*
X131225000Y-124475000D03*
X135525000Y-94375000D03*
X133625000Y-104000000D03*
X135650000Y-110550000D03*
X141750000Y-114700000D03*
X149125000Y-128650000D03*
X163975000Y-128500000D03*
X162425000Y-116800000D03*
X161200000Y-81825000D03*
X148575000Y-83175000D03*
X140900010Y-98971629D03*
X131275000Y-84725000D03*
X134975000Y-81075000D03*
X137033977Y-87401931D03*
X139725000Y-98300000D03*
X167616261Y-106858739D03*
X136500000Y-103250000D03*
X139533739Y-104050021D03*
X172750000Y-87000000D03*
X167500000Y-85500000D03*
X161450000Y-112400000D03*
X157900000Y-113800000D03*
X167600000Y-94600000D03*
X168000000Y-81200010D03*
X178500000Y-99300000D03*
X165400000Y-87000000D03*
X154675000Y-92975000D03*
G04 #@! TO.N,+3V3*
X163999997Y-105400956D03*
X163200968Y-106999999D03*
X161600000Y-107000967D03*
X162399999Y-103800967D03*
X159999999Y-102200967D03*
X160800000Y-105400967D03*
X166399517Y-101400483D03*
X170900000Y-107200000D03*
X160200000Y-128500000D03*
X166800000Y-94200000D03*
X156200000Y-101400000D03*
X162400000Y-84600000D03*
X154400000Y-83200000D03*
X137200000Y-115000000D03*
X141600000Y-97600000D03*
X150100002Y-106750000D03*
X150100010Y-107450000D03*
X162711715Y-94225772D03*
X163150000Y-99349992D03*
X157900000Y-94325010D03*
X136700000Y-94300000D03*
X138500000Y-89625032D03*
X146700000Y-92300008D03*
X148800008Y-110700000D03*
X150054483Y-95145517D03*
X156074968Y-106156318D03*
X162600001Y-112400000D03*
X175500000Y-103200000D03*
X167816276Y-100500000D03*
G04 #@! TO.N,+BATT*
X133600000Y-105200000D03*
X137000000Y-128500004D03*
X144525000Y-107250000D03*
X141999988Y-106799988D03*
X178400000Y-104000000D03*
G04 #@! TO.N,+1V2*
X164000000Y-107000968D03*
X160799999Y-107000968D03*
X160800000Y-103800968D03*
X164000000Y-103800968D03*
X150250000Y-103000000D03*
X170300000Y-111100000D03*
X152600000Y-105500000D03*
X154074990Y-100002943D03*
X150250023Y-101999977D03*
X150300000Y-110700000D03*
X171642270Y-105258654D03*
X154595229Y-109595229D03*
X167816276Y-101452023D03*
G04 #@! TO.N,+5V*
X143712500Y-86200000D03*
X138209495Y-100699470D03*
G04 #@! TO.N,GNDPWR*
X144481942Y-104864309D03*
X143800000Y-104864309D03*
X145200000Y-104864309D03*
G04 #@! TO.N,/FPGA_UART_RX*
X163500000Y-96499944D03*
X150492995Y-98275043D03*
X155478015Y-97045493D03*
G04 #@! TO.N,/FPGA_UART_TX*
X163500000Y-95100000D03*
X149100000Y-98800044D03*
X154650000Y-97125010D03*
G04 #@! TO.N,/uC_SWD*
X137300000Y-96000000D03*
G04 #@! TO.N,/uC_SWCLK*
X137000000Y-95100000D03*
G04 #@! TO.N,/uC_~RST*
X137500000Y-90200000D03*
X138575000Y-102800000D03*
X144438377Y-102574979D03*
G04 #@! TO.N,/FPGA_CFG_~RST*
X167291266Y-102466256D03*
X147257005Y-89065981D03*
X167400000Y-97200000D03*
G04 #@! TO.N,/FPGA_CFG_DONE*
X164300000Y-98200000D03*
X146891990Y-91249989D03*
G04 #@! TO.N,/FPGA_CFG_~SS*
X165798963Y-100391912D03*
X143700000Y-88725010D03*
X166085834Y-97725931D03*
G04 #@! TO.N,/FPGA_CFG_SCK*
X166545835Y-100323358D03*
X146491313Y-88533791D03*
X166828764Y-97828758D03*
G04 #@! TO.N,/FPGA_CFG_SI*
X145459946Y-89699999D03*
X134700000Y-95200000D03*
X164000015Y-102199997D03*
G04 #@! TO.N,/GPIO_SW4*
X160800000Y-106200000D03*
G04 #@! TO.N,/GPIO_SW3*
X145000000Y-115000000D03*
G04 #@! TO.N,/GPIO_SW2*
X143400000Y-115000000D03*
G04 #@! TO.N,/GPIO_SW1*
X142775953Y-114583968D03*
G04 #@! TO.N,/GPIO_SW0*
X156374979Y-104700000D03*
G04 #@! TO.N,/uSD_DAT1*
X158600000Y-83800000D03*
X159676274Y-96374924D03*
G04 #@! TO.N,/uSD_DAT0*
X157299998Y-92300000D03*
X160274990Y-93948193D03*
G04 #@! TO.N,/uSD_CMD*
X153296239Y-83303761D03*
X154600000Y-95042477D03*
X157321786Y-93450012D03*
G04 #@! TO.N,/uSD_DAT3*
X155800000Y-85899964D03*
X153102895Y-94425010D03*
X159493485Y-92519310D03*
X159540171Y-93797995D03*
G04 #@! TO.N,/uSD_DAT2*
X154825010Y-85999996D03*
X158744801Y-92474700D03*
G04 #@! TO.N,/GPIO_SW8*
X143623885Y-116050012D03*
G04 #@! TO.N,/LCD_RESET*
X163200457Y-103800457D03*
X178500000Y-97600000D03*
G04 #@! TO.N,/LCD_SCL*
X175500000Y-101600000D03*
G04 #@! TO.N,/LCD_CS*
X175500000Y-100000000D03*
G04 #@! TO.N,/LCD_SDA*
X175500000Y-99200000D03*
G04 #@! TO.N,/LCD_SDO*
X174669661Y-98669661D03*
G04 #@! TO.N,Net-(P1-Pad11)*
X178400000Y-104800000D03*
G04 #@! TO.N,Net-(P1-Pad12)*
X178400000Y-105600000D03*
G04 #@! TO.N,Net-(P1-Pad13)*
X178400000Y-106400000D03*
G04 #@! TO.N,Net-(P1-Pad14)*
X178400000Y-107200000D03*
G04 #@! TO.N,Net-(R12-Pad1)*
X135325010Y-98599998D03*
X139249968Y-100034404D03*
X139342344Y-108757656D03*
G04 #@! TO.N,/SRAM_A1*
X160800000Y-107800000D03*
X155950013Y-125200000D03*
G04 #@! TO.N,/SRAM_A0*
X161600000Y-107800000D03*
X156800006Y-125200000D03*
G04 #@! TO.N,/SRAM_A2*
X160000000Y-107800000D03*
X155200000Y-125200000D03*
G04 #@! TO.N,/SRAM_~CE*
X162400000Y-107000000D03*
X157600000Y-125200000D03*
G04 #@! TO.N,/SRAM_A3*
X160000000Y-107000000D03*
X154400000Y-125200000D03*
G04 #@! TO.N,/SRAM_DQ1*
X163200000Y-107800000D03*
X158400000Y-125200000D03*
G04 #@! TO.N,/SRAM_DQ2*
X159200000Y-125200000D03*
X164754483Y-106954483D03*
G04 #@! TO.N,/SRAM_DQ3*
X164800000Y-106200000D03*
X160000000Y-125199982D03*
G04 #@! TO.N,/SRAM_DQ5*
X164800000Y-104600000D03*
X163200000Y-125200000D03*
G04 #@! TO.N,/SRAM_DQ4*
X164000001Y-104600968D03*
X160800000Y-125200000D03*
G04 #@! TO.N,/FPGA_HEARTBEAT*
X147400000Y-120125010D03*
X157550022Y-103000000D03*
G04 #@! TO.N,/LCD_D~C~*
X175500000Y-100800000D03*
G04 #@! TO.N,/AUDIO_PWM*
X163200483Y-102199517D03*
X165599994Y-91199994D03*
G04 #@! TD*
D18*
G04 #@! TO.N,+3V3*
X175500000Y-103200000D02*
X177000000Y-103200000D01*
G04 #@! TO.N,+BATT*
X177000000Y-104000000D02*
X178400000Y-104000000D01*
D19*
G04 #@! TO.N,/FPGA_UART_RX*
X155778014Y-97345492D02*
X155478015Y-97045493D01*
X160128786Y-97345492D02*
X155778014Y-97345492D01*
X163500000Y-96499944D02*
X160974334Y-96499944D01*
X160974334Y-96499944D02*
X160128786Y-97345492D01*
X149393038Y-99375000D02*
X150192996Y-98575042D01*
X148975000Y-99375000D02*
X149393038Y-99375000D01*
X144975000Y-103375000D02*
X148975000Y-99375000D01*
X139274999Y-103400000D02*
X144975000Y-103400000D01*
X138650000Y-104024999D02*
X139274999Y-103400000D01*
X138650000Y-106050000D02*
X138650000Y-104024999D01*
X140775000Y-108175000D02*
X138650000Y-106050000D01*
X132849999Y-117899280D02*
X140775000Y-109974279D01*
X140775000Y-109974279D02*
X140775000Y-108175000D01*
X132849999Y-118610001D02*
X132849999Y-117899280D01*
X150192996Y-98575042D02*
X150492995Y-98275043D01*
X144975000Y-103400000D02*
X144975000Y-103375000D01*
X132000000Y-119460000D02*
X132849999Y-118610001D01*
G04 #@! TO.N,/FPGA_UART_TX*
X160150063Y-96899934D02*
X156499934Y-96899934D01*
X156050003Y-96450003D02*
X155325007Y-96450003D01*
X155325007Y-96450003D02*
X154949999Y-96825011D01*
X156499934Y-96899934D02*
X156050003Y-96450003D01*
X163500000Y-95100000D02*
X161950000Y-95100000D01*
X154949999Y-96825011D02*
X154650000Y-97125010D01*
X161950000Y-95100000D02*
X160150063Y-96899934D01*
X138349989Y-103900731D02*
X139150731Y-103099989D01*
X133404279Y-116920000D02*
X140474989Y-109849290D01*
X139150731Y-103099989D02*
X144800055Y-103099989D01*
X148800001Y-99100043D02*
X149100000Y-98800044D01*
X138349989Y-106174268D02*
X138349989Y-103900731D01*
X140474989Y-108299268D02*
X138349989Y-106174268D01*
X144800055Y-103099989D02*
X148800001Y-99100043D01*
X132000000Y-116920000D02*
X133404279Y-116920000D01*
X140474989Y-109849290D02*
X140474989Y-108299268D01*
G04 #@! TO.N,/uC_SWD*
X132000000Y-114380000D02*
X135420001Y-114380000D01*
X138049978Y-102573020D02*
X140074989Y-100548009D01*
X140074989Y-100548009D02*
X140074989Y-99633140D01*
X135420001Y-114380000D02*
X140174978Y-109625023D01*
X137300000Y-96858151D02*
X137300000Y-96424264D01*
X137300000Y-96424264D02*
X137300000Y-96000000D01*
X138049978Y-106298536D02*
X138049978Y-102573020D01*
X140174978Y-108423535D02*
X138049978Y-106298536D01*
X140174978Y-109625023D02*
X140174978Y-108423535D01*
X140074989Y-99633140D02*
X137300000Y-96858151D01*
G04 #@! TO.N,/uC_SWCLK*
X132000000Y-111840000D02*
X137535722Y-111840000D01*
X139874967Y-109500755D02*
X139874967Y-108547803D01*
X139774978Y-100398741D02*
X139774978Y-99757408D01*
X136700001Y-96682431D02*
X136700001Y-95399999D01*
X139774978Y-99757408D02*
X136700001Y-96682431D01*
X137749967Y-102423752D02*
X139774978Y-100398741D01*
X137749967Y-106422804D02*
X137749967Y-102423752D01*
X136700001Y-95399999D02*
X137000000Y-95100000D01*
X139874967Y-108547803D02*
X137749967Y-106422804D01*
X137535722Y-111840000D02*
X139874967Y-109500755D01*
G04 #@! TO.N,/uC_~RST*
X140375000Y-93075000D02*
X140375000Y-101450010D01*
X137500000Y-90200000D02*
X140375000Y-93075000D01*
X139325009Y-102500001D02*
X138874999Y-102500001D01*
X138874999Y-102500001D02*
X138575000Y-102800000D01*
X139700010Y-102125000D02*
X139325009Y-102500001D01*
X140075000Y-101750010D02*
X139325009Y-102500001D01*
X140375000Y-101450010D02*
X140075000Y-101750010D01*
X144288356Y-102725000D02*
X144438377Y-102574979D01*
X140075000Y-101750010D02*
X141049990Y-102725000D01*
X141049990Y-102725000D02*
X144288356Y-102725000D01*
G04 #@! TO.N,/FPGA_CFG_~RST*
X147257005Y-88557005D02*
X147257005Y-89065981D01*
X137200000Y-87900000D02*
X146600000Y-87900000D01*
X133075005Y-92024995D02*
X137200000Y-87900000D01*
X133075005Y-94924995D02*
X133075005Y-92024995D01*
X132000000Y-106760000D02*
X130624988Y-105384988D01*
X130624988Y-105384988D02*
X130624988Y-96275012D01*
X146600000Y-87900000D02*
X147257005Y-88557005D01*
X130624988Y-96275012D02*
X131400000Y-95500000D01*
X131400000Y-95500000D02*
X132500000Y-95500000D01*
X132500000Y-95500000D02*
X133075005Y-94924995D01*
X147257005Y-89065981D02*
X152474999Y-94283975D01*
X152474999Y-94283975D02*
X152474999Y-95952001D01*
X152474999Y-95952001D02*
X154197999Y-97675001D01*
X154197999Y-97675001D02*
X160223556Y-97675001D01*
X160873504Y-97025053D02*
X163752000Y-97025053D01*
X166700001Y-96500001D02*
X167100001Y-96900001D01*
X164277052Y-96500001D02*
X166700001Y-96500001D01*
X160223556Y-97675001D02*
X160873504Y-97025053D01*
X163752000Y-97025053D02*
X164277052Y-96500001D01*
X167100001Y-96900001D02*
X167400000Y-97200000D01*
X167400000Y-97624264D02*
X167400000Y-97200000D01*
X167400000Y-98600000D02*
X167400000Y-97624264D01*
X167291266Y-102466256D02*
X167291266Y-98708734D01*
X167291266Y-98708734D02*
X167400000Y-98600000D01*
G04 #@! TO.N,/FPGA_CFG_DONE*
X146591991Y-90949990D02*
X146891990Y-91249989D01*
X145527164Y-89000000D02*
X146591991Y-90064827D01*
X144202012Y-89000000D02*
X145527164Y-89000000D01*
X143952001Y-89250011D02*
X144202012Y-89000000D01*
X133999989Y-102220011D02*
X133999989Y-92372845D01*
X146591991Y-90064827D02*
X146591991Y-90949990D01*
X142997999Y-88800011D02*
X143447999Y-89250011D01*
X133999989Y-92372845D02*
X137572823Y-88800011D01*
X132000000Y-104220000D02*
X133999989Y-102220011D01*
X137572823Y-88800011D02*
X142997999Y-88800011D01*
X143447999Y-89250011D02*
X143952001Y-89250011D01*
X163924966Y-98575034D02*
X153825195Y-98575034D01*
X153825195Y-98575034D02*
X151574966Y-96324805D01*
X151574966Y-94997800D02*
X147827155Y-91249989D01*
X151574966Y-96324805D02*
X151574966Y-94997800D01*
X164300000Y-98200000D02*
X163924966Y-98575034D01*
X147316254Y-91249989D02*
X146891990Y-91249989D01*
X147827155Y-91249989D02*
X147316254Y-91249989D01*
G04 #@! TO.N,/FPGA_CFG_~SS*
X166244864Y-97644864D02*
X166250000Y-97650000D01*
X133675023Y-92273533D02*
X137448545Y-88500011D01*
X137448545Y-88500011D02*
X143475001Y-88500011D01*
X143475001Y-88500011D02*
X143700000Y-88725010D01*
X133675023Y-100004977D02*
X133675023Y-92273533D01*
X132000000Y-101680000D02*
X133675023Y-100004977D01*
X151874977Y-94873533D02*
X145701433Y-88699989D01*
X145701433Y-88699989D02*
X143725021Y-88699989D01*
X153949463Y-98275023D02*
X151874977Y-96200537D01*
X160472092Y-98275023D02*
X153949463Y-98275023D01*
X143725021Y-88699989D02*
X143700000Y-88725010D01*
X161102251Y-97644864D02*
X160472092Y-98275023D01*
X151874977Y-96200537D02*
X151874977Y-94873533D01*
X166244864Y-97644864D02*
X161102251Y-97644864D01*
X165798963Y-100391912D02*
X165798963Y-98012802D01*
X166244864Y-97644864D02*
X166163797Y-97725931D01*
X165798963Y-98012802D02*
X166085834Y-97725931D01*
X166163797Y-97725931D02*
X166085834Y-97725931D01*
G04 #@! TO.N,/FPGA_CFG_SCK*
X146191314Y-88233792D02*
X146491313Y-88533791D01*
X137324278Y-88200000D02*
X146157522Y-88200000D01*
X146157522Y-88200000D02*
X146191314Y-88233792D01*
X132000000Y-99140000D02*
X133375012Y-97764988D01*
X133375012Y-92149266D02*
X137324278Y-88200000D01*
X133375012Y-97764988D02*
X133375012Y-92149266D01*
X146491313Y-88533791D02*
X146491313Y-89065591D01*
X154073731Y-97975012D02*
X160347824Y-97975012D01*
X166545835Y-100323358D02*
X166545835Y-98111687D01*
X166545835Y-98111687D02*
X166828764Y-97828758D01*
X146491313Y-89065591D02*
X152174988Y-94749266D01*
X152174988Y-96076269D02*
X154073731Y-97975012D01*
X166828764Y-97404494D02*
X166828764Y-97828758D01*
X163876268Y-97325064D02*
X164382259Y-96819073D01*
X160347824Y-97975012D02*
X160997772Y-97325064D01*
X152174988Y-94749266D02*
X152174988Y-96076269D01*
X166243343Y-96819073D02*
X166828764Y-97404494D01*
X164382259Y-96819073D02*
X166243343Y-96819073D01*
X160997772Y-97325064D02*
X163876268Y-97325064D01*
G04 #@! TO.N,/FPGA_CFG_SI*
X134700000Y-94775736D02*
X134700000Y-95200000D01*
X142698741Y-89100022D02*
X137697091Y-89100022D01*
X134300000Y-92497113D02*
X134300000Y-94375736D01*
X137697091Y-89100022D02*
X134300000Y-92497113D01*
X143298718Y-89699999D02*
X142698741Y-89100022D01*
X145459946Y-89699999D02*
X143298718Y-89699999D01*
X134300000Y-94375736D02*
X134700000Y-94775736D01*
X151274955Y-95122067D02*
X151274955Y-96449073D01*
X145459946Y-89699999D02*
X145459946Y-90636950D01*
X145459946Y-90636950D02*
X146597987Y-91774991D01*
X146597987Y-91774991D02*
X147927879Y-91774991D01*
X147927879Y-91774991D02*
X151274955Y-95122067D01*
X163474534Y-101674516D02*
X163700016Y-101899998D01*
X163700016Y-101899998D02*
X164000015Y-102199997D01*
X162948482Y-101674516D02*
X163474534Y-101674516D01*
X160149011Y-98875045D02*
X162948482Y-101674516D01*
X151274955Y-96449073D02*
X153700927Y-98875045D01*
X153700927Y-98875045D02*
X160149011Y-98875045D01*
G04 #@! TO.N,/GPIO_SW4*
X146660000Y-122000000D02*
X148260000Y-120400000D01*
X157349989Y-108900011D02*
X160050000Y-106200000D01*
X148260000Y-120400000D02*
X153200000Y-120400000D01*
X160050000Y-106200000D02*
X160375736Y-106200000D01*
X160375736Y-106200000D02*
X160800000Y-106200000D01*
X153200000Y-120400000D02*
X157349989Y-116250011D01*
X157349989Y-116250011D02*
X157349989Y-108900011D01*
G04 #@! TO.N,/GPIO_SW3*
X145299999Y-115299999D02*
X145000000Y-115000000D01*
X145299999Y-120820001D02*
X145299999Y-115299999D01*
X144120000Y-122000000D02*
X145299999Y-120820001D01*
G04 #@! TO.N,/GPIO_SW2*
X142800000Y-120780000D02*
X142429999Y-121150001D01*
X143400000Y-115000000D02*
X142800000Y-115600000D01*
X142429999Y-121150001D02*
X141580000Y-122000000D01*
X142800000Y-115600000D02*
X142800000Y-120780000D01*
G04 #@! TO.N,/GPIO_SW1*
X140200000Y-117159921D02*
X142475954Y-114883967D01*
X140200000Y-120840000D02*
X140200000Y-117159921D01*
X142475954Y-114883967D02*
X142775953Y-114583968D01*
X139040000Y-122000000D02*
X140200000Y-120840000D01*
G04 #@! TO.N,/GPIO_SW0*
X139100000Y-123600000D02*
X144111002Y-123600000D01*
X144111002Y-123600000D02*
X145195001Y-122516001D01*
X145195001Y-121553007D02*
X147147999Y-119600009D01*
X156374979Y-105124264D02*
X156374979Y-104700000D01*
X145195001Y-122516001D02*
X145195001Y-121553007D01*
X153151435Y-119600009D02*
X156599978Y-116151466D01*
X156599978Y-105349263D02*
X156374979Y-105124264D01*
X136500000Y-122000000D02*
X137500000Y-122000000D01*
X137500000Y-122000000D02*
X139100000Y-123600000D01*
X147147999Y-119600009D02*
X153151435Y-119600009D01*
X156599978Y-116151466D02*
X156599978Y-105349263D01*
G04 #@! TO.N,/uSD_DAT1*
X160800000Y-90000000D02*
X160800000Y-95251198D01*
X158600000Y-83800000D02*
X161725008Y-86925008D01*
X161725008Y-86925008D02*
X161725008Y-89074992D01*
X160800000Y-95251198D02*
X159676274Y-96374924D01*
X161725008Y-89074992D02*
X160800000Y-90000000D01*
G04 #@! TO.N,/uSD_DAT0*
X158199999Y-93200001D02*
X159951062Y-93200001D01*
X160274990Y-93523929D02*
X160274990Y-93948193D01*
X157299998Y-92300000D02*
X158199999Y-93200001D01*
X159951062Y-93200001D02*
X160274990Y-93523929D01*
G04 #@! TO.N,/uSD_CMD*
X155729321Y-95042477D02*
X157021787Y-93750011D01*
X154600000Y-95042477D02*
X155729321Y-95042477D01*
X157021787Y-93750011D02*
X157321786Y-93450012D01*
X153296239Y-83303761D02*
X153296239Y-89424465D01*
X157021787Y-93150013D02*
X157321786Y-93450012D01*
X153296239Y-89424465D02*
X157021787Y-93150013D01*
G04 #@! TO.N,/uSD_DAT3*
X159493485Y-89593449D02*
X159493485Y-92095046D01*
X159493485Y-92095046D02*
X159493485Y-92519310D01*
X155800000Y-85899964D02*
X159493485Y-89593449D01*
X154245363Y-95567478D02*
X157770688Y-95567478D01*
X153102895Y-94425010D02*
X154245363Y-95567478D01*
X159240172Y-94097994D02*
X159540171Y-93797995D01*
X157770688Y-95567478D02*
X159240172Y-94097994D01*
G04 #@! TO.N,/uSD_DAT2*
X154825010Y-85999996D02*
X154825010Y-88554909D01*
X158444802Y-92174701D02*
X158744801Y-92474700D01*
X154825010Y-88554909D02*
X158444802Y-92174701D01*
G04 #@! TO.N,/GPIO_SW8*
X144120000Y-116546127D02*
X143923884Y-116350011D01*
X144120000Y-118000000D02*
X144120000Y-116546127D01*
X143923884Y-116350011D02*
X143623885Y-116050012D01*
G04 #@! TO.N,/LCD_RESET*
X170900000Y-97600000D02*
X177000000Y-97600000D01*
X169500000Y-99000000D02*
X170900000Y-97600000D01*
X163200457Y-103800457D02*
X163724947Y-103275967D01*
X164225967Y-103275967D02*
X165150000Y-104200000D01*
X163724947Y-103275967D02*
X164225967Y-103275967D01*
X165150000Y-104200000D02*
X167700000Y-104200000D01*
X167700000Y-104200000D02*
X169500000Y-102400000D01*
X169500000Y-102400000D02*
X169500000Y-99000000D01*
X178500000Y-97600000D02*
X177000000Y-97600000D01*
G04 #@! TO.N,/LCD_SCL*
X177000000Y-101600000D02*
X175500000Y-101600000D01*
G04 #@! TO.N,/LCD_CS*
X177000000Y-100000000D02*
X175500000Y-100000000D01*
G04 #@! TO.N,/LCD_SDA*
X177000000Y-99200000D02*
X175500000Y-99200000D01*
G04 #@! TO.N,/LCD_SDO*
X177000000Y-98400000D02*
X174939322Y-98400000D01*
X174939322Y-98400000D02*
X174669661Y-98669661D01*
G04 #@! TO.N,Net-(P1-Pad11)*
X178400000Y-104800000D02*
X177000000Y-104800000D01*
G04 #@! TO.N,Net-(P1-Pad12)*
X177800000Y-105600000D02*
X177850000Y-105550000D01*
X177000000Y-105600000D02*
X177800000Y-105600000D01*
X177000000Y-105600000D02*
X178400000Y-105600000D01*
G04 #@! TO.N,Net-(P1-Pad13)*
X178400000Y-106400000D02*
X177000000Y-106400000D01*
G04 #@! TO.N,Net-(P1-Pad14)*
X177000000Y-107200000D02*
X178400000Y-107200000D01*
G04 #@! TO.N,Net-(R12-Pad1)*
X137815562Y-98599998D02*
X138949969Y-99734405D01*
X138949969Y-99734405D02*
X139249968Y-100034404D01*
X135325010Y-98599998D02*
X137815562Y-98599998D01*
X139042345Y-108457657D02*
X139342344Y-108757656D01*
X139249968Y-100034404D02*
X139249968Y-100499472D01*
X139249968Y-100499472D02*
X137449956Y-102299484D01*
X137449956Y-106865268D02*
X139042345Y-108457657D01*
X137449956Y-102299484D02*
X137449956Y-106865268D01*
G04 #@! TO.N,/SRAM_A1*
X159049934Y-122100079D02*
X156250012Y-124900001D01*
X160800000Y-107800000D02*
X159049934Y-109550066D01*
X159049934Y-109550066D02*
X159049934Y-122100079D01*
X156250012Y-124900001D02*
X155950013Y-125200000D01*
G04 #@! TO.N,/SRAM_A0*
X159349945Y-122650061D02*
X157100005Y-124900001D01*
X161600000Y-107800000D02*
X159349945Y-110050055D01*
X157100005Y-124900001D02*
X156800006Y-125200000D01*
X159349945Y-110050055D02*
X159349945Y-122650061D01*
G04 #@! TO.N,/SRAM_A2*
X158749923Y-121650077D02*
X155499999Y-124900001D01*
X158749923Y-109050077D02*
X158749923Y-121650077D01*
X160000000Y-107800000D02*
X158749923Y-109050077D01*
X155499999Y-124900001D02*
X155200000Y-125200000D01*
G04 #@! TO.N,/SRAM_~CE*
X159649956Y-110925765D02*
X162400000Y-108175721D01*
X162400000Y-107424264D02*
X162400000Y-107000000D01*
X157600000Y-125200000D02*
X159649956Y-123150044D01*
X159649956Y-123150044D02*
X159649956Y-110925765D01*
X162400000Y-108175721D02*
X162400000Y-107424264D01*
G04 #@! TO.N,/SRAM_A3*
X158449912Y-121150088D02*
X154699999Y-124900001D01*
X154699999Y-124900001D02*
X154400000Y-125200000D01*
X160000000Y-107000000D02*
X158449912Y-108550088D01*
X158449912Y-108550088D02*
X158449912Y-121150088D01*
G04 #@! TO.N,/SRAM_DQ1*
X159949967Y-123650033D02*
X159949967Y-111050033D01*
X162900001Y-108099999D02*
X163200000Y-107800000D01*
X159949967Y-111050033D02*
X162900001Y-108099999D01*
X158400000Y-125200000D02*
X159949967Y-123650033D01*
G04 #@! TO.N,/SRAM_DQ2*
X160249978Y-124150022D02*
X160249978Y-111508988D01*
X160249978Y-111508988D02*
X164754483Y-107004483D01*
X159200000Y-125200000D02*
X160249978Y-124150022D01*
X164754483Y-107004483D02*
X164754483Y-106954483D01*
G04 #@! TO.N,/SRAM_DQ3*
X160299999Y-124899983D02*
X160000000Y-125199982D01*
X160549989Y-124649993D02*
X160299999Y-124899983D01*
X160549989Y-111901454D02*
X160549989Y-124649993D01*
X165300000Y-107151443D02*
X160549989Y-111901454D01*
X164800000Y-106200000D02*
X165300000Y-106700000D01*
X165300000Y-106700000D02*
X165300000Y-107151443D01*
G04 #@! TO.N,/SRAM_DQ5*
X163200000Y-124775736D02*
X163200000Y-125200000D01*
X163200000Y-110125000D02*
X163200000Y-124775736D01*
X164800000Y-104600000D02*
X165900000Y-105700000D01*
X165900000Y-107425000D02*
X163200000Y-110125000D01*
X165900000Y-105700000D02*
X165900000Y-107425000D01*
G04 #@! TO.N,/SRAM_DQ4*
X165600000Y-106200967D02*
X164300000Y-104900967D01*
X164300000Y-104900967D02*
X164000001Y-104600968D01*
X165600000Y-107275722D02*
X165600000Y-106200967D01*
X160850000Y-112025722D02*
X165600000Y-107275722D01*
X160800000Y-125200000D02*
X160850000Y-125150000D01*
X160850000Y-125150000D02*
X160850000Y-112025722D01*
G04 #@! TO.N,/FPGA_HEARTBEAT*
X147400000Y-120125010D02*
X147824264Y-120125010D01*
X147824264Y-120125010D02*
X147849285Y-120099989D01*
X156899989Y-103650033D02*
X157250023Y-103299999D01*
X147849285Y-120099989D02*
X153075733Y-120099989D01*
X157250023Y-103299999D02*
X157550022Y-103000000D01*
X156899989Y-116275733D02*
X156899989Y-103650033D01*
X153075733Y-120099989D02*
X156899989Y-116275733D01*
G04 #@! TO.N,/LCD_D~C~*
X177000000Y-100800000D02*
X175500000Y-100800000D01*
G04 #@! TO.N,/AUDIO_PWM*
X165899993Y-91499993D02*
X165599994Y-91199994D01*
X169200000Y-94800000D02*
X165899993Y-91499993D01*
X163800966Y-102800000D02*
X164200000Y-102800000D01*
X163200483Y-102199517D02*
X163800966Y-102800000D01*
X164200000Y-102800000D02*
X165200000Y-103800000D01*
X165200000Y-103800000D02*
X167600000Y-103800000D01*
X167600000Y-103800000D02*
X169200000Y-102200000D01*
X169200000Y-102200000D02*
X169200000Y-94800000D01*
G04 #@! TD*
D20*
G04 #@! TO.N,GND*
G36*
X175823196Y-80424859D02*
X176620374Y-80642942D01*
X177366337Y-80998749D01*
X178037496Y-81481026D01*
X178612649Y-82074537D01*
X179073606Y-82760514D01*
X179405806Y-83517286D01*
X179599387Y-84323608D01*
X179650001Y-85012846D01*
X179650000Y-124984417D01*
X179575141Y-125823197D01*
X179357058Y-126620374D01*
X179001251Y-127366337D01*
X178518976Y-128037494D01*
X177925463Y-128612649D01*
X177239486Y-129073606D01*
X176482719Y-129405804D01*
X175676392Y-129599387D01*
X174987167Y-129650000D01*
X135015583Y-129650000D01*
X134176803Y-129575141D01*
X133379626Y-129357058D01*
X132633663Y-129001251D01*
X131962506Y-128518976D01*
X131828466Y-128380657D01*
X136400000Y-128380657D01*
X136400000Y-128619351D01*
X136491344Y-128839877D01*
X136660127Y-129008660D01*
X136880653Y-129100004D01*
X137119347Y-129100004D01*
X137339873Y-129008660D01*
X137508656Y-128839877D01*
X137600000Y-128619351D01*
X137600000Y-128380657D01*
X137599999Y-128380653D01*
X159600000Y-128380653D01*
X159600000Y-128619347D01*
X159691344Y-128839873D01*
X159860127Y-129008656D01*
X160080653Y-129100000D01*
X160319347Y-129100000D01*
X160539873Y-129008656D01*
X160708656Y-128839873D01*
X160800000Y-128619347D01*
X160800000Y-128380653D01*
X160708656Y-128160127D01*
X160539873Y-127991344D01*
X160319347Y-127900000D01*
X160080653Y-127900000D01*
X159860127Y-127991344D01*
X159691344Y-128160127D01*
X159600000Y-128380653D01*
X137599999Y-128380653D01*
X137508656Y-128160131D01*
X137339873Y-127991348D01*
X137119347Y-127900004D01*
X136880653Y-127900004D01*
X136660127Y-127991348D01*
X136491344Y-128160131D01*
X136400000Y-128380657D01*
X131828466Y-128380657D01*
X131387351Y-127925463D01*
X130926394Y-127239486D01*
X130594196Y-126482719D01*
X130411449Y-125721523D01*
X132600000Y-125721523D01*
X132600000Y-126278477D01*
X132813137Y-126793037D01*
X133206963Y-127186863D01*
X133721523Y-127400000D01*
X134278477Y-127400000D01*
X134793037Y-127186863D01*
X135186863Y-126793037D01*
X135400000Y-126278477D01*
X135400000Y-125721523D01*
X135186863Y-125206963D01*
X134793037Y-124813137D01*
X134278477Y-124600000D01*
X133721523Y-124600000D01*
X133206963Y-124813137D01*
X132813137Y-125206963D01*
X132600000Y-125721523D01*
X130411449Y-125721523D01*
X130400613Y-125676392D01*
X130350000Y-124987167D01*
X130350000Y-122112500D01*
X130800000Y-122112500D01*
X130800000Y-122919620D01*
X130853285Y-123048259D01*
X130951741Y-123146716D01*
X131080381Y-123200000D01*
X131887500Y-123200000D01*
X131975000Y-123112500D01*
X131975000Y-122025000D01*
X132025000Y-122025000D01*
X132025000Y-123112500D01*
X132112500Y-123200000D01*
X132919619Y-123200000D01*
X133048259Y-123146716D01*
X133146715Y-123048259D01*
X133200000Y-122919620D01*
X133200000Y-122112500D01*
X133112500Y-122025000D01*
X132025000Y-122025000D01*
X131975000Y-122025000D01*
X130887500Y-122025000D01*
X130800000Y-122112500D01*
X130350000Y-122112500D01*
X130350000Y-121080380D01*
X130800000Y-121080380D01*
X130800000Y-121887500D01*
X130887500Y-121975000D01*
X131975000Y-121975000D01*
X131975000Y-120887500D01*
X132025000Y-120887500D01*
X132025000Y-121975000D01*
X133112500Y-121975000D01*
X133200000Y-121887500D01*
X133200000Y-121080380D01*
X133146715Y-120951741D01*
X133048259Y-120853284D01*
X132919619Y-120800000D01*
X132112500Y-120800000D01*
X132025000Y-120887500D01*
X131975000Y-120887500D01*
X131887500Y-120800000D01*
X131080381Y-120800000D01*
X130951741Y-120853284D01*
X130853285Y-120951741D01*
X130800000Y-121080380D01*
X130350000Y-121080380D01*
X130350000Y-109300000D01*
X130827471Y-109300000D01*
X130916724Y-109748707D01*
X131170897Y-110129103D01*
X131551293Y-110383276D01*
X131886739Y-110450000D01*
X132113261Y-110450000D01*
X132448707Y-110383276D01*
X132829103Y-110129103D01*
X133083276Y-109748707D01*
X133172529Y-109300000D01*
X133083276Y-108851293D01*
X132829103Y-108470897D01*
X132448707Y-108216724D01*
X132113261Y-108150000D01*
X131886739Y-108150000D01*
X131551293Y-108216724D01*
X131170897Y-108470897D01*
X130916724Y-108851293D01*
X130827471Y-109300000D01*
X130350000Y-109300000D01*
X130350000Y-105648419D01*
X130354629Y-105655347D01*
X130385939Y-105676268D01*
X130958477Y-106248806D01*
X130916724Y-106311293D01*
X130827471Y-106760000D01*
X130916724Y-107208707D01*
X131170897Y-107589103D01*
X131551293Y-107843276D01*
X131886739Y-107910000D01*
X132113261Y-107910000D01*
X132448707Y-107843276D01*
X132829103Y-107589103D01*
X133083276Y-107208707D01*
X133172529Y-106760000D01*
X133083276Y-106311293D01*
X132829103Y-105930897D01*
X132448707Y-105676724D01*
X132113261Y-105610000D01*
X131886739Y-105610000D01*
X131551293Y-105676724D01*
X131488806Y-105718477D01*
X130999988Y-105229659D01*
X130999988Y-104793320D01*
X131170897Y-105049103D01*
X131551293Y-105303276D01*
X131886739Y-105370000D01*
X132113261Y-105370000D01*
X132448707Y-105303276D01*
X132781885Y-105080653D01*
X133000000Y-105080653D01*
X133000000Y-105319347D01*
X133091344Y-105539873D01*
X133260127Y-105708656D01*
X133480653Y-105800000D01*
X133719347Y-105800000D01*
X133939873Y-105708656D01*
X134108656Y-105539873D01*
X134200000Y-105319347D01*
X134200000Y-105080653D01*
X134108656Y-104860127D01*
X133939873Y-104691344D01*
X133719347Y-104600000D01*
X133480653Y-104600000D01*
X133260127Y-104691344D01*
X133091344Y-104860127D01*
X133000000Y-105080653D01*
X132781885Y-105080653D01*
X132829103Y-105049103D01*
X133083276Y-104668707D01*
X133172529Y-104220000D01*
X133083276Y-103771293D01*
X133041523Y-103708806D01*
X134239042Y-102511288D01*
X134270348Y-102490370D01*
X134293560Y-102455632D01*
X134347436Y-102375000D01*
X134353231Y-102366328D01*
X134374989Y-102256942D01*
X134374989Y-102256937D01*
X134382334Y-102220011D01*
X134374989Y-102183085D01*
X134374989Y-95714812D01*
X134580653Y-95800000D01*
X134819347Y-95800000D01*
X135039873Y-95708656D01*
X135208656Y-95539873D01*
X135300000Y-95319347D01*
X135300000Y-95080653D01*
X135208656Y-94860127D01*
X135071937Y-94723408D01*
X135053242Y-94629419D01*
X135043465Y-94614786D01*
X134991278Y-94536684D01*
X134970359Y-94505377D01*
X134939053Y-94484459D01*
X134675000Y-94220407D01*
X134675000Y-92652442D01*
X136931660Y-90395782D01*
X136991344Y-90539873D01*
X137160127Y-90708656D01*
X137380653Y-90800000D01*
X137569671Y-90800000D01*
X140000000Y-93230330D01*
X140000001Y-99027822D01*
X137675000Y-96702822D01*
X137675000Y-96473529D01*
X137808656Y-96339873D01*
X137900000Y-96119347D01*
X137900000Y-95880653D01*
X137808656Y-95660127D01*
X137639873Y-95491344D01*
X137509674Y-95437414D01*
X137600000Y-95219347D01*
X137600000Y-94980653D01*
X137508656Y-94760127D01*
X137339873Y-94591344D01*
X137245029Y-94552059D01*
X137300000Y-94419347D01*
X137300000Y-94180653D01*
X137208656Y-93960127D01*
X137039873Y-93791344D01*
X136819347Y-93700000D01*
X136580653Y-93700000D01*
X136360127Y-93791344D01*
X136191344Y-93960127D01*
X136100000Y-94180653D01*
X136100000Y-94419347D01*
X136191344Y-94639873D01*
X136360127Y-94808656D01*
X136454971Y-94847941D01*
X136400000Y-94980653D01*
X136400000Y-95174002D01*
X136346760Y-95253681D01*
X136317656Y-95399999D01*
X136325002Y-95436930D01*
X136325001Y-96645504D01*
X136317656Y-96682431D01*
X136325001Y-96719357D01*
X136325001Y-96719361D01*
X136346759Y-96828747D01*
X136346760Y-96828748D01*
X136346760Y-96828749D01*
X136394325Y-96899934D01*
X136429642Y-96952790D01*
X136460952Y-96973711D01*
X137712238Y-98224998D01*
X135798539Y-98224998D01*
X135664883Y-98091342D01*
X135444357Y-97999998D01*
X135205663Y-97999998D01*
X134985137Y-98091342D01*
X134816354Y-98260125D01*
X134725010Y-98480651D01*
X134725010Y-98719345D01*
X134816354Y-98939871D01*
X134985137Y-99108654D01*
X135205663Y-99199998D01*
X135444357Y-99199998D01*
X135664883Y-99108654D01*
X135798539Y-98974998D01*
X137660233Y-98974998D01*
X138649968Y-99964734D01*
X138649968Y-100153751D01*
X138741312Y-100374277D01*
X138793073Y-100426038D01*
X138759555Y-100459555D01*
X138718151Y-100359597D01*
X138549368Y-100190814D01*
X138328842Y-100099470D01*
X138090148Y-100099470D01*
X137869622Y-100190814D01*
X137700839Y-100359597D01*
X137609495Y-100580123D01*
X137609495Y-100818817D01*
X137700839Y-101039343D01*
X137869622Y-101208126D01*
X137969581Y-101249530D01*
X137210907Y-102008204D01*
X137179597Y-102029125D01*
X137158677Y-102060434D01*
X137100996Y-102146760D01*
X137096714Y-102153168D01*
X137074956Y-102262554D01*
X137074956Y-102262558D01*
X137067611Y-102299484D01*
X137074956Y-102336410D01*
X137074957Y-106828337D01*
X137067611Y-106865268D01*
X137096715Y-107011586D01*
X137158677Y-107104318D01*
X137158679Y-107104320D01*
X137179598Y-107135627D01*
X137210905Y-107156546D01*
X138742344Y-108687986D01*
X138742344Y-108877003D01*
X138833688Y-109097529D01*
X139002471Y-109266312D01*
X139222997Y-109357656D01*
X139461691Y-109357656D01*
X139499967Y-109341802D01*
X139499967Y-109345425D01*
X137380393Y-111465000D01*
X133097937Y-111465000D01*
X133083276Y-111391293D01*
X132829103Y-111010897D01*
X132448707Y-110756724D01*
X132113261Y-110690000D01*
X131886739Y-110690000D01*
X131551293Y-110756724D01*
X131170897Y-111010897D01*
X130916724Y-111391293D01*
X130827471Y-111840000D01*
X130916724Y-112288707D01*
X131170897Y-112669103D01*
X131551293Y-112923276D01*
X131886739Y-112990000D01*
X132113261Y-112990000D01*
X132448707Y-112923276D01*
X132829103Y-112669103D01*
X133083276Y-112288707D01*
X133097937Y-112215000D01*
X137054672Y-112215000D01*
X135264672Y-114005000D01*
X133097937Y-114005000D01*
X133083276Y-113931293D01*
X132829103Y-113550897D01*
X132448707Y-113296724D01*
X132113261Y-113230000D01*
X131886739Y-113230000D01*
X131551293Y-113296724D01*
X131170897Y-113550897D01*
X130916724Y-113931293D01*
X130827471Y-114380000D01*
X130916724Y-114828707D01*
X131170897Y-115209103D01*
X131551293Y-115463276D01*
X131886739Y-115530000D01*
X132113261Y-115530000D01*
X132448707Y-115463276D01*
X132829103Y-115209103D01*
X133083276Y-114828707D01*
X133097937Y-114755000D01*
X135038950Y-114755000D01*
X133248950Y-116545000D01*
X133097937Y-116545000D01*
X133083276Y-116471293D01*
X132829103Y-116090897D01*
X132448707Y-115836724D01*
X132113261Y-115770000D01*
X131886739Y-115770000D01*
X131551293Y-115836724D01*
X131170897Y-116090897D01*
X130916724Y-116471293D01*
X130827471Y-116920000D01*
X130916724Y-117368707D01*
X131170897Y-117749103D01*
X131551293Y-118003276D01*
X131886739Y-118070000D01*
X132113261Y-118070000D01*
X132448707Y-118003276D01*
X132475000Y-117985708D01*
X132474999Y-118394292D01*
X132448707Y-118376724D01*
X132113261Y-118310000D01*
X131886739Y-118310000D01*
X131551293Y-118376724D01*
X131170897Y-118630897D01*
X130916724Y-119011293D01*
X130827471Y-119460000D01*
X130916724Y-119908707D01*
X131170897Y-120289103D01*
X131551293Y-120543276D01*
X131886739Y-120610000D01*
X132113261Y-120610000D01*
X132448707Y-120543276D01*
X132829103Y-120289103D01*
X133083276Y-119908707D01*
X133172529Y-119460000D01*
X133083276Y-119011293D01*
X133041524Y-118948806D01*
X133089052Y-118901278D01*
X133120358Y-118880360D01*
X133154608Y-118829103D01*
X133203240Y-118756320D01*
X133203240Y-118756319D01*
X133203241Y-118756318D01*
X133224999Y-118646932D01*
X133224999Y-118646928D01*
X133232344Y-118610002D01*
X133224999Y-118573076D01*
X133224999Y-118054609D01*
X134129608Y-117150000D01*
X135344123Y-117150000D01*
X135344123Y-118850000D01*
X135367407Y-118967054D01*
X135433712Y-119066288D01*
X135532946Y-119132593D01*
X135650000Y-119155877D01*
X137350000Y-119155877D01*
X137467054Y-119132593D01*
X137566288Y-119066288D01*
X137632593Y-118967054D01*
X137655877Y-118850000D01*
X137655877Y-117150000D01*
X137632593Y-117032946D01*
X137566288Y-116933712D01*
X137467054Y-116867407D01*
X137350000Y-116844123D01*
X135650000Y-116844123D01*
X135532946Y-116867407D01*
X135433712Y-116933712D01*
X135367407Y-117032946D01*
X135344123Y-117150000D01*
X134129608Y-117150000D01*
X136398955Y-114880653D01*
X136600000Y-114880653D01*
X136600000Y-115119347D01*
X136691344Y-115339873D01*
X136860127Y-115508656D01*
X137080653Y-115600000D01*
X137319347Y-115600000D01*
X137539873Y-115508656D01*
X137708656Y-115339873D01*
X137800000Y-115119347D01*
X137800000Y-114880653D01*
X137708656Y-114660127D01*
X137539873Y-114491344D01*
X137319347Y-114400000D01*
X137080653Y-114400000D01*
X136860127Y-114491344D01*
X136691344Y-114660127D01*
X136600000Y-114880653D01*
X136398955Y-114880653D01*
X140698955Y-110580653D01*
X148200008Y-110580653D01*
X148200008Y-110819347D01*
X148291352Y-111039873D01*
X148460135Y-111208656D01*
X148680661Y-111300000D01*
X148919355Y-111300000D01*
X149139881Y-111208656D01*
X149308664Y-111039873D01*
X149400008Y-110819347D01*
X149400008Y-110580653D01*
X149700000Y-110580653D01*
X149700000Y-110819347D01*
X149791344Y-111039873D01*
X149960127Y-111208656D01*
X150180653Y-111300000D01*
X150419347Y-111300000D01*
X150639873Y-111208656D01*
X150808656Y-111039873D01*
X150900000Y-110819347D01*
X150900000Y-110580653D01*
X150808656Y-110360127D01*
X150639873Y-110191344D01*
X150419347Y-110100000D01*
X150180653Y-110100000D01*
X149960127Y-110191344D01*
X149791344Y-110360127D01*
X149700000Y-110580653D01*
X149400008Y-110580653D01*
X149308664Y-110360127D01*
X149139881Y-110191344D01*
X148919355Y-110100000D01*
X148680661Y-110100000D01*
X148460135Y-110191344D01*
X148291352Y-110360127D01*
X148200008Y-110580653D01*
X140698955Y-110580653D01*
X141014053Y-110265556D01*
X141045359Y-110244638D01*
X141075186Y-110200000D01*
X141102437Y-110159215D01*
X141128242Y-110120596D01*
X141150000Y-110011210D01*
X141150000Y-110011205D01*
X141157345Y-109974279D01*
X141150000Y-109937353D01*
X141150000Y-109475882D01*
X153995229Y-109475882D01*
X153995229Y-109714576D01*
X154086573Y-109935102D01*
X154255356Y-110103885D01*
X154475882Y-110195229D01*
X154714576Y-110195229D01*
X154935102Y-110103885D01*
X155103885Y-109935102D01*
X155195229Y-109714576D01*
X155195229Y-109475882D01*
X155103885Y-109255356D01*
X154935102Y-109086573D01*
X154714576Y-108995229D01*
X154475882Y-108995229D01*
X154255356Y-109086573D01*
X154086573Y-109255356D01*
X153995229Y-109475882D01*
X141150000Y-109475882D01*
X141150000Y-108211926D01*
X141157345Y-108175000D01*
X141150000Y-108138074D01*
X141150000Y-108138069D01*
X141128242Y-108028683D01*
X141045359Y-107904641D01*
X141014052Y-107883722D01*
X139025000Y-105894671D01*
X139025000Y-104180328D01*
X139430329Y-103775000D01*
X140700000Y-103775000D01*
X140700000Y-106800000D01*
X140722836Y-106914805D01*
X140787868Y-107012132D01*
X140885195Y-107077164D01*
X141000000Y-107100000D01*
X141474821Y-107100000D01*
X141491332Y-107139861D01*
X141660115Y-107308644D01*
X141880641Y-107399988D01*
X142119335Y-107399988D01*
X142339861Y-107308644D01*
X142508644Y-107139861D01*
X142525155Y-107100000D01*
X143937697Y-107100000D01*
X143925000Y-107130653D01*
X143925000Y-107369347D01*
X144016344Y-107589873D01*
X144185127Y-107758656D01*
X144405653Y-107850000D01*
X144644347Y-107850000D01*
X144864873Y-107758656D01*
X145033656Y-107589873D01*
X145125000Y-107369347D01*
X145125000Y-107130653D01*
X145112303Y-107100000D01*
X148000000Y-107100000D01*
X148114805Y-107077164D01*
X148212132Y-107012132D01*
X148277164Y-106914805D01*
X148300000Y-106800000D01*
X148300000Y-106630653D01*
X149500002Y-106630653D01*
X149500002Y-106869347D01*
X149591346Y-107089873D01*
X149601477Y-107100004D01*
X149591354Y-107110127D01*
X149500010Y-107330653D01*
X149500010Y-107569347D01*
X149591354Y-107789873D01*
X149760137Y-107958656D01*
X149980663Y-108050000D01*
X150219357Y-108050000D01*
X150439883Y-107958656D01*
X150608666Y-107789873D01*
X150700010Y-107569347D01*
X150700010Y-107330653D01*
X150608666Y-107110127D01*
X150598535Y-107099996D01*
X150608658Y-107089873D01*
X150700002Y-106869347D01*
X150700002Y-106630653D01*
X150608658Y-106410127D01*
X150439875Y-106241344D01*
X150219349Y-106150000D01*
X149980655Y-106150000D01*
X149760129Y-106241344D01*
X149591346Y-106410127D01*
X149500002Y-106630653D01*
X148300000Y-106630653D01*
X148300000Y-105380653D01*
X152000000Y-105380653D01*
X152000000Y-105619347D01*
X152091344Y-105839873D01*
X152260127Y-106008656D01*
X152480653Y-106100000D01*
X152719347Y-106100000D01*
X152939873Y-106008656D01*
X153108656Y-105839873D01*
X153200000Y-105619347D01*
X153200000Y-105380653D01*
X153108656Y-105160127D01*
X152939873Y-104991344D01*
X152719347Y-104900000D01*
X152480653Y-104900000D01*
X152260127Y-104991344D01*
X152091344Y-105160127D01*
X152000000Y-105380653D01*
X148300000Y-105380653D01*
X148300000Y-103200000D01*
X148277164Y-103085195D01*
X148212132Y-102987868D01*
X148114805Y-102922836D01*
X148000000Y-102900000D01*
X145980329Y-102900000D01*
X145999676Y-102880653D01*
X149650000Y-102880653D01*
X149650000Y-103119347D01*
X149741344Y-103339873D01*
X149910127Y-103508656D01*
X150130653Y-103600000D01*
X150369347Y-103600000D01*
X150589873Y-103508656D01*
X150758656Y-103339873D01*
X150850000Y-103119347D01*
X150850000Y-102880653D01*
X150758656Y-102660127D01*
X150598529Y-102500000D01*
X150758679Y-102339850D01*
X150850023Y-102119324D01*
X150850023Y-102081620D01*
X159399999Y-102081620D01*
X159399999Y-102320314D01*
X159491343Y-102540840D01*
X159660126Y-102709623D01*
X159880652Y-102800967D01*
X160119346Y-102800967D01*
X160339872Y-102709623D01*
X160508655Y-102540840D01*
X160599999Y-102320314D01*
X160599999Y-102081620D01*
X160508655Y-101861094D01*
X160339872Y-101692311D01*
X160119346Y-101600967D01*
X159880652Y-101600967D01*
X159660126Y-101692311D01*
X159491343Y-101861094D01*
X159399999Y-102081620D01*
X150850023Y-102081620D01*
X150850023Y-101880630D01*
X150758679Y-101660104D01*
X150589896Y-101491321D01*
X150369370Y-101399977D01*
X150130676Y-101399977D01*
X149910150Y-101491321D01*
X149741367Y-101660104D01*
X149650023Y-101880630D01*
X149650023Y-102119324D01*
X149741367Y-102339850D01*
X149901494Y-102499977D01*
X149741344Y-102660127D01*
X149650000Y-102880653D01*
X145999676Y-102880653D01*
X147599676Y-101280653D01*
X155600000Y-101280653D01*
X155600000Y-101519347D01*
X155691344Y-101739873D01*
X155860127Y-101908656D01*
X156080653Y-102000000D01*
X156319347Y-102000000D01*
X156539873Y-101908656D01*
X156708656Y-101739873D01*
X156800000Y-101519347D01*
X156800000Y-101280653D01*
X156708656Y-101060127D01*
X156539873Y-100891344D01*
X156319347Y-100800000D01*
X156080653Y-100800000D01*
X155860127Y-100891344D01*
X155691344Y-101060127D01*
X155600000Y-101280653D01*
X147599676Y-101280653D01*
X148996734Y-99883596D01*
X153474990Y-99883596D01*
X153474990Y-100122290D01*
X153566334Y-100342816D01*
X153735117Y-100511599D01*
X153955643Y-100602943D01*
X154194337Y-100602943D01*
X154414863Y-100511599D01*
X154583646Y-100342816D01*
X154674990Y-100122290D01*
X154674990Y-99883596D01*
X154583646Y-99663070D01*
X154414863Y-99494287D01*
X154194337Y-99402943D01*
X153955643Y-99402943D01*
X153735117Y-99494287D01*
X153566334Y-99663070D01*
X153474990Y-99883596D01*
X148996734Y-99883596D01*
X149130331Y-99750000D01*
X149356112Y-99750000D01*
X149393038Y-99757345D01*
X149429964Y-99750000D01*
X149429969Y-99750000D01*
X149539355Y-99728242D01*
X149663397Y-99645359D01*
X149684317Y-99614050D01*
X150423325Y-98875043D01*
X150612342Y-98875043D01*
X150832868Y-98783699D01*
X151001651Y-98614916D01*
X151092995Y-98394390D01*
X151092995Y-98155696D01*
X151001651Y-97935170D01*
X150832868Y-97766387D01*
X150612342Y-97675043D01*
X150373648Y-97675043D01*
X150153122Y-97766387D01*
X149984339Y-97935170D01*
X149892995Y-98155696D01*
X149892995Y-98344713D01*
X149658120Y-98579588D01*
X149608656Y-98460171D01*
X149439873Y-98291388D01*
X149219347Y-98200044D01*
X148980653Y-98200044D01*
X148760127Y-98291388D01*
X148591344Y-98460171D01*
X148500000Y-98680697D01*
X148500000Y-98869714D01*
X145001972Y-102367743D01*
X144947033Y-102235106D01*
X144778250Y-102066323D01*
X144557724Y-101974979D01*
X144319030Y-101974979D01*
X144098504Y-102066323D01*
X143929721Y-102235106D01*
X143882131Y-102350000D01*
X141205320Y-102350000D01*
X140605330Y-101750010D01*
X140614052Y-101741288D01*
X140645359Y-101720369D01*
X140675998Y-101674516D01*
X140728241Y-101596329D01*
X140728241Y-101596328D01*
X140728242Y-101596327D01*
X140750000Y-101486941D01*
X140750000Y-101486937D01*
X140757345Y-101450011D01*
X140750000Y-101413084D01*
X140750000Y-97480653D01*
X141000000Y-97480653D01*
X141000000Y-97719347D01*
X141091344Y-97939873D01*
X141260127Y-98108656D01*
X141480653Y-98200000D01*
X141719347Y-98200000D01*
X141939873Y-98108656D01*
X142108656Y-97939873D01*
X142200000Y-97719347D01*
X142200000Y-97480653D01*
X142108656Y-97260127D01*
X141939873Y-97091344D01*
X141719347Y-97000000D01*
X141480653Y-97000000D01*
X141260127Y-97091344D01*
X141091344Y-97260127D01*
X141000000Y-97480653D01*
X140750000Y-97480653D01*
X140750000Y-93111926D01*
X140757345Y-93075000D01*
X140750000Y-93038073D01*
X140750000Y-93038069D01*
X140728242Y-92928683D01*
X140716401Y-92910962D01*
X140666279Y-92835949D01*
X140666278Y-92835948D01*
X140645359Y-92804641D01*
X140614053Y-92783723D01*
X138100000Y-90269671D01*
X138100000Y-90080653D01*
X138094985Y-90068546D01*
X138160127Y-90133688D01*
X138380653Y-90225032D01*
X138619347Y-90225032D01*
X138839873Y-90133688D01*
X139008656Y-89964905D01*
X139100000Y-89744379D01*
X139100000Y-89505685D01*
X139087299Y-89475022D01*
X142543412Y-89475022D01*
X143007440Y-89939051D01*
X143028359Y-89970358D01*
X143059666Y-89991277D01*
X143059667Y-89991278D01*
X143113782Y-90027436D01*
X143152401Y-90053241D01*
X143261787Y-90074999D01*
X143261792Y-90074999D01*
X143298718Y-90082344D01*
X143335644Y-90074999D01*
X144986417Y-90074999D01*
X145084947Y-90173529D01*
X145084947Y-90600019D01*
X145077601Y-90636950D01*
X145106705Y-90783268D01*
X145168667Y-90876000D01*
X145168669Y-90876002D01*
X145189588Y-90907309D01*
X145220894Y-90928228D01*
X146222073Y-91929406D01*
X146191344Y-91960135D01*
X146100000Y-92180661D01*
X146100000Y-92419355D01*
X146191344Y-92639881D01*
X146360127Y-92808664D01*
X146580653Y-92900008D01*
X146819347Y-92900008D01*
X147039873Y-92808664D01*
X147208656Y-92639881D01*
X147300000Y-92419355D01*
X147300000Y-92180661D01*
X147287296Y-92149991D01*
X147772550Y-92149991D01*
X150168075Y-94545517D01*
X149935136Y-94545517D01*
X149714610Y-94636861D01*
X149545827Y-94805644D01*
X149454483Y-95026170D01*
X149454483Y-95264864D01*
X149545827Y-95485390D01*
X149714610Y-95654173D01*
X149935136Y-95745517D01*
X150173830Y-95745517D01*
X150394356Y-95654173D01*
X150563139Y-95485390D01*
X150654483Y-95264864D01*
X150654483Y-95031926D01*
X150899955Y-95277398D01*
X150899956Y-96412142D01*
X150892610Y-96449073D01*
X150921714Y-96595391D01*
X150983676Y-96688123D01*
X150983678Y-96688125D01*
X151004597Y-96719432D01*
X151035904Y-96740351D01*
X153409649Y-99114097D01*
X153430568Y-99145404D01*
X153461875Y-99166323D01*
X153461876Y-99166324D01*
X153479825Y-99178317D01*
X153554610Y-99228287D01*
X153663996Y-99250045D01*
X153664001Y-99250045D01*
X153700927Y-99257390D01*
X153737853Y-99250045D01*
X159993682Y-99250045D01*
X162657204Y-101913568D01*
X162664789Y-101924920D01*
X162600483Y-102080170D01*
X162600483Y-102318864D01*
X162691827Y-102539390D01*
X162860610Y-102708173D01*
X163081136Y-102799517D01*
X163270153Y-102799517D01*
X163467569Y-102996934D01*
X163454588Y-103005608D01*
X163433669Y-103036915D01*
X163270127Y-103200457D01*
X163081110Y-103200457D01*
X162860584Y-103291801D01*
X162799973Y-103352412D01*
X162739872Y-103292311D01*
X162519346Y-103200967D01*
X162280652Y-103200967D01*
X162060126Y-103292311D01*
X161891343Y-103461094D01*
X161799999Y-103681620D01*
X161799999Y-103920314D01*
X161891343Y-104140840D01*
X162060126Y-104309623D01*
X162280652Y-104400967D01*
X162519346Y-104400967D01*
X162739872Y-104309623D01*
X162800483Y-104249012D01*
X162860584Y-104309113D01*
X163081110Y-104400457D01*
X163319804Y-104400457D01*
X163457191Y-104343550D01*
X163400001Y-104481621D01*
X163400001Y-104720315D01*
X163491345Y-104940841D01*
X163551464Y-105000960D01*
X163491341Y-105061083D01*
X163399997Y-105281609D01*
X163399997Y-105520303D01*
X163491341Y-105740829D01*
X163660124Y-105909612D01*
X163880650Y-106000956D01*
X164119344Y-106000956D01*
X164256552Y-105944123D01*
X164200000Y-106080653D01*
X164200000Y-106319347D01*
X164257513Y-106458198D01*
X164119347Y-106400968D01*
X163880653Y-106400968D01*
X163660127Y-106492312D01*
X163600969Y-106551471D01*
X163540841Y-106491343D01*
X163320315Y-106399999D01*
X163081621Y-106399999D01*
X162861095Y-106491343D01*
X162800484Y-106551955D01*
X162739873Y-106491344D01*
X162519347Y-106400000D01*
X162280653Y-106400000D01*
X162060127Y-106491344D01*
X161999517Y-106551955D01*
X161939873Y-106492311D01*
X161719347Y-106400967D01*
X161480653Y-106400967D01*
X161342487Y-106458197D01*
X161400000Y-106319347D01*
X161400000Y-106080653D01*
X161308656Y-105860127D01*
X161249013Y-105800484D01*
X161308656Y-105740840D01*
X161400000Y-105520314D01*
X161400000Y-105281620D01*
X161308656Y-105061094D01*
X161139873Y-104892311D01*
X160919347Y-104800967D01*
X160680653Y-104800967D01*
X160460127Y-104892311D01*
X160291344Y-105061094D01*
X160200000Y-105281620D01*
X160200000Y-105520314D01*
X160291344Y-105740840D01*
X160350988Y-105800484D01*
X160326471Y-105825000D01*
X160086925Y-105825000D01*
X160049999Y-105817655D01*
X160013073Y-105825000D01*
X160013069Y-105825000D01*
X159903683Y-105846758D01*
X159903682Y-105846759D01*
X159903681Y-105846759D01*
X159810948Y-105908721D01*
X159810945Y-105908724D01*
X159779641Y-105929641D01*
X159758724Y-105960945D01*
X157274989Y-108444682D01*
X157274989Y-103805362D01*
X157398730Y-103681621D01*
X160200000Y-103681621D01*
X160200000Y-103920315D01*
X160291344Y-104140841D01*
X160460127Y-104309624D01*
X160680653Y-104400968D01*
X160919347Y-104400968D01*
X161139873Y-104309624D01*
X161308656Y-104140841D01*
X161400000Y-103920315D01*
X161400000Y-103681621D01*
X161308656Y-103461095D01*
X161139873Y-103292312D01*
X160919347Y-103200968D01*
X160680653Y-103200968D01*
X160460127Y-103292312D01*
X160291344Y-103461095D01*
X160200000Y-103681621D01*
X157398730Y-103681621D01*
X157480352Y-103600000D01*
X157669369Y-103600000D01*
X157889895Y-103508656D01*
X158058678Y-103339873D01*
X158150022Y-103119347D01*
X158150022Y-102880653D01*
X158058678Y-102660127D01*
X157889895Y-102491344D01*
X157669369Y-102400000D01*
X157430675Y-102400000D01*
X157210149Y-102491344D01*
X157041366Y-102660127D01*
X156950022Y-102880653D01*
X156950022Y-103069670D01*
X156660937Y-103358756D01*
X156629631Y-103379674D01*
X156608712Y-103410981D01*
X156608710Y-103410983D01*
X156546748Y-103503715D01*
X156517644Y-103650033D01*
X156524990Y-103686964D01*
X156524990Y-104112701D01*
X156494326Y-104100000D01*
X156255632Y-104100000D01*
X156035106Y-104191344D01*
X155866323Y-104360127D01*
X155774979Y-104580653D01*
X155774979Y-104819347D01*
X155866323Y-105039873D01*
X156003042Y-105176592D01*
X156021737Y-105270580D01*
X156021738Y-105270581D01*
X156021738Y-105270582D01*
X156049635Y-105312332D01*
X156104620Y-105394623D01*
X156135930Y-105415544D01*
X156224979Y-105504593D01*
X156224979Y-105569019D01*
X156194315Y-105556318D01*
X155955621Y-105556318D01*
X155735095Y-105647662D01*
X155566312Y-105816445D01*
X155474968Y-106036971D01*
X155474968Y-106275665D01*
X155566312Y-106496191D01*
X155735095Y-106664974D01*
X155955621Y-106756318D01*
X156194315Y-106756318D01*
X156224979Y-106743617D01*
X156224978Y-115996135D01*
X152996106Y-119225009D01*
X147184924Y-119225009D01*
X147147998Y-119217664D01*
X147111072Y-119225009D01*
X147111068Y-119225009D01*
X147001682Y-119246767D01*
X147001681Y-119246768D01*
X147001680Y-119246768D01*
X146908947Y-119308730D01*
X146908944Y-119308733D01*
X146877640Y-119329650D01*
X146856723Y-119360954D01*
X145674999Y-120542679D01*
X145674999Y-118595786D01*
X145830897Y-118829103D01*
X146211293Y-119083276D01*
X146546739Y-119150000D01*
X146773261Y-119150000D01*
X147108707Y-119083276D01*
X147489103Y-118829103D01*
X147743276Y-118448707D01*
X147790285Y-118212373D01*
X148018940Y-118212373D01*
X148190114Y-118648179D01*
X148515034Y-118985306D01*
X148944234Y-119172429D01*
X148987627Y-119181058D01*
X149175000Y-119112219D01*
X149175000Y-118025000D01*
X149225000Y-118025000D01*
X149225000Y-119112219D01*
X149412373Y-119181058D01*
X149455766Y-119172429D01*
X149884966Y-118985306D01*
X150209886Y-118648179D01*
X150381060Y-118212373D01*
X150312242Y-118025000D01*
X149225000Y-118025000D01*
X149175000Y-118025000D01*
X148087758Y-118025000D01*
X148018940Y-118212373D01*
X147790285Y-118212373D01*
X147832529Y-118000000D01*
X147790286Y-117787627D01*
X148018940Y-117787627D01*
X148087758Y-117975000D01*
X149175000Y-117975000D01*
X149175000Y-116887781D01*
X149225000Y-116887781D01*
X149225000Y-117975000D01*
X150312242Y-117975000D01*
X150381060Y-117787627D01*
X150209886Y-117351821D01*
X149884966Y-117014694D01*
X149455766Y-116827571D01*
X149412373Y-116818942D01*
X149225000Y-116887781D01*
X149175000Y-116887781D01*
X148987627Y-116818942D01*
X148944234Y-116827571D01*
X148515034Y-117014694D01*
X148190114Y-117351821D01*
X148018940Y-117787627D01*
X147790286Y-117787627D01*
X147743276Y-117551293D01*
X147489103Y-117170897D01*
X147108707Y-116916724D01*
X146773261Y-116850000D01*
X146546739Y-116850000D01*
X146211293Y-116916724D01*
X145830897Y-117170897D01*
X145674999Y-117404214D01*
X145674999Y-115336925D01*
X145682344Y-115299999D01*
X145674999Y-115263073D01*
X145674999Y-115263068D01*
X145653241Y-115153682D01*
X145600000Y-115074002D01*
X145600000Y-114880653D01*
X145508656Y-114660127D01*
X145339873Y-114491344D01*
X145119347Y-114400000D01*
X144880653Y-114400000D01*
X144660127Y-114491344D01*
X144491344Y-114660127D01*
X144400000Y-114880653D01*
X144400000Y-115119347D01*
X144491344Y-115339873D01*
X144660127Y-115508656D01*
X144880653Y-115600000D01*
X144925000Y-115600000D01*
X144925000Y-117154792D01*
X144568707Y-116916724D01*
X144495000Y-116902063D01*
X144495000Y-116583053D01*
X144502345Y-116546127D01*
X144495000Y-116509200D01*
X144495000Y-116509196D01*
X144473242Y-116399810D01*
X144470916Y-116396328D01*
X144411279Y-116307077D01*
X144390359Y-116275768D01*
X144359049Y-116254847D01*
X144223885Y-116119683D01*
X144223885Y-115930665D01*
X144132541Y-115710139D01*
X143963758Y-115541356D01*
X143782325Y-115466204D01*
X143908656Y-115339873D01*
X144000000Y-115119347D01*
X144000000Y-114880653D01*
X143908656Y-114660127D01*
X143739873Y-114491344D01*
X143519347Y-114400000D01*
X143349186Y-114400000D01*
X143284609Y-114244095D01*
X143115826Y-114075312D01*
X142895300Y-113983968D01*
X142656606Y-113983968D01*
X142436080Y-114075312D01*
X142267297Y-114244095D01*
X142175953Y-114464621D01*
X142175953Y-114653638D01*
X139960949Y-116868643D01*
X139929642Y-116889562D01*
X139908723Y-116920869D01*
X139908721Y-116920871D01*
X139846759Y-117013603D01*
X139821764Y-117139266D01*
X139488707Y-116916724D01*
X139153261Y-116850000D01*
X138926739Y-116850000D01*
X138591293Y-116916724D01*
X138210897Y-117170897D01*
X137956724Y-117551293D01*
X137867471Y-118000000D01*
X137956724Y-118448707D01*
X138210897Y-118829103D01*
X138591293Y-119083276D01*
X138926739Y-119150000D01*
X139153261Y-119150000D01*
X139488707Y-119083276D01*
X139825001Y-118858571D01*
X139825000Y-120684670D01*
X139551194Y-120958476D01*
X139488707Y-120916724D01*
X139153261Y-120850000D01*
X138926739Y-120850000D01*
X138591293Y-120916724D01*
X138210897Y-121170897D01*
X137956724Y-121551293D01*
X137894491Y-121864162D01*
X137791279Y-121760950D01*
X137770359Y-121729641D01*
X137655877Y-121653146D01*
X137655877Y-121150000D01*
X137632593Y-121032946D01*
X137566288Y-120933712D01*
X137467054Y-120867407D01*
X137350000Y-120844123D01*
X135650000Y-120844123D01*
X135532946Y-120867407D01*
X135433712Y-120933712D01*
X135367407Y-121032946D01*
X135344123Y-121150000D01*
X135344123Y-122850000D01*
X135367407Y-122967054D01*
X135433712Y-123066288D01*
X135532946Y-123132593D01*
X135650000Y-123155877D01*
X137350000Y-123155877D01*
X137467054Y-123132593D01*
X137566288Y-123066288D01*
X137632593Y-122967054D01*
X137655877Y-122850000D01*
X137655877Y-122686206D01*
X138808722Y-123839052D01*
X138829641Y-123870359D01*
X138860948Y-123891278D01*
X138860949Y-123891279D01*
X138904520Y-123920392D01*
X138953683Y-123953242D01*
X139063069Y-123975000D01*
X139063074Y-123975000D01*
X139100000Y-123982345D01*
X139136926Y-123975000D01*
X144074076Y-123975000D01*
X144111002Y-123982345D01*
X144147928Y-123975000D01*
X144147933Y-123975000D01*
X144257319Y-123953242D01*
X144381361Y-123870359D01*
X144402282Y-123839050D01*
X145434054Y-122807278D01*
X145465360Y-122786360D01*
X145531757Y-122686992D01*
X145548242Y-122662320D01*
X145548242Y-122662319D01*
X145548243Y-122662318D01*
X145570001Y-122552932D01*
X145570001Y-122552928D01*
X145577346Y-122516002D01*
X145570001Y-122479075D01*
X145570001Y-122414908D01*
X145576724Y-122448707D01*
X145830897Y-122829103D01*
X146211293Y-123083276D01*
X146546739Y-123150000D01*
X146773261Y-123150000D01*
X147108707Y-123083276D01*
X147489103Y-122829103D01*
X147743276Y-122448707D01*
X147790285Y-122212373D01*
X148018940Y-122212373D01*
X148190114Y-122648179D01*
X148515034Y-122985306D01*
X148944234Y-123172429D01*
X148987627Y-123181058D01*
X149175000Y-123112219D01*
X149175000Y-122025000D01*
X149225000Y-122025000D01*
X149225000Y-123112219D01*
X149412373Y-123181058D01*
X149455766Y-123172429D01*
X149884966Y-122985306D01*
X150209886Y-122648179D01*
X150381060Y-122212373D01*
X150312242Y-122025000D01*
X149225000Y-122025000D01*
X149175000Y-122025000D01*
X148087758Y-122025000D01*
X148018940Y-122212373D01*
X147790285Y-122212373D01*
X147832529Y-122000000D01*
X147790286Y-121787627D01*
X148018940Y-121787627D01*
X148087758Y-121975000D01*
X149175000Y-121975000D01*
X149175000Y-120887781D01*
X149225000Y-120887781D01*
X149225000Y-121975000D01*
X150312242Y-121975000D01*
X150381060Y-121787627D01*
X150209886Y-121351821D01*
X149884966Y-121014694D01*
X149455766Y-120827571D01*
X149412373Y-120818942D01*
X149225000Y-120887781D01*
X149175000Y-120887781D01*
X148987627Y-120818942D01*
X148944234Y-120827571D01*
X148515034Y-121014694D01*
X148190114Y-121351821D01*
X148018940Y-121787627D01*
X147790286Y-121787627D01*
X147743276Y-121551293D01*
X147701523Y-121488806D01*
X148415330Y-120775000D01*
X153163074Y-120775000D01*
X153200000Y-120782345D01*
X153236926Y-120775000D01*
X153236931Y-120775000D01*
X153346317Y-120753242D01*
X153470359Y-120670359D01*
X153491280Y-120639049D01*
X157589042Y-116541288D01*
X157620348Y-116520370D01*
X157703231Y-116396328D01*
X157724989Y-116286942D01*
X157724989Y-116286937D01*
X157732334Y-116250011D01*
X157724989Y-116213085D01*
X157724989Y-109055340D01*
X158074912Y-108705417D01*
X158074913Y-120994757D01*
X154469671Y-124600000D01*
X154280653Y-124600000D01*
X154060127Y-124691344D01*
X153891344Y-124860127D01*
X153800000Y-125080653D01*
X153800000Y-125319347D01*
X153891344Y-125539873D01*
X154060127Y-125708656D01*
X154280653Y-125800000D01*
X154519347Y-125800000D01*
X154739873Y-125708656D01*
X154800000Y-125648529D01*
X154860127Y-125708656D01*
X155080653Y-125800000D01*
X155319347Y-125800000D01*
X155539873Y-125708656D01*
X155575007Y-125673523D01*
X155610140Y-125708656D01*
X155830666Y-125800000D01*
X156069360Y-125800000D01*
X156289886Y-125708656D01*
X156375010Y-125623533D01*
X156460133Y-125708656D01*
X156680659Y-125800000D01*
X156919353Y-125800000D01*
X157139879Y-125708656D01*
X157200003Y-125648532D01*
X157260127Y-125708656D01*
X157480653Y-125800000D01*
X157719347Y-125800000D01*
X157939873Y-125708656D01*
X158000000Y-125648529D01*
X158060127Y-125708656D01*
X158280653Y-125800000D01*
X158519347Y-125800000D01*
X158739873Y-125708656D01*
X158800000Y-125648529D01*
X158860127Y-125708656D01*
X159080653Y-125800000D01*
X159319347Y-125800000D01*
X159539873Y-125708656D01*
X159600009Y-125648520D01*
X159660127Y-125708638D01*
X159880653Y-125799982D01*
X160119347Y-125799982D01*
X160339873Y-125708638D01*
X160399991Y-125648520D01*
X160460127Y-125708656D01*
X160680653Y-125800000D01*
X160919347Y-125800000D01*
X161139873Y-125708656D01*
X161308656Y-125539873D01*
X161400000Y-125319347D01*
X161400000Y-125080653D01*
X161308656Y-124860127D01*
X161225000Y-124776471D01*
X161225000Y-112181051D01*
X162825000Y-110581051D01*
X162825000Y-111843762D01*
X162719348Y-111800000D01*
X162480654Y-111800000D01*
X162260128Y-111891344D01*
X162091345Y-112060127D01*
X162000001Y-112280653D01*
X162000001Y-112519347D01*
X162091345Y-112739873D01*
X162260128Y-112908656D01*
X162480654Y-113000000D01*
X162719348Y-113000000D01*
X162825000Y-112956238D01*
X162825001Y-124726470D01*
X162691344Y-124860127D01*
X162600000Y-125080653D01*
X162600000Y-125319347D01*
X162691344Y-125539873D01*
X162860127Y-125708656D01*
X163080653Y-125800000D01*
X163319347Y-125800000D01*
X163508809Y-125721523D01*
X174600000Y-125721523D01*
X174600000Y-126278477D01*
X174813137Y-126793037D01*
X175206963Y-127186863D01*
X175721523Y-127400000D01*
X176278477Y-127400000D01*
X176793037Y-127186863D01*
X177186863Y-126793037D01*
X177400000Y-126278477D01*
X177400000Y-125721523D01*
X177186863Y-125206963D01*
X176793037Y-124813137D01*
X176278477Y-124600000D01*
X175721523Y-124600000D01*
X175206963Y-124813137D01*
X174813137Y-125206963D01*
X174600000Y-125721523D01*
X163508809Y-125721523D01*
X163539873Y-125708656D01*
X163708656Y-125539873D01*
X163800000Y-125319347D01*
X163800000Y-125080653D01*
X163708656Y-124860127D01*
X163575000Y-124726471D01*
X163575000Y-110980653D01*
X169700000Y-110980653D01*
X169700000Y-111219347D01*
X169791344Y-111439873D01*
X169960127Y-111608656D01*
X170180653Y-111700000D01*
X170419347Y-111700000D01*
X170639873Y-111608656D01*
X170808656Y-111439873D01*
X170900000Y-111219347D01*
X170900000Y-110980653D01*
X170808656Y-110760127D01*
X170639873Y-110591344D01*
X170419347Y-110500000D01*
X170180653Y-110500000D01*
X169960127Y-110591344D01*
X169791344Y-110760127D01*
X169700000Y-110980653D01*
X163575000Y-110980653D01*
X163575000Y-110280329D01*
X166139052Y-107716278D01*
X166170359Y-107695359D01*
X166195277Y-107658068D01*
X166240843Y-107589873D01*
X166253242Y-107571317D01*
X166275000Y-107461931D01*
X166275000Y-107461926D01*
X166282345Y-107425000D01*
X166275000Y-107388074D01*
X166275000Y-107080653D01*
X170300000Y-107080653D01*
X170300000Y-107319347D01*
X170391344Y-107539873D01*
X170560127Y-107708656D01*
X170780653Y-107800000D01*
X171019347Y-107800000D01*
X171239873Y-107708656D01*
X171408656Y-107539873D01*
X171500000Y-107319347D01*
X171500000Y-107080653D01*
X171408656Y-106860127D01*
X171239873Y-106691344D01*
X171019347Y-106600000D01*
X170780653Y-106600000D01*
X170560127Y-106691344D01*
X170391344Y-106860127D01*
X170300000Y-107080653D01*
X166275000Y-107080653D01*
X166275000Y-105736926D01*
X166282345Y-105700000D01*
X166275000Y-105663073D01*
X166275000Y-105663069D01*
X166253242Y-105553683D01*
X166250781Y-105550000D01*
X166191279Y-105460949D01*
X166191278Y-105460948D01*
X166170359Y-105429641D01*
X166139053Y-105408723D01*
X165869637Y-105139307D01*
X171042270Y-105139307D01*
X171042270Y-105378001D01*
X171133614Y-105598527D01*
X171302397Y-105767310D01*
X171522923Y-105858654D01*
X171761617Y-105858654D01*
X171982143Y-105767310D01*
X172150926Y-105598527D01*
X172242270Y-105378001D01*
X172242270Y-105139307D01*
X172150926Y-104918781D01*
X171982143Y-104749998D01*
X171761617Y-104658654D01*
X171522923Y-104658654D01*
X171302397Y-104749998D01*
X171133614Y-104918781D01*
X171042270Y-105139307D01*
X165869637Y-105139307D01*
X165400000Y-104669671D01*
X165400000Y-104575000D01*
X167663074Y-104575000D01*
X167700000Y-104582345D01*
X167736926Y-104575000D01*
X167736931Y-104575000D01*
X167846317Y-104553242D01*
X167970359Y-104470359D01*
X167991280Y-104439049D01*
X169349676Y-103080653D01*
X174900000Y-103080653D01*
X174900000Y-103319347D01*
X174991344Y-103539873D01*
X175160127Y-103708656D01*
X175380653Y-103800000D01*
X175619347Y-103800000D01*
X175700837Y-103766246D01*
X175694123Y-103800000D01*
X175694123Y-104200000D01*
X175717407Y-104317054D01*
X175772829Y-104400000D01*
X175717407Y-104482946D01*
X175694123Y-104600000D01*
X175694123Y-105000000D01*
X175717407Y-105117054D01*
X175772829Y-105200000D01*
X175717407Y-105282946D01*
X175694123Y-105400000D01*
X175694123Y-105800000D01*
X175717407Y-105917054D01*
X175772829Y-106000000D01*
X175717407Y-106082946D01*
X175694123Y-106200000D01*
X175694123Y-106600000D01*
X175717407Y-106717054D01*
X175772829Y-106800000D01*
X175717407Y-106882946D01*
X175694123Y-107000000D01*
X175694123Y-107400000D01*
X175717407Y-107517054D01*
X175772829Y-107600000D01*
X175717407Y-107682946D01*
X175694123Y-107800000D01*
X175694123Y-108200000D01*
X175717407Y-108317054D01*
X175772829Y-108400000D01*
X175717407Y-108482946D01*
X175694123Y-108600000D01*
X175694123Y-109000000D01*
X175717407Y-109117054D01*
X175772829Y-109200000D01*
X175717407Y-109282946D01*
X175694123Y-109400000D01*
X175694123Y-109800000D01*
X175717407Y-109917054D01*
X175772829Y-110000000D01*
X175717407Y-110082946D01*
X175694123Y-110200000D01*
X175694123Y-110600000D01*
X175717407Y-110717054D01*
X175783712Y-110816288D01*
X175882946Y-110882593D01*
X176000000Y-110905877D01*
X178000000Y-110905877D01*
X178117054Y-110882593D01*
X178216288Y-110816288D01*
X178282593Y-110717054D01*
X178305877Y-110600000D01*
X178305877Y-110200000D01*
X178282593Y-110082946D01*
X178227171Y-110000000D01*
X178282593Y-109917054D01*
X178305877Y-109800000D01*
X178305877Y-109400000D01*
X178282593Y-109282946D01*
X178227171Y-109200000D01*
X178282593Y-109117054D01*
X178305877Y-109000000D01*
X178305877Y-108600000D01*
X178282593Y-108482946D01*
X178227171Y-108400000D01*
X178282593Y-108317054D01*
X178305877Y-108200000D01*
X178305877Y-107800000D01*
X178519347Y-107800000D01*
X178739873Y-107708656D01*
X178908656Y-107539873D01*
X179000000Y-107319347D01*
X179000000Y-107080653D01*
X178908656Y-106860127D01*
X178848529Y-106800000D01*
X178908656Y-106739873D01*
X179000000Y-106519347D01*
X179000000Y-106280653D01*
X178908656Y-106060127D01*
X178848529Y-106000000D01*
X178908656Y-105939873D01*
X179000000Y-105719347D01*
X179000000Y-105480653D01*
X178908656Y-105260127D01*
X178848529Y-105200000D01*
X178908656Y-105139873D01*
X179000000Y-104919347D01*
X179000000Y-104680653D01*
X178908656Y-104460127D01*
X178848529Y-104400000D01*
X178908656Y-104339873D01*
X179000000Y-104119347D01*
X179000000Y-103880653D01*
X178908656Y-103660127D01*
X178739873Y-103491344D01*
X178519347Y-103400000D01*
X178305877Y-103400000D01*
X178305877Y-103000000D01*
X178282593Y-102882946D01*
X178254329Y-102840645D01*
X178296716Y-102798259D01*
X178350000Y-102669619D01*
X178350000Y-102512500D01*
X178262500Y-102425000D01*
X177025000Y-102425000D01*
X177025000Y-102445000D01*
X176975000Y-102445000D01*
X176975000Y-102425000D01*
X175737500Y-102425000D01*
X175650000Y-102512500D01*
X175650000Y-102612697D01*
X175619347Y-102600000D01*
X175380653Y-102600000D01*
X175160127Y-102691344D01*
X174991344Y-102860127D01*
X174900000Y-103080653D01*
X169349676Y-103080653D01*
X169739053Y-102691277D01*
X169770359Y-102670359D01*
X169808971Y-102612573D01*
X169853241Y-102546319D01*
X169853241Y-102546318D01*
X169853242Y-102546317D01*
X169875000Y-102436931D01*
X169875000Y-102436927D01*
X169882345Y-102400001D01*
X169875000Y-102363075D01*
X169875000Y-99155329D01*
X171055330Y-97975000D01*
X175756125Y-97975000D01*
X175772829Y-98000000D01*
X175756125Y-98025000D01*
X174976247Y-98025000D01*
X174939321Y-98017655D01*
X174902395Y-98025000D01*
X174902391Y-98025000D01*
X174793005Y-98046758D01*
X174793004Y-98046759D01*
X174793003Y-98046759D01*
X174758728Y-98069661D01*
X174550314Y-98069661D01*
X174329788Y-98161005D01*
X174161005Y-98329788D01*
X174069661Y-98550314D01*
X174069661Y-98789008D01*
X174161005Y-99009534D01*
X174329788Y-99178317D01*
X174550314Y-99269661D01*
X174789008Y-99269661D01*
X174900000Y-99223687D01*
X174900000Y-99319347D01*
X174991344Y-99539873D01*
X175051471Y-99600000D01*
X174991344Y-99660127D01*
X174900000Y-99880653D01*
X174900000Y-100119347D01*
X174991344Y-100339873D01*
X175051471Y-100400000D01*
X174991344Y-100460127D01*
X174900000Y-100680653D01*
X174900000Y-100919347D01*
X174991344Y-101139873D01*
X175051471Y-101200000D01*
X174991344Y-101260127D01*
X174900000Y-101480653D01*
X174900000Y-101719347D01*
X174991344Y-101939873D01*
X175160127Y-102108656D01*
X175380653Y-102200000D01*
X175619347Y-102200000D01*
X175650000Y-102187303D01*
X175650000Y-102287500D01*
X175737500Y-102375000D01*
X176975000Y-102375000D01*
X176975000Y-102355000D01*
X177025000Y-102355000D01*
X177025000Y-102375000D01*
X178262500Y-102375000D01*
X178350000Y-102287500D01*
X178350000Y-102130381D01*
X178296716Y-102001741D01*
X178254329Y-101959355D01*
X178282593Y-101917054D01*
X178305877Y-101800000D01*
X178305877Y-101400000D01*
X178282593Y-101282946D01*
X178227171Y-101200000D01*
X178282593Y-101117054D01*
X178305877Y-101000000D01*
X178305877Y-100600000D01*
X178282593Y-100482946D01*
X178227171Y-100400000D01*
X178282593Y-100317054D01*
X178305877Y-100200000D01*
X178305877Y-99800000D01*
X178282593Y-99682946D01*
X178227171Y-99600000D01*
X178282593Y-99517054D01*
X178305877Y-99400000D01*
X178305877Y-99000000D01*
X178282593Y-98882946D01*
X178227171Y-98800000D01*
X178282593Y-98717054D01*
X178305877Y-98600000D01*
X178305877Y-98200000D01*
X178299163Y-98166246D01*
X178380653Y-98200000D01*
X178619347Y-98200000D01*
X178839873Y-98108656D01*
X179008656Y-97939873D01*
X179100000Y-97719347D01*
X179100000Y-97480653D01*
X179008656Y-97260127D01*
X178839873Y-97091344D01*
X178619347Y-97000000D01*
X178380653Y-97000000D01*
X178350000Y-97012697D01*
X178350000Y-96912500D01*
X178262500Y-96825000D01*
X177025000Y-96825000D01*
X177025000Y-96845000D01*
X176975000Y-96845000D01*
X176975000Y-96825000D01*
X175737500Y-96825000D01*
X175650000Y-96912500D01*
X175650000Y-97069619D01*
X175703284Y-97198259D01*
X175730025Y-97225000D01*
X170936926Y-97225000D01*
X170900000Y-97217655D01*
X170863073Y-97225000D01*
X170863069Y-97225000D01*
X170753683Y-97246758D01*
X170753682Y-97246759D01*
X170753681Y-97246759D01*
X170660949Y-97308721D01*
X170660948Y-97308722D01*
X170629641Y-97329641D01*
X170608722Y-97360948D01*
X169575000Y-98394671D01*
X169575000Y-96530381D01*
X175650000Y-96530381D01*
X175650000Y-96687500D01*
X175737500Y-96775000D01*
X176975000Y-96775000D01*
X176975000Y-96337500D01*
X177025000Y-96337500D01*
X177025000Y-96775000D01*
X178262500Y-96775000D01*
X178350000Y-96687500D01*
X178350000Y-96530381D01*
X178296716Y-96401741D01*
X178198259Y-96303285D01*
X178069620Y-96250000D01*
X177112500Y-96250000D01*
X177025000Y-96337500D01*
X176975000Y-96337500D01*
X176887500Y-96250000D01*
X175930380Y-96250000D01*
X175801741Y-96303285D01*
X175703284Y-96401741D01*
X175650000Y-96530381D01*
X169575000Y-96530381D01*
X169575000Y-94836926D01*
X169582345Y-94800000D01*
X169575000Y-94763074D01*
X169575000Y-94763069D01*
X169553242Y-94653683D01*
X169500837Y-94575254D01*
X169491279Y-94560949D01*
X169491278Y-94560948D01*
X169470359Y-94529641D01*
X169439052Y-94508722D01*
X166199994Y-91269665D01*
X166199994Y-91080647D01*
X166108650Y-90860121D01*
X165939867Y-90691338D01*
X165719341Y-90599994D01*
X165480647Y-90599994D01*
X165260121Y-90691338D01*
X165091338Y-90860121D01*
X164999994Y-91080647D01*
X164999994Y-91319341D01*
X165091338Y-91539867D01*
X165260121Y-91708650D01*
X165480647Y-91799994D01*
X165669665Y-91799994D01*
X168825001Y-94955331D01*
X168825000Y-102044670D01*
X167444671Y-103425000D01*
X165355330Y-103425000D01*
X164491280Y-102560950D01*
X164489802Y-102558739D01*
X164508671Y-102539870D01*
X164600015Y-102319344D01*
X164600015Y-102080650D01*
X164508671Y-101860124D01*
X164339888Y-101691341D01*
X164119362Y-101599997D01*
X163930344Y-101599997D01*
X163765814Y-101435467D01*
X163744893Y-101404157D01*
X163620851Y-101321274D01*
X163511465Y-101299516D01*
X163511460Y-101299516D01*
X163474534Y-101292171D01*
X163437608Y-101299516D01*
X163103812Y-101299516D01*
X160754329Y-98950034D01*
X162701429Y-98950034D01*
X162641344Y-99010119D01*
X162550000Y-99230645D01*
X162550000Y-99469339D01*
X162641344Y-99689865D01*
X162810127Y-99858648D01*
X163030653Y-99949992D01*
X163269347Y-99949992D01*
X163489873Y-99858648D01*
X163658656Y-99689865D01*
X163750000Y-99469339D01*
X163750000Y-99230645D01*
X163658656Y-99010119D01*
X163598571Y-98950034D01*
X163888040Y-98950034D01*
X163924966Y-98957379D01*
X163961892Y-98950034D01*
X163961897Y-98950034D01*
X164071283Y-98928276D01*
X164195325Y-98845393D01*
X164216245Y-98814084D01*
X164230329Y-98800000D01*
X164419347Y-98800000D01*
X164639873Y-98708656D01*
X164808656Y-98539873D01*
X164900000Y-98319347D01*
X164900000Y-98080653D01*
X164874821Y-98019864D01*
X165418023Y-98019864D01*
X165423964Y-98049733D01*
X165423963Y-99918383D01*
X165290307Y-100052039D01*
X165198963Y-100272565D01*
X165198963Y-100511259D01*
X165290307Y-100731785D01*
X165459090Y-100900568D01*
X165679616Y-100991912D01*
X165918310Y-100991912D01*
X165988726Y-100962745D01*
X165890861Y-101060610D01*
X165799517Y-101281136D01*
X165799517Y-101519830D01*
X165890861Y-101740356D01*
X166059644Y-101909139D01*
X166280170Y-102000483D01*
X166518864Y-102000483D01*
X166739390Y-101909139D01*
X166908173Y-101740356D01*
X166916266Y-101720817D01*
X166916266Y-101992727D01*
X166782610Y-102126383D01*
X166691266Y-102346909D01*
X166691266Y-102585603D01*
X166782610Y-102806129D01*
X166951393Y-102974912D01*
X167171919Y-103066256D01*
X167410613Y-103066256D01*
X167631139Y-102974912D01*
X167799922Y-102806129D01*
X167891266Y-102585603D01*
X167891266Y-102346909D01*
X167799922Y-102126383D01*
X167725562Y-102052023D01*
X167935623Y-102052023D01*
X168156149Y-101960679D01*
X168324932Y-101791896D01*
X168416276Y-101571370D01*
X168416276Y-101332676D01*
X168324932Y-101112150D01*
X168188794Y-100976012D01*
X168324932Y-100839873D01*
X168416276Y-100619347D01*
X168416276Y-100380653D01*
X168324932Y-100160127D01*
X168156149Y-99991344D01*
X167935623Y-99900000D01*
X167696929Y-99900000D01*
X167666266Y-99912701D01*
X167666266Y-98873094D01*
X167670359Y-98870359D01*
X167753242Y-98746317D01*
X167775000Y-98636931D01*
X167775000Y-98636927D01*
X167782345Y-98600001D01*
X167775000Y-98563074D01*
X167775000Y-97673529D01*
X167908656Y-97539873D01*
X168000000Y-97319347D01*
X168000000Y-97080653D01*
X167908656Y-96860127D01*
X167739873Y-96691344D01*
X167519347Y-96600000D01*
X167330330Y-96600000D01*
X166991280Y-96260951D01*
X166970360Y-96229642D01*
X166846318Y-96146759D01*
X166736932Y-96125001D01*
X166736927Y-96125001D01*
X166700001Y-96117656D01*
X166663075Y-96125001D01*
X164313978Y-96125001D01*
X164277052Y-96117656D01*
X164240126Y-96125001D01*
X164240121Y-96125001D01*
X164130735Y-96146759D01*
X164092116Y-96172564D01*
X164038001Y-96208722D01*
X164038000Y-96208723D01*
X164030801Y-96213534D01*
X164008656Y-96160071D01*
X163839873Y-95991288D01*
X163619347Y-95899944D01*
X163380653Y-95899944D01*
X163160127Y-95991288D01*
X163026471Y-96124944D01*
X161455384Y-96124944D01*
X162105330Y-95475000D01*
X163026471Y-95475000D01*
X163160127Y-95608656D01*
X163380653Y-95700000D01*
X163619347Y-95700000D01*
X163839873Y-95608656D01*
X164008656Y-95439873D01*
X164100000Y-95219347D01*
X164100000Y-94980653D01*
X164008656Y-94760127D01*
X163839873Y-94591344D01*
X163619347Y-94500000D01*
X163380653Y-94500000D01*
X163219099Y-94566917D01*
X163220371Y-94565645D01*
X163311715Y-94345119D01*
X163311715Y-94106425D01*
X163301040Y-94080653D01*
X166200000Y-94080653D01*
X166200000Y-94319347D01*
X166291344Y-94539873D01*
X166460127Y-94708656D01*
X166680653Y-94800000D01*
X166919347Y-94800000D01*
X167139873Y-94708656D01*
X167308656Y-94539873D01*
X167400000Y-94319347D01*
X167400000Y-94080653D01*
X167308656Y-93860127D01*
X167139873Y-93691344D01*
X166919347Y-93600000D01*
X166680653Y-93600000D01*
X166460127Y-93691344D01*
X166291344Y-93860127D01*
X166200000Y-94080653D01*
X163301040Y-94080653D01*
X163220371Y-93885899D01*
X163051588Y-93717116D01*
X162831062Y-93625772D01*
X162592368Y-93625772D01*
X162371842Y-93717116D01*
X162203059Y-93885899D01*
X162111715Y-94106425D01*
X162111715Y-94345119D01*
X162203059Y-94565645D01*
X162362414Y-94725000D01*
X161986926Y-94725000D01*
X161950000Y-94717655D01*
X161913074Y-94725000D01*
X161913069Y-94725000D01*
X161803683Y-94746758D01*
X161783675Y-94760127D01*
X161710949Y-94808721D01*
X161710948Y-94808722D01*
X161679641Y-94829641D01*
X161658723Y-94860947D01*
X161160961Y-95358708D01*
X161175000Y-95288129D01*
X161175000Y-95288124D01*
X161182345Y-95251198D01*
X161175000Y-95214272D01*
X161175000Y-90155329D01*
X161964060Y-89366270D01*
X161995367Y-89345351D01*
X162022309Y-89305031D01*
X162061525Y-89246339D01*
X162078250Y-89221309D01*
X162100008Y-89111923D01*
X162100008Y-89111918D01*
X162107353Y-89074992D01*
X162100008Y-89038066D01*
X162100008Y-87650000D01*
X173344123Y-87650000D01*
X173344123Y-89350000D01*
X173367407Y-89467054D01*
X173433712Y-89566288D01*
X173532946Y-89632593D01*
X173650000Y-89655877D01*
X175350000Y-89655877D01*
X175467054Y-89632593D01*
X175566288Y-89566288D01*
X175632593Y-89467054D01*
X175655877Y-89350000D01*
X175655877Y-88712373D01*
X175858940Y-88712373D01*
X176030114Y-89148179D01*
X176355034Y-89485306D01*
X176784234Y-89672429D01*
X176827627Y-89681058D01*
X177015000Y-89612219D01*
X177015000Y-88525000D01*
X177065000Y-88525000D01*
X177065000Y-89612219D01*
X177252373Y-89681058D01*
X177295766Y-89672429D01*
X177724966Y-89485306D01*
X178049886Y-89148179D01*
X178221060Y-88712373D01*
X178152242Y-88525000D01*
X177065000Y-88525000D01*
X177015000Y-88525000D01*
X175927758Y-88525000D01*
X175858940Y-88712373D01*
X175655877Y-88712373D01*
X175655877Y-88287627D01*
X175858940Y-88287627D01*
X175927758Y-88475000D01*
X177015000Y-88475000D01*
X177015000Y-87387781D01*
X177065000Y-87387781D01*
X177065000Y-88475000D01*
X178152242Y-88475000D01*
X178221060Y-88287627D01*
X178049886Y-87851821D01*
X177724966Y-87514694D01*
X177295766Y-87327571D01*
X177252373Y-87318942D01*
X177065000Y-87387781D01*
X177015000Y-87387781D01*
X176827627Y-87318942D01*
X176784234Y-87327571D01*
X176355034Y-87514694D01*
X176030114Y-87851821D01*
X175858940Y-88287627D01*
X175655877Y-88287627D01*
X175655877Y-87650000D01*
X175632593Y-87532946D01*
X175566288Y-87433712D01*
X175467054Y-87367407D01*
X175350000Y-87344123D01*
X173650000Y-87344123D01*
X173532946Y-87367407D01*
X173433712Y-87433712D01*
X173367407Y-87532946D01*
X173344123Y-87650000D01*
X162100008Y-87650000D01*
X162100008Y-86961934D01*
X162107353Y-86925008D01*
X162100008Y-86888082D01*
X162100008Y-86888077D01*
X162078250Y-86778691D01*
X161995367Y-86654649D01*
X161964061Y-86633731D01*
X159810983Y-84480653D01*
X161800000Y-84480653D01*
X161800000Y-84719347D01*
X161891344Y-84939873D01*
X162060127Y-85108656D01*
X162280653Y-85200000D01*
X162519347Y-85200000D01*
X162739873Y-85108656D01*
X162908656Y-84939873D01*
X163000000Y-84719347D01*
X163000000Y-84480653D01*
X162908656Y-84260127D01*
X162739873Y-84091344D01*
X162519347Y-84000000D01*
X162280653Y-84000000D01*
X162060127Y-84091344D01*
X161891344Y-84260127D01*
X161800000Y-84480653D01*
X159810983Y-84480653D01*
X159200000Y-83869671D01*
X159200000Y-83721523D01*
X174600000Y-83721523D01*
X174600000Y-84278477D01*
X174813137Y-84793037D01*
X175206963Y-85186863D01*
X175721523Y-85400000D01*
X176278477Y-85400000D01*
X176793037Y-85186863D01*
X177186863Y-84793037D01*
X177400000Y-84278477D01*
X177400000Y-83721523D01*
X177186863Y-83206963D01*
X176793037Y-82813137D01*
X176278477Y-82600000D01*
X175721523Y-82600000D01*
X175206963Y-82813137D01*
X174813137Y-83206963D01*
X174600000Y-83721523D01*
X159200000Y-83721523D01*
X159200000Y-83680653D01*
X159108656Y-83460127D01*
X158939873Y-83291344D01*
X158719347Y-83200000D01*
X158480653Y-83200000D01*
X158260127Y-83291344D01*
X158091344Y-83460127D01*
X158000000Y-83680653D01*
X158000000Y-83919347D01*
X158091344Y-84139873D01*
X158260127Y-84308656D01*
X158480653Y-84400000D01*
X158669671Y-84400000D01*
X161350008Y-87080338D01*
X161350009Y-88919661D01*
X160560950Y-89708720D01*
X160529641Y-89729641D01*
X160508721Y-89760950D01*
X160465406Y-89825776D01*
X160446758Y-89853684D01*
X160425000Y-89963070D01*
X160425000Y-89963074D01*
X160417655Y-90000000D01*
X160425000Y-90036926D01*
X160425001Y-93143610D01*
X160242341Y-92960951D01*
X160221421Y-92929642D01*
X160097379Y-92846759D01*
X160014145Y-92830203D01*
X160093485Y-92638657D01*
X160093485Y-92399963D01*
X160002141Y-92179437D01*
X159868485Y-92045781D01*
X159868485Y-89630375D01*
X159875830Y-89593449D01*
X159868485Y-89556523D01*
X159868485Y-89556518D01*
X159846727Y-89447132D01*
X159812781Y-89396328D01*
X159784764Y-89354398D01*
X159784763Y-89354397D01*
X159763844Y-89323090D01*
X159732538Y-89302172D01*
X156400000Y-85969635D01*
X156400000Y-85780617D01*
X156308656Y-85560091D01*
X156139873Y-85391308D01*
X155919347Y-85299964D01*
X155680653Y-85299964D01*
X155460127Y-85391308D01*
X155291344Y-85560091D01*
X155274441Y-85600898D01*
X155164883Y-85491340D01*
X154944357Y-85399996D01*
X154705663Y-85399996D01*
X154485137Y-85491340D01*
X154316354Y-85660123D01*
X154225010Y-85880649D01*
X154225010Y-86119343D01*
X154316354Y-86339869D01*
X154450010Y-86473525D01*
X154450011Y-88517978D01*
X154442665Y-88554909D01*
X154471769Y-88701227D01*
X154533731Y-88793959D01*
X154533733Y-88793961D01*
X154554652Y-88825268D01*
X154585959Y-88846187D01*
X157454214Y-91714443D01*
X157419345Y-91700000D01*
X157180651Y-91700000D01*
X156960125Y-91791344D01*
X156791342Y-91960127D01*
X156699998Y-92180653D01*
X156699998Y-92297894D01*
X153671239Y-89269136D01*
X153671239Y-83777290D01*
X153804895Y-83643634D01*
X153869609Y-83487399D01*
X153891344Y-83539873D01*
X154060127Y-83708656D01*
X154280653Y-83800000D01*
X154519347Y-83800000D01*
X154739873Y-83708656D01*
X154908656Y-83539873D01*
X155000000Y-83319347D01*
X155000000Y-83080653D01*
X154908656Y-82860127D01*
X154739873Y-82691344D01*
X154519347Y-82600000D01*
X154280653Y-82600000D01*
X154060127Y-82691344D01*
X153891344Y-82860127D01*
X153826630Y-83016362D01*
X153804895Y-82963888D01*
X153636112Y-82795105D01*
X153415586Y-82703761D01*
X153176892Y-82703761D01*
X152956366Y-82795105D01*
X152787583Y-82963888D01*
X152696239Y-83184414D01*
X152696239Y-83423108D01*
X152787583Y-83643634D01*
X152921239Y-83777290D01*
X152921240Y-89387534D01*
X152913894Y-89424465D01*
X152942998Y-89570783D01*
X153004960Y-89663515D01*
X153004962Y-89663517D01*
X153025881Y-89694824D01*
X153057188Y-89715743D01*
X156721786Y-93380342D01*
X156721786Y-93519682D01*
X155573992Y-94667477D01*
X155073529Y-94667477D01*
X154939873Y-94533821D01*
X154719347Y-94442477D01*
X154480653Y-94442477D01*
X154260127Y-94533821D01*
X154091344Y-94702604D01*
X154038470Y-94830255D01*
X153702895Y-94494681D01*
X153702895Y-94305663D01*
X153611551Y-94085137D01*
X153442768Y-93916354D01*
X153222242Y-93825010D01*
X152983548Y-93825010D01*
X152763022Y-93916354D01*
X152700365Y-93979011D01*
X147857005Y-89135652D01*
X147857005Y-88946634D01*
X147765661Y-88726108D01*
X147632250Y-88592697D01*
X147639350Y-88557004D01*
X147632005Y-88520078D01*
X147632005Y-88520074D01*
X147610247Y-88410688D01*
X147608926Y-88408710D01*
X147548283Y-88317953D01*
X147527364Y-88286646D01*
X147496058Y-88265728D01*
X146891279Y-87660950D01*
X146870359Y-87629641D01*
X146746317Y-87546758D01*
X146636931Y-87525000D01*
X146636926Y-87525000D01*
X146600000Y-87517655D01*
X146563074Y-87525000D01*
X137236926Y-87525000D01*
X137200000Y-87517655D01*
X137163074Y-87525000D01*
X137163069Y-87525000D01*
X137053683Y-87546758D01*
X137053681Y-87546759D01*
X137053682Y-87546759D01*
X136960949Y-87608721D01*
X136960948Y-87608722D01*
X136929641Y-87629641D01*
X136908722Y-87660948D01*
X135632937Y-88936734D01*
X135721060Y-88712373D01*
X135652242Y-88525000D01*
X134565000Y-88525000D01*
X134565000Y-89612219D01*
X134752373Y-89681058D01*
X134795766Y-89672429D01*
X134975681Y-89593990D01*
X132835954Y-91733717D01*
X132804647Y-91754636D01*
X132783728Y-91785943D01*
X132783726Y-91785945D01*
X132721764Y-91878677D01*
X132692660Y-92024995D01*
X132700006Y-92061926D01*
X132700006Y-93144637D01*
X132448707Y-92976724D01*
X132113261Y-92910000D01*
X131886739Y-92910000D01*
X131551293Y-92976724D01*
X131170897Y-93230897D01*
X130916724Y-93611293D01*
X130827471Y-94060000D01*
X130916724Y-94508707D01*
X131170897Y-94889103D01*
X131523941Y-95125000D01*
X131436925Y-95125000D01*
X131399999Y-95117655D01*
X131363073Y-95125000D01*
X131363069Y-95125000D01*
X131253683Y-95146758D01*
X131253682Y-95146759D01*
X131253681Y-95146759D01*
X131160948Y-95208722D01*
X131129641Y-95229641D01*
X131108722Y-95260948D01*
X130385936Y-95983735D01*
X130354630Y-96004653D01*
X130350000Y-96011582D01*
X130350000Y-87650000D01*
X130844123Y-87650000D01*
X130844123Y-89350000D01*
X130867407Y-89467054D01*
X130933712Y-89566288D01*
X131032946Y-89632593D01*
X131150000Y-89655877D01*
X132850000Y-89655877D01*
X132967054Y-89632593D01*
X133066288Y-89566288D01*
X133132593Y-89467054D01*
X133155877Y-89350000D01*
X133155877Y-88712373D01*
X133358940Y-88712373D01*
X133530114Y-89148179D01*
X133855034Y-89485306D01*
X134284234Y-89672429D01*
X134327627Y-89681058D01*
X134515000Y-89612219D01*
X134515000Y-88525000D01*
X133427758Y-88525000D01*
X133358940Y-88712373D01*
X133155877Y-88712373D01*
X133155877Y-88287627D01*
X133358940Y-88287627D01*
X133427758Y-88475000D01*
X134515000Y-88475000D01*
X134515000Y-87387781D01*
X134565000Y-87387781D01*
X134565000Y-88475000D01*
X135652242Y-88475000D01*
X135721060Y-88287627D01*
X135549886Y-87851821D01*
X135224966Y-87514694D01*
X134795766Y-87327571D01*
X134752373Y-87318942D01*
X134565000Y-87387781D01*
X134515000Y-87387781D01*
X134327627Y-87318942D01*
X134284234Y-87327571D01*
X133855034Y-87514694D01*
X133530114Y-87851821D01*
X133358940Y-88287627D01*
X133155877Y-88287627D01*
X133155877Y-87650000D01*
X133132593Y-87532946D01*
X133066288Y-87433712D01*
X132967054Y-87367407D01*
X132850000Y-87344123D01*
X131150000Y-87344123D01*
X131032946Y-87367407D01*
X130933712Y-87433712D01*
X130867407Y-87532946D01*
X130844123Y-87650000D01*
X130350000Y-87650000D01*
X130350000Y-86080653D01*
X143112500Y-86080653D01*
X143112500Y-86319347D01*
X143203844Y-86539873D01*
X143372627Y-86708656D01*
X143593153Y-86800000D01*
X143831847Y-86800000D01*
X144052373Y-86708656D01*
X144221156Y-86539873D01*
X144312500Y-86319347D01*
X144312500Y-86080653D01*
X144221156Y-85860127D01*
X144052373Y-85691344D01*
X143831847Y-85600000D01*
X143593153Y-85600000D01*
X143372627Y-85691344D01*
X143203844Y-85860127D01*
X143112500Y-86080653D01*
X130350000Y-86080653D01*
X130350000Y-85015583D01*
X130424859Y-84176804D01*
X130549409Y-83721523D01*
X132600000Y-83721523D01*
X132600000Y-84278477D01*
X132813137Y-84793037D01*
X133206963Y-85186863D01*
X133721523Y-85400000D01*
X134278477Y-85400000D01*
X134793037Y-85186863D01*
X135186863Y-84793037D01*
X135218676Y-84716231D01*
X138540342Y-84716231D01*
X138579132Y-84855157D01*
X138749859Y-85128226D01*
X139012089Y-85315174D01*
X139325900Y-85387540D01*
X139475900Y-85387540D01*
X139475900Y-84587540D01*
X139525900Y-84587540D01*
X139525900Y-85387540D01*
X139675900Y-85387540D01*
X139989711Y-85315174D01*
X140251941Y-85128226D01*
X140422668Y-84855157D01*
X140461458Y-84716231D01*
X143540342Y-84716231D01*
X143579132Y-84855157D01*
X143749859Y-85128226D01*
X144012089Y-85315174D01*
X144325900Y-85387540D01*
X144475900Y-85387540D01*
X144475900Y-84587540D01*
X144525900Y-84587540D01*
X144525900Y-85387540D01*
X144675900Y-85387540D01*
X144989711Y-85315174D01*
X145251941Y-85128226D01*
X145422668Y-84855157D01*
X145461458Y-84716231D01*
X145387976Y-84587540D01*
X144525900Y-84587540D01*
X144475900Y-84587540D01*
X143613824Y-84587540D01*
X143540342Y-84716231D01*
X140461458Y-84716231D01*
X140387976Y-84587540D01*
X139525900Y-84587540D01*
X139475900Y-84587540D01*
X138613824Y-84587540D01*
X138540342Y-84716231D01*
X135218676Y-84716231D01*
X135345998Y-84408849D01*
X138540342Y-84408849D01*
X138613824Y-84537540D01*
X139475900Y-84537540D01*
X139475900Y-83737540D01*
X139525900Y-83737540D01*
X139525900Y-84537540D01*
X140387976Y-84537540D01*
X140461458Y-84408849D01*
X143540342Y-84408849D01*
X143613824Y-84537540D01*
X144475900Y-84537540D01*
X144475900Y-83737540D01*
X144525900Y-83737540D01*
X144525900Y-84537540D01*
X145387976Y-84537540D01*
X145461458Y-84408849D01*
X145422668Y-84269923D01*
X145251941Y-83996854D01*
X144989711Y-83809906D01*
X144675900Y-83737540D01*
X144525900Y-83737540D01*
X144475900Y-83737540D01*
X144325900Y-83737540D01*
X144012089Y-83809906D01*
X143749859Y-83996854D01*
X143579132Y-84269923D01*
X143540342Y-84408849D01*
X140461458Y-84408849D01*
X140422668Y-84269923D01*
X140251941Y-83996854D01*
X139989711Y-83809906D01*
X139675900Y-83737540D01*
X139525900Y-83737540D01*
X139475900Y-83737540D01*
X139325900Y-83737540D01*
X139012089Y-83809906D01*
X138749859Y-83996854D01*
X138579132Y-84269923D01*
X138540342Y-84408849D01*
X135345998Y-84408849D01*
X135400000Y-84278477D01*
X135400000Y-83721523D01*
X135186863Y-83206963D01*
X134793037Y-82813137D01*
X134278477Y-82600000D01*
X133721523Y-82600000D01*
X133206963Y-82813137D01*
X132813137Y-83206963D01*
X132600000Y-83721523D01*
X130549409Y-83721523D01*
X130642942Y-83379626D01*
X130998749Y-82633663D01*
X131481026Y-81962504D01*
X131558382Y-81887540D01*
X137650900Y-81887540D01*
X137650900Y-82162540D01*
X137725169Y-82485918D01*
X137917536Y-82756259D01*
X138198715Y-82932406D01*
X138343296Y-82972801D01*
X138475900Y-82899630D01*
X138475900Y-81887540D01*
X138525900Y-81887540D01*
X138525900Y-82899630D01*
X138658504Y-82972801D01*
X138803085Y-82932406D01*
X139084264Y-82756259D01*
X139276631Y-82485918D01*
X139350900Y-82162540D01*
X139350900Y-81887540D01*
X144650900Y-81887540D01*
X144650900Y-82162540D01*
X144725169Y-82485918D01*
X144917536Y-82756259D01*
X145198715Y-82932406D01*
X145343296Y-82972801D01*
X145475900Y-82899630D01*
X145475900Y-81887540D01*
X145525900Y-81887540D01*
X145525900Y-82899630D01*
X145658504Y-82972801D01*
X145803085Y-82932406D01*
X146084264Y-82756259D01*
X146276631Y-82485918D01*
X146350900Y-82162540D01*
X146350900Y-81887540D01*
X145525900Y-81887540D01*
X145475900Y-81887540D01*
X144650900Y-81887540D01*
X139350900Y-81887540D01*
X138525900Y-81887540D01*
X138475900Y-81887540D01*
X137650900Y-81887540D01*
X131558382Y-81887540D01*
X131893755Y-81562540D01*
X137650900Y-81562540D01*
X137650900Y-81837540D01*
X138475900Y-81837540D01*
X138475900Y-80825450D01*
X138525900Y-80825450D01*
X138525900Y-81837540D01*
X139350900Y-81837540D01*
X139350900Y-81562540D01*
X144650900Y-81562540D01*
X144650900Y-81837540D01*
X145475900Y-81837540D01*
X145475900Y-80825450D01*
X145525900Y-80825450D01*
X145525900Y-81837540D01*
X146350900Y-81837540D01*
X146350900Y-81741414D01*
X161600000Y-81741414D01*
X161600000Y-82258586D01*
X161797913Y-82736391D01*
X162163609Y-83102087D01*
X162641414Y-83300000D01*
X163158586Y-83300000D01*
X163636391Y-83102087D01*
X164002087Y-82736391D01*
X164166479Y-82339514D01*
X164237017Y-82509809D01*
X164490191Y-82762983D01*
X164820979Y-82900000D01*
X165179021Y-82900000D01*
X165509809Y-82762983D01*
X165762983Y-82509809D01*
X165900000Y-82179021D01*
X165900000Y-81820979D01*
X166100000Y-81820979D01*
X166100000Y-82179021D01*
X166237017Y-82509809D01*
X166490191Y-82762983D01*
X166820979Y-82900000D01*
X167179021Y-82900000D01*
X167509809Y-82762983D01*
X167762983Y-82509809D01*
X167900000Y-82179021D01*
X167900000Y-81820979D01*
X168100000Y-81820979D01*
X168100000Y-82179021D01*
X168237017Y-82509809D01*
X168490191Y-82762983D01*
X168820979Y-82900000D01*
X169179021Y-82900000D01*
X169509809Y-82762983D01*
X169762983Y-82509809D01*
X169833521Y-82339514D01*
X169997913Y-82736391D01*
X170363609Y-83102087D01*
X170841414Y-83300000D01*
X171358586Y-83300000D01*
X171836391Y-83102087D01*
X172202087Y-82736391D01*
X172400000Y-82258586D01*
X172400000Y-81741414D01*
X172202087Y-81263609D01*
X171836391Y-80897913D01*
X171358586Y-80700000D01*
X170841414Y-80700000D01*
X170363609Y-80897913D01*
X169997913Y-81263609D01*
X169833521Y-81660486D01*
X169762983Y-81490191D01*
X169509809Y-81237017D01*
X169179021Y-81100000D01*
X168820979Y-81100000D01*
X168490191Y-81237017D01*
X168237017Y-81490191D01*
X168100000Y-81820979D01*
X167900000Y-81820979D01*
X167762983Y-81490191D01*
X167509809Y-81237017D01*
X167179021Y-81100000D01*
X166820979Y-81100000D01*
X166490191Y-81237017D01*
X166237017Y-81490191D01*
X166100000Y-81820979D01*
X165900000Y-81820979D01*
X165762983Y-81490191D01*
X165509809Y-81237017D01*
X165179021Y-81100000D01*
X164820979Y-81100000D01*
X164490191Y-81237017D01*
X164237017Y-81490191D01*
X164166479Y-81660486D01*
X164002087Y-81263609D01*
X163636391Y-80897913D01*
X163158586Y-80700000D01*
X162641414Y-80700000D01*
X162163609Y-80897913D01*
X161797913Y-81263609D01*
X161600000Y-81741414D01*
X146350900Y-81741414D01*
X146350900Y-81562540D01*
X146276631Y-81239162D01*
X146084264Y-80968821D01*
X145803085Y-80792674D01*
X145658504Y-80752279D01*
X145525900Y-80825450D01*
X145475900Y-80825450D01*
X145343296Y-80752279D01*
X145198715Y-80792674D01*
X144917536Y-80968821D01*
X144725169Y-81239162D01*
X144650900Y-81562540D01*
X139350900Y-81562540D01*
X139276631Y-81239162D01*
X139084264Y-80968821D01*
X138803085Y-80792674D01*
X138658504Y-80752279D01*
X138525900Y-80825450D01*
X138475900Y-80825450D01*
X138343296Y-80752279D01*
X138198715Y-80792674D01*
X137917536Y-80968821D01*
X137725169Y-81239162D01*
X137650900Y-81562540D01*
X131893755Y-81562540D01*
X132074537Y-81387351D01*
X132760514Y-80926394D01*
X133517286Y-80594194D01*
X134323608Y-80400613D01*
X135012833Y-80350000D01*
X174984417Y-80350000D01*
X175823196Y-80424859D01*
X175823196Y-80424859D01*
G37*
X175823196Y-80424859D02*
X176620374Y-80642942D01*
X177366337Y-80998749D01*
X178037496Y-81481026D01*
X178612649Y-82074537D01*
X179073606Y-82760514D01*
X179405806Y-83517286D01*
X179599387Y-84323608D01*
X179650001Y-85012846D01*
X179650000Y-124984417D01*
X179575141Y-125823197D01*
X179357058Y-126620374D01*
X179001251Y-127366337D01*
X178518976Y-128037494D01*
X177925463Y-128612649D01*
X177239486Y-129073606D01*
X176482719Y-129405804D01*
X175676392Y-129599387D01*
X174987167Y-129650000D01*
X135015583Y-129650000D01*
X134176803Y-129575141D01*
X133379626Y-129357058D01*
X132633663Y-129001251D01*
X131962506Y-128518976D01*
X131828466Y-128380657D01*
X136400000Y-128380657D01*
X136400000Y-128619351D01*
X136491344Y-128839877D01*
X136660127Y-129008660D01*
X136880653Y-129100004D01*
X137119347Y-129100004D01*
X137339873Y-129008660D01*
X137508656Y-128839877D01*
X137600000Y-128619351D01*
X137600000Y-128380657D01*
X137599999Y-128380653D01*
X159600000Y-128380653D01*
X159600000Y-128619347D01*
X159691344Y-128839873D01*
X159860127Y-129008656D01*
X160080653Y-129100000D01*
X160319347Y-129100000D01*
X160539873Y-129008656D01*
X160708656Y-128839873D01*
X160800000Y-128619347D01*
X160800000Y-128380653D01*
X160708656Y-128160127D01*
X160539873Y-127991344D01*
X160319347Y-127900000D01*
X160080653Y-127900000D01*
X159860127Y-127991344D01*
X159691344Y-128160127D01*
X159600000Y-128380653D01*
X137599999Y-128380653D01*
X137508656Y-128160131D01*
X137339873Y-127991348D01*
X137119347Y-127900004D01*
X136880653Y-127900004D01*
X136660127Y-127991348D01*
X136491344Y-128160131D01*
X136400000Y-128380657D01*
X131828466Y-128380657D01*
X131387351Y-127925463D01*
X130926394Y-127239486D01*
X130594196Y-126482719D01*
X130411449Y-125721523D01*
X132600000Y-125721523D01*
X132600000Y-126278477D01*
X132813137Y-126793037D01*
X133206963Y-127186863D01*
X133721523Y-127400000D01*
X134278477Y-127400000D01*
X134793037Y-127186863D01*
X135186863Y-126793037D01*
X135400000Y-126278477D01*
X135400000Y-125721523D01*
X135186863Y-125206963D01*
X134793037Y-124813137D01*
X134278477Y-124600000D01*
X133721523Y-124600000D01*
X133206963Y-124813137D01*
X132813137Y-125206963D01*
X132600000Y-125721523D01*
X130411449Y-125721523D01*
X130400613Y-125676392D01*
X130350000Y-124987167D01*
X130350000Y-122112500D01*
X130800000Y-122112500D01*
X130800000Y-122919620D01*
X130853285Y-123048259D01*
X130951741Y-123146716D01*
X131080381Y-123200000D01*
X131887500Y-123200000D01*
X131975000Y-123112500D01*
X131975000Y-122025000D01*
X132025000Y-122025000D01*
X132025000Y-123112500D01*
X132112500Y-123200000D01*
X132919619Y-123200000D01*
X133048259Y-123146716D01*
X133146715Y-123048259D01*
X133200000Y-122919620D01*
X133200000Y-122112500D01*
X133112500Y-122025000D01*
X132025000Y-122025000D01*
X131975000Y-122025000D01*
X130887500Y-122025000D01*
X130800000Y-122112500D01*
X130350000Y-122112500D01*
X130350000Y-121080380D01*
X130800000Y-121080380D01*
X130800000Y-121887500D01*
X130887500Y-121975000D01*
X131975000Y-121975000D01*
X131975000Y-120887500D01*
X132025000Y-120887500D01*
X132025000Y-121975000D01*
X133112500Y-121975000D01*
X133200000Y-121887500D01*
X133200000Y-121080380D01*
X133146715Y-120951741D01*
X133048259Y-120853284D01*
X132919619Y-120800000D01*
X132112500Y-120800000D01*
X132025000Y-120887500D01*
X131975000Y-120887500D01*
X131887500Y-120800000D01*
X131080381Y-120800000D01*
X130951741Y-120853284D01*
X130853285Y-120951741D01*
X130800000Y-121080380D01*
X130350000Y-121080380D01*
X130350000Y-109300000D01*
X130827471Y-109300000D01*
X130916724Y-109748707D01*
X131170897Y-110129103D01*
X131551293Y-110383276D01*
X131886739Y-110450000D01*
X132113261Y-110450000D01*
X132448707Y-110383276D01*
X132829103Y-110129103D01*
X133083276Y-109748707D01*
X133172529Y-109300000D01*
X133083276Y-108851293D01*
X132829103Y-108470897D01*
X132448707Y-108216724D01*
X132113261Y-108150000D01*
X131886739Y-108150000D01*
X131551293Y-108216724D01*
X131170897Y-108470897D01*
X130916724Y-108851293D01*
X130827471Y-109300000D01*
X130350000Y-109300000D01*
X130350000Y-105648419D01*
X130354629Y-105655347D01*
X130385939Y-105676268D01*
X130958477Y-106248806D01*
X130916724Y-106311293D01*
X130827471Y-106760000D01*
X130916724Y-107208707D01*
X131170897Y-107589103D01*
X131551293Y-107843276D01*
X131886739Y-107910000D01*
X132113261Y-107910000D01*
X132448707Y-107843276D01*
X132829103Y-107589103D01*
X133083276Y-107208707D01*
X133172529Y-106760000D01*
X133083276Y-106311293D01*
X132829103Y-105930897D01*
X132448707Y-105676724D01*
X132113261Y-105610000D01*
X131886739Y-105610000D01*
X131551293Y-105676724D01*
X131488806Y-105718477D01*
X130999988Y-105229659D01*
X130999988Y-104793320D01*
X131170897Y-105049103D01*
X131551293Y-105303276D01*
X131886739Y-105370000D01*
X132113261Y-105370000D01*
X132448707Y-105303276D01*
X132781885Y-105080653D01*
X133000000Y-105080653D01*
X133000000Y-105319347D01*
X133091344Y-105539873D01*
X133260127Y-105708656D01*
X133480653Y-105800000D01*
X133719347Y-105800000D01*
X133939873Y-105708656D01*
X134108656Y-105539873D01*
X134200000Y-105319347D01*
X134200000Y-105080653D01*
X134108656Y-104860127D01*
X133939873Y-104691344D01*
X133719347Y-104600000D01*
X133480653Y-104600000D01*
X133260127Y-104691344D01*
X133091344Y-104860127D01*
X133000000Y-105080653D01*
X132781885Y-105080653D01*
X132829103Y-105049103D01*
X133083276Y-104668707D01*
X133172529Y-104220000D01*
X133083276Y-103771293D01*
X133041523Y-103708806D01*
X134239042Y-102511288D01*
X134270348Y-102490370D01*
X134293560Y-102455632D01*
X134347436Y-102375000D01*
X134353231Y-102366328D01*
X134374989Y-102256942D01*
X134374989Y-102256937D01*
X134382334Y-102220011D01*
X134374989Y-102183085D01*
X134374989Y-95714812D01*
X134580653Y-95800000D01*
X134819347Y-95800000D01*
X135039873Y-95708656D01*
X135208656Y-95539873D01*
X135300000Y-95319347D01*
X135300000Y-95080653D01*
X135208656Y-94860127D01*
X135071937Y-94723408D01*
X135053242Y-94629419D01*
X135043465Y-94614786D01*
X134991278Y-94536684D01*
X134970359Y-94505377D01*
X134939053Y-94484459D01*
X134675000Y-94220407D01*
X134675000Y-92652442D01*
X136931660Y-90395782D01*
X136991344Y-90539873D01*
X137160127Y-90708656D01*
X137380653Y-90800000D01*
X137569671Y-90800000D01*
X140000000Y-93230330D01*
X140000001Y-99027822D01*
X137675000Y-96702822D01*
X137675000Y-96473529D01*
X137808656Y-96339873D01*
X137900000Y-96119347D01*
X137900000Y-95880653D01*
X137808656Y-95660127D01*
X137639873Y-95491344D01*
X137509674Y-95437414D01*
X137600000Y-95219347D01*
X137600000Y-94980653D01*
X137508656Y-94760127D01*
X137339873Y-94591344D01*
X137245029Y-94552059D01*
X137300000Y-94419347D01*
X137300000Y-94180653D01*
X137208656Y-93960127D01*
X137039873Y-93791344D01*
X136819347Y-93700000D01*
X136580653Y-93700000D01*
X136360127Y-93791344D01*
X136191344Y-93960127D01*
X136100000Y-94180653D01*
X136100000Y-94419347D01*
X136191344Y-94639873D01*
X136360127Y-94808656D01*
X136454971Y-94847941D01*
X136400000Y-94980653D01*
X136400000Y-95174002D01*
X136346760Y-95253681D01*
X136317656Y-95399999D01*
X136325002Y-95436930D01*
X136325001Y-96645504D01*
X136317656Y-96682431D01*
X136325001Y-96719357D01*
X136325001Y-96719361D01*
X136346759Y-96828747D01*
X136346760Y-96828748D01*
X136346760Y-96828749D01*
X136394325Y-96899934D01*
X136429642Y-96952790D01*
X136460952Y-96973711D01*
X137712238Y-98224998D01*
X135798539Y-98224998D01*
X135664883Y-98091342D01*
X135444357Y-97999998D01*
X135205663Y-97999998D01*
X134985137Y-98091342D01*
X134816354Y-98260125D01*
X134725010Y-98480651D01*
X134725010Y-98719345D01*
X134816354Y-98939871D01*
X134985137Y-99108654D01*
X135205663Y-99199998D01*
X135444357Y-99199998D01*
X135664883Y-99108654D01*
X135798539Y-98974998D01*
X137660233Y-98974998D01*
X138649968Y-99964734D01*
X138649968Y-100153751D01*
X138741312Y-100374277D01*
X138793073Y-100426038D01*
X138759555Y-100459555D01*
X138718151Y-100359597D01*
X138549368Y-100190814D01*
X138328842Y-100099470D01*
X138090148Y-100099470D01*
X137869622Y-100190814D01*
X137700839Y-100359597D01*
X137609495Y-100580123D01*
X137609495Y-100818817D01*
X137700839Y-101039343D01*
X137869622Y-101208126D01*
X137969581Y-101249530D01*
X137210907Y-102008204D01*
X137179597Y-102029125D01*
X137158677Y-102060434D01*
X137100996Y-102146760D01*
X137096714Y-102153168D01*
X137074956Y-102262554D01*
X137074956Y-102262558D01*
X137067611Y-102299484D01*
X137074956Y-102336410D01*
X137074957Y-106828337D01*
X137067611Y-106865268D01*
X137096715Y-107011586D01*
X137158677Y-107104318D01*
X137158679Y-107104320D01*
X137179598Y-107135627D01*
X137210905Y-107156546D01*
X138742344Y-108687986D01*
X138742344Y-108877003D01*
X138833688Y-109097529D01*
X139002471Y-109266312D01*
X139222997Y-109357656D01*
X139461691Y-109357656D01*
X139499967Y-109341802D01*
X139499967Y-109345425D01*
X137380393Y-111465000D01*
X133097937Y-111465000D01*
X133083276Y-111391293D01*
X132829103Y-111010897D01*
X132448707Y-110756724D01*
X132113261Y-110690000D01*
X131886739Y-110690000D01*
X131551293Y-110756724D01*
X131170897Y-111010897D01*
X130916724Y-111391293D01*
X130827471Y-111840000D01*
X130916724Y-112288707D01*
X131170897Y-112669103D01*
X131551293Y-112923276D01*
X131886739Y-112990000D01*
X132113261Y-112990000D01*
X132448707Y-112923276D01*
X132829103Y-112669103D01*
X133083276Y-112288707D01*
X133097937Y-112215000D01*
X137054672Y-112215000D01*
X135264672Y-114005000D01*
X133097937Y-114005000D01*
X133083276Y-113931293D01*
X132829103Y-113550897D01*
X132448707Y-113296724D01*
X132113261Y-113230000D01*
X131886739Y-113230000D01*
X131551293Y-113296724D01*
X131170897Y-113550897D01*
X130916724Y-113931293D01*
X130827471Y-114380000D01*
X130916724Y-114828707D01*
X131170897Y-115209103D01*
X131551293Y-115463276D01*
X131886739Y-115530000D01*
X132113261Y-115530000D01*
X132448707Y-115463276D01*
X132829103Y-115209103D01*
X133083276Y-114828707D01*
X133097937Y-114755000D01*
X135038950Y-114755000D01*
X133248950Y-116545000D01*
X133097937Y-116545000D01*
X133083276Y-116471293D01*
X132829103Y-116090897D01*
X132448707Y-115836724D01*
X132113261Y-115770000D01*
X131886739Y-115770000D01*
X131551293Y-115836724D01*
X131170897Y-116090897D01*
X130916724Y-116471293D01*
X130827471Y-116920000D01*
X130916724Y-117368707D01*
X131170897Y-117749103D01*
X131551293Y-118003276D01*
X131886739Y-118070000D01*
X132113261Y-118070000D01*
X132448707Y-118003276D01*
X132475000Y-117985708D01*
X132474999Y-118394292D01*
X132448707Y-118376724D01*
X132113261Y-118310000D01*
X131886739Y-118310000D01*
X131551293Y-118376724D01*
X131170897Y-118630897D01*
X130916724Y-119011293D01*
X130827471Y-119460000D01*
X130916724Y-119908707D01*
X131170897Y-120289103D01*
X131551293Y-120543276D01*
X131886739Y-120610000D01*
X132113261Y-120610000D01*
X132448707Y-120543276D01*
X132829103Y-120289103D01*
X133083276Y-119908707D01*
X133172529Y-119460000D01*
X133083276Y-119011293D01*
X133041524Y-118948806D01*
X133089052Y-118901278D01*
X133120358Y-118880360D01*
X133154608Y-118829103D01*
X133203240Y-118756320D01*
X133203240Y-118756319D01*
X133203241Y-118756318D01*
X133224999Y-118646932D01*
X133224999Y-118646928D01*
X133232344Y-118610002D01*
X133224999Y-118573076D01*
X133224999Y-118054609D01*
X134129608Y-117150000D01*
X135344123Y-117150000D01*
X135344123Y-118850000D01*
X135367407Y-118967054D01*
X135433712Y-119066288D01*
X135532946Y-119132593D01*
X135650000Y-119155877D01*
X137350000Y-119155877D01*
X137467054Y-119132593D01*
X137566288Y-119066288D01*
X137632593Y-118967054D01*
X137655877Y-118850000D01*
X137655877Y-117150000D01*
X137632593Y-117032946D01*
X137566288Y-116933712D01*
X137467054Y-116867407D01*
X137350000Y-116844123D01*
X135650000Y-116844123D01*
X135532946Y-116867407D01*
X135433712Y-116933712D01*
X135367407Y-117032946D01*
X135344123Y-117150000D01*
X134129608Y-117150000D01*
X136398955Y-114880653D01*
X136600000Y-114880653D01*
X136600000Y-115119347D01*
X136691344Y-115339873D01*
X136860127Y-115508656D01*
X137080653Y-115600000D01*
X137319347Y-115600000D01*
X137539873Y-115508656D01*
X137708656Y-115339873D01*
X137800000Y-115119347D01*
X137800000Y-114880653D01*
X137708656Y-114660127D01*
X137539873Y-114491344D01*
X137319347Y-114400000D01*
X137080653Y-114400000D01*
X136860127Y-114491344D01*
X136691344Y-114660127D01*
X136600000Y-114880653D01*
X136398955Y-114880653D01*
X140698955Y-110580653D01*
X148200008Y-110580653D01*
X148200008Y-110819347D01*
X148291352Y-111039873D01*
X148460135Y-111208656D01*
X148680661Y-111300000D01*
X148919355Y-111300000D01*
X149139881Y-111208656D01*
X149308664Y-111039873D01*
X149400008Y-110819347D01*
X149400008Y-110580653D01*
X149700000Y-110580653D01*
X149700000Y-110819347D01*
X149791344Y-111039873D01*
X149960127Y-111208656D01*
X150180653Y-111300000D01*
X150419347Y-111300000D01*
X150639873Y-111208656D01*
X150808656Y-111039873D01*
X150900000Y-110819347D01*
X150900000Y-110580653D01*
X150808656Y-110360127D01*
X150639873Y-110191344D01*
X150419347Y-110100000D01*
X150180653Y-110100000D01*
X149960127Y-110191344D01*
X149791344Y-110360127D01*
X149700000Y-110580653D01*
X149400008Y-110580653D01*
X149308664Y-110360127D01*
X149139881Y-110191344D01*
X148919355Y-110100000D01*
X148680661Y-110100000D01*
X148460135Y-110191344D01*
X148291352Y-110360127D01*
X148200008Y-110580653D01*
X140698955Y-110580653D01*
X141014053Y-110265556D01*
X141045359Y-110244638D01*
X141075186Y-110200000D01*
X141102437Y-110159215D01*
X141128242Y-110120596D01*
X141150000Y-110011210D01*
X141150000Y-110011205D01*
X141157345Y-109974279D01*
X141150000Y-109937353D01*
X141150000Y-109475882D01*
X153995229Y-109475882D01*
X153995229Y-109714576D01*
X154086573Y-109935102D01*
X154255356Y-110103885D01*
X154475882Y-110195229D01*
X154714576Y-110195229D01*
X154935102Y-110103885D01*
X155103885Y-109935102D01*
X155195229Y-109714576D01*
X155195229Y-109475882D01*
X155103885Y-109255356D01*
X154935102Y-109086573D01*
X154714576Y-108995229D01*
X154475882Y-108995229D01*
X154255356Y-109086573D01*
X154086573Y-109255356D01*
X153995229Y-109475882D01*
X141150000Y-109475882D01*
X141150000Y-108211926D01*
X141157345Y-108175000D01*
X141150000Y-108138074D01*
X141150000Y-108138069D01*
X141128242Y-108028683D01*
X141045359Y-107904641D01*
X141014052Y-107883722D01*
X139025000Y-105894671D01*
X139025000Y-104180328D01*
X139430329Y-103775000D01*
X140700000Y-103775000D01*
X140700000Y-106800000D01*
X140722836Y-106914805D01*
X140787868Y-107012132D01*
X140885195Y-107077164D01*
X141000000Y-107100000D01*
X141474821Y-107100000D01*
X141491332Y-107139861D01*
X141660115Y-107308644D01*
X141880641Y-107399988D01*
X142119335Y-107399988D01*
X142339861Y-107308644D01*
X142508644Y-107139861D01*
X142525155Y-107100000D01*
X143937697Y-107100000D01*
X143925000Y-107130653D01*
X143925000Y-107369347D01*
X144016344Y-107589873D01*
X144185127Y-107758656D01*
X144405653Y-107850000D01*
X144644347Y-107850000D01*
X144864873Y-107758656D01*
X145033656Y-107589873D01*
X145125000Y-107369347D01*
X145125000Y-107130653D01*
X145112303Y-107100000D01*
X148000000Y-107100000D01*
X148114805Y-107077164D01*
X148212132Y-107012132D01*
X148277164Y-106914805D01*
X148300000Y-106800000D01*
X148300000Y-106630653D01*
X149500002Y-106630653D01*
X149500002Y-106869347D01*
X149591346Y-107089873D01*
X149601477Y-107100004D01*
X149591354Y-107110127D01*
X149500010Y-107330653D01*
X149500010Y-107569347D01*
X149591354Y-107789873D01*
X149760137Y-107958656D01*
X149980663Y-108050000D01*
X150219357Y-108050000D01*
X150439883Y-107958656D01*
X150608666Y-107789873D01*
X150700010Y-107569347D01*
X150700010Y-107330653D01*
X150608666Y-107110127D01*
X150598535Y-107099996D01*
X150608658Y-107089873D01*
X150700002Y-106869347D01*
X150700002Y-106630653D01*
X150608658Y-106410127D01*
X150439875Y-106241344D01*
X150219349Y-106150000D01*
X149980655Y-106150000D01*
X149760129Y-106241344D01*
X149591346Y-106410127D01*
X149500002Y-106630653D01*
X148300000Y-106630653D01*
X148300000Y-105380653D01*
X152000000Y-105380653D01*
X152000000Y-105619347D01*
X152091344Y-105839873D01*
X152260127Y-106008656D01*
X152480653Y-106100000D01*
X152719347Y-106100000D01*
X152939873Y-106008656D01*
X153108656Y-105839873D01*
X153200000Y-105619347D01*
X153200000Y-105380653D01*
X153108656Y-105160127D01*
X152939873Y-104991344D01*
X152719347Y-104900000D01*
X152480653Y-104900000D01*
X152260127Y-104991344D01*
X152091344Y-105160127D01*
X152000000Y-105380653D01*
X148300000Y-105380653D01*
X148300000Y-103200000D01*
X148277164Y-103085195D01*
X148212132Y-102987868D01*
X148114805Y-102922836D01*
X148000000Y-102900000D01*
X145980329Y-102900000D01*
X145999676Y-102880653D01*
X149650000Y-102880653D01*
X149650000Y-103119347D01*
X149741344Y-103339873D01*
X149910127Y-103508656D01*
X150130653Y-103600000D01*
X150369347Y-103600000D01*
X150589873Y-103508656D01*
X150758656Y-103339873D01*
X150850000Y-103119347D01*
X150850000Y-102880653D01*
X150758656Y-102660127D01*
X150598529Y-102500000D01*
X150758679Y-102339850D01*
X150850023Y-102119324D01*
X150850023Y-102081620D01*
X159399999Y-102081620D01*
X159399999Y-102320314D01*
X159491343Y-102540840D01*
X159660126Y-102709623D01*
X159880652Y-102800967D01*
X160119346Y-102800967D01*
X160339872Y-102709623D01*
X160508655Y-102540840D01*
X160599999Y-102320314D01*
X160599999Y-102081620D01*
X160508655Y-101861094D01*
X160339872Y-101692311D01*
X160119346Y-101600967D01*
X159880652Y-101600967D01*
X159660126Y-101692311D01*
X159491343Y-101861094D01*
X159399999Y-102081620D01*
X150850023Y-102081620D01*
X150850023Y-101880630D01*
X150758679Y-101660104D01*
X150589896Y-101491321D01*
X150369370Y-101399977D01*
X150130676Y-101399977D01*
X149910150Y-101491321D01*
X149741367Y-101660104D01*
X149650023Y-101880630D01*
X149650023Y-102119324D01*
X149741367Y-102339850D01*
X149901494Y-102499977D01*
X149741344Y-102660127D01*
X149650000Y-102880653D01*
X145999676Y-102880653D01*
X147599676Y-101280653D01*
X155600000Y-101280653D01*
X155600000Y-101519347D01*
X155691344Y-101739873D01*
X155860127Y-101908656D01*
X156080653Y-102000000D01*
X156319347Y-102000000D01*
X156539873Y-101908656D01*
X156708656Y-101739873D01*
X156800000Y-101519347D01*
X156800000Y-101280653D01*
X156708656Y-101060127D01*
X156539873Y-100891344D01*
X156319347Y-100800000D01*
X156080653Y-100800000D01*
X155860127Y-100891344D01*
X155691344Y-101060127D01*
X155600000Y-101280653D01*
X147599676Y-101280653D01*
X148996734Y-99883596D01*
X153474990Y-99883596D01*
X153474990Y-100122290D01*
X153566334Y-100342816D01*
X153735117Y-100511599D01*
X153955643Y-100602943D01*
X154194337Y-100602943D01*
X154414863Y-100511599D01*
X154583646Y-100342816D01*
X154674990Y-100122290D01*
X154674990Y-99883596D01*
X154583646Y-99663070D01*
X154414863Y-99494287D01*
X154194337Y-99402943D01*
X153955643Y-99402943D01*
X153735117Y-99494287D01*
X153566334Y-99663070D01*
X153474990Y-99883596D01*
X148996734Y-99883596D01*
X149130331Y-99750000D01*
X149356112Y-99750000D01*
X149393038Y-99757345D01*
X149429964Y-99750000D01*
X149429969Y-99750000D01*
X149539355Y-99728242D01*
X149663397Y-99645359D01*
X149684317Y-99614050D01*
X150423325Y-98875043D01*
X150612342Y-98875043D01*
X150832868Y-98783699D01*
X151001651Y-98614916D01*
X151092995Y-98394390D01*
X151092995Y-98155696D01*
X151001651Y-97935170D01*
X150832868Y-97766387D01*
X150612342Y-97675043D01*
X150373648Y-97675043D01*
X150153122Y-97766387D01*
X149984339Y-97935170D01*
X149892995Y-98155696D01*
X149892995Y-98344713D01*
X149658120Y-98579588D01*
X149608656Y-98460171D01*
X149439873Y-98291388D01*
X149219347Y-98200044D01*
X148980653Y-98200044D01*
X148760127Y-98291388D01*
X148591344Y-98460171D01*
X148500000Y-98680697D01*
X148500000Y-98869714D01*
X145001972Y-102367743D01*
X144947033Y-102235106D01*
X144778250Y-102066323D01*
X144557724Y-101974979D01*
X144319030Y-101974979D01*
X144098504Y-102066323D01*
X143929721Y-102235106D01*
X143882131Y-102350000D01*
X141205320Y-102350000D01*
X140605330Y-101750010D01*
X140614052Y-101741288D01*
X140645359Y-101720369D01*
X140675998Y-101674516D01*
X140728241Y-101596329D01*
X140728241Y-101596328D01*
X140728242Y-101596327D01*
X140750000Y-101486941D01*
X140750000Y-101486937D01*
X140757345Y-101450011D01*
X140750000Y-101413084D01*
X140750000Y-97480653D01*
X141000000Y-97480653D01*
X141000000Y-97719347D01*
X141091344Y-97939873D01*
X141260127Y-98108656D01*
X141480653Y-98200000D01*
X141719347Y-98200000D01*
X141939873Y-98108656D01*
X142108656Y-97939873D01*
X142200000Y-97719347D01*
X142200000Y-97480653D01*
X142108656Y-97260127D01*
X141939873Y-97091344D01*
X141719347Y-97000000D01*
X141480653Y-97000000D01*
X141260127Y-97091344D01*
X141091344Y-97260127D01*
X141000000Y-97480653D01*
X140750000Y-97480653D01*
X140750000Y-93111926D01*
X140757345Y-93075000D01*
X140750000Y-93038073D01*
X140750000Y-93038069D01*
X140728242Y-92928683D01*
X140716401Y-92910962D01*
X140666279Y-92835949D01*
X140666278Y-92835948D01*
X140645359Y-92804641D01*
X140614053Y-92783723D01*
X138100000Y-90269671D01*
X138100000Y-90080653D01*
X138094985Y-90068546D01*
X138160127Y-90133688D01*
X138380653Y-90225032D01*
X138619347Y-90225032D01*
X138839873Y-90133688D01*
X139008656Y-89964905D01*
X139100000Y-89744379D01*
X139100000Y-89505685D01*
X139087299Y-89475022D01*
X142543412Y-89475022D01*
X143007440Y-89939051D01*
X143028359Y-89970358D01*
X143059666Y-89991277D01*
X143059667Y-89991278D01*
X143113782Y-90027436D01*
X143152401Y-90053241D01*
X143261787Y-90074999D01*
X143261792Y-90074999D01*
X143298718Y-90082344D01*
X143335644Y-90074999D01*
X144986417Y-90074999D01*
X145084947Y-90173529D01*
X145084947Y-90600019D01*
X145077601Y-90636950D01*
X145106705Y-90783268D01*
X145168667Y-90876000D01*
X145168669Y-90876002D01*
X145189588Y-90907309D01*
X145220894Y-90928228D01*
X146222073Y-91929406D01*
X146191344Y-91960135D01*
X146100000Y-92180661D01*
X146100000Y-92419355D01*
X146191344Y-92639881D01*
X146360127Y-92808664D01*
X146580653Y-92900008D01*
X146819347Y-92900008D01*
X147039873Y-92808664D01*
X147208656Y-92639881D01*
X147300000Y-92419355D01*
X147300000Y-92180661D01*
X147287296Y-92149991D01*
X147772550Y-92149991D01*
X150168075Y-94545517D01*
X149935136Y-94545517D01*
X149714610Y-94636861D01*
X149545827Y-94805644D01*
X149454483Y-95026170D01*
X149454483Y-95264864D01*
X149545827Y-95485390D01*
X149714610Y-95654173D01*
X149935136Y-95745517D01*
X150173830Y-95745517D01*
X150394356Y-95654173D01*
X150563139Y-95485390D01*
X150654483Y-95264864D01*
X150654483Y-95031926D01*
X150899955Y-95277398D01*
X150899956Y-96412142D01*
X150892610Y-96449073D01*
X150921714Y-96595391D01*
X150983676Y-96688123D01*
X150983678Y-96688125D01*
X151004597Y-96719432D01*
X151035904Y-96740351D01*
X153409649Y-99114097D01*
X153430568Y-99145404D01*
X153461875Y-99166323D01*
X153461876Y-99166324D01*
X153479825Y-99178317D01*
X153554610Y-99228287D01*
X153663996Y-99250045D01*
X153664001Y-99250045D01*
X153700927Y-99257390D01*
X153737853Y-99250045D01*
X159993682Y-99250045D01*
X162657204Y-101913568D01*
X162664789Y-101924920D01*
X162600483Y-102080170D01*
X162600483Y-102318864D01*
X162691827Y-102539390D01*
X162860610Y-102708173D01*
X163081136Y-102799517D01*
X163270153Y-102799517D01*
X163467569Y-102996934D01*
X163454588Y-103005608D01*
X163433669Y-103036915D01*
X163270127Y-103200457D01*
X163081110Y-103200457D01*
X162860584Y-103291801D01*
X162799973Y-103352412D01*
X162739872Y-103292311D01*
X162519346Y-103200967D01*
X162280652Y-103200967D01*
X162060126Y-103292311D01*
X161891343Y-103461094D01*
X161799999Y-103681620D01*
X161799999Y-103920314D01*
X161891343Y-104140840D01*
X162060126Y-104309623D01*
X162280652Y-104400967D01*
X162519346Y-104400967D01*
X162739872Y-104309623D01*
X162800483Y-104249012D01*
X162860584Y-104309113D01*
X163081110Y-104400457D01*
X163319804Y-104400457D01*
X163457191Y-104343550D01*
X163400001Y-104481621D01*
X163400001Y-104720315D01*
X163491345Y-104940841D01*
X163551464Y-105000960D01*
X163491341Y-105061083D01*
X163399997Y-105281609D01*
X163399997Y-105520303D01*
X163491341Y-105740829D01*
X163660124Y-105909612D01*
X163880650Y-106000956D01*
X164119344Y-106000956D01*
X164256552Y-105944123D01*
X164200000Y-106080653D01*
X164200000Y-106319347D01*
X164257513Y-106458198D01*
X164119347Y-106400968D01*
X163880653Y-106400968D01*
X163660127Y-106492312D01*
X163600969Y-106551471D01*
X163540841Y-106491343D01*
X163320315Y-106399999D01*
X163081621Y-106399999D01*
X162861095Y-106491343D01*
X162800484Y-106551955D01*
X162739873Y-106491344D01*
X162519347Y-106400000D01*
X162280653Y-106400000D01*
X162060127Y-106491344D01*
X161999517Y-106551955D01*
X161939873Y-106492311D01*
X161719347Y-106400967D01*
X161480653Y-106400967D01*
X161342487Y-106458197D01*
X161400000Y-106319347D01*
X161400000Y-106080653D01*
X161308656Y-105860127D01*
X161249013Y-105800484D01*
X161308656Y-105740840D01*
X161400000Y-105520314D01*
X161400000Y-105281620D01*
X161308656Y-105061094D01*
X161139873Y-104892311D01*
X160919347Y-104800967D01*
X160680653Y-104800967D01*
X160460127Y-104892311D01*
X160291344Y-105061094D01*
X160200000Y-105281620D01*
X160200000Y-105520314D01*
X160291344Y-105740840D01*
X160350988Y-105800484D01*
X160326471Y-105825000D01*
X160086925Y-105825000D01*
X160049999Y-105817655D01*
X160013073Y-105825000D01*
X160013069Y-105825000D01*
X159903683Y-105846758D01*
X159903682Y-105846759D01*
X159903681Y-105846759D01*
X159810948Y-105908721D01*
X159810945Y-105908724D01*
X159779641Y-105929641D01*
X159758724Y-105960945D01*
X157274989Y-108444682D01*
X157274989Y-103805362D01*
X157398730Y-103681621D01*
X160200000Y-103681621D01*
X160200000Y-103920315D01*
X160291344Y-104140841D01*
X160460127Y-104309624D01*
X160680653Y-104400968D01*
X160919347Y-104400968D01*
X161139873Y-104309624D01*
X161308656Y-104140841D01*
X161400000Y-103920315D01*
X161400000Y-103681621D01*
X161308656Y-103461095D01*
X161139873Y-103292312D01*
X160919347Y-103200968D01*
X160680653Y-103200968D01*
X160460127Y-103292312D01*
X160291344Y-103461095D01*
X160200000Y-103681621D01*
X157398730Y-103681621D01*
X157480352Y-103600000D01*
X157669369Y-103600000D01*
X157889895Y-103508656D01*
X158058678Y-103339873D01*
X158150022Y-103119347D01*
X158150022Y-102880653D01*
X158058678Y-102660127D01*
X157889895Y-102491344D01*
X157669369Y-102400000D01*
X157430675Y-102400000D01*
X157210149Y-102491344D01*
X157041366Y-102660127D01*
X156950022Y-102880653D01*
X156950022Y-103069670D01*
X156660937Y-103358756D01*
X156629631Y-103379674D01*
X156608712Y-103410981D01*
X156608710Y-103410983D01*
X156546748Y-103503715D01*
X156517644Y-103650033D01*
X156524990Y-103686964D01*
X156524990Y-104112701D01*
X156494326Y-104100000D01*
X156255632Y-104100000D01*
X156035106Y-104191344D01*
X155866323Y-104360127D01*
X155774979Y-104580653D01*
X155774979Y-104819347D01*
X155866323Y-105039873D01*
X156003042Y-105176592D01*
X156021737Y-105270580D01*
X156021738Y-105270581D01*
X156021738Y-105270582D01*
X156049635Y-105312332D01*
X156104620Y-105394623D01*
X156135930Y-105415544D01*
X156224979Y-105504593D01*
X156224979Y-105569019D01*
X156194315Y-105556318D01*
X155955621Y-105556318D01*
X155735095Y-105647662D01*
X155566312Y-105816445D01*
X155474968Y-106036971D01*
X155474968Y-106275665D01*
X155566312Y-106496191D01*
X155735095Y-106664974D01*
X155955621Y-106756318D01*
X156194315Y-106756318D01*
X156224979Y-106743617D01*
X156224978Y-115996135D01*
X152996106Y-119225009D01*
X147184924Y-119225009D01*
X147147998Y-119217664D01*
X147111072Y-119225009D01*
X147111068Y-119225009D01*
X147001682Y-119246767D01*
X147001681Y-119246768D01*
X147001680Y-119246768D01*
X146908947Y-119308730D01*
X146908944Y-119308733D01*
X146877640Y-119329650D01*
X146856723Y-119360954D01*
X145674999Y-120542679D01*
X145674999Y-118595786D01*
X145830897Y-118829103D01*
X146211293Y-119083276D01*
X146546739Y-119150000D01*
X146773261Y-119150000D01*
X147108707Y-119083276D01*
X147489103Y-118829103D01*
X147743276Y-118448707D01*
X147790285Y-118212373D01*
X148018940Y-118212373D01*
X148190114Y-118648179D01*
X148515034Y-118985306D01*
X148944234Y-119172429D01*
X148987627Y-119181058D01*
X149175000Y-119112219D01*
X149175000Y-118025000D01*
X149225000Y-118025000D01*
X149225000Y-119112219D01*
X149412373Y-119181058D01*
X149455766Y-119172429D01*
X149884966Y-118985306D01*
X150209886Y-118648179D01*
X150381060Y-118212373D01*
X150312242Y-118025000D01*
X149225000Y-118025000D01*
X149175000Y-118025000D01*
X148087758Y-118025000D01*
X148018940Y-118212373D01*
X147790285Y-118212373D01*
X147832529Y-118000000D01*
X147790286Y-117787627D01*
X148018940Y-117787627D01*
X148087758Y-117975000D01*
X149175000Y-117975000D01*
X149175000Y-116887781D01*
X149225000Y-116887781D01*
X149225000Y-117975000D01*
X150312242Y-117975000D01*
X150381060Y-117787627D01*
X150209886Y-117351821D01*
X149884966Y-117014694D01*
X149455766Y-116827571D01*
X149412373Y-116818942D01*
X149225000Y-116887781D01*
X149175000Y-116887781D01*
X148987627Y-116818942D01*
X148944234Y-116827571D01*
X148515034Y-117014694D01*
X148190114Y-117351821D01*
X148018940Y-117787627D01*
X147790286Y-117787627D01*
X147743276Y-117551293D01*
X147489103Y-117170897D01*
X147108707Y-116916724D01*
X146773261Y-116850000D01*
X146546739Y-116850000D01*
X146211293Y-116916724D01*
X145830897Y-117170897D01*
X145674999Y-117404214D01*
X145674999Y-115336925D01*
X145682344Y-115299999D01*
X145674999Y-115263073D01*
X145674999Y-115263068D01*
X145653241Y-115153682D01*
X145600000Y-115074002D01*
X145600000Y-114880653D01*
X145508656Y-114660127D01*
X145339873Y-114491344D01*
X145119347Y-114400000D01*
X144880653Y-114400000D01*
X144660127Y-114491344D01*
X144491344Y-114660127D01*
X144400000Y-114880653D01*
X144400000Y-115119347D01*
X144491344Y-115339873D01*
X144660127Y-115508656D01*
X144880653Y-115600000D01*
X144925000Y-115600000D01*
X144925000Y-117154792D01*
X144568707Y-116916724D01*
X144495000Y-116902063D01*
X144495000Y-116583053D01*
X144502345Y-116546127D01*
X144495000Y-116509200D01*
X144495000Y-116509196D01*
X144473242Y-116399810D01*
X144470916Y-116396328D01*
X144411279Y-116307077D01*
X144390359Y-116275768D01*
X144359049Y-116254847D01*
X144223885Y-116119683D01*
X144223885Y-115930665D01*
X144132541Y-115710139D01*
X143963758Y-115541356D01*
X143782325Y-115466204D01*
X143908656Y-115339873D01*
X144000000Y-115119347D01*
X144000000Y-114880653D01*
X143908656Y-114660127D01*
X143739873Y-114491344D01*
X143519347Y-114400000D01*
X143349186Y-114400000D01*
X143284609Y-114244095D01*
X143115826Y-114075312D01*
X142895300Y-113983968D01*
X142656606Y-113983968D01*
X142436080Y-114075312D01*
X142267297Y-114244095D01*
X142175953Y-114464621D01*
X142175953Y-114653638D01*
X139960949Y-116868643D01*
X139929642Y-116889562D01*
X139908723Y-116920869D01*
X139908721Y-116920871D01*
X139846759Y-117013603D01*
X139821764Y-117139266D01*
X139488707Y-116916724D01*
X139153261Y-116850000D01*
X138926739Y-116850000D01*
X138591293Y-116916724D01*
X138210897Y-117170897D01*
X137956724Y-117551293D01*
X137867471Y-118000000D01*
X137956724Y-118448707D01*
X138210897Y-118829103D01*
X138591293Y-119083276D01*
X138926739Y-119150000D01*
X139153261Y-119150000D01*
X139488707Y-119083276D01*
X139825001Y-118858571D01*
X139825000Y-120684670D01*
X139551194Y-120958476D01*
X139488707Y-120916724D01*
X139153261Y-120850000D01*
X138926739Y-120850000D01*
X138591293Y-120916724D01*
X138210897Y-121170897D01*
X137956724Y-121551293D01*
X137894491Y-121864162D01*
X137791279Y-121760950D01*
X137770359Y-121729641D01*
X137655877Y-121653146D01*
X137655877Y-121150000D01*
X137632593Y-121032946D01*
X137566288Y-120933712D01*
X137467054Y-120867407D01*
X137350000Y-120844123D01*
X135650000Y-120844123D01*
X135532946Y-120867407D01*
X135433712Y-120933712D01*
X135367407Y-121032946D01*
X135344123Y-121150000D01*
X135344123Y-122850000D01*
X135367407Y-122967054D01*
X135433712Y-123066288D01*
X135532946Y-123132593D01*
X135650000Y-123155877D01*
X137350000Y-123155877D01*
X137467054Y-123132593D01*
X137566288Y-123066288D01*
X137632593Y-122967054D01*
X137655877Y-122850000D01*
X137655877Y-122686206D01*
X138808722Y-123839052D01*
X138829641Y-123870359D01*
X138860948Y-123891278D01*
X138860949Y-123891279D01*
X138904520Y-123920392D01*
X138953683Y-123953242D01*
X139063069Y-123975000D01*
X139063074Y-123975000D01*
X139100000Y-123982345D01*
X139136926Y-123975000D01*
X144074076Y-123975000D01*
X144111002Y-123982345D01*
X144147928Y-123975000D01*
X144147933Y-123975000D01*
X144257319Y-123953242D01*
X144381361Y-123870359D01*
X144402282Y-123839050D01*
X145434054Y-122807278D01*
X145465360Y-122786360D01*
X145531757Y-122686992D01*
X145548242Y-122662320D01*
X145548242Y-122662319D01*
X145548243Y-122662318D01*
X145570001Y-122552932D01*
X145570001Y-122552928D01*
X145577346Y-122516002D01*
X145570001Y-122479075D01*
X145570001Y-122414908D01*
X145576724Y-122448707D01*
X145830897Y-122829103D01*
X146211293Y-123083276D01*
X146546739Y-123150000D01*
X146773261Y-123150000D01*
X147108707Y-123083276D01*
X147489103Y-122829103D01*
X147743276Y-122448707D01*
X147790285Y-122212373D01*
X148018940Y-122212373D01*
X148190114Y-122648179D01*
X148515034Y-122985306D01*
X148944234Y-123172429D01*
X148987627Y-123181058D01*
X149175000Y-123112219D01*
X149175000Y-122025000D01*
X149225000Y-122025000D01*
X149225000Y-123112219D01*
X149412373Y-123181058D01*
X149455766Y-123172429D01*
X149884966Y-122985306D01*
X150209886Y-122648179D01*
X150381060Y-122212373D01*
X150312242Y-122025000D01*
X149225000Y-122025000D01*
X149175000Y-122025000D01*
X148087758Y-122025000D01*
X148018940Y-122212373D01*
X147790285Y-122212373D01*
X147832529Y-122000000D01*
X147790286Y-121787627D01*
X148018940Y-121787627D01*
X148087758Y-121975000D01*
X149175000Y-121975000D01*
X149175000Y-120887781D01*
X149225000Y-120887781D01*
X149225000Y-121975000D01*
X150312242Y-121975000D01*
X150381060Y-121787627D01*
X150209886Y-121351821D01*
X149884966Y-121014694D01*
X149455766Y-120827571D01*
X149412373Y-120818942D01*
X149225000Y-120887781D01*
X149175000Y-120887781D01*
X148987627Y-120818942D01*
X148944234Y-120827571D01*
X148515034Y-121014694D01*
X148190114Y-121351821D01*
X148018940Y-121787627D01*
X147790286Y-121787627D01*
X147743276Y-121551293D01*
X147701523Y-121488806D01*
X148415330Y-120775000D01*
X153163074Y-120775000D01*
X153200000Y-120782345D01*
X153236926Y-120775000D01*
X153236931Y-120775000D01*
X153346317Y-120753242D01*
X153470359Y-120670359D01*
X153491280Y-120639049D01*
X157589042Y-116541288D01*
X157620348Y-116520370D01*
X157703231Y-116396328D01*
X157724989Y-116286942D01*
X157724989Y-116286937D01*
X157732334Y-116250011D01*
X157724989Y-116213085D01*
X157724989Y-109055340D01*
X158074912Y-108705417D01*
X158074913Y-120994757D01*
X154469671Y-124600000D01*
X154280653Y-124600000D01*
X154060127Y-124691344D01*
X153891344Y-124860127D01*
X153800000Y-125080653D01*
X153800000Y-125319347D01*
X153891344Y-125539873D01*
X154060127Y-125708656D01*
X154280653Y-125800000D01*
X154519347Y-125800000D01*
X154739873Y-125708656D01*
X154800000Y-125648529D01*
X154860127Y-125708656D01*
X155080653Y-125800000D01*
X155319347Y-125800000D01*
X155539873Y-125708656D01*
X155575007Y-125673523D01*
X155610140Y-125708656D01*
X155830666Y-125800000D01*
X156069360Y-125800000D01*
X156289886Y-125708656D01*
X156375010Y-125623533D01*
X156460133Y-125708656D01*
X156680659Y-125800000D01*
X156919353Y-125800000D01*
X157139879Y-125708656D01*
X157200003Y-125648532D01*
X157260127Y-125708656D01*
X157480653Y-125800000D01*
X157719347Y-125800000D01*
X157939873Y-125708656D01*
X158000000Y-125648529D01*
X158060127Y-125708656D01*
X158280653Y-125800000D01*
X158519347Y-125800000D01*
X158739873Y-125708656D01*
X158800000Y-125648529D01*
X158860127Y-125708656D01*
X159080653Y-125800000D01*
X159319347Y-125800000D01*
X159539873Y-125708656D01*
X159600009Y-125648520D01*
X159660127Y-125708638D01*
X159880653Y-125799982D01*
X160119347Y-125799982D01*
X160339873Y-125708638D01*
X160399991Y-125648520D01*
X160460127Y-125708656D01*
X160680653Y-125800000D01*
X160919347Y-125800000D01*
X161139873Y-125708656D01*
X161308656Y-125539873D01*
X161400000Y-125319347D01*
X161400000Y-125080653D01*
X161308656Y-124860127D01*
X161225000Y-124776471D01*
X161225000Y-112181051D01*
X162825000Y-110581051D01*
X162825000Y-111843762D01*
X162719348Y-111800000D01*
X162480654Y-111800000D01*
X162260128Y-111891344D01*
X162091345Y-112060127D01*
X162000001Y-112280653D01*
X162000001Y-112519347D01*
X162091345Y-112739873D01*
X162260128Y-112908656D01*
X162480654Y-113000000D01*
X162719348Y-113000000D01*
X162825000Y-112956238D01*
X162825001Y-124726470D01*
X162691344Y-124860127D01*
X162600000Y-125080653D01*
X162600000Y-125319347D01*
X162691344Y-125539873D01*
X162860127Y-125708656D01*
X163080653Y-125800000D01*
X163319347Y-125800000D01*
X163508809Y-125721523D01*
X174600000Y-125721523D01*
X174600000Y-126278477D01*
X174813137Y-126793037D01*
X175206963Y-127186863D01*
X175721523Y-127400000D01*
X176278477Y-127400000D01*
X176793037Y-127186863D01*
X177186863Y-126793037D01*
X177400000Y-126278477D01*
X177400000Y-125721523D01*
X177186863Y-125206963D01*
X176793037Y-124813137D01*
X176278477Y-124600000D01*
X175721523Y-124600000D01*
X175206963Y-124813137D01*
X174813137Y-125206963D01*
X174600000Y-125721523D01*
X163508809Y-125721523D01*
X163539873Y-125708656D01*
X163708656Y-125539873D01*
X163800000Y-125319347D01*
X163800000Y-125080653D01*
X163708656Y-124860127D01*
X163575000Y-124726471D01*
X163575000Y-110980653D01*
X169700000Y-110980653D01*
X169700000Y-111219347D01*
X169791344Y-111439873D01*
X169960127Y-111608656D01*
X170180653Y-111700000D01*
X170419347Y-111700000D01*
X170639873Y-111608656D01*
X170808656Y-111439873D01*
X170900000Y-111219347D01*
X170900000Y-110980653D01*
X170808656Y-110760127D01*
X170639873Y-110591344D01*
X170419347Y-110500000D01*
X170180653Y-110500000D01*
X169960127Y-110591344D01*
X169791344Y-110760127D01*
X169700000Y-110980653D01*
X163575000Y-110980653D01*
X163575000Y-110280329D01*
X166139052Y-107716278D01*
X166170359Y-107695359D01*
X166195277Y-107658068D01*
X166240843Y-107589873D01*
X166253242Y-107571317D01*
X166275000Y-107461931D01*
X166275000Y-107461926D01*
X166282345Y-107425000D01*
X166275000Y-107388074D01*
X166275000Y-107080653D01*
X170300000Y-107080653D01*
X170300000Y-107319347D01*
X170391344Y-107539873D01*
X170560127Y-107708656D01*
X170780653Y-107800000D01*
X171019347Y-107800000D01*
X171239873Y-107708656D01*
X171408656Y-107539873D01*
X171500000Y-107319347D01*
X171500000Y-107080653D01*
X171408656Y-106860127D01*
X171239873Y-106691344D01*
X171019347Y-106600000D01*
X170780653Y-106600000D01*
X170560127Y-106691344D01*
X170391344Y-106860127D01*
X170300000Y-107080653D01*
X166275000Y-107080653D01*
X166275000Y-105736926D01*
X166282345Y-105700000D01*
X166275000Y-105663073D01*
X166275000Y-105663069D01*
X166253242Y-105553683D01*
X166250781Y-105550000D01*
X166191279Y-105460949D01*
X166191278Y-105460948D01*
X166170359Y-105429641D01*
X166139053Y-105408723D01*
X165869637Y-105139307D01*
X171042270Y-105139307D01*
X171042270Y-105378001D01*
X171133614Y-105598527D01*
X171302397Y-105767310D01*
X171522923Y-105858654D01*
X171761617Y-105858654D01*
X171982143Y-105767310D01*
X172150926Y-105598527D01*
X172242270Y-105378001D01*
X172242270Y-105139307D01*
X172150926Y-104918781D01*
X171982143Y-104749998D01*
X171761617Y-104658654D01*
X171522923Y-104658654D01*
X171302397Y-104749998D01*
X171133614Y-104918781D01*
X171042270Y-105139307D01*
X165869637Y-105139307D01*
X165400000Y-104669671D01*
X165400000Y-104575000D01*
X167663074Y-104575000D01*
X167700000Y-104582345D01*
X167736926Y-104575000D01*
X167736931Y-104575000D01*
X167846317Y-104553242D01*
X167970359Y-104470359D01*
X167991280Y-104439049D01*
X169349676Y-103080653D01*
X174900000Y-103080653D01*
X174900000Y-103319347D01*
X174991344Y-103539873D01*
X175160127Y-103708656D01*
X175380653Y-103800000D01*
X175619347Y-103800000D01*
X175700837Y-103766246D01*
X175694123Y-103800000D01*
X175694123Y-104200000D01*
X175717407Y-104317054D01*
X175772829Y-104400000D01*
X175717407Y-104482946D01*
X175694123Y-104600000D01*
X175694123Y-105000000D01*
X175717407Y-105117054D01*
X175772829Y-105200000D01*
X175717407Y-105282946D01*
X175694123Y-105400000D01*
X175694123Y-105800000D01*
X175717407Y-105917054D01*
X175772829Y-106000000D01*
X175717407Y-106082946D01*
X175694123Y-106200000D01*
X175694123Y-106600000D01*
X175717407Y-106717054D01*
X175772829Y-106800000D01*
X175717407Y-106882946D01*
X175694123Y-107000000D01*
X175694123Y-107400000D01*
X175717407Y-107517054D01*
X175772829Y-107600000D01*
X175717407Y-107682946D01*
X175694123Y-107800000D01*
X175694123Y-108200000D01*
X175717407Y-108317054D01*
X175772829Y-108400000D01*
X175717407Y-108482946D01*
X175694123Y-108600000D01*
X175694123Y-109000000D01*
X175717407Y-109117054D01*
X175772829Y-109200000D01*
X175717407Y-109282946D01*
X175694123Y-109400000D01*
X175694123Y-109800000D01*
X175717407Y-109917054D01*
X175772829Y-110000000D01*
X175717407Y-110082946D01*
X175694123Y-110200000D01*
X175694123Y-110600000D01*
X175717407Y-110717054D01*
X175783712Y-110816288D01*
X175882946Y-110882593D01*
X176000000Y-110905877D01*
X178000000Y-110905877D01*
X178117054Y-110882593D01*
X178216288Y-110816288D01*
X178282593Y-110717054D01*
X178305877Y-110600000D01*
X178305877Y-110200000D01*
X178282593Y-110082946D01*
X178227171Y-110000000D01*
X178282593Y-109917054D01*
X178305877Y-109800000D01*
X178305877Y-109400000D01*
X178282593Y-109282946D01*
X178227171Y-109200000D01*
X178282593Y-109117054D01*
X178305877Y-109000000D01*
X178305877Y-108600000D01*
X178282593Y-108482946D01*
X178227171Y-108400000D01*
X178282593Y-108317054D01*
X178305877Y-108200000D01*
X178305877Y-107800000D01*
X178519347Y-107800000D01*
X178739873Y-107708656D01*
X178908656Y-107539873D01*
X179000000Y-107319347D01*
X179000000Y-107080653D01*
X178908656Y-106860127D01*
X178848529Y-106800000D01*
X178908656Y-106739873D01*
X179000000Y-106519347D01*
X179000000Y-106280653D01*
X178908656Y-106060127D01*
X178848529Y-106000000D01*
X178908656Y-105939873D01*
X179000000Y-105719347D01*
X179000000Y-105480653D01*
X178908656Y-105260127D01*
X178848529Y-105200000D01*
X178908656Y-105139873D01*
X179000000Y-104919347D01*
X179000000Y-104680653D01*
X178908656Y-104460127D01*
X178848529Y-104400000D01*
X178908656Y-104339873D01*
X179000000Y-104119347D01*
X179000000Y-103880653D01*
X178908656Y-103660127D01*
X178739873Y-103491344D01*
X178519347Y-103400000D01*
X178305877Y-103400000D01*
X178305877Y-103000000D01*
X178282593Y-102882946D01*
X178254329Y-102840645D01*
X178296716Y-102798259D01*
X178350000Y-102669619D01*
X178350000Y-102512500D01*
X178262500Y-102425000D01*
X177025000Y-102425000D01*
X177025000Y-102445000D01*
X176975000Y-102445000D01*
X176975000Y-102425000D01*
X175737500Y-102425000D01*
X175650000Y-102512500D01*
X175650000Y-102612697D01*
X175619347Y-102600000D01*
X175380653Y-102600000D01*
X175160127Y-102691344D01*
X174991344Y-102860127D01*
X174900000Y-103080653D01*
X169349676Y-103080653D01*
X169739053Y-102691277D01*
X169770359Y-102670359D01*
X169808971Y-102612573D01*
X169853241Y-102546319D01*
X169853241Y-102546318D01*
X169853242Y-102546317D01*
X169875000Y-102436931D01*
X169875000Y-102436927D01*
X169882345Y-102400001D01*
X169875000Y-102363075D01*
X169875000Y-99155329D01*
X171055330Y-97975000D01*
X175756125Y-97975000D01*
X175772829Y-98000000D01*
X175756125Y-98025000D01*
X174976247Y-98025000D01*
X174939321Y-98017655D01*
X174902395Y-98025000D01*
X174902391Y-98025000D01*
X174793005Y-98046758D01*
X174793004Y-98046759D01*
X174793003Y-98046759D01*
X174758728Y-98069661D01*
X174550314Y-98069661D01*
X174329788Y-98161005D01*
X174161005Y-98329788D01*
X174069661Y-98550314D01*
X174069661Y-98789008D01*
X174161005Y-99009534D01*
X174329788Y-99178317D01*
X174550314Y-99269661D01*
X174789008Y-99269661D01*
X174900000Y-99223687D01*
X174900000Y-99319347D01*
X174991344Y-99539873D01*
X175051471Y-99600000D01*
X174991344Y-99660127D01*
X174900000Y-99880653D01*
X174900000Y-100119347D01*
X174991344Y-100339873D01*
X175051471Y-100400000D01*
X174991344Y-100460127D01*
X174900000Y-100680653D01*
X174900000Y-100919347D01*
X174991344Y-101139873D01*
X175051471Y-101200000D01*
X174991344Y-101260127D01*
X174900000Y-101480653D01*
X174900000Y-101719347D01*
X174991344Y-101939873D01*
X175160127Y-102108656D01*
X175380653Y-102200000D01*
X175619347Y-102200000D01*
X175650000Y-102187303D01*
X175650000Y-102287500D01*
X175737500Y-102375000D01*
X176975000Y-102375000D01*
X176975000Y-102355000D01*
X177025000Y-102355000D01*
X177025000Y-102375000D01*
X178262500Y-102375000D01*
X178350000Y-102287500D01*
X178350000Y-102130381D01*
X178296716Y-102001741D01*
X178254329Y-101959355D01*
X178282593Y-101917054D01*
X178305877Y-101800000D01*
X178305877Y-101400000D01*
X178282593Y-101282946D01*
X178227171Y-101200000D01*
X178282593Y-101117054D01*
X178305877Y-101000000D01*
X178305877Y-100600000D01*
X178282593Y-100482946D01*
X178227171Y-100400000D01*
X178282593Y-100317054D01*
X178305877Y-100200000D01*
X178305877Y-99800000D01*
X178282593Y-99682946D01*
X178227171Y-99600000D01*
X178282593Y-99517054D01*
X178305877Y-99400000D01*
X178305877Y-99000000D01*
X178282593Y-98882946D01*
X178227171Y-98800000D01*
X178282593Y-98717054D01*
X178305877Y-98600000D01*
X178305877Y-98200000D01*
X178299163Y-98166246D01*
X178380653Y-98200000D01*
X178619347Y-98200000D01*
X178839873Y-98108656D01*
X179008656Y-97939873D01*
X179100000Y-97719347D01*
X179100000Y-97480653D01*
X179008656Y-97260127D01*
X178839873Y-97091344D01*
X178619347Y-97000000D01*
X178380653Y-97000000D01*
X178350000Y-97012697D01*
X178350000Y-96912500D01*
X178262500Y-96825000D01*
X177025000Y-96825000D01*
X177025000Y-96845000D01*
X176975000Y-96845000D01*
X176975000Y-96825000D01*
X175737500Y-96825000D01*
X175650000Y-96912500D01*
X175650000Y-97069619D01*
X175703284Y-97198259D01*
X175730025Y-97225000D01*
X170936926Y-97225000D01*
X170900000Y-97217655D01*
X170863073Y-97225000D01*
X170863069Y-97225000D01*
X170753683Y-97246758D01*
X170753682Y-97246759D01*
X170753681Y-97246759D01*
X170660949Y-97308721D01*
X170660948Y-97308722D01*
X170629641Y-97329641D01*
X170608722Y-97360948D01*
X169575000Y-98394671D01*
X169575000Y-96530381D01*
X175650000Y-96530381D01*
X175650000Y-96687500D01*
X175737500Y-96775000D01*
X176975000Y-96775000D01*
X176975000Y-96337500D01*
X177025000Y-96337500D01*
X177025000Y-96775000D01*
X178262500Y-96775000D01*
X178350000Y-96687500D01*
X178350000Y-96530381D01*
X178296716Y-96401741D01*
X178198259Y-96303285D01*
X178069620Y-96250000D01*
X177112500Y-96250000D01*
X177025000Y-96337500D01*
X176975000Y-96337500D01*
X176887500Y-96250000D01*
X175930380Y-96250000D01*
X175801741Y-96303285D01*
X175703284Y-96401741D01*
X175650000Y-96530381D01*
X169575000Y-96530381D01*
X169575000Y-94836926D01*
X169582345Y-94800000D01*
X169575000Y-94763074D01*
X169575000Y-94763069D01*
X169553242Y-94653683D01*
X169500837Y-94575254D01*
X169491279Y-94560949D01*
X169491278Y-94560948D01*
X169470359Y-94529641D01*
X169439052Y-94508722D01*
X166199994Y-91269665D01*
X166199994Y-91080647D01*
X166108650Y-90860121D01*
X165939867Y-90691338D01*
X165719341Y-90599994D01*
X165480647Y-90599994D01*
X165260121Y-90691338D01*
X165091338Y-90860121D01*
X164999994Y-91080647D01*
X164999994Y-91319341D01*
X165091338Y-91539867D01*
X165260121Y-91708650D01*
X165480647Y-91799994D01*
X165669665Y-91799994D01*
X168825001Y-94955331D01*
X168825000Y-102044670D01*
X167444671Y-103425000D01*
X165355330Y-103425000D01*
X164491280Y-102560950D01*
X164489802Y-102558739D01*
X164508671Y-102539870D01*
X164600015Y-102319344D01*
X164600015Y-102080650D01*
X164508671Y-101860124D01*
X164339888Y-101691341D01*
X164119362Y-101599997D01*
X163930344Y-101599997D01*
X163765814Y-101435467D01*
X163744893Y-101404157D01*
X163620851Y-101321274D01*
X163511465Y-101299516D01*
X163511460Y-101299516D01*
X163474534Y-101292171D01*
X163437608Y-101299516D01*
X163103812Y-101299516D01*
X160754329Y-98950034D01*
X162701429Y-98950034D01*
X162641344Y-99010119D01*
X162550000Y-99230645D01*
X162550000Y-99469339D01*
X162641344Y-99689865D01*
X162810127Y-99858648D01*
X163030653Y-99949992D01*
X163269347Y-99949992D01*
X163489873Y-99858648D01*
X163658656Y-99689865D01*
X163750000Y-99469339D01*
X163750000Y-99230645D01*
X163658656Y-99010119D01*
X163598571Y-98950034D01*
X163888040Y-98950034D01*
X163924966Y-98957379D01*
X163961892Y-98950034D01*
X163961897Y-98950034D01*
X164071283Y-98928276D01*
X164195325Y-98845393D01*
X164216245Y-98814084D01*
X164230329Y-98800000D01*
X164419347Y-98800000D01*
X164639873Y-98708656D01*
X164808656Y-98539873D01*
X164900000Y-98319347D01*
X164900000Y-98080653D01*
X164874821Y-98019864D01*
X165418023Y-98019864D01*
X165423964Y-98049733D01*
X165423963Y-99918383D01*
X165290307Y-100052039D01*
X165198963Y-100272565D01*
X165198963Y-100511259D01*
X165290307Y-100731785D01*
X165459090Y-100900568D01*
X165679616Y-100991912D01*
X165918310Y-100991912D01*
X165988726Y-100962745D01*
X165890861Y-101060610D01*
X165799517Y-101281136D01*
X165799517Y-101519830D01*
X165890861Y-101740356D01*
X166059644Y-101909139D01*
X166280170Y-102000483D01*
X166518864Y-102000483D01*
X166739390Y-101909139D01*
X166908173Y-101740356D01*
X166916266Y-101720817D01*
X166916266Y-101992727D01*
X166782610Y-102126383D01*
X166691266Y-102346909D01*
X166691266Y-102585603D01*
X166782610Y-102806129D01*
X166951393Y-102974912D01*
X167171919Y-103066256D01*
X167410613Y-103066256D01*
X167631139Y-102974912D01*
X167799922Y-102806129D01*
X167891266Y-102585603D01*
X167891266Y-102346909D01*
X167799922Y-102126383D01*
X167725562Y-102052023D01*
X167935623Y-102052023D01*
X168156149Y-101960679D01*
X168324932Y-101791896D01*
X168416276Y-101571370D01*
X168416276Y-101332676D01*
X168324932Y-101112150D01*
X168188794Y-100976012D01*
X168324932Y-100839873D01*
X168416276Y-100619347D01*
X168416276Y-100380653D01*
X168324932Y-100160127D01*
X168156149Y-99991344D01*
X167935623Y-99900000D01*
X167696929Y-99900000D01*
X167666266Y-99912701D01*
X167666266Y-98873094D01*
X167670359Y-98870359D01*
X167753242Y-98746317D01*
X167775000Y-98636931D01*
X167775000Y-98636927D01*
X167782345Y-98600001D01*
X167775000Y-98563074D01*
X167775000Y-97673529D01*
X167908656Y-97539873D01*
X168000000Y-97319347D01*
X168000000Y-97080653D01*
X167908656Y-96860127D01*
X167739873Y-96691344D01*
X167519347Y-96600000D01*
X167330330Y-96600000D01*
X166991280Y-96260951D01*
X166970360Y-96229642D01*
X166846318Y-96146759D01*
X166736932Y-96125001D01*
X166736927Y-96125001D01*
X166700001Y-96117656D01*
X166663075Y-96125001D01*
X164313978Y-96125001D01*
X164277052Y-96117656D01*
X164240126Y-96125001D01*
X164240121Y-96125001D01*
X164130735Y-96146759D01*
X164092116Y-96172564D01*
X164038001Y-96208722D01*
X164038000Y-96208723D01*
X164030801Y-96213534D01*
X164008656Y-96160071D01*
X163839873Y-95991288D01*
X163619347Y-95899944D01*
X163380653Y-95899944D01*
X163160127Y-95991288D01*
X163026471Y-96124944D01*
X161455384Y-96124944D01*
X162105330Y-95475000D01*
X163026471Y-95475000D01*
X163160127Y-95608656D01*
X163380653Y-95700000D01*
X163619347Y-95700000D01*
X163839873Y-95608656D01*
X164008656Y-95439873D01*
X164100000Y-95219347D01*
X164100000Y-94980653D01*
X164008656Y-94760127D01*
X163839873Y-94591344D01*
X163619347Y-94500000D01*
X163380653Y-94500000D01*
X163219099Y-94566917D01*
X163220371Y-94565645D01*
X163311715Y-94345119D01*
X163311715Y-94106425D01*
X163301040Y-94080653D01*
X166200000Y-94080653D01*
X166200000Y-94319347D01*
X166291344Y-94539873D01*
X166460127Y-94708656D01*
X166680653Y-94800000D01*
X166919347Y-94800000D01*
X167139873Y-94708656D01*
X167308656Y-94539873D01*
X167400000Y-94319347D01*
X167400000Y-94080653D01*
X167308656Y-93860127D01*
X167139873Y-93691344D01*
X166919347Y-93600000D01*
X166680653Y-93600000D01*
X166460127Y-93691344D01*
X166291344Y-93860127D01*
X166200000Y-94080653D01*
X163301040Y-94080653D01*
X163220371Y-93885899D01*
X163051588Y-93717116D01*
X162831062Y-93625772D01*
X162592368Y-93625772D01*
X162371842Y-93717116D01*
X162203059Y-93885899D01*
X162111715Y-94106425D01*
X162111715Y-94345119D01*
X162203059Y-94565645D01*
X162362414Y-94725000D01*
X161986926Y-94725000D01*
X161950000Y-94717655D01*
X161913074Y-94725000D01*
X161913069Y-94725000D01*
X161803683Y-94746758D01*
X161783675Y-94760127D01*
X161710949Y-94808721D01*
X161710948Y-94808722D01*
X161679641Y-94829641D01*
X161658723Y-94860947D01*
X161160961Y-95358708D01*
X161175000Y-95288129D01*
X161175000Y-95288124D01*
X161182345Y-95251198D01*
X161175000Y-95214272D01*
X161175000Y-90155329D01*
X161964060Y-89366270D01*
X161995367Y-89345351D01*
X162022309Y-89305031D01*
X162061525Y-89246339D01*
X162078250Y-89221309D01*
X162100008Y-89111923D01*
X162100008Y-89111918D01*
X162107353Y-89074992D01*
X162100008Y-89038066D01*
X162100008Y-87650000D01*
X173344123Y-87650000D01*
X173344123Y-89350000D01*
X173367407Y-89467054D01*
X173433712Y-89566288D01*
X173532946Y-89632593D01*
X173650000Y-89655877D01*
X175350000Y-89655877D01*
X175467054Y-89632593D01*
X175566288Y-89566288D01*
X175632593Y-89467054D01*
X175655877Y-89350000D01*
X175655877Y-88712373D01*
X175858940Y-88712373D01*
X176030114Y-89148179D01*
X176355034Y-89485306D01*
X176784234Y-89672429D01*
X176827627Y-89681058D01*
X177015000Y-89612219D01*
X177015000Y-88525000D01*
X177065000Y-88525000D01*
X177065000Y-89612219D01*
X177252373Y-89681058D01*
X177295766Y-89672429D01*
X177724966Y-89485306D01*
X178049886Y-89148179D01*
X178221060Y-88712373D01*
X178152242Y-88525000D01*
X177065000Y-88525000D01*
X177015000Y-88525000D01*
X175927758Y-88525000D01*
X175858940Y-88712373D01*
X175655877Y-88712373D01*
X175655877Y-88287627D01*
X175858940Y-88287627D01*
X175927758Y-88475000D01*
X177015000Y-88475000D01*
X177015000Y-87387781D01*
X177065000Y-87387781D01*
X177065000Y-88475000D01*
X178152242Y-88475000D01*
X178221060Y-88287627D01*
X178049886Y-87851821D01*
X177724966Y-87514694D01*
X177295766Y-87327571D01*
X177252373Y-87318942D01*
X177065000Y-87387781D01*
X177015000Y-87387781D01*
X176827627Y-87318942D01*
X176784234Y-87327571D01*
X176355034Y-87514694D01*
X176030114Y-87851821D01*
X175858940Y-88287627D01*
X175655877Y-88287627D01*
X175655877Y-87650000D01*
X175632593Y-87532946D01*
X175566288Y-87433712D01*
X175467054Y-87367407D01*
X175350000Y-87344123D01*
X173650000Y-87344123D01*
X173532946Y-87367407D01*
X173433712Y-87433712D01*
X173367407Y-87532946D01*
X173344123Y-87650000D01*
X162100008Y-87650000D01*
X162100008Y-86961934D01*
X162107353Y-86925008D01*
X162100008Y-86888082D01*
X162100008Y-86888077D01*
X162078250Y-86778691D01*
X161995367Y-86654649D01*
X161964061Y-86633731D01*
X159810983Y-84480653D01*
X161800000Y-84480653D01*
X161800000Y-84719347D01*
X161891344Y-84939873D01*
X162060127Y-85108656D01*
X162280653Y-85200000D01*
X162519347Y-85200000D01*
X162739873Y-85108656D01*
X162908656Y-84939873D01*
X163000000Y-84719347D01*
X163000000Y-84480653D01*
X162908656Y-84260127D01*
X162739873Y-84091344D01*
X162519347Y-84000000D01*
X162280653Y-84000000D01*
X162060127Y-84091344D01*
X161891344Y-84260127D01*
X161800000Y-84480653D01*
X159810983Y-84480653D01*
X159200000Y-83869671D01*
X159200000Y-83721523D01*
X174600000Y-83721523D01*
X174600000Y-84278477D01*
X174813137Y-84793037D01*
X175206963Y-85186863D01*
X175721523Y-85400000D01*
X176278477Y-85400000D01*
X176793037Y-85186863D01*
X177186863Y-84793037D01*
X177400000Y-84278477D01*
X177400000Y-83721523D01*
X177186863Y-83206963D01*
X176793037Y-82813137D01*
X176278477Y-82600000D01*
X175721523Y-82600000D01*
X175206963Y-82813137D01*
X174813137Y-83206963D01*
X174600000Y-83721523D01*
X159200000Y-83721523D01*
X159200000Y-83680653D01*
X159108656Y-83460127D01*
X158939873Y-83291344D01*
X158719347Y-83200000D01*
X158480653Y-83200000D01*
X158260127Y-83291344D01*
X158091344Y-83460127D01*
X158000000Y-83680653D01*
X158000000Y-83919347D01*
X158091344Y-84139873D01*
X158260127Y-84308656D01*
X158480653Y-84400000D01*
X158669671Y-84400000D01*
X161350008Y-87080338D01*
X161350009Y-88919661D01*
X160560950Y-89708720D01*
X160529641Y-89729641D01*
X160508721Y-89760950D01*
X160465406Y-89825776D01*
X160446758Y-89853684D01*
X160425000Y-89963070D01*
X160425000Y-89963074D01*
X160417655Y-90000000D01*
X160425000Y-90036926D01*
X160425001Y-93143610D01*
X160242341Y-92960951D01*
X160221421Y-92929642D01*
X160097379Y-92846759D01*
X160014145Y-92830203D01*
X160093485Y-92638657D01*
X160093485Y-92399963D01*
X160002141Y-92179437D01*
X159868485Y-92045781D01*
X159868485Y-89630375D01*
X159875830Y-89593449D01*
X159868485Y-89556523D01*
X159868485Y-89556518D01*
X159846727Y-89447132D01*
X159812781Y-89396328D01*
X159784764Y-89354398D01*
X159784763Y-89354397D01*
X159763844Y-89323090D01*
X159732538Y-89302172D01*
X156400000Y-85969635D01*
X156400000Y-85780617D01*
X156308656Y-85560091D01*
X156139873Y-85391308D01*
X155919347Y-85299964D01*
X155680653Y-85299964D01*
X155460127Y-85391308D01*
X155291344Y-85560091D01*
X155274441Y-85600898D01*
X155164883Y-85491340D01*
X154944357Y-85399996D01*
X154705663Y-85399996D01*
X154485137Y-85491340D01*
X154316354Y-85660123D01*
X154225010Y-85880649D01*
X154225010Y-86119343D01*
X154316354Y-86339869D01*
X154450010Y-86473525D01*
X154450011Y-88517978D01*
X154442665Y-88554909D01*
X154471769Y-88701227D01*
X154533731Y-88793959D01*
X154533733Y-88793961D01*
X154554652Y-88825268D01*
X154585959Y-88846187D01*
X157454214Y-91714443D01*
X157419345Y-91700000D01*
X157180651Y-91700000D01*
X156960125Y-91791344D01*
X156791342Y-91960127D01*
X156699998Y-92180653D01*
X156699998Y-92297894D01*
X153671239Y-89269136D01*
X153671239Y-83777290D01*
X153804895Y-83643634D01*
X153869609Y-83487399D01*
X153891344Y-83539873D01*
X154060127Y-83708656D01*
X154280653Y-83800000D01*
X154519347Y-83800000D01*
X154739873Y-83708656D01*
X154908656Y-83539873D01*
X155000000Y-83319347D01*
X155000000Y-83080653D01*
X154908656Y-82860127D01*
X154739873Y-82691344D01*
X154519347Y-82600000D01*
X154280653Y-82600000D01*
X154060127Y-82691344D01*
X153891344Y-82860127D01*
X153826630Y-83016362D01*
X153804895Y-82963888D01*
X153636112Y-82795105D01*
X153415586Y-82703761D01*
X153176892Y-82703761D01*
X152956366Y-82795105D01*
X152787583Y-82963888D01*
X152696239Y-83184414D01*
X152696239Y-83423108D01*
X152787583Y-83643634D01*
X152921239Y-83777290D01*
X152921240Y-89387534D01*
X152913894Y-89424465D01*
X152942998Y-89570783D01*
X153004960Y-89663515D01*
X153004962Y-89663517D01*
X153025881Y-89694824D01*
X153057188Y-89715743D01*
X156721786Y-93380342D01*
X156721786Y-93519682D01*
X155573992Y-94667477D01*
X155073529Y-94667477D01*
X154939873Y-94533821D01*
X154719347Y-94442477D01*
X154480653Y-94442477D01*
X154260127Y-94533821D01*
X154091344Y-94702604D01*
X154038470Y-94830255D01*
X153702895Y-94494681D01*
X153702895Y-94305663D01*
X153611551Y-94085137D01*
X153442768Y-93916354D01*
X153222242Y-93825010D01*
X152983548Y-93825010D01*
X152763022Y-93916354D01*
X152700365Y-93979011D01*
X147857005Y-89135652D01*
X147857005Y-88946634D01*
X147765661Y-88726108D01*
X147632250Y-88592697D01*
X147639350Y-88557004D01*
X147632005Y-88520078D01*
X147632005Y-88520074D01*
X147610247Y-88410688D01*
X147608926Y-88408710D01*
X147548283Y-88317953D01*
X147527364Y-88286646D01*
X147496058Y-88265728D01*
X146891279Y-87660950D01*
X146870359Y-87629641D01*
X146746317Y-87546758D01*
X146636931Y-87525000D01*
X146636926Y-87525000D01*
X146600000Y-87517655D01*
X146563074Y-87525000D01*
X137236926Y-87525000D01*
X137200000Y-87517655D01*
X137163074Y-87525000D01*
X137163069Y-87525000D01*
X137053683Y-87546758D01*
X137053681Y-87546759D01*
X137053682Y-87546759D01*
X136960949Y-87608721D01*
X136960948Y-87608722D01*
X136929641Y-87629641D01*
X136908722Y-87660948D01*
X135632937Y-88936734D01*
X135721060Y-88712373D01*
X135652242Y-88525000D01*
X134565000Y-88525000D01*
X134565000Y-89612219D01*
X134752373Y-89681058D01*
X134795766Y-89672429D01*
X134975681Y-89593990D01*
X132835954Y-91733717D01*
X132804647Y-91754636D01*
X132783728Y-91785943D01*
X132783726Y-91785945D01*
X132721764Y-91878677D01*
X132692660Y-92024995D01*
X132700006Y-92061926D01*
X132700006Y-93144637D01*
X132448707Y-92976724D01*
X132113261Y-92910000D01*
X131886739Y-92910000D01*
X131551293Y-92976724D01*
X131170897Y-93230897D01*
X130916724Y-93611293D01*
X130827471Y-94060000D01*
X130916724Y-94508707D01*
X131170897Y-94889103D01*
X131523941Y-95125000D01*
X131436925Y-95125000D01*
X131399999Y-95117655D01*
X131363073Y-95125000D01*
X131363069Y-95125000D01*
X131253683Y-95146758D01*
X131253682Y-95146759D01*
X131253681Y-95146759D01*
X131160948Y-95208722D01*
X131129641Y-95229641D01*
X131108722Y-95260948D01*
X130385936Y-95983735D01*
X130354630Y-96004653D01*
X130350000Y-96011582D01*
X130350000Y-87650000D01*
X130844123Y-87650000D01*
X130844123Y-89350000D01*
X130867407Y-89467054D01*
X130933712Y-89566288D01*
X131032946Y-89632593D01*
X131150000Y-89655877D01*
X132850000Y-89655877D01*
X132967054Y-89632593D01*
X133066288Y-89566288D01*
X133132593Y-89467054D01*
X133155877Y-89350000D01*
X133155877Y-88712373D01*
X133358940Y-88712373D01*
X133530114Y-89148179D01*
X133855034Y-89485306D01*
X134284234Y-89672429D01*
X134327627Y-89681058D01*
X134515000Y-89612219D01*
X134515000Y-88525000D01*
X133427758Y-88525000D01*
X133358940Y-88712373D01*
X133155877Y-88712373D01*
X133155877Y-88287627D01*
X133358940Y-88287627D01*
X133427758Y-88475000D01*
X134515000Y-88475000D01*
X134515000Y-87387781D01*
X134565000Y-87387781D01*
X134565000Y-88475000D01*
X135652242Y-88475000D01*
X135721060Y-88287627D01*
X135549886Y-87851821D01*
X135224966Y-87514694D01*
X134795766Y-87327571D01*
X134752373Y-87318942D01*
X134565000Y-87387781D01*
X134515000Y-87387781D01*
X134327627Y-87318942D01*
X134284234Y-87327571D01*
X133855034Y-87514694D01*
X133530114Y-87851821D01*
X133358940Y-88287627D01*
X133155877Y-88287627D01*
X133155877Y-87650000D01*
X133132593Y-87532946D01*
X133066288Y-87433712D01*
X132967054Y-87367407D01*
X132850000Y-87344123D01*
X131150000Y-87344123D01*
X131032946Y-87367407D01*
X130933712Y-87433712D01*
X130867407Y-87532946D01*
X130844123Y-87650000D01*
X130350000Y-87650000D01*
X130350000Y-86080653D01*
X143112500Y-86080653D01*
X143112500Y-86319347D01*
X143203844Y-86539873D01*
X143372627Y-86708656D01*
X143593153Y-86800000D01*
X143831847Y-86800000D01*
X144052373Y-86708656D01*
X144221156Y-86539873D01*
X144312500Y-86319347D01*
X144312500Y-86080653D01*
X144221156Y-85860127D01*
X144052373Y-85691344D01*
X143831847Y-85600000D01*
X143593153Y-85600000D01*
X143372627Y-85691344D01*
X143203844Y-85860127D01*
X143112500Y-86080653D01*
X130350000Y-86080653D01*
X130350000Y-85015583D01*
X130424859Y-84176804D01*
X130549409Y-83721523D01*
X132600000Y-83721523D01*
X132600000Y-84278477D01*
X132813137Y-84793037D01*
X133206963Y-85186863D01*
X133721523Y-85400000D01*
X134278477Y-85400000D01*
X134793037Y-85186863D01*
X135186863Y-84793037D01*
X135218676Y-84716231D01*
X138540342Y-84716231D01*
X138579132Y-84855157D01*
X138749859Y-85128226D01*
X139012089Y-85315174D01*
X139325900Y-85387540D01*
X139475900Y-85387540D01*
X139475900Y-84587540D01*
X139525900Y-84587540D01*
X139525900Y-85387540D01*
X139675900Y-85387540D01*
X139989711Y-85315174D01*
X140251941Y-85128226D01*
X140422668Y-84855157D01*
X140461458Y-84716231D01*
X143540342Y-84716231D01*
X143579132Y-84855157D01*
X143749859Y-85128226D01*
X144012089Y-85315174D01*
X144325900Y-85387540D01*
X144475900Y-85387540D01*
X144475900Y-84587540D01*
X144525900Y-84587540D01*
X144525900Y-85387540D01*
X144675900Y-85387540D01*
X144989711Y-85315174D01*
X145251941Y-85128226D01*
X145422668Y-84855157D01*
X145461458Y-84716231D01*
X145387976Y-84587540D01*
X144525900Y-84587540D01*
X144475900Y-84587540D01*
X143613824Y-84587540D01*
X143540342Y-84716231D01*
X140461458Y-84716231D01*
X140387976Y-84587540D01*
X139525900Y-84587540D01*
X139475900Y-84587540D01*
X138613824Y-84587540D01*
X138540342Y-84716231D01*
X135218676Y-84716231D01*
X135345998Y-84408849D01*
X138540342Y-84408849D01*
X138613824Y-84537540D01*
X139475900Y-84537540D01*
X139475900Y-83737540D01*
X139525900Y-83737540D01*
X139525900Y-84537540D01*
X140387976Y-84537540D01*
X140461458Y-84408849D01*
X143540342Y-84408849D01*
X143613824Y-84537540D01*
X144475900Y-84537540D01*
X144475900Y-83737540D01*
X144525900Y-83737540D01*
X144525900Y-84537540D01*
X145387976Y-84537540D01*
X145461458Y-84408849D01*
X145422668Y-84269923D01*
X145251941Y-83996854D01*
X144989711Y-83809906D01*
X144675900Y-83737540D01*
X144525900Y-83737540D01*
X144475900Y-83737540D01*
X144325900Y-83737540D01*
X144012089Y-83809906D01*
X143749859Y-83996854D01*
X143579132Y-84269923D01*
X143540342Y-84408849D01*
X140461458Y-84408849D01*
X140422668Y-84269923D01*
X140251941Y-83996854D01*
X139989711Y-83809906D01*
X139675900Y-83737540D01*
X139525900Y-83737540D01*
X139475900Y-83737540D01*
X139325900Y-83737540D01*
X139012089Y-83809906D01*
X138749859Y-83996854D01*
X138579132Y-84269923D01*
X138540342Y-84408849D01*
X135345998Y-84408849D01*
X135400000Y-84278477D01*
X135400000Y-83721523D01*
X135186863Y-83206963D01*
X134793037Y-82813137D01*
X134278477Y-82600000D01*
X133721523Y-82600000D01*
X133206963Y-82813137D01*
X132813137Y-83206963D01*
X132600000Y-83721523D01*
X130549409Y-83721523D01*
X130642942Y-83379626D01*
X130998749Y-82633663D01*
X131481026Y-81962504D01*
X131558382Y-81887540D01*
X137650900Y-81887540D01*
X137650900Y-82162540D01*
X137725169Y-82485918D01*
X137917536Y-82756259D01*
X138198715Y-82932406D01*
X138343296Y-82972801D01*
X138475900Y-82899630D01*
X138475900Y-81887540D01*
X138525900Y-81887540D01*
X138525900Y-82899630D01*
X138658504Y-82972801D01*
X138803085Y-82932406D01*
X139084264Y-82756259D01*
X139276631Y-82485918D01*
X139350900Y-82162540D01*
X139350900Y-81887540D01*
X144650900Y-81887540D01*
X144650900Y-82162540D01*
X144725169Y-82485918D01*
X144917536Y-82756259D01*
X145198715Y-82932406D01*
X145343296Y-82972801D01*
X145475900Y-82899630D01*
X145475900Y-81887540D01*
X145525900Y-81887540D01*
X145525900Y-82899630D01*
X145658504Y-82972801D01*
X145803085Y-82932406D01*
X146084264Y-82756259D01*
X146276631Y-82485918D01*
X146350900Y-82162540D01*
X146350900Y-81887540D01*
X145525900Y-81887540D01*
X145475900Y-81887540D01*
X144650900Y-81887540D01*
X139350900Y-81887540D01*
X138525900Y-81887540D01*
X138475900Y-81887540D01*
X137650900Y-81887540D01*
X131558382Y-81887540D01*
X131893755Y-81562540D01*
X137650900Y-81562540D01*
X137650900Y-81837540D01*
X138475900Y-81837540D01*
X138475900Y-80825450D01*
X138525900Y-80825450D01*
X138525900Y-81837540D01*
X139350900Y-81837540D01*
X139350900Y-81562540D01*
X144650900Y-81562540D01*
X144650900Y-81837540D01*
X145475900Y-81837540D01*
X145475900Y-80825450D01*
X145525900Y-80825450D01*
X145525900Y-81837540D01*
X146350900Y-81837540D01*
X146350900Y-81741414D01*
X161600000Y-81741414D01*
X161600000Y-82258586D01*
X161797913Y-82736391D01*
X162163609Y-83102087D01*
X162641414Y-83300000D01*
X163158586Y-83300000D01*
X163636391Y-83102087D01*
X164002087Y-82736391D01*
X164166479Y-82339514D01*
X164237017Y-82509809D01*
X164490191Y-82762983D01*
X164820979Y-82900000D01*
X165179021Y-82900000D01*
X165509809Y-82762983D01*
X165762983Y-82509809D01*
X165900000Y-82179021D01*
X165900000Y-81820979D01*
X166100000Y-81820979D01*
X166100000Y-82179021D01*
X166237017Y-82509809D01*
X166490191Y-82762983D01*
X166820979Y-82900000D01*
X167179021Y-82900000D01*
X167509809Y-82762983D01*
X167762983Y-82509809D01*
X167900000Y-82179021D01*
X167900000Y-81820979D01*
X168100000Y-81820979D01*
X168100000Y-82179021D01*
X168237017Y-82509809D01*
X168490191Y-82762983D01*
X168820979Y-82900000D01*
X169179021Y-82900000D01*
X169509809Y-82762983D01*
X169762983Y-82509809D01*
X169833521Y-82339514D01*
X169997913Y-82736391D01*
X170363609Y-83102087D01*
X170841414Y-83300000D01*
X171358586Y-83300000D01*
X171836391Y-83102087D01*
X172202087Y-82736391D01*
X172400000Y-82258586D01*
X172400000Y-81741414D01*
X172202087Y-81263609D01*
X171836391Y-80897913D01*
X171358586Y-80700000D01*
X170841414Y-80700000D01*
X170363609Y-80897913D01*
X169997913Y-81263609D01*
X169833521Y-81660486D01*
X169762983Y-81490191D01*
X169509809Y-81237017D01*
X169179021Y-81100000D01*
X168820979Y-81100000D01*
X168490191Y-81237017D01*
X168237017Y-81490191D01*
X168100000Y-81820979D01*
X167900000Y-81820979D01*
X167762983Y-81490191D01*
X167509809Y-81237017D01*
X167179021Y-81100000D01*
X166820979Y-81100000D01*
X166490191Y-81237017D01*
X166237017Y-81490191D01*
X166100000Y-81820979D01*
X165900000Y-81820979D01*
X165762983Y-81490191D01*
X165509809Y-81237017D01*
X165179021Y-81100000D01*
X164820979Y-81100000D01*
X164490191Y-81237017D01*
X164237017Y-81490191D01*
X164166479Y-81660486D01*
X164002087Y-81263609D01*
X163636391Y-80897913D01*
X163158586Y-80700000D01*
X162641414Y-80700000D01*
X162163609Y-80897913D01*
X161797913Y-81263609D01*
X161600000Y-81741414D01*
X146350900Y-81741414D01*
X146350900Y-81562540D01*
X146276631Y-81239162D01*
X146084264Y-80968821D01*
X145803085Y-80792674D01*
X145658504Y-80752279D01*
X145525900Y-80825450D01*
X145475900Y-80825450D01*
X145343296Y-80752279D01*
X145198715Y-80792674D01*
X144917536Y-80968821D01*
X144725169Y-81239162D01*
X144650900Y-81562540D01*
X139350900Y-81562540D01*
X139276631Y-81239162D01*
X139084264Y-80968821D01*
X138803085Y-80792674D01*
X138658504Y-80752279D01*
X138525900Y-80825450D01*
X138475900Y-80825450D01*
X138343296Y-80752279D01*
X138198715Y-80792674D01*
X137917536Y-80968821D01*
X137725169Y-81239162D01*
X137650900Y-81562540D01*
X131893755Y-81562540D01*
X132074537Y-81387351D01*
X132760514Y-80926394D01*
X133517286Y-80594194D01*
X134323608Y-80400613D01*
X135012833Y-80350000D01*
X174984417Y-80350000D01*
X175823196Y-80424859D01*
D21*
G04 #@! TO.N,GNDPWR*
G36*
X147873000Y-106673000D02*
X142571928Y-106673000D01*
X142489145Y-106473144D01*
X142326832Y-106310831D01*
X142114760Y-106222988D01*
X141885216Y-106222988D01*
X141673144Y-106310831D01*
X141510831Y-106473144D01*
X141428048Y-106673000D01*
X141127000Y-106673000D01*
X141127000Y-103752000D01*
X144940331Y-103752000D01*
X144975000Y-103758896D01*
X145009669Y-103752000D01*
X145112344Y-103731577D01*
X145228778Y-103653778D01*
X145298762Y-103549040D01*
X145520802Y-103327000D01*
X147873000Y-103327000D01*
X147873000Y-106673000D01*
X147873000Y-106673000D01*
G37*
X147873000Y-106673000D02*
X142571928Y-106673000D01*
X142489145Y-106473144D01*
X142326832Y-106310831D01*
X142114760Y-106222988D01*
X141885216Y-106222988D01*
X141673144Y-106310831D01*
X141510831Y-106473144D01*
X141428048Y-106673000D01*
X141127000Y-106673000D01*
X141127000Y-103752000D01*
X144940331Y-103752000D01*
X144975000Y-103758896D01*
X145009669Y-103752000D01*
X145112344Y-103731577D01*
X145228778Y-103653778D01*
X145298762Y-103549040D01*
X145520802Y-103327000D01*
X147873000Y-103327000D01*
X147873000Y-106673000D01*
G04 #@! TD*
M02*
