G04 #@! TF.GenerationSoftware,KiCad,Pcbnew,5.0.2-bee76a0~70~ubuntu18.04.1*
G04 #@! TF.CreationDate,2018-11-30T19:37:06+00:00*
G04 #@! TF.ProjectId,fpgaboy,66706761-626f-4792-9e6b-696361645f70,rev?*
G04 #@! TF.SameCoordinates,Original*
G04 #@! TF.FileFunction,Legend,Top*
G04 #@! TF.FilePolarity,Positive*
%FSLAX46Y46*%
G04 Gerber Fmt 4.6, Leading zero omitted, Abs format (unit mm)*
G04 Created by KiCad (PCBNEW 5.0.2-bee76a0~70~ubuntu18.04.1) date Fri 30 Nov 2018 19:37:06 GMT*
%MOMM*%
%LPD*%
G01*
G04 APERTURE LIST*
%ADD10C,0.200000*%
%ADD11C,0.175000*%
%ADD12C,0.300000*%
%ADD13C,0.120000*%
%ADD14C,0.150000*%
G04 APERTURE END LIST*
D10*
X143519047Y-125323809D02*
X143633333Y-125361904D01*
X143823809Y-125361904D01*
X143900000Y-125323809D01*
X143938095Y-125285714D01*
X143976190Y-125209523D01*
X143976190Y-125133333D01*
X143938095Y-125057142D01*
X143900000Y-125019047D01*
X143823809Y-124980952D01*
X143671428Y-124942857D01*
X143595238Y-124904761D01*
X143557142Y-124866666D01*
X143519047Y-124790476D01*
X143519047Y-124714285D01*
X143557142Y-124638095D01*
X143595238Y-124600000D01*
X143671428Y-124561904D01*
X143861904Y-124561904D01*
X143976190Y-124600000D01*
X144204761Y-124561904D02*
X144661904Y-124561904D01*
X144433333Y-125361904D02*
X144433333Y-124561904D01*
X144890476Y-125133333D02*
X145271428Y-125133333D01*
X144814285Y-125361904D02*
X145080952Y-124561904D01*
X145347619Y-125361904D01*
X145500000Y-124561904D02*
X145957142Y-124561904D01*
X145728571Y-125361904D02*
X145728571Y-124561904D01*
X146223809Y-124561904D02*
X146223809Y-125209523D01*
X146261904Y-125285714D01*
X146300000Y-125323809D01*
X146376190Y-125361904D01*
X146528571Y-125361904D01*
X146604761Y-125323809D01*
X146642857Y-125285714D01*
X146680952Y-125209523D01*
X146680952Y-124561904D01*
X147023809Y-125323809D02*
X147138095Y-125361904D01*
X147328571Y-125361904D01*
X147404761Y-125323809D01*
X147442857Y-125285714D01*
X147480952Y-125209523D01*
X147480952Y-125133333D01*
X147442857Y-125057142D01*
X147404761Y-125019047D01*
X147328571Y-124980952D01*
X147176190Y-124942857D01*
X147100000Y-124904761D01*
X147061904Y-124866666D01*
X147023809Y-124790476D01*
X147023809Y-124714285D01*
X147061904Y-124638095D01*
X147100000Y-124600000D01*
X147176190Y-124561904D01*
X147366666Y-124561904D01*
X147480952Y-124600000D01*
X137823809Y-125285714D02*
X137785714Y-125323809D01*
X137671428Y-125361904D01*
X137595238Y-125361904D01*
X137480952Y-125323809D01*
X137404761Y-125247619D01*
X137366666Y-125171428D01*
X137328571Y-125019047D01*
X137328571Y-124904761D01*
X137366666Y-124752380D01*
X137404761Y-124676190D01*
X137480952Y-124600000D01*
X137595238Y-124561904D01*
X137671428Y-124561904D01*
X137785714Y-124600000D01*
X137823809Y-124638095D01*
X138166666Y-125361904D02*
X138166666Y-124561904D01*
X138166666Y-124942857D02*
X138623809Y-124942857D01*
X138623809Y-125361904D02*
X138623809Y-124561904D01*
X138966666Y-125133333D02*
X139347619Y-125133333D01*
X138890476Y-125361904D02*
X139157142Y-124561904D01*
X139423809Y-125361904D01*
X140147619Y-125361904D02*
X139880952Y-124980952D01*
X139690476Y-125361904D02*
X139690476Y-124561904D01*
X139995238Y-124561904D01*
X140071428Y-124600000D01*
X140109523Y-124638095D01*
X140147619Y-124714285D01*
X140147619Y-124828571D01*
X140109523Y-124904761D01*
X140071428Y-124942857D01*
X139995238Y-124980952D01*
X139690476Y-124980952D01*
X140909523Y-124600000D02*
X140833333Y-124561904D01*
X140719047Y-124561904D01*
X140604761Y-124600000D01*
X140528571Y-124676190D01*
X140490476Y-124752380D01*
X140452380Y-124904761D01*
X140452380Y-125019047D01*
X140490476Y-125171428D01*
X140528571Y-125247619D01*
X140604761Y-125323809D01*
X140719047Y-125361904D01*
X140795238Y-125361904D01*
X140909523Y-125323809D01*
X140947619Y-125285714D01*
X140947619Y-125019047D01*
X140795238Y-125019047D01*
X141290476Y-124942857D02*
X141557142Y-124942857D01*
X141671428Y-125361904D02*
X141290476Y-125361904D01*
X141290476Y-124561904D01*
X141671428Y-124561904D01*
D11*
X173216666Y-119653571D02*
X173216666Y-120301190D01*
X173183333Y-120377380D01*
X173150000Y-120415476D01*
X173083333Y-120453571D01*
X172983333Y-120453571D01*
X172916666Y-120415476D01*
X173216666Y-120148809D02*
X173150000Y-120186904D01*
X173016666Y-120186904D01*
X172950000Y-120148809D01*
X172916666Y-120110714D01*
X172883333Y-120034523D01*
X172883333Y-119805952D01*
X172916666Y-119729761D01*
X172950000Y-119691666D01*
X173016666Y-119653571D01*
X173150000Y-119653571D01*
X173216666Y-119691666D01*
X173550000Y-120186904D02*
X173550000Y-119653571D01*
X173550000Y-119386904D02*
X173516666Y-119425000D01*
X173550000Y-119463095D01*
X173583333Y-119425000D01*
X173550000Y-119386904D01*
X173550000Y-119463095D01*
X173783333Y-119653571D02*
X174050000Y-119653571D01*
X173883333Y-119386904D02*
X173883333Y-120072619D01*
X173916666Y-120148809D01*
X173983333Y-120186904D01*
X174050000Y-120186904D01*
X174283333Y-120186904D02*
X174283333Y-119386904D01*
X174583333Y-120186904D02*
X174583333Y-119767857D01*
X174550000Y-119691666D01*
X174483333Y-119653571D01*
X174383333Y-119653571D01*
X174316666Y-119691666D01*
X174283333Y-119729761D01*
X175216666Y-119653571D02*
X175216666Y-120186904D01*
X174916666Y-119653571D02*
X174916666Y-120072619D01*
X174950000Y-120148809D01*
X175016666Y-120186904D01*
X175116666Y-120186904D01*
X175183333Y-120148809D01*
X175216666Y-120110714D01*
X175550000Y-120186904D02*
X175550000Y-119386904D01*
X175550000Y-119691666D02*
X175616666Y-119653571D01*
X175750000Y-119653571D01*
X175816666Y-119691666D01*
X175850000Y-119729761D01*
X175883333Y-119805952D01*
X175883333Y-120034523D01*
X175850000Y-120110714D01*
X175816666Y-120148809D01*
X175750000Y-120186904D01*
X175616666Y-120186904D01*
X175550000Y-120148809D01*
X176183333Y-120110714D02*
X176216666Y-120148809D01*
X176183333Y-120186904D01*
X176150000Y-120148809D01*
X176183333Y-120110714D01*
X176183333Y-120186904D01*
X176816666Y-120148809D02*
X176750000Y-120186904D01*
X176616666Y-120186904D01*
X176550000Y-120148809D01*
X176516666Y-120110714D01*
X176483333Y-120034523D01*
X176483333Y-119805952D01*
X176516666Y-119729761D01*
X176550000Y-119691666D01*
X176616666Y-119653571D01*
X176750000Y-119653571D01*
X176816666Y-119691666D01*
X177216666Y-120186904D02*
X177150000Y-120148809D01*
X177116666Y-120110714D01*
X177083333Y-120034523D01*
X177083333Y-119805952D01*
X177116666Y-119729761D01*
X177150000Y-119691666D01*
X177216666Y-119653571D01*
X177316666Y-119653571D01*
X177383333Y-119691666D01*
X177416666Y-119729761D01*
X177450000Y-119805952D01*
X177450000Y-120034523D01*
X177416666Y-120110714D01*
X177383333Y-120148809D01*
X177316666Y-120186904D01*
X177216666Y-120186904D01*
X177750000Y-120186904D02*
X177750000Y-119653571D01*
X177750000Y-119729761D02*
X177783333Y-119691666D01*
X177850000Y-119653571D01*
X177950000Y-119653571D01*
X178016666Y-119691666D01*
X178050000Y-119767857D01*
X178050000Y-120186904D01*
X178050000Y-119767857D02*
X178083333Y-119691666D01*
X178150000Y-119653571D01*
X178250000Y-119653571D01*
X178316666Y-119691666D01*
X178350000Y-119767857D01*
X178350000Y-120186904D01*
X179183333Y-119348809D02*
X178583333Y-120377380D01*
X173166666Y-120761904D02*
X173333333Y-121561904D01*
X173466666Y-120990476D01*
X173600000Y-121561904D01*
X173766666Y-120761904D01*
X174033333Y-121561904D02*
X174033333Y-121028571D01*
X174033333Y-121180952D02*
X174066666Y-121104761D01*
X174100000Y-121066666D01*
X174166666Y-121028571D01*
X174233333Y-121028571D01*
X174733333Y-121523809D02*
X174666666Y-121561904D01*
X174533333Y-121561904D01*
X174466666Y-121523809D01*
X174433333Y-121447619D01*
X174433333Y-121142857D01*
X174466666Y-121066666D01*
X174533333Y-121028571D01*
X174666666Y-121028571D01*
X174733333Y-121066666D01*
X174766666Y-121142857D01*
X174766666Y-121219047D01*
X174433333Y-121295238D01*
X175066666Y-121028571D02*
X175066666Y-121561904D01*
X175066666Y-121104761D02*
X175100000Y-121066666D01*
X175166666Y-121028571D01*
X175266666Y-121028571D01*
X175333333Y-121066666D01*
X175366666Y-121142857D01*
X175366666Y-121561904D01*
X176000000Y-120761904D02*
X175866666Y-120761904D01*
X175800000Y-120800000D01*
X175766666Y-120838095D01*
X175700000Y-120952380D01*
X175666666Y-121104761D01*
X175666666Y-121409523D01*
X175700000Y-121485714D01*
X175733333Y-121523809D01*
X175800000Y-121561904D01*
X175933333Y-121561904D01*
X176000000Y-121523809D01*
X176033333Y-121485714D01*
X176066666Y-121409523D01*
X176066666Y-121219047D01*
X176033333Y-121142857D01*
X176000000Y-121104761D01*
X175933333Y-121066666D01*
X175800000Y-121066666D01*
X175733333Y-121104761D01*
X175700000Y-121142857D01*
X175666666Y-121219047D01*
X176400000Y-121561904D02*
X176533333Y-121561904D01*
X176600000Y-121523809D01*
X176633333Y-121485714D01*
X176700000Y-121371428D01*
X176733333Y-121219047D01*
X176733333Y-120914285D01*
X176700000Y-120838095D01*
X176666666Y-120800000D01*
X176600000Y-120761904D01*
X176466666Y-120761904D01*
X176400000Y-120800000D01*
X176366666Y-120838095D01*
X176333333Y-120914285D01*
X176333333Y-121104761D01*
X176366666Y-121180952D01*
X176400000Y-121219047D01*
X176466666Y-121257142D01*
X176600000Y-121257142D01*
X176666666Y-121219047D01*
X176700000Y-121180952D01*
X176733333Y-121104761D01*
X177066666Y-121561904D02*
X177200000Y-121561904D01*
X177266666Y-121523809D01*
X177300000Y-121485714D01*
X177366666Y-121371428D01*
X177400000Y-121219047D01*
X177400000Y-120914285D01*
X177366666Y-120838095D01*
X177333333Y-120800000D01*
X177266666Y-120761904D01*
X177133333Y-120761904D01*
X177066666Y-120800000D01*
X177033333Y-120838095D01*
X177000000Y-120914285D01*
X177000000Y-121104761D01*
X177033333Y-121180952D01*
X177066666Y-121219047D01*
X177133333Y-121257142D01*
X177266666Y-121257142D01*
X177333333Y-121219047D01*
X177366666Y-121180952D01*
X177400000Y-121104761D01*
X178066666Y-121561904D02*
X177666666Y-121561904D01*
X177866666Y-121561904D02*
X177866666Y-120761904D01*
X177800000Y-120876190D01*
X177733333Y-120952380D01*
X177666666Y-120990476D01*
X178866666Y-120723809D02*
X178266666Y-121752380D01*
X174433333Y-122936904D02*
X174200000Y-122555952D01*
X174033333Y-122936904D02*
X174033333Y-122136904D01*
X174300000Y-122136904D01*
X174366666Y-122175000D01*
X174400000Y-122213095D01*
X174433333Y-122289285D01*
X174433333Y-122403571D01*
X174400000Y-122479761D01*
X174366666Y-122517857D01*
X174300000Y-122555952D01*
X174033333Y-122555952D01*
X174733333Y-122936904D02*
X174733333Y-122136904D01*
X175033333Y-122898809D02*
X175133333Y-122936904D01*
X175300000Y-122936904D01*
X175366666Y-122898809D01*
X175400000Y-122860714D01*
X175433333Y-122784523D01*
X175433333Y-122708333D01*
X175400000Y-122632142D01*
X175366666Y-122594047D01*
X175300000Y-122555952D01*
X175166666Y-122517857D01*
X175100000Y-122479761D01*
X175066666Y-122441666D01*
X175033333Y-122365476D01*
X175033333Y-122289285D01*
X175066666Y-122213095D01*
X175100000Y-122175000D01*
X175166666Y-122136904D01*
X175333333Y-122136904D01*
X175433333Y-122175000D01*
X176133333Y-122860714D02*
X176100000Y-122898809D01*
X176000000Y-122936904D01*
X175933333Y-122936904D01*
X175833333Y-122898809D01*
X175766666Y-122822619D01*
X175733333Y-122746428D01*
X175700000Y-122594047D01*
X175700000Y-122479761D01*
X175733333Y-122327380D01*
X175766666Y-122251190D01*
X175833333Y-122175000D01*
X175933333Y-122136904D01*
X176000000Y-122136904D01*
X176100000Y-122175000D01*
X176133333Y-122213095D01*
X176666666Y-122517857D02*
X176766666Y-122555952D01*
X176800000Y-122594047D01*
X176833333Y-122670238D01*
X176833333Y-122784523D01*
X176800000Y-122860714D01*
X176766666Y-122898809D01*
X176700000Y-122936904D01*
X176433333Y-122936904D01*
X176433333Y-122136904D01*
X176666666Y-122136904D01*
X176733333Y-122175000D01*
X176766666Y-122213095D01*
X176800000Y-122289285D01*
X176800000Y-122365476D01*
X176766666Y-122441666D01*
X176733333Y-122479761D01*
X176666666Y-122517857D01*
X176433333Y-122517857D01*
X177233333Y-122936904D02*
X177166666Y-122898809D01*
X177133333Y-122860714D01*
X177100000Y-122784523D01*
X177100000Y-122555952D01*
X177133333Y-122479761D01*
X177166666Y-122441666D01*
X177233333Y-122403571D01*
X177333333Y-122403571D01*
X177400000Y-122441666D01*
X177433333Y-122479761D01*
X177466666Y-122555952D01*
X177466666Y-122784523D01*
X177433333Y-122860714D01*
X177400000Y-122898809D01*
X177333333Y-122936904D01*
X177233333Y-122936904D01*
X177700000Y-122403571D02*
X177866666Y-122936904D01*
X178033333Y-122403571D02*
X177866666Y-122936904D01*
X177800000Y-123127380D01*
X177766666Y-123165476D01*
X177700000Y-123203571D01*
D10*
X141525000Y-102875000D02*
X142775000Y-103150000D01*
X148000000Y-108000000D02*
X147600000Y-107600000D01*
D12*
X173114285Y-115492857D02*
X172714285Y-114921428D01*
X172428571Y-115492857D02*
X172428571Y-114292857D01*
X172885714Y-114292857D01*
X173000000Y-114350000D01*
X173057142Y-114407142D01*
X173114285Y-114521428D01*
X173114285Y-114692857D01*
X173057142Y-114807142D01*
X173000000Y-114864285D01*
X172885714Y-114921428D01*
X172428571Y-114921428D01*
X173628571Y-115492857D02*
X173628571Y-114292857D01*
X174142857Y-115435714D02*
X174314285Y-115492857D01*
X174600000Y-115492857D01*
X174714285Y-115435714D01*
X174771428Y-115378571D01*
X174828571Y-115264285D01*
X174828571Y-115150000D01*
X174771428Y-115035714D01*
X174714285Y-114978571D01*
X174600000Y-114921428D01*
X174371428Y-114864285D01*
X174257142Y-114807142D01*
X174200000Y-114750000D01*
X174142857Y-114635714D01*
X174142857Y-114521428D01*
X174200000Y-114407142D01*
X174257142Y-114350000D01*
X174371428Y-114292857D01*
X174657142Y-114292857D01*
X174828571Y-114350000D01*
X176028571Y-115378571D02*
X175971428Y-115435714D01*
X175800000Y-115492857D01*
X175685714Y-115492857D01*
X175514285Y-115435714D01*
X175400000Y-115321428D01*
X175342857Y-115207142D01*
X175285714Y-114978571D01*
X175285714Y-114807142D01*
X175342857Y-114578571D01*
X175400000Y-114464285D01*
X175514285Y-114350000D01*
X175685714Y-114292857D01*
X175800000Y-114292857D01*
X175971428Y-114350000D01*
X176028571Y-114407142D01*
X176942857Y-114864285D02*
X177114285Y-114921428D01*
X177171428Y-114978571D01*
X177228571Y-115092857D01*
X177228571Y-115264285D01*
X177171428Y-115378571D01*
X177114285Y-115435714D01*
X177000000Y-115492857D01*
X176542857Y-115492857D01*
X176542857Y-114292857D01*
X176942857Y-114292857D01*
X177057142Y-114350000D01*
X177114285Y-114407142D01*
X177171428Y-114521428D01*
X177171428Y-114635714D01*
X177114285Y-114750000D01*
X177057142Y-114807142D01*
X176942857Y-114864285D01*
X176542857Y-114864285D01*
X177914285Y-115492857D02*
X177800000Y-115435714D01*
X177742857Y-115378571D01*
X177685714Y-115264285D01*
X177685714Y-114921428D01*
X177742857Y-114807142D01*
X177800000Y-114750000D01*
X177914285Y-114692857D01*
X178085714Y-114692857D01*
X178200000Y-114750000D01*
X178257142Y-114807142D01*
X178314285Y-114921428D01*
X178314285Y-115264285D01*
X178257142Y-115378571D01*
X178200000Y-115435714D01*
X178085714Y-115492857D01*
X177914285Y-115492857D01*
X178714285Y-114692857D02*
X179000000Y-115492857D01*
X179285714Y-114692857D02*
X179000000Y-115492857D01*
X178885714Y-115778571D01*
X178828571Y-115835714D01*
X178714285Y-115892857D01*
X174228571Y-117592857D02*
X173828571Y-117021428D01*
X173542857Y-117592857D02*
X173542857Y-116392857D01*
X174000000Y-116392857D01*
X174114285Y-116450000D01*
X174171428Y-116507142D01*
X174228571Y-116621428D01*
X174228571Y-116792857D01*
X174171428Y-116907142D01*
X174114285Y-116964285D01*
X174000000Y-117021428D01*
X173542857Y-117021428D01*
X175200000Y-117535714D02*
X175085714Y-117592857D01*
X174857142Y-117592857D01*
X174742857Y-117535714D01*
X174685714Y-117421428D01*
X174685714Y-116964285D01*
X174742857Y-116850000D01*
X174857142Y-116792857D01*
X175085714Y-116792857D01*
X175200000Y-116850000D01*
X175257142Y-116964285D01*
X175257142Y-117078571D01*
X174685714Y-117192857D01*
X175657142Y-116792857D02*
X175942857Y-117592857D01*
X176228571Y-116792857D01*
X177542857Y-117250000D02*
X178114285Y-117250000D01*
X177428571Y-117592857D02*
X177828571Y-116392857D01*
X178228571Y-117592857D01*
D10*
X148000000Y-101600000D02*
X147600000Y-102000000D01*
X167225000Y-109775000D02*
X168300000Y-108800000D01*
D13*
G04 #@! TO.C,D1*
X147185000Y-127540000D02*
X144500000Y-127540000D01*
X147185000Y-129460000D02*
X147185000Y-127540000D01*
X144500000Y-129460000D02*
X147185000Y-129460000D01*
G04 #@! TO.C,C9*
X169662779Y-109490000D02*
X169337221Y-109490000D01*
X169662779Y-110510000D02*
X169337221Y-110510000D01*
D14*
G04 #@! TO.C,U1*
X157350000Y-102600000D02*
X157350000Y-100350000D01*
X157350000Y-100350000D02*
X159600000Y-100350000D01*
X157350000Y-102600000D02*
X157350000Y-100350000D01*
X157350000Y-100350000D02*
X159600000Y-100350000D01*
X166650000Y-102600000D02*
X166650000Y-100350000D01*
X166650000Y-100350000D02*
X164400000Y-100350000D01*
X157350000Y-102600000D02*
X157350000Y-100350000D01*
X157350000Y-100350000D02*
X159600000Y-100350000D01*
X166650000Y-107400000D02*
X166650000Y-109650000D01*
X166650000Y-109650000D02*
X164400000Y-109650000D01*
X157350000Y-107400000D02*
X157350000Y-108500000D01*
X158500000Y-109650000D02*
X159600000Y-109650000D01*
D10*
X157600000Y-109500000D02*
G75*
G03X157600000Y-109500000I-100000J0D01*
G01*
D13*
G04 #@! TO.C,C1*
X173990000Y-104337221D02*
X173990000Y-104662779D01*
X175010000Y-104337221D02*
X175010000Y-104662779D01*
G04 #@! TO.C,C2*
X176490000Y-104337221D02*
X176490000Y-104662779D01*
X177510000Y-104337221D02*
X177510000Y-104662779D01*
G04 #@! TO.C,C3*
X169662779Y-103990000D02*
X169337221Y-103990000D01*
X169662779Y-105010000D02*
X169337221Y-105010000D01*
G04 #@! TO.C,C4*
X172510000Y-107837221D02*
X172510000Y-108162779D01*
X171490000Y-107837221D02*
X171490000Y-108162779D01*
G04 #@! TO.C,C5*
X154337221Y-103490000D02*
X154662779Y-103490000D01*
X154337221Y-104510000D02*
X154662779Y-104510000D01*
G04 #@! TO.C,C6*
X154662779Y-106490000D02*
X154337221Y-106490000D01*
X154662779Y-107510000D02*
X154337221Y-107510000D01*
G04 #@! TO.C,C7*
X169337221Y-100990000D02*
X169662779Y-100990000D01*
X169337221Y-102010000D02*
X169662779Y-102010000D01*
G04 #@! TO.C,C8*
X154662779Y-103010000D02*
X154337221Y-103010000D01*
X154662779Y-101990000D02*
X154337221Y-101990000D01*
G04 #@! TO.C,C10*
X169337221Y-100510000D02*
X169662779Y-100510000D01*
X169337221Y-99490000D02*
X169662779Y-99490000D01*
G04 #@! TO.C,C11*
X154662779Y-101510000D02*
X154337221Y-101510000D01*
X154662779Y-100490000D02*
X154337221Y-100490000D01*
G04 #@! TO.C,C12*
X162562779Y-98910000D02*
X162237221Y-98910000D01*
X162562779Y-97890000D02*
X162237221Y-97890000D01*
G04 #@! TO.C,C13*
X154662779Y-107990000D02*
X154337221Y-107990000D01*
X154662779Y-109010000D02*
X154337221Y-109010000D01*
G04 #@! TO.C,C14*
X136662779Y-101490000D02*
X136337221Y-101490000D01*
X136662779Y-102510000D02*
X136337221Y-102510000D01*
G04 #@! TO.C,C15*
X161837221Y-127990000D02*
X162162779Y-127990000D01*
X161837221Y-129010000D02*
X162162779Y-129010000D01*
G04 #@! TO.C,C16*
X162162779Y-114010000D02*
X161837221Y-114010000D01*
X162162779Y-112990000D02*
X161837221Y-112990000D01*
G04 #@! TO.C,C17*
X161990000Y-86337221D02*
X161990000Y-86662779D01*
X163010000Y-86337221D02*
X163010000Y-86662779D01*
G04 #@! TO.C,C18*
X149510000Y-95337221D02*
X149510000Y-95662779D01*
X148490000Y-95337221D02*
X148490000Y-95662779D01*
G04 #@! TO.C,C19*
X146990000Y-95337221D02*
X146990000Y-95662779D01*
X148010000Y-95337221D02*
X148010000Y-95662779D01*
G04 #@! TO.C,C20*
X141490000Y-105162779D02*
X141490000Y-104837221D01*
X142510000Y-105162779D02*
X142510000Y-104837221D01*
G04 #@! TO.C,C21*
X136010000Y-92337221D02*
X136010000Y-92662779D01*
X134990000Y-92337221D02*
X134990000Y-92662779D01*
G04 #@! TO.C,C22*
X136490000Y-92337221D02*
X136490000Y-92662779D01*
X137510000Y-92337221D02*
X137510000Y-92662779D01*
G04 #@! TO.C,C23*
X144337221Y-86990000D02*
X144662779Y-86990000D01*
X144337221Y-88010000D02*
X144662779Y-88010000D01*
G04 #@! TO.C,C24*
X143991942Y-109027088D02*
X143991942Y-108701530D01*
X142971942Y-109027088D02*
X142971942Y-108701530D01*
G04 #@! TO.C,C25*
X142971942Y-100701530D02*
X142971942Y-101027088D01*
X143991942Y-100701530D02*
X143991942Y-101027088D01*
G04 #@! TO.C,C26*
X146471942Y-106527088D02*
X146471942Y-106201530D01*
X147491942Y-106527088D02*
X147491942Y-106201530D01*
G04 #@! TO.C,C27*
X147491942Y-103201530D02*
X147491942Y-103527088D01*
X146471942Y-103201530D02*
X146471942Y-103527088D01*
G04 #@! TO.C,C28*
X148471942Y-106527088D02*
X148471942Y-106201530D01*
X149491942Y-106527088D02*
X149491942Y-106201530D01*
G04 #@! TO.C,C29*
X148471942Y-103201530D02*
X148471942Y-103527088D01*
X149491942Y-103201530D02*
X149491942Y-103527088D01*
G04 #@! TO.C,J1*
X130560000Y-123330000D02*
X130560000Y-92730000D01*
X130560000Y-92730000D02*
X127900000Y-92730000D01*
X127900000Y-92730000D02*
X127900000Y-123330000D01*
X127900000Y-123330000D02*
X130560000Y-123330000D01*
X127900000Y-122380000D02*
X121900000Y-122380000D01*
X121900000Y-122380000D02*
X121900000Y-121620000D01*
X121900000Y-121620000D02*
X127900000Y-121620000D01*
X127900000Y-122320000D02*
X121900000Y-122320000D01*
X127900000Y-122200000D02*
X121900000Y-122200000D01*
X127900000Y-122080000D02*
X121900000Y-122080000D01*
X127900000Y-121960000D02*
X121900000Y-121960000D01*
X127900000Y-121840000D02*
X121900000Y-121840000D01*
X127900000Y-121720000D02*
X121900000Y-121720000D01*
X130890000Y-122380000D02*
X130560000Y-122380000D01*
X130890000Y-121620000D02*
X130560000Y-121620000D01*
X130560000Y-120730000D02*
X127900000Y-120730000D01*
X127900000Y-119840000D02*
X121900000Y-119840000D01*
X121900000Y-119840000D02*
X121900000Y-119080000D01*
X121900000Y-119080000D02*
X127900000Y-119080000D01*
X130957071Y-119840000D02*
X130560000Y-119840000D01*
X130957071Y-119080000D02*
X130560000Y-119080000D01*
X130560000Y-118190000D02*
X127900000Y-118190000D01*
X127900000Y-117300000D02*
X121900000Y-117300000D01*
X121900000Y-117300000D02*
X121900000Y-116540000D01*
X121900000Y-116540000D02*
X127900000Y-116540000D01*
X130957071Y-117300000D02*
X130560000Y-117300000D01*
X130957071Y-116540000D02*
X130560000Y-116540000D01*
X130560000Y-115650000D02*
X127900000Y-115650000D01*
X127900000Y-114760000D02*
X121900000Y-114760000D01*
X121900000Y-114760000D02*
X121900000Y-114000000D01*
X121900000Y-114000000D02*
X127900000Y-114000000D01*
X130957071Y-114760000D02*
X130560000Y-114760000D01*
X130957071Y-114000000D02*
X130560000Y-114000000D01*
X130560000Y-113110000D02*
X127900000Y-113110000D01*
X127900000Y-112220000D02*
X121900000Y-112220000D01*
X121900000Y-112220000D02*
X121900000Y-111460000D01*
X121900000Y-111460000D02*
X127900000Y-111460000D01*
X130957071Y-112220000D02*
X130560000Y-112220000D01*
X130957071Y-111460000D02*
X130560000Y-111460000D01*
X130560000Y-110570000D02*
X127900000Y-110570000D01*
X127900000Y-109680000D02*
X121900000Y-109680000D01*
X121900000Y-109680000D02*
X121900000Y-108920000D01*
X121900000Y-108920000D02*
X127900000Y-108920000D01*
X130957071Y-109680000D02*
X130560000Y-109680000D01*
X130957071Y-108920000D02*
X130560000Y-108920000D01*
X130560000Y-108030000D02*
X127900000Y-108030000D01*
X127900000Y-107140000D02*
X121900000Y-107140000D01*
X121900000Y-107140000D02*
X121900000Y-106380000D01*
X121900000Y-106380000D02*
X127900000Y-106380000D01*
X130957071Y-107140000D02*
X130560000Y-107140000D01*
X130957071Y-106380000D02*
X130560000Y-106380000D01*
X130560000Y-105490000D02*
X127900000Y-105490000D01*
X127900000Y-104600000D02*
X121900000Y-104600000D01*
X121900000Y-104600000D02*
X121900000Y-103840000D01*
X121900000Y-103840000D02*
X127900000Y-103840000D01*
X130957071Y-104600000D02*
X130560000Y-104600000D01*
X130957071Y-103840000D02*
X130560000Y-103840000D01*
X130560000Y-102950000D02*
X127900000Y-102950000D01*
X127900000Y-102060000D02*
X121900000Y-102060000D01*
X121900000Y-102060000D02*
X121900000Y-101300000D01*
X121900000Y-101300000D02*
X127900000Y-101300000D01*
X130957071Y-102060000D02*
X130560000Y-102060000D01*
X130957071Y-101300000D02*
X130560000Y-101300000D01*
X130560000Y-100410000D02*
X127900000Y-100410000D01*
X127900000Y-99520000D02*
X121900000Y-99520000D01*
X121900000Y-99520000D02*
X121900000Y-98760000D01*
X121900000Y-98760000D02*
X127900000Y-98760000D01*
X130957071Y-99520000D02*
X130560000Y-99520000D01*
X130957071Y-98760000D02*
X130560000Y-98760000D01*
X130560000Y-97870000D02*
X127900000Y-97870000D01*
X127900000Y-96980000D02*
X121900000Y-96980000D01*
X121900000Y-96980000D02*
X121900000Y-96220000D01*
X121900000Y-96220000D02*
X127900000Y-96220000D01*
X130957071Y-96980000D02*
X130560000Y-96980000D01*
X130957071Y-96220000D02*
X130560000Y-96220000D01*
X130560000Y-95330000D02*
X127900000Y-95330000D01*
X127900000Y-94440000D02*
X121900000Y-94440000D01*
X121900000Y-94440000D02*
X121900000Y-93680000D01*
X121900000Y-93680000D02*
X127900000Y-93680000D01*
X130957071Y-94440000D02*
X130560000Y-94440000D01*
X130957071Y-93680000D02*
X130560000Y-93680000D01*
X133270000Y-122000000D02*
X133270000Y-123270000D01*
X133270000Y-123270000D02*
X132000000Y-123270000D01*
G04 #@! TO.C,J3*
X147565000Y-89075000D02*
X147565000Y-82775000D01*
X160435000Y-88375000D02*
X160435000Y-82775000D01*
X147565000Y-92785000D02*
X147565000Y-90975000D01*
X160435000Y-92785000D02*
X149175000Y-92785000D01*
X160435000Y-91625000D02*
X160435000Y-92785000D01*
X147675000Y-92785000D02*
X147565000Y-92785000D01*
D14*
G04 #@! TO.C,P3*
X146350900Y-79182540D02*
X137650900Y-79182540D01*
X146350900Y-85587540D02*
X137650900Y-85587540D01*
X137650900Y-85587540D02*
X137650900Y-79182540D01*
X137650900Y-80412540D02*
X146350900Y-80412540D01*
X146350900Y-79182540D02*
X146350900Y-85587540D01*
G04 #@! TO.C,SW1*
X171250000Y-83250000D02*
X171250000Y-84250000D01*
X171250000Y-84250000D02*
X162750000Y-84250000D01*
X162750000Y-84250000D02*
X162750000Y-83250000D01*
X162750000Y-80750000D02*
X162750000Y-79750000D01*
X162750000Y-79750000D02*
X171250000Y-79750000D01*
X171250000Y-79750000D02*
X171250000Y-80750000D01*
G04 #@! TO.C,U2*
X170700000Y-107100000D02*
X170700000Y-108900000D01*
X168300000Y-107100000D02*
X170700000Y-107100000D01*
X168300000Y-108900000D02*
X168300000Y-107100000D01*
X170700000Y-108900000D02*
X168300000Y-108900000D01*
G04 #@! TO.C,U3*
X153500000Y-124500000D02*
G75*
G03X153500000Y-124500000I-500000J0D01*
G01*
X152000000Y-125500000D02*
X152000000Y-116500000D01*
X172000000Y-125500000D02*
X152000000Y-125500000D01*
X172000000Y-116500000D02*
X172000000Y-125500000D01*
X152000000Y-116500000D02*
X172000000Y-116500000D01*
G04 #@! TO.C,U5*
X146231942Y-106614309D02*
X145731942Y-106614309D01*
X146231942Y-103114309D02*
X145731942Y-103114309D01*
X142731942Y-103114309D02*
X143231942Y-103114309D01*
X142731942Y-106114309D02*
X143231942Y-106614309D01*
X142731942Y-103114309D02*
X142731942Y-106114309D01*
X146231942Y-103114309D02*
X146231942Y-106614309D01*
G04 #@! TO.C,U6*
X138350000Y-89750000D02*
X138350000Y-89350000D01*
X138350000Y-89350000D02*
X138750000Y-89350000D01*
X145650000Y-89750000D02*
X145650000Y-89350000D01*
X145650000Y-89350000D02*
X145250000Y-89350000D01*
X145650000Y-96250000D02*
X145650000Y-96650000D01*
X145650000Y-96650000D02*
X145250000Y-96650000D01*
X138350000Y-96250000D02*
X138350000Y-96900000D01*
D13*
G04 #@! TO.C,D2*
X138500000Y-129460000D02*
X141185000Y-129460000D01*
X141185000Y-129460000D02*
X141185000Y-127540000D01*
X141185000Y-127540000D02*
X138500000Y-127540000D01*
G04 #@! TO.C,L1*
X145660864Y-108154309D02*
X146178020Y-108154309D01*
X145660864Y-109574309D02*
X146178020Y-109574309D01*
G04 #@! TO.C,L2*
X145723364Y-101574309D02*
X146240520Y-101574309D01*
X145723364Y-100154309D02*
X146240520Y-100154309D01*
G04 #@! TO.C,R1*
X170124721Y-89490000D02*
X170450279Y-89490000D01*
X170124721Y-90510000D02*
X170450279Y-90510000D01*
G04 #@! TO.C,R2*
X170510000Y-96162779D02*
X170510000Y-95837221D01*
X169490000Y-96162779D02*
X169490000Y-95837221D01*
G04 #@! TO.C,R3*
X170990000Y-96162779D02*
X170990000Y-95837221D01*
X172010000Y-96162779D02*
X172010000Y-95837221D01*
G04 #@! TO.C,R4*
X173510000Y-96162779D02*
X173510000Y-95837221D01*
X172490000Y-96162779D02*
X172490000Y-95837221D01*
G04 #@! TO.C,R5*
X173990000Y-96162779D02*
X173990000Y-95837221D01*
X175010000Y-96162779D02*
X175010000Y-95837221D01*
G04 #@! TO.C,R6*
X145662779Y-125990000D02*
X145337221Y-125990000D01*
X145662779Y-127010000D02*
X145337221Y-127010000D01*
G04 #@! TO.C,R7*
X169337221Y-106510000D02*
X169662779Y-106510000D01*
X169337221Y-105490000D02*
X169662779Y-105490000D01*
G04 #@! TO.C,R8*
X154662779Y-106010000D02*
X154337221Y-106010000D01*
X154662779Y-104990000D02*
X154337221Y-104990000D01*
G04 #@! TO.C,R9*
X136337221Y-101010000D02*
X136662779Y-101010000D01*
X136337221Y-99990000D02*
X136662779Y-99990000D01*
G04 #@! TO.C,R10*
X136662779Y-108510000D02*
X136337221Y-108510000D01*
X136662779Y-107490000D02*
X136337221Y-107490000D01*
G04 #@! TO.C,R11*
X139662779Y-125990000D02*
X139337221Y-125990000D01*
X139662779Y-127010000D02*
X139337221Y-127010000D01*
G04 #@! TO.C,R12*
X167087221Y-86490000D02*
X167412779Y-86490000D01*
X167087221Y-87510000D02*
X167412779Y-87510000D01*
G04 #@! TO.C,R16*
X139162779Y-88010000D02*
X138837221Y-88010000D01*
X139162779Y-86990000D02*
X138837221Y-86990000D01*
G04 #@! TO.C,R17*
X142491942Y-109027088D02*
X142491942Y-108701530D01*
X141471942Y-109027088D02*
X141471942Y-108701530D01*
G04 #@! TO.C,R18*
X140991942Y-108701530D02*
X140991942Y-109027088D01*
X139971942Y-108701530D02*
X139971942Y-109027088D01*
G04 #@! TO.C,R19*
X141471942Y-100701530D02*
X141471942Y-101027088D01*
X142491942Y-100701530D02*
X142491942Y-101027088D01*
G04 #@! TO.C,R20*
X139971942Y-101027088D02*
X139971942Y-100701530D01*
X140991942Y-101027088D02*
X140991942Y-100701530D01*
G04 #@! TO.C,U4*
X135600000Y-106610000D02*
X137400000Y-106610000D01*
X137400000Y-103390000D02*
X134950000Y-103390000D01*
G04 #@! TO.C,P2*
X135870000Y-89830000D02*
X135870000Y-87170000D01*
X133270000Y-89830000D02*
X135870000Y-89830000D01*
X133270000Y-87170000D02*
X135870000Y-87170000D01*
X133270000Y-89830000D02*
X133270000Y-87170000D01*
X132000000Y-89830000D02*
X130670000Y-89830000D01*
X130670000Y-89830000D02*
X130670000Y-88500000D01*
G04 #@! TO.C,Q1*
X174260000Y-94330000D02*
X174260000Y-93400000D01*
X174260000Y-91170000D02*
X174260000Y-92100000D01*
X174260000Y-91170000D02*
X172100000Y-91170000D01*
X174260000Y-94330000D02*
X172800000Y-94330000D01*
G04 #@! TO.C,J2*
X135170000Y-123330000D02*
X135170000Y-122000000D01*
X136500000Y-123330000D02*
X135170000Y-123330000D01*
X137770000Y-123330000D02*
X137770000Y-120670000D01*
X137770000Y-120670000D02*
X150530000Y-120670000D01*
X137770000Y-123330000D02*
X150530000Y-123330000D01*
X150530000Y-123330000D02*
X150530000Y-120670000D01*
G04 #@! TO.C,J4*
X150530000Y-119330000D02*
X150530000Y-116670000D01*
X137770000Y-119330000D02*
X150530000Y-119330000D01*
X137770000Y-116670000D02*
X150530000Y-116670000D01*
X137770000Y-119330000D02*
X137770000Y-116670000D01*
X136500000Y-119330000D02*
X135170000Y-119330000D01*
X135170000Y-119330000D02*
X135170000Y-118000000D01*
G04 #@! TO.C,C30*
X170087221Y-87990000D02*
X170412779Y-87990000D01*
X170087221Y-89010000D02*
X170412779Y-89010000D01*
G04 #@! TO.C,P4*
X178370000Y-89830000D02*
X178370000Y-87170000D01*
X175770000Y-89830000D02*
X178370000Y-89830000D01*
X175770000Y-87170000D02*
X178370000Y-87170000D01*
X175770000Y-89830000D02*
X175770000Y-87170000D01*
X174500000Y-89830000D02*
X173170000Y-89830000D01*
X173170000Y-89830000D02*
X173170000Y-88500000D01*
G04 #@! TO.C,R13*
X167087221Y-89010000D02*
X167412779Y-89010000D01*
X167087221Y-87990000D02*
X167412779Y-87990000D01*
G04 #@! TO.C,R14*
X170087221Y-86490000D02*
X170412779Y-86490000D01*
X170087221Y-87510000D02*
X170412779Y-87510000D01*
G04 #@! TO.C,R15*
X167087221Y-89490000D02*
X167412779Y-89490000D01*
X167087221Y-90510000D02*
X167412779Y-90510000D01*
G04 #@! TO.C,D1*
D14*
X147409523Y-128861904D02*
X147409523Y-128061904D01*
X147600000Y-128061904D01*
X147714285Y-128100000D01*
X147790476Y-128176190D01*
X147828571Y-128252380D01*
X147866666Y-128404761D01*
X147866666Y-128519047D01*
X147828571Y-128671428D01*
X147790476Y-128747619D01*
X147714285Y-128823809D01*
X147600000Y-128861904D01*
X147409523Y-128861904D01*
X148628571Y-128861904D02*
X148171428Y-128861904D01*
X148400000Y-128861904D02*
X148400000Y-128061904D01*
X148323809Y-128176190D01*
X148247619Y-128252380D01*
X148171428Y-128290476D01*
G04 #@! TO.C,C9*
X169366666Y-111715714D02*
X169328571Y-111753809D01*
X169214285Y-111791904D01*
X169138095Y-111791904D01*
X169023809Y-111753809D01*
X168947619Y-111677619D01*
X168909523Y-111601428D01*
X168871428Y-111449047D01*
X168871428Y-111334761D01*
X168909523Y-111182380D01*
X168947619Y-111106190D01*
X169023809Y-111030000D01*
X169138095Y-110991904D01*
X169214285Y-110991904D01*
X169328571Y-111030000D01*
X169366666Y-111068095D01*
X169747619Y-111791904D02*
X169900000Y-111791904D01*
X169976190Y-111753809D01*
X170014285Y-111715714D01*
X170090476Y-111601428D01*
X170128571Y-111449047D01*
X170128571Y-111144285D01*
X170090476Y-111068095D01*
X170052380Y-111030000D01*
X169976190Y-110991904D01*
X169823809Y-110991904D01*
X169747619Y-111030000D01*
X169709523Y-111068095D01*
X169671428Y-111144285D01*
X169671428Y-111334761D01*
X169709523Y-111410952D01*
X169747619Y-111449047D01*
X169823809Y-111487142D01*
X169976190Y-111487142D01*
X170052380Y-111449047D01*
X170090476Y-111410952D01*
X170128571Y-111334761D01*
G04 #@! TO.C,U1*
X161490476Y-110261904D02*
X161490476Y-110909523D01*
X161528571Y-110985714D01*
X161566666Y-111023809D01*
X161642857Y-111061904D01*
X161795238Y-111061904D01*
X161871428Y-111023809D01*
X161909523Y-110985714D01*
X161947619Y-110909523D01*
X161947619Y-110261904D01*
X162747619Y-111061904D02*
X162290476Y-111061904D01*
X162519047Y-111061904D02*
X162519047Y-110261904D01*
X162442857Y-110376190D01*
X162366666Y-110452380D01*
X162290476Y-110490476D01*
G04 #@! TO.C,C1*
X174366666Y-106785714D02*
X174328571Y-106823809D01*
X174214285Y-106861904D01*
X174138095Y-106861904D01*
X174023809Y-106823809D01*
X173947619Y-106747619D01*
X173909523Y-106671428D01*
X173871428Y-106519047D01*
X173871428Y-106404761D01*
X173909523Y-106252380D01*
X173947619Y-106176190D01*
X174023809Y-106100000D01*
X174138095Y-106061904D01*
X174214285Y-106061904D01*
X174328571Y-106100000D01*
X174366666Y-106138095D01*
X175128571Y-106861904D02*
X174671428Y-106861904D01*
X174900000Y-106861904D02*
X174900000Y-106061904D01*
X174823809Y-106176190D01*
X174747619Y-106252380D01*
X174671428Y-106290476D01*
G04 #@! TO.C,C2*
X176866666Y-106885714D02*
X176828571Y-106923809D01*
X176714285Y-106961904D01*
X176638095Y-106961904D01*
X176523809Y-106923809D01*
X176447619Y-106847619D01*
X176409523Y-106771428D01*
X176371428Y-106619047D01*
X176371428Y-106504761D01*
X176409523Y-106352380D01*
X176447619Y-106276190D01*
X176523809Y-106200000D01*
X176638095Y-106161904D01*
X176714285Y-106161904D01*
X176828571Y-106200000D01*
X176866666Y-106238095D01*
X177171428Y-106238095D02*
X177209523Y-106200000D01*
X177285714Y-106161904D01*
X177476190Y-106161904D01*
X177552380Y-106200000D01*
X177590476Y-106238095D01*
X177628571Y-106314285D01*
X177628571Y-106390476D01*
X177590476Y-106504761D01*
X177133333Y-106961904D01*
X177628571Y-106961904D01*
G04 #@! TO.C,C3*
X171866666Y-104785714D02*
X171828571Y-104823809D01*
X171714285Y-104861904D01*
X171638095Y-104861904D01*
X171523809Y-104823809D01*
X171447619Y-104747619D01*
X171409523Y-104671428D01*
X171371428Y-104519047D01*
X171371428Y-104404761D01*
X171409523Y-104252380D01*
X171447619Y-104176190D01*
X171523809Y-104100000D01*
X171638095Y-104061904D01*
X171714285Y-104061904D01*
X171828571Y-104100000D01*
X171866666Y-104138095D01*
X172133333Y-104061904D02*
X172628571Y-104061904D01*
X172361904Y-104366666D01*
X172476190Y-104366666D01*
X172552380Y-104404761D01*
X172590476Y-104442857D01*
X172628571Y-104519047D01*
X172628571Y-104709523D01*
X172590476Y-104785714D01*
X172552380Y-104823809D01*
X172476190Y-104861904D01*
X172247619Y-104861904D01*
X172171428Y-104823809D01*
X172133333Y-104785714D01*
G04 #@! TO.C,C4*
X173466666Y-108285714D02*
X173428571Y-108323809D01*
X173314285Y-108361904D01*
X173238095Y-108361904D01*
X173123809Y-108323809D01*
X173047619Y-108247619D01*
X173009523Y-108171428D01*
X172971428Y-108019047D01*
X172971428Y-107904761D01*
X173009523Y-107752380D01*
X173047619Y-107676190D01*
X173123809Y-107600000D01*
X173238095Y-107561904D01*
X173314285Y-107561904D01*
X173428571Y-107600000D01*
X173466666Y-107638095D01*
X174152380Y-107828571D02*
X174152380Y-108361904D01*
X173961904Y-107523809D02*
X173771428Y-108095238D01*
X174266666Y-108095238D01*
G04 #@! TO.C,C5*
X151866666Y-104285714D02*
X151828571Y-104323809D01*
X151714285Y-104361904D01*
X151638095Y-104361904D01*
X151523809Y-104323809D01*
X151447619Y-104247619D01*
X151409523Y-104171428D01*
X151371428Y-104019047D01*
X151371428Y-103904761D01*
X151409523Y-103752380D01*
X151447619Y-103676190D01*
X151523809Y-103600000D01*
X151638095Y-103561904D01*
X151714285Y-103561904D01*
X151828571Y-103600000D01*
X151866666Y-103638095D01*
X152590476Y-103561904D02*
X152209523Y-103561904D01*
X152171428Y-103942857D01*
X152209523Y-103904761D01*
X152285714Y-103866666D01*
X152476190Y-103866666D01*
X152552380Y-103904761D01*
X152590476Y-103942857D01*
X152628571Y-104019047D01*
X152628571Y-104209523D01*
X152590476Y-104285714D01*
X152552380Y-104323809D01*
X152476190Y-104361904D01*
X152285714Y-104361904D01*
X152209523Y-104323809D01*
X152171428Y-104285714D01*
G04 #@! TO.C,C6*
X151866666Y-107285714D02*
X151828571Y-107323809D01*
X151714285Y-107361904D01*
X151638095Y-107361904D01*
X151523809Y-107323809D01*
X151447619Y-107247619D01*
X151409523Y-107171428D01*
X151371428Y-107019047D01*
X151371428Y-106904761D01*
X151409523Y-106752380D01*
X151447619Y-106676190D01*
X151523809Y-106600000D01*
X151638095Y-106561904D01*
X151714285Y-106561904D01*
X151828571Y-106600000D01*
X151866666Y-106638095D01*
X152552380Y-106561904D02*
X152400000Y-106561904D01*
X152323809Y-106600000D01*
X152285714Y-106638095D01*
X152209523Y-106752380D01*
X152171428Y-106904761D01*
X152171428Y-107209523D01*
X152209523Y-107285714D01*
X152247619Y-107323809D01*
X152323809Y-107361904D01*
X152476190Y-107361904D01*
X152552380Y-107323809D01*
X152590476Y-107285714D01*
X152628571Y-107209523D01*
X152628571Y-107019047D01*
X152590476Y-106942857D01*
X152552380Y-106904761D01*
X152476190Y-106866666D01*
X152323809Y-106866666D01*
X152247619Y-106904761D01*
X152209523Y-106942857D01*
X152171428Y-107019047D01*
G04 #@! TO.C,C7*
X171566666Y-101810714D02*
X171528571Y-101848809D01*
X171414285Y-101886904D01*
X171338095Y-101886904D01*
X171223809Y-101848809D01*
X171147619Y-101772619D01*
X171109523Y-101696428D01*
X171071428Y-101544047D01*
X171071428Y-101429761D01*
X171109523Y-101277380D01*
X171147619Y-101201190D01*
X171223809Y-101125000D01*
X171338095Y-101086904D01*
X171414285Y-101086904D01*
X171528571Y-101125000D01*
X171566666Y-101163095D01*
X171833333Y-101086904D02*
X172366666Y-101086904D01*
X172023809Y-101886904D01*
G04 #@! TO.C,C8*
X151866666Y-102685714D02*
X151828571Y-102723809D01*
X151714285Y-102761904D01*
X151638095Y-102761904D01*
X151523809Y-102723809D01*
X151447619Y-102647619D01*
X151409523Y-102571428D01*
X151371428Y-102419047D01*
X151371428Y-102304761D01*
X151409523Y-102152380D01*
X151447619Y-102076190D01*
X151523809Y-102000000D01*
X151638095Y-101961904D01*
X151714285Y-101961904D01*
X151828571Y-102000000D01*
X151866666Y-102038095D01*
X152323809Y-102304761D02*
X152247619Y-102266666D01*
X152209523Y-102228571D01*
X152171428Y-102152380D01*
X152171428Y-102114285D01*
X152209523Y-102038095D01*
X152247619Y-102000000D01*
X152323809Y-101961904D01*
X152476190Y-101961904D01*
X152552380Y-102000000D01*
X152590476Y-102038095D01*
X152628571Y-102114285D01*
X152628571Y-102152380D01*
X152590476Y-102228571D01*
X152552380Y-102266666D01*
X152476190Y-102304761D01*
X152323809Y-102304761D01*
X152247619Y-102342857D01*
X152209523Y-102380952D01*
X152171428Y-102457142D01*
X152171428Y-102609523D01*
X152209523Y-102685714D01*
X152247619Y-102723809D01*
X152323809Y-102761904D01*
X152476190Y-102761904D01*
X152552380Y-102723809D01*
X152590476Y-102685714D01*
X152628571Y-102609523D01*
X152628571Y-102457142D01*
X152590476Y-102380952D01*
X152552380Y-102342857D01*
X152476190Y-102304761D01*
G04 #@! TO.C,C10*
X171560714Y-100310714D02*
X171522619Y-100348809D01*
X171408333Y-100386904D01*
X171332142Y-100386904D01*
X171217857Y-100348809D01*
X171141666Y-100272619D01*
X171103571Y-100196428D01*
X171065476Y-100044047D01*
X171065476Y-99929761D01*
X171103571Y-99777380D01*
X171141666Y-99701190D01*
X171217857Y-99625000D01*
X171332142Y-99586904D01*
X171408333Y-99586904D01*
X171522619Y-99625000D01*
X171560714Y-99663095D01*
X172322619Y-100386904D02*
X171865476Y-100386904D01*
X172094047Y-100386904D02*
X172094047Y-99586904D01*
X172017857Y-99701190D01*
X171941666Y-99777380D01*
X171865476Y-99815476D01*
X172817857Y-99586904D02*
X172894047Y-99586904D01*
X172970238Y-99625000D01*
X173008333Y-99663095D01*
X173046428Y-99739285D01*
X173084523Y-99891666D01*
X173084523Y-100082142D01*
X173046428Y-100234523D01*
X173008333Y-100310714D01*
X172970238Y-100348809D01*
X172894047Y-100386904D01*
X172817857Y-100386904D01*
X172741666Y-100348809D01*
X172703571Y-100310714D01*
X172665476Y-100234523D01*
X172627380Y-100082142D01*
X172627380Y-99891666D01*
X172665476Y-99739285D01*
X172703571Y-99663095D01*
X172741666Y-99625000D01*
X172817857Y-99586904D01*
G04 #@! TO.C,C11*
X151285714Y-101285714D02*
X151247619Y-101323809D01*
X151133333Y-101361904D01*
X151057142Y-101361904D01*
X150942857Y-101323809D01*
X150866666Y-101247619D01*
X150828571Y-101171428D01*
X150790476Y-101019047D01*
X150790476Y-100904761D01*
X150828571Y-100752380D01*
X150866666Y-100676190D01*
X150942857Y-100600000D01*
X151057142Y-100561904D01*
X151133333Y-100561904D01*
X151247619Y-100600000D01*
X151285714Y-100638095D01*
X152047619Y-101361904D02*
X151590476Y-101361904D01*
X151819047Y-101361904D02*
X151819047Y-100561904D01*
X151742857Y-100676190D01*
X151666666Y-100752380D01*
X151590476Y-100790476D01*
X152809523Y-101361904D02*
X152352380Y-101361904D01*
X152580952Y-101361904D02*
X152580952Y-100561904D01*
X152504761Y-100676190D01*
X152428571Y-100752380D01*
X152352380Y-100790476D01*
G04 #@! TO.C,C12*
X164485714Y-98685714D02*
X164447619Y-98723809D01*
X164333333Y-98761904D01*
X164257142Y-98761904D01*
X164142857Y-98723809D01*
X164066666Y-98647619D01*
X164028571Y-98571428D01*
X163990476Y-98419047D01*
X163990476Y-98304761D01*
X164028571Y-98152380D01*
X164066666Y-98076190D01*
X164142857Y-98000000D01*
X164257142Y-97961904D01*
X164333333Y-97961904D01*
X164447619Y-98000000D01*
X164485714Y-98038095D01*
X165247619Y-98761904D02*
X164790476Y-98761904D01*
X165019047Y-98761904D02*
X165019047Y-97961904D01*
X164942857Y-98076190D01*
X164866666Y-98152380D01*
X164790476Y-98190476D01*
X165552380Y-98038095D02*
X165590476Y-98000000D01*
X165666666Y-97961904D01*
X165857142Y-97961904D01*
X165933333Y-98000000D01*
X165971428Y-98038095D01*
X166009523Y-98114285D01*
X166009523Y-98190476D01*
X165971428Y-98304761D01*
X165514285Y-98761904D01*
X166009523Y-98761904D01*
G04 #@! TO.C,C13*
X151085714Y-108885714D02*
X151047619Y-108923809D01*
X150933333Y-108961904D01*
X150857142Y-108961904D01*
X150742857Y-108923809D01*
X150666666Y-108847619D01*
X150628571Y-108771428D01*
X150590476Y-108619047D01*
X150590476Y-108504761D01*
X150628571Y-108352380D01*
X150666666Y-108276190D01*
X150742857Y-108200000D01*
X150857142Y-108161904D01*
X150933333Y-108161904D01*
X151047619Y-108200000D01*
X151085714Y-108238095D01*
X151847619Y-108961904D02*
X151390476Y-108961904D01*
X151619047Y-108961904D02*
X151619047Y-108161904D01*
X151542857Y-108276190D01*
X151466666Y-108352380D01*
X151390476Y-108390476D01*
X152114285Y-108161904D02*
X152609523Y-108161904D01*
X152342857Y-108466666D01*
X152457142Y-108466666D01*
X152533333Y-108504761D01*
X152571428Y-108542857D01*
X152609523Y-108619047D01*
X152609523Y-108809523D01*
X152571428Y-108885714D01*
X152533333Y-108923809D01*
X152457142Y-108961904D01*
X152228571Y-108961904D01*
X152152380Y-108923809D01*
X152114285Y-108885714D01*
G04 #@! TO.C,C14*
X134385714Y-102514285D02*
X134423809Y-102552380D01*
X134461904Y-102666666D01*
X134461904Y-102742857D01*
X134423809Y-102857142D01*
X134347619Y-102933333D01*
X134271428Y-102971428D01*
X134119047Y-103009523D01*
X134004761Y-103009523D01*
X133852380Y-102971428D01*
X133776190Y-102933333D01*
X133700000Y-102857142D01*
X133661904Y-102742857D01*
X133661904Y-102666666D01*
X133700000Y-102552380D01*
X133738095Y-102514285D01*
X134461904Y-101752380D02*
X134461904Y-102209523D01*
X134461904Y-101980952D02*
X133661904Y-101980952D01*
X133776190Y-102057142D01*
X133852380Y-102133333D01*
X133890476Y-102209523D01*
X133928571Y-101066666D02*
X134461904Y-101066666D01*
X133623809Y-101257142D02*
X134195238Y-101447619D01*
X134195238Y-100952380D01*
G04 #@! TO.C,C15*
X164485714Y-128785714D02*
X164447619Y-128823809D01*
X164333333Y-128861904D01*
X164257142Y-128861904D01*
X164142857Y-128823809D01*
X164066666Y-128747619D01*
X164028571Y-128671428D01*
X163990476Y-128519047D01*
X163990476Y-128404761D01*
X164028571Y-128252380D01*
X164066666Y-128176190D01*
X164142857Y-128100000D01*
X164257142Y-128061904D01*
X164333333Y-128061904D01*
X164447619Y-128100000D01*
X164485714Y-128138095D01*
X165247619Y-128861904D02*
X164790476Y-128861904D01*
X165019047Y-128861904D02*
X165019047Y-128061904D01*
X164942857Y-128176190D01*
X164866666Y-128252380D01*
X164790476Y-128290476D01*
X165971428Y-128061904D02*
X165590476Y-128061904D01*
X165552380Y-128442857D01*
X165590476Y-128404761D01*
X165666666Y-128366666D01*
X165857142Y-128366666D01*
X165933333Y-128404761D01*
X165971428Y-128442857D01*
X166009523Y-128519047D01*
X166009523Y-128709523D01*
X165971428Y-128785714D01*
X165933333Y-128823809D01*
X165857142Y-128861904D01*
X165666666Y-128861904D01*
X165590476Y-128823809D01*
X165552380Y-128785714D01*
G04 #@! TO.C,C16*
X164485714Y-113785714D02*
X164447619Y-113823809D01*
X164333333Y-113861904D01*
X164257142Y-113861904D01*
X164142857Y-113823809D01*
X164066666Y-113747619D01*
X164028571Y-113671428D01*
X163990476Y-113519047D01*
X163990476Y-113404761D01*
X164028571Y-113252380D01*
X164066666Y-113176190D01*
X164142857Y-113100000D01*
X164257142Y-113061904D01*
X164333333Y-113061904D01*
X164447619Y-113100000D01*
X164485714Y-113138095D01*
X165247619Y-113861904D02*
X164790476Y-113861904D01*
X165019047Y-113861904D02*
X165019047Y-113061904D01*
X164942857Y-113176190D01*
X164866666Y-113252380D01*
X164790476Y-113290476D01*
X165933333Y-113061904D02*
X165780952Y-113061904D01*
X165704761Y-113100000D01*
X165666666Y-113138095D01*
X165590476Y-113252380D01*
X165552380Y-113404761D01*
X165552380Y-113709523D01*
X165590476Y-113785714D01*
X165628571Y-113823809D01*
X165704761Y-113861904D01*
X165857142Y-113861904D01*
X165933333Y-113823809D01*
X165971428Y-113785714D01*
X166009523Y-113709523D01*
X166009523Y-113519047D01*
X165971428Y-113442857D01*
X165933333Y-113404761D01*
X165857142Y-113366666D01*
X165704761Y-113366666D01*
X165628571Y-113404761D01*
X165590476Y-113442857D01*
X165552380Y-113519047D01*
G04 #@! TO.C,C17*
X163735714Y-85785714D02*
X163697619Y-85823809D01*
X163583333Y-85861904D01*
X163507142Y-85861904D01*
X163392857Y-85823809D01*
X163316666Y-85747619D01*
X163278571Y-85671428D01*
X163240476Y-85519047D01*
X163240476Y-85404761D01*
X163278571Y-85252380D01*
X163316666Y-85176190D01*
X163392857Y-85100000D01*
X163507142Y-85061904D01*
X163583333Y-85061904D01*
X163697619Y-85100000D01*
X163735714Y-85138095D01*
X164497619Y-85861904D02*
X164040476Y-85861904D01*
X164269047Y-85861904D02*
X164269047Y-85061904D01*
X164192857Y-85176190D01*
X164116666Y-85252380D01*
X164040476Y-85290476D01*
X164764285Y-85061904D02*
X165297619Y-85061904D01*
X164954761Y-85861904D01*
G04 #@! TO.C,C18*
X149285714Y-98914285D02*
X149323809Y-98952380D01*
X149361904Y-99066666D01*
X149361904Y-99142857D01*
X149323809Y-99257142D01*
X149247619Y-99333333D01*
X149171428Y-99371428D01*
X149019047Y-99409523D01*
X148904761Y-99409523D01*
X148752380Y-99371428D01*
X148676190Y-99333333D01*
X148600000Y-99257142D01*
X148561904Y-99142857D01*
X148561904Y-99066666D01*
X148600000Y-98952380D01*
X148638095Y-98914285D01*
X149361904Y-98152380D02*
X149361904Y-98609523D01*
X149361904Y-98380952D02*
X148561904Y-98380952D01*
X148676190Y-98457142D01*
X148752380Y-98533333D01*
X148790476Y-98609523D01*
X148904761Y-97695238D02*
X148866666Y-97771428D01*
X148828571Y-97809523D01*
X148752380Y-97847619D01*
X148714285Y-97847619D01*
X148638095Y-97809523D01*
X148600000Y-97771428D01*
X148561904Y-97695238D01*
X148561904Y-97542857D01*
X148600000Y-97466666D01*
X148638095Y-97428571D01*
X148714285Y-97390476D01*
X148752380Y-97390476D01*
X148828571Y-97428571D01*
X148866666Y-97466666D01*
X148904761Y-97542857D01*
X148904761Y-97695238D01*
X148942857Y-97771428D01*
X148980952Y-97809523D01*
X149057142Y-97847619D01*
X149209523Y-97847619D01*
X149285714Y-97809523D01*
X149323809Y-97771428D01*
X149361904Y-97695238D01*
X149361904Y-97542857D01*
X149323809Y-97466666D01*
X149285714Y-97428571D01*
X149209523Y-97390476D01*
X149057142Y-97390476D01*
X148980952Y-97428571D01*
X148942857Y-97466666D01*
X148904761Y-97542857D01*
G04 #@! TO.C,C19*
X147885714Y-98914285D02*
X147923809Y-98952380D01*
X147961904Y-99066666D01*
X147961904Y-99142857D01*
X147923809Y-99257142D01*
X147847619Y-99333333D01*
X147771428Y-99371428D01*
X147619047Y-99409523D01*
X147504761Y-99409523D01*
X147352380Y-99371428D01*
X147276190Y-99333333D01*
X147200000Y-99257142D01*
X147161904Y-99142857D01*
X147161904Y-99066666D01*
X147200000Y-98952380D01*
X147238095Y-98914285D01*
X147961904Y-98152380D02*
X147961904Y-98609523D01*
X147961904Y-98380952D02*
X147161904Y-98380952D01*
X147276190Y-98457142D01*
X147352380Y-98533333D01*
X147390476Y-98609523D01*
X147961904Y-97771428D02*
X147961904Y-97619047D01*
X147923809Y-97542857D01*
X147885714Y-97504761D01*
X147771428Y-97428571D01*
X147619047Y-97390476D01*
X147314285Y-97390476D01*
X147238095Y-97428571D01*
X147200000Y-97466666D01*
X147161904Y-97542857D01*
X147161904Y-97695238D01*
X147200000Y-97771428D01*
X147238095Y-97809523D01*
X147314285Y-97847619D01*
X147504761Y-97847619D01*
X147580952Y-97809523D01*
X147619047Y-97771428D01*
X147657142Y-97695238D01*
X147657142Y-97542857D01*
X147619047Y-97466666D01*
X147580952Y-97428571D01*
X147504761Y-97390476D01*
G04 #@! TO.C,C20*
X139385714Y-105285714D02*
X139347619Y-105323809D01*
X139233333Y-105361904D01*
X139157142Y-105361904D01*
X139042857Y-105323809D01*
X138966666Y-105247619D01*
X138928571Y-105171428D01*
X138890476Y-105019047D01*
X138890476Y-104904761D01*
X138928571Y-104752380D01*
X138966666Y-104676190D01*
X139042857Y-104600000D01*
X139157142Y-104561904D01*
X139233333Y-104561904D01*
X139347619Y-104600000D01*
X139385714Y-104638095D01*
X139690476Y-104638095D02*
X139728571Y-104600000D01*
X139804761Y-104561904D01*
X139995238Y-104561904D01*
X140071428Y-104600000D01*
X140109523Y-104638095D01*
X140147619Y-104714285D01*
X140147619Y-104790476D01*
X140109523Y-104904761D01*
X139652380Y-105361904D01*
X140147619Y-105361904D01*
X140642857Y-104561904D02*
X140719047Y-104561904D01*
X140795238Y-104600000D01*
X140833333Y-104638095D01*
X140871428Y-104714285D01*
X140909523Y-104866666D01*
X140909523Y-105057142D01*
X140871428Y-105209523D01*
X140833333Y-105285714D01*
X140795238Y-105323809D01*
X140719047Y-105361904D01*
X140642857Y-105361904D01*
X140566666Y-105323809D01*
X140528571Y-105285714D01*
X140490476Y-105209523D01*
X140452380Y-105057142D01*
X140452380Y-104866666D01*
X140490476Y-104714285D01*
X140528571Y-104638095D01*
X140566666Y-104600000D01*
X140642857Y-104561904D01*
G04 #@! TO.C,C21*
X135785714Y-95714285D02*
X135823809Y-95752380D01*
X135861904Y-95866666D01*
X135861904Y-95942857D01*
X135823809Y-96057142D01*
X135747619Y-96133333D01*
X135671428Y-96171428D01*
X135519047Y-96209523D01*
X135404761Y-96209523D01*
X135252380Y-96171428D01*
X135176190Y-96133333D01*
X135100000Y-96057142D01*
X135061904Y-95942857D01*
X135061904Y-95866666D01*
X135100000Y-95752380D01*
X135138095Y-95714285D01*
X135138095Y-95409523D02*
X135100000Y-95371428D01*
X135061904Y-95295238D01*
X135061904Y-95104761D01*
X135100000Y-95028571D01*
X135138095Y-94990476D01*
X135214285Y-94952380D01*
X135290476Y-94952380D01*
X135404761Y-94990476D01*
X135861904Y-95447619D01*
X135861904Y-94952380D01*
X135861904Y-94190476D02*
X135861904Y-94647619D01*
X135861904Y-94419047D02*
X135061904Y-94419047D01*
X135176190Y-94495238D01*
X135252380Y-94571428D01*
X135290476Y-94647619D01*
G04 #@! TO.C,C22*
X137285714Y-95914285D02*
X137323809Y-95952380D01*
X137361904Y-96066666D01*
X137361904Y-96142857D01*
X137323809Y-96257142D01*
X137247619Y-96333333D01*
X137171428Y-96371428D01*
X137019047Y-96409523D01*
X136904761Y-96409523D01*
X136752380Y-96371428D01*
X136676190Y-96333333D01*
X136600000Y-96257142D01*
X136561904Y-96142857D01*
X136561904Y-96066666D01*
X136600000Y-95952380D01*
X136638095Y-95914285D01*
X136638095Y-95609523D02*
X136600000Y-95571428D01*
X136561904Y-95495238D01*
X136561904Y-95304761D01*
X136600000Y-95228571D01*
X136638095Y-95190476D01*
X136714285Y-95152380D01*
X136790476Y-95152380D01*
X136904761Y-95190476D01*
X137361904Y-95647619D01*
X137361904Y-95152380D01*
X136638095Y-94847619D02*
X136600000Y-94809523D01*
X136561904Y-94733333D01*
X136561904Y-94542857D01*
X136600000Y-94466666D01*
X136638095Y-94428571D01*
X136714285Y-94390476D01*
X136790476Y-94390476D01*
X136904761Y-94428571D01*
X137361904Y-94885714D01*
X137361904Y-94390476D01*
G04 #@! TO.C,C23*
X141685714Y-86685714D02*
X141647619Y-86723809D01*
X141533333Y-86761904D01*
X141457142Y-86761904D01*
X141342857Y-86723809D01*
X141266666Y-86647619D01*
X141228571Y-86571428D01*
X141190476Y-86419047D01*
X141190476Y-86304761D01*
X141228571Y-86152380D01*
X141266666Y-86076190D01*
X141342857Y-86000000D01*
X141457142Y-85961904D01*
X141533333Y-85961904D01*
X141647619Y-86000000D01*
X141685714Y-86038095D01*
X141990476Y-86038095D02*
X142028571Y-86000000D01*
X142104761Y-85961904D01*
X142295238Y-85961904D01*
X142371428Y-86000000D01*
X142409523Y-86038095D01*
X142447619Y-86114285D01*
X142447619Y-86190476D01*
X142409523Y-86304761D01*
X141952380Y-86761904D01*
X142447619Y-86761904D01*
X142714285Y-85961904D02*
X143209523Y-85961904D01*
X142942857Y-86266666D01*
X143057142Y-86266666D01*
X143133333Y-86304761D01*
X143171428Y-86342857D01*
X143209523Y-86419047D01*
X143209523Y-86609523D01*
X143171428Y-86685714D01*
X143133333Y-86723809D01*
X143057142Y-86761904D01*
X142828571Y-86761904D01*
X142752380Y-86723809D01*
X142714285Y-86685714D01*
G04 #@! TO.C,C24*
X143885714Y-112085714D02*
X143847619Y-112123809D01*
X143733333Y-112161904D01*
X143657142Y-112161904D01*
X143542857Y-112123809D01*
X143466666Y-112047619D01*
X143428571Y-111971428D01*
X143390476Y-111819047D01*
X143390476Y-111704761D01*
X143428571Y-111552380D01*
X143466666Y-111476190D01*
X143542857Y-111400000D01*
X143657142Y-111361904D01*
X143733333Y-111361904D01*
X143847619Y-111400000D01*
X143885714Y-111438095D01*
X144190476Y-111438095D02*
X144228571Y-111400000D01*
X144304761Y-111361904D01*
X144495238Y-111361904D01*
X144571428Y-111400000D01*
X144609523Y-111438095D01*
X144647619Y-111514285D01*
X144647619Y-111590476D01*
X144609523Y-111704761D01*
X144152380Y-112161904D01*
X144647619Y-112161904D01*
X145333333Y-111628571D02*
X145333333Y-112161904D01*
X145142857Y-111323809D02*
X144952380Y-111895238D01*
X145447619Y-111895238D01*
G04 #@! TO.C,C25*
X143785714Y-98785714D02*
X143747619Y-98823809D01*
X143633333Y-98861904D01*
X143557142Y-98861904D01*
X143442857Y-98823809D01*
X143366666Y-98747619D01*
X143328571Y-98671428D01*
X143290476Y-98519047D01*
X143290476Y-98404761D01*
X143328571Y-98252380D01*
X143366666Y-98176190D01*
X143442857Y-98100000D01*
X143557142Y-98061904D01*
X143633333Y-98061904D01*
X143747619Y-98100000D01*
X143785714Y-98138095D01*
X144090476Y-98138095D02*
X144128571Y-98100000D01*
X144204761Y-98061904D01*
X144395238Y-98061904D01*
X144471428Y-98100000D01*
X144509523Y-98138095D01*
X144547619Y-98214285D01*
X144547619Y-98290476D01*
X144509523Y-98404761D01*
X144052380Y-98861904D01*
X144547619Y-98861904D01*
X145271428Y-98061904D02*
X144890476Y-98061904D01*
X144852380Y-98442857D01*
X144890476Y-98404761D01*
X144966666Y-98366666D01*
X145157142Y-98366666D01*
X145233333Y-98404761D01*
X145271428Y-98442857D01*
X145309523Y-98519047D01*
X145309523Y-98709523D01*
X145271428Y-98785714D01*
X145233333Y-98823809D01*
X145157142Y-98861904D01*
X144966666Y-98861904D01*
X144890476Y-98823809D01*
X144852380Y-98785714D01*
G04 #@! TO.C,C26*
X148485714Y-108885714D02*
X148447619Y-108923809D01*
X148333333Y-108961904D01*
X148257142Y-108961904D01*
X148142857Y-108923809D01*
X148066666Y-108847619D01*
X148028571Y-108771428D01*
X147990476Y-108619047D01*
X147990476Y-108504761D01*
X148028571Y-108352380D01*
X148066666Y-108276190D01*
X148142857Y-108200000D01*
X148257142Y-108161904D01*
X148333333Y-108161904D01*
X148447619Y-108200000D01*
X148485714Y-108238095D01*
X148790476Y-108238095D02*
X148828571Y-108200000D01*
X148904761Y-108161904D01*
X149095238Y-108161904D01*
X149171428Y-108200000D01*
X149209523Y-108238095D01*
X149247619Y-108314285D01*
X149247619Y-108390476D01*
X149209523Y-108504761D01*
X148752380Y-108961904D01*
X149247619Y-108961904D01*
X149933333Y-108161904D02*
X149780952Y-108161904D01*
X149704761Y-108200000D01*
X149666666Y-108238095D01*
X149590476Y-108352380D01*
X149552380Y-108504761D01*
X149552380Y-108809523D01*
X149590476Y-108885714D01*
X149628571Y-108923809D01*
X149704761Y-108961904D01*
X149857142Y-108961904D01*
X149933333Y-108923809D01*
X149971428Y-108885714D01*
X150009523Y-108809523D01*
X150009523Y-108619047D01*
X149971428Y-108542857D01*
X149933333Y-108504761D01*
X149857142Y-108466666D01*
X149704761Y-108466666D01*
X149628571Y-108504761D01*
X149590476Y-108542857D01*
X149552380Y-108619047D01*
G04 #@! TO.C,C27*
X148485714Y-101285714D02*
X148447619Y-101323809D01*
X148333333Y-101361904D01*
X148257142Y-101361904D01*
X148142857Y-101323809D01*
X148066666Y-101247619D01*
X148028571Y-101171428D01*
X147990476Y-101019047D01*
X147990476Y-100904761D01*
X148028571Y-100752380D01*
X148066666Y-100676190D01*
X148142857Y-100600000D01*
X148257142Y-100561904D01*
X148333333Y-100561904D01*
X148447619Y-100600000D01*
X148485714Y-100638095D01*
X148790476Y-100638095D02*
X148828571Y-100600000D01*
X148904761Y-100561904D01*
X149095238Y-100561904D01*
X149171428Y-100600000D01*
X149209523Y-100638095D01*
X149247619Y-100714285D01*
X149247619Y-100790476D01*
X149209523Y-100904761D01*
X148752380Y-101361904D01*
X149247619Y-101361904D01*
X149514285Y-100561904D02*
X150047619Y-100561904D01*
X149704761Y-101361904D01*
G04 #@! TO.C,C28*
X150885714Y-106914285D02*
X150923809Y-106952380D01*
X150961904Y-107066666D01*
X150961904Y-107142857D01*
X150923809Y-107257142D01*
X150847619Y-107333333D01*
X150771428Y-107371428D01*
X150619047Y-107409523D01*
X150504761Y-107409523D01*
X150352380Y-107371428D01*
X150276190Y-107333333D01*
X150200000Y-107257142D01*
X150161904Y-107142857D01*
X150161904Y-107066666D01*
X150200000Y-106952380D01*
X150238095Y-106914285D01*
X150238095Y-106609523D02*
X150200000Y-106571428D01*
X150161904Y-106495238D01*
X150161904Y-106304761D01*
X150200000Y-106228571D01*
X150238095Y-106190476D01*
X150314285Y-106152380D01*
X150390476Y-106152380D01*
X150504761Y-106190476D01*
X150961904Y-106647619D01*
X150961904Y-106152380D01*
X150504761Y-105695238D02*
X150466666Y-105771428D01*
X150428571Y-105809523D01*
X150352380Y-105847619D01*
X150314285Y-105847619D01*
X150238095Y-105809523D01*
X150200000Y-105771428D01*
X150161904Y-105695238D01*
X150161904Y-105542857D01*
X150200000Y-105466666D01*
X150238095Y-105428571D01*
X150314285Y-105390476D01*
X150352380Y-105390476D01*
X150428571Y-105428571D01*
X150466666Y-105466666D01*
X150504761Y-105542857D01*
X150504761Y-105695238D01*
X150542857Y-105771428D01*
X150580952Y-105809523D01*
X150657142Y-105847619D01*
X150809523Y-105847619D01*
X150885714Y-105809523D01*
X150923809Y-105771428D01*
X150961904Y-105695238D01*
X150961904Y-105542857D01*
X150923809Y-105466666D01*
X150885714Y-105428571D01*
X150809523Y-105390476D01*
X150657142Y-105390476D01*
X150580952Y-105428571D01*
X150542857Y-105466666D01*
X150504761Y-105542857D01*
G04 #@! TO.C,C29*
X150885714Y-103878594D02*
X150923809Y-103916689D01*
X150961904Y-104030975D01*
X150961904Y-104107166D01*
X150923809Y-104221451D01*
X150847619Y-104297642D01*
X150771428Y-104335737D01*
X150619047Y-104373832D01*
X150504761Y-104373832D01*
X150352380Y-104335737D01*
X150276190Y-104297642D01*
X150200000Y-104221451D01*
X150161904Y-104107166D01*
X150161904Y-104030975D01*
X150200000Y-103916689D01*
X150238095Y-103878594D01*
X150238095Y-103573832D02*
X150200000Y-103535737D01*
X150161904Y-103459547D01*
X150161904Y-103269070D01*
X150200000Y-103192880D01*
X150238095Y-103154785D01*
X150314285Y-103116689D01*
X150390476Y-103116689D01*
X150504761Y-103154785D01*
X150961904Y-103611928D01*
X150961904Y-103116689D01*
X150961904Y-102735737D02*
X150961904Y-102583356D01*
X150923809Y-102507166D01*
X150885714Y-102469070D01*
X150771428Y-102392880D01*
X150619047Y-102354785D01*
X150314285Y-102354785D01*
X150238095Y-102392880D01*
X150200000Y-102430975D01*
X150161904Y-102507166D01*
X150161904Y-102659547D01*
X150200000Y-102735737D01*
X150238095Y-102773832D01*
X150314285Y-102811928D01*
X150504761Y-102811928D01*
X150580952Y-102773832D01*
X150619047Y-102735737D01*
X150657142Y-102659547D01*
X150657142Y-102507166D01*
X150619047Y-102430975D01*
X150580952Y-102392880D01*
X150504761Y-102354785D01*
G04 #@! TO.C,J1*
X131208333Y-123611904D02*
X131208333Y-124183333D01*
X131170238Y-124297619D01*
X131094047Y-124373809D01*
X130979761Y-124411904D01*
X130903571Y-124411904D01*
X132008333Y-124411904D02*
X131551190Y-124411904D01*
X131779761Y-124411904D02*
X131779761Y-123611904D01*
X131703571Y-123726190D01*
X131627380Y-123802380D01*
X131551190Y-123840476D01*
G04 #@! TO.C,J3*
X153733333Y-93661904D02*
X153733333Y-94233333D01*
X153695238Y-94347619D01*
X153619047Y-94423809D01*
X153504761Y-94461904D01*
X153428571Y-94461904D01*
X154038095Y-93661904D02*
X154533333Y-93661904D01*
X154266666Y-93966666D01*
X154380952Y-93966666D01*
X154457142Y-94004761D01*
X154495238Y-94042857D01*
X154533333Y-94119047D01*
X154533333Y-94309523D01*
X154495238Y-94385714D01*
X154457142Y-94423809D01*
X154380952Y-94461904D01*
X154152380Y-94461904D01*
X154076190Y-94423809D01*
X154038095Y-94385714D01*
G04 #@! TO.C,P3*
X135609523Y-81761904D02*
X135609523Y-80961904D01*
X135914285Y-80961904D01*
X135990476Y-81000000D01*
X136028571Y-81038095D01*
X136066666Y-81114285D01*
X136066666Y-81228571D01*
X136028571Y-81304761D01*
X135990476Y-81342857D01*
X135914285Y-81380952D01*
X135609523Y-81380952D01*
X136333333Y-80961904D02*
X136828571Y-80961904D01*
X136561904Y-81266666D01*
X136676190Y-81266666D01*
X136752380Y-81304761D01*
X136790476Y-81342857D01*
X136828571Y-81419047D01*
X136828571Y-81609523D01*
X136790476Y-81685714D01*
X136752380Y-81723809D01*
X136676190Y-81761904D01*
X136447619Y-81761904D01*
X136371428Y-81723809D01*
X136333333Y-81685714D01*
G04 #@! TO.C,RN1*
X161447619Y-93561904D02*
X161180952Y-93180952D01*
X160990476Y-93561904D02*
X160990476Y-92761904D01*
X161295238Y-92761904D01*
X161371428Y-92800000D01*
X161409523Y-92838095D01*
X161447619Y-92914285D01*
X161447619Y-93028571D01*
X161409523Y-93104761D01*
X161371428Y-93142857D01*
X161295238Y-93180952D01*
X160990476Y-93180952D01*
X161790476Y-93561904D02*
X161790476Y-92761904D01*
X162247619Y-93561904D01*
X162247619Y-92761904D01*
X163047619Y-93561904D02*
X162590476Y-93561904D01*
X162819047Y-93561904D02*
X162819047Y-92761904D01*
X162742857Y-92876190D01*
X162666666Y-92952380D01*
X162590476Y-92990476D01*
G04 #@! TO.C,RN2*
X155647619Y-94461904D02*
X155380952Y-94080952D01*
X155190476Y-94461904D02*
X155190476Y-93661904D01*
X155495238Y-93661904D01*
X155571428Y-93700000D01*
X155609523Y-93738095D01*
X155647619Y-93814285D01*
X155647619Y-93928571D01*
X155609523Y-94004761D01*
X155571428Y-94042857D01*
X155495238Y-94080952D01*
X155190476Y-94080952D01*
X155990476Y-94461904D02*
X155990476Y-93661904D01*
X156447619Y-94461904D01*
X156447619Y-93661904D01*
X156790476Y-93738095D02*
X156828571Y-93700000D01*
X156904761Y-93661904D01*
X157095238Y-93661904D01*
X157171428Y-93700000D01*
X157209523Y-93738095D01*
X157247619Y-93814285D01*
X157247619Y-93890476D01*
X157209523Y-94004761D01*
X156752380Y-94461904D01*
X157247619Y-94461904D01*
G04 #@! TO.C,RN3*
X135847619Y-115761904D02*
X135580952Y-115380952D01*
X135390476Y-115761904D02*
X135390476Y-114961904D01*
X135695238Y-114961904D01*
X135771428Y-115000000D01*
X135809523Y-115038095D01*
X135847619Y-115114285D01*
X135847619Y-115228571D01*
X135809523Y-115304761D01*
X135771428Y-115342857D01*
X135695238Y-115380952D01*
X135390476Y-115380952D01*
X136190476Y-115761904D02*
X136190476Y-114961904D01*
X136647619Y-115761904D01*
X136647619Y-114961904D01*
X136952380Y-114961904D02*
X137447619Y-114961904D01*
X137180952Y-115266666D01*
X137295238Y-115266666D01*
X137371428Y-115304761D01*
X137409523Y-115342857D01*
X137447619Y-115419047D01*
X137447619Y-115609523D01*
X137409523Y-115685714D01*
X137371428Y-115723809D01*
X137295238Y-115761904D01*
X137066666Y-115761904D01*
X136990476Y-115723809D01*
X136952380Y-115685714D01*
G04 #@! TO.C,RN4*
X165247619Y-93561904D02*
X164980952Y-93180952D01*
X164790476Y-93561904D02*
X164790476Y-92761904D01*
X165095238Y-92761904D01*
X165171428Y-92800000D01*
X165209523Y-92838095D01*
X165247619Y-92914285D01*
X165247619Y-93028571D01*
X165209523Y-93104761D01*
X165171428Y-93142857D01*
X165095238Y-93180952D01*
X164790476Y-93180952D01*
X165590476Y-93561904D02*
X165590476Y-92761904D01*
X166047619Y-93561904D01*
X166047619Y-92761904D01*
X166771428Y-93028571D02*
X166771428Y-93561904D01*
X166580952Y-92723809D02*
X166390476Y-93295238D01*
X166885714Y-93295238D01*
G04 #@! TO.C,SW1*
X165933333Y-85323809D02*
X166047619Y-85361904D01*
X166238095Y-85361904D01*
X166314285Y-85323809D01*
X166352380Y-85285714D01*
X166390476Y-85209523D01*
X166390476Y-85133333D01*
X166352380Y-85057142D01*
X166314285Y-85019047D01*
X166238095Y-84980952D01*
X166085714Y-84942857D01*
X166009523Y-84904761D01*
X165971428Y-84866666D01*
X165933333Y-84790476D01*
X165933333Y-84714285D01*
X165971428Y-84638095D01*
X166009523Y-84600000D01*
X166085714Y-84561904D01*
X166276190Y-84561904D01*
X166390476Y-84600000D01*
X166657142Y-84561904D02*
X166847619Y-85361904D01*
X167000000Y-84790476D01*
X167152380Y-85361904D01*
X167342857Y-84561904D01*
X168066666Y-85361904D02*
X167609523Y-85361904D01*
X167838095Y-85361904D02*
X167838095Y-84561904D01*
X167761904Y-84676190D01*
X167685714Y-84752380D01*
X167609523Y-84790476D01*
G04 #@! TO.C,U2*
X166015476Y-110186904D02*
X166015476Y-110834523D01*
X166053571Y-110910714D01*
X166091666Y-110948809D01*
X166167857Y-110986904D01*
X166320238Y-110986904D01*
X166396428Y-110948809D01*
X166434523Y-110910714D01*
X166472619Y-110834523D01*
X166472619Y-110186904D01*
X166815476Y-110263095D02*
X166853571Y-110225000D01*
X166929761Y-110186904D01*
X167120238Y-110186904D01*
X167196428Y-110225000D01*
X167234523Y-110263095D01*
X167272619Y-110339285D01*
X167272619Y-110415476D01*
X167234523Y-110529761D01*
X166777380Y-110986904D01*
X167272619Y-110986904D01*
G04 #@! TO.C,U3*
X171140476Y-126061904D02*
X171140476Y-126709523D01*
X171178571Y-126785714D01*
X171216666Y-126823809D01*
X171292857Y-126861904D01*
X171445238Y-126861904D01*
X171521428Y-126823809D01*
X171559523Y-126785714D01*
X171597619Y-126709523D01*
X171597619Y-126061904D01*
X171902380Y-126061904D02*
X172397619Y-126061904D01*
X172130952Y-126366666D01*
X172245238Y-126366666D01*
X172321428Y-126404761D01*
X172359523Y-126442857D01*
X172397619Y-126519047D01*
X172397619Y-126709523D01*
X172359523Y-126785714D01*
X172321428Y-126823809D01*
X172245238Y-126861904D01*
X172016666Y-126861904D01*
X171940476Y-126823809D01*
X171902380Y-126785714D01*
G04 #@! TO.C,U5*
X139990476Y-102361904D02*
X139990476Y-103009523D01*
X140028571Y-103085714D01*
X140066666Y-103123809D01*
X140142857Y-103161904D01*
X140295238Y-103161904D01*
X140371428Y-103123809D01*
X140409523Y-103085714D01*
X140447619Y-103009523D01*
X140447619Y-102361904D01*
X141209523Y-102361904D02*
X140828571Y-102361904D01*
X140790476Y-102742857D01*
X140828571Y-102704761D01*
X140904761Y-102666666D01*
X141095238Y-102666666D01*
X141171428Y-102704761D01*
X141209523Y-102742857D01*
X141247619Y-102819047D01*
X141247619Y-103009523D01*
X141209523Y-103085714D01*
X141171428Y-103123809D01*
X141095238Y-103161904D01*
X140904761Y-103161904D01*
X140828571Y-103123809D01*
X140790476Y-103085714D01*
G04 #@! TO.C,U6*
X141190476Y-87761904D02*
X141190476Y-88409523D01*
X141228571Y-88485714D01*
X141266666Y-88523809D01*
X141342857Y-88561904D01*
X141495238Y-88561904D01*
X141571428Y-88523809D01*
X141609523Y-88485714D01*
X141647619Y-88409523D01*
X141647619Y-87761904D01*
X142371428Y-87761904D02*
X142219047Y-87761904D01*
X142142857Y-87800000D01*
X142104761Y-87838095D01*
X142028571Y-87952380D01*
X141990476Y-88104761D01*
X141990476Y-88409523D01*
X142028571Y-88485714D01*
X142066666Y-88523809D01*
X142142857Y-88561904D01*
X142295238Y-88561904D01*
X142371428Y-88523809D01*
X142409523Y-88485714D01*
X142447619Y-88409523D01*
X142447619Y-88219047D01*
X142409523Y-88142857D01*
X142371428Y-88104761D01*
X142295238Y-88066666D01*
X142142857Y-88066666D01*
X142066666Y-88104761D01*
X142028571Y-88142857D01*
X141990476Y-88219047D01*
G04 #@! TO.C,D2*
X141409523Y-128861904D02*
X141409523Y-128061904D01*
X141600000Y-128061904D01*
X141714285Y-128100000D01*
X141790476Y-128176190D01*
X141828571Y-128252380D01*
X141866666Y-128404761D01*
X141866666Y-128519047D01*
X141828571Y-128671428D01*
X141790476Y-128747619D01*
X141714285Y-128823809D01*
X141600000Y-128861904D01*
X141409523Y-128861904D01*
X142171428Y-128138095D02*
X142209523Y-128100000D01*
X142285714Y-128061904D01*
X142476190Y-128061904D01*
X142552380Y-128100000D01*
X142590476Y-128138095D01*
X142628571Y-128214285D01*
X142628571Y-128290476D01*
X142590476Y-128404761D01*
X142133333Y-128861904D01*
X142628571Y-128861904D01*
G04 #@! TO.C,L1*
X146466666Y-111161904D02*
X146085714Y-111161904D01*
X146085714Y-110361904D01*
X147152380Y-111161904D02*
X146695238Y-111161904D01*
X146923809Y-111161904D02*
X146923809Y-110361904D01*
X146847619Y-110476190D01*
X146771428Y-110552380D01*
X146695238Y-110590476D01*
G04 #@! TO.C,L2*
X145466666Y-99561904D02*
X145085714Y-99561904D01*
X145085714Y-98761904D01*
X145695238Y-98838095D02*
X145733333Y-98800000D01*
X145809523Y-98761904D01*
X146000000Y-98761904D01*
X146076190Y-98800000D01*
X146114285Y-98838095D01*
X146152380Y-98914285D01*
X146152380Y-98990476D01*
X146114285Y-99104761D01*
X145657142Y-99561904D01*
X146152380Y-99561904D01*
G04 #@! TO.C,R1*
X172266666Y-90961904D02*
X172000000Y-90580952D01*
X171809523Y-90961904D02*
X171809523Y-90161904D01*
X172114285Y-90161904D01*
X172190476Y-90200000D01*
X172228571Y-90238095D01*
X172266666Y-90314285D01*
X172266666Y-90428571D01*
X172228571Y-90504761D01*
X172190476Y-90542857D01*
X172114285Y-90580952D01*
X171809523Y-90580952D01*
X173028571Y-90961904D02*
X172571428Y-90961904D01*
X172800000Y-90961904D02*
X172800000Y-90161904D01*
X172723809Y-90276190D01*
X172647619Y-90352380D01*
X172571428Y-90390476D01*
G04 #@! TO.C,R2*
X169466666Y-98461904D02*
X169200000Y-98080952D01*
X169009523Y-98461904D02*
X169009523Y-97661904D01*
X169314285Y-97661904D01*
X169390476Y-97700000D01*
X169428571Y-97738095D01*
X169466666Y-97814285D01*
X169466666Y-97928571D01*
X169428571Y-98004761D01*
X169390476Y-98042857D01*
X169314285Y-98080952D01*
X169009523Y-98080952D01*
X169771428Y-97738095D02*
X169809523Y-97700000D01*
X169885714Y-97661904D01*
X170076190Y-97661904D01*
X170152380Y-97700000D01*
X170190476Y-97738095D01*
X170228571Y-97814285D01*
X170228571Y-97890476D01*
X170190476Y-98004761D01*
X169733333Y-98461904D01*
X170228571Y-98461904D01*
G04 #@! TO.C,R3*
X171266666Y-98461904D02*
X171000000Y-98080952D01*
X170809523Y-98461904D02*
X170809523Y-97661904D01*
X171114285Y-97661904D01*
X171190476Y-97700000D01*
X171228571Y-97738095D01*
X171266666Y-97814285D01*
X171266666Y-97928571D01*
X171228571Y-98004761D01*
X171190476Y-98042857D01*
X171114285Y-98080952D01*
X170809523Y-98080952D01*
X171533333Y-97661904D02*
X172028571Y-97661904D01*
X171761904Y-97966666D01*
X171876190Y-97966666D01*
X171952380Y-98004761D01*
X171990476Y-98042857D01*
X172028571Y-98119047D01*
X172028571Y-98309523D01*
X171990476Y-98385714D01*
X171952380Y-98423809D01*
X171876190Y-98461904D01*
X171647619Y-98461904D01*
X171571428Y-98423809D01*
X171533333Y-98385714D01*
G04 #@! TO.C,R4*
X173066666Y-98461904D02*
X172800000Y-98080952D01*
X172609523Y-98461904D02*
X172609523Y-97661904D01*
X172914285Y-97661904D01*
X172990476Y-97700000D01*
X173028571Y-97738095D01*
X173066666Y-97814285D01*
X173066666Y-97928571D01*
X173028571Y-98004761D01*
X172990476Y-98042857D01*
X172914285Y-98080952D01*
X172609523Y-98080952D01*
X173752380Y-97928571D02*
X173752380Y-98461904D01*
X173561904Y-97623809D02*
X173371428Y-98195238D01*
X173866666Y-98195238D01*
G04 #@! TO.C,R5*
X174666666Y-98461904D02*
X174400000Y-98080952D01*
X174209523Y-98461904D02*
X174209523Y-97661904D01*
X174514285Y-97661904D01*
X174590476Y-97700000D01*
X174628571Y-97738095D01*
X174666666Y-97814285D01*
X174666666Y-97928571D01*
X174628571Y-98004761D01*
X174590476Y-98042857D01*
X174514285Y-98080952D01*
X174209523Y-98080952D01*
X175390476Y-97661904D02*
X175009523Y-97661904D01*
X174971428Y-98042857D01*
X175009523Y-98004761D01*
X175085714Y-97966666D01*
X175276190Y-97966666D01*
X175352380Y-98004761D01*
X175390476Y-98042857D01*
X175428571Y-98119047D01*
X175428571Y-98309523D01*
X175390476Y-98385714D01*
X175352380Y-98423809D01*
X175276190Y-98461904D01*
X175085714Y-98461904D01*
X175009523Y-98423809D01*
X174971428Y-98385714D01*
G04 #@! TO.C,R6*
X147866666Y-126861904D02*
X147600000Y-126480952D01*
X147409523Y-126861904D02*
X147409523Y-126061904D01*
X147714285Y-126061904D01*
X147790476Y-126100000D01*
X147828571Y-126138095D01*
X147866666Y-126214285D01*
X147866666Y-126328571D01*
X147828571Y-126404761D01*
X147790476Y-126442857D01*
X147714285Y-126480952D01*
X147409523Y-126480952D01*
X148552380Y-126061904D02*
X148400000Y-126061904D01*
X148323809Y-126100000D01*
X148285714Y-126138095D01*
X148209523Y-126252380D01*
X148171428Y-126404761D01*
X148171428Y-126709523D01*
X148209523Y-126785714D01*
X148247619Y-126823809D01*
X148323809Y-126861904D01*
X148476190Y-126861904D01*
X148552380Y-126823809D01*
X148590476Y-126785714D01*
X148628571Y-126709523D01*
X148628571Y-126519047D01*
X148590476Y-126442857D01*
X148552380Y-126404761D01*
X148476190Y-126366666D01*
X148323809Y-126366666D01*
X148247619Y-126404761D01*
X148209523Y-126442857D01*
X148171428Y-126519047D01*
G04 #@! TO.C,R7*
X171866666Y-106261904D02*
X171600000Y-105880952D01*
X171409523Y-106261904D02*
X171409523Y-105461904D01*
X171714285Y-105461904D01*
X171790476Y-105500000D01*
X171828571Y-105538095D01*
X171866666Y-105614285D01*
X171866666Y-105728571D01*
X171828571Y-105804761D01*
X171790476Y-105842857D01*
X171714285Y-105880952D01*
X171409523Y-105880952D01*
X172133333Y-105461904D02*
X172666666Y-105461904D01*
X172323809Y-106261904D01*
G04 #@! TO.C,R8*
X151866666Y-105761904D02*
X151600000Y-105380952D01*
X151409523Y-105761904D02*
X151409523Y-104961904D01*
X151714285Y-104961904D01*
X151790476Y-105000000D01*
X151828571Y-105038095D01*
X151866666Y-105114285D01*
X151866666Y-105228571D01*
X151828571Y-105304761D01*
X151790476Y-105342857D01*
X151714285Y-105380952D01*
X151409523Y-105380952D01*
X152323809Y-105304761D02*
X152247619Y-105266666D01*
X152209523Y-105228571D01*
X152171428Y-105152380D01*
X152171428Y-105114285D01*
X152209523Y-105038095D01*
X152247619Y-105000000D01*
X152323809Y-104961904D01*
X152476190Y-104961904D01*
X152552380Y-105000000D01*
X152590476Y-105038095D01*
X152628571Y-105114285D01*
X152628571Y-105152380D01*
X152590476Y-105228571D01*
X152552380Y-105266666D01*
X152476190Y-105304761D01*
X152323809Y-105304761D01*
X152247619Y-105342857D01*
X152209523Y-105380952D01*
X152171428Y-105457142D01*
X152171428Y-105609523D01*
X152209523Y-105685714D01*
X152247619Y-105723809D01*
X152323809Y-105761904D01*
X152476190Y-105761904D01*
X152552380Y-105723809D01*
X152590476Y-105685714D01*
X152628571Y-105609523D01*
X152628571Y-105457142D01*
X152590476Y-105380952D01*
X152552380Y-105342857D01*
X152476190Y-105304761D01*
G04 #@! TO.C,R9*
X136366666Y-99431904D02*
X136100000Y-99050952D01*
X135909523Y-99431904D02*
X135909523Y-98631904D01*
X136214285Y-98631904D01*
X136290476Y-98670000D01*
X136328571Y-98708095D01*
X136366666Y-98784285D01*
X136366666Y-98898571D01*
X136328571Y-98974761D01*
X136290476Y-99012857D01*
X136214285Y-99050952D01*
X135909523Y-99050952D01*
X136747619Y-99431904D02*
X136900000Y-99431904D01*
X136976190Y-99393809D01*
X137014285Y-99355714D01*
X137090476Y-99241428D01*
X137128571Y-99089047D01*
X137128571Y-98784285D01*
X137090476Y-98708095D01*
X137052380Y-98670000D01*
X136976190Y-98631904D01*
X136823809Y-98631904D01*
X136747619Y-98670000D01*
X136709523Y-98708095D01*
X136671428Y-98784285D01*
X136671428Y-98974761D01*
X136709523Y-99050952D01*
X136747619Y-99089047D01*
X136823809Y-99127142D01*
X136976190Y-99127142D01*
X137052380Y-99089047D01*
X137090476Y-99050952D01*
X137128571Y-98974761D01*
G04 #@! TO.C,R10*
X135985714Y-109791904D02*
X135719047Y-109410952D01*
X135528571Y-109791904D02*
X135528571Y-108991904D01*
X135833333Y-108991904D01*
X135909523Y-109030000D01*
X135947619Y-109068095D01*
X135985714Y-109144285D01*
X135985714Y-109258571D01*
X135947619Y-109334761D01*
X135909523Y-109372857D01*
X135833333Y-109410952D01*
X135528571Y-109410952D01*
X136747619Y-109791904D02*
X136290476Y-109791904D01*
X136519047Y-109791904D02*
X136519047Y-108991904D01*
X136442857Y-109106190D01*
X136366666Y-109182380D01*
X136290476Y-109220476D01*
X137242857Y-108991904D02*
X137319047Y-108991904D01*
X137395238Y-109030000D01*
X137433333Y-109068095D01*
X137471428Y-109144285D01*
X137509523Y-109296666D01*
X137509523Y-109487142D01*
X137471428Y-109639523D01*
X137433333Y-109715714D01*
X137395238Y-109753809D01*
X137319047Y-109791904D01*
X137242857Y-109791904D01*
X137166666Y-109753809D01*
X137128571Y-109715714D01*
X137090476Y-109639523D01*
X137052380Y-109487142D01*
X137052380Y-109296666D01*
X137090476Y-109144285D01*
X137128571Y-109068095D01*
X137166666Y-109030000D01*
X137242857Y-108991904D01*
G04 #@! TO.C,R11*
X141735714Y-126861904D02*
X141469047Y-126480952D01*
X141278571Y-126861904D02*
X141278571Y-126061904D01*
X141583333Y-126061904D01*
X141659523Y-126100000D01*
X141697619Y-126138095D01*
X141735714Y-126214285D01*
X141735714Y-126328571D01*
X141697619Y-126404761D01*
X141659523Y-126442857D01*
X141583333Y-126480952D01*
X141278571Y-126480952D01*
X142497619Y-126861904D02*
X142040476Y-126861904D01*
X142269047Y-126861904D02*
X142269047Y-126061904D01*
X142192857Y-126176190D01*
X142116666Y-126252380D01*
X142040476Y-126290476D01*
X143259523Y-126861904D02*
X142802380Y-126861904D01*
X143030952Y-126861904D02*
X143030952Y-126061904D01*
X142954761Y-126176190D01*
X142878571Y-126252380D01*
X142802380Y-126290476D01*
G04 #@! TO.C,R12*
X163985714Y-87361904D02*
X163719047Y-86980952D01*
X163528571Y-87361904D02*
X163528571Y-86561904D01*
X163833333Y-86561904D01*
X163909523Y-86600000D01*
X163947619Y-86638095D01*
X163985714Y-86714285D01*
X163985714Y-86828571D01*
X163947619Y-86904761D01*
X163909523Y-86942857D01*
X163833333Y-86980952D01*
X163528571Y-86980952D01*
X164747619Y-87361904D02*
X164290476Y-87361904D01*
X164519047Y-87361904D02*
X164519047Y-86561904D01*
X164442857Y-86676190D01*
X164366666Y-86752380D01*
X164290476Y-86790476D01*
X165052380Y-86638095D02*
X165090476Y-86600000D01*
X165166666Y-86561904D01*
X165357142Y-86561904D01*
X165433333Y-86600000D01*
X165471428Y-86638095D01*
X165509523Y-86714285D01*
X165509523Y-86790476D01*
X165471428Y-86904761D01*
X165014285Y-87361904D01*
X165509523Y-87361904D01*
G04 #@! TO.C,R16*
X137361904Y-88514285D02*
X136980952Y-88780952D01*
X137361904Y-88971428D02*
X136561904Y-88971428D01*
X136561904Y-88666666D01*
X136600000Y-88590476D01*
X136638095Y-88552380D01*
X136714285Y-88514285D01*
X136828571Y-88514285D01*
X136904761Y-88552380D01*
X136942857Y-88590476D01*
X136980952Y-88666666D01*
X136980952Y-88971428D01*
X137361904Y-87752380D02*
X137361904Y-88209523D01*
X137361904Y-87980952D02*
X136561904Y-87980952D01*
X136676190Y-88057142D01*
X136752380Y-88133333D01*
X136790476Y-88209523D01*
X136561904Y-87066666D02*
X136561904Y-87219047D01*
X136600000Y-87295238D01*
X136638095Y-87333333D01*
X136752380Y-87409523D01*
X136904761Y-87447619D01*
X137209523Y-87447619D01*
X137285714Y-87409523D01*
X137323809Y-87371428D01*
X137361904Y-87295238D01*
X137361904Y-87142857D01*
X137323809Y-87066666D01*
X137285714Y-87028571D01*
X137209523Y-86990476D01*
X137019047Y-86990476D01*
X136942857Y-87028571D01*
X136904761Y-87066666D01*
X136866666Y-87142857D01*
X136866666Y-87295238D01*
X136904761Y-87371428D01*
X136942857Y-87409523D01*
X137019047Y-87447619D01*
G04 #@! TO.C,R17*
X141485714Y-112161904D02*
X141219047Y-111780952D01*
X141028571Y-112161904D02*
X141028571Y-111361904D01*
X141333333Y-111361904D01*
X141409523Y-111400000D01*
X141447619Y-111438095D01*
X141485714Y-111514285D01*
X141485714Y-111628571D01*
X141447619Y-111704761D01*
X141409523Y-111742857D01*
X141333333Y-111780952D01*
X141028571Y-111780952D01*
X142247619Y-112161904D02*
X141790476Y-112161904D01*
X142019047Y-112161904D02*
X142019047Y-111361904D01*
X141942857Y-111476190D01*
X141866666Y-111552380D01*
X141790476Y-111590476D01*
X142514285Y-111361904D02*
X143047619Y-111361904D01*
X142704761Y-112161904D01*
G04 #@! TO.C,R18*
X138885714Y-112161904D02*
X138619047Y-111780952D01*
X138428571Y-112161904D02*
X138428571Y-111361904D01*
X138733333Y-111361904D01*
X138809523Y-111400000D01*
X138847619Y-111438095D01*
X138885714Y-111514285D01*
X138885714Y-111628571D01*
X138847619Y-111704761D01*
X138809523Y-111742857D01*
X138733333Y-111780952D01*
X138428571Y-111780952D01*
X139647619Y-112161904D02*
X139190476Y-112161904D01*
X139419047Y-112161904D02*
X139419047Y-111361904D01*
X139342857Y-111476190D01*
X139266666Y-111552380D01*
X139190476Y-111590476D01*
X140104761Y-111704761D02*
X140028571Y-111666666D01*
X139990476Y-111628571D01*
X139952380Y-111552380D01*
X139952380Y-111514285D01*
X139990476Y-111438095D01*
X140028571Y-111400000D01*
X140104761Y-111361904D01*
X140257142Y-111361904D01*
X140333333Y-111400000D01*
X140371428Y-111438095D01*
X140409523Y-111514285D01*
X140409523Y-111552380D01*
X140371428Y-111628571D01*
X140333333Y-111666666D01*
X140257142Y-111704761D01*
X140104761Y-111704761D01*
X140028571Y-111742857D01*
X139990476Y-111780952D01*
X139952380Y-111857142D01*
X139952380Y-112009523D01*
X139990476Y-112085714D01*
X140028571Y-112123809D01*
X140104761Y-112161904D01*
X140257142Y-112161904D01*
X140333333Y-112123809D01*
X140371428Y-112085714D01*
X140409523Y-112009523D01*
X140409523Y-111857142D01*
X140371428Y-111780952D01*
X140333333Y-111742857D01*
X140257142Y-111704761D01*
G04 #@! TO.C,R19*
X141485714Y-98861904D02*
X141219047Y-98480952D01*
X141028571Y-98861904D02*
X141028571Y-98061904D01*
X141333333Y-98061904D01*
X141409523Y-98100000D01*
X141447619Y-98138095D01*
X141485714Y-98214285D01*
X141485714Y-98328571D01*
X141447619Y-98404761D01*
X141409523Y-98442857D01*
X141333333Y-98480952D01*
X141028571Y-98480952D01*
X142247619Y-98861904D02*
X141790476Y-98861904D01*
X142019047Y-98861904D02*
X142019047Y-98061904D01*
X141942857Y-98176190D01*
X141866666Y-98252380D01*
X141790476Y-98290476D01*
X142628571Y-98861904D02*
X142780952Y-98861904D01*
X142857142Y-98823809D01*
X142895238Y-98785714D01*
X142971428Y-98671428D01*
X143009523Y-98519047D01*
X143009523Y-98214285D01*
X142971428Y-98138095D01*
X142933333Y-98100000D01*
X142857142Y-98061904D01*
X142704761Y-98061904D01*
X142628571Y-98100000D01*
X142590476Y-98138095D01*
X142552380Y-98214285D01*
X142552380Y-98404761D01*
X142590476Y-98480952D01*
X142628571Y-98519047D01*
X142704761Y-98557142D01*
X142857142Y-98557142D01*
X142933333Y-98519047D01*
X142971428Y-98480952D01*
X143009523Y-98404761D01*
G04 #@! TO.C,R20*
X139085714Y-98861904D02*
X138819047Y-98480952D01*
X138628571Y-98861904D02*
X138628571Y-98061904D01*
X138933333Y-98061904D01*
X139009523Y-98100000D01*
X139047619Y-98138095D01*
X139085714Y-98214285D01*
X139085714Y-98328571D01*
X139047619Y-98404761D01*
X139009523Y-98442857D01*
X138933333Y-98480952D01*
X138628571Y-98480952D01*
X139390476Y-98138095D02*
X139428571Y-98100000D01*
X139504761Y-98061904D01*
X139695238Y-98061904D01*
X139771428Y-98100000D01*
X139809523Y-98138095D01*
X139847619Y-98214285D01*
X139847619Y-98290476D01*
X139809523Y-98404761D01*
X139352380Y-98861904D01*
X139847619Y-98861904D01*
X140342857Y-98061904D02*
X140419047Y-98061904D01*
X140495238Y-98100000D01*
X140533333Y-98138095D01*
X140571428Y-98214285D01*
X140609523Y-98366666D01*
X140609523Y-98557142D01*
X140571428Y-98709523D01*
X140533333Y-98785714D01*
X140495238Y-98823809D01*
X140419047Y-98861904D01*
X140342857Y-98861904D01*
X140266666Y-98823809D01*
X140228571Y-98785714D01*
X140190476Y-98709523D01*
X140152380Y-98557142D01*
X140152380Y-98366666D01*
X140190476Y-98214285D01*
X140228571Y-98138095D01*
X140266666Y-98100000D01*
X140342857Y-98061904D01*
G04 #@! TO.C,U4*
X138590476Y-106561904D02*
X138590476Y-107209523D01*
X138628571Y-107285714D01*
X138666666Y-107323809D01*
X138742857Y-107361904D01*
X138895238Y-107361904D01*
X138971428Y-107323809D01*
X139009523Y-107285714D01*
X139047619Y-107209523D01*
X139047619Y-106561904D01*
X139771428Y-106828571D02*
X139771428Y-107361904D01*
X139580952Y-106523809D02*
X139390476Y-107095238D01*
X139885714Y-107095238D01*
G04 #@! TO.C,P2*
X132609523Y-91361904D02*
X132609523Y-90561904D01*
X132914285Y-90561904D01*
X132990476Y-90600000D01*
X133028571Y-90638095D01*
X133066666Y-90714285D01*
X133066666Y-90828571D01*
X133028571Y-90904761D01*
X132990476Y-90942857D01*
X132914285Y-90980952D01*
X132609523Y-90980952D01*
X133371428Y-90638095D02*
X133409523Y-90600000D01*
X133485714Y-90561904D01*
X133676190Y-90561904D01*
X133752380Y-90600000D01*
X133790476Y-90638095D01*
X133828571Y-90714285D01*
X133828571Y-90790476D01*
X133790476Y-90904761D01*
X133333333Y-91361904D01*
X133828571Y-91361904D01*
G04 #@! TO.C,Q1*
X176123809Y-93238095D02*
X176047619Y-93200000D01*
X175971428Y-93123809D01*
X175857142Y-93009523D01*
X175780952Y-92971428D01*
X175704761Y-92971428D01*
X175742857Y-93161904D02*
X175666666Y-93123809D01*
X175590476Y-93047619D01*
X175552380Y-92895238D01*
X175552380Y-92628571D01*
X175590476Y-92476190D01*
X175666666Y-92400000D01*
X175742857Y-92361904D01*
X175895238Y-92361904D01*
X175971428Y-92400000D01*
X176047619Y-92476190D01*
X176085714Y-92628571D01*
X176085714Y-92895238D01*
X176047619Y-93047619D01*
X175971428Y-93123809D01*
X175895238Y-93161904D01*
X175742857Y-93161904D01*
X176847619Y-93161904D02*
X176390476Y-93161904D01*
X176619047Y-93161904D02*
X176619047Y-92361904D01*
X176542857Y-92476190D01*
X176466666Y-92552380D01*
X176390476Y-92590476D01*
G04 #@! TO.C,TP1*
X174290476Y-102061904D02*
X174747619Y-102061904D01*
X174519047Y-102861904D02*
X174519047Y-102061904D01*
X175014285Y-102861904D02*
X175014285Y-102061904D01*
X175319047Y-102061904D01*
X175395238Y-102100000D01*
X175433333Y-102138095D01*
X175471428Y-102214285D01*
X175471428Y-102328571D01*
X175433333Y-102404761D01*
X175395238Y-102442857D01*
X175319047Y-102480952D01*
X175014285Y-102480952D01*
X176233333Y-102861904D02*
X175776190Y-102861904D01*
X176004761Y-102861904D02*
X176004761Y-102061904D01*
X175928571Y-102176190D01*
X175852380Y-102252380D01*
X175776190Y-102290476D01*
G04 #@! TO.C,TP2*
X174290476Y-100961904D02*
X174747619Y-100961904D01*
X174519047Y-101761904D02*
X174519047Y-100961904D01*
X175014285Y-101761904D02*
X175014285Y-100961904D01*
X175319047Y-100961904D01*
X175395238Y-101000000D01*
X175433333Y-101038095D01*
X175471428Y-101114285D01*
X175471428Y-101228571D01*
X175433333Y-101304761D01*
X175395238Y-101342857D01*
X175319047Y-101380952D01*
X175014285Y-101380952D01*
X175776190Y-101038095D02*
X175814285Y-101000000D01*
X175890476Y-100961904D01*
X176080952Y-100961904D01*
X176157142Y-101000000D01*
X176195238Y-101038095D01*
X176233333Y-101114285D01*
X176233333Y-101190476D01*
X176195238Y-101304761D01*
X175738095Y-101761904D01*
X176233333Y-101761904D01*
G04 #@! TO.C,TP3*
X174290476Y-99911904D02*
X174747619Y-99911904D01*
X174519047Y-100711904D02*
X174519047Y-99911904D01*
X175014285Y-100711904D02*
X175014285Y-99911904D01*
X175319047Y-99911904D01*
X175395238Y-99950000D01*
X175433333Y-99988095D01*
X175471428Y-100064285D01*
X175471428Y-100178571D01*
X175433333Y-100254761D01*
X175395238Y-100292857D01*
X175319047Y-100330952D01*
X175014285Y-100330952D01*
X175738095Y-99911904D02*
X176233333Y-99911904D01*
X175966666Y-100216666D01*
X176080952Y-100216666D01*
X176157142Y-100254761D01*
X176195238Y-100292857D01*
X176233333Y-100369047D01*
X176233333Y-100559523D01*
X176195238Y-100635714D01*
X176157142Y-100673809D01*
X176080952Y-100711904D01*
X175852380Y-100711904D01*
X175776190Y-100673809D01*
X175738095Y-100635714D01*
G04 #@! TO.C,TP4*
X174290476Y-98861904D02*
X174747619Y-98861904D01*
X174519047Y-99661904D02*
X174519047Y-98861904D01*
X175014285Y-99661904D02*
X175014285Y-98861904D01*
X175319047Y-98861904D01*
X175395238Y-98900000D01*
X175433333Y-98938095D01*
X175471428Y-99014285D01*
X175471428Y-99128571D01*
X175433333Y-99204761D01*
X175395238Y-99242857D01*
X175319047Y-99280952D01*
X175014285Y-99280952D01*
X176157142Y-99128571D02*
X176157142Y-99661904D01*
X175966666Y-98823809D02*
X175776190Y-99395238D01*
X176271428Y-99395238D01*
G04 #@! TO.C,TP5*
X152761904Y-97809523D02*
X152761904Y-97352380D01*
X153561904Y-97580952D02*
X152761904Y-97580952D01*
X153561904Y-97085714D02*
X152761904Y-97085714D01*
X152761904Y-96780952D01*
X152800000Y-96704761D01*
X152838095Y-96666666D01*
X152914285Y-96628571D01*
X153028571Y-96628571D01*
X153104761Y-96666666D01*
X153142857Y-96704761D01*
X153180952Y-96780952D01*
X153180952Y-97085714D01*
X152761904Y-95904761D02*
X152761904Y-96285714D01*
X153142857Y-96323809D01*
X153104761Y-96285714D01*
X153066666Y-96209523D01*
X153066666Y-96019047D01*
X153104761Y-95942857D01*
X153142857Y-95904761D01*
X153219047Y-95866666D01*
X153409523Y-95866666D01*
X153485714Y-95904761D01*
X153523809Y-95942857D01*
X153561904Y-96019047D01*
X153561904Y-96209523D01*
X153523809Y-96285714D01*
X153485714Y-96323809D01*
G04 #@! TO.C,TP6*
X152761904Y-100009523D02*
X152761904Y-99552380D01*
X153561904Y-99780952D02*
X152761904Y-99780952D01*
X153561904Y-99285714D02*
X152761904Y-99285714D01*
X152761904Y-98980952D01*
X152800000Y-98904761D01*
X152838095Y-98866666D01*
X152914285Y-98828571D01*
X153028571Y-98828571D01*
X153104761Y-98866666D01*
X153142857Y-98904761D01*
X153180952Y-98980952D01*
X153180952Y-99285714D01*
X152761904Y-98142857D02*
X152761904Y-98295238D01*
X152800000Y-98371428D01*
X152838095Y-98409523D01*
X152952380Y-98485714D01*
X153104761Y-98523809D01*
X153409523Y-98523809D01*
X153485714Y-98485714D01*
X153523809Y-98447619D01*
X153561904Y-98371428D01*
X153561904Y-98219047D01*
X153523809Y-98142857D01*
X153485714Y-98104761D01*
X153409523Y-98066666D01*
X153219047Y-98066666D01*
X153142857Y-98104761D01*
X153104761Y-98142857D01*
X153066666Y-98219047D01*
X153066666Y-98371428D01*
X153104761Y-98447619D01*
X153142857Y-98485714D01*
X153219047Y-98523809D01*
G04 #@! TO.C,TP7*
X151361904Y-100009523D02*
X151361904Y-99552380D01*
X152161904Y-99780952D02*
X151361904Y-99780952D01*
X152161904Y-99285714D02*
X151361904Y-99285714D01*
X151361904Y-98980952D01*
X151400000Y-98904761D01*
X151438095Y-98866666D01*
X151514285Y-98828571D01*
X151628571Y-98828571D01*
X151704761Y-98866666D01*
X151742857Y-98904761D01*
X151780952Y-98980952D01*
X151780952Y-99285714D01*
X151361904Y-98561904D02*
X151361904Y-98028571D01*
X152161904Y-98371428D01*
G04 #@! TO.C,TP8*
X151361904Y-97809523D02*
X151361904Y-97352380D01*
X152161904Y-97580952D02*
X151361904Y-97580952D01*
X152161904Y-97085714D02*
X151361904Y-97085714D01*
X151361904Y-96780952D01*
X151400000Y-96704761D01*
X151438095Y-96666666D01*
X151514285Y-96628571D01*
X151628571Y-96628571D01*
X151704761Y-96666666D01*
X151742857Y-96704761D01*
X151780952Y-96780952D01*
X151780952Y-97085714D01*
X151704761Y-96171428D02*
X151666666Y-96247619D01*
X151628571Y-96285714D01*
X151552380Y-96323809D01*
X151514285Y-96323809D01*
X151438095Y-96285714D01*
X151400000Y-96247619D01*
X151361904Y-96171428D01*
X151361904Y-96019047D01*
X151400000Y-95942857D01*
X151438095Y-95904761D01*
X151514285Y-95866666D01*
X151552380Y-95866666D01*
X151628571Y-95904761D01*
X151666666Y-95942857D01*
X151704761Y-96019047D01*
X151704761Y-96171428D01*
X151742857Y-96247619D01*
X151780952Y-96285714D01*
X151857142Y-96323809D01*
X152009523Y-96323809D01*
X152085714Y-96285714D01*
X152123809Y-96247619D01*
X152161904Y-96171428D01*
X152161904Y-96019047D01*
X152123809Y-95942857D01*
X152085714Y-95904761D01*
X152009523Y-95866666D01*
X151857142Y-95866666D01*
X151780952Y-95904761D01*
X151742857Y-95942857D01*
X151704761Y-96019047D01*
G04 #@! TO.C,TP9*
X154161904Y-100009523D02*
X154161904Y-99552380D01*
X154961904Y-99780952D02*
X154161904Y-99780952D01*
X154961904Y-99285714D02*
X154161904Y-99285714D01*
X154161904Y-98980952D01*
X154200000Y-98904761D01*
X154238095Y-98866666D01*
X154314285Y-98828571D01*
X154428571Y-98828571D01*
X154504761Y-98866666D01*
X154542857Y-98904761D01*
X154580952Y-98980952D01*
X154580952Y-99285714D01*
X154961904Y-98447619D02*
X154961904Y-98295238D01*
X154923809Y-98219047D01*
X154885714Y-98180952D01*
X154771428Y-98104761D01*
X154619047Y-98066666D01*
X154314285Y-98066666D01*
X154238095Y-98104761D01*
X154200000Y-98142857D01*
X154161904Y-98219047D01*
X154161904Y-98371428D01*
X154200000Y-98447619D01*
X154238095Y-98485714D01*
X154314285Y-98523809D01*
X154504761Y-98523809D01*
X154580952Y-98485714D01*
X154619047Y-98447619D01*
X154657142Y-98371428D01*
X154657142Y-98219047D01*
X154619047Y-98142857D01*
X154580952Y-98104761D01*
X154504761Y-98066666D01*
G04 #@! TO.C,TP10*
X154161904Y-97790476D02*
X154161904Y-97333333D01*
X154961904Y-97561904D02*
X154161904Y-97561904D01*
X154961904Y-97066666D02*
X154161904Y-97066666D01*
X154161904Y-96761904D01*
X154200000Y-96685714D01*
X154238095Y-96647619D01*
X154314285Y-96609523D01*
X154428571Y-96609523D01*
X154504761Y-96647619D01*
X154542857Y-96685714D01*
X154580952Y-96761904D01*
X154580952Y-97066666D01*
X154961904Y-95847619D02*
X154961904Y-96304761D01*
X154961904Y-96076190D02*
X154161904Y-96076190D01*
X154276190Y-96152380D01*
X154352380Y-96228571D01*
X154390476Y-96304761D01*
X154161904Y-95352380D02*
X154161904Y-95276190D01*
X154200000Y-95200000D01*
X154238095Y-95161904D01*
X154314285Y-95123809D01*
X154466666Y-95085714D01*
X154657142Y-95085714D01*
X154809523Y-95123809D01*
X154885714Y-95161904D01*
X154923809Y-95200000D01*
X154961904Y-95276190D01*
X154961904Y-95352380D01*
X154923809Y-95428571D01*
X154885714Y-95466666D01*
X154809523Y-95504761D01*
X154657142Y-95542857D01*
X154466666Y-95542857D01*
X154314285Y-95504761D01*
X154238095Y-95466666D01*
X154200000Y-95428571D01*
X154161904Y-95352380D01*
G04 #@! TO.C,TP11*
X149061904Y-114890476D02*
X149061904Y-114433333D01*
X149861904Y-114661904D02*
X149061904Y-114661904D01*
X149861904Y-114166666D02*
X149061904Y-114166666D01*
X149061904Y-113861904D01*
X149100000Y-113785714D01*
X149138095Y-113747619D01*
X149214285Y-113709523D01*
X149328571Y-113709523D01*
X149404761Y-113747619D01*
X149442857Y-113785714D01*
X149480952Y-113861904D01*
X149480952Y-114166666D01*
X149861904Y-112947619D02*
X149861904Y-113404761D01*
X149861904Y-113176190D02*
X149061904Y-113176190D01*
X149176190Y-113252380D01*
X149252380Y-113328571D01*
X149290476Y-113404761D01*
X149861904Y-112185714D02*
X149861904Y-112642857D01*
X149861904Y-112414285D02*
X149061904Y-112414285D01*
X149176190Y-112490476D01*
X149252380Y-112566666D01*
X149290476Y-112642857D01*
G04 #@! TO.C,TP12*
X147561904Y-114890476D02*
X147561904Y-114433333D01*
X148361904Y-114661904D02*
X147561904Y-114661904D01*
X148361904Y-114166666D02*
X147561904Y-114166666D01*
X147561904Y-113861904D01*
X147600000Y-113785714D01*
X147638095Y-113747619D01*
X147714285Y-113709523D01*
X147828571Y-113709523D01*
X147904761Y-113747619D01*
X147942857Y-113785714D01*
X147980952Y-113861904D01*
X147980952Y-114166666D01*
X148361904Y-112947619D02*
X148361904Y-113404761D01*
X148361904Y-113176190D02*
X147561904Y-113176190D01*
X147676190Y-113252380D01*
X147752380Y-113328571D01*
X147790476Y-113404761D01*
X147638095Y-112642857D02*
X147600000Y-112604761D01*
X147561904Y-112528571D01*
X147561904Y-112338095D01*
X147600000Y-112261904D01*
X147638095Y-112223809D01*
X147714285Y-112185714D01*
X147790476Y-112185714D01*
X147904761Y-112223809D01*
X148361904Y-112680952D01*
X148361904Y-112185714D01*
G04 #@! TO.C,TP13*
X150661904Y-114890476D02*
X150661904Y-114433333D01*
X151461904Y-114661904D02*
X150661904Y-114661904D01*
X151461904Y-114166666D02*
X150661904Y-114166666D01*
X150661904Y-113861904D01*
X150700000Y-113785714D01*
X150738095Y-113747619D01*
X150814285Y-113709523D01*
X150928571Y-113709523D01*
X151004761Y-113747619D01*
X151042857Y-113785714D01*
X151080952Y-113861904D01*
X151080952Y-114166666D01*
X151461904Y-112947619D02*
X151461904Y-113404761D01*
X151461904Y-113176190D02*
X150661904Y-113176190D01*
X150776190Y-113252380D01*
X150852380Y-113328571D01*
X150890476Y-113404761D01*
X150661904Y-112680952D02*
X150661904Y-112185714D01*
X150966666Y-112452380D01*
X150966666Y-112338095D01*
X151004761Y-112261904D01*
X151042857Y-112223809D01*
X151119047Y-112185714D01*
X151309523Y-112185714D01*
X151385714Y-112223809D01*
X151423809Y-112261904D01*
X151461904Y-112338095D01*
X151461904Y-112566666D01*
X151423809Y-112642857D01*
X151385714Y-112680952D01*
G04 #@! TO.C,TP15*
X176759523Y-98311904D02*
X177216666Y-98311904D01*
X176988095Y-99111904D02*
X176988095Y-98311904D01*
X177483333Y-99111904D02*
X177483333Y-98311904D01*
X177788095Y-98311904D01*
X177864285Y-98350000D01*
X177902380Y-98388095D01*
X177940476Y-98464285D01*
X177940476Y-98578571D01*
X177902380Y-98654761D01*
X177864285Y-98692857D01*
X177788095Y-98730952D01*
X177483333Y-98730952D01*
X178702380Y-99111904D02*
X178245238Y-99111904D01*
X178473809Y-99111904D02*
X178473809Y-98311904D01*
X178397619Y-98426190D01*
X178321428Y-98502380D01*
X178245238Y-98540476D01*
X179426190Y-98311904D02*
X179045238Y-98311904D01*
X179007142Y-98692857D01*
X179045238Y-98654761D01*
X179121428Y-98616666D01*
X179311904Y-98616666D01*
X179388095Y-98654761D01*
X179426190Y-98692857D01*
X179464285Y-98769047D01*
X179464285Y-98959523D01*
X179426190Y-99035714D01*
X179388095Y-99073809D01*
X179311904Y-99111904D01*
X179121428Y-99111904D01*
X179045238Y-99073809D01*
X179007142Y-99035714D01*
G04 #@! TO.C,J2*
X149733333Y-123761904D02*
X149733333Y-124333333D01*
X149695238Y-124447619D01*
X149619047Y-124523809D01*
X149504761Y-124561904D01*
X149428571Y-124561904D01*
X150076190Y-123838095D02*
X150114285Y-123800000D01*
X150190476Y-123761904D01*
X150380952Y-123761904D01*
X150457142Y-123800000D01*
X150495238Y-123838095D01*
X150533333Y-123914285D01*
X150533333Y-123990476D01*
X150495238Y-124104761D01*
X150038095Y-124561904D01*
X150533333Y-124561904D01*
G04 #@! TO.C,J4*
X149733333Y-115561904D02*
X149733333Y-116133333D01*
X149695238Y-116247619D01*
X149619047Y-116323809D01*
X149504761Y-116361904D01*
X149428571Y-116361904D01*
X150457142Y-115828571D02*
X150457142Y-116361904D01*
X150266666Y-115523809D02*
X150076190Y-116095238D01*
X150571428Y-116095238D01*
G04 #@! TO.C,C30*
X172885714Y-89314285D02*
X172923809Y-89352380D01*
X172961904Y-89466666D01*
X172961904Y-89542857D01*
X172923809Y-89657142D01*
X172847619Y-89733333D01*
X172771428Y-89771428D01*
X172619047Y-89809523D01*
X172504761Y-89809523D01*
X172352380Y-89771428D01*
X172276190Y-89733333D01*
X172200000Y-89657142D01*
X172161904Y-89542857D01*
X172161904Y-89466666D01*
X172200000Y-89352380D01*
X172238095Y-89314285D01*
X172161904Y-89047619D02*
X172161904Y-88552380D01*
X172466666Y-88819047D01*
X172466666Y-88704761D01*
X172504761Y-88628571D01*
X172542857Y-88590476D01*
X172619047Y-88552380D01*
X172809523Y-88552380D01*
X172885714Y-88590476D01*
X172923809Y-88628571D01*
X172961904Y-88704761D01*
X172961904Y-88933333D01*
X172923809Y-89009523D01*
X172885714Y-89047619D01*
X172161904Y-88057142D02*
X172161904Y-87980952D01*
X172200000Y-87904761D01*
X172238095Y-87866666D01*
X172314285Y-87828571D01*
X172466666Y-87790476D01*
X172657142Y-87790476D01*
X172809523Y-87828571D01*
X172885714Y-87866666D01*
X172923809Y-87904761D01*
X172961904Y-87980952D01*
X172961904Y-88057142D01*
X172923809Y-88133333D01*
X172885714Y-88171428D01*
X172809523Y-88209523D01*
X172657142Y-88247619D01*
X172466666Y-88247619D01*
X172314285Y-88209523D01*
X172238095Y-88171428D01*
X172200000Y-88133333D01*
X172161904Y-88057142D01*
G04 #@! TO.C,P4*
X176659523Y-91111904D02*
X176659523Y-90311904D01*
X176964285Y-90311904D01*
X177040476Y-90350000D01*
X177078571Y-90388095D01*
X177116666Y-90464285D01*
X177116666Y-90578571D01*
X177078571Y-90654761D01*
X177040476Y-90692857D01*
X176964285Y-90730952D01*
X176659523Y-90730952D01*
X177802380Y-90578571D02*
X177802380Y-91111904D01*
X177611904Y-90273809D02*
X177421428Y-90845238D01*
X177916666Y-90845238D01*
G04 #@! TO.C,R13*
X164035714Y-88861904D02*
X163769047Y-88480952D01*
X163578571Y-88861904D02*
X163578571Y-88061904D01*
X163883333Y-88061904D01*
X163959523Y-88100000D01*
X163997619Y-88138095D01*
X164035714Y-88214285D01*
X164035714Y-88328571D01*
X163997619Y-88404761D01*
X163959523Y-88442857D01*
X163883333Y-88480952D01*
X163578571Y-88480952D01*
X164797619Y-88861904D02*
X164340476Y-88861904D01*
X164569047Y-88861904D02*
X164569047Y-88061904D01*
X164492857Y-88176190D01*
X164416666Y-88252380D01*
X164340476Y-88290476D01*
X165064285Y-88061904D02*
X165559523Y-88061904D01*
X165292857Y-88366666D01*
X165407142Y-88366666D01*
X165483333Y-88404761D01*
X165521428Y-88442857D01*
X165559523Y-88519047D01*
X165559523Y-88709523D01*
X165521428Y-88785714D01*
X165483333Y-88823809D01*
X165407142Y-88861904D01*
X165178571Y-88861904D01*
X165102380Y-88823809D01*
X165064285Y-88785714D01*
G04 #@! TO.C,R14*
X172235714Y-87361904D02*
X171969047Y-86980952D01*
X171778571Y-87361904D02*
X171778571Y-86561904D01*
X172083333Y-86561904D01*
X172159523Y-86600000D01*
X172197619Y-86638095D01*
X172235714Y-86714285D01*
X172235714Y-86828571D01*
X172197619Y-86904761D01*
X172159523Y-86942857D01*
X172083333Y-86980952D01*
X171778571Y-86980952D01*
X172997619Y-87361904D02*
X172540476Y-87361904D01*
X172769047Y-87361904D02*
X172769047Y-86561904D01*
X172692857Y-86676190D01*
X172616666Y-86752380D01*
X172540476Y-86790476D01*
X173683333Y-86828571D02*
X173683333Y-87361904D01*
X173492857Y-86523809D02*
X173302380Y-87095238D01*
X173797619Y-87095238D01*
G04 #@! TO.C,R15*
X163985714Y-90361904D02*
X163719047Y-89980952D01*
X163528571Y-90361904D02*
X163528571Y-89561904D01*
X163833333Y-89561904D01*
X163909523Y-89600000D01*
X163947619Y-89638095D01*
X163985714Y-89714285D01*
X163985714Y-89828571D01*
X163947619Y-89904761D01*
X163909523Y-89942857D01*
X163833333Y-89980952D01*
X163528571Y-89980952D01*
X164747619Y-90361904D02*
X164290476Y-90361904D01*
X164519047Y-90361904D02*
X164519047Y-89561904D01*
X164442857Y-89676190D01*
X164366666Y-89752380D01*
X164290476Y-89790476D01*
X165471428Y-89561904D02*
X165090476Y-89561904D01*
X165052380Y-89942857D01*
X165090476Y-89904761D01*
X165166666Y-89866666D01*
X165357142Y-89866666D01*
X165433333Y-89904761D01*
X165471428Y-89942857D01*
X165509523Y-90019047D01*
X165509523Y-90209523D01*
X165471428Y-90285714D01*
X165433333Y-90323809D01*
X165357142Y-90361904D01*
X165166666Y-90361904D01*
X165090476Y-90323809D01*
X165052380Y-90285714D01*
G04 #@! TD*
M02*
