G04 #@! TF.GenerationSoftware,KiCad,Pcbnew,5.0.2-bee76a0~70~ubuntu18.04.1*
G04 #@! TF.CreationDate,2018-11-30T19:37:06+00:00*
G04 #@! TF.ProjectId,fpgaboy,66706761-626f-4792-9e6b-696361645f70,rev?*
G04 #@! TF.SameCoordinates,Original*
G04 #@! TF.FileFunction,Copper,L2,Inr*
G04 #@! TF.FilePolarity,Positive*
%FSLAX46Y46*%
G04 Gerber Fmt 4.6, Leading zero omitted, Abs format (unit mm)*
G04 Created by KiCad (PCBNEW 5.0.2-bee76a0~70~ubuntu18.04.1) date Fri 30 Nov 2018 19:37:06 GMT*
%MOMM*%
%LPD*%
G01*
G04 APERTURE LIST*
G04 #@! TA.AperFunction,ViaPad*
%ADD10R,1.700000X1.700000*%
G04 #@! TD*
G04 #@! TA.AperFunction,ViaPad*
%ADD11O,1.700000X1.700000*%
G04 #@! TD*
G04 #@! TA.AperFunction,ViaPad*
%ADD12O,1.250000X0.950000*%
G04 #@! TD*
G04 #@! TA.AperFunction,ViaPad*
%ADD13O,1.000000X1.550000*%
G04 #@! TD*
G04 #@! TA.AperFunction,ViaPad*
%ADD14C,1.200000*%
G04 #@! TD*
G04 #@! TA.AperFunction,ViaPad*
%ADD15C,2.000000*%
G04 #@! TD*
G04 #@! TA.AperFunction,ViaPad*
%ADD16C,0.600000*%
G04 #@! TD*
G04 #@! TA.AperFunction,Conductor*
%ADD17C,0.200000*%
G04 #@! TD*
G04 #@! TA.AperFunction,Conductor*
%ADD18C,0.150000*%
G04 #@! TD*
G04 APERTURE END LIST*
D10*
G04 #@! TO.N,GND*
G04 #@! TO.C,J1*
X132000000Y-122000000D03*
D11*
G04 #@! TO.N,/FPGA_UART_RX*
X132000000Y-119460000D03*
G04 #@! TO.N,/FPGA_UART_TX*
X132000000Y-116920000D03*
G04 #@! TO.N,/uC_SWD*
X132000000Y-114380000D03*
G04 #@! TO.N,/uC_SWCLK*
X132000000Y-111840000D03*
G04 #@! TO.N,/uC_~RST*
X132000000Y-109300000D03*
G04 #@! TO.N,/FPGA_CFG_~RST*
X132000000Y-106760000D03*
G04 #@! TO.N,/FPGA_CFG_DONE*
X132000000Y-104220000D03*
G04 #@! TO.N,/FPGA_CFG_~SS*
X132000000Y-101680000D03*
G04 #@! TO.N,/FPGA_CFG_SCK*
X132000000Y-99140000D03*
G04 #@! TO.N,/FPGA_CFG_SI*
X132000000Y-96600000D03*
G04 #@! TO.N,+BATT*
X132000000Y-94060000D03*
G04 #@! TD*
D12*
G04 #@! TO.N,GND*
G04 #@! TO.C,P3*
X144500900Y-84562540D03*
X139500900Y-84562540D03*
D13*
X145500900Y-81862540D03*
X138500900Y-81862540D03*
G04 #@! TD*
D14*
G04 #@! TO.N,+BATT*
G04 #@! TO.C,SW1*
X165000000Y-82000000D03*
G04 #@! TO.N,Net-(R12-Pad1)*
X167000000Y-82000000D03*
G04 #@! TO.N,N/C*
X169000000Y-82000000D03*
D15*
G04 #@! TO.N,*
X162900000Y-82000000D03*
X171100000Y-82000000D03*
G04 #@! TD*
D10*
G04 #@! TO.N,+BATT*
G04 #@! TO.C,P2*
X132000000Y-88500000D03*
D11*
G04 #@! TO.N,GND*
X134540000Y-88500000D03*
G04 #@! TD*
G04 #@! TO.N,GND*
G04 #@! TO.C,J2*
X149200000Y-122000000D03*
G04 #@! TO.N,/GPIO_SW4*
X146660000Y-122000000D03*
G04 #@! TO.N,/GPIO_SW3*
X144120000Y-122000000D03*
G04 #@! TO.N,/GPIO_SW2*
X141580000Y-122000000D03*
G04 #@! TO.N,/GPIO_SW1*
X139040000Y-122000000D03*
D10*
G04 #@! TO.N,/GPIO_SW0*
X136500000Y-122000000D03*
G04 #@! TD*
G04 #@! TO.N,/GPIO_SW5*
G04 #@! TO.C,J4*
X136500000Y-118000000D03*
D11*
G04 #@! TO.N,/GPIO_SW6*
X139040000Y-118000000D03*
G04 #@! TO.N,/GPIO_SW7*
X141580000Y-118000000D03*
G04 #@! TO.N,/GPIO_SW8*
X144120000Y-118000000D03*
G04 #@! TO.N,/GPIO_SW9*
X146660000Y-118000000D03*
G04 #@! TO.N,GND*
X149200000Y-118000000D03*
G04 #@! TD*
D10*
G04 #@! TO.N,Net-(C30-Pad1)*
G04 #@! TO.C,P4*
X174500000Y-88500000D03*
D11*
G04 #@! TO.N,GND*
X177040000Y-88500000D03*
G04 #@! TD*
D16*
G04 #@! TO.N,GND*
X163199999Y-106200967D03*
X162400000Y-106200968D03*
X161600000Y-105400000D03*
X162400000Y-105400000D03*
X163200000Y-105400000D03*
X161600000Y-104600000D03*
X162400000Y-104600000D03*
X154200000Y-124000000D03*
X170400000Y-116400000D03*
X164000000Y-124400000D03*
X172000000Y-128000000D03*
X178000000Y-122000000D03*
X136000000Y-128000000D03*
X169400000Y-93600000D03*
X178800000Y-110400000D03*
X171400000Y-100600000D03*
X174400000Y-110400000D03*
X177000000Y-93800000D03*
X140500000Y-111000000D03*
X150500000Y-105500002D03*
X150500000Y-104500000D03*
X143500000Y-111000000D03*
X146500000Y-111000000D03*
X143500000Y-99000000D03*
X139500000Y-106000000D03*
X161700000Y-99500000D03*
X161124990Y-88877656D03*
X147100000Y-99325054D03*
X146300000Y-96800000D03*
X162500000Y-88500000D03*
X171000000Y-108900000D03*
X134200000Y-108600000D03*
X154283378Y-116683378D03*
X153225021Y-110406863D03*
X156800000Y-83200000D03*
X149000000Y-108800000D03*
X149000000Y-101000000D03*
X171900000Y-112500000D03*
X171600000Y-123075000D03*
X174250010Y-106598783D03*
X171400000Y-101550000D03*
X131225000Y-124475000D03*
X135525000Y-94375000D03*
X133625000Y-104000000D03*
X135650000Y-110550000D03*
X141750000Y-114700000D03*
X149125000Y-128650000D03*
X163975000Y-128500000D03*
X162425000Y-116800000D03*
X161200000Y-81825000D03*
X148575000Y-83175000D03*
X140900010Y-98971629D03*
X131275000Y-84725000D03*
X134975000Y-81075000D03*
X137033977Y-87401931D03*
X139725000Y-98300000D03*
X167616261Y-106858739D03*
X136500000Y-103250000D03*
X139533739Y-104050021D03*
X172750000Y-87000000D03*
X167500000Y-85500000D03*
X161450000Y-112400000D03*
X157900000Y-113800000D03*
X167600000Y-94600000D03*
X168000000Y-81200010D03*
X178500000Y-99300000D03*
X165400000Y-87000000D03*
X154675000Y-92975000D03*
G04 #@! TO.N,+3V3*
X163999997Y-105400956D03*
X163200968Y-106999999D03*
X161600000Y-107000967D03*
X162399999Y-103800967D03*
X159999999Y-102200967D03*
X160800000Y-105400967D03*
X166399517Y-101400483D03*
X170900000Y-107200000D03*
X160200000Y-128500000D03*
X166800000Y-94200000D03*
X156200000Y-101400000D03*
X162400000Y-84600000D03*
X154400000Y-83200000D03*
X137200000Y-115000000D03*
X141600000Y-97600000D03*
X150100002Y-106750000D03*
X150100010Y-107450000D03*
X162711715Y-94225772D03*
X163150000Y-99349992D03*
X157900000Y-94325010D03*
X136700000Y-94300000D03*
X138500000Y-89625032D03*
X146700000Y-92300008D03*
X148800008Y-110700000D03*
X150054483Y-95145517D03*
X156074968Y-106156318D03*
X162600001Y-112400000D03*
X175500000Y-103200000D03*
X167816276Y-100500000D03*
G04 #@! TO.N,+BATT*
X133600000Y-105200000D03*
X137000000Y-128500004D03*
X144525000Y-107250000D03*
X141999988Y-106799988D03*
X178400000Y-104000000D03*
G04 #@! TO.N,+1V2*
X164000000Y-107000968D03*
X160799999Y-107000968D03*
X160800000Y-103800968D03*
X164000000Y-103800968D03*
X150250000Y-103000000D03*
X170300000Y-111100000D03*
X152600000Y-105500000D03*
X154074990Y-100002943D03*
X150250023Y-101999977D03*
X150300000Y-110700000D03*
X171642270Y-105258654D03*
X154595229Y-109595229D03*
X167816276Y-101452023D03*
G04 #@! TO.N,+5V*
X143712500Y-86200000D03*
X138209495Y-100699470D03*
G04 #@! TO.N,GNDPWR*
X144481942Y-104864309D03*
X143800000Y-104864309D03*
X145200000Y-104864309D03*
G04 #@! TO.N,/FPGA_UART_RX*
X163500000Y-96499944D03*
X150492995Y-98275043D03*
X155478015Y-97045493D03*
G04 #@! TO.N,/FPGA_UART_TX*
X163500000Y-95100000D03*
X149100000Y-98800044D03*
X154650000Y-97125010D03*
G04 #@! TO.N,/uC_SWD*
X137300000Y-96000000D03*
G04 #@! TO.N,/uC_SWCLK*
X137000000Y-95100000D03*
G04 #@! TO.N,/uC_~RST*
X137500000Y-90200000D03*
X138575000Y-102800000D03*
X144438377Y-102574979D03*
G04 #@! TO.N,/FPGA_CFG_~RST*
X167291266Y-102466256D03*
X147257005Y-89065981D03*
X167400000Y-97200000D03*
G04 #@! TO.N,/FPGA_CFG_DONE*
X164300000Y-98200000D03*
X146891990Y-91249989D03*
G04 #@! TO.N,/FPGA_CFG_~SS*
X165798963Y-100391912D03*
X143700000Y-88725010D03*
X166085834Y-97725931D03*
G04 #@! TO.N,/FPGA_CFG_SCK*
X166545835Y-100323358D03*
X146491313Y-88533791D03*
X166828764Y-97828758D03*
G04 #@! TO.N,/FPGA_CFG_SI*
X145459946Y-89699999D03*
X134700000Y-95200000D03*
X164000015Y-102199997D03*
G04 #@! TO.N,/GPIO_SW4*
X160800000Y-106200000D03*
G04 #@! TO.N,/GPIO_SW3*
X145000000Y-115000000D03*
G04 #@! TO.N,/GPIO_SW2*
X143400000Y-115000000D03*
G04 #@! TO.N,/GPIO_SW1*
X142775953Y-114583968D03*
G04 #@! TO.N,/GPIO_SW0*
X156374979Y-104700000D03*
G04 #@! TO.N,/uSD_DAT1*
X158600000Y-83800000D03*
X159676274Y-96374924D03*
G04 #@! TO.N,/uSD_DAT0*
X157299998Y-92300000D03*
X160274990Y-93948193D03*
G04 #@! TO.N,/uSD_CMD*
X153296239Y-83303761D03*
X154600000Y-95042477D03*
X157321786Y-93450012D03*
G04 #@! TO.N,/uSD_DAT3*
X155800000Y-85899964D03*
X153102895Y-94425010D03*
X159493485Y-92519310D03*
X159540171Y-93797995D03*
G04 #@! TO.N,/uSD_DAT2*
X154825010Y-85999996D03*
X158744801Y-92474700D03*
G04 #@! TO.N,/GPIO_SW8*
X143623885Y-116050012D03*
G04 #@! TO.N,/LCD_RESET*
X163200457Y-103800457D03*
X178500000Y-97600000D03*
G04 #@! TO.N,/LCD_SCL*
X175500000Y-101600000D03*
G04 #@! TO.N,/LCD_CS*
X175500000Y-100000000D03*
G04 #@! TO.N,/LCD_SDA*
X175500000Y-99200000D03*
G04 #@! TO.N,/LCD_SDO*
X174669661Y-98669661D03*
G04 #@! TO.N,Net-(P1-Pad11)*
X178400000Y-104800000D03*
G04 #@! TO.N,Net-(P1-Pad12)*
X178400000Y-105600000D03*
G04 #@! TO.N,Net-(P1-Pad13)*
X178400000Y-106400000D03*
G04 #@! TO.N,Net-(P1-Pad14)*
X178400000Y-107200000D03*
G04 #@! TO.N,Net-(R12-Pad1)*
X135325010Y-98599998D03*
X139249968Y-100034404D03*
X139342344Y-108757656D03*
G04 #@! TO.N,/SRAM_A1*
X160800000Y-107800000D03*
X155950013Y-125200000D03*
G04 #@! TO.N,/SRAM_A0*
X161600000Y-107800000D03*
X156800006Y-125200000D03*
G04 #@! TO.N,/SRAM_A2*
X160000000Y-107800000D03*
X155200000Y-125200000D03*
G04 #@! TO.N,/SRAM_~CE*
X162400000Y-107000000D03*
X157600000Y-125200000D03*
G04 #@! TO.N,/SRAM_A3*
X160000000Y-107000000D03*
X154400000Y-125200000D03*
G04 #@! TO.N,/SRAM_DQ1*
X163200000Y-107800000D03*
X158400000Y-125200000D03*
G04 #@! TO.N,/SRAM_DQ2*
X159200000Y-125200000D03*
X164754483Y-106954483D03*
G04 #@! TO.N,/SRAM_DQ3*
X164800000Y-106200000D03*
X160000000Y-125199982D03*
G04 #@! TO.N,/SRAM_DQ5*
X164800000Y-104600000D03*
X163200000Y-125200000D03*
G04 #@! TO.N,/SRAM_DQ4*
X164000001Y-104600968D03*
X160800000Y-125200000D03*
G04 #@! TO.N,/FPGA_HEARTBEAT*
X147400000Y-120125010D03*
X157550022Y-103000000D03*
G04 #@! TO.N,/LCD_D~C~*
X175500000Y-100800000D03*
G04 #@! TO.N,/AUDIO_PWM*
X163200483Y-102199517D03*
X165599994Y-91199994D03*
G04 #@! TD*
D17*
G04 #@! TO.N,GND*
G36*
X175823196Y-80424859D02*
X176620374Y-80642942D01*
X177366337Y-80998749D01*
X178037496Y-81481026D01*
X178612649Y-82074537D01*
X179073606Y-82760514D01*
X179405806Y-83517286D01*
X179599387Y-84323608D01*
X179650001Y-85012846D01*
X179650000Y-124984417D01*
X179575141Y-125823197D01*
X179357058Y-126620374D01*
X179001251Y-127366337D01*
X178518976Y-128037494D01*
X177925463Y-128612649D01*
X177239486Y-129073606D01*
X176482719Y-129405804D01*
X175676392Y-129599387D01*
X174987167Y-129650000D01*
X135015583Y-129650000D01*
X134176803Y-129575141D01*
X133379626Y-129357058D01*
X132633663Y-129001251D01*
X131962506Y-128518976D01*
X131828466Y-128380657D01*
X136400000Y-128380657D01*
X136400000Y-128619351D01*
X136491344Y-128839877D01*
X136660127Y-129008660D01*
X136880653Y-129100004D01*
X137119347Y-129100004D01*
X137339873Y-129008660D01*
X137508656Y-128839877D01*
X137600000Y-128619351D01*
X137600000Y-128380657D01*
X137599999Y-128380653D01*
X159600000Y-128380653D01*
X159600000Y-128619347D01*
X159691344Y-128839873D01*
X159860127Y-129008656D01*
X160080653Y-129100000D01*
X160319347Y-129100000D01*
X160539873Y-129008656D01*
X160708656Y-128839873D01*
X160800000Y-128619347D01*
X160800000Y-128380653D01*
X160708656Y-128160127D01*
X160539873Y-127991344D01*
X160319347Y-127900000D01*
X160080653Y-127900000D01*
X159860127Y-127991344D01*
X159691344Y-128160127D01*
X159600000Y-128380653D01*
X137599999Y-128380653D01*
X137508656Y-128160131D01*
X137339873Y-127991348D01*
X137119347Y-127900004D01*
X136880653Y-127900004D01*
X136660127Y-127991348D01*
X136491344Y-128160131D01*
X136400000Y-128380657D01*
X131828466Y-128380657D01*
X131387351Y-127925463D01*
X130926394Y-127239486D01*
X130594196Y-126482719D01*
X130411449Y-125721523D01*
X132600000Y-125721523D01*
X132600000Y-126278477D01*
X132813137Y-126793037D01*
X133206963Y-127186863D01*
X133721523Y-127400000D01*
X134278477Y-127400000D01*
X134793037Y-127186863D01*
X135186863Y-126793037D01*
X135400000Y-126278477D01*
X135400000Y-125721523D01*
X135186863Y-125206963D01*
X135060553Y-125080653D01*
X153800000Y-125080653D01*
X153800000Y-125319347D01*
X153891344Y-125539873D01*
X154060127Y-125708656D01*
X154280653Y-125800000D01*
X154519347Y-125800000D01*
X154739873Y-125708656D01*
X154800000Y-125648529D01*
X154860127Y-125708656D01*
X155080653Y-125800000D01*
X155319347Y-125800000D01*
X155539873Y-125708656D01*
X155575007Y-125673523D01*
X155610140Y-125708656D01*
X155830666Y-125800000D01*
X156069360Y-125800000D01*
X156289886Y-125708656D01*
X156375010Y-125623533D01*
X156460133Y-125708656D01*
X156680659Y-125800000D01*
X156919353Y-125800000D01*
X157139879Y-125708656D01*
X157200003Y-125648532D01*
X157260127Y-125708656D01*
X157480653Y-125800000D01*
X157719347Y-125800000D01*
X157939873Y-125708656D01*
X158000000Y-125648529D01*
X158060127Y-125708656D01*
X158280653Y-125800000D01*
X158519347Y-125800000D01*
X158739873Y-125708656D01*
X158800000Y-125648529D01*
X158860127Y-125708656D01*
X159080653Y-125800000D01*
X159319347Y-125800000D01*
X159539873Y-125708656D01*
X159600009Y-125648520D01*
X159660127Y-125708638D01*
X159880653Y-125799982D01*
X160119347Y-125799982D01*
X160339873Y-125708638D01*
X160399991Y-125648520D01*
X160460127Y-125708656D01*
X160680653Y-125800000D01*
X160919347Y-125800000D01*
X161139873Y-125708656D01*
X161308656Y-125539873D01*
X161400000Y-125319347D01*
X161400000Y-125080653D01*
X162600000Y-125080653D01*
X162600000Y-125319347D01*
X162691344Y-125539873D01*
X162860127Y-125708656D01*
X163080653Y-125800000D01*
X163319347Y-125800000D01*
X163508809Y-125721523D01*
X174600000Y-125721523D01*
X174600000Y-126278477D01*
X174813137Y-126793037D01*
X175206963Y-127186863D01*
X175721523Y-127400000D01*
X176278477Y-127400000D01*
X176793037Y-127186863D01*
X177186863Y-126793037D01*
X177400000Y-126278477D01*
X177400000Y-125721523D01*
X177186863Y-125206963D01*
X176793037Y-124813137D01*
X176278477Y-124600000D01*
X175721523Y-124600000D01*
X175206963Y-124813137D01*
X174813137Y-125206963D01*
X174600000Y-125721523D01*
X163508809Y-125721523D01*
X163539873Y-125708656D01*
X163708656Y-125539873D01*
X163800000Y-125319347D01*
X163800000Y-125080653D01*
X163708656Y-124860127D01*
X163539873Y-124691344D01*
X163319347Y-124600000D01*
X163080653Y-124600000D01*
X162860127Y-124691344D01*
X162691344Y-124860127D01*
X162600000Y-125080653D01*
X161400000Y-125080653D01*
X161308656Y-124860127D01*
X161139873Y-124691344D01*
X160919347Y-124600000D01*
X160680653Y-124600000D01*
X160460127Y-124691344D01*
X160400009Y-124751462D01*
X160339873Y-124691326D01*
X160119347Y-124599982D01*
X159880653Y-124599982D01*
X159660127Y-124691326D01*
X159599991Y-124751462D01*
X159539873Y-124691344D01*
X159319347Y-124600000D01*
X159080653Y-124600000D01*
X158860127Y-124691344D01*
X158800000Y-124751471D01*
X158739873Y-124691344D01*
X158519347Y-124600000D01*
X158280653Y-124600000D01*
X158060127Y-124691344D01*
X158000000Y-124751471D01*
X157939873Y-124691344D01*
X157719347Y-124600000D01*
X157480653Y-124600000D01*
X157260127Y-124691344D01*
X157200003Y-124751468D01*
X157139879Y-124691344D01*
X156919353Y-124600000D01*
X156680659Y-124600000D01*
X156460133Y-124691344D01*
X156375010Y-124776468D01*
X156289886Y-124691344D01*
X156069360Y-124600000D01*
X155830666Y-124600000D01*
X155610140Y-124691344D01*
X155575007Y-124726478D01*
X155539873Y-124691344D01*
X155319347Y-124600000D01*
X155080653Y-124600000D01*
X154860127Y-124691344D01*
X154800000Y-124751471D01*
X154739873Y-124691344D01*
X154519347Y-124600000D01*
X154280653Y-124600000D01*
X154060127Y-124691344D01*
X153891344Y-124860127D01*
X153800000Y-125080653D01*
X135060553Y-125080653D01*
X134793037Y-124813137D01*
X134278477Y-124600000D01*
X133721523Y-124600000D01*
X133206963Y-124813137D01*
X132813137Y-125206963D01*
X132600000Y-125721523D01*
X130411449Y-125721523D01*
X130400613Y-125676392D01*
X130350000Y-124987167D01*
X130350000Y-122112500D01*
X130800000Y-122112500D01*
X130800000Y-122919620D01*
X130853285Y-123048259D01*
X130951741Y-123146716D01*
X131080381Y-123200000D01*
X131887500Y-123200000D01*
X131975000Y-123112500D01*
X131975000Y-122025000D01*
X132025000Y-122025000D01*
X132025000Y-123112500D01*
X132112500Y-123200000D01*
X132919619Y-123200000D01*
X133048259Y-123146716D01*
X133146715Y-123048259D01*
X133200000Y-122919620D01*
X133200000Y-122112500D01*
X133112500Y-122025000D01*
X132025000Y-122025000D01*
X131975000Y-122025000D01*
X130887500Y-122025000D01*
X130800000Y-122112500D01*
X130350000Y-122112500D01*
X130350000Y-121080380D01*
X130800000Y-121080380D01*
X130800000Y-121887500D01*
X130887500Y-121975000D01*
X131975000Y-121975000D01*
X131975000Y-120887500D01*
X132025000Y-120887500D01*
X132025000Y-121975000D01*
X133112500Y-121975000D01*
X133200000Y-121887500D01*
X133200000Y-121150000D01*
X135344123Y-121150000D01*
X135344123Y-122850000D01*
X135367407Y-122967054D01*
X135433712Y-123066288D01*
X135532946Y-123132593D01*
X135650000Y-123155877D01*
X137350000Y-123155877D01*
X137467054Y-123132593D01*
X137566288Y-123066288D01*
X137632593Y-122967054D01*
X137655877Y-122850000D01*
X137655877Y-122000000D01*
X137867471Y-122000000D01*
X137956724Y-122448707D01*
X138210897Y-122829103D01*
X138591293Y-123083276D01*
X138926739Y-123150000D01*
X139153261Y-123150000D01*
X139488707Y-123083276D01*
X139869103Y-122829103D01*
X140123276Y-122448707D01*
X140212529Y-122000000D01*
X140407471Y-122000000D01*
X140496724Y-122448707D01*
X140750897Y-122829103D01*
X141131293Y-123083276D01*
X141466739Y-123150000D01*
X141693261Y-123150000D01*
X142028707Y-123083276D01*
X142409103Y-122829103D01*
X142663276Y-122448707D01*
X142752529Y-122000000D01*
X142947471Y-122000000D01*
X143036724Y-122448707D01*
X143290897Y-122829103D01*
X143671293Y-123083276D01*
X144006739Y-123150000D01*
X144233261Y-123150000D01*
X144568707Y-123083276D01*
X144949103Y-122829103D01*
X145203276Y-122448707D01*
X145292529Y-122000000D01*
X145487471Y-122000000D01*
X145576724Y-122448707D01*
X145830897Y-122829103D01*
X146211293Y-123083276D01*
X146546739Y-123150000D01*
X146773261Y-123150000D01*
X147108707Y-123083276D01*
X147489103Y-122829103D01*
X147743276Y-122448707D01*
X147790285Y-122212373D01*
X148018940Y-122212373D01*
X148190114Y-122648179D01*
X148515034Y-122985306D01*
X148944234Y-123172429D01*
X148987627Y-123181058D01*
X149175000Y-123112219D01*
X149175000Y-122025000D01*
X149225000Y-122025000D01*
X149225000Y-123112219D01*
X149412373Y-123181058D01*
X149455766Y-123172429D01*
X149884966Y-122985306D01*
X150209886Y-122648179D01*
X150381060Y-122212373D01*
X150312242Y-122025000D01*
X149225000Y-122025000D01*
X149175000Y-122025000D01*
X148087758Y-122025000D01*
X148018940Y-122212373D01*
X147790285Y-122212373D01*
X147832529Y-122000000D01*
X147790286Y-121787627D01*
X148018940Y-121787627D01*
X148087758Y-121975000D01*
X149175000Y-121975000D01*
X149175000Y-120887781D01*
X149225000Y-120887781D01*
X149225000Y-121975000D01*
X150312242Y-121975000D01*
X150381060Y-121787627D01*
X150209886Y-121351821D01*
X149884966Y-121014694D01*
X149455766Y-120827571D01*
X149412373Y-120818942D01*
X149225000Y-120887781D01*
X149175000Y-120887781D01*
X148987627Y-120818942D01*
X148944234Y-120827571D01*
X148515034Y-121014694D01*
X148190114Y-121351821D01*
X148018940Y-121787627D01*
X147790286Y-121787627D01*
X147743276Y-121551293D01*
X147489103Y-121170897D01*
X147108707Y-120916724D01*
X146773261Y-120850000D01*
X146546739Y-120850000D01*
X146211293Y-120916724D01*
X145830897Y-121170897D01*
X145576724Y-121551293D01*
X145487471Y-122000000D01*
X145292529Y-122000000D01*
X145203276Y-121551293D01*
X144949103Y-121170897D01*
X144568707Y-120916724D01*
X144233261Y-120850000D01*
X144006739Y-120850000D01*
X143671293Y-120916724D01*
X143290897Y-121170897D01*
X143036724Y-121551293D01*
X142947471Y-122000000D01*
X142752529Y-122000000D01*
X142663276Y-121551293D01*
X142409103Y-121170897D01*
X142028707Y-120916724D01*
X141693261Y-120850000D01*
X141466739Y-120850000D01*
X141131293Y-120916724D01*
X140750897Y-121170897D01*
X140496724Y-121551293D01*
X140407471Y-122000000D01*
X140212529Y-122000000D01*
X140123276Y-121551293D01*
X139869103Y-121170897D01*
X139488707Y-120916724D01*
X139153261Y-120850000D01*
X138926739Y-120850000D01*
X138591293Y-120916724D01*
X138210897Y-121170897D01*
X137956724Y-121551293D01*
X137867471Y-122000000D01*
X137655877Y-122000000D01*
X137655877Y-121150000D01*
X137632593Y-121032946D01*
X137566288Y-120933712D01*
X137467054Y-120867407D01*
X137350000Y-120844123D01*
X135650000Y-120844123D01*
X135532946Y-120867407D01*
X135433712Y-120933712D01*
X135367407Y-121032946D01*
X135344123Y-121150000D01*
X133200000Y-121150000D01*
X133200000Y-121080380D01*
X133146715Y-120951741D01*
X133048259Y-120853284D01*
X132919619Y-120800000D01*
X132112500Y-120800000D01*
X132025000Y-120887500D01*
X131975000Y-120887500D01*
X131887500Y-120800000D01*
X131080381Y-120800000D01*
X130951741Y-120853284D01*
X130853285Y-120951741D01*
X130800000Y-121080380D01*
X130350000Y-121080380D01*
X130350000Y-119460000D01*
X130827471Y-119460000D01*
X130916724Y-119908707D01*
X131170897Y-120289103D01*
X131551293Y-120543276D01*
X131886739Y-120610000D01*
X132113261Y-120610000D01*
X132448707Y-120543276D01*
X132829103Y-120289103D01*
X133018491Y-120005663D01*
X146800000Y-120005663D01*
X146800000Y-120244357D01*
X146891344Y-120464883D01*
X147060127Y-120633666D01*
X147280653Y-120725010D01*
X147519347Y-120725010D01*
X147739873Y-120633666D01*
X147908656Y-120464883D01*
X148000000Y-120244357D01*
X148000000Y-120005663D01*
X147908656Y-119785137D01*
X147739873Y-119616354D01*
X147519347Y-119525010D01*
X147280653Y-119525010D01*
X147060127Y-119616354D01*
X146891344Y-119785137D01*
X146800000Y-120005663D01*
X133018491Y-120005663D01*
X133083276Y-119908707D01*
X133172529Y-119460000D01*
X133083276Y-119011293D01*
X132829103Y-118630897D01*
X132448707Y-118376724D01*
X132113261Y-118310000D01*
X131886739Y-118310000D01*
X131551293Y-118376724D01*
X131170897Y-118630897D01*
X130916724Y-119011293D01*
X130827471Y-119460000D01*
X130350000Y-119460000D01*
X130350000Y-116920000D01*
X130827471Y-116920000D01*
X130916724Y-117368707D01*
X131170897Y-117749103D01*
X131551293Y-118003276D01*
X131886739Y-118070000D01*
X132113261Y-118070000D01*
X132448707Y-118003276D01*
X132829103Y-117749103D01*
X133083276Y-117368707D01*
X133126779Y-117150000D01*
X135344123Y-117150000D01*
X135344123Y-118850000D01*
X135367407Y-118967054D01*
X135433712Y-119066288D01*
X135532946Y-119132593D01*
X135650000Y-119155877D01*
X137350000Y-119155877D01*
X137467054Y-119132593D01*
X137566288Y-119066288D01*
X137632593Y-118967054D01*
X137655877Y-118850000D01*
X137655877Y-118000000D01*
X137867471Y-118000000D01*
X137956724Y-118448707D01*
X138210897Y-118829103D01*
X138591293Y-119083276D01*
X138926739Y-119150000D01*
X139153261Y-119150000D01*
X139488707Y-119083276D01*
X139869103Y-118829103D01*
X140123276Y-118448707D01*
X140212529Y-118000000D01*
X140407471Y-118000000D01*
X140496724Y-118448707D01*
X140750897Y-118829103D01*
X141131293Y-119083276D01*
X141466739Y-119150000D01*
X141693261Y-119150000D01*
X142028707Y-119083276D01*
X142409103Y-118829103D01*
X142663276Y-118448707D01*
X142752529Y-118000000D01*
X142947471Y-118000000D01*
X143036724Y-118448707D01*
X143290897Y-118829103D01*
X143671293Y-119083276D01*
X144006739Y-119150000D01*
X144233261Y-119150000D01*
X144568707Y-119083276D01*
X144949103Y-118829103D01*
X145203276Y-118448707D01*
X145292529Y-118000000D01*
X145487471Y-118000000D01*
X145576724Y-118448707D01*
X145830897Y-118829103D01*
X146211293Y-119083276D01*
X146546739Y-119150000D01*
X146773261Y-119150000D01*
X147108707Y-119083276D01*
X147489103Y-118829103D01*
X147743276Y-118448707D01*
X147790285Y-118212373D01*
X148018940Y-118212373D01*
X148190114Y-118648179D01*
X148515034Y-118985306D01*
X148944234Y-119172429D01*
X148987627Y-119181058D01*
X149175000Y-119112219D01*
X149175000Y-118025000D01*
X149225000Y-118025000D01*
X149225000Y-119112219D01*
X149412373Y-119181058D01*
X149455766Y-119172429D01*
X149884966Y-118985306D01*
X150209886Y-118648179D01*
X150381060Y-118212373D01*
X150312242Y-118025000D01*
X149225000Y-118025000D01*
X149175000Y-118025000D01*
X148087758Y-118025000D01*
X148018940Y-118212373D01*
X147790285Y-118212373D01*
X147832529Y-118000000D01*
X147790286Y-117787627D01*
X148018940Y-117787627D01*
X148087758Y-117975000D01*
X149175000Y-117975000D01*
X149175000Y-116887781D01*
X149225000Y-116887781D01*
X149225000Y-117975000D01*
X150312242Y-117975000D01*
X150381060Y-117787627D01*
X150209886Y-117351821D01*
X149884966Y-117014694D01*
X149455766Y-116827571D01*
X149412373Y-116818942D01*
X149225000Y-116887781D01*
X149175000Y-116887781D01*
X148987627Y-116818942D01*
X148944234Y-116827571D01*
X148515034Y-117014694D01*
X148190114Y-117351821D01*
X148018940Y-117787627D01*
X147790286Y-117787627D01*
X147743276Y-117551293D01*
X147489103Y-117170897D01*
X147108707Y-116916724D01*
X146773261Y-116850000D01*
X146546739Y-116850000D01*
X146211293Y-116916724D01*
X145830897Y-117170897D01*
X145576724Y-117551293D01*
X145487471Y-118000000D01*
X145292529Y-118000000D01*
X145203276Y-117551293D01*
X144949103Y-117170897D01*
X144568707Y-116916724D01*
X144233261Y-116850000D01*
X144006739Y-116850000D01*
X143671293Y-116916724D01*
X143290897Y-117170897D01*
X143036724Y-117551293D01*
X142947471Y-118000000D01*
X142752529Y-118000000D01*
X142663276Y-117551293D01*
X142409103Y-117170897D01*
X142028707Y-116916724D01*
X141693261Y-116850000D01*
X141466739Y-116850000D01*
X141131293Y-116916724D01*
X140750897Y-117170897D01*
X140496724Y-117551293D01*
X140407471Y-118000000D01*
X140212529Y-118000000D01*
X140123276Y-117551293D01*
X139869103Y-117170897D01*
X139488707Y-116916724D01*
X139153261Y-116850000D01*
X138926739Y-116850000D01*
X138591293Y-116916724D01*
X138210897Y-117170897D01*
X137956724Y-117551293D01*
X137867471Y-118000000D01*
X137655877Y-118000000D01*
X137655877Y-117150000D01*
X137632593Y-117032946D01*
X137566288Y-116933712D01*
X137467054Y-116867407D01*
X137350000Y-116844123D01*
X135650000Y-116844123D01*
X135532946Y-116867407D01*
X135433712Y-116933712D01*
X135367407Y-117032946D01*
X135344123Y-117150000D01*
X133126779Y-117150000D01*
X133172529Y-116920000D01*
X133083276Y-116471293D01*
X132829103Y-116090897D01*
X132448707Y-115836724D01*
X132113261Y-115770000D01*
X131886739Y-115770000D01*
X131551293Y-115836724D01*
X131170897Y-116090897D01*
X130916724Y-116471293D01*
X130827471Y-116920000D01*
X130350000Y-116920000D01*
X130350000Y-114380000D01*
X130827471Y-114380000D01*
X130916724Y-114828707D01*
X131170897Y-115209103D01*
X131551293Y-115463276D01*
X131886739Y-115530000D01*
X132113261Y-115530000D01*
X132448707Y-115463276D01*
X132829103Y-115209103D01*
X133048566Y-114880653D01*
X136600000Y-114880653D01*
X136600000Y-115119347D01*
X136691344Y-115339873D01*
X136860127Y-115508656D01*
X137080653Y-115600000D01*
X137319347Y-115600000D01*
X137539873Y-115508656D01*
X137708656Y-115339873D01*
X137800000Y-115119347D01*
X137800000Y-114880653D01*
X137708656Y-114660127D01*
X137539873Y-114491344D01*
X137475358Y-114464621D01*
X142175953Y-114464621D01*
X142175953Y-114703315D01*
X142267297Y-114923841D01*
X142436080Y-115092624D01*
X142656606Y-115183968D01*
X142826767Y-115183968D01*
X142891344Y-115339873D01*
X143060127Y-115508656D01*
X143241560Y-115583808D01*
X143115229Y-115710139D01*
X143023885Y-115930665D01*
X143023885Y-116169359D01*
X143115229Y-116389885D01*
X143284012Y-116558668D01*
X143504538Y-116650012D01*
X143743232Y-116650012D01*
X143963758Y-116558668D01*
X144132541Y-116389885D01*
X144223885Y-116169359D01*
X144223885Y-115930665D01*
X144132541Y-115710139D01*
X143963758Y-115541356D01*
X143782325Y-115466204D01*
X143908656Y-115339873D01*
X144000000Y-115119347D01*
X144000000Y-114880653D01*
X144400000Y-114880653D01*
X144400000Y-115119347D01*
X144491344Y-115339873D01*
X144660127Y-115508656D01*
X144880653Y-115600000D01*
X145119347Y-115600000D01*
X145339873Y-115508656D01*
X145508656Y-115339873D01*
X145600000Y-115119347D01*
X145600000Y-114880653D01*
X145508656Y-114660127D01*
X145339873Y-114491344D01*
X145119347Y-114400000D01*
X144880653Y-114400000D01*
X144660127Y-114491344D01*
X144491344Y-114660127D01*
X144400000Y-114880653D01*
X144000000Y-114880653D01*
X143908656Y-114660127D01*
X143739873Y-114491344D01*
X143519347Y-114400000D01*
X143349186Y-114400000D01*
X143284609Y-114244095D01*
X143115826Y-114075312D01*
X142895300Y-113983968D01*
X142656606Y-113983968D01*
X142436080Y-114075312D01*
X142267297Y-114244095D01*
X142175953Y-114464621D01*
X137475358Y-114464621D01*
X137319347Y-114400000D01*
X137080653Y-114400000D01*
X136860127Y-114491344D01*
X136691344Y-114660127D01*
X136600000Y-114880653D01*
X133048566Y-114880653D01*
X133083276Y-114828707D01*
X133172529Y-114380000D01*
X133083276Y-113931293D01*
X132829103Y-113550897D01*
X132448707Y-113296724D01*
X132113261Y-113230000D01*
X131886739Y-113230000D01*
X131551293Y-113296724D01*
X131170897Y-113550897D01*
X130916724Y-113931293D01*
X130827471Y-114380000D01*
X130350000Y-114380000D01*
X130350000Y-111840000D01*
X130827471Y-111840000D01*
X130916724Y-112288707D01*
X131170897Y-112669103D01*
X131551293Y-112923276D01*
X131886739Y-112990000D01*
X132113261Y-112990000D01*
X132448707Y-112923276D01*
X132829103Y-112669103D01*
X133083276Y-112288707D01*
X133084878Y-112280653D01*
X162000001Y-112280653D01*
X162000001Y-112519347D01*
X162091345Y-112739873D01*
X162260128Y-112908656D01*
X162480654Y-113000000D01*
X162719348Y-113000000D01*
X162939874Y-112908656D01*
X163108657Y-112739873D01*
X163200001Y-112519347D01*
X163200001Y-112280653D01*
X163108657Y-112060127D01*
X162939874Y-111891344D01*
X162719348Y-111800000D01*
X162480654Y-111800000D01*
X162260128Y-111891344D01*
X162091345Y-112060127D01*
X162000001Y-112280653D01*
X133084878Y-112280653D01*
X133172529Y-111840000D01*
X133083276Y-111391293D01*
X132829103Y-111010897D01*
X132448707Y-110756724D01*
X132113261Y-110690000D01*
X131886739Y-110690000D01*
X131551293Y-110756724D01*
X131170897Y-111010897D01*
X130916724Y-111391293D01*
X130827471Y-111840000D01*
X130350000Y-111840000D01*
X130350000Y-110580653D01*
X148200008Y-110580653D01*
X148200008Y-110819347D01*
X148291352Y-111039873D01*
X148460135Y-111208656D01*
X148680661Y-111300000D01*
X148919355Y-111300000D01*
X149139881Y-111208656D01*
X149308664Y-111039873D01*
X149400008Y-110819347D01*
X149400008Y-110580653D01*
X149700000Y-110580653D01*
X149700000Y-110819347D01*
X149791344Y-111039873D01*
X149960127Y-111208656D01*
X150180653Y-111300000D01*
X150419347Y-111300000D01*
X150639873Y-111208656D01*
X150808656Y-111039873D01*
X150900000Y-110819347D01*
X150900000Y-110580653D01*
X150808656Y-110360127D01*
X150639873Y-110191344D01*
X150419347Y-110100000D01*
X150180653Y-110100000D01*
X149960127Y-110191344D01*
X149791344Y-110360127D01*
X149700000Y-110580653D01*
X149400008Y-110580653D01*
X149308664Y-110360127D01*
X149139881Y-110191344D01*
X148919355Y-110100000D01*
X148680661Y-110100000D01*
X148460135Y-110191344D01*
X148291352Y-110360127D01*
X148200008Y-110580653D01*
X130350000Y-110580653D01*
X130350000Y-109300000D01*
X130827471Y-109300000D01*
X130916724Y-109748707D01*
X131170897Y-110129103D01*
X131551293Y-110383276D01*
X131886739Y-110450000D01*
X132113261Y-110450000D01*
X132448707Y-110383276D01*
X132829103Y-110129103D01*
X133083276Y-109748707D01*
X133137544Y-109475882D01*
X153995229Y-109475882D01*
X153995229Y-109714576D01*
X154086573Y-109935102D01*
X154255356Y-110103885D01*
X154475882Y-110195229D01*
X154714576Y-110195229D01*
X154935102Y-110103885D01*
X155103885Y-109935102D01*
X155195229Y-109714576D01*
X155195229Y-109475882D01*
X155103885Y-109255356D01*
X154935102Y-109086573D01*
X154714576Y-108995229D01*
X154475882Y-108995229D01*
X154255356Y-109086573D01*
X154086573Y-109255356D01*
X153995229Y-109475882D01*
X133137544Y-109475882D01*
X133172529Y-109300000D01*
X133083276Y-108851293D01*
X132940965Y-108638309D01*
X138742344Y-108638309D01*
X138742344Y-108877003D01*
X138833688Y-109097529D01*
X139002471Y-109266312D01*
X139222997Y-109357656D01*
X139461691Y-109357656D01*
X139682217Y-109266312D01*
X139851000Y-109097529D01*
X139942344Y-108877003D01*
X139942344Y-108638309D01*
X139851000Y-108417783D01*
X139682217Y-108249000D01*
X139461691Y-108157656D01*
X139222997Y-108157656D01*
X139002471Y-108249000D01*
X138833688Y-108417783D01*
X138742344Y-108638309D01*
X132940965Y-108638309D01*
X132829103Y-108470897D01*
X132448707Y-108216724D01*
X132113261Y-108150000D01*
X131886739Y-108150000D01*
X131551293Y-108216724D01*
X131170897Y-108470897D01*
X130916724Y-108851293D01*
X130827471Y-109300000D01*
X130350000Y-109300000D01*
X130350000Y-106760000D01*
X130827471Y-106760000D01*
X130916724Y-107208707D01*
X131170897Y-107589103D01*
X131551293Y-107843276D01*
X131886739Y-107910000D01*
X132113261Y-107910000D01*
X132448707Y-107843276D01*
X132829103Y-107589103D01*
X133083276Y-107208707D01*
X133172529Y-106760000D01*
X133156744Y-106680641D01*
X141399988Y-106680641D01*
X141399988Y-106919335D01*
X141491332Y-107139861D01*
X141660115Y-107308644D01*
X141880641Y-107399988D01*
X142119335Y-107399988D01*
X142339861Y-107308644D01*
X142508644Y-107139861D01*
X142512458Y-107130653D01*
X143925000Y-107130653D01*
X143925000Y-107369347D01*
X144016344Y-107589873D01*
X144185127Y-107758656D01*
X144405653Y-107850000D01*
X144644347Y-107850000D01*
X144864873Y-107758656D01*
X145033656Y-107589873D01*
X145125000Y-107369347D01*
X145125000Y-107130653D01*
X145033656Y-106910127D01*
X144864873Y-106741344D01*
X144644347Y-106650000D01*
X144405653Y-106650000D01*
X144185127Y-106741344D01*
X144016344Y-106910127D01*
X143925000Y-107130653D01*
X142512458Y-107130653D01*
X142599988Y-106919335D01*
X142599988Y-106680641D01*
X142579283Y-106630653D01*
X149500002Y-106630653D01*
X149500002Y-106869347D01*
X149591346Y-107089873D01*
X149601477Y-107100004D01*
X149591354Y-107110127D01*
X149500010Y-107330653D01*
X149500010Y-107569347D01*
X149591354Y-107789873D01*
X149760137Y-107958656D01*
X149980663Y-108050000D01*
X150219357Y-108050000D01*
X150439883Y-107958656D01*
X150608666Y-107789873D01*
X150700010Y-107569347D01*
X150700010Y-107330653D01*
X150608666Y-107110127D01*
X150598535Y-107099996D01*
X150608658Y-107089873D01*
X150700002Y-106869347D01*
X150700002Y-106630653D01*
X150608658Y-106410127D01*
X150439875Y-106241344D01*
X150219349Y-106150000D01*
X149980655Y-106150000D01*
X149760129Y-106241344D01*
X149591346Y-106410127D01*
X149500002Y-106630653D01*
X142579283Y-106630653D01*
X142508644Y-106460115D01*
X142339861Y-106291332D01*
X142119335Y-106199988D01*
X141880641Y-106199988D01*
X141660115Y-106291332D01*
X141491332Y-106460115D01*
X141399988Y-106680641D01*
X133156744Y-106680641D01*
X133083276Y-106311293D01*
X132829103Y-105930897D01*
X132448707Y-105676724D01*
X132113261Y-105610000D01*
X131886739Y-105610000D01*
X131551293Y-105676724D01*
X131170897Y-105930897D01*
X130916724Y-106311293D01*
X130827471Y-106760000D01*
X130350000Y-106760000D01*
X130350000Y-104220000D01*
X130827471Y-104220000D01*
X130916724Y-104668707D01*
X131170897Y-105049103D01*
X131551293Y-105303276D01*
X131886739Y-105370000D01*
X132113261Y-105370000D01*
X132448707Y-105303276D01*
X132781885Y-105080653D01*
X133000000Y-105080653D01*
X133000000Y-105319347D01*
X133091344Y-105539873D01*
X133260127Y-105708656D01*
X133480653Y-105800000D01*
X133719347Y-105800000D01*
X133939873Y-105708656D01*
X134108656Y-105539873D01*
X134200000Y-105319347D01*
X134200000Y-105080653D01*
X134108656Y-104860127D01*
X133993491Y-104744962D01*
X143200000Y-104744962D01*
X143200000Y-104983656D01*
X143291344Y-105204182D01*
X143460127Y-105372965D01*
X143680653Y-105464309D01*
X143919347Y-105464309D01*
X144139873Y-105372965D01*
X144140971Y-105371867D01*
X144142069Y-105372965D01*
X144362595Y-105464309D01*
X144601289Y-105464309D01*
X144821815Y-105372965D01*
X144840971Y-105353809D01*
X144860127Y-105372965D01*
X145080653Y-105464309D01*
X145319347Y-105464309D01*
X145521312Y-105380653D01*
X152000000Y-105380653D01*
X152000000Y-105619347D01*
X152091344Y-105839873D01*
X152260127Y-106008656D01*
X152480653Y-106100000D01*
X152719347Y-106100000D01*
X152871513Y-106036971D01*
X155474968Y-106036971D01*
X155474968Y-106275665D01*
X155566312Y-106496191D01*
X155735095Y-106664974D01*
X155900000Y-106733279D01*
X155900000Y-111500000D01*
X155907612Y-111538268D01*
X155929289Y-111570711D01*
X155961732Y-111592388D01*
X156000000Y-111600000D01*
X168000000Y-111600000D01*
X168038268Y-111592388D01*
X168070711Y-111570711D01*
X168092388Y-111538268D01*
X168100000Y-111500000D01*
X168100000Y-110980653D01*
X169700000Y-110980653D01*
X169700000Y-111219347D01*
X169791344Y-111439873D01*
X169960127Y-111608656D01*
X170180653Y-111700000D01*
X170419347Y-111700000D01*
X170639873Y-111608656D01*
X170808656Y-111439873D01*
X170900000Y-111219347D01*
X170900000Y-110980653D01*
X170808656Y-110760127D01*
X170639873Y-110591344D01*
X170419347Y-110500000D01*
X170180653Y-110500000D01*
X169960127Y-110591344D01*
X169791344Y-110760127D01*
X169700000Y-110980653D01*
X168100000Y-110980653D01*
X168100000Y-107080653D01*
X170300000Y-107080653D01*
X170300000Y-107319347D01*
X170391344Y-107539873D01*
X170560127Y-107708656D01*
X170780653Y-107800000D01*
X171019347Y-107800000D01*
X171239873Y-107708656D01*
X171408656Y-107539873D01*
X171500000Y-107319347D01*
X171500000Y-107080653D01*
X171408656Y-106860127D01*
X171239873Y-106691344D01*
X171019347Y-106600000D01*
X170780653Y-106600000D01*
X170560127Y-106691344D01*
X170391344Y-106860127D01*
X170300000Y-107080653D01*
X168100000Y-107080653D01*
X168100000Y-105139307D01*
X171042270Y-105139307D01*
X171042270Y-105378001D01*
X171133614Y-105598527D01*
X171302397Y-105767310D01*
X171522923Y-105858654D01*
X171761617Y-105858654D01*
X171982143Y-105767310D01*
X172150926Y-105598527D01*
X172242270Y-105378001D01*
X172242270Y-105139307D01*
X172150926Y-104918781D01*
X171982143Y-104749998D01*
X171761617Y-104658654D01*
X171522923Y-104658654D01*
X171302397Y-104749998D01*
X171133614Y-104918781D01*
X171042270Y-105139307D01*
X168100000Y-105139307D01*
X168100000Y-103880653D01*
X177800000Y-103880653D01*
X177800000Y-104119347D01*
X177891344Y-104339873D01*
X177951471Y-104400000D01*
X177891344Y-104460127D01*
X177800000Y-104680653D01*
X177800000Y-104919347D01*
X177891344Y-105139873D01*
X177951471Y-105200000D01*
X177891344Y-105260127D01*
X177800000Y-105480653D01*
X177800000Y-105719347D01*
X177891344Y-105939873D01*
X177951471Y-106000000D01*
X177891344Y-106060127D01*
X177800000Y-106280653D01*
X177800000Y-106519347D01*
X177891344Y-106739873D01*
X177951471Y-106800000D01*
X177891344Y-106860127D01*
X177800000Y-107080653D01*
X177800000Y-107319347D01*
X177891344Y-107539873D01*
X178060127Y-107708656D01*
X178280653Y-107800000D01*
X178519347Y-107800000D01*
X178739873Y-107708656D01*
X178908656Y-107539873D01*
X179000000Y-107319347D01*
X179000000Y-107080653D01*
X178908656Y-106860127D01*
X178848529Y-106800000D01*
X178908656Y-106739873D01*
X179000000Y-106519347D01*
X179000000Y-106280653D01*
X178908656Y-106060127D01*
X178848529Y-106000000D01*
X178908656Y-105939873D01*
X179000000Y-105719347D01*
X179000000Y-105480653D01*
X178908656Y-105260127D01*
X178848529Y-105200000D01*
X178908656Y-105139873D01*
X179000000Y-104919347D01*
X179000000Y-104680653D01*
X178908656Y-104460127D01*
X178848529Y-104400000D01*
X178908656Y-104339873D01*
X179000000Y-104119347D01*
X179000000Y-103880653D01*
X178908656Y-103660127D01*
X178739873Y-103491344D01*
X178519347Y-103400000D01*
X178280653Y-103400000D01*
X178060127Y-103491344D01*
X177891344Y-103660127D01*
X177800000Y-103880653D01*
X168100000Y-103880653D01*
X168100000Y-103080653D01*
X174900000Y-103080653D01*
X174900000Y-103319347D01*
X174991344Y-103539873D01*
X175160127Y-103708656D01*
X175380653Y-103800000D01*
X175619347Y-103800000D01*
X175839873Y-103708656D01*
X176008656Y-103539873D01*
X176100000Y-103319347D01*
X176100000Y-103080653D01*
X176008656Y-102860127D01*
X175839873Y-102691344D01*
X175619347Y-102600000D01*
X175380653Y-102600000D01*
X175160127Y-102691344D01*
X174991344Y-102860127D01*
X174900000Y-103080653D01*
X168100000Y-103080653D01*
X168100000Y-101983936D01*
X168156149Y-101960679D01*
X168324932Y-101791896D01*
X168416276Y-101571370D01*
X168416276Y-101332676D01*
X168324932Y-101112150D01*
X168188794Y-100976012D01*
X168324932Y-100839873D01*
X168416276Y-100619347D01*
X168416276Y-100380653D01*
X168324932Y-100160127D01*
X168156149Y-99991344D01*
X168100000Y-99968087D01*
X168100000Y-99000000D01*
X168092388Y-98961732D01*
X168070711Y-98929289D01*
X168038268Y-98907612D01*
X168000000Y-98900000D01*
X163548537Y-98900000D01*
X163489873Y-98841336D01*
X163269347Y-98749992D01*
X163030653Y-98749992D01*
X162810127Y-98841336D01*
X162751463Y-98900000D01*
X156000000Y-98900000D01*
X155961732Y-98907612D01*
X155929289Y-98929289D01*
X155907612Y-98961732D01*
X155900000Y-99000000D01*
X155900000Y-100874828D01*
X155860127Y-100891344D01*
X155691344Y-101060127D01*
X155600000Y-101280653D01*
X155600000Y-101519347D01*
X155691344Y-101739873D01*
X155860127Y-101908656D01*
X155900000Y-101925172D01*
X155900000Y-104326450D01*
X155866323Y-104360127D01*
X155774979Y-104580653D01*
X155774979Y-104819347D01*
X155866323Y-105039873D01*
X155900000Y-105073550D01*
X155900000Y-105579357D01*
X155735095Y-105647662D01*
X155566312Y-105816445D01*
X155474968Y-106036971D01*
X152871513Y-106036971D01*
X152939873Y-106008656D01*
X153108656Y-105839873D01*
X153200000Y-105619347D01*
X153200000Y-105380653D01*
X153108656Y-105160127D01*
X152939873Y-104991344D01*
X152719347Y-104900000D01*
X152480653Y-104900000D01*
X152260127Y-104991344D01*
X152091344Y-105160127D01*
X152000000Y-105380653D01*
X145521312Y-105380653D01*
X145539873Y-105372965D01*
X145708656Y-105204182D01*
X145800000Y-104983656D01*
X145800000Y-104744962D01*
X145708656Y-104524436D01*
X145539873Y-104355653D01*
X145319347Y-104264309D01*
X145080653Y-104264309D01*
X144860127Y-104355653D01*
X144840971Y-104374809D01*
X144821815Y-104355653D01*
X144601289Y-104264309D01*
X144362595Y-104264309D01*
X144142069Y-104355653D01*
X144140971Y-104356751D01*
X144139873Y-104355653D01*
X143919347Y-104264309D01*
X143680653Y-104264309D01*
X143460127Y-104355653D01*
X143291344Y-104524436D01*
X143200000Y-104744962D01*
X133993491Y-104744962D01*
X133939873Y-104691344D01*
X133719347Y-104600000D01*
X133480653Y-104600000D01*
X133260127Y-104691344D01*
X133091344Y-104860127D01*
X133000000Y-105080653D01*
X132781885Y-105080653D01*
X132829103Y-105049103D01*
X133083276Y-104668707D01*
X133172529Y-104220000D01*
X133083276Y-103771293D01*
X132829103Y-103390897D01*
X132448707Y-103136724D01*
X132113261Y-103070000D01*
X131886739Y-103070000D01*
X131551293Y-103136724D01*
X131170897Y-103390897D01*
X130916724Y-103771293D01*
X130827471Y-104220000D01*
X130350000Y-104220000D01*
X130350000Y-101680000D01*
X130827471Y-101680000D01*
X130916724Y-102128707D01*
X131170897Y-102509103D01*
X131551293Y-102763276D01*
X131886739Y-102830000D01*
X132113261Y-102830000D01*
X132448707Y-102763276D01*
X132572360Y-102680653D01*
X137975000Y-102680653D01*
X137975000Y-102919347D01*
X138066344Y-103139873D01*
X138235127Y-103308656D01*
X138455653Y-103400000D01*
X138694347Y-103400000D01*
X138914873Y-103308656D01*
X139083656Y-103139873D01*
X139175000Y-102919347D01*
X139175000Y-102680653D01*
X139083656Y-102460127D01*
X139079161Y-102455632D01*
X143838377Y-102455632D01*
X143838377Y-102694326D01*
X143929721Y-102914852D01*
X144098504Y-103083635D01*
X144319030Y-103174979D01*
X144557724Y-103174979D01*
X144778250Y-103083635D01*
X144947033Y-102914852D01*
X144961198Y-102880653D01*
X149650000Y-102880653D01*
X149650000Y-103119347D01*
X149741344Y-103339873D01*
X149910127Y-103508656D01*
X150130653Y-103600000D01*
X150369347Y-103600000D01*
X150589873Y-103508656D01*
X150758656Y-103339873D01*
X150850000Y-103119347D01*
X150850000Y-102880653D01*
X150758656Y-102660127D01*
X150598529Y-102500000D01*
X150758679Y-102339850D01*
X150850023Y-102119324D01*
X150850023Y-101880630D01*
X150758679Y-101660104D01*
X150589896Y-101491321D01*
X150369370Y-101399977D01*
X150130676Y-101399977D01*
X149910150Y-101491321D01*
X149741367Y-101660104D01*
X149650023Y-101880630D01*
X149650023Y-102119324D01*
X149741367Y-102339850D01*
X149901494Y-102499977D01*
X149741344Y-102660127D01*
X149650000Y-102880653D01*
X144961198Y-102880653D01*
X145038377Y-102694326D01*
X145038377Y-102455632D01*
X144947033Y-102235106D01*
X144778250Y-102066323D01*
X144557724Y-101974979D01*
X144319030Y-101974979D01*
X144098504Y-102066323D01*
X143929721Y-102235106D01*
X143838377Y-102455632D01*
X139079161Y-102455632D01*
X138914873Y-102291344D01*
X138694347Y-102200000D01*
X138455653Y-102200000D01*
X138235127Y-102291344D01*
X138066344Y-102460127D01*
X137975000Y-102680653D01*
X132572360Y-102680653D01*
X132829103Y-102509103D01*
X133083276Y-102128707D01*
X133172529Y-101680000D01*
X133083276Y-101231293D01*
X132829103Y-100850897D01*
X132448707Y-100596724D01*
X132365248Y-100580123D01*
X137609495Y-100580123D01*
X137609495Y-100818817D01*
X137700839Y-101039343D01*
X137869622Y-101208126D01*
X138090148Y-101299470D01*
X138328842Y-101299470D01*
X138549368Y-101208126D01*
X138718151Y-101039343D01*
X138809495Y-100818817D01*
X138809495Y-100580123D01*
X138718151Y-100359597D01*
X138549368Y-100190814D01*
X138328842Y-100099470D01*
X138090148Y-100099470D01*
X137869622Y-100190814D01*
X137700839Y-100359597D01*
X137609495Y-100580123D01*
X132365248Y-100580123D01*
X132113261Y-100530000D01*
X131886739Y-100530000D01*
X131551293Y-100596724D01*
X131170897Y-100850897D01*
X130916724Y-101231293D01*
X130827471Y-101680000D01*
X130350000Y-101680000D01*
X130350000Y-99140000D01*
X130827471Y-99140000D01*
X130916724Y-99588707D01*
X131170897Y-99969103D01*
X131551293Y-100223276D01*
X131886739Y-100290000D01*
X132113261Y-100290000D01*
X132448707Y-100223276D01*
X132829103Y-99969103D01*
X132865215Y-99915057D01*
X138649968Y-99915057D01*
X138649968Y-100153751D01*
X138741312Y-100374277D01*
X138910095Y-100543060D01*
X139130621Y-100634404D01*
X139369315Y-100634404D01*
X139589841Y-100543060D01*
X139758624Y-100374277D01*
X139849968Y-100153751D01*
X139849968Y-99915057D01*
X139836937Y-99883596D01*
X153474990Y-99883596D01*
X153474990Y-100122290D01*
X153566334Y-100342816D01*
X153735117Y-100511599D01*
X153955643Y-100602943D01*
X154194337Y-100602943D01*
X154414863Y-100511599D01*
X154583646Y-100342816D01*
X154674990Y-100122290D01*
X154674990Y-99883596D01*
X154583646Y-99663070D01*
X154414863Y-99494287D01*
X154194337Y-99402943D01*
X153955643Y-99402943D01*
X153735117Y-99494287D01*
X153566334Y-99663070D01*
X153474990Y-99883596D01*
X139836937Y-99883596D01*
X139758624Y-99694531D01*
X139589841Y-99525748D01*
X139369315Y-99434404D01*
X139130621Y-99434404D01*
X138910095Y-99525748D01*
X138741312Y-99694531D01*
X138649968Y-99915057D01*
X132865215Y-99915057D01*
X133083276Y-99588707D01*
X133172529Y-99140000D01*
X133083276Y-98691293D01*
X132942530Y-98480651D01*
X134725010Y-98480651D01*
X134725010Y-98719345D01*
X134816354Y-98939871D01*
X134985137Y-99108654D01*
X135205663Y-99199998D01*
X135444357Y-99199998D01*
X135664883Y-99108654D01*
X135833666Y-98939871D01*
X135925010Y-98719345D01*
X135925010Y-98680697D01*
X148500000Y-98680697D01*
X148500000Y-98919391D01*
X148591344Y-99139917D01*
X148760127Y-99308700D01*
X148980653Y-99400044D01*
X149219347Y-99400044D01*
X149439873Y-99308700D01*
X149608656Y-99139917D01*
X149700000Y-98919391D01*
X149700000Y-98680697D01*
X149608656Y-98460171D01*
X149439873Y-98291388D01*
X149219347Y-98200044D01*
X148980653Y-98200044D01*
X148760127Y-98291388D01*
X148591344Y-98460171D01*
X148500000Y-98680697D01*
X135925010Y-98680697D01*
X135925010Y-98480651D01*
X135833666Y-98260125D01*
X135664883Y-98091342D01*
X135444357Y-97999998D01*
X135205663Y-97999998D01*
X134985137Y-98091342D01*
X134816354Y-98260125D01*
X134725010Y-98480651D01*
X132942530Y-98480651D01*
X132829103Y-98310897D01*
X132448707Y-98056724D01*
X132113261Y-97990000D01*
X131886739Y-97990000D01*
X131551293Y-98056724D01*
X131170897Y-98310897D01*
X130916724Y-98691293D01*
X130827471Y-99140000D01*
X130350000Y-99140000D01*
X130350000Y-96600000D01*
X130827471Y-96600000D01*
X130916724Y-97048707D01*
X131170897Y-97429103D01*
X131551293Y-97683276D01*
X131886739Y-97750000D01*
X132113261Y-97750000D01*
X132448707Y-97683276D01*
X132751953Y-97480653D01*
X141000000Y-97480653D01*
X141000000Y-97719347D01*
X141091344Y-97939873D01*
X141260127Y-98108656D01*
X141480653Y-98200000D01*
X141719347Y-98200000D01*
X141826307Y-98155696D01*
X149892995Y-98155696D01*
X149892995Y-98394390D01*
X149984339Y-98614916D01*
X150153122Y-98783699D01*
X150373648Y-98875043D01*
X150612342Y-98875043D01*
X150832868Y-98783699D01*
X151001651Y-98614916D01*
X151092995Y-98394390D01*
X151092995Y-98155696D01*
X151061912Y-98080653D01*
X163700000Y-98080653D01*
X163700000Y-98319347D01*
X163791344Y-98539873D01*
X163960127Y-98708656D01*
X164180653Y-98800000D01*
X164419347Y-98800000D01*
X164639873Y-98708656D01*
X164798215Y-98550314D01*
X174069661Y-98550314D01*
X174069661Y-98789008D01*
X174161005Y-99009534D01*
X174329788Y-99178317D01*
X174550314Y-99269661D01*
X174789008Y-99269661D01*
X174900000Y-99223687D01*
X174900000Y-99319347D01*
X174991344Y-99539873D01*
X175051471Y-99600000D01*
X174991344Y-99660127D01*
X174900000Y-99880653D01*
X174900000Y-100119347D01*
X174991344Y-100339873D01*
X175051471Y-100400000D01*
X174991344Y-100460127D01*
X174900000Y-100680653D01*
X174900000Y-100919347D01*
X174991344Y-101139873D01*
X175051471Y-101200000D01*
X174991344Y-101260127D01*
X174900000Y-101480653D01*
X174900000Y-101719347D01*
X174991344Y-101939873D01*
X175160127Y-102108656D01*
X175380653Y-102200000D01*
X175619347Y-102200000D01*
X175839873Y-102108656D01*
X176008656Y-101939873D01*
X176100000Y-101719347D01*
X176100000Y-101480653D01*
X176008656Y-101260127D01*
X175948529Y-101200000D01*
X176008656Y-101139873D01*
X176100000Y-100919347D01*
X176100000Y-100680653D01*
X176008656Y-100460127D01*
X175948529Y-100400000D01*
X176008656Y-100339873D01*
X176100000Y-100119347D01*
X176100000Y-99880653D01*
X176008656Y-99660127D01*
X175948529Y-99600000D01*
X176008656Y-99539873D01*
X176100000Y-99319347D01*
X176100000Y-99080653D01*
X176008656Y-98860127D01*
X175839873Y-98691344D01*
X175619347Y-98600000D01*
X175380653Y-98600000D01*
X175269661Y-98645974D01*
X175269661Y-98550314D01*
X175178317Y-98329788D01*
X175009534Y-98161005D01*
X174789008Y-98069661D01*
X174550314Y-98069661D01*
X174329788Y-98161005D01*
X174161005Y-98329788D01*
X174069661Y-98550314D01*
X164798215Y-98550314D01*
X164808656Y-98539873D01*
X164900000Y-98319347D01*
X164900000Y-98080653D01*
X164808656Y-97860127D01*
X164639873Y-97691344D01*
X164435243Y-97606584D01*
X165485834Y-97606584D01*
X165485834Y-97845278D01*
X165577178Y-98065804D01*
X165745961Y-98234587D01*
X165966487Y-98325931D01*
X166205181Y-98325931D01*
X166397675Y-98246198D01*
X166488891Y-98337414D01*
X166709417Y-98428758D01*
X166948111Y-98428758D01*
X167168637Y-98337414D01*
X167337420Y-98168631D01*
X167428764Y-97948105D01*
X167428764Y-97800000D01*
X167519347Y-97800000D01*
X167739873Y-97708656D01*
X167908656Y-97539873D01*
X167933185Y-97480653D01*
X177900000Y-97480653D01*
X177900000Y-97719347D01*
X177991344Y-97939873D01*
X178160127Y-98108656D01*
X178380653Y-98200000D01*
X178619347Y-98200000D01*
X178839873Y-98108656D01*
X179008656Y-97939873D01*
X179100000Y-97719347D01*
X179100000Y-97480653D01*
X179008656Y-97260127D01*
X178839873Y-97091344D01*
X178619347Y-97000000D01*
X178380653Y-97000000D01*
X178160127Y-97091344D01*
X177991344Y-97260127D01*
X177900000Y-97480653D01*
X167933185Y-97480653D01*
X168000000Y-97319347D01*
X168000000Y-97080653D01*
X167908656Y-96860127D01*
X167739873Y-96691344D01*
X167519347Y-96600000D01*
X167280653Y-96600000D01*
X167060127Y-96691344D01*
X166891344Y-96860127D01*
X166800000Y-97080653D01*
X166800000Y-97228758D01*
X166709417Y-97228758D01*
X166516923Y-97308491D01*
X166425707Y-97217275D01*
X166205181Y-97125931D01*
X165966487Y-97125931D01*
X165745961Y-97217275D01*
X165577178Y-97386058D01*
X165485834Y-97606584D01*
X164435243Y-97606584D01*
X164419347Y-97600000D01*
X164180653Y-97600000D01*
X163960127Y-97691344D01*
X163791344Y-97860127D01*
X163700000Y-98080653D01*
X151061912Y-98080653D01*
X151001651Y-97935170D01*
X150832868Y-97766387D01*
X150612342Y-97675043D01*
X150373648Y-97675043D01*
X150153122Y-97766387D01*
X149984339Y-97935170D01*
X149892995Y-98155696D01*
X141826307Y-98155696D01*
X141939873Y-98108656D01*
X142108656Y-97939873D01*
X142200000Y-97719347D01*
X142200000Y-97480653D01*
X142108656Y-97260127D01*
X141939873Y-97091344D01*
X141733019Y-97005663D01*
X154050000Y-97005663D01*
X154050000Y-97244357D01*
X154141344Y-97464883D01*
X154310127Y-97633666D01*
X154530653Y-97725010D01*
X154769347Y-97725010D01*
X154989873Y-97633666D01*
X155103766Y-97519773D01*
X155138142Y-97554149D01*
X155358668Y-97645493D01*
X155597362Y-97645493D01*
X155817888Y-97554149D01*
X155986671Y-97385366D01*
X156078015Y-97164840D01*
X156078015Y-96926146D01*
X155986671Y-96705620D01*
X155817888Y-96536837D01*
X155597362Y-96445493D01*
X155358668Y-96445493D01*
X155138142Y-96536837D01*
X155024249Y-96650730D01*
X154989873Y-96616354D01*
X154769347Y-96525010D01*
X154530653Y-96525010D01*
X154310127Y-96616354D01*
X154141344Y-96785137D01*
X154050000Y-97005663D01*
X141733019Y-97005663D01*
X141719347Y-97000000D01*
X141480653Y-97000000D01*
X141260127Y-97091344D01*
X141091344Y-97260127D01*
X141000000Y-97480653D01*
X132751953Y-97480653D01*
X132829103Y-97429103D01*
X133083276Y-97048707D01*
X133172529Y-96600000D01*
X133083276Y-96151293D01*
X132829103Y-95770897D01*
X132448707Y-95516724D01*
X132113261Y-95450000D01*
X131886739Y-95450000D01*
X131551293Y-95516724D01*
X131170897Y-95770897D01*
X130916724Y-96151293D01*
X130827471Y-96600000D01*
X130350000Y-96600000D01*
X130350000Y-94060000D01*
X130827471Y-94060000D01*
X130916724Y-94508707D01*
X131170897Y-94889103D01*
X131551293Y-95143276D01*
X131886739Y-95210000D01*
X132113261Y-95210000D01*
X132448707Y-95143276D01*
X132542428Y-95080653D01*
X134100000Y-95080653D01*
X134100000Y-95319347D01*
X134191344Y-95539873D01*
X134360127Y-95708656D01*
X134580653Y-95800000D01*
X134819347Y-95800000D01*
X135039873Y-95708656D01*
X135208656Y-95539873D01*
X135300000Y-95319347D01*
X135300000Y-95080653D01*
X135208656Y-94860127D01*
X135039873Y-94691344D01*
X134819347Y-94600000D01*
X134580653Y-94600000D01*
X134360127Y-94691344D01*
X134191344Y-94860127D01*
X134100000Y-95080653D01*
X132542428Y-95080653D01*
X132829103Y-94889103D01*
X133083276Y-94508707D01*
X133148529Y-94180653D01*
X136100000Y-94180653D01*
X136100000Y-94419347D01*
X136191344Y-94639873D01*
X136360127Y-94808656D01*
X136454971Y-94847941D01*
X136400000Y-94980653D01*
X136400000Y-95219347D01*
X136491344Y-95439873D01*
X136660127Y-95608656D01*
X136790326Y-95662586D01*
X136700000Y-95880653D01*
X136700000Y-96119347D01*
X136791344Y-96339873D01*
X136960127Y-96508656D01*
X137180653Y-96600000D01*
X137419347Y-96600000D01*
X137639873Y-96508656D01*
X137808656Y-96339873D01*
X137843572Y-96255577D01*
X159076274Y-96255577D01*
X159076274Y-96494271D01*
X159167618Y-96714797D01*
X159336401Y-96883580D01*
X159556927Y-96974924D01*
X159795621Y-96974924D01*
X160016147Y-96883580D01*
X160184930Y-96714797D01*
X160276274Y-96494271D01*
X160276274Y-96380597D01*
X162900000Y-96380597D01*
X162900000Y-96619291D01*
X162991344Y-96839817D01*
X163160127Y-97008600D01*
X163380653Y-97099944D01*
X163619347Y-97099944D01*
X163839873Y-97008600D01*
X164008656Y-96839817D01*
X164100000Y-96619291D01*
X164100000Y-96380597D01*
X164008656Y-96160071D01*
X163839873Y-95991288D01*
X163619347Y-95899944D01*
X163380653Y-95899944D01*
X163160127Y-95991288D01*
X162991344Y-96160071D01*
X162900000Y-96380597D01*
X160276274Y-96380597D01*
X160276274Y-96255577D01*
X160184930Y-96035051D01*
X160016147Y-95866268D01*
X159795621Y-95774924D01*
X159556927Y-95774924D01*
X159336401Y-95866268D01*
X159167618Y-96035051D01*
X159076274Y-96255577D01*
X137843572Y-96255577D01*
X137900000Y-96119347D01*
X137900000Y-95880653D01*
X137808656Y-95660127D01*
X137639873Y-95491344D01*
X137509674Y-95437414D01*
X137600000Y-95219347D01*
X137600000Y-95026170D01*
X149454483Y-95026170D01*
X149454483Y-95264864D01*
X149545827Y-95485390D01*
X149714610Y-95654173D01*
X149935136Y-95745517D01*
X150173830Y-95745517D01*
X150394356Y-95654173D01*
X150563139Y-95485390D01*
X150654483Y-95264864D01*
X150654483Y-95026170D01*
X150563139Y-94805644D01*
X150394356Y-94636861D01*
X150173830Y-94545517D01*
X149935136Y-94545517D01*
X149714610Y-94636861D01*
X149545827Y-94805644D01*
X149454483Y-95026170D01*
X137600000Y-95026170D01*
X137600000Y-94980653D01*
X137508656Y-94760127D01*
X137339873Y-94591344D01*
X137245029Y-94552059D01*
X137300000Y-94419347D01*
X137300000Y-94305663D01*
X152502895Y-94305663D01*
X152502895Y-94544357D01*
X152594239Y-94764883D01*
X152763022Y-94933666D01*
X152983548Y-95025010D01*
X153222242Y-95025010D01*
X153442768Y-94933666D01*
X153453304Y-94923130D01*
X154000000Y-94923130D01*
X154000000Y-95161824D01*
X154091344Y-95382350D01*
X154260127Y-95551133D01*
X154480653Y-95642477D01*
X154719347Y-95642477D01*
X154939873Y-95551133D01*
X155108656Y-95382350D01*
X155200000Y-95161824D01*
X155200000Y-94923130D01*
X155108656Y-94702604D01*
X154939873Y-94533821D01*
X154719347Y-94442477D01*
X154480653Y-94442477D01*
X154260127Y-94533821D01*
X154091344Y-94702604D01*
X154000000Y-94923130D01*
X153453304Y-94923130D01*
X153611551Y-94764883D01*
X153702895Y-94544357D01*
X153702895Y-94305663D01*
X153611551Y-94085137D01*
X153442768Y-93916354D01*
X153222242Y-93825010D01*
X152983548Y-93825010D01*
X152763022Y-93916354D01*
X152594239Y-94085137D01*
X152502895Y-94305663D01*
X137300000Y-94305663D01*
X137300000Y-94180653D01*
X137208656Y-93960127D01*
X137039873Y-93791344D01*
X136819347Y-93700000D01*
X136580653Y-93700000D01*
X136360127Y-93791344D01*
X136191344Y-93960127D01*
X136100000Y-94180653D01*
X133148529Y-94180653D01*
X133172529Y-94060000D01*
X133083276Y-93611293D01*
X132829103Y-93230897D01*
X132448707Y-92976724D01*
X132113261Y-92910000D01*
X131886739Y-92910000D01*
X131551293Y-92976724D01*
X131170897Y-93230897D01*
X130916724Y-93611293D01*
X130827471Y-94060000D01*
X130350000Y-94060000D01*
X130350000Y-92180661D01*
X146100000Y-92180661D01*
X146100000Y-92419355D01*
X146191344Y-92639881D01*
X146360127Y-92808664D01*
X146580653Y-92900008D01*
X146819347Y-92900008D01*
X147039873Y-92808664D01*
X147208656Y-92639881D01*
X147300000Y-92419355D01*
X147300000Y-92180661D01*
X147299997Y-92180653D01*
X156699998Y-92180653D01*
X156699998Y-92419347D01*
X156791342Y-92639873D01*
X156960125Y-92808656D01*
X157131204Y-92879518D01*
X156981913Y-92941356D01*
X156813130Y-93110139D01*
X156721786Y-93330665D01*
X156721786Y-93569359D01*
X156813130Y-93789885D01*
X156981913Y-93958668D01*
X157202439Y-94050012D01*
X157364472Y-94050012D01*
X157300000Y-94205663D01*
X157300000Y-94444357D01*
X157391344Y-94664883D01*
X157560127Y-94833666D01*
X157780653Y-94925010D01*
X158019347Y-94925010D01*
X158239873Y-94833666D01*
X158408656Y-94664883D01*
X158500000Y-94444357D01*
X158500000Y-94205663D01*
X158408656Y-93985137D01*
X158239873Y-93816354D01*
X158019347Y-93725010D01*
X157857314Y-93725010D01*
X157876517Y-93678648D01*
X158940171Y-93678648D01*
X158940171Y-93917342D01*
X159031515Y-94137868D01*
X159200298Y-94306651D01*
X159420824Y-94397995D01*
X159659518Y-94397995D01*
X159812780Y-94334512D01*
X159935117Y-94456849D01*
X160155643Y-94548193D01*
X160394337Y-94548193D01*
X160614863Y-94456849D01*
X160783646Y-94288066D01*
X160858883Y-94106425D01*
X162111715Y-94106425D01*
X162111715Y-94345119D01*
X162203059Y-94565645D01*
X162371842Y-94734428D01*
X162592368Y-94825772D01*
X162831062Y-94825772D01*
X162992616Y-94758855D01*
X162991344Y-94760127D01*
X162900000Y-94980653D01*
X162900000Y-95219347D01*
X162991344Y-95439873D01*
X163160127Y-95608656D01*
X163380653Y-95700000D01*
X163619347Y-95700000D01*
X163839873Y-95608656D01*
X164008656Y-95439873D01*
X164100000Y-95219347D01*
X164100000Y-94980653D01*
X164008656Y-94760127D01*
X163839873Y-94591344D01*
X163619347Y-94500000D01*
X163380653Y-94500000D01*
X163219099Y-94566917D01*
X163220371Y-94565645D01*
X163311715Y-94345119D01*
X163311715Y-94106425D01*
X163301040Y-94080653D01*
X166200000Y-94080653D01*
X166200000Y-94319347D01*
X166291344Y-94539873D01*
X166460127Y-94708656D01*
X166680653Y-94800000D01*
X166919347Y-94800000D01*
X167139873Y-94708656D01*
X167308656Y-94539873D01*
X167400000Y-94319347D01*
X167400000Y-94080653D01*
X167308656Y-93860127D01*
X167139873Y-93691344D01*
X166919347Y-93600000D01*
X166680653Y-93600000D01*
X166460127Y-93691344D01*
X166291344Y-93860127D01*
X166200000Y-94080653D01*
X163301040Y-94080653D01*
X163220371Y-93885899D01*
X163051588Y-93717116D01*
X162831062Y-93625772D01*
X162592368Y-93625772D01*
X162371842Y-93717116D01*
X162203059Y-93885899D01*
X162111715Y-94106425D01*
X160858883Y-94106425D01*
X160874990Y-94067540D01*
X160874990Y-93828846D01*
X160783646Y-93608320D01*
X160614863Y-93439537D01*
X160394337Y-93348193D01*
X160155643Y-93348193D01*
X160002381Y-93411676D01*
X159880044Y-93289339D01*
X159659518Y-93197995D01*
X159420824Y-93197995D01*
X159200298Y-93289339D01*
X159031515Y-93458122D01*
X158940171Y-93678648D01*
X157876517Y-93678648D01*
X157921786Y-93569359D01*
X157921786Y-93330665D01*
X157830442Y-93110139D01*
X157661659Y-92941356D01*
X157490580Y-92870494D01*
X157639871Y-92808656D01*
X157808654Y-92639873D01*
X157899998Y-92419347D01*
X157899998Y-92355353D01*
X158144801Y-92355353D01*
X158144801Y-92594047D01*
X158236145Y-92814573D01*
X158404928Y-92983356D01*
X158625454Y-93074700D01*
X158864148Y-93074700D01*
X159084674Y-92983356D01*
X159096838Y-92971192D01*
X159153612Y-93027966D01*
X159374138Y-93119310D01*
X159612832Y-93119310D01*
X159833358Y-93027966D01*
X160002141Y-92859183D01*
X160093485Y-92638657D01*
X160093485Y-92399963D01*
X160002141Y-92179437D01*
X159833358Y-92010654D01*
X159612832Y-91919310D01*
X159374138Y-91919310D01*
X159153612Y-92010654D01*
X159141448Y-92022818D01*
X159084674Y-91966044D01*
X158864148Y-91874700D01*
X158625454Y-91874700D01*
X158404928Y-91966044D01*
X158236145Y-92134827D01*
X158144801Y-92355353D01*
X157899998Y-92355353D01*
X157899998Y-92180653D01*
X157808654Y-91960127D01*
X157639871Y-91791344D01*
X157419345Y-91700000D01*
X157180651Y-91700000D01*
X156960125Y-91791344D01*
X156791342Y-91960127D01*
X156699998Y-92180653D01*
X147299997Y-92180653D01*
X147208656Y-91960135D01*
X147072978Y-91824457D01*
X147231863Y-91758645D01*
X147400646Y-91589862D01*
X147491990Y-91369336D01*
X147491990Y-91130642D01*
X147471282Y-91080647D01*
X164999994Y-91080647D01*
X164999994Y-91319341D01*
X165091338Y-91539867D01*
X165260121Y-91708650D01*
X165480647Y-91799994D01*
X165719341Y-91799994D01*
X165939867Y-91708650D01*
X166108650Y-91539867D01*
X166199994Y-91319341D01*
X166199994Y-91080647D01*
X166108650Y-90860121D01*
X165939867Y-90691338D01*
X165719341Y-90599994D01*
X165480647Y-90599994D01*
X165260121Y-90691338D01*
X165091338Y-90860121D01*
X164999994Y-91080647D01*
X147471282Y-91080647D01*
X147400646Y-90910116D01*
X147231863Y-90741333D01*
X147011337Y-90649989D01*
X146772643Y-90649989D01*
X146552117Y-90741333D01*
X146383334Y-90910116D01*
X146291990Y-91130642D01*
X146291990Y-91369336D01*
X146383334Y-91589862D01*
X146519012Y-91725540D01*
X146360127Y-91791352D01*
X146191344Y-91960135D01*
X146100000Y-92180661D01*
X130350000Y-92180661D01*
X130350000Y-90080653D01*
X136900000Y-90080653D01*
X136900000Y-90319347D01*
X136991344Y-90539873D01*
X137160127Y-90708656D01*
X137380653Y-90800000D01*
X137619347Y-90800000D01*
X137839873Y-90708656D01*
X138008656Y-90539873D01*
X138100000Y-90319347D01*
X138100000Y-90080653D01*
X138094985Y-90068546D01*
X138160127Y-90133688D01*
X138380653Y-90225032D01*
X138619347Y-90225032D01*
X138839873Y-90133688D01*
X139008656Y-89964905D01*
X139100000Y-89744379D01*
X139100000Y-89580652D01*
X144859946Y-89580652D01*
X144859946Y-89819346D01*
X144951290Y-90039872D01*
X145120073Y-90208655D01*
X145340599Y-90299999D01*
X145579293Y-90299999D01*
X145799819Y-90208655D01*
X145968602Y-90039872D01*
X146059946Y-89819346D01*
X146059946Y-89580652D01*
X145968602Y-89360126D01*
X145799819Y-89191343D01*
X145579293Y-89099999D01*
X145340599Y-89099999D01*
X145120073Y-89191343D01*
X144951290Y-89360126D01*
X144859946Y-89580652D01*
X139100000Y-89580652D01*
X139100000Y-89505685D01*
X139008656Y-89285159D01*
X138839873Y-89116376D01*
X138619347Y-89025032D01*
X138380653Y-89025032D01*
X138160127Y-89116376D01*
X137991344Y-89285159D01*
X137900000Y-89505685D01*
X137900000Y-89744379D01*
X137905015Y-89756486D01*
X137839873Y-89691344D01*
X137619347Y-89600000D01*
X137380653Y-89600000D01*
X137160127Y-89691344D01*
X136991344Y-89860127D01*
X136900000Y-90080653D01*
X130350000Y-90080653D01*
X130350000Y-87650000D01*
X130844123Y-87650000D01*
X130844123Y-89350000D01*
X130867407Y-89467054D01*
X130933712Y-89566288D01*
X131032946Y-89632593D01*
X131150000Y-89655877D01*
X132850000Y-89655877D01*
X132967054Y-89632593D01*
X133066288Y-89566288D01*
X133132593Y-89467054D01*
X133155877Y-89350000D01*
X133155877Y-88712373D01*
X133358940Y-88712373D01*
X133530114Y-89148179D01*
X133855034Y-89485306D01*
X134284234Y-89672429D01*
X134327627Y-89681058D01*
X134515000Y-89612219D01*
X134515000Y-88525000D01*
X134565000Y-88525000D01*
X134565000Y-89612219D01*
X134752373Y-89681058D01*
X134795766Y-89672429D01*
X135224966Y-89485306D01*
X135549886Y-89148179D01*
X135721060Y-88712373D01*
X135681868Y-88605663D01*
X143100000Y-88605663D01*
X143100000Y-88844357D01*
X143191344Y-89064883D01*
X143360127Y-89233666D01*
X143580653Y-89325010D01*
X143819347Y-89325010D01*
X144039873Y-89233666D01*
X144208656Y-89064883D01*
X144300000Y-88844357D01*
X144300000Y-88605663D01*
X144220796Y-88414444D01*
X145891313Y-88414444D01*
X145891313Y-88653138D01*
X145982657Y-88873664D01*
X146151440Y-89042447D01*
X146371966Y-89133791D01*
X146610660Y-89133791D01*
X146657005Y-89114594D01*
X146657005Y-89185328D01*
X146748349Y-89405854D01*
X146917132Y-89574637D01*
X147137658Y-89665981D01*
X147376352Y-89665981D01*
X147596878Y-89574637D01*
X147765661Y-89405854D01*
X147857005Y-89185328D01*
X147857005Y-88946634D01*
X147765661Y-88726108D01*
X147596878Y-88557325D01*
X147376352Y-88465981D01*
X147137658Y-88465981D01*
X147091313Y-88485178D01*
X147091313Y-88414444D01*
X146999969Y-88193918D01*
X146831186Y-88025135D01*
X146610660Y-87933791D01*
X146371966Y-87933791D01*
X146151440Y-88025135D01*
X145982657Y-88193918D01*
X145891313Y-88414444D01*
X144220796Y-88414444D01*
X144208656Y-88385137D01*
X144039873Y-88216354D01*
X143819347Y-88125010D01*
X143580653Y-88125010D01*
X143360127Y-88216354D01*
X143191344Y-88385137D01*
X143100000Y-88605663D01*
X135681868Y-88605663D01*
X135652242Y-88525000D01*
X134565000Y-88525000D01*
X134515000Y-88525000D01*
X133427758Y-88525000D01*
X133358940Y-88712373D01*
X133155877Y-88712373D01*
X133155877Y-88287627D01*
X133358940Y-88287627D01*
X133427758Y-88475000D01*
X134515000Y-88475000D01*
X134515000Y-87387781D01*
X134565000Y-87387781D01*
X134565000Y-88475000D01*
X135652242Y-88475000D01*
X135721060Y-88287627D01*
X135549886Y-87851821D01*
X135355373Y-87650000D01*
X173344123Y-87650000D01*
X173344123Y-89350000D01*
X173367407Y-89467054D01*
X173433712Y-89566288D01*
X173532946Y-89632593D01*
X173650000Y-89655877D01*
X175350000Y-89655877D01*
X175467054Y-89632593D01*
X175566288Y-89566288D01*
X175632593Y-89467054D01*
X175655877Y-89350000D01*
X175655877Y-88712373D01*
X175858940Y-88712373D01*
X176030114Y-89148179D01*
X176355034Y-89485306D01*
X176784234Y-89672429D01*
X176827627Y-89681058D01*
X177015000Y-89612219D01*
X177015000Y-88525000D01*
X177065000Y-88525000D01*
X177065000Y-89612219D01*
X177252373Y-89681058D01*
X177295766Y-89672429D01*
X177724966Y-89485306D01*
X178049886Y-89148179D01*
X178221060Y-88712373D01*
X178152242Y-88525000D01*
X177065000Y-88525000D01*
X177015000Y-88525000D01*
X175927758Y-88525000D01*
X175858940Y-88712373D01*
X175655877Y-88712373D01*
X175655877Y-88287627D01*
X175858940Y-88287627D01*
X175927758Y-88475000D01*
X177015000Y-88475000D01*
X177015000Y-87387781D01*
X177065000Y-87387781D01*
X177065000Y-88475000D01*
X178152242Y-88475000D01*
X178221060Y-88287627D01*
X178049886Y-87851821D01*
X177724966Y-87514694D01*
X177295766Y-87327571D01*
X177252373Y-87318942D01*
X177065000Y-87387781D01*
X177015000Y-87387781D01*
X176827627Y-87318942D01*
X176784234Y-87327571D01*
X176355034Y-87514694D01*
X176030114Y-87851821D01*
X175858940Y-88287627D01*
X175655877Y-88287627D01*
X175655877Y-87650000D01*
X175632593Y-87532946D01*
X175566288Y-87433712D01*
X175467054Y-87367407D01*
X175350000Y-87344123D01*
X173650000Y-87344123D01*
X173532946Y-87367407D01*
X173433712Y-87433712D01*
X173367407Y-87532946D01*
X173344123Y-87650000D01*
X135355373Y-87650000D01*
X135224966Y-87514694D01*
X134795766Y-87327571D01*
X134752373Y-87318942D01*
X134565000Y-87387781D01*
X134515000Y-87387781D01*
X134327627Y-87318942D01*
X134284234Y-87327571D01*
X133855034Y-87514694D01*
X133530114Y-87851821D01*
X133358940Y-88287627D01*
X133155877Y-88287627D01*
X133155877Y-87650000D01*
X133132593Y-87532946D01*
X133066288Y-87433712D01*
X132967054Y-87367407D01*
X132850000Y-87344123D01*
X131150000Y-87344123D01*
X131032946Y-87367407D01*
X130933712Y-87433712D01*
X130867407Y-87532946D01*
X130844123Y-87650000D01*
X130350000Y-87650000D01*
X130350000Y-86080653D01*
X143112500Y-86080653D01*
X143112500Y-86319347D01*
X143203844Y-86539873D01*
X143372627Y-86708656D01*
X143593153Y-86800000D01*
X143831847Y-86800000D01*
X144052373Y-86708656D01*
X144221156Y-86539873D01*
X144312500Y-86319347D01*
X144312500Y-86080653D01*
X144229657Y-85880649D01*
X154225010Y-85880649D01*
X154225010Y-86119343D01*
X154316354Y-86339869D01*
X154485137Y-86508652D01*
X154705663Y-86599996D01*
X154944357Y-86599996D01*
X155164883Y-86508652D01*
X155333666Y-86339869D01*
X155350569Y-86299062D01*
X155460127Y-86408620D01*
X155680653Y-86499964D01*
X155919347Y-86499964D01*
X156139873Y-86408620D01*
X156308656Y-86239837D01*
X156400000Y-86019311D01*
X156400000Y-85780617D01*
X156308656Y-85560091D01*
X156139873Y-85391308D01*
X155919347Y-85299964D01*
X155680653Y-85299964D01*
X155460127Y-85391308D01*
X155291344Y-85560091D01*
X155274441Y-85600898D01*
X155164883Y-85491340D01*
X154944357Y-85399996D01*
X154705663Y-85399996D01*
X154485137Y-85491340D01*
X154316354Y-85660123D01*
X154225010Y-85880649D01*
X144229657Y-85880649D01*
X144221156Y-85860127D01*
X144052373Y-85691344D01*
X143831847Y-85600000D01*
X143593153Y-85600000D01*
X143372627Y-85691344D01*
X143203844Y-85860127D01*
X143112500Y-86080653D01*
X130350000Y-86080653D01*
X130350000Y-85015583D01*
X130424859Y-84176804D01*
X130549409Y-83721523D01*
X132600000Y-83721523D01*
X132600000Y-84278477D01*
X132813137Y-84793037D01*
X133206963Y-85186863D01*
X133721523Y-85400000D01*
X134278477Y-85400000D01*
X134793037Y-85186863D01*
X135186863Y-84793037D01*
X135218676Y-84716231D01*
X138540342Y-84716231D01*
X138579132Y-84855157D01*
X138749859Y-85128226D01*
X139012089Y-85315174D01*
X139325900Y-85387540D01*
X139475900Y-85387540D01*
X139475900Y-84587540D01*
X139525900Y-84587540D01*
X139525900Y-85387540D01*
X139675900Y-85387540D01*
X139989711Y-85315174D01*
X140251941Y-85128226D01*
X140422668Y-84855157D01*
X140461458Y-84716231D01*
X143540342Y-84716231D01*
X143579132Y-84855157D01*
X143749859Y-85128226D01*
X144012089Y-85315174D01*
X144325900Y-85387540D01*
X144475900Y-85387540D01*
X144475900Y-84587540D01*
X144525900Y-84587540D01*
X144525900Y-85387540D01*
X144675900Y-85387540D01*
X144989711Y-85315174D01*
X145251941Y-85128226D01*
X145422668Y-84855157D01*
X145461458Y-84716231D01*
X145387976Y-84587540D01*
X144525900Y-84587540D01*
X144475900Y-84587540D01*
X143613824Y-84587540D01*
X143540342Y-84716231D01*
X140461458Y-84716231D01*
X140387976Y-84587540D01*
X139525900Y-84587540D01*
X139475900Y-84587540D01*
X138613824Y-84587540D01*
X138540342Y-84716231D01*
X135218676Y-84716231D01*
X135345998Y-84408849D01*
X138540342Y-84408849D01*
X138613824Y-84537540D01*
X139475900Y-84537540D01*
X139475900Y-83737540D01*
X139525900Y-83737540D01*
X139525900Y-84537540D01*
X140387976Y-84537540D01*
X140461458Y-84408849D01*
X143540342Y-84408849D01*
X143613824Y-84537540D01*
X144475900Y-84537540D01*
X144475900Y-83737540D01*
X144525900Y-83737540D01*
X144525900Y-84537540D01*
X145387976Y-84537540D01*
X145420458Y-84480653D01*
X161800000Y-84480653D01*
X161800000Y-84719347D01*
X161891344Y-84939873D01*
X162060127Y-85108656D01*
X162280653Y-85200000D01*
X162519347Y-85200000D01*
X162739873Y-85108656D01*
X162908656Y-84939873D01*
X163000000Y-84719347D01*
X163000000Y-84480653D01*
X162908656Y-84260127D01*
X162739873Y-84091344D01*
X162519347Y-84000000D01*
X162280653Y-84000000D01*
X162060127Y-84091344D01*
X161891344Y-84260127D01*
X161800000Y-84480653D01*
X145420458Y-84480653D01*
X145461458Y-84408849D01*
X145422668Y-84269923D01*
X145251941Y-83996854D01*
X144989711Y-83809906D01*
X144675900Y-83737540D01*
X144525900Y-83737540D01*
X144475900Y-83737540D01*
X144325900Y-83737540D01*
X144012089Y-83809906D01*
X143749859Y-83996854D01*
X143579132Y-84269923D01*
X143540342Y-84408849D01*
X140461458Y-84408849D01*
X140422668Y-84269923D01*
X140251941Y-83996854D01*
X139989711Y-83809906D01*
X139675900Y-83737540D01*
X139525900Y-83737540D01*
X139475900Y-83737540D01*
X139325900Y-83737540D01*
X139012089Y-83809906D01*
X138749859Y-83996854D01*
X138579132Y-84269923D01*
X138540342Y-84408849D01*
X135345998Y-84408849D01*
X135400000Y-84278477D01*
X135400000Y-83721523D01*
X135186863Y-83206963D01*
X135164314Y-83184414D01*
X152696239Y-83184414D01*
X152696239Y-83423108D01*
X152787583Y-83643634D01*
X152956366Y-83812417D01*
X153176892Y-83903761D01*
X153415586Y-83903761D01*
X153636112Y-83812417D01*
X153804895Y-83643634D01*
X153869609Y-83487399D01*
X153891344Y-83539873D01*
X154060127Y-83708656D01*
X154280653Y-83800000D01*
X154519347Y-83800000D01*
X154739873Y-83708656D01*
X154767876Y-83680653D01*
X158000000Y-83680653D01*
X158000000Y-83919347D01*
X158091344Y-84139873D01*
X158260127Y-84308656D01*
X158480653Y-84400000D01*
X158719347Y-84400000D01*
X158939873Y-84308656D01*
X159108656Y-84139873D01*
X159200000Y-83919347D01*
X159200000Y-83721523D01*
X174600000Y-83721523D01*
X174600000Y-84278477D01*
X174813137Y-84793037D01*
X175206963Y-85186863D01*
X175721523Y-85400000D01*
X176278477Y-85400000D01*
X176793037Y-85186863D01*
X177186863Y-84793037D01*
X177400000Y-84278477D01*
X177400000Y-83721523D01*
X177186863Y-83206963D01*
X176793037Y-82813137D01*
X176278477Y-82600000D01*
X175721523Y-82600000D01*
X175206963Y-82813137D01*
X174813137Y-83206963D01*
X174600000Y-83721523D01*
X159200000Y-83721523D01*
X159200000Y-83680653D01*
X159108656Y-83460127D01*
X158939873Y-83291344D01*
X158719347Y-83200000D01*
X158480653Y-83200000D01*
X158260127Y-83291344D01*
X158091344Y-83460127D01*
X158000000Y-83680653D01*
X154767876Y-83680653D01*
X154908656Y-83539873D01*
X155000000Y-83319347D01*
X155000000Y-83080653D01*
X154908656Y-82860127D01*
X154739873Y-82691344D01*
X154519347Y-82600000D01*
X154280653Y-82600000D01*
X154060127Y-82691344D01*
X153891344Y-82860127D01*
X153826630Y-83016362D01*
X153804895Y-82963888D01*
X153636112Y-82795105D01*
X153415586Y-82703761D01*
X153176892Y-82703761D01*
X152956366Y-82795105D01*
X152787583Y-82963888D01*
X152696239Y-83184414D01*
X135164314Y-83184414D01*
X134793037Y-82813137D01*
X134278477Y-82600000D01*
X133721523Y-82600000D01*
X133206963Y-82813137D01*
X132813137Y-83206963D01*
X132600000Y-83721523D01*
X130549409Y-83721523D01*
X130642942Y-83379626D01*
X130998749Y-82633663D01*
X131481026Y-81962504D01*
X131558382Y-81887540D01*
X137650900Y-81887540D01*
X137650900Y-82162540D01*
X137725169Y-82485918D01*
X137917536Y-82756259D01*
X138198715Y-82932406D01*
X138343296Y-82972801D01*
X138475900Y-82899630D01*
X138475900Y-81887540D01*
X138525900Y-81887540D01*
X138525900Y-82899630D01*
X138658504Y-82972801D01*
X138803085Y-82932406D01*
X139084264Y-82756259D01*
X139276631Y-82485918D01*
X139350900Y-82162540D01*
X139350900Y-81887540D01*
X144650900Y-81887540D01*
X144650900Y-82162540D01*
X144725169Y-82485918D01*
X144917536Y-82756259D01*
X145198715Y-82932406D01*
X145343296Y-82972801D01*
X145475900Y-82899630D01*
X145475900Y-81887540D01*
X145525900Y-81887540D01*
X145525900Y-82899630D01*
X145658504Y-82972801D01*
X145803085Y-82932406D01*
X146084264Y-82756259D01*
X146276631Y-82485918D01*
X146350900Y-82162540D01*
X146350900Y-81887540D01*
X145525900Y-81887540D01*
X145475900Y-81887540D01*
X144650900Y-81887540D01*
X139350900Y-81887540D01*
X138525900Y-81887540D01*
X138475900Y-81887540D01*
X137650900Y-81887540D01*
X131558382Y-81887540D01*
X131893755Y-81562540D01*
X137650900Y-81562540D01*
X137650900Y-81837540D01*
X138475900Y-81837540D01*
X138475900Y-80825450D01*
X138525900Y-80825450D01*
X138525900Y-81837540D01*
X139350900Y-81837540D01*
X139350900Y-81562540D01*
X144650900Y-81562540D01*
X144650900Y-81837540D01*
X145475900Y-81837540D01*
X145475900Y-80825450D01*
X145525900Y-80825450D01*
X145525900Y-81837540D01*
X146350900Y-81837540D01*
X146350900Y-81741414D01*
X161600000Y-81741414D01*
X161600000Y-82258586D01*
X161797913Y-82736391D01*
X162163609Y-83102087D01*
X162641414Y-83300000D01*
X163158586Y-83300000D01*
X163636391Y-83102087D01*
X164002087Y-82736391D01*
X164166479Y-82339514D01*
X164237017Y-82509809D01*
X164490191Y-82762983D01*
X164820979Y-82900000D01*
X165179021Y-82900000D01*
X165509809Y-82762983D01*
X165762983Y-82509809D01*
X165900000Y-82179021D01*
X165900000Y-81820979D01*
X166100000Y-81820979D01*
X166100000Y-82179021D01*
X166237017Y-82509809D01*
X166490191Y-82762983D01*
X166820979Y-82900000D01*
X167179021Y-82900000D01*
X167509809Y-82762983D01*
X167762983Y-82509809D01*
X167900000Y-82179021D01*
X167900000Y-81820979D01*
X168100000Y-81820979D01*
X168100000Y-82179021D01*
X168237017Y-82509809D01*
X168490191Y-82762983D01*
X168820979Y-82900000D01*
X169179021Y-82900000D01*
X169509809Y-82762983D01*
X169762983Y-82509809D01*
X169833521Y-82339514D01*
X169997913Y-82736391D01*
X170363609Y-83102087D01*
X170841414Y-83300000D01*
X171358586Y-83300000D01*
X171836391Y-83102087D01*
X172202087Y-82736391D01*
X172400000Y-82258586D01*
X172400000Y-81741414D01*
X172202087Y-81263609D01*
X171836391Y-80897913D01*
X171358586Y-80700000D01*
X170841414Y-80700000D01*
X170363609Y-80897913D01*
X169997913Y-81263609D01*
X169833521Y-81660486D01*
X169762983Y-81490191D01*
X169509809Y-81237017D01*
X169179021Y-81100000D01*
X168820979Y-81100000D01*
X168490191Y-81237017D01*
X168237017Y-81490191D01*
X168100000Y-81820979D01*
X167900000Y-81820979D01*
X167762983Y-81490191D01*
X167509809Y-81237017D01*
X167179021Y-81100000D01*
X166820979Y-81100000D01*
X166490191Y-81237017D01*
X166237017Y-81490191D01*
X166100000Y-81820979D01*
X165900000Y-81820979D01*
X165762983Y-81490191D01*
X165509809Y-81237017D01*
X165179021Y-81100000D01*
X164820979Y-81100000D01*
X164490191Y-81237017D01*
X164237017Y-81490191D01*
X164166479Y-81660486D01*
X164002087Y-81263609D01*
X163636391Y-80897913D01*
X163158586Y-80700000D01*
X162641414Y-80700000D01*
X162163609Y-80897913D01*
X161797913Y-81263609D01*
X161600000Y-81741414D01*
X146350900Y-81741414D01*
X146350900Y-81562540D01*
X146276631Y-81239162D01*
X146084264Y-80968821D01*
X145803085Y-80792674D01*
X145658504Y-80752279D01*
X145525900Y-80825450D01*
X145475900Y-80825450D01*
X145343296Y-80752279D01*
X145198715Y-80792674D01*
X144917536Y-80968821D01*
X144725169Y-81239162D01*
X144650900Y-81562540D01*
X139350900Y-81562540D01*
X139276631Y-81239162D01*
X139084264Y-80968821D01*
X138803085Y-80792674D01*
X138658504Y-80752279D01*
X138525900Y-80825450D01*
X138475900Y-80825450D01*
X138343296Y-80752279D01*
X138198715Y-80792674D01*
X137917536Y-80968821D01*
X137725169Y-81239162D01*
X137650900Y-81562540D01*
X131893755Y-81562540D01*
X132074537Y-81387351D01*
X132760514Y-80926394D01*
X133517286Y-80594194D01*
X134323608Y-80400613D01*
X135012833Y-80350000D01*
X174984417Y-80350000D01*
X175823196Y-80424859D01*
X175823196Y-80424859D01*
G37*
X175823196Y-80424859D02*
X176620374Y-80642942D01*
X177366337Y-80998749D01*
X178037496Y-81481026D01*
X178612649Y-82074537D01*
X179073606Y-82760514D01*
X179405806Y-83517286D01*
X179599387Y-84323608D01*
X179650001Y-85012846D01*
X179650000Y-124984417D01*
X179575141Y-125823197D01*
X179357058Y-126620374D01*
X179001251Y-127366337D01*
X178518976Y-128037494D01*
X177925463Y-128612649D01*
X177239486Y-129073606D01*
X176482719Y-129405804D01*
X175676392Y-129599387D01*
X174987167Y-129650000D01*
X135015583Y-129650000D01*
X134176803Y-129575141D01*
X133379626Y-129357058D01*
X132633663Y-129001251D01*
X131962506Y-128518976D01*
X131828466Y-128380657D01*
X136400000Y-128380657D01*
X136400000Y-128619351D01*
X136491344Y-128839877D01*
X136660127Y-129008660D01*
X136880653Y-129100004D01*
X137119347Y-129100004D01*
X137339873Y-129008660D01*
X137508656Y-128839877D01*
X137600000Y-128619351D01*
X137600000Y-128380657D01*
X137599999Y-128380653D01*
X159600000Y-128380653D01*
X159600000Y-128619347D01*
X159691344Y-128839873D01*
X159860127Y-129008656D01*
X160080653Y-129100000D01*
X160319347Y-129100000D01*
X160539873Y-129008656D01*
X160708656Y-128839873D01*
X160800000Y-128619347D01*
X160800000Y-128380653D01*
X160708656Y-128160127D01*
X160539873Y-127991344D01*
X160319347Y-127900000D01*
X160080653Y-127900000D01*
X159860127Y-127991344D01*
X159691344Y-128160127D01*
X159600000Y-128380653D01*
X137599999Y-128380653D01*
X137508656Y-128160131D01*
X137339873Y-127991348D01*
X137119347Y-127900004D01*
X136880653Y-127900004D01*
X136660127Y-127991348D01*
X136491344Y-128160131D01*
X136400000Y-128380657D01*
X131828466Y-128380657D01*
X131387351Y-127925463D01*
X130926394Y-127239486D01*
X130594196Y-126482719D01*
X130411449Y-125721523D01*
X132600000Y-125721523D01*
X132600000Y-126278477D01*
X132813137Y-126793037D01*
X133206963Y-127186863D01*
X133721523Y-127400000D01*
X134278477Y-127400000D01*
X134793037Y-127186863D01*
X135186863Y-126793037D01*
X135400000Y-126278477D01*
X135400000Y-125721523D01*
X135186863Y-125206963D01*
X135060553Y-125080653D01*
X153800000Y-125080653D01*
X153800000Y-125319347D01*
X153891344Y-125539873D01*
X154060127Y-125708656D01*
X154280653Y-125800000D01*
X154519347Y-125800000D01*
X154739873Y-125708656D01*
X154800000Y-125648529D01*
X154860127Y-125708656D01*
X155080653Y-125800000D01*
X155319347Y-125800000D01*
X155539873Y-125708656D01*
X155575007Y-125673523D01*
X155610140Y-125708656D01*
X155830666Y-125800000D01*
X156069360Y-125800000D01*
X156289886Y-125708656D01*
X156375010Y-125623533D01*
X156460133Y-125708656D01*
X156680659Y-125800000D01*
X156919353Y-125800000D01*
X157139879Y-125708656D01*
X157200003Y-125648532D01*
X157260127Y-125708656D01*
X157480653Y-125800000D01*
X157719347Y-125800000D01*
X157939873Y-125708656D01*
X158000000Y-125648529D01*
X158060127Y-125708656D01*
X158280653Y-125800000D01*
X158519347Y-125800000D01*
X158739873Y-125708656D01*
X158800000Y-125648529D01*
X158860127Y-125708656D01*
X159080653Y-125800000D01*
X159319347Y-125800000D01*
X159539873Y-125708656D01*
X159600009Y-125648520D01*
X159660127Y-125708638D01*
X159880653Y-125799982D01*
X160119347Y-125799982D01*
X160339873Y-125708638D01*
X160399991Y-125648520D01*
X160460127Y-125708656D01*
X160680653Y-125800000D01*
X160919347Y-125800000D01*
X161139873Y-125708656D01*
X161308656Y-125539873D01*
X161400000Y-125319347D01*
X161400000Y-125080653D01*
X162600000Y-125080653D01*
X162600000Y-125319347D01*
X162691344Y-125539873D01*
X162860127Y-125708656D01*
X163080653Y-125800000D01*
X163319347Y-125800000D01*
X163508809Y-125721523D01*
X174600000Y-125721523D01*
X174600000Y-126278477D01*
X174813137Y-126793037D01*
X175206963Y-127186863D01*
X175721523Y-127400000D01*
X176278477Y-127400000D01*
X176793037Y-127186863D01*
X177186863Y-126793037D01*
X177400000Y-126278477D01*
X177400000Y-125721523D01*
X177186863Y-125206963D01*
X176793037Y-124813137D01*
X176278477Y-124600000D01*
X175721523Y-124600000D01*
X175206963Y-124813137D01*
X174813137Y-125206963D01*
X174600000Y-125721523D01*
X163508809Y-125721523D01*
X163539873Y-125708656D01*
X163708656Y-125539873D01*
X163800000Y-125319347D01*
X163800000Y-125080653D01*
X163708656Y-124860127D01*
X163539873Y-124691344D01*
X163319347Y-124600000D01*
X163080653Y-124600000D01*
X162860127Y-124691344D01*
X162691344Y-124860127D01*
X162600000Y-125080653D01*
X161400000Y-125080653D01*
X161308656Y-124860127D01*
X161139873Y-124691344D01*
X160919347Y-124600000D01*
X160680653Y-124600000D01*
X160460127Y-124691344D01*
X160400009Y-124751462D01*
X160339873Y-124691326D01*
X160119347Y-124599982D01*
X159880653Y-124599982D01*
X159660127Y-124691326D01*
X159599991Y-124751462D01*
X159539873Y-124691344D01*
X159319347Y-124600000D01*
X159080653Y-124600000D01*
X158860127Y-124691344D01*
X158800000Y-124751471D01*
X158739873Y-124691344D01*
X158519347Y-124600000D01*
X158280653Y-124600000D01*
X158060127Y-124691344D01*
X158000000Y-124751471D01*
X157939873Y-124691344D01*
X157719347Y-124600000D01*
X157480653Y-124600000D01*
X157260127Y-124691344D01*
X157200003Y-124751468D01*
X157139879Y-124691344D01*
X156919353Y-124600000D01*
X156680659Y-124600000D01*
X156460133Y-124691344D01*
X156375010Y-124776468D01*
X156289886Y-124691344D01*
X156069360Y-124600000D01*
X155830666Y-124600000D01*
X155610140Y-124691344D01*
X155575007Y-124726478D01*
X155539873Y-124691344D01*
X155319347Y-124600000D01*
X155080653Y-124600000D01*
X154860127Y-124691344D01*
X154800000Y-124751471D01*
X154739873Y-124691344D01*
X154519347Y-124600000D01*
X154280653Y-124600000D01*
X154060127Y-124691344D01*
X153891344Y-124860127D01*
X153800000Y-125080653D01*
X135060553Y-125080653D01*
X134793037Y-124813137D01*
X134278477Y-124600000D01*
X133721523Y-124600000D01*
X133206963Y-124813137D01*
X132813137Y-125206963D01*
X132600000Y-125721523D01*
X130411449Y-125721523D01*
X130400613Y-125676392D01*
X130350000Y-124987167D01*
X130350000Y-122112500D01*
X130800000Y-122112500D01*
X130800000Y-122919620D01*
X130853285Y-123048259D01*
X130951741Y-123146716D01*
X131080381Y-123200000D01*
X131887500Y-123200000D01*
X131975000Y-123112500D01*
X131975000Y-122025000D01*
X132025000Y-122025000D01*
X132025000Y-123112500D01*
X132112500Y-123200000D01*
X132919619Y-123200000D01*
X133048259Y-123146716D01*
X133146715Y-123048259D01*
X133200000Y-122919620D01*
X133200000Y-122112500D01*
X133112500Y-122025000D01*
X132025000Y-122025000D01*
X131975000Y-122025000D01*
X130887500Y-122025000D01*
X130800000Y-122112500D01*
X130350000Y-122112500D01*
X130350000Y-121080380D01*
X130800000Y-121080380D01*
X130800000Y-121887500D01*
X130887500Y-121975000D01*
X131975000Y-121975000D01*
X131975000Y-120887500D01*
X132025000Y-120887500D01*
X132025000Y-121975000D01*
X133112500Y-121975000D01*
X133200000Y-121887500D01*
X133200000Y-121150000D01*
X135344123Y-121150000D01*
X135344123Y-122850000D01*
X135367407Y-122967054D01*
X135433712Y-123066288D01*
X135532946Y-123132593D01*
X135650000Y-123155877D01*
X137350000Y-123155877D01*
X137467054Y-123132593D01*
X137566288Y-123066288D01*
X137632593Y-122967054D01*
X137655877Y-122850000D01*
X137655877Y-122000000D01*
X137867471Y-122000000D01*
X137956724Y-122448707D01*
X138210897Y-122829103D01*
X138591293Y-123083276D01*
X138926739Y-123150000D01*
X139153261Y-123150000D01*
X139488707Y-123083276D01*
X139869103Y-122829103D01*
X140123276Y-122448707D01*
X140212529Y-122000000D01*
X140407471Y-122000000D01*
X140496724Y-122448707D01*
X140750897Y-122829103D01*
X141131293Y-123083276D01*
X141466739Y-123150000D01*
X141693261Y-123150000D01*
X142028707Y-123083276D01*
X142409103Y-122829103D01*
X142663276Y-122448707D01*
X142752529Y-122000000D01*
X142947471Y-122000000D01*
X143036724Y-122448707D01*
X143290897Y-122829103D01*
X143671293Y-123083276D01*
X144006739Y-123150000D01*
X144233261Y-123150000D01*
X144568707Y-123083276D01*
X144949103Y-122829103D01*
X145203276Y-122448707D01*
X145292529Y-122000000D01*
X145487471Y-122000000D01*
X145576724Y-122448707D01*
X145830897Y-122829103D01*
X146211293Y-123083276D01*
X146546739Y-123150000D01*
X146773261Y-123150000D01*
X147108707Y-123083276D01*
X147489103Y-122829103D01*
X147743276Y-122448707D01*
X147790285Y-122212373D01*
X148018940Y-122212373D01*
X148190114Y-122648179D01*
X148515034Y-122985306D01*
X148944234Y-123172429D01*
X148987627Y-123181058D01*
X149175000Y-123112219D01*
X149175000Y-122025000D01*
X149225000Y-122025000D01*
X149225000Y-123112219D01*
X149412373Y-123181058D01*
X149455766Y-123172429D01*
X149884966Y-122985306D01*
X150209886Y-122648179D01*
X150381060Y-122212373D01*
X150312242Y-122025000D01*
X149225000Y-122025000D01*
X149175000Y-122025000D01*
X148087758Y-122025000D01*
X148018940Y-122212373D01*
X147790285Y-122212373D01*
X147832529Y-122000000D01*
X147790286Y-121787627D01*
X148018940Y-121787627D01*
X148087758Y-121975000D01*
X149175000Y-121975000D01*
X149175000Y-120887781D01*
X149225000Y-120887781D01*
X149225000Y-121975000D01*
X150312242Y-121975000D01*
X150381060Y-121787627D01*
X150209886Y-121351821D01*
X149884966Y-121014694D01*
X149455766Y-120827571D01*
X149412373Y-120818942D01*
X149225000Y-120887781D01*
X149175000Y-120887781D01*
X148987627Y-120818942D01*
X148944234Y-120827571D01*
X148515034Y-121014694D01*
X148190114Y-121351821D01*
X148018940Y-121787627D01*
X147790286Y-121787627D01*
X147743276Y-121551293D01*
X147489103Y-121170897D01*
X147108707Y-120916724D01*
X146773261Y-120850000D01*
X146546739Y-120850000D01*
X146211293Y-120916724D01*
X145830897Y-121170897D01*
X145576724Y-121551293D01*
X145487471Y-122000000D01*
X145292529Y-122000000D01*
X145203276Y-121551293D01*
X144949103Y-121170897D01*
X144568707Y-120916724D01*
X144233261Y-120850000D01*
X144006739Y-120850000D01*
X143671293Y-120916724D01*
X143290897Y-121170897D01*
X143036724Y-121551293D01*
X142947471Y-122000000D01*
X142752529Y-122000000D01*
X142663276Y-121551293D01*
X142409103Y-121170897D01*
X142028707Y-120916724D01*
X141693261Y-120850000D01*
X141466739Y-120850000D01*
X141131293Y-120916724D01*
X140750897Y-121170897D01*
X140496724Y-121551293D01*
X140407471Y-122000000D01*
X140212529Y-122000000D01*
X140123276Y-121551293D01*
X139869103Y-121170897D01*
X139488707Y-120916724D01*
X139153261Y-120850000D01*
X138926739Y-120850000D01*
X138591293Y-120916724D01*
X138210897Y-121170897D01*
X137956724Y-121551293D01*
X137867471Y-122000000D01*
X137655877Y-122000000D01*
X137655877Y-121150000D01*
X137632593Y-121032946D01*
X137566288Y-120933712D01*
X137467054Y-120867407D01*
X137350000Y-120844123D01*
X135650000Y-120844123D01*
X135532946Y-120867407D01*
X135433712Y-120933712D01*
X135367407Y-121032946D01*
X135344123Y-121150000D01*
X133200000Y-121150000D01*
X133200000Y-121080380D01*
X133146715Y-120951741D01*
X133048259Y-120853284D01*
X132919619Y-120800000D01*
X132112500Y-120800000D01*
X132025000Y-120887500D01*
X131975000Y-120887500D01*
X131887500Y-120800000D01*
X131080381Y-120800000D01*
X130951741Y-120853284D01*
X130853285Y-120951741D01*
X130800000Y-121080380D01*
X130350000Y-121080380D01*
X130350000Y-119460000D01*
X130827471Y-119460000D01*
X130916724Y-119908707D01*
X131170897Y-120289103D01*
X131551293Y-120543276D01*
X131886739Y-120610000D01*
X132113261Y-120610000D01*
X132448707Y-120543276D01*
X132829103Y-120289103D01*
X133018491Y-120005663D01*
X146800000Y-120005663D01*
X146800000Y-120244357D01*
X146891344Y-120464883D01*
X147060127Y-120633666D01*
X147280653Y-120725010D01*
X147519347Y-120725010D01*
X147739873Y-120633666D01*
X147908656Y-120464883D01*
X148000000Y-120244357D01*
X148000000Y-120005663D01*
X147908656Y-119785137D01*
X147739873Y-119616354D01*
X147519347Y-119525010D01*
X147280653Y-119525010D01*
X147060127Y-119616354D01*
X146891344Y-119785137D01*
X146800000Y-120005663D01*
X133018491Y-120005663D01*
X133083276Y-119908707D01*
X133172529Y-119460000D01*
X133083276Y-119011293D01*
X132829103Y-118630897D01*
X132448707Y-118376724D01*
X132113261Y-118310000D01*
X131886739Y-118310000D01*
X131551293Y-118376724D01*
X131170897Y-118630897D01*
X130916724Y-119011293D01*
X130827471Y-119460000D01*
X130350000Y-119460000D01*
X130350000Y-116920000D01*
X130827471Y-116920000D01*
X130916724Y-117368707D01*
X131170897Y-117749103D01*
X131551293Y-118003276D01*
X131886739Y-118070000D01*
X132113261Y-118070000D01*
X132448707Y-118003276D01*
X132829103Y-117749103D01*
X133083276Y-117368707D01*
X133126779Y-117150000D01*
X135344123Y-117150000D01*
X135344123Y-118850000D01*
X135367407Y-118967054D01*
X135433712Y-119066288D01*
X135532946Y-119132593D01*
X135650000Y-119155877D01*
X137350000Y-119155877D01*
X137467054Y-119132593D01*
X137566288Y-119066288D01*
X137632593Y-118967054D01*
X137655877Y-118850000D01*
X137655877Y-118000000D01*
X137867471Y-118000000D01*
X137956724Y-118448707D01*
X138210897Y-118829103D01*
X138591293Y-119083276D01*
X138926739Y-119150000D01*
X139153261Y-119150000D01*
X139488707Y-119083276D01*
X139869103Y-118829103D01*
X140123276Y-118448707D01*
X140212529Y-118000000D01*
X140407471Y-118000000D01*
X140496724Y-118448707D01*
X140750897Y-118829103D01*
X141131293Y-119083276D01*
X141466739Y-119150000D01*
X141693261Y-119150000D01*
X142028707Y-119083276D01*
X142409103Y-118829103D01*
X142663276Y-118448707D01*
X142752529Y-118000000D01*
X142947471Y-118000000D01*
X143036724Y-118448707D01*
X143290897Y-118829103D01*
X143671293Y-119083276D01*
X144006739Y-119150000D01*
X144233261Y-119150000D01*
X144568707Y-119083276D01*
X144949103Y-118829103D01*
X145203276Y-118448707D01*
X145292529Y-118000000D01*
X145487471Y-118000000D01*
X145576724Y-118448707D01*
X145830897Y-118829103D01*
X146211293Y-119083276D01*
X146546739Y-119150000D01*
X146773261Y-119150000D01*
X147108707Y-119083276D01*
X147489103Y-118829103D01*
X147743276Y-118448707D01*
X147790285Y-118212373D01*
X148018940Y-118212373D01*
X148190114Y-118648179D01*
X148515034Y-118985306D01*
X148944234Y-119172429D01*
X148987627Y-119181058D01*
X149175000Y-119112219D01*
X149175000Y-118025000D01*
X149225000Y-118025000D01*
X149225000Y-119112219D01*
X149412373Y-119181058D01*
X149455766Y-119172429D01*
X149884966Y-118985306D01*
X150209886Y-118648179D01*
X150381060Y-118212373D01*
X150312242Y-118025000D01*
X149225000Y-118025000D01*
X149175000Y-118025000D01*
X148087758Y-118025000D01*
X148018940Y-118212373D01*
X147790285Y-118212373D01*
X147832529Y-118000000D01*
X147790286Y-117787627D01*
X148018940Y-117787627D01*
X148087758Y-117975000D01*
X149175000Y-117975000D01*
X149175000Y-116887781D01*
X149225000Y-116887781D01*
X149225000Y-117975000D01*
X150312242Y-117975000D01*
X150381060Y-117787627D01*
X150209886Y-117351821D01*
X149884966Y-117014694D01*
X149455766Y-116827571D01*
X149412373Y-116818942D01*
X149225000Y-116887781D01*
X149175000Y-116887781D01*
X148987627Y-116818942D01*
X148944234Y-116827571D01*
X148515034Y-117014694D01*
X148190114Y-117351821D01*
X148018940Y-117787627D01*
X147790286Y-117787627D01*
X147743276Y-117551293D01*
X147489103Y-117170897D01*
X147108707Y-116916724D01*
X146773261Y-116850000D01*
X146546739Y-116850000D01*
X146211293Y-116916724D01*
X145830897Y-117170897D01*
X145576724Y-117551293D01*
X145487471Y-118000000D01*
X145292529Y-118000000D01*
X145203276Y-117551293D01*
X144949103Y-117170897D01*
X144568707Y-116916724D01*
X144233261Y-116850000D01*
X144006739Y-116850000D01*
X143671293Y-116916724D01*
X143290897Y-117170897D01*
X143036724Y-117551293D01*
X142947471Y-118000000D01*
X142752529Y-118000000D01*
X142663276Y-117551293D01*
X142409103Y-117170897D01*
X142028707Y-116916724D01*
X141693261Y-116850000D01*
X141466739Y-116850000D01*
X141131293Y-116916724D01*
X140750897Y-117170897D01*
X140496724Y-117551293D01*
X140407471Y-118000000D01*
X140212529Y-118000000D01*
X140123276Y-117551293D01*
X139869103Y-117170897D01*
X139488707Y-116916724D01*
X139153261Y-116850000D01*
X138926739Y-116850000D01*
X138591293Y-116916724D01*
X138210897Y-117170897D01*
X137956724Y-117551293D01*
X137867471Y-118000000D01*
X137655877Y-118000000D01*
X137655877Y-117150000D01*
X137632593Y-117032946D01*
X137566288Y-116933712D01*
X137467054Y-116867407D01*
X137350000Y-116844123D01*
X135650000Y-116844123D01*
X135532946Y-116867407D01*
X135433712Y-116933712D01*
X135367407Y-117032946D01*
X135344123Y-117150000D01*
X133126779Y-117150000D01*
X133172529Y-116920000D01*
X133083276Y-116471293D01*
X132829103Y-116090897D01*
X132448707Y-115836724D01*
X132113261Y-115770000D01*
X131886739Y-115770000D01*
X131551293Y-115836724D01*
X131170897Y-116090897D01*
X130916724Y-116471293D01*
X130827471Y-116920000D01*
X130350000Y-116920000D01*
X130350000Y-114380000D01*
X130827471Y-114380000D01*
X130916724Y-114828707D01*
X131170897Y-115209103D01*
X131551293Y-115463276D01*
X131886739Y-115530000D01*
X132113261Y-115530000D01*
X132448707Y-115463276D01*
X132829103Y-115209103D01*
X133048566Y-114880653D01*
X136600000Y-114880653D01*
X136600000Y-115119347D01*
X136691344Y-115339873D01*
X136860127Y-115508656D01*
X137080653Y-115600000D01*
X137319347Y-115600000D01*
X137539873Y-115508656D01*
X137708656Y-115339873D01*
X137800000Y-115119347D01*
X137800000Y-114880653D01*
X137708656Y-114660127D01*
X137539873Y-114491344D01*
X137475358Y-114464621D01*
X142175953Y-114464621D01*
X142175953Y-114703315D01*
X142267297Y-114923841D01*
X142436080Y-115092624D01*
X142656606Y-115183968D01*
X142826767Y-115183968D01*
X142891344Y-115339873D01*
X143060127Y-115508656D01*
X143241560Y-115583808D01*
X143115229Y-115710139D01*
X143023885Y-115930665D01*
X143023885Y-116169359D01*
X143115229Y-116389885D01*
X143284012Y-116558668D01*
X143504538Y-116650012D01*
X143743232Y-116650012D01*
X143963758Y-116558668D01*
X144132541Y-116389885D01*
X144223885Y-116169359D01*
X144223885Y-115930665D01*
X144132541Y-115710139D01*
X143963758Y-115541356D01*
X143782325Y-115466204D01*
X143908656Y-115339873D01*
X144000000Y-115119347D01*
X144000000Y-114880653D01*
X144400000Y-114880653D01*
X144400000Y-115119347D01*
X144491344Y-115339873D01*
X144660127Y-115508656D01*
X144880653Y-115600000D01*
X145119347Y-115600000D01*
X145339873Y-115508656D01*
X145508656Y-115339873D01*
X145600000Y-115119347D01*
X145600000Y-114880653D01*
X145508656Y-114660127D01*
X145339873Y-114491344D01*
X145119347Y-114400000D01*
X144880653Y-114400000D01*
X144660127Y-114491344D01*
X144491344Y-114660127D01*
X144400000Y-114880653D01*
X144000000Y-114880653D01*
X143908656Y-114660127D01*
X143739873Y-114491344D01*
X143519347Y-114400000D01*
X143349186Y-114400000D01*
X143284609Y-114244095D01*
X143115826Y-114075312D01*
X142895300Y-113983968D01*
X142656606Y-113983968D01*
X142436080Y-114075312D01*
X142267297Y-114244095D01*
X142175953Y-114464621D01*
X137475358Y-114464621D01*
X137319347Y-114400000D01*
X137080653Y-114400000D01*
X136860127Y-114491344D01*
X136691344Y-114660127D01*
X136600000Y-114880653D01*
X133048566Y-114880653D01*
X133083276Y-114828707D01*
X133172529Y-114380000D01*
X133083276Y-113931293D01*
X132829103Y-113550897D01*
X132448707Y-113296724D01*
X132113261Y-113230000D01*
X131886739Y-113230000D01*
X131551293Y-113296724D01*
X131170897Y-113550897D01*
X130916724Y-113931293D01*
X130827471Y-114380000D01*
X130350000Y-114380000D01*
X130350000Y-111840000D01*
X130827471Y-111840000D01*
X130916724Y-112288707D01*
X131170897Y-112669103D01*
X131551293Y-112923276D01*
X131886739Y-112990000D01*
X132113261Y-112990000D01*
X132448707Y-112923276D01*
X132829103Y-112669103D01*
X133083276Y-112288707D01*
X133084878Y-112280653D01*
X162000001Y-112280653D01*
X162000001Y-112519347D01*
X162091345Y-112739873D01*
X162260128Y-112908656D01*
X162480654Y-113000000D01*
X162719348Y-113000000D01*
X162939874Y-112908656D01*
X163108657Y-112739873D01*
X163200001Y-112519347D01*
X163200001Y-112280653D01*
X163108657Y-112060127D01*
X162939874Y-111891344D01*
X162719348Y-111800000D01*
X162480654Y-111800000D01*
X162260128Y-111891344D01*
X162091345Y-112060127D01*
X162000001Y-112280653D01*
X133084878Y-112280653D01*
X133172529Y-111840000D01*
X133083276Y-111391293D01*
X132829103Y-111010897D01*
X132448707Y-110756724D01*
X132113261Y-110690000D01*
X131886739Y-110690000D01*
X131551293Y-110756724D01*
X131170897Y-111010897D01*
X130916724Y-111391293D01*
X130827471Y-111840000D01*
X130350000Y-111840000D01*
X130350000Y-110580653D01*
X148200008Y-110580653D01*
X148200008Y-110819347D01*
X148291352Y-111039873D01*
X148460135Y-111208656D01*
X148680661Y-111300000D01*
X148919355Y-111300000D01*
X149139881Y-111208656D01*
X149308664Y-111039873D01*
X149400008Y-110819347D01*
X149400008Y-110580653D01*
X149700000Y-110580653D01*
X149700000Y-110819347D01*
X149791344Y-111039873D01*
X149960127Y-111208656D01*
X150180653Y-111300000D01*
X150419347Y-111300000D01*
X150639873Y-111208656D01*
X150808656Y-111039873D01*
X150900000Y-110819347D01*
X150900000Y-110580653D01*
X150808656Y-110360127D01*
X150639873Y-110191344D01*
X150419347Y-110100000D01*
X150180653Y-110100000D01*
X149960127Y-110191344D01*
X149791344Y-110360127D01*
X149700000Y-110580653D01*
X149400008Y-110580653D01*
X149308664Y-110360127D01*
X149139881Y-110191344D01*
X148919355Y-110100000D01*
X148680661Y-110100000D01*
X148460135Y-110191344D01*
X148291352Y-110360127D01*
X148200008Y-110580653D01*
X130350000Y-110580653D01*
X130350000Y-109300000D01*
X130827471Y-109300000D01*
X130916724Y-109748707D01*
X131170897Y-110129103D01*
X131551293Y-110383276D01*
X131886739Y-110450000D01*
X132113261Y-110450000D01*
X132448707Y-110383276D01*
X132829103Y-110129103D01*
X133083276Y-109748707D01*
X133137544Y-109475882D01*
X153995229Y-109475882D01*
X153995229Y-109714576D01*
X154086573Y-109935102D01*
X154255356Y-110103885D01*
X154475882Y-110195229D01*
X154714576Y-110195229D01*
X154935102Y-110103885D01*
X155103885Y-109935102D01*
X155195229Y-109714576D01*
X155195229Y-109475882D01*
X155103885Y-109255356D01*
X154935102Y-109086573D01*
X154714576Y-108995229D01*
X154475882Y-108995229D01*
X154255356Y-109086573D01*
X154086573Y-109255356D01*
X153995229Y-109475882D01*
X133137544Y-109475882D01*
X133172529Y-109300000D01*
X133083276Y-108851293D01*
X132940965Y-108638309D01*
X138742344Y-108638309D01*
X138742344Y-108877003D01*
X138833688Y-109097529D01*
X139002471Y-109266312D01*
X139222997Y-109357656D01*
X139461691Y-109357656D01*
X139682217Y-109266312D01*
X139851000Y-109097529D01*
X139942344Y-108877003D01*
X139942344Y-108638309D01*
X139851000Y-108417783D01*
X139682217Y-108249000D01*
X139461691Y-108157656D01*
X139222997Y-108157656D01*
X139002471Y-108249000D01*
X138833688Y-108417783D01*
X138742344Y-108638309D01*
X132940965Y-108638309D01*
X132829103Y-108470897D01*
X132448707Y-108216724D01*
X132113261Y-108150000D01*
X131886739Y-108150000D01*
X131551293Y-108216724D01*
X131170897Y-108470897D01*
X130916724Y-108851293D01*
X130827471Y-109300000D01*
X130350000Y-109300000D01*
X130350000Y-106760000D01*
X130827471Y-106760000D01*
X130916724Y-107208707D01*
X131170897Y-107589103D01*
X131551293Y-107843276D01*
X131886739Y-107910000D01*
X132113261Y-107910000D01*
X132448707Y-107843276D01*
X132829103Y-107589103D01*
X133083276Y-107208707D01*
X133172529Y-106760000D01*
X133156744Y-106680641D01*
X141399988Y-106680641D01*
X141399988Y-106919335D01*
X141491332Y-107139861D01*
X141660115Y-107308644D01*
X141880641Y-107399988D01*
X142119335Y-107399988D01*
X142339861Y-107308644D01*
X142508644Y-107139861D01*
X142512458Y-107130653D01*
X143925000Y-107130653D01*
X143925000Y-107369347D01*
X144016344Y-107589873D01*
X144185127Y-107758656D01*
X144405653Y-107850000D01*
X144644347Y-107850000D01*
X144864873Y-107758656D01*
X145033656Y-107589873D01*
X145125000Y-107369347D01*
X145125000Y-107130653D01*
X145033656Y-106910127D01*
X144864873Y-106741344D01*
X144644347Y-106650000D01*
X144405653Y-106650000D01*
X144185127Y-106741344D01*
X144016344Y-106910127D01*
X143925000Y-107130653D01*
X142512458Y-107130653D01*
X142599988Y-106919335D01*
X142599988Y-106680641D01*
X142579283Y-106630653D01*
X149500002Y-106630653D01*
X149500002Y-106869347D01*
X149591346Y-107089873D01*
X149601477Y-107100004D01*
X149591354Y-107110127D01*
X149500010Y-107330653D01*
X149500010Y-107569347D01*
X149591354Y-107789873D01*
X149760137Y-107958656D01*
X149980663Y-108050000D01*
X150219357Y-108050000D01*
X150439883Y-107958656D01*
X150608666Y-107789873D01*
X150700010Y-107569347D01*
X150700010Y-107330653D01*
X150608666Y-107110127D01*
X150598535Y-107099996D01*
X150608658Y-107089873D01*
X150700002Y-106869347D01*
X150700002Y-106630653D01*
X150608658Y-106410127D01*
X150439875Y-106241344D01*
X150219349Y-106150000D01*
X149980655Y-106150000D01*
X149760129Y-106241344D01*
X149591346Y-106410127D01*
X149500002Y-106630653D01*
X142579283Y-106630653D01*
X142508644Y-106460115D01*
X142339861Y-106291332D01*
X142119335Y-106199988D01*
X141880641Y-106199988D01*
X141660115Y-106291332D01*
X141491332Y-106460115D01*
X141399988Y-106680641D01*
X133156744Y-106680641D01*
X133083276Y-106311293D01*
X132829103Y-105930897D01*
X132448707Y-105676724D01*
X132113261Y-105610000D01*
X131886739Y-105610000D01*
X131551293Y-105676724D01*
X131170897Y-105930897D01*
X130916724Y-106311293D01*
X130827471Y-106760000D01*
X130350000Y-106760000D01*
X130350000Y-104220000D01*
X130827471Y-104220000D01*
X130916724Y-104668707D01*
X131170897Y-105049103D01*
X131551293Y-105303276D01*
X131886739Y-105370000D01*
X132113261Y-105370000D01*
X132448707Y-105303276D01*
X132781885Y-105080653D01*
X133000000Y-105080653D01*
X133000000Y-105319347D01*
X133091344Y-105539873D01*
X133260127Y-105708656D01*
X133480653Y-105800000D01*
X133719347Y-105800000D01*
X133939873Y-105708656D01*
X134108656Y-105539873D01*
X134200000Y-105319347D01*
X134200000Y-105080653D01*
X134108656Y-104860127D01*
X133993491Y-104744962D01*
X143200000Y-104744962D01*
X143200000Y-104983656D01*
X143291344Y-105204182D01*
X143460127Y-105372965D01*
X143680653Y-105464309D01*
X143919347Y-105464309D01*
X144139873Y-105372965D01*
X144140971Y-105371867D01*
X144142069Y-105372965D01*
X144362595Y-105464309D01*
X144601289Y-105464309D01*
X144821815Y-105372965D01*
X144840971Y-105353809D01*
X144860127Y-105372965D01*
X145080653Y-105464309D01*
X145319347Y-105464309D01*
X145521312Y-105380653D01*
X152000000Y-105380653D01*
X152000000Y-105619347D01*
X152091344Y-105839873D01*
X152260127Y-106008656D01*
X152480653Y-106100000D01*
X152719347Y-106100000D01*
X152871513Y-106036971D01*
X155474968Y-106036971D01*
X155474968Y-106275665D01*
X155566312Y-106496191D01*
X155735095Y-106664974D01*
X155900000Y-106733279D01*
X155900000Y-111500000D01*
X155907612Y-111538268D01*
X155929289Y-111570711D01*
X155961732Y-111592388D01*
X156000000Y-111600000D01*
X168000000Y-111600000D01*
X168038268Y-111592388D01*
X168070711Y-111570711D01*
X168092388Y-111538268D01*
X168100000Y-111500000D01*
X168100000Y-110980653D01*
X169700000Y-110980653D01*
X169700000Y-111219347D01*
X169791344Y-111439873D01*
X169960127Y-111608656D01*
X170180653Y-111700000D01*
X170419347Y-111700000D01*
X170639873Y-111608656D01*
X170808656Y-111439873D01*
X170900000Y-111219347D01*
X170900000Y-110980653D01*
X170808656Y-110760127D01*
X170639873Y-110591344D01*
X170419347Y-110500000D01*
X170180653Y-110500000D01*
X169960127Y-110591344D01*
X169791344Y-110760127D01*
X169700000Y-110980653D01*
X168100000Y-110980653D01*
X168100000Y-107080653D01*
X170300000Y-107080653D01*
X170300000Y-107319347D01*
X170391344Y-107539873D01*
X170560127Y-107708656D01*
X170780653Y-107800000D01*
X171019347Y-107800000D01*
X171239873Y-107708656D01*
X171408656Y-107539873D01*
X171500000Y-107319347D01*
X171500000Y-107080653D01*
X171408656Y-106860127D01*
X171239873Y-106691344D01*
X171019347Y-106600000D01*
X170780653Y-106600000D01*
X170560127Y-106691344D01*
X170391344Y-106860127D01*
X170300000Y-107080653D01*
X168100000Y-107080653D01*
X168100000Y-105139307D01*
X171042270Y-105139307D01*
X171042270Y-105378001D01*
X171133614Y-105598527D01*
X171302397Y-105767310D01*
X171522923Y-105858654D01*
X171761617Y-105858654D01*
X171982143Y-105767310D01*
X172150926Y-105598527D01*
X172242270Y-105378001D01*
X172242270Y-105139307D01*
X172150926Y-104918781D01*
X171982143Y-104749998D01*
X171761617Y-104658654D01*
X171522923Y-104658654D01*
X171302397Y-104749998D01*
X171133614Y-104918781D01*
X171042270Y-105139307D01*
X168100000Y-105139307D01*
X168100000Y-103880653D01*
X177800000Y-103880653D01*
X177800000Y-104119347D01*
X177891344Y-104339873D01*
X177951471Y-104400000D01*
X177891344Y-104460127D01*
X177800000Y-104680653D01*
X177800000Y-104919347D01*
X177891344Y-105139873D01*
X177951471Y-105200000D01*
X177891344Y-105260127D01*
X177800000Y-105480653D01*
X177800000Y-105719347D01*
X177891344Y-105939873D01*
X177951471Y-106000000D01*
X177891344Y-106060127D01*
X177800000Y-106280653D01*
X177800000Y-106519347D01*
X177891344Y-106739873D01*
X177951471Y-106800000D01*
X177891344Y-106860127D01*
X177800000Y-107080653D01*
X177800000Y-107319347D01*
X177891344Y-107539873D01*
X178060127Y-107708656D01*
X178280653Y-107800000D01*
X178519347Y-107800000D01*
X178739873Y-107708656D01*
X178908656Y-107539873D01*
X179000000Y-107319347D01*
X179000000Y-107080653D01*
X178908656Y-106860127D01*
X178848529Y-106800000D01*
X178908656Y-106739873D01*
X179000000Y-106519347D01*
X179000000Y-106280653D01*
X178908656Y-106060127D01*
X178848529Y-106000000D01*
X178908656Y-105939873D01*
X179000000Y-105719347D01*
X179000000Y-105480653D01*
X178908656Y-105260127D01*
X178848529Y-105200000D01*
X178908656Y-105139873D01*
X179000000Y-104919347D01*
X179000000Y-104680653D01*
X178908656Y-104460127D01*
X178848529Y-104400000D01*
X178908656Y-104339873D01*
X179000000Y-104119347D01*
X179000000Y-103880653D01*
X178908656Y-103660127D01*
X178739873Y-103491344D01*
X178519347Y-103400000D01*
X178280653Y-103400000D01*
X178060127Y-103491344D01*
X177891344Y-103660127D01*
X177800000Y-103880653D01*
X168100000Y-103880653D01*
X168100000Y-103080653D01*
X174900000Y-103080653D01*
X174900000Y-103319347D01*
X174991344Y-103539873D01*
X175160127Y-103708656D01*
X175380653Y-103800000D01*
X175619347Y-103800000D01*
X175839873Y-103708656D01*
X176008656Y-103539873D01*
X176100000Y-103319347D01*
X176100000Y-103080653D01*
X176008656Y-102860127D01*
X175839873Y-102691344D01*
X175619347Y-102600000D01*
X175380653Y-102600000D01*
X175160127Y-102691344D01*
X174991344Y-102860127D01*
X174900000Y-103080653D01*
X168100000Y-103080653D01*
X168100000Y-101983936D01*
X168156149Y-101960679D01*
X168324932Y-101791896D01*
X168416276Y-101571370D01*
X168416276Y-101332676D01*
X168324932Y-101112150D01*
X168188794Y-100976012D01*
X168324932Y-100839873D01*
X168416276Y-100619347D01*
X168416276Y-100380653D01*
X168324932Y-100160127D01*
X168156149Y-99991344D01*
X168100000Y-99968087D01*
X168100000Y-99000000D01*
X168092388Y-98961732D01*
X168070711Y-98929289D01*
X168038268Y-98907612D01*
X168000000Y-98900000D01*
X163548537Y-98900000D01*
X163489873Y-98841336D01*
X163269347Y-98749992D01*
X163030653Y-98749992D01*
X162810127Y-98841336D01*
X162751463Y-98900000D01*
X156000000Y-98900000D01*
X155961732Y-98907612D01*
X155929289Y-98929289D01*
X155907612Y-98961732D01*
X155900000Y-99000000D01*
X155900000Y-100874828D01*
X155860127Y-100891344D01*
X155691344Y-101060127D01*
X155600000Y-101280653D01*
X155600000Y-101519347D01*
X155691344Y-101739873D01*
X155860127Y-101908656D01*
X155900000Y-101925172D01*
X155900000Y-104326450D01*
X155866323Y-104360127D01*
X155774979Y-104580653D01*
X155774979Y-104819347D01*
X155866323Y-105039873D01*
X155900000Y-105073550D01*
X155900000Y-105579357D01*
X155735095Y-105647662D01*
X155566312Y-105816445D01*
X155474968Y-106036971D01*
X152871513Y-106036971D01*
X152939873Y-106008656D01*
X153108656Y-105839873D01*
X153200000Y-105619347D01*
X153200000Y-105380653D01*
X153108656Y-105160127D01*
X152939873Y-104991344D01*
X152719347Y-104900000D01*
X152480653Y-104900000D01*
X152260127Y-104991344D01*
X152091344Y-105160127D01*
X152000000Y-105380653D01*
X145521312Y-105380653D01*
X145539873Y-105372965D01*
X145708656Y-105204182D01*
X145800000Y-104983656D01*
X145800000Y-104744962D01*
X145708656Y-104524436D01*
X145539873Y-104355653D01*
X145319347Y-104264309D01*
X145080653Y-104264309D01*
X144860127Y-104355653D01*
X144840971Y-104374809D01*
X144821815Y-104355653D01*
X144601289Y-104264309D01*
X144362595Y-104264309D01*
X144142069Y-104355653D01*
X144140971Y-104356751D01*
X144139873Y-104355653D01*
X143919347Y-104264309D01*
X143680653Y-104264309D01*
X143460127Y-104355653D01*
X143291344Y-104524436D01*
X143200000Y-104744962D01*
X133993491Y-104744962D01*
X133939873Y-104691344D01*
X133719347Y-104600000D01*
X133480653Y-104600000D01*
X133260127Y-104691344D01*
X133091344Y-104860127D01*
X133000000Y-105080653D01*
X132781885Y-105080653D01*
X132829103Y-105049103D01*
X133083276Y-104668707D01*
X133172529Y-104220000D01*
X133083276Y-103771293D01*
X132829103Y-103390897D01*
X132448707Y-103136724D01*
X132113261Y-103070000D01*
X131886739Y-103070000D01*
X131551293Y-103136724D01*
X131170897Y-103390897D01*
X130916724Y-103771293D01*
X130827471Y-104220000D01*
X130350000Y-104220000D01*
X130350000Y-101680000D01*
X130827471Y-101680000D01*
X130916724Y-102128707D01*
X131170897Y-102509103D01*
X131551293Y-102763276D01*
X131886739Y-102830000D01*
X132113261Y-102830000D01*
X132448707Y-102763276D01*
X132572360Y-102680653D01*
X137975000Y-102680653D01*
X137975000Y-102919347D01*
X138066344Y-103139873D01*
X138235127Y-103308656D01*
X138455653Y-103400000D01*
X138694347Y-103400000D01*
X138914873Y-103308656D01*
X139083656Y-103139873D01*
X139175000Y-102919347D01*
X139175000Y-102680653D01*
X139083656Y-102460127D01*
X139079161Y-102455632D01*
X143838377Y-102455632D01*
X143838377Y-102694326D01*
X143929721Y-102914852D01*
X144098504Y-103083635D01*
X144319030Y-103174979D01*
X144557724Y-103174979D01*
X144778250Y-103083635D01*
X144947033Y-102914852D01*
X144961198Y-102880653D01*
X149650000Y-102880653D01*
X149650000Y-103119347D01*
X149741344Y-103339873D01*
X149910127Y-103508656D01*
X150130653Y-103600000D01*
X150369347Y-103600000D01*
X150589873Y-103508656D01*
X150758656Y-103339873D01*
X150850000Y-103119347D01*
X150850000Y-102880653D01*
X150758656Y-102660127D01*
X150598529Y-102500000D01*
X150758679Y-102339850D01*
X150850023Y-102119324D01*
X150850023Y-101880630D01*
X150758679Y-101660104D01*
X150589896Y-101491321D01*
X150369370Y-101399977D01*
X150130676Y-101399977D01*
X149910150Y-101491321D01*
X149741367Y-101660104D01*
X149650023Y-101880630D01*
X149650023Y-102119324D01*
X149741367Y-102339850D01*
X149901494Y-102499977D01*
X149741344Y-102660127D01*
X149650000Y-102880653D01*
X144961198Y-102880653D01*
X145038377Y-102694326D01*
X145038377Y-102455632D01*
X144947033Y-102235106D01*
X144778250Y-102066323D01*
X144557724Y-101974979D01*
X144319030Y-101974979D01*
X144098504Y-102066323D01*
X143929721Y-102235106D01*
X143838377Y-102455632D01*
X139079161Y-102455632D01*
X138914873Y-102291344D01*
X138694347Y-102200000D01*
X138455653Y-102200000D01*
X138235127Y-102291344D01*
X138066344Y-102460127D01*
X137975000Y-102680653D01*
X132572360Y-102680653D01*
X132829103Y-102509103D01*
X133083276Y-102128707D01*
X133172529Y-101680000D01*
X133083276Y-101231293D01*
X132829103Y-100850897D01*
X132448707Y-100596724D01*
X132365248Y-100580123D01*
X137609495Y-100580123D01*
X137609495Y-100818817D01*
X137700839Y-101039343D01*
X137869622Y-101208126D01*
X138090148Y-101299470D01*
X138328842Y-101299470D01*
X138549368Y-101208126D01*
X138718151Y-101039343D01*
X138809495Y-100818817D01*
X138809495Y-100580123D01*
X138718151Y-100359597D01*
X138549368Y-100190814D01*
X138328842Y-100099470D01*
X138090148Y-100099470D01*
X137869622Y-100190814D01*
X137700839Y-100359597D01*
X137609495Y-100580123D01*
X132365248Y-100580123D01*
X132113261Y-100530000D01*
X131886739Y-100530000D01*
X131551293Y-100596724D01*
X131170897Y-100850897D01*
X130916724Y-101231293D01*
X130827471Y-101680000D01*
X130350000Y-101680000D01*
X130350000Y-99140000D01*
X130827471Y-99140000D01*
X130916724Y-99588707D01*
X131170897Y-99969103D01*
X131551293Y-100223276D01*
X131886739Y-100290000D01*
X132113261Y-100290000D01*
X132448707Y-100223276D01*
X132829103Y-99969103D01*
X132865215Y-99915057D01*
X138649968Y-99915057D01*
X138649968Y-100153751D01*
X138741312Y-100374277D01*
X138910095Y-100543060D01*
X139130621Y-100634404D01*
X139369315Y-100634404D01*
X139589841Y-100543060D01*
X139758624Y-100374277D01*
X139849968Y-100153751D01*
X139849968Y-99915057D01*
X139836937Y-99883596D01*
X153474990Y-99883596D01*
X153474990Y-100122290D01*
X153566334Y-100342816D01*
X153735117Y-100511599D01*
X153955643Y-100602943D01*
X154194337Y-100602943D01*
X154414863Y-100511599D01*
X154583646Y-100342816D01*
X154674990Y-100122290D01*
X154674990Y-99883596D01*
X154583646Y-99663070D01*
X154414863Y-99494287D01*
X154194337Y-99402943D01*
X153955643Y-99402943D01*
X153735117Y-99494287D01*
X153566334Y-99663070D01*
X153474990Y-99883596D01*
X139836937Y-99883596D01*
X139758624Y-99694531D01*
X139589841Y-99525748D01*
X139369315Y-99434404D01*
X139130621Y-99434404D01*
X138910095Y-99525748D01*
X138741312Y-99694531D01*
X138649968Y-99915057D01*
X132865215Y-99915057D01*
X133083276Y-99588707D01*
X133172529Y-99140000D01*
X133083276Y-98691293D01*
X132942530Y-98480651D01*
X134725010Y-98480651D01*
X134725010Y-98719345D01*
X134816354Y-98939871D01*
X134985137Y-99108654D01*
X135205663Y-99199998D01*
X135444357Y-99199998D01*
X135664883Y-99108654D01*
X135833666Y-98939871D01*
X135925010Y-98719345D01*
X135925010Y-98680697D01*
X148500000Y-98680697D01*
X148500000Y-98919391D01*
X148591344Y-99139917D01*
X148760127Y-99308700D01*
X148980653Y-99400044D01*
X149219347Y-99400044D01*
X149439873Y-99308700D01*
X149608656Y-99139917D01*
X149700000Y-98919391D01*
X149700000Y-98680697D01*
X149608656Y-98460171D01*
X149439873Y-98291388D01*
X149219347Y-98200044D01*
X148980653Y-98200044D01*
X148760127Y-98291388D01*
X148591344Y-98460171D01*
X148500000Y-98680697D01*
X135925010Y-98680697D01*
X135925010Y-98480651D01*
X135833666Y-98260125D01*
X135664883Y-98091342D01*
X135444357Y-97999998D01*
X135205663Y-97999998D01*
X134985137Y-98091342D01*
X134816354Y-98260125D01*
X134725010Y-98480651D01*
X132942530Y-98480651D01*
X132829103Y-98310897D01*
X132448707Y-98056724D01*
X132113261Y-97990000D01*
X131886739Y-97990000D01*
X131551293Y-98056724D01*
X131170897Y-98310897D01*
X130916724Y-98691293D01*
X130827471Y-99140000D01*
X130350000Y-99140000D01*
X130350000Y-96600000D01*
X130827471Y-96600000D01*
X130916724Y-97048707D01*
X131170897Y-97429103D01*
X131551293Y-97683276D01*
X131886739Y-97750000D01*
X132113261Y-97750000D01*
X132448707Y-97683276D01*
X132751953Y-97480653D01*
X141000000Y-97480653D01*
X141000000Y-97719347D01*
X141091344Y-97939873D01*
X141260127Y-98108656D01*
X141480653Y-98200000D01*
X141719347Y-98200000D01*
X141826307Y-98155696D01*
X149892995Y-98155696D01*
X149892995Y-98394390D01*
X149984339Y-98614916D01*
X150153122Y-98783699D01*
X150373648Y-98875043D01*
X150612342Y-98875043D01*
X150832868Y-98783699D01*
X151001651Y-98614916D01*
X151092995Y-98394390D01*
X151092995Y-98155696D01*
X151061912Y-98080653D01*
X163700000Y-98080653D01*
X163700000Y-98319347D01*
X163791344Y-98539873D01*
X163960127Y-98708656D01*
X164180653Y-98800000D01*
X164419347Y-98800000D01*
X164639873Y-98708656D01*
X164798215Y-98550314D01*
X174069661Y-98550314D01*
X174069661Y-98789008D01*
X174161005Y-99009534D01*
X174329788Y-99178317D01*
X174550314Y-99269661D01*
X174789008Y-99269661D01*
X174900000Y-99223687D01*
X174900000Y-99319347D01*
X174991344Y-99539873D01*
X175051471Y-99600000D01*
X174991344Y-99660127D01*
X174900000Y-99880653D01*
X174900000Y-100119347D01*
X174991344Y-100339873D01*
X175051471Y-100400000D01*
X174991344Y-100460127D01*
X174900000Y-100680653D01*
X174900000Y-100919347D01*
X174991344Y-101139873D01*
X175051471Y-101200000D01*
X174991344Y-101260127D01*
X174900000Y-101480653D01*
X174900000Y-101719347D01*
X174991344Y-101939873D01*
X175160127Y-102108656D01*
X175380653Y-102200000D01*
X175619347Y-102200000D01*
X175839873Y-102108656D01*
X176008656Y-101939873D01*
X176100000Y-101719347D01*
X176100000Y-101480653D01*
X176008656Y-101260127D01*
X175948529Y-101200000D01*
X176008656Y-101139873D01*
X176100000Y-100919347D01*
X176100000Y-100680653D01*
X176008656Y-100460127D01*
X175948529Y-100400000D01*
X176008656Y-100339873D01*
X176100000Y-100119347D01*
X176100000Y-99880653D01*
X176008656Y-99660127D01*
X175948529Y-99600000D01*
X176008656Y-99539873D01*
X176100000Y-99319347D01*
X176100000Y-99080653D01*
X176008656Y-98860127D01*
X175839873Y-98691344D01*
X175619347Y-98600000D01*
X175380653Y-98600000D01*
X175269661Y-98645974D01*
X175269661Y-98550314D01*
X175178317Y-98329788D01*
X175009534Y-98161005D01*
X174789008Y-98069661D01*
X174550314Y-98069661D01*
X174329788Y-98161005D01*
X174161005Y-98329788D01*
X174069661Y-98550314D01*
X164798215Y-98550314D01*
X164808656Y-98539873D01*
X164900000Y-98319347D01*
X164900000Y-98080653D01*
X164808656Y-97860127D01*
X164639873Y-97691344D01*
X164435243Y-97606584D01*
X165485834Y-97606584D01*
X165485834Y-97845278D01*
X165577178Y-98065804D01*
X165745961Y-98234587D01*
X165966487Y-98325931D01*
X166205181Y-98325931D01*
X166397675Y-98246198D01*
X166488891Y-98337414D01*
X166709417Y-98428758D01*
X166948111Y-98428758D01*
X167168637Y-98337414D01*
X167337420Y-98168631D01*
X167428764Y-97948105D01*
X167428764Y-97800000D01*
X167519347Y-97800000D01*
X167739873Y-97708656D01*
X167908656Y-97539873D01*
X167933185Y-97480653D01*
X177900000Y-97480653D01*
X177900000Y-97719347D01*
X177991344Y-97939873D01*
X178160127Y-98108656D01*
X178380653Y-98200000D01*
X178619347Y-98200000D01*
X178839873Y-98108656D01*
X179008656Y-97939873D01*
X179100000Y-97719347D01*
X179100000Y-97480653D01*
X179008656Y-97260127D01*
X178839873Y-97091344D01*
X178619347Y-97000000D01*
X178380653Y-97000000D01*
X178160127Y-97091344D01*
X177991344Y-97260127D01*
X177900000Y-97480653D01*
X167933185Y-97480653D01*
X168000000Y-97319347D01*
X168000000Y-97080653D01*
X167908656Y-96860127D01*
X167739873Y-96691344D01*
X167519347Y-96600000D01*
X167280653Y-96600000D01*
X167060127Y-96691344D01*
X166891344Y-96860127D01*
X166800000Y-97080653D01*
X166800000Y-97228758D01*
X166709417Y-97228758D01*
X166516923Y-97308491D01*
X166425707Y-97217275D01*
X166205181Y-97125931D01*
X165966487Y-97125931D01*
X165745961Y-97217275D01*
X165577178Y-97386058D01*
X165485834Y-97606584D01*
X164435243Y-97606584D01*
X164419347Y-97600000D01*
X164180653Y-97600000D01*
X163960127Y-97691344D01*
X163791344Y-97860127D01*
X163700000Y-98080653D01*
X151061912Y-98080653D01*
X151001651Y-97935170D01*
X150832868Y-97766387D01*
X150612342Y-97675043D01*
X150373648Y-97675043D01*
X150153122Y-97766387D01*
X149984339Y-97935170D01*
X149892995Y-98155696D01*
X141826307Y-98155696D01*
X141939873Y-98108656D01*
X142108656Y-97939873D01*
X142200000Y-97719347D01*
X142200000Y-97480653D01*
X142108656Y-97260127D01*
X141939873Y-97091344D01*
X141733019Y-97005663D01*
X154050000Y-97005663D01*
X154050000Y-97244357D01*
X154141344Y-97464883D01*
X154310127Y-97633666D01*
X154530653Y-97725010D01*
X154769347Y-97725010D01*
X154989873Y-97633666D01*
X155103766Y-97519773D01*
X155138142Y-97554149D01*
X155358668Y-97645493D01*
X155597362Y-97645493D01*
X155817888Y-97554149D01*
X155986671Y-97385366D01*
X156078015Y-97164840D01*
X156078015Y-96926146D01*
X155986671Y-96705620D01*
X155817888Y-96536837D01*
X155597362Y-96445493D01*
X155358668Y-96445493D01*
X155138142Y-96536837D01*
X155024249Y-96650730D01*
X154989873Y-96616354D01*
X154769347Y-96525010D01*
X154530653Y-96525010D01*
X154310127Y-96616354D01*
X154141344Y-96785137D01*
X154050000Y-97005663D01*
X141733019Y-97005663D01*
X141719347Y-97000000D01*
X141480653Y-97000000D01*
X141260127Y-97091344D01*
X141091344Y-97260127D01*
X141000000Y-97480653D01*
X132751953Y-97480653D01*
X132829103Y-97429103D01*
X133083276Y-97048707D01*
X133172529Y-96600000D01*
X133083276Y-96151293D01*
X132829103Y-95770897D01*
X132448707Y-95516724D01*
X132113261Y-95450000D01*
X131886739Y-95450000D01*
X131551293Y-95516724D01*
X131170897Y-95770897D01*
X130916724Y-96151293D01*
X130827471Y-96600000D01*
X130350000Y-96600000D01*
X130350000Y-94060000D01*
X130827471Y-94060000D01*
X130916724Y-94508707D01*
X131170897Y-94889103D01*
X131551293Y-95143276D01*
X131886739Y-95210000D01*
X132113261Y-95210000D01*
X132448707Y-95143276D01*
X132542428Y-95080653D01*
X134100000Y-95080653D01*
X134100000Y-95319347D01*
X134191344Y-95539873D01*
X134360127Y-95708656D01*
X134580653Y-95800000D01*
X134819347Y-95800000D01*
X135039873Y-95708656D01*
X135208656Y-95539873D01*
X135300000Y-95319347D01*
X135300000Y-95080653D01*
X135208656Y-94860127D01*
X135039873Y-94691344D01*
X134819347Y-94600000D01*
X134580653Y-94600000D01*
X134360127Y-94691344D01*
X134191344Y-94860127D01*
X134100000Y-95080653D01*
X132542428Y-95080653D01*
X132829103Y-94889103D01*
X133083276Y-94508707D01*
X133148529Y-94180653D01*
X136100000Y-94180653D01*
X136100000Y-94419347D01*
X136191344Y-94639873D01*
X136360127Y-94808656D01*
X136454971Y-94847941D01*
X136400000Y-94980653D01*
X136400000Y-95219347D01*
X136491344Y-95439873D01*
X136660127Y-95608656D01*
X136790326Y-95662586D01*
X136700000Y-95880653D01*
X136700000Y-96119347D01*
X136791344Y-96339873D01*
X136960127Y-96508656D01*
X137180653Y-96600000D01*
X137419347Y-96600000D01*
X137639873Y-96508656D01*
X137808656Y-96339873D01*
X137843572Y-96255577D01*
X159076274Y-96255577D01*
X159076274Y-96494271D01*
X159167618Y-96714797D01*
X159336401Y-96883580D01*
X159556927Y-96974924D01*
X159795621Y-96974924D01*
X160016147Y-96883580D01*
X160184930Y-96714797D01*
X160276274Y-96494271D01*
X160276274Y-96380597D01*
X162900000Y-96380597D01*
X162900000Y-96619291D01*
X162991344Y-96839817D01*
X163160127Y-97008600D01*
X163380653Y-97099944D01*
X163619347Y-97099944D01*
X163839873Y-97008600D01*
X164008656Y-96839817D01*
X164100000Y-96619291D01*
X164100000Y-96380597D01*
X164008656Y-96160071D01*
X163839873Y-95991288D01*
X163619347Y-95899944D01*
X163380653Y-95899944D01*
X163160127Y-95991288D01*
X162991344Y-96160071D01*
X162900000Y-96380597D01*
X160276274Y-96380597D01*
X160276274Y-96255577D01*
X160184930Y-96035051D01*
X160016147Y-95866268D01*
X159795621Y-95774924D01*
X159556927Y-95774924D01*
X159336401Y-95866268D01*
X159167618Y-96035051D01*
X159076274Y-96255577D01*
X137843572Y-96255577D01*
X137900000Y-96119347D01*
X137900000Y-95880653D01*
X137808656Y-95660127D01*
X137639873Y-95491344D01*
X137509674Y-95437414D01*
X137600000Y-95219347D01*
X137600000Y-95026170D01*
X149454483Y-95026170D01*
X149454483Y-95264864D01*
X149545827Y-95485390D01*
X149714610Y-95654173D01*
X149935136Y-95745517D01*
X150173830Y-95745517D01*
X150394356Y-95654173D01*
X150563139Y-95485390D01*
X150654483Y-95264864D01*
X150654483Y-95026170D01*
X150563139Y-94805644D01*
X150394356Y-94636861D01*
X150173830Y-94545517D01*
X149935136Y-94545517D01*
X149714610Y-94636861D01*
X149545827Y-94805644D01*
X149454483Y-95026170D01*
X137600000Y-95026170D01*
X137600000Y-94980653D01*
X137508656Y-94760127D01*
X137339873Y-94591344D01*
X137245029Y-94552059D01*
X137300000Y-94419347D01*
X137300000Y-94305663D01*
X152502895Y-94305663D01*
X152502895Y-94544357D01*
X152594239Y-94764883D01*
X152763022Y-94933666D01*
X152983548Y-95025010D01*
X153222242Y-95025010D01*
X153442768Y-94933666D01*
X153453304Y-94923130D01*
X154000000Y-94923130D01*
X154000000Y-95161824D01*
X154091344Y-95382350D01*
X154260127Y-95551133D01*
X154480653Y-95642477D01*
X154719347Y-95642477D01*
X154939873Y-95551133D01*
X155108656Y-95382350D01*
X155200000Y-95161824D01*
X155200000Y-94923130D01*
X155108656Y-94702604D01*
X154939873Y-94533821D01*
X154719347Y-94442477D01*
X154480653Y-94442477D01*
X154260127Y-94533821D01*
X154091344Y-94702604D01*
X154000000Y-94923130D01*
X153453304Y-94923130D01*
X153611551Y-94764883D01*
X153702895Y-94544357D01*
X153702895Y-94305663D01*
X153611551Y-94085137D01*
X153442768Y-93916354D01*
X153222242Y-93825010D01*
X152983548Y-93825010D01*
X152763022Y-93916354D01*
X152594239Y-94085137D01*
X152502895Y-94305663D01*
X137300000Y-94305663D01*
X137300000Y-94180653D01*
X137208656Y-93960127D01*
X137039873Y-93791344D01*
X136819347Y-93700000D01*
X136580653Y-93700000D01*
X136360127Y-93791344D01*
X136191344Y-93960127D01*
X136100000Y-94180653D01*
X133148529Y-94180653D01*
X133172529Y-94060000D01*
X133083276Y-93611293D01*
X132829103Y-93230897D01*
X132448707Y-92976724D01*
X132113261Y-92910000D01*
X131886739Y-92910000D01*
X131551293Y-92976724D01*
X131170897Y-93230897D01*
X130916724Y-93611293D01*
X130827471Y-94060000D01*
X130350000Y-94060000D01*
X130350000Y-92180661D01*
X146100000Y-92180661D01*
X146100000Y-92419355D01*
X146191344Y-92639881D01*
X146360127Y-92808664D01*
X146580653Y-92900008D01*
X146819347Y-92900008D01*
X147039873Y-92808664D01*
X147208656Y-92639881D01*
X147300000Y-92419355D01*
X147300000Y-92180661D01*
X147299997Y-92180653D01*
X156699998Y-92180653D01*
X156699998Y-92419347D01*
X156791342Y-92639873D01*
X156960125Y-92808656D01*
X157131204Y-92879518D01*
X156981913Y-92941356D01*
X156813130Y-93110139D01*
X156721786Y-93330665D01*
X156721786Y-93569359D01*
X156813130Y-93789885D01*
X156981913Y-93958668D01*
X157202439Y-94050012D01*
X157364472Y-94050012D01*
X157300000Y-94205663D01*
X157300000Y-94444357D01*
X157391344Y-94664883D01*
X157560127Y-94833666D01*
X157780653Y-94925010D01*
X158019347Y-94925010D01*
X158239873Y-94833666D01*
X158408656Y-94664883D01*
X158500000Y-94444357D01*
X158500000Y-94205663D01*
X158408656Y-93985137D01*
X158239873Y-93816354D01*
X158019347Y-93725010D01*
X157857314Y-93725010D01*
X157876517Y-93678648D01*
X158940171Y-93678648D01*
X158940171Y-93917342D01*
X159031515Y-94137868D01*
X159200298Y-94306651D01*
X159420824Y-94397995D01*
X159659518Y-94397995D01*
X159812780Y-94334512D01*
X159935117Y-94456849D01*
X160155643Y-94548193D01*
X160394337Y-94548193D01*
X160614863Y-94456849D01*
X160783646Y-94288066D01*
X160858883Y-94106425D01*
X162111715Y-94106425D01*
X162111715Y-94345119D01*
X162203059Y-94565645D01*
X162371842Y-94734428D01*
X162592368Y-94825772D01*
X162831062Y-94825772D01*
X162992616Y-94758855D01*
X162991344Y-94760127D01*
X162900000Y-94980653D01*
X162900000Y-95219347D01*
X162991344Y-95439873D01*
X163160127Y-95608656D01*
X163380653Y-95700000D01*
X163619347Y-95700000D01*
X163839873Y-95608656D01*
X164008656Y-95439873D01*
X164100000Y-95219347D01*
X164100000Y-94980653D01*
X164008656Y-94760127D01*
X163839873Y-94591344D01*
X163619347Y-94500000D01*
X163380653Y-94500000D01*
X163219099Y-94566917D01*
X163220371Y-94565645D01*
X163311715Y-94345119D01*
X163311715Y-94106425D01*
X163301040Y-94080653D01*
X166200000Y-94080653D01*
X166200000Y-94319347D01*
X166291344Y-94539873D01*
X166460127Y-94708656D01*
X166680653Y-94800000D01*
X166919347Y-94800000D01*
X167139873Y-94708656D01*
X167308656Y-94539873D01*
X167400000Y-94319347D01*
X167400000Y-94080653D01*
X167308656Y-93860127D01*
X167139873Y-93691344D01*
X166919347Y-93600000D01*
X166680653Y-93600000D01*
X166460127Y-93691344D01*
X166291344Y-93860127D01*
X166200000Y-94080653D01*
X163301040Y-94080653D01*
X163220371Y-93885899D01*
X163051588Y-93717116D01*
X162831062Y-93625772D01*
X162592368Y-93625772D01*
X162371842Y-93717116D01*
X162203059Y-93885899D01*
X162111715Y-94106425D01*
X160858883Y-94106425D01*
X160874990Y-94067540D01*
X160874990Y-93828846D01*
X160783646Y-93608320D01*
X160614863Y-93439537D01*
X160394337Y-93348193D01*
X160155643Y-93348193D01*
X160002381Y-93411676D01*
X159880044Y-93289339D01*
X159659518Y-93197995D01*
X159420824Y-93197995D01*
X159200298Y-93289339D01*
X159031515Y-93458122D01*
X158940171Y-93678648D01*
X157876517Y-93678648D01*
X157921786Y-93569359D01*
X157921786Y-93330665D01*
X157830442Y-93110139D01*
X157661659Y-92941356D01*
X157490580Y-92870494D01*
X157639871Y-92808656D01*
X157808654Y-92639873D01*
X157899998Y-92419347D01*
X157899998Y-92355353D01*
X158144801Y-92355353D01*
X158144801Y-92594047D01*
X158236145Y-92814573D01*
X158404928Y-92983356D01*
X158625454Y-93074700D01*
X158864148Y-93074700D01*
X159084674Y-92983356D01*
X159096838Y-92971192D01*
X159153612Y-93027966D01*
X159374138Y-93119310D01*
X159612832Y-93119310D01*
X159833358Y-93027966D01*
X160002141Y-92859183D01*
X160093485Y-92638657D01*
X160093485Y-92399963D01*
X160002141Y-92179437D01*
X159833358Y-92010654D01*
X159612832Y-91919310D01*
X159374138Y-91919310D01*
X159153612Y-92010654D01*
X159141448Y-92022818D01*
X159084674Y-91966044D01*
X158864148Y-91874700D01*
X158625454Y-91874700D01*
X158404928Y-91966044D01*
X158236145Y-92134827D01*
X158144801Y-92355353D01*
X157899998Y-92355353D01*
X157899998Y-92180653D01*
X157808654Y-91960127D01*
X157639871Y-91791344D01*
X157419345Y-91700000D01*
X157180651Y-91700000D01*
X156960125Y-91791344D01*
X156791342Y-91960127D01*
X156699998Y-92180653D01*
X147299997Y-92180653D01*
X147208656Y-91960135D01*
X147072978Y-91824457D01*
X147231863Y-91758645D01*
X147400646Y-91589862D01*
X147491990Y-91369336D01*
X147491990Y-91130642D01*
X147471282Y-91080647D01*
X164999994Y-91080647D01*
X164999994Y-91319341D01*
X165091338Y-91539867D01*
X165260121Y-91708650D01*
X165480647Y-91799994D01*
X165719341Y-91799994D01*
X165939867Y-91708650D01*
X166108650Y-91539867D01*
X166199994Y-91319341D01*
X166199994Y-91080647D01*
X166108650Y-90860121D01*
X165939867Y-90691338D01*
X165719341Y-90599994D01*
X165480647Y-90599994D01*
X165260121Y-90691338D01*
X165091338Y-90860121D01*
X164999994Y-91080647D01*
X147471282Y-91080647D01*
X147400646Y-90910116D01*
X147231863Y-90741333D01*
X147011337Y-90649989D01*
X146772643Y-90649989D01*
X146552117Y-90741333D01*
X146383334Y-90910116D01*
X146291990Y-91130642D01*
X146291990Y-91369336D01*
X146383334Y-91589862D01*
X146519012Y-91725540D01*
X146360127Y-91791352D01*
X146191344Y-91960135D01*
X146100000Y-92180661D01*
X130350000Y-92180661D01*
X130350000Y-90080653D01*
X136900000Y-90080653D01*
X136900000Y-90319347D01*
X136991344Y-90539873D01*
X137160127Y-90708656D01*
X137380653Y-90800000D01*
X137619347Y-90800000D01*
X137839873Y-90708656D01*
X138008656Y-90539873D01*
X138100000Y-90319347D01*
X138100000Y-90080653D01*
X138094985Y-90068546D01*
X138160127Y-90133688D01*
X138380653Y-90225032D01*
X138619347Y-90225032D01*
X138839873Y-90133688D01*
X139008656Y-89964905D01*
X139100000Y-89744379D01*
X139100000Y-89580652D01*
X144859946Y-89580652D01*
X144859946Y-89819346D01*
X144951290Y-90039872D01*
X145120073Y-90208655D01*
X145340599Y-90299999D01*
X145579293Y-90299999D01*
X145799819Y-90208655D01*
X145968602Y-90039872D01*
X146059946Y-89819346D01*
X146059946Y-89580652D01*
X145968602Y-89360126D01*
X145799819Y-89191343D01*
X145579293Y-89099999D01*
X145340599Y-89099999D01*
X145120073Y-89191343D01*
X144951290Y-89360126D01*
X144859946Y-89580652D01*
X139100000Y-89580652D01*
X139100000Y-89505685D01*
X139008656Y-89285159D01*
X138839873Y-89116376D01*
X138619347Y-89025032D01*
X138380653Y-89025032D01*
X138160127Y-89116376D01*
X137991344Y-89285159D01*
X137900000Y-89505685D01*
X137900000Y-89744379D01*
X137905015Y-89756486D01*
X137839873Y-89691344D01*
X137619347Y-89600000D01*
X137380653Y-89600000D01*
X137160127Y-89691344D01*
X136991344Y-89860127D01*
X136900000Y-90080653D01*
X130350000Y-90080653D01*
X130350000Y-87650000D01*
X130844123Y-87650000D01*
X130844123Y-89350000D01*
X130867407Y-89467054D01*
X130933712Y-89566288D01*
X131032946Y-89632593D01*
X131150000Y-89655877D01*
X132850000Y-89655877D01*
X132967054Y-89632593D01*
X133066288Y-89566288D01*
X133132593Y-89467054D01*
X133155877Y-89350000D01*
X133155877Y-88712373D01*
X133358940Y-88712373D01*
X133530114Y-89148179D01*
X133855034Y-89485306D01*
X134284234Y-89672429D01*
X134327627Y-89681058D01*
X134515000Y-89612219D01*
X134515000Y-88525000D01*
X134565000Y-88525000D01*
X134565000Y-89612219D01*
X134752373Y-89681058D01*
X134795766Y-89672429D01*
X135224966Y-89485306D01*
X135549886Y-89148179D01*
X135721060Y-88712373D01*
X135681868Y-88605663D01*
X143100000Y-88605663D01*
X143100000Y-88844357D01*
X143191344Y-89064883D01*
X143360127Y-89233666D01*
X143580653Y-89325010D01*
X143819347Y-89325010D01*
X144039873Y-89233666D01*
X144208656Y-89064883D01*
X144300000Y-88844357D01*
X144300000Y-88605663D01*
X144220796Y-88414444D01*
X145891313Y-88414444D01*
X145891313Y-88653138D01*
X145982657Y-88873664D01*
X146151440Y-89042447D01*
X146371966Y-89133791D01*
X146610660Y-89133791D01*
X146657005Y-89114594D01*
X146657005Y-89185328D01*
X146748349Y-89405854D01*
X146917132Y-89574637D01*
X147137658Y-89665981D01*
X147376352Y-89665981D01*
X147596878Y-89574637D01*
X147765661Y-89405854D01*
X147857005Y-89185328D01*
X147857005Y-88946634D01*
X147765661Y-88726108D01*
X147596878Y-88557325D01*
X147376352Y-88465981D01*
X147137658Y-88465981D01*
X147091313Y-88485178D01*
X147091313Y-88414444D01*
X146999969Y-88193918D01*
X146831186Y-88025135D01*
X146610660Y-87933791D01*
X146371966Y-87933791D01*
X146151440Y-88025135D01*
X145982657Y-88193918D01*
X145891313Y-88414444D01*
X144220796Y-88414444D01*
X144208656Y-88385137D01*
X144039873Y-88216354D01*
X143819347Y-88125010D01*
X143580653Y-88125010D01*
X143360127Y-88216354D01*
X143191344Y-88385137D01*
X143100000Y-88605663D01*
X135681868Y-88605663D01*
X135652242Y-88525000D01*
X134565000Y-88525000D01*
X134515000Y-88525000D01*
X133427758Y-88525000D01*
X133358940Y-88712373D01*
X133155877Y-88712373D01*
X133155877Y-88287627D01*
X133358940Y-88287627D01*
X133427758Y-88475000D01*
X134515000Y-88475000D01*
X134515000Y-87387781D01*
X134565000Y-87387781D01*
X134565000Y-88475000D01*
X135652242Y-88475000D01*
X135721060Y-88287627D01*
X135549886Y-87851821D01*
X135355373Y-87650000D01*
X173344123Y-87650000D01*
X173344123Y-89350000D01*
X173367407Y-89467054D01*
X173433712Y-89566288D01*
X173532946Y-89632593D01*
X173650000Y-89655877D01*
X175350000Y-89655877D01*
X175467054Y-89632593D01*
X175566288Y-89566288D01*
X175632593Y-89467054D01*
X175655877Y-89350000D01*
X175655877Y-88712373D01*
X175858940Y-88712373D01*
X176030114Y-89148179D01*
X176355034Y-89485306D01*
X176784234Y-89672429D01*
X176827627Y-89681058D01*
X177015000Y-89612219D01*
X177015000Y-88525000D01*
X177065000Y-88525000D01*
X177065000Y-89612219D01*
X177252373Y-89681058D01*
X177295766Y-89672429D01*
X177724966Y-89485306D01*
X178049886Y-89148179D01*
X178221060Y-88712373D01*
X178152242Y-88525000D01*
X177065000Y-88525000D01*
X177015000Y-88525000D01*
X175927758Y-88525000D01*
X175858940Y-88712373D01*
X175655877Y-88712373D01*
X175655877Y-88287627D01*
X175858940Y-88287627D01*
X175927758Y-88475000D01*
X177015000Y-88475000D01*
X177015000Y-87387781D01*
X177065000Y-87387781D01*
X177065000Y-88475000D01*
X178152242Y-88475000D01*
X178221060Y-88287627D01*
X178049886Y-87851821D01*
X177724966Y-87514694D01*
X177295766Y-87327571D01*
X177252373Y-87318942D01*
X177065000Y-87387781D01*
X177015000Y-87387781D01*
X176827627Y-87318942D01*
X176784234Y-87327571D01*
X176355034Y-87514694D01*
X176030114Y-87851821D01*
X175858940Y-88287627D01*
X175655877Y-88287627D01*
X175655877Y-87650000D01*
X175632593Y-87532946D01*
X175566288Y-87433712D01*
X175467054Y-87367407D01*
X175350000Y-87344123D01*
X173650000Y-87344123D01*
X173532946Y-87367407D01*
X173433712Y-87433712D01*
X173367407Y-87532946D01*
X173344123Y-87650000D01*
X135355373Y-87650000D01*
X135224966Y-87514694D01*
X134795766Y-87327571D01*
X134752373Y-87318942D01*
X134565000Y-87387781D01*
X134515000Y-87387781D01*
X134327627Y-87318942D01*
X134284234Y-87327571D01*
X133855034Y-87514694D01*
X133530114Y-87851821D01*
X133358940Y-88287627D01*
X133155877Y-88287627D01*
X133155877Y-87650000D01*
X133132593Y-87532946D01*
X133066288Y-87433712D01*
X132967054Y-87367407D01*
X132850000Y-87344123D01*
X131150000Y-87344123D01*
X131032946Y-87367407D01*
X130933712Y-87433712D01*
X130867407Y-87532946D01*
X130844123Y-87650000D01*
X130350000Y-87650000D01*
X130350000Y-86080653D01*
X143112500Y-86080653D01*
X143112500Y-86319347D01*
X143203844Y-86539873D01*
X143372627Y-86708656D01*
X143593153Y-86800000D01*
X143831847Y-86800000D01*
X144052373Y-86708656D01*
X144221156Y-86539873D01*
X144312500Y-86319347D01*
X144312500Y-86080653D01*
X144229657Y-85880649D01*
X154225010Y-85880649D01*
X154225010Y-86119343D01*
X154316354Y-86339869D01*
X154485137Y-86508652D01*
X154705663Y-86599996D01*
X154944357Y-86599996D01*
X155164883Y-86508652D01*
X155333666Y-86339869D01*
X155350569Y-86299062D01*
X155460127Y-86408620D01*
X155680653Y-86499964D01*
X155919347Y-86499964D01*
X156139873Y-86408620D01*
X156308656Y-86239837D01*
X156400000Y-86019311D01*
X156400000Y-85780617D01*
X156308656Y-85560091D01*
X156139873Y-85391308D01*
X155919347Y-85299964D01*
X155680653Y-85299964D01*
X155460127Y-85391308D01*
X155291344Y-85560091D01*
X155274441Y-85600898D01*
X155164883Y-85491340D01*
X154944357Y-85399996D01*
X154705663Y-85399996D01*
X154485137Y-85491340D01*
X154316354Y-85660123D01*
X154225010Y-85880649D01*
X144229657Y-85880649D01*
X144221156Y-85860127D01*
X144052373Y-85691344D01*
X143831847Y-85600000D01*
X143593153Y-85600000D01*
X143372627Y-85691344D01*
X143203844Y-85860127D01*
X143112500Y-86080653D01*
X130350000Y-86080653D01*
X130350000Y-85015583D01*
X130424859Y-84176804D01*
X130549409Y-83721523D01*
X132600000Y-83721523D01*
X132600000Y-84278477D01*
X132813137Y-84793037D01*
X133206963Y-85186863D01*
X133721523Y-85400000D01*
X134278477Y-85400000D01*
X134793037Y-85186863D01*
X135186863Y-84793037D01*
X135218676Y-84716231D01*
X138540342Y-84716231D01*
X138579132Y-84855157D01*
X138749859Y-85128226D01*
X139012089Y-85315174D01*
X139325900Y-85387540D01*
X139475900Y-85387540D01*
X139475900Y-84587540D01*
X139525900Y-84587540D01*
X139525900Y-85387540D01*
X139675900Y-85387540D01*
X139989711Y-85315174D01*
X140251941Y-85128226D01*
X140422668Y-84855157D01*
X140461458Y-84716231D01*
X143540342Y-84716231D01*
X143579132Y-84855157D01*
X143749859Y-85128226D01*
X144012089Y-85315174D01*
X144325900Y-85387540D01*
X144475900Y-85387540D01*
X144475900Y-84587540D01*
X144525900Y-84587540D01*
X144525900Y-85387540D01*
X144675900Y-85387540D01*
X144989711Y-85315174D01*
X145251941Y-85128226D01*
X145422668Y-84855157D01*
X145461458Y-84716231D01*
X145387976Y-84587540D01*
X144525900Y-84587540D01*
X144475900Y-84587540D01*
X143613824Y-84587540D01*
X143540342Y-84716231D01*
X140461458Y-84716231D01*
X140387976Y-84587540D01*
X139525900Y-84587540D01*
X139475900Y-84587540D01*
X138613824Y-84587540D01*
X138540342Y-84716231D01*
X135218676Y-84716231D01*
X135345998Y-84408849D01*
X138540342Y-84408849D01*
X138613824Y-84537540D01*
X139475900Y-84537540D01*
X139475900Y-83737540D01*
X139525900Y-83737540D01*
X139525900Y-84537540D01*
X140387976Y-84537540D01*
X140461458Y-84408849D01*
X143540342Y-84408849D01*
X143613824Y-84537540D01*
X144475900Y-84537540D01*
X144475900Y-83737540D01*
X144525900Y-83737540D01*
X144525900Y-84537540D01*
X145387976Y-84537540D01*
X145420458Y-84480653D01*
X161800000Y-84480653D01*
X161800000Y-84719347D01*
X161891344Y-84939873D01*
X162060127Y-85108656D01*
X162280653Y-85200000D01*
X162519347Y-85200000D01*
X162739873Y-85108656D01*
X162908656Y-84939873D01*
X163000000Y-84719347D01*
X163000000Y-84480653D01*
X162908656Y-84260127D01*
X162739873Y-84091344D01*
X162519347Y-84000000D01*
X162280653Y-84000000D01*
X162060127Y-84091344D01*
X161891344Y-84260127D01*
X161800000Y-84480653D01*
X145420458Y-84480653D01*
X145461458Y-84408849D01*
X145422668Y-84269923D01*
X145251941Y-83996854D01*
X144989711Y-83809906D01*
X144675900Y-83737540D01*
X144525900Y-83737540D01*
X144475900Y-83737540D01*
X144325900Y-83737540D01*
X144012089Y-83809906D01*
X143749859Y-83996854D01*
X143579132Y-84269923D01*
X143540342Y-84408849D01*
X140461458Y-84408849D01*
X140422668Y-84269923D01*
X140251941Y-83996854D01*
X139989711Y-83809906D01*
X139675900Y-83737540D01*
X139525900Y-83737540D01*
X139475900Y-83737540D01*
X139325900Y-83737540D01*
X139012089Y-83809906D01*
X138749859Y-83996854D01*
X138579132Y-84269923D01*
X138540342Y-84408849D01*
X135345998Y-84408849D01*
X135400000Y-84278477D01*
X135400000Y-83721523D01*
X135186863Y-83206963D01*
X135164314Y-83184414D01*
X152696239Y-83184414D01*
X152696239Y-83423108D01*
X152787583Y-83643634D01*
X152956366Y-83812417D01*
X153176892Y-83903761D01*
X153415586Y-83903761D01*
X153636112Y-83812417D01*
X153804895Y-83643634D01*
X153869609Y-83487399D01*
X153891344Y-83539873D01*
X154060127Y-83708656D01*
X154280653Y-83800000D01*
X154519347Y-83800000D01*
X154739873Y-83708656D01*
X154767876Y-83680653D01*
X158000000Y-83680653D01*
X158000000Y-83919347D01*
X158091344Y-84139873D01*
X158260127Y-84308656D01*
X158480653Y-84400000D01*
X158719347Y-84400000D01*
X158939873Y-84308656D01*
X159108656Y-84139873D01*
X159200000Y-83919347D01*
X159200000Y-83721523D01*
X174600000Y-83721523D01*
X174600000Y-84278477D01*
X174813137Y-84793037D01*
X175206963Y-85186863D01*
X175721523Y-85400000D01*
X176278477Y-85400000D01*
X176793037Y-85186863D01*
X177186863Y-84793037D01*
X177400000Y-84278477D01*
X177400000Y-83721523D01*
X177186863Y-83206963D01*
X176793037Y-82813137D01*
X176278477Y-82600000D01*
X175721523Y-82600000D01*
X175206963Y-82813137D01*
X174813137Y-83206963D01*
X174600000Y-83721523D01*
X159200000Y-83721523D01*
X159200000Y-83680653D01*
X159108656Y-83460127D01*
X158939873Y-83291344D01*
X158719347Y-83200000D01*
X158480653Y-83200000D01*
X158260127Y-83291344D01*
X158091344Y-83460127D01*
X158000000Y-83680653D01*
X154767876Y-83680653D01*
X154908656Y-83539873D01*
X155000000Y-83319347D01*
X155000000Y-83080653D01*
X154908656Y-82860127D01*
X154739873Y-82691344D01*
X154519347Y-82600000D01*
X154280653Y-82600000D01*
X154060127Y-82691344D01*
X153891344Y-82860127D01*
X153826630Y-83016362D01*
X153804895Y-82963888D01*
X153636112Y-82795105D01*
X153415586Y-82703761D01*
X153176892Y-82703761D01*
X152956366Y-82795105D01*
X152787583Y-82963888D01*
X152696239Y-83184414D01*
X135164314Y-83184414D01*
X134793037Y-82813137D01*
X134278477Y-82600000D01*
X133721523Y-82600000D01*
X133206963Y-82813137D01*
X132813137Y-83206963D01*
X132600000Y-83721523D01*
X130549409Y-83721523D01*
X130642942Y-83379626D01*
X130998749Y-82633663D01*
X131481026Y-81962504D01*
X131558382Y-81887540D01*
X137650900Y-81887540D01*
X137650900Y-82162540D01*
X137725169Y-82485918D01*
X137917536Y-82756259D01*
X138198715Y-82932406D01*
X138343296Y-82972801D01*
X138475900Y-82899630D01*
X138475900Y-81887540D01*
X138525900Y-81887540D01*
X138525900Y-82899630D01*
X138658504Y-82972801D01*
X138803085Y-82932406D01*
X139084264Y-82756259D01*
X139276631Y-82485918D01*
X139350900Y-82162540D01*
X139350900Y-81887540D01*
X144650900Y-81887540D01*
X144650900Y-82162540D01*
X144725169Y-82485918D01*
X144917536Y-82756259D01*
X145198715Y-82932406D01*
X145343296Y-82972801D01*
X145475900Y-82899630D01*
X145475900Y-81887540D01*
X145525900Y-81887540D01*
X145525900Y-82899630D01*
X145658504Y-82972801D01*
X145803085Y-82932406D01*
X146084264Y-82756259D01*
X146276631Y-82485918D01*
X146350900Y-82162540D01*
X146350900Y-81887540D01*
X145525900Y-81887540D01*
X145475900Y-81887540D01*
X144650900Y-81887540D01*
X139350900Y-81887540D01*
X138525900Y-81887540D01*
X138475900Y-81887540D01*
X137650900Y-81887540D01*
X131558382Y-81887540D01*
X131893755Y-81562540D01*
X137650900Y-81562540D01*
X137650900Y-81837540D01*
X138475900Y-81837540D01*
X138475900Y-80825450D01*
X138525900Y-80825450D01*
X138525900Y-81837540D01*
X139350900Y-81837540D01*
X139350900Y-81562540D01*
X144650900Y-81562540D01*
X144650900Y-81837540D01*
X145475900Y-81837540D01*
X145475900Y-80825450D01*
X145525900Y-80825450D01*
X145525900Y-81837540D01*
X146350900Y-81837540D01*
X146350900Y-81741414D01*
X161600000Y-81741414D01*
X161600000Y-82258586D01*
X161797913Y-82736391D01*
X162163609Y-83102087D01*
X162641414Y-83300000D01*
X163158586Y-83300000D01*
X163636391Y-83102087D01*
X164002087Y-82736391D01*
X164166479Y-82339514D01*
X164237017Y-82509809D01*
X164490191Y-82762983D01*
X164820979Y-82900000D01*
X165179021Y-82900000D01*
X165509809Y-82762983D01*
X165762983Y-82509809D01*
X165900000Y-82179021D01*
X165900000Y-81820979D01*
X166100000Y-81820979D01*
X166100000Y-82179021D01*
X166237017Y-82509809D01*
X166490191Y-82762983D01*
X166820979Y-82900000D01*
X167179021Y-82900000D01*
X167509809Y-82762983D01*
X167762983Y-82509809D01*
X167900000Y-82179021D01*
X167900000Y-81820979D01*
X168100000Y-81820979D01*
X168100000Y-82179021D01*
X168237017Y-82509809D01*
X168490191Y-82762983D01*
X168820979Y-82900000D01*
X169179021Y-82900000D01*
X169509809Y-82762983D01*
X169762983Y-82509809D01*
X169833521Y-82339514D01*
X169997913Y-82736391D01*
X170363609Y-83102087D01*
X170841414Y-83300000D01*
X171358586Y-83300000D01*
X171836391Y-83102087D01*
X172202087Y-82736391D01*
X172400000Y-82258586D01*
X172400000Y-81741414D01*
X172202087Y-81263609D01*
X171836391Y-80897913D01*
X171358586Y-80700000D01*
X170841414Y-80700000D01*
X170363609Y-80897913D01*
X169997913Y-81263609D01*
X169833521Y-81660486D01*
X169762983Y-81490191D01*
X169509809Y-81237017D01*
X169179021Y-81100000D01*
X168820979Y-81100000D01*
X168490191Y-81237017D01*
X168237017Y-81490191D01*
X168100000Y-81820979D01*
X167900000Y-81820979D01*
X167762983Y-81490191D01*
X167509809Y-81237017D01*
X167179021Y-81100000D01*
X166820979Y-81100000D01*
X166490191Y-81237017D01*
X166237017Y-81490191D01*
X166100000Y-81820979D01*
X165900000Y-81820979D01*
X165762983Y-81490191D01*
X165509809Y-81237017D01*
X165179021Y-81100000D01*
X164820979Y-81100000D01*
X164490191Y-81237017D01*
X164237017Y-81490191D01*
X164166479Y-81660486D01*
X164002087Y-81263609D01*
X163636391Y-80897913D01*
X163158586Y-80700000D01*
X162641414Y-80700000D01*
X162163609Y-80897913D01*
X161797913Y-81263609D01*
X161600000Y-81741414D01*
X146350900Y-81741414D01*
X146350900Y-81562540D01*
X146276631Y-81239162D01*
X146084264Y-80968821D01*
X145803085Y-80792674D01*
X145658504Y-80752279D01*
X145525900Y-80825450D01*
X145475900Y-80825450D01*
X145343296Y-80752279D01*
X145198715Y-80792674D01*
X144917536Y-80968821D01*
X144725169Y-81239162D01*
X144650900Y-81562540D01*
X139350900Y-81562540D01*
X139276631Y-81239162D01*
X139084264Y-80968821D01*
X138803085Y-80792674D01*
X138658504Y-80752279D01*
X138525900Y-80825450D01*
X138475900Y-80825450D01*
X138343296Y-80752279D01*
X138198715Y-80792674D01*
X137917536Y-80968821D01*
X137725169Y-81239162D01*
X137650900Y-81562540D01*
X131893755Y-81562540D01*
X132074537Y-81387351D01*
X132760514Y-80926394D01*
X133517286Y-80594194D01*
X134323608Y-80400613D01*
X135012833Y-80350000D01*
X174984417Y-80350000D01*
X175823196Y-80424859D01*
D18*
G36*
X162625000Y-99245563D02*
X162625000Y-99454421D01*
X162704927Y-99647380D01*
X162852612Y-99795065D01*
X163045571Y-99874992D01*
X163254429Y-99874992D01*
X163447388Y-99795065D01*
X163595073Y-99647380D01*
X163675000Y-99454421D01*
X163675000Y-99245563D01*
X163604350Y-99075000D01*
X167925000Y-99075000D01*
X167925000Y-99976779D01*
X167920705Y-99975000D01*
X167711847Y-99975000D01*
X167518888Y-100054927D01*
X167371203Y-100202612D01*
X167291276Y-100395571D01*
X167291276Y-100604429D01*
X167371203Y-100797388D01*
X167518888Y-100945073D01*
X167593579Y-100976011D01*
X167518888Y-101006950D01*
X167371203Y-101154635D01*
X167291276Y-101347594D01*
X167291276Y-101556452D01*
X167371203Y-101749411D01*
X167518888Y-101897096D01*
X167711847Y-101977023D01*
X167920705Y-101977023D01*
X167925000Y-101975244D01*
X167925000Y-111425000D01*
X156075000Y-111425000D01*
X156075000Y-106895571D01*
X159475000Y-106895571D01*
X159475000Y-107104429D01*
X159554927Y-107297388D01*
X159657539Y-107400000D01*
X159554927Y-107502612D01*
X159475000Y-107695571D01*
X159475000Y-107904429D01*
X159554927Y-108097388D01*
X159702612Y-108245073D01*
X159895571Y-108325000D01*
X160104429Y-108325000D01*
X160297388Y-108245073D01*
X160400000Y-108142461D01*
X160502612Y-108245073D01*
X160695571Y-108325000D01*
X160904429Y-108325000D01*
X161097388Y-108245073D01*
X161200000Y-108142461D01*
X161302612Y-108245073D01*
X161495571Y-108325000D01*
X161704429Y-108325000D01*
X161897388Y-108245073D01*
X162045073Y-108097388D01*
X162125000Y-107904429D01*
X162125000Y-107695571D01*
X162045073Y-107502612D01*
X161942945Y-107400484D01*
X162000484Y-107342945D01*
X162102612Y-107445073D01*
X162295571Y-107525000D01*
X162504429Y-107525000D01*
X162697388Y-107445073D01*
X162800485Y-107341977D01*
X162858024Y-107399516D01*
X162754927Y-107502612D01*
X162675000Y-107695571D01*
X162675000Y-107904429D01*
X162754927Y-108097388D01*
X162902612Y-108245073D01*
X163095571Y-108325000D01*
X163304429Y-108325000D01*
X163497388Y-108245073D01*
X163645073Y-108097388D01*
X163725000Y-107904429D01*
X163725000Y-107695571D01*
X163645073Y-107502612D01*
X163542945Y-107400484D01*
X163600000Y-107343429D01*
X163702612Y-107446041D01*
X163895571Y-107525968D01*
X164104429Y-107525968D01*
X164297388Y-107446041D01*
X164400484Y-107342945D01*
X164457095Y-107399556D01*
X164650054Y-107479483D01*
X164858912Y-107479483D01*
X165051871Y-107399556D01*
X165199556Y-107251871D01*
X165279483Y-107058912D01*
X165279483Y-106850054D01*
X165199556Y-106657095D01*
X165142461Y-106600000D01*
X165245073Y-106497388D01*
X165325000Y-106304429D01*
X165325000Y-106095571D01*
X165245073Y-105902612D01*
X165097388Y-105754927D01*
X164904429Y-105675000D01*
X164695571Y-105675000D01*
X164502612Y-105754927D01*
X164354927Y-105902612D01*
X164275000Y-106095571D01*
X164275000Y-106304429D01*
X164354927Y-106497388D01*
X164412022Y-106554483D01*
X164353999Y-106612506D01*
X164297388Y-106555895D01*
X164104429Y-106475968D01*
X163895571Y-106475968D01*
X163702612Y-106555895D01*
X163600969Y-106657539D01*
X163498356Y-106554926D01*
X163305397Y-106474999D01*
X163096539Y-106474999D01*
X162903580Y-106554926D01*
X162800484Y-106658023D01*
X162697388Y-106554927D01*
X162504429Y-106475000D01*
X162295571Y-106475000D01*
X162102612Y-106554927D01*
X161999517Y-106658023D01*
X161897388Y-106555894D01*
X161704429Y-106475967D01*
X161495571Y-106475967D01*
X161302612Y-106555894D01*
X161199999Y-106658507D01*
X161141977Y-106600485D01*
X161245073Y-106497388D01*
X161325000Y-106304429D01*
X161325000Y-106095571D01*
X161245073Y-105902612D01*
X161142945Y-105800484D01*
X161245073Y-105698355D01*
X161325000Y-105505396D01*
X161325000Y-105296538D01*
X161245073Y-105103579D01*
X161097388Y-104955894D01*
X160904429Y-104875967D01*
X160695571Y-104875967D01*
X160502612Y-104955894D01*
X160354927Y-105103579D01*
X160275000Y-105296538D01*
X160275000Y-105505396D01*
X160354927Y-105698355D01*
X160457056Y-105800484D01*
X160354927Y-105902612D01*
X160275000Y-106095571D01*
X160275000Y-106304429D01*
X160354927Y-106497388D01*
X160458023Y-106600484D01*
X160400484Y-106658023D01*
X160297388Y-106554927D01*
X160104429Y-106475000D01*
X159895571Y-106475000D01*
X159702612Y-106554927D01*
X159554927Y-106702612D01*
X159475000Y-106895571D01*
X156075000Y-106895571D01*
X156075000Y-106681318D01*
X156179397Y-106681318D01*
X156372356Y-106601391D01*
X156520041Y-106453706D01*
X156599968Y-106260747D01*
X156599968Y-106051889D01*
X156520041Y-105858930D01*
X156372356Y-105711245D01*
X156179397Y-105631318D01*
X156075000Y-105631318D01*
X156075000Y-105142482D01*
X156077591Y-105145073D01*
X156270550Y-105225000D01*
X156479408Y-105225000D01*
X156672367Y-105145073D01*
X156820052Y-104997388D01*
X156899979Y-104804429D01*
X156899979Y-104595571D01*
X156820052Y-104402612D01*
X156672367Y-104254927D01*
X156479408Y-104175000D01*
X156270550Y-104175000D01*
X156077591Y-104254927D01*
X156075000Y-104257518D01*
X156075000Y-103696539D01*
X160275000Y-103696539D01*
X160275000Y-103905397D01*
X160354927Y-104098356D01*
X160502612Y-104246041D01*
X160695571Y-104325968D01*
X160904429Y-104325968D01*
X161097388Y-104246041D01*
X161245073Y-104098356D01*
X161325000Y-103905397D01*
X161325000Y-103696539D01*
X161325000Y-103696538D01*
X161874999Y-103696538D01*
X161874999Y-103905396D01*
X161954926Y-104098355D01*
X162102611Y-104246040D01*
X162295570Y-104325967D01*
X162504428Y-104325967D01*
X162697387Y-104246040D01*
X162800483Y-104142944D01*
X162903069Y-104245530D01*
X163096028Y-104325457D01*
X163304886Y-104325457D01*
X163497845Y-104245530D01*
X163599973Y-104143402D01*
X163657540Y-104200969D01*
X163554928Y-104303580D01*
X163475001Y-104496539D01*
X163475001Y-104705397D01*
X163554928Y-104898356D01*
X163657532Y-105000960D01*
X163554924Y-105103568D01*
X163474997Y-105296527D01*
X163474997Y-105505385D01*
X163554924Y-105698344D01*
X163702609Y-105846029D01*
X163895568Y-105925956D01*
X164104426Y-105925956D01*
X164297385Y-105846029D01*
X164445070Y-105698344D01*
X164524997Y-105505385D01*
X164524997Y-105296527D01*
X164445070Y-105103568D01*
X164342466Y-105000964D01*
X164400485Y-104942946D01*
X164502612Y-105045073D01*
X164695571Y-105125000D01*
X164904429Y-105125000D01*
X165097388Y-105045073D01*
X165245073Y-104897388D01*
X165325000Y-104704429D01*
X165325000Y-104495571D01*
X165245073Y-104302612D01*
X165097388Y-104154927D01*
X164904429Y-104075000D01*
X164695571Y-104075000D01*
X164502612Y-104154927D01*
X164399517Y-104258023D01*
X164342462Y-104200968D01*
X164445073Y-104098356D01*
X164525000Y-103905397D01*
X164525000Y-103696539D01*
X164445073Y-103503580D01*
X164297388Y-103355895D01*
X164104429Y-103275968D01*
X163895571Y-103275968D01*
X163702612Y-103355895D01*
X163600484Y-103458023D01*
X163497845Y-103355384D01*
X163304886Y-103275457D01*
X163096028Y-103275457D01*
X162903069Y-103355384D01*
X162799973Y-103458480D01*
X162697387Y-103355894D01*
X162504428Y-103275967D01*
X162295570Y-103275967D01*
X162102611Y-103355894D01*
X161954926Y-103503579D01*
X161874999Y-103696538D01*
X161325000Y-103696538D01*
X161245073Y-103503580D01*
X161097388Y-103355895D01*
X160904429Y-103275968D01*
X160695571Y-103275968D01*
X160502612Y-103355895D01*
X160354927Y-103503580D01*
X160275000Y-103696539D01*
X156075000Y-103696539D01*
X156075000Y-102895571D01*
X157025022Y-102895571D01*
X157025022Y-103104429D01*
X157104949Y-103297388D01*
X157252634Y-103445073D01*
X157445593Y-103525000D01*
X157654451Y-103525000D01*
X157847410Y-103445073D01*
X157995095Y-103297388D01*
X158075022Y-103104429D01*
X158075022Y-102895571D01*
X157995095Y-102702612D01*
X157847410Y-102554927D01*
X157654451Y-102475000D01*
X157445593Y-102475000D01*
X157252634Y-102554927D01*
X157104949Y-102702612D01*
X157025022Y-102895571D01*
X156075000Y-102895571D01*
X156075000Y-102096538D01*
X159474999Y-102096538D01*
X159474999Y-102305396D01*
X159554926Y-102498355D01*
X159702611Y-102646040D01*
X159895570Y-102725967D01*
X160104428Y-102725967D01*
X160297387Y-102646040D01*
X160445072Y-102498355D01*
X160524999Y-102305396D01*
X160524999Y-102096538D01*
X160524399Y-102095088D01*
X162675483Y-102095088D01*
X162675483Y-102303946D01*
X162755410Y-102496905D01*
X162903095Y-102644590D01*
X163096054Y-102724517D01*
X163304912Y-102724517D01*
X163497871Y-102644590D01*
X163600009Y-102542452D01*
X163702627Y-102645070D01*
X163895586Y-102724997D01*
X164104444Y-102724997D01*
X164297403Y-102645070D01*
X164445088Y-102497385D01*
X164501238Y-102361827D01*
X166766266Y-102361827D01*
X166766266Y-102570685D01*
X166846193Y-102763644D01*
X166993878Y-102911329D01*
X167186837Y-102991256D01*
X167395695Y-102991256D01*
X167588654Y-102911329D01*
X167736339Y-102763644D01*
X167816266Y-102570685D01*
X167816266Y-102361827D01*
X167736339Y-102168868D01*
X167588654Y-102021183D01*
X167395695Y-101941256D01*
X167186837Y-101941256D01*
X166993878Y-102021183D01*
X166846193Y-102168868D01*
X166766266Y-102361827D01*
X164501238Y-102361827D01*
X164525015Y-102304426D01*
X164525015Y-102095568D01*
X164445088Y-101902609D01*
X164297403Y-101754924D01*
X164104444Y-101674997D01*
X163895586Y-101674997D01*
X163702627Y-101754924D01*
X163600489Y-101857062D01*
X163497871Y-101754444D01*
X163304912Y-101674517D01*
X163096054Y-101674517D01*
X162903095Y-101754444D01*
X162755410Y-101902129D01*
X162675483Y-102095088D01*
X160524399Y-102095088D01*
X160445072Y-101903579D01*
X160297387Y-101755894D01*
X160104428Y-101675967D01*
X159895570Y-101675967D01*
X159702611Y-101755894D01*
X159554926Y-101903579D01*
X159474999Y-102096538D01*
X156075000Y-102096538D01*
X156075000Y-101916479D01*
X156095571Y-101925000D01*
X156304429Y-101925000D01*
X156497388Y-101845073D01*
X156645073Y-101697388D01*
X156725000Y-101504429D01*
X156725000Y-101296054D01*
X165874517Y-101296054D01*
X165874517Y-101504912D01*
X165954444Y-101697871D01*
X166102129Y-101845556D01*
X166295088Y-101925483D01*
X166503946Y-101925483D01*
X166696905Y-101845556D01*
X166844590Y-101697871D01*
X166924517Y-101504912D01*
X166924517Y-101296054D01*
X166844590Y-101103095D01*
X166696905Y-100955410D01*
X166503946Y-100875483D01*
X166295088Y-100875483D01*
X166102129Y-100955410D01*
X165954444Y-101103095D01*
X165874517Y-101296054D01*
X156725000Y-101296054D01*
X156725000Y-101295571D01*
X156645073Y-101102612D01*
X156497388Y-100954927D01*
X156304429Y-100875000D01*
X156095571Y-100875000D01*
X156075000Y-100883521D01*
X156075000Y-100287483D01*
X165273963Y-100287483D01*
X165273963Y-100496341D01*
X165353890Y-100689300D01*
X165501575Y-100836985D01*
X165694534Y-100916912D01*
X165903392Y-100916912D01*
X166096351Y-100836985D01*
X166206676Y-100726660D01*
X166248447Y-100768431D01*
X166441406Y-100848358D01*
X166650264Y-100848358D01*
X166843223Y-100768431D01*
X166990908Y-100620746D01*
X167070835Y-100427787D01*
X167070835Y-100218929D01*
X166990908Y-100025970D01*
X166843223Y-99878285D01*
X166650264Y-99798358D01*
X166441406Y-99798358D01*
X166248447Y-99878285D01*
X166138122Y-99988610D01*
X166096351Y-99946839D01*
X165903392Y-99866912D01*
X165694534Y-99866912D01*
X165501575Y-99946839D01*
X165353890Y-100094524D01*
X165273963Y-100287483D01*
X156075000Y-100287483D01*
X156075000Y-99075000D01*
X162695650Y-99075000D01*
X162625000Y-99245563D01*
X162625000Y-99245563D01*
G37*
X162625000Y-99245563D02*
X162625000Y-99454421D01*
X162704927Y-99647380D01*
X162852612Y-99795065D01*
X163045571Y-99874992D01*
X163254429Y-99874992D01*
X163447388Y-99795065D01*
X163595073Y-99647380D01*
X163675000Y-99454421D01*
X163675000Y-99245563D01*
X163604350Y-99075000D01*
X167925000Y-99075000D01*
X167925000Y-99976779D01*
X167920705Y-99975000D01*
X167711847Y-99975000D01*
X167518888Y-100054927D01*
X167371203Y-100202612D01*
X167291276Y-100395571D01*
X167291276Y-100604429D01*
X167371203Y-100797388D01*
X167518888Y-100945073D01*
X167593579Y-100976011D01*
X167518888Y-101006950D01*
X167371203Y-101154635D01*
X167291276Y-101347594D01*
X167291276Y-101556452D01*
X167371203Y-101749411D01*
X167518888Y-101897096D01*
X167711847Y-101977023D01*
X167920705Y-101977023D01*
X167925000Y-101975244D01*
X167925000Y-111425000D01*
X156075000Y-111425000D01*
X156075000Y-106895571D01*
X159475000Y-106895571D01*
X159475000Y-107104429D01*
X159554927Y-107297388D01*
X159657539Y-107400000D01*
X159554927Y-107502612D01*
X159475000Y-107695571D01*
X159475000Y-107904429D01*
X159554927Y-108097388D01*
X159702612Y-108245073D01*
X159895571Y-108325000D01*
X160104429Y-108325000D01*
X160297388Y-108245073D01*
X160400000Y-108142461D01*
X160502612Y-108245073D01*
X160695571Y-108325000D01*
X160904429Y-108325000D01*
X161097388Y-108245073D01*
X161200000Y-108142461D01*
X161302612Y-108245073D01*
X161495571Y-108325000D01*
X161704429Y-108325000D01*
X161897388Y-108245073D01*
X162045073Y-108097388D01*
X162125000Y-107904429D01*
X162125000Y-107695571D01*
X162045073Y-107502612D01*
X161942945Y-107400484D01*
X162000484Y-107342945D01*
X162102612Y-107445073D01*
X162295571Y-107525000D01*
X162504429Y-107525000D01*
X162697388Y-107445073D01*
X162800485Y-107341977D01*
X162858024Y-107399516D01*
X162754927Y-107502612D01*
X162675000Y-107695571D01*
X162675000Y-107904429D01*
X162754927Y-108097388D01*
X162902612Y-108245073D01*
X163095571Y-108325000D01*
X163304429Y-108325000D01*
X163497388Y-108245073D01*
X163645073Y-108097388D01*
X163725000Y-107904429D01*
X163725000Y-107695571D01*
X163645073Y-107502612D01*
X163542945Y-107400484D01*
X163600000Y-107343429D01*
X163702612Y-107446041D01*
X163895571Y-107525968D01*
X164104429Y-107525968D01*
X164297388Y-107446041D01*
X164400484Y-107342945D01*
X164457095Y-107399556D01*
X164650054Y-107479483D01*
X164858912Y-107479483D01*
X165051871Y-107399556D01*
X165199556Y-107251871D01*
X165279483Y-107058912D01*
X165279483Y-106850054D01*
X165199556Y-106657095D01*
X165142461Y-106600000D01*
X165245073Y-106497388D01*
X165325000Y-106304429D01*
X165325000Y-106095571D01*
X165245073Y-105902612D01*
X165097388Y-105754927D01*
X164904429Y-105675000D01*
X164695571Y-105675000D01*
X164502612Y-105754927D01*
X164354927Y-105902612D01*
X164275000Y-106095571D01*
X164275000Y-106304429D01*
X164354927Y-106497388D01*
X164412022Y-106554483D01*
X164353999Y-106612506D01*
X164297388Y-106555895D01*
X164104429Y-106475968D01*
X163895571Y-106475968D01*
X163702612Y-106555895D01*
X163600969Y-106657539D01*
X163498356Y-106554926D01*
X163305397Y-106474999D01*
X163096539Y-106474999D01*
X162903580Y-106554926D01*
X162800484Y-106658023D01*
X162697388Y-106554927D01*
X162504429Y-106475000D01*
X162295571Y-106475000D01*
X162102612Y-106554927D01*
X161999517Y-106658023D01*
X161897388Y-106555894D01*
X161704429Y-106475967D01*
X161495571Y-106475967D01*
X161302612Y-106555894D01*
X161199999Y-106658507D01*
X161141977Y-106600485D01*
X161245073Y-106497388D01*
X161325000Y-106304429D01*
X161325000Y-106095571D01*
X161245073Y-105902612D01*
X161142945Y-105800484D01*
X161245073Y-105698355D01*
X161325000Y-105505396D01*
X161325000Y-105296538D01*
X161245073Y-105103579D01*
X161097388Y-104955894D01*
X160904429Y-104875967D01*
X160695571Y-104875967D01*
X160502612Y-104955894D01*
X160354927Y-105103579D01*
X160275000Y-105296538D01*
X160275000Y-105505396D01*
X160354927Y-105698355D01*
X160457056Y-105800484D01*
X160354927Y-105902612D01*
X160275000Y-106095571D01*
X160275000Y-106304429D01*
X160354927Y-106497388D01*
X160458023Y-106600484D01*
X160400484Y-106658023D01*
X160297388Y-106554927D01*
X160104429Y-106475000D01*
X159895571Y-106475000D01*
X159702612Y-106554927D01*
X159554927Y-106702612D01*
X159475000Y-106895571D01*
X156075000Y-106895571D01*
X156075000Y-106681318D01*
X156179397Y-106681318D01*
X156372356Y-106601391D01*
X156520041Y-106453706D01*
X156599968Y-106260747D01*
X156599968Y-106051889D01*
X156520041Y-105858930D01*
X156372356Y-105711245D01*
X156179397Y-105631318D01*
X156075000Y-105631318D01*
X156075000Y-105142482D01*
X156077591Y-105145073D01*
X156270550Y-105225000D01*
X156479408Y-105225000D01*
X156672367Y-105145073D01*
X156820052Y-104997388D01*
X156899979Y-104804429D01*
X156899979Y-104595571D01*
X156820052Y-104402612D01*
X156672367Y-104254927D01*
X156479408Y-104175000D01*
X156270550Y-104175000D01*
X156077591Y-104254927D01*
X156075000Y-104257518D01*
X156075000Y-103696539D01*
X160275000Y-103696539D01*
X160275000Y-103905397D01*
X160354927Y-104098356D01*
X160502612Y-104246041D01*
X160695571Y-104325968D01*
X160904429Y-104325968D01*
X161097388Y-104246041D01*
X161245073Y-104098356D01*
X161325000Y-103905397D01*
X161325000Y-103696539D01*
X161325000Y-103696538D01*
X161874999Y-103696538D01*
X161874999Y-103905396D01*
X161954926Y-104098355D01*
X162102611Y-104246040D01*
X162295570Y-104325967D01*
X162504428Y-104325967D01*
X162697387Y-104246040D01*
X162800483Y-104142944D01*
X162903069Y-104245530D01*
X163096028Y-104325457D01*
X163304886Y-104325457D01*
X163497845Y-104245530D01*
X163599973Y-104143402D01*
X163657540Y-104200969D01*
X163554928Y-104303580D01*
X163475001Y-104496539D01*
X163475001Y-104705397D01*
X163554928Y-104898356D01*
X163657532Y-105000960D01*
X163554924Y-105103568D01*
X163474997Y-105296527D01*
X163474997Y-105505385D01*
X163554924Y-105698344D01*
X163702609Y-105846029D01*
X163895568Y-105925956D01*
X164104426Y-105925956D01*
X164297385Y-105846029D01*
X164445070Y-105698344D01*
X164524997Y-105505385D01*
X164524997Y-105296527D01*
X164445070Y-105103568D01*
X164342466Y-105000964D01*
X164400485Y-104942946D01*
X164502612Y-105045073D01*
X164695571Y-105125000D01*
X164904429Y-105125000D01*
X165097388Y-105045073D01*
X165245073Y-104897388D01*
X165325000Y-104704429D01*
X165325000Y-104495571D01*
X165245073Y-104302612D01*
X165097388Y-104154927D01*
X164904429Y-104075000D01*
X164695571Y-104075000D01*
X164502612Y-104154927D01*
X164399517Y-104258023D01*
X164342462Y-104200968D01*
X164445073Y-104098356D01*
X164525000Y-103905397D01*
X164525000Y-103696539D01*
X164445073Y-103503580D01*
X164297388Y-103355895D01*
X164104429Y-103275968D01*
X163895571Y-103275968D01*
X163702612Y-103355895D01*
X163600484Y-103458023D01*
X163497845Y-103355384D01*
X163304886Y-103275457D01*
X163096028Y-103275457D01*
X162903069Y-103355384D01*
X162799973Y-103458480D01*
X162697387Y-103355894D01*
X162504428Y-103275967D01*
X162295570Y-103275967D01*
X162102611Y-103355894D01*
X161954926Y-103503579D01*
X161874999Y-103696538D01*
X161325000Y-103696538D01*
X161245073Y-103503580D01*
X161097388Y-103355895D01*
X160904429Y-103275968D01*
X160695571Y-103275968D01*
X160502612Y-103355895D01*
X160354927Y-103503580D01*
X160275000Y-103696539D01*
X156075000Y-103696539D01*
X156075000Y-102895571D01*
X157025022Y-102895571D01*
X157025022Y-103104429D01*
X157104949Y-103297388D01*
X157252634Y-103445073D01*
X157445593Y-103525000D01*
X157654451Y-103525000D01*
X157847410Y-103445073D01*
X157995095Y-103297388D01*
X158075022Y-103104429D01*
X158075022Y-102895571D01*
X157995095Y-102702612D01*
X157847410Y-102554927D01*
X157654451Y-102475000D01*
X157445593Y-102475000D01*
X157252634Y-102554927D01*
X157104949Y-102702612D01*
X157025022Y-102895571D01*
X156075000Y-102895571D01*
X156075000Y-102096538D01*
X159474999Y-102096538D01*
X159474999Y-102305396D01*
X159554926Y-102498355D01*
X159702611Y-102646040D01*
X159895570Y-102725967D01*
X160104428Y-102725967D01*
X160297387Y-102646040D01*
X160445072Y-102498355D01*
X160524999Y-102305396D01*
X160524999Y-102096538D01*
X160524399Y-102095088D01*
X162675483Y-102095088D01*
X162675483Y-102303946D01*
X162755410Y-102496905D01*
X162903095Y-102644590D01*
X163096054Y-102724517D01*
X163304912Y-102724517D01*
X163497871Y-102644590D01*
X163600009Y-102542452D01*
X163702627Y-102645070D01*
X163895586Y-102724997D01*
X164104444Y-102724997D01*
X164297403Y-102645070D01*
X164445088Y-102497385D01*
X164501238Y-102361827D01*
X166766266Y-102361827D01*
X166766266Y-102570685D01*
X166846193Y-102763644D01*
X166993878Y-102911329D01*
X167186837Y-102991256D01*
X167395695Y-102991256D01*
X167588654Y-102911329D01*
X167736339Y-102763644D01*
X167816266Y-102570685D01*
X167816266Y-102361827D01*
X167736339Y-102168868D01*
X167588654Y-102021183D01*
X167395695Y-101941256D01*
X167186837Y-101941256D01*
X166993878Y-102021183D01*
X166846193Y-102168868D01*
X166766266Y-102361827D01*
X164501238Y-102361827D01*
X164525015Y-102304426D01*
X164525015Y-102095568D01*
X164445088Y-101902609D01*
X164297403Y-101754924D01*
X164104444Y-101674997D01*
X163895586Y-101674997D01*
X163702627Y-101754924D01*
X163600489Y-101857062D01*
X163497871Y-101754444D01*
X163304912Y-101674517D01*
X163096054Y-101674517D01*
X162903095Y-101754444D01*
X162755410Y-101902129D01*
X162675483Y-102095088D01*
X160524399Y-102095088D01*
X160445072Y-101903579D01*
X160297387Y-101755894D01*
X160104428Y-101675967D01*
X159895570Y-101675967D01*
X159702611Y-101755894D01*
X159554926Y-101903579D01*
X159474999Y-102096538D01*
X156075000Y-102096538D01*
X156075000Y-101916479D01*
X156095571Y-101925000D01*
X156304429Y-101925000D01*
X156497388Y-101845073D01*
X156645073Y-101697388D01*
X156725000Y-101504429D01*
X156725000Y-101296054D01*
X165874517Y-101296054D01*
X165874517Y-101504912D01*
X165954444Y-101697871D01*
X166102129Y-101845556D01*
X166295088Y-101925483D01*
X166503946Y-101925483D01*
X166696905Y-101845556D01*
X166844590Y-101697871D01*
X166924517Y-101504912D01*
X166924517Y-101296054D01*
X166844590Y-101103095D01*
X166696905Y-100955410D01*
X166503946Y-100875483D01*
X166295088Y-100875483D01*
X166102129Y-100955410D01*
X165954444Y-101103095D01*
X165874517Y-101296054D01*
X156725000Y-101296054D01*
X156725000Y-101295571D01*
X156645073Y-101102612D01*
X156497388Y-100954927D01*
X156304429Y-100875000D01*
X156095571Y-100875000D01*
X156075000Y-100883521D01*
X156075000Y-100287483D01*
X165273963Y-100287483D01*
X165273963Y-100496341D01*
X165353890Y-100689300D01*
X165501575Y-100836985D01*
X165694534Y-100916912D01*
X165903392Y-100916912D01*
X166096351Y-100836985D01*
X166206676Y-100726660D01*
X166248447Y-100768431D01*
X166441406Y-100848358D01*
X166650264Y-100848358D01*
X166843223Y-100768431D01*
X166990908Y-100620746D01*
X167070835Y-100427787D01*
X167070835Y-100218929D01*
X166990908Y-100025970D01*
X166843223Y-99878285D01*
X166650264Y-99798358D01*
X166441406Y-99798358D01*
X166248447Y-99878285D01*
X166138122Y-99988610D01*
X166096351Y-99946839D01*
X165903392Y-99866912D01*
X165694534Y-99866912D01*
X165501575Y-99946839D01*
X165353890Y-100094524D01*
X165273963Y-100287483D01*
X156075000Y-100287483D01*
X156075000Y-99075000D01*
X162695650Y-99075000D01*
X162625000Y-99245563D01*
G04 #@! TD*
M02*
