M48
;DRILL file {KiCad 5.0.2-bee76a0~70~ubuntu18.04.1} date Fri 30 Nov 2018 19:25:22 GMT
;FORMAT={-:-/ absolute / inch / decimal}
FMAT,2
INCH,TZ
T1C0.0118
T2C0.0197
T3C0.0217
T4C0.0315
T5C0.0394
T6C0.0591
T7C0.0866
%
G90
G05
T1
X5.1663Y-4.9006
X5.1683Y-3.3356
X5.2598Y-4.1417
X5.2608Y-4.0945
X5.2835Y-4.2756
X5.3031Y-3.748
X5.314Y-3.1919
X5.3278Y-3.8819
X5.3356Y-3.7156
X5.3406Y-4.3524
X5.3543Y-5.0394
X5.374Y-4.065
X5.3819Y-3.7126
X5.3937Y-3.7441
X5.3937Y-5.0591
X5.395Y-3.441
X5.4016Y-4.5276
X5.4055Y-3.7795
X5.4134Y-3.5512
X5.4413Y-3.9645
X5.4528Y-3.5285
X5.4557Y-4.0472
X5.4823Y-3.9384
X5.4859Y-4.2818
X5.4921Y-4.1732
X5.4935Y-4.0965
X5.501Y-3.8701
X5.5315Y-4.3701
X5.5472Y-3.8965
X5.5748Y-3.8425
X5.5807Y-4.5157
X5.5906Y-4.2047
X5.6211Y-4.5112
X5.6457Y-4.5276
X5.6496Y-3.8976
X5.6496Y-4.3701
X5.6545Y-4.5689
X5.6575Y-3.4931
X5.658Y-3.3937
X5.6614Y-4.1285
X5.6866Y-4.0384
X5.6883Y-4.1285
X5.69Y-4.2224
X5.7087Y-4.5276
X5.7165Y-4.1285
X5.7268Y-3.5315
X5.7598Y-3.811
X5.7674Y-3.4856
X5.7677Y-4.3701
X5.7756Y-3.6339
X5.7831Y-3.5925
X5.7913Y-3.9104
X5.7975Y-3.5065
X5.8031Y-4.7293
X5.8494Y-3.2746
X5.8583Y-4.3583
X5.8661Y-3.9764
X5.8661Y-4.2835
X5.8701Y-3.8898
X5.8711Y-5.065
X5.9077Y-3.7459
X5.9094Y-4.2028
X5.9094Y-4.2303
X5.9154Y-4.0551
X5.9154Y-4.0157
X5.9173Y-4.3583
X5.9249Y-3.8691
X5.9252Y-4.1142
X5.9252Y-4.1535
X6.0079Y-4.1535
X6.0277Y-3.7175
X6.0325Y-4.3467
X6.0353Y-3.2797
X6.0659Y-3.9371
X6.0709Y-4.8819
X6.0741Y-4.5938
X6.0787Y-3.2756
X6.0787Y-4.9291
X6.0864Y-4.3148
X6.0866Y-3.7418
X6.0886Y-3.8238
X6.0896Y-3.6604
X6.0955Y-3.3858
X6.1102Y-4.9291
X6.1212Y-3.8207
X6.1339Y-3.3819
X6.1398Y-4.9291
X6.1447Y-4.1794
X6.1496Y-3.9921
X6.1565Y-4.122
X6.1732Y-3.2756
X6.1732Y-4.9291
X6.1929Y-3.6339
X6.1938Y-3.6791
X6.2028Y-4.0551
X6.2047Y-4.9291
X6.2165Y-3.7136
X6.2165Y-4.4803
X6.2362Y-4.9291
X6.2441Y-3.2992
X6.2498Y-3.6407
X6.2677Y-4.9291
X6.2793Y-3.6425
X6.2811Y-3.6928
X6.2865Y-3.7943
X6.2992Y-4.0237
X6.2992Y-4.2126
X6.2992Y-4.2441
X6.2992Y-4.9291
X6.3071Y-5.0591
X6.31Y-3.6987
X6.3307Y-4.2126
X6.3307Y-4.0867
X6.3307Y-4.1496
X6.3307Y-4.1811
X6.3307Y-4.2441
X6.3307Y-4.9291
X6.3435Y-3.4991
X6.3465Y-3.2215
X6.3563Y-4.4252
X6.3622Y-4.1181
X6.3622Y-4.1496
X6.3622Y-4.2126
X6.3622Y-4.2441
X6.3661Y-3.9173
X6.3937Y-4.0867
X6.3937Y-3.3307
X6.3937Y-4.1181
X6.3937Y-4.1496
X6.3937Y-4.1811
X6.3937Y-4.2126
X6.3947Y-4.5984
X6.3976Y-3.4843
X6.4016Y-4.4252
X6.406Y-3.7097
X6.4232Y-3.9114
X6.4252Y-4.1811
X6.4252Y-4.1496
X6.4252Y-4.2441
X6.4252Y-4.9291
X6.4252Y-4.0866
X6.4252Y-4.0236
X6.4252Y-4.2126
X6.437Y-3.7441
X6.437Y-3.7992
X6.4557Y-5.0591
X6.4567Y-4.1496
X6.4567Y-4.0867
X6.4567Y-4.2126
X6.4567Y-4.8976
X6.4567Y-4.1181
X6.4567Y-4.0236
X6.4685Y-3.8661
X6.4864Y-4.2108
X6.4882Y-4.1181
X6.4882Y-4.1811
X6.5118Y-3.4252
X6.5197Y-3.5906
X6.5275Y-3.9524
X6.5388Y-3.8475
X6.5512Y-3.9921
X6.5569Y-3.9497
X6.5669Y-3.7087
X6.5681Y-3.8515
X6.5863Y-4.0341
X6.5906Y-3.8268
X6.5945Y-3.3661
X6.5984Y-3.7244
X6.5991Y-4.207
X6.6069Y-3.9567
X6.6069Y-3.9942
X6.6142Y-3.1969
X6.6693Y-3.685
X6.7047Y-4.374
X6.7087Y-4.5827
X6.7283Y-4.2205
X6.7323Y-4.2874
X6.748Y-3.9606
X6.748Y-3.998
X6.7559Y-4.8455
X6.7576Y-4.144
X6.7677Y-4.4291
X6.7717Y-5.0394
X6.8012Y-3.4252
X6.8602Y-4.1968
X6.8661Y-4.3465
X6.8768Y-3.8846
X6.9094Y-3.9055
X6.9094Y-3.937
X6.9094Y-3.9685
X6.9094Y-4.
X6.9094Y-4.063
X6.9685Y-3.6929
X7.0079Y-4.8031
X7.0236Y-4.0945
X7.0236Y-4.126
X7.0236Y-4.1575
X7.0236Y-4.189
X7.0236Y-4.2205
X7.0276Y-3.8425
X7.0276Y-3.9094
X7.0394Y-4.3465
T4
X6.4961Y-3.2283
X6.5748Y-3.2283
X6.6535Y-3.2283
T5
X5.1969Y-3.7031
X5.1969Y-3.8031
X5.1969Y-3.9031
X5.1969Y-4.0031
X5.1969Y-4.1031
X5.1969Y-4.2031
X5.1969Y-4.3031
X5.1969Y-4.4031
X5.1969Y-4.5031
X5.1969Y-4.6031
X5.1969Y-4.7031
X5.1969Y-4.8031
X5.374Y-4.8031
X5.474Y-4.8031
X5.574Y-4.8031
X5.674Y-4.8031
X5.774Y-4.8031
X5.874Y-4.8031
X5.1969Y-3.4843
X5.2969Y-3.4843
X6.8701Y-3.4843
X6.9701Y-3.4843
X5.374Y-4.6457
X5.474Y-4.6457
X5.574Y-4.6457
X5.674Y-4.6457
X5.774Y-4.6457
X5.874Y-4.6457
T6
X6.4134Y-3.2283
X6.7362Y-3.2283
T7
X5.2756Y-3.3071
X6.9291Y-3.3071
X6.9291Y-4.9606
X5.2756Y-4.9606
T2
X5.4528Y-3.2101G85X5.4528Y-3.2357
G05
X5.7284Y-3.2101G85X5.7284Y-3.2357
G05
T3
X5.4981Y-3.3292G85X5.4863Y-3.3292
G05
X5.6949Y-3.3292G85X5.6831Y-3.3292
G05
T0
M30
