%TF.GenerationSoftware,KiCad,Pcbnew,5.99.0-unknown-7565f60a0~106~ubuntu20.04.1*%
%TF.CreationDate,2020-12-13T15:13:57+00:00*%
%TF.ProjectId,24pin_flex_interposer,32347069-6e5f-4666-9c65-785f696e7465,rev?*%
%TF.SameCoordinates,Original*%
%TF.FileFunction,Copper,L1,Top*%
%TF.FilePolarity,Positive*%
%FSLAX46Y46*%
G04 Gerber Fmt 4.6, Leading zero omitted, Abs format (unit mm)*
G04 Created by KiCad (PCBNEW 5.99.0-unknown-7565f60a0~106~ubuntu20.04.1) date 2020-12-13 15:13:57*
%MOMM*%
%LPD*%
G01*
G04 APERTURE LIST*
G04 Aperture macros list*
%AMRoundRect*
0 Rectangle with rounded corners*
0 $1 Rounding radius*
0 $2 $3 $4 $5 $6 $7 $8 $9 X,Y pos of 4 corners*
0 Add a 4 corners polygon primitive as box body*
4,1,4,$2,$3,$4,$5,$6,$7,$8,$9,$2,$3,0*
0 Add four circle primitives for the rounded corners*
1,1,$1+$1,$2,$3,0*
1,1,$1+$1,$4,$5,0*
1,1,$1+$1,$6,$7,0*
1,1,$1+$1,$8,$9,0*
0 Add four rect primitives between the rounded corners*
20,1,$1+$1,$2,$3,$4,$5,0*
20,1,$1+$1,$4,$5,$6,$7,0*
20,1,$1+$1,$6,$7,$8,$9,0*
20,1,$1+$1,$8,$9,$2,$3,0*%
G04 Aperture macros list end*
%TA.AperFunction,SMDPad,CuDef*%
%ADD10RoundRect,0.140000X-0.170000X0.140000X-0.170000X-0.140000X0.170000X-0.140000X0.170000X0.140000X0*%
%TD*%
%TA.AperFunction,SMDPad,CuDef*%
%ADD11R,2.200000X2.200000*%
%TD*%
%TA.AperFunction,SMDPad,CuDef*%
%ADD12R,1.600000X0.250000*%
%TD*%
%TA.AperFunction,ComponentPad*%
%ADD13O,1.700000X1.700000*%
%TD*%
%TA.AperFunction,ComponentPad*%
%ADD14R,1.700000X1.700000*%
%TD*%
%TA.AperFunction,ViaPad*%
%ADD15C,0.600000*%
%TD*%
%TA.AperFunction,Conductor*%
%ADD16C,0.150000*%
%TD*%
%TA.AperFunction,Conductor*%
%ADD17C,0.300000*%
%TD*%
G04 APERTURE END LIST*
D10*
%TO.P,C1,2*%
%TO.N,/LCD2*%
X105500000Y-83480000D03*
%TO.P,C1,1*%
%TO.N,/LCD1*%
X105500000Y-82520000D03*
%TD*%
D11*
%TO.P,J3,0*%
%TO.N,N/C*%
X100750000Y-96750000D03*
X100750000Y-81250000D03*
D12*
%TO.P,J3,24,Pin_24*%
%TO.N,/LCD24*%
X104000000Y-94750000D03*
%TO.P,J3,23,Pin_23*%
%TO.N,/LCD23*%
X104000000Y-94250000D03*
%TO.P,J3,22,Pin_22*%
%TO.N,/LCD22*%
X104000000Y-93750000D03*
%TO.P,J3,21,Pin_21*%
%TO.N,/LCD21*%
X104000000Y-93250000D03*
%TO.P,J3,20,Pin_20*%
%TO.N,/LCD20*%
X104000000Y-92750000D03*
%TO.P,J3,19,Pin_19*%
%TO.N,/LCD19*%
X104000000Y-92250000D03*
%TO.P,J3,18,Pin_18*%
%TO.N,/LCD18*%
X104000000Y-91750000D03*
%TO.P,J3,17,Pin_17*%
%TO.N,/LCD17*%
X104000000Y-91250000D03*
%TO.P,J3,16,Pin_16*%
%TO.N,/LCD16*%
X104000000Y-90750000D03*
%TO.P,J3,15,Pin_15*%
%TO.N,/LCD15*%
X104000000Y-90250000D03*
%TO.P,J3,14,Pin_14*%
%TO.N,/LCD14*%
X104000000Y-89750000D03*
%TO.P,J3,13,Pin_13*%
%TO.N,/LCD13*%
X104000000Y-89250000D03*
%TO.P,J3,12,Pin_12*%
%TO.N,/LCD12*%
X104000000Y-88750000D03*
%TO.P,J3,11,Pin_11*%
%TO.N,/LCD11*%
X104000000Y-88250000D03*
%TO.P,J3,10,Pin_10*%
%TO.N,/LCD10*%
X104000000Y-87750000D03*
%TO.P,J3,9,Pin_9*%
%TO.N,/LCD9*%
X104000000Y-87250000D03*
%TO.P,J3,8,Pin_8*%
%TO.N,/LCD8*%
X104000000Y-86750000D03*
%TO.P,J3,7,Pin_7*%
%TO.N,/LCD7*%
X104000000Y-86250000D03*
%TO.P,J3,6,Pin_6*%
%TO.N,/LCD6*%
X104000000Y-85750000D03*
%TO.P,J3,5,Pin_5*%
%TO.N,/LCD5*%
X104000000Y-85250000D03*
%TO.P,J3,4,Pin_4*%
%TO.N,/LCD4*%
X104000000Y-84750000D03*
%TO.P,J3,3,Pin_3*%
%TO.N,/LCD3*%
X104000000Y-84250000D03*
%TO.P,J3,2,Pin_2*%
%TO.N,/LCD2*%
X104000000Y-83750000D03*
%TO.P,J3,1,Pin_1*%
%TO.N,/LCD1*%
X104000000Y-83250000D03*
%TD*%
D13*
%TO.P,J2,24,Pin_24*%
%TO.N,/LCD24*%
X114540000Y-102940000D03*
%TO.P,J2,23,Pin_23*%
%TO.N,/LCD23*%
X112000000Y-102940000D03*
%TO.P,J2,22,Pin_22*%
%TO.N,/LCD22*%
X114540000Y-100400000D03*
%TO.P,J2,21,Pin_21*%
%TO.N,/LCD21*%
X112000000Y-100400000D03*
%TO.P,J2,20,Pin_20*%
%TO.N,/LCD20*%
X114540000Y-97860000D03*
%TO.P,J2,19,Pin_19*%
%TO.N,/LCD19*%
X112000000Y-97860000D03*
%TO.P,J2,18,Pin_18*%
%TO.N,/LCD18*%
X114540000Y-95320000D03*
%TO.P,J2,17,Pin_17*%
%TO.N,/LCD17*%
X112000000Y-95320000D03*
%TO.P,J2,16,Pin_16*%
%TO.N,/LCD16*%
X114540000Y-92780000D03*
%TO.P,J2,15,Pin_15*%
%TO.N,/LCD15*%
X112000000Y-92780000D03*
%TO.P,J2,14,Pin_14*%
%TO.N,/LCD14*%
X114540000Y-90240000D03*
%TO.P,J2,13,Pin_13*%
%TO.N,/LCD13*%
X112000000Y-90240000D03*
%TO.P,J2,12,Pin_12*%
%TO.N,/LCD12*%
X114540000Y-87700000D03*
%TO.P,J2,11,Pin_11*%
%TO.N,/LCD11*%
X112000000Y-87700000D03*
%TO.P,J2,10,Pin_10*%
%TO.N,/LCD10*%
X114540000Y-85160000D03*
%TO.P,J2,9,Pin_9*%
%TO.N,/LCD9*%
X112000000Y-85160000D03*
%TO.P,J2,8,Pin_8*%
%TO.N,/LCD8*%
X114540000Y-82620000D03*
%TO.P,J2,7,Pin_7*%
%TO.N,/LCD7*%
X112000000Y-82620000D03*
%TO.P,J2,6,Pin_6*%
%TO.N,/LCD6*%
X114540000Y-80080000D03*
%TO.P,J2,5,Pin_5*%
%TO.N,/LCD5*%
X112000000Y-80080000D03*
%TO.P,J2,4,Pin_4*%
%TO.N,/LCD4*%
X114540000Y-77540000D03*
%TO.P,J2,3,Pin_3*%
%TO.N,/LCD3*%
X112000000Y-77540000D03*
%TO.P,J2,2,Pin_2*%
%TO.N,/LCD2*%
X114540000Y-75000000D03*
D14*
%TO.P,J2,1,Pin_1*%
%TO.N,/LCD1*%
X112000000Y-75000000D03*
%TD*%
D11*
%TO.P,J1,0*%
%TO.N,N/C*%
X126250000Y-81250000D03*
X126250000Y-96750000D03*
D12*
%TO.P,J1,24,Pin_24*%
%TO.N,/LCD1*%
X123000000Y-83250000D03*
%TO.P,J1,23,Pin_23*%
%TO.N,/LCD2*%
X123000000Y-83750000D03*
%TO.P,J1,22,Pin_22*%
%TO.N,/LCD3*%
X123000000Y-84250000D03*
%TO.P,J1,21,Pin_21*%
%TO.N,/LCD4*%
X123000000Y-84750000D03*
%TO.P,J1,20,Pin_20*%
%TO.N,/LCD5*%
X123000000Y-85250000D03*
%TO.P,J1,19,Pin_19*%
%TO.N,/LCD6*%
X123000000Y-85750000D03*
%TO.P,J1,18,Pin_18*%
%TO.N,/LCD7*%
X123000000Y-86250000D03*
%TO.P,J1,17,Pin_17*%
%TO.N,/LCD8*%
X123000000Y-86750000D03*
%TO.P,J1,16,Pin_16*%
%TO.N,/LCD9*%
X123000000Y-87250000D03*
%TO.P,J1,15,Pin_15*%
%TO.N,/LCD10*%
X123000000Y-87750000D03*
%TO.P,J1,14,Pin_14*%
%TO.N,/LCD11*%
X123000000Y-88250000D03*
%TO.P,J1,13,Pin_13*%
%TO.N,/LCD12*%
X123000000Y-88750000D03*
%TO.P,J1,12,Pin_12*%
%TO.N,/LCD13*%
X123000000Y-89250000D03*
%TO.P,J1,11,Pin_11*%
%TO.N,/LCD14*%
X123000000Y-89750000D03*
%TO.P,J1,10,Pin_10*%
%TO.N,/LCD15*%
X123000000Y-90250000D03*
%TO.P,J1,9,Pin_9*%
%TO.N,/LCD16*%
X123000000Y-90750000D03*
%TO.P,J1,8,Pin_8*%
%TO.N,/LCD17*%
X123000000Y-91250000D03*
%TO.P,J1,7,Pin_7*%
%TO.N,/LCD18*%
X123000000Y-91750000D03*
%TO.P,J1,6,Pin_6*%
%TO.N,/LCD19*%
X123000000Y-92250000D03*
%TO.P,J1,5,Pin_5*%
%TO.N,/LCD20*%
X123000000Y-92750000D03*
%TO.P,J1,4,Pin_4*%
%TO.N,/LCD21*%
X123000000Y-93250000D03*
%TO.P,J1,3,Pin_3*%
%TO.N,/LCD22*%
X123000000Y-93750000D03*
%TO.P,J1,2,Pin_2*%
%TO.N,/LCD23*%
X123000000Y-94250000D03*
%TO.P,J1,1,Pin_1*%
%TO.N,/LCD24*%
X123000000Y-94750000D03*
%TD*%
D15*
%TO.N,/LCD2*%
X123600010Y-82312522D03*
X117500000Y-75000000D03*
X110500000Y-75000000D03*
X121500000Y-83000000D03*
X104000000Y-82000000D03*
X104000000Y-96000000D03*
X123000000Y-96000000D03*
X126000000Y-103000000D03*
X101000000Y-103000000D03*
X101000000Y-75000000D03*
X126000000Y-75000000D03*
X110500000Y-77500000D03*
X106250000Y-82000000D03*
X106250000Y-83000000D03*
%TD*%
D16*
%TO.N,/LCD5*%
X121450000Y-85250000D02*
X123000000Y-85250000D01*
X115204999Y-79004999D02*
X121450000Y-85250000D01*
X113499279Y-79004999D02*
X115204999Y-79004999D01*
%TO.N,/LCD4*%
X111524279Y-78900000D02*
X105674279Y-84750000D01*
%TO.N,/LCD5*%
X112424278Y-80080000D02*
X113499279Y-79004999D01*
%TO.N,/LCD4*%
X113180000Y-78900000D02*
X111524279Y-78900000D01*
%TO.N,/LCD5*%
X112000000Y-80080000D02*
X112424278Y-80080000D01*
%TO.N,/LCD4*%
X105674279Y-84750000D02*
X104000000Y-84750000D01*
X114540000Y-77540000D02*
X113180000Y-78900000D01*
%TO.N,/LCD3*%
X104000000Y-84250000D02*
X105750000Y-84250000D01*
X105750000Y-84250000D02*
X112000000Y-78000000D01*
X112000000Y-78000000D02*
X112000000Y-77540000D01*
X112770000Y-76770000D02*
X112000000Y-77540000D01*
X114994668Y-76425012D02*
X113925012Y-76425012D01*
X112770000Y-76770000D02*
X113580024Y-76770000D01*
X113580024Y-76770000D02*
X113925012Y-76425012D01*
X123000000Y-84250000D02*
X121844666Y-84250000D01*
X121844666Y-84250000D02*
X116000000Y-78405334D01*
X116000000Y-78405334D02*
X116000000Y-77430344D01*
X116000000Y-77430344D02*
X114994668Y-76425012D01*
D17*
%TO.N,/LCD1*%
X112000000Y-75000000D02*
X113150001Y-73849999D01*
X113150001Y-73849999D02*
X115092001Y-73849999D01*
X115092001Y-73849999D02*
X123000000Y-81757998D01*
X123000000Y-81757998D02*
X123000000Y-83250000D01*
%TO.N,/LCD2*%
X104000000Y-83750000D02*
X105230000Y-83750000D01*
X105230000Y-83750000D02*
X105500000Y-83480000D01*
%TO.N,/LCD1*%
X105500000Y-82520000D02*
X105500000Y-81500000D01*
X105500000Y-81500000D02*
X112000000Y-75000000D01*
X104000000Y-83250000D02*
X104770000Y-83250000D01*
X104770000Y-83250000D02*
X105500000Y-82520000D01*
D16*
%TO.N,/LCD24*%
X104000000Y-94750000D02*
X105050000Y-94750000D01*
X110234499Y-102765501D02*
X111483999Y-104015001D01*
X105050000Y-94750000D02*
X110234499Y-99934499D01*
X110234499Y-99934499D02*
X110234499Y-102765501D01*
%TO.N,/LCD19*%
X112000000Y-97860000D02*
X112424279Y-97860000D01*
X112424279Y-97860000D02*
X113684279Y-96600000D01*
X114900000Y-96600000D02*
X119250000Y-92250000D01*
X113684279Y-96600000D02*
X114900000Y-96600000D01*
X119250000Y-92250000D02*
X123000000Y-92250000D01*
%TO.N,/LCD21*%
X112000000Y-100400000D02*
X113300000Y-99100000D01*
X113300000Y-99100000D02*
X114891002Y-99100000D01*
X114891002Y-99100000D02*
X120741002Y-93250000D01*
X120741002Y-93250000D02*
X123000000Y-93250000D01*
%TO.N,/LCD22*%
X114540000Y-100400000D02*
X113240000Y-101700000D01*
X113240000Y-101700000D02*
X111500000Y-101700000D01*
X111500000Y-101700000D02*
X110924999Y-101124999D01*
X110924999Y-101124999D02*
X110924999Y-99704113D01*
X110924999Y-99704113D02*
X104970886Y-93750000D01*
X104970886Y-93750000D02*
X104000000Y-93750000D01*
%TO.N,/LCD21*%
X104895165Y-93250000D02*
X112000000Y-100354835D01*
X104000000Y-93250000D02*
X104895165Y-93250000D01*
%TO.N,/LCD23*%
X110624988Y-99828381D02*
X110624988Y-101564988D01*
%TO.N,/LCD21*%
X112000000Y-100354835D02*
X112000000Y-100400000D01*
%TO.N,/LCD23*%
X104000000Y-94250000D02*
X105046607Y-94250000D01*
X110624988Y-101564988D02*
X112000000Y-102940000D01*
X105046607Y-94250000D02*
X110624988Y-99828381D01*
%TO.N,/LCD24*%
X113464999Y-104015001D02*
X114540000Y-102940000D01*
X111483999Y-104015001D02*
X113464999Y-104015001D01*
%TO.N,/LCD23*%
X112000000Y-102940000D02*
X112424279Y-102940000D01*
X112424279Y-102940000D02*
X113764279Y-101600000D01*
X113764279Y-101600000D02*
X114906786Y-101600000D01*
X114906786Y-101600000D02*
X122256786Y-94250000D01*
X122256786Y-94250000D02*
X123000000Y-94250000D01*
%TO.N,/LCD20*%
X114540000Y-97860000D02*
X114115722Y-97860000D01*
X114115722Y-97860000D02*
X113040721Y-98935001D01*
X111435001Y-98935001D02*
X105250000Y-92750000D01*
X113040721Y-98935001D02*
X111435001Y-98935001D01*
X105250000Y-92750000D02*
X104000000Y-92750000D01*
%TO.N,/LCD18*%
X113360000Y-96500000D02*
X111400000Y-96500000D01*
X106650000Y-91750000D02*
X104000000Y-91750000D01*
X114540000Y-95320000D02*
X113360000Y-96500000D01*
X111400000Y-96500000D02*
X106650000Y-91750000D01*
%TO.N,/LCD19*%
X104000000Y-92250000D02*
X106390000Y-92250000D01*
X106390000Y-92250000D02*
X112000000Y-97860000D01*
%TO.N,/LCD17*%
X112000000Y-95320000D02*
X112424279Y-95320000D01*
X112424279Y-95320000D02*
X113744279Y-94000000D01*
X113744279Y-94000000D02*
X115100000Y-94000000D01*
X115100000Y-94000000D02*
X117850000Y-91250000D01*
X117850000Y-91250000D02*
X123000000Y-91250000D01*
%TO.N,/LCD16*%
X108250000Y-90750000D02*
X104000000Y-90750000D01*
X113320000Y-94000000D02*
X111500000Y-94000000D01*
X114540000Y-92780000D02*
X113320000Y-94000000D01*
X111500000Y-94000000D02*
X108250000Y-90750000D01*
%TO.N,/LCD17*%
X104000000Y-91250000D02*
X107930000Y-91250000D01*
X107930000Y-91250000D02*
X112000000Y-95320000D01*
%TO.N,/LCD15*%
X112000000Y-92780000D02*
X112424279Y-92780000D01*
X115200000Y-91500000D02*
X116450000Y-90250000D01*
X112424279Y-92780000D02*
X113704279Y-91500000D01*
X113704279Y-91500000D02*
X115200000Y-91500000D01*
X116450000Y-90250000D02*
X123000000Y-90250000D01*
%TO.N,/LCD14*%
X109394278Y-89750000D02*
X104000000Y-89750000D01*
X114540000Y-90240000D02*
X113280000Y-91500000D01*
X113280000Y-91500000D02*
X111144278Y-91500000D01*
X111144278Y-91500000D02*
X109394278Y-89750000D01*
%TO.N,/LCD11*%
X104000000Y-88250000D02*
X111450000Y-88250000D01*
X111450000Y-88250000D02*
X112000000Y-87700000D01*
%TO.N,/LCD10*%
X114540000Y-85160000D02*
X113200000Y-86500000D01*
X113200000Y-86500000D02*
X111392139Y-86500000D01*
X111392139Y-86500000D02*
X110142139Y-87750000D01*
X110142139Y-87750000D02*
X104000000Y-87750000D01*
%TO.N,/LCD9*%
X104000000Y-87250000D02*
X109910000Y-87250000D01*
X109910000Y-87250000D02*
X112000000Y-85160000D01*
%TO.N,/LCD6*%
X114540000Y-80080000D02*
X114115721Y-80080000D01*
X112795721Y-81400000D02*
X111400000Y-81400000D01*
X114115721Y-80080000D02*
X112795721Y-81400000D01*
X111400000Y-81400000D02*
X107050000Y-85750000D01*
X107050000Y-85750000D02*
X104000000Y-85750000D01*
%TO.N,/LCD8*%
X111344267Y-83700011D02*
X108294278Y-86750000D01*
X113459989Y-83700011D02*
X111344267Y-83700011D01*
%TO.N,/LCD7*%
X104000000Y-86250000D02*
X108370000Y-86250000D01*
%TO.N,/LCD8*%
X114540000Y-82620000D02*
X113459989Y-83700011D01*
X108294278Y-86750000D02*
X104000000Y-86750000D01*
%TO.N,/LCD7*%
X108370000Y-86250000D02*
X112000000Y-82620000D01*
%TO.N,/LCD5*%
X106830000Y-85250000D02*
X112000000Y-80080000D01*
X104000000Y-85250000D02*
X106830000Y-85250000D01*
%TO.N,/LCD22*%
X123000000Y-93750000D02*
X121190000Y-93750000D01*
X121190000Y-93750000D02*
X114540000Y-100400000D01*
%TO.N,/LCD20*%
X123000000Y-92750000D02*
X119650000Y-92750000D01*
X119650000Y-92750000D02*
X114540000Y-97860000D01*
%TO.N,/LCD18*%
X123000000Y-91750000D02*
X118110000Y-91750000D01*
X118110000Y-91750000D02*
X114540000Y-95320000D01*
%TO.N,/LCD16*%
X123000000Y-90750000D02*
X116570000Y-90750000D01*
X116570000Y-90750000D02*
X114540000Y-92780000D01*
%TO.N,/LCD14*%
X123000000Y-89750000D02*
X115030000Y-89750000D01*
X115030000Y-89750000D02*
X114540000Y-90240000D01*
%TO.N,/LCD12*%
X123000000Y-88750000D02*
X115590000Y-88750000D01*
X115590000Y-88750000D02*
X114540000Y-87700000D01*
%TO.N,/LCD11*%
X112000000Y-87700000D02*
X113000000Y-87700000D01*
X113000000Y-87700000D02*
X114075001Y-86624999D01*
X114075001Y-86624999D02*
X115152860Y-86624999D01*
X115152860Y-86624999D02*
X116777861Y-88250000D01*
X116777861Y-88250000D02*
X123000000Y-88250000D01*
%TO.N,/LCD10*%
X117130000Y-87750000D02*
X114540000Y-85160000D01*
X123000000Y-87750000D02*
X117130000Y-87750000D01*
%TO.N,/LCD8*%
X123000000Y-86750000D02*
X118670000Y-86750000D01*
%TO.N,/LCD9*%
X113075001Y-84084999D02*
X115580721Y-84084999D01*
X115580721Y-84084999D02*
X118745722Y-87250000D01*
X118745722Y-87250000D02*
X123000000Y-87250000D01*
X112000000Y-85160000D02*
X113075001Y-84084999D01*
%TO.N,/LCD8*%
X118670000Y-86750000D02*
X114540000Y-82620000D01*
%TO.N,/LCD4*%
X123000000Y-84750000D02*
X121750000Y-84750000D01*
X121750000Y-84750000D02*
X114540000Y-77540000D01*
%TO.N,/LCD7*%
X120285722Y-86250000D02*
X123000000Y-86250000D01*
X115435722Y-81400000D02*
X120285722Y-86250000D01*
X113220000Y-81400000D02*
X115435722Y-81400000D01*
X112000000Y-82620000D02*
X113220000Y-81400000D01*
%TO.N,/LCD6*%
X120210000Y-85750000D02*
X114540000Y-80080000D01*
X123000000Y-85750000D02*
X120210000Y-85750000D01*
%TO.N,/LCD24*%
X123000000Y-94750000D02*
X122730000Y-94750000D01*
X122730000Y-94750000D02*
X114540000Y-102940000D01*
%TO.N,/LCD15*%
X104000000Y-90250000D02*
X109470000Y-90250000D01*
X109470000Y-90250000D02*
X112000000Y-92780000D01*
%TO.N,/LCD13*%
X112000000Y-90240000D02*
X113075001Y-89164999D01*
X113075001Y-89164999D02*
X115864999Y-89164999D01*
X115864999Y-89164999D02*
X115950000Y-89250000D01*
X115950000Y-89250000D02*
X123000000Y-89250000D01*
X104000000Y-89250000D02*
X111010000Y-89250000D01*
X111010000Y-89250000D02*
X112000000Y-90240000D01*
%TO.N,/LCD12*%
X114540000Y-87700000D02*
X113464999Y-88775001D01*
X113464999Y-88775001D02*
X104025001Y-88775001D01*
X104025001Y-88775001D02*
X104000000Y-88750000D01*
D17*
%TO.N,/LCD1*%
X112000000Y-75250000D02*
X112000000Y-75000000D01*
%TD*%
%TA.AperFunction,Conductor*%
%TO.N,/LCD2*%
G36*
X122972303Y-73152724D02*
G01*
X122974304Y-73153282D01*
X122975063Y-73153494D01*
X122975064Y-73153494D01*
X122979736Y-73154798D01*
X123144885Y-73156509D01*
X123147310Y-73156575D01*
X123258095Y-73161412D01*
X123261298Y-73161622D01*
X123582865Y-73189756D01*
X123586022Y-73190101D01*
X123674231Y-73201714D01*
X123678804Y-73202316D01*
X123681995Y-73202807D01*
X123999899Y-73258863D01*
X124003064Y-73259493D01*
X124067210Y-73273713D01*
X124094376Y-73279735D01*
X124097467Y-73280492D01*
X124359154Y-73350612D01*
X124409295Y-73364047D01*
X124412394Y-73364950D01*
X124425374Y-73369042D01*
X124501599Y-73393076D01*
X124504608Y-73394098D01*
X124781771Y-73494977D01*
X124808006Y-73504526D01*
X124811015Y-73505696D01*
X124897376Y-73541468D01*
X124900331Y-73542768D01*
X124920670Y-73552252D01*
X125192947Y-73679217D01*
X125195790Y-73680619D01*
X125278743Y-73723801D01*
X125278762Y-73723811D01*
X125281591Y-73725364D01*
X125561169Y-73886778D01*
X125563912Y-73888443D01*
X125642796Y-73938699D01*
X125645480Y-73940492D01*
X125781874Y-74035996D01*
X125909923Y-74125658D01*
X125912498Y-74127546D01*
X125986692Y-74184477D01*
X125989175Y-74186469D01*
X126091184Y-74272065D01*
X126236523Y-74394020D01*
X126238949Y-74396148D01*
X126307853Y-74459286D01*
X126310186Y-74461519D01*
X126538490Y-74689824D01*
X126540722Y-74692156D01*
X126603874Y-74761074D01*
X126605998Y-74763496D01*
X126813520Y-75010813D01*
X126815505Y-75013285D01*
X126847244Y-75054647D01*
X126872454Y-75087503D01*
X126874362Y-75090106D01*
X126971481Y-75228805D01*
X127059508Y-75354520D01*
X127059519Y-75354536D01*
X127061313Y-75357221D01*
X127111563Y-75436099D01*
X127113238Y-75438859D01*
X127222880Y-75628764D01*
X127274636Y-75718408D01*
X127274646Y-75718426D01*
X127276189Y-75721238D01*
X127319368Y-75804183D01*
X127319376Y-75804199D01*
X127320796Y-75807079D01*
X127349241Y-75868079D01*
X127457228Y-76099661D01*
X127458528Y-76102615D01*
X127494313Y-76189007D01*
X127495481Y-76192010D01*
X127605910Y-76495415D01*
X127606924Y-76498403D01*
X127635050Y-76587606D01*
X127635937Y-76590647D01*
X127706960Y-76855709D01*
X127719511Y-76902550D01*
X127720278Y-76905685D01*
X127740505Y-76996922D01*
X127741135Y-77000089D01*
X127797195Y-77318023D01*
X127797686Y-77321214D01*
X127807901Y-77398798D01*
X127809893Y-77413931D01*
X127810242Y-77417126D01*
X127829899Y-77641798D01*
X127838377Y-77738696D01*
X127838589Y-77741918D01*
X127843425Y-77852672D01*
X127843491Y-77855114D01*
X127845202Y-78020265D01*
X127846506Y-78024936D01*
X127846506Y-78024938D01*
X127847276Y-78027696D01*
X127850000Y-78047589D01*
X127850000Y-99952411D01*
X127847276Y-99972304D01*
X127845202Y-99979735D01*
X127843960Y-100099632D01*
X127843491Y-100144867D01*
X127843425Y-100147310D01*
X127838589Y-100258082D01*
X127838377Y-100261302D01*
X127818427Y-100489333D01*
X127810244Y-100582860D01*
X127809895Y-100586048D01*
X127804224Y-100629124D01*
X127797686Y-100678786D01*
X127797195Y-100681977D01*
X127741135Y-100999911D01*
X127740505Y-101003078D01*
X127720278Y-101094315D01*
X127719511Y-101097450D01*
X127717533Y-101104831D01*
X127635937Y-101409353D01*
X127635053Y-101412386D01*
X127606924Y-101501597D01*
X127605910Y-101504585D01*
X127499715Y-101796357D01*
X127495483Y-101807984D01*
X127494313Y-101810993D01*
X127458528Y-101897385D01*
X127457228Y-101900339D01*
X127423004Y-101973734D01*
X127344831Y-102141379D01*
X127320804Y-102192905D01*
X127319383Y-102195786D01*
X127312220Y-102209547D01*
X127276199Y-102278743D01*
X127274648Y-102281570D01*
X127255269Y-102315137D01*
X127113238Y-102561141D01*
X127111563Y-102563901D01*
X127061313Y-102642779D01*
X127059526Y-102645454D01*
X127040870Y-102672097D01*
X126874362Y-102909894D01*
X126872454Y-102912497D01*
X126850602Y-102940976D01*
X126815505Y-102986715D01*
X126813520Y-102989187D01*
X126675767Y-103153356D01*
X126606003Y-103236498D01*
X126603879Y-103238920D01*
X126564737Y-103281637D01*
X126540722Y-103307844D01*
X126538490Y-103310176D01*
X126310186Y-103538481D01*
X126307853Y-103540714D01*
X126238949Y-103603852D01*
X126236523Y-103605980D01*
X126156679Y-103672978D01*
X125989175Y-103813531D01*
X125986703Y-103815514D01*
X125912502Y-103872451D01*
X125909923Y-103874342D01*
X125810782Y-103943762D01*
X125645480Y-104059508D01*
X125642796Y-104061301D01*
X125563912Y-104111557D01*
X125561169Y-104113222D01*
X125332603Y-104245185D01*
X125281592Y-104274636D01*
X125278763Y-104276188D01*
X125195790Y-104319381D01*
X125192947Y-104320783D01*
X124935587Y-104440792D01*
X124900331Y-104457232D01*
X124897376Y-104458532D01*
X124811015Y-104494304D01*
X124808006Y-104495474D01*
X124504608Y-104605902D01*
X124501599Y-104606924D01*
X124425374Y-104630958D01*
X124412394Y-104635050D01*
X124409295Y-104635953D01*
X124097467Y-104719508D01*
X124094376Y-104720265D01*
X124067210Y-104726287D01*
X124003064Y-104740507D01*
X123999899Y-104741137D01*
X123681995Y-104797193D01*
X123678803Y-104797684D01*
X123586022Y-104809899D01*
X123582865Y-104810244D01*
X123261298Y-104838378D01*
X123258095Y-104838588D01*
X123147310Y-104843425D01*
X123144885Y-104843491D01*
X122979736Y-104845202D01*
X122975064Y-104846506D01*
X122975063Y-104846506D01*
X122974304Y-104846718D01*
X122972303Y-104847276D01*
X122952413Y-104850000D01*
X104047589Y-104850000D01*
X104027696Y-104847276D01*
X104024938Y-104846506D01*
X104024936Y-104846506D01*
X104020265Y-104845202D01*
X103855115Y-104843491D01*
X103852690Y-104843425D01*
X103741916Y-104838589D01*
X103738696Y-104838377D01*
X103417126Y-104810242D01*
X103413947Y-104809895D01*
X103370876Y-104804224D01*
X103321214Y-104797686D01*
X103318023Y-104797195D01*
X103065906Y-104752740D01*
X103000084Y-104741134D01*
X102996927Y-104740506D01*
X102950400Y-104730191D01*
X102905685Y-104720278D01*
X102902550Y-104719511D01*
X102855709Y-104706960D01*
X102590647Y-104635937D01*
X102587614Y-104635053D01*
X102498403Y-104606924D01*
X102495415Y-104605910D01*
X102192010Y-104495481D01*
X102189007Y-104494313D01*
X102102615Y-104458528D01*
X102099661Y-104457228D01*
X101888536Y-104358780D01*
X101807079Y-104320796D01*
X101804214Y-104319383D01*
X101721252Y-104276196D01*
X101718426Y-104274646D01*
X101438859Y-104113238D01*
X101436099Y-104111563D01*
X101357221Y-104061313D01*
X101354536Y-104059519D01*
X101354521Y-104059508D01*
X101263220Y-103995578D01*
X101090106Y-103874362D01*
X101087503Y-103872454D01*
X101043435Y-103838640D01*
X101013285Y-103815505D01*
X101010803Y-103813512D01*
X100763496Y-103605998D01*
X100761074Y-103603874D01*
X100692156Y-103540722D01*
X100689824Y-103538490D01*
X100461519Y-103310186D01*
X100459286Y-103307853D01*
X100396148Y-103238949D01*
X100394020Y-103236523D01*
X100276709Y-103096719D01*
X100186469Y-102989175D01*
X100184486Y-102986703D01*
X100127549Y-102912502D01*
X100125649Y-102909911D01*
X100112436Y-102891040D01*
X100019516Y-102758338D01*
X99940492Y-102645480D01*
X99938699Y-102642796D01*
X99888443Y-102563912D01*
X99886778Y-102561169D01*
X99725354Y-102281574D01*
X99723811Y-102278762D01*
X99690456Y-102214688D01*
X99680619Y-102195790D01*
X99679217Y-102192947D01*
X99542768Y-101900331D01*
X99541468Y-101897376D01*
X99505696Y-101811015D01*
X99504526Y-101808006D01*
X99481714Y-101745331D01*
X99394098Y-101504608D01*
X99393076Y-101501599D01*
X99364950Y-101412394D01*
X99364047Y-101409295D01*
X99320990Y-101248608D01*
X99280492Y-101097467D01*
X99279731Y-101094358D01*
X99279722Y-101094315D01*
X99273713Y-101067210D01*
X99259493Y-101003064D01*
X99258863Y-100999899D01*
X99202807Y-100681995D01*
X99202316Y-100678804D01*
X99201714Y-100674231D01*
X99190101Y-100586022D01*
X99189756Y-100582865D01*
X99161622Y-100261298D01*
X99161411Y-100258086D01*
X99161411Y-100258082D01*
X99156575Y-100147310D01*
X99156509Y-100144867D01*
X99156041Y-100099632D01*
X99154798Y-99979736D01*
X99152724Y-99972303D01*
X99150000Y-99952413D01*
X99150000Y-95650000D01*
X99494500Y-95650000D01*
X99494500Y-97850000D01*
X99495210Y-97853569D01*
X99495210Y-97853570D01*
X99497886Y-97867020D01*
X99506337Y-97909507D01*
X99540045Y-97959955D01*
X99590493Y-97993663D01*
X99597638Y-97995084D01*
X99597640Y-97995085D01*
X99646430Y-98004790D01*
X99646431Y-98004790D01*
X99650000Y-98005500D01*
X101850000Y-98005500D01*
X101853569Y-98004790D01*
X101853570Y-98004790D01*
X101902360Y-97995085D01*
X101902362Y-97995084D01*
X101909507Y-97993663D01*
X101959955Y-97959955D01*
X101993663Y-97909507D01*
X102002115Y-97867020D01*
X102004790Y-97853570D01*
X102004790Y-97853569D01*
X102005500Y-97850000D01*
X102005500Y-95650000D01*
X101999002Y-95617334D01*
X101995085Y-95597640D01*
X101995084Y-95597638D01*
X101993663Y-95590493D01*
X101959955Y-95540045D01*
X101909507Y-95506337D01*
X101902362Y-95504916D01*
X101902360Y-95504915D01*
X101853570Y-95495210D01*
X101853569Y-95495210D01*
X101850000Y-95494500D01*
X99650000Y-95494500D01*
X99646431Y-95495210D01*
X99646430Y-95495210D01*
X99597640Y-95504915D01*
X99597638Y-95504916D01*
X99590493Y-95506337D01*
X99540045Y-95540045D01*
X99506337Y-95590493D01*
X99504916Y-95597638D01*
X99504915Y-95597640D01*
X99500998Y-95617334D01*
X99494500Y-95650000D01*
X99150000Y-95650000D01*
X99150000Y-83881637D01*
X102996320Y-83881637D01*
X103009183Y-83946303D01*
X103014653Y-83959508D01*
X103046461Y-84007113D01*
X103058492Y-84056282D01*
X103056141Y-84065454D01*
X103056337Y-84065493D01*
X103044500Y-84125000D01*
X103044500Y-84375000D01*
X103056337Y-84434507D01*
X103060385Y-84440565D01*
X103072628Y-84458888D01*
X103084659Y-84508056D01*
X103072628Y-84541111D01*
X103056337Y-84565493D01*
X103054916Y-84572638D01*
X103054915Y-84572640D01*
X103045210Y-84621430D01*
X103044500Y-84625000D01*
X103044500Y-84875000D01*
X103045210Y-84878569D01*
X103045210Y-84878570D01*
X103053817Y-84921836D01*
X103056337Y-84934507D01*
X103071912Y-84957816D01*
X103072628Y-84958888D01*
X103084659Y-85008056D01*
X103072628Y-85041111D01*
X103056337Y-85065493D01*
X103044500Y-85125000D01*
X103044500Y-85375000D01*
X103045210Y-85378569D01*
X103045210Y-85378570D01*
X103053817Y-85421836D01*
X103056337Y-85434507D01*
X103071590Y-85457334D01*
X103072628Y-85458888D01*
X103084659Y-85508056D01*
X103072628Y-85541111D01*
X103056337Y-85565493D01*
X103044500Y-85625000D01*
X103044500Y-85875000D01*
X103045210Y-85878569D01*
X103045210Y-85878570D01*
X103053817Y-85921836D01*
X103056337Y-85934507D01*
X103060385Y-85940565D01*
X103072628Y-85958888D01*
X103084659Y-86008056D01*
X103072628Y-86041111D01*
X103056337Y-86065493D01*
X103044500Y-86125000D01*
X103044500Y-86375000D01*
X103045210Y-86378569D01*
X103045210Y-86378570D01*
X103054476Y-86425149D01*
X103056337Y-86434507D01*
X103071093Y-86456590D01*
X103072628Y-86458888D01*
X103084659Y-86508056D01*
X103072628Y-86541111D01*
X103056337Y-86565493D01*
X103044500Y-86625000D01*
X103044500Y-86875000D01*
X103045210Y-86878569D01*
X103045210Y-86878570D01*
X103053817Y-86921836D01*
X103056337Y-86934507D01*
X103060385Y-86940565D01*
X103072628Y-86958888D01*
X103084659Y-87008056D01*
X103072628Y-87041111D01*
X103056337Y-87065493D01*
X103044500Y-87125000D01*
X103044500Y-87375000D01*
X103045210Y-87378569D01*
X103045210Y-87378570D01*
X103053817Y-87421836D01*
X103056337Y-87434507D01*
X103065857Y-87448754D01*
X103072628Y-87458888D01*
X103084659Y-87508056D01*
X103072628Y-87541111D01*
X103056337Y-87565493D01*
X103044500Y-87625000D01*
X103044500Y-87875000D01*
X103045210Y-87878569D01*
X103045210Y-87878570D01*
X103053817Y-87921836D01*
X103056337Y-87934507D01*
X103065857Y-87948754D01*
X103072628Y-87958888D01*
X103084659Y-88008056D01*
X103072628Y-88041111D01*
X103056337Y-88065493D01*
X103054916Y-88072638D01*
X103054915Y-88072640D01*
X103048316Y-88105817D01*
X103044500Y-88125000D01*
X103044500Y-88375000D01*
X103056337Y-88434507D01*
X103062714Y-88444050D01*
X103072628Y-88458888D01*
X103084659Y-88508056D01*
X103072628Y-88541111D01*
X103056337Y-88565493D01*
X103054916Y-88572638D01*
X103054915Y-88572640D01*
X103049743Y-88598640D01*
X103044500Y-88625000D01*
X103044500Y-88875000D01*
X103056337Y-88934507D01*
X103060385Y-88940565D01*
X103072628Y-88958888D01*
X103084659Y-89008056D01*
X103072628Y-89041111D01*
X103056337Y-89065493D01*
X103054916Y-89072638D01*
X103054915Y-89072640D01*
X103047185Y-89111501D01*
X103044500Y-89125000D01*
X103044500Y-89375000D01*
X103056337Y-89434507D01*
X103060385Y-89440565D01*
X103072628Y-89458888D01*
X103084659Y-89508056D01*
X103072628Y-89541111D01*
X103056337Y-89565493D01*
X103054916Y-89572638D01*
X103054915Y-89572640D01*
X103049110Y-89601826D01*
X103044500Y-89625000D01*
X103044500Y-89875000D01*
X103056337Y-89934507D01*
X103060385Y-89940565D01*
X103072628Y-89958888D01*
X103084659Y-90008056D01*
X103072628Y-90041111D01*
X103056337Y-90065493D01*
X103054916Y-90072638D01*
X103054915Y-90072640D01*
X103047198Y-90111438D01*
X103044500Y-90125000D01*
X103044500Y-90375000D01*
X103056337Y-90434507D01*
X103068439Y-90452618D01*
X103072628Y-90458888D01*
X103084659Y-90508056D01*
X103072628Y-90541111D01*
X103056337Y-90565493D01*
X103054916Y-90572638D01*
X103054915Y-90572640D01*
X103049110Y-90601826D01*
X103044500Y-90625000D01*
X103044500Y-90875000D01*
X103045210Y-90878569D01*
X103045210Y-90878570D01*
X103052821Y-90916829D01*
X103056337Y-90934507D01*
X103060385Y-90940565D01*
X103072628Y-90958888D01*
X103084659Y-91008056D01*
X103072628Y-91041111D01*
X103056337Y-91065493D01*
X103054916Y-91072638D01*
X103054915Y-91072640D01*
X103050315Y-91095765D01*
X103044500Y-91125000D01*
X103044500Y-91375000D01*
X103056337Y-91434507D01*
X103060385Y-91440565D01*
X103072628Y-91458888D01*
X103084659Y-91508056D01*
X103072628Y-91541111D01*
X103056337Y-91565493D01*
X103054916Y-91572638D01*
X103054915Y-91572640D01*
X103050315Y-91595765D01*
X103044500Y-91625000D01*
X103044500Y-91875000D01*
X103056337Y-91934507D01*
X103060385Y-91940565D01*
X103072628Y-91958888D01*
X103084659Y-92008056D01*
X103072628Y-92041111D01*
X103056337Y-92065493D01*
X103054916Y-92072638D01*
X103054915Y-92072640D01*
X103047198Y-92111438D01*
X103044500Y-92125000D01*
X103044500Y-92375000D01*
X103045210Y-92378569D01*
X103045210Y-92378570D01*
X103046269Y-92383891D01*
X103056337Y-92434507D01*
X103060385Y-92440565D01*
X103072628Y-92458888D01*
X103084659Y-92508056D01*
X103072628Y-92541111D01*
X103056337Y-92565493D01*
X103054916Y-92572638D01*
X103054915Y-92572640D01*
X103050315Y-92595765D01*
X103044500Y-92625000D01*
X103044500Y-92875000D01*
X103056337Y-92934507D01*
X103060385Y-92940565D01*
X103072628Y-92958888D01*
X103084659Y-93008056D01*
X103072628Y-93041111D01*
X103056337Y-93065493D01*
X103054916Y-93072638D01*
X103054915Y-93072640D01*
X103049110Y-93101826D01*
X103044500Y-93125000D01*
X103044500Y-93375000D01*
X103056337Y-93434507D01*
X103060385Y-93440565D01*
X103072628Y-93458888D01*
X103084659Y-93508056D01*
X103072628Y-93541111D01*
X103056337Y-93565493D01*
X103054916Y-93572638D01*
X103054915Y-93572640D01*
X103052158Y-93586500D01*
X103044500Y-93625000D01*
X103044500Y-93875000D01*
X103056337Y-93934507D01*
X103060385Y-93940565D01*
X103072628Y-93958888D01*
X103084659Y-94008056D01*
X103072628Y-94041111D01*
X103056337Y-94065493D01*
X103044500Y-94125000D01*
X103044500Y-94375000D01*
X103056337Y-94434507D01*
X103067718Y-94451539D01*
X103072628Y-94458888D01*
X103084659Y-94508056D01*
X103072628Y-94541111D01*
X103056337Y-94565493D01*
X103054916Y-94572638D01*
X103054915Y-94572640D01*
X103048157Y-94606617D01*
X103044500Y-94625000D01*
X103044500Y-94875000D01*
X103045210Y-94878569D01*
X103045210Y-94878570D01*
X103053833Y-94921917D01*
X103056337Y-94934507D01*
X103090045Y-94984955D01*
X103140493Y-95018663D01*
X103147638Y-95020084D01*
X103147640Y-95020085D01*
X103196430Y-95029790D01*
X103196431Y-95029790D01*
X103200000Y-95030500D01*
X104800000Y-95030500D01*
X104803569Y-95029790D01*
X104803570Y-95029790D01*
X104852360Y-95020085D01*
X104852362Y-95020084D01*
X104859507Y-95018663D01*
X104893087Y-94996226D01*
X104942254Y-94984195D01*
X104986524Y-95005429D01*
X109987325Y-100006230D01*
X110008717Y-100052106D01*
X110008999Y-100058556D01*
X110009000Y-102758338D01*
X110008899Y-102762211D01*
X110006837Y-102801558D01*
X110009624Y-102808818D01*
X110015567Y-102824299D01*
X110018865Y-102835433D01*
X110023928Y-102859254D01*
X110028922Y-102866127D01*
X110038139Y-102883103D01*
X110041186Y-102891040D01*
X110041408Y-102891315D01*
X110058550Y-102908457D01*
X110066090Y-102917286D01*
X110080265Y-102936796D01*
X110086998Y-102940684D01*
X110087001Y-102940686D01*
X110087503Y-102940976D01*
X110102828Y-102952735D01*
X111319494Y-104169401D01*
X111322161Y-104172211D01*
X111348514Y-104201479D01*
X111370774Y-104211390D01*
X111380967Y-104216925D01*
X111401395Y-104230191D01*
X111409077Y-104231408D01*
X111409078Y-104231408D01*
X111409787Y-104231520D01*
X111428308Y-104237006D01*
X111436075Y-104240464D01*
X111436427Y-104240501D01*
X111460665Y-104240501D01*
X111472239Y-104241412D01*
X111496062Y-104245185D01*
X111503574Y-104243172D01*
X111503577Y-104243172D01*
X111504133Y-104243023D01*
X111523287Y-104240501D01*
X113457855Y-104240501D01*
X113461729Y-104240602D01*
X113501056Y-104242663D01*
X113508314Y-104239877D01*
X113508319Y-104239876D01*
X113523794Y-104233935D01*
X113534927Y-104230637D01*
X113551145Y-104227190D01*
X113551146Y-104227190D01*
X113558752Y-104225573D01*
X113565630Y-104220576D01*
X113582601Y-104211361D01*
X113590538Y-104208314D01*
X113590813Y-104208092D01*
X113607948Y-104190957D01*
X113616778Y-104183415D01*
X113630004Y-104173806D01*
X113636294Y-104169236D01*
X113640206Y-104162461D01*
X113640474Y-104161997D01*
X113652233Y-104146672D01*
X113968526Y-103830379D01*
X114014402Y-103808987D01*
X114060284Y-103820087D01*
X114092919Y-103840638D01*
X114096428Y-103841957D01*
X114096430Y-103841958D01*
X114253669Y-103901060D01*
X114283149Y-103912141D01*
X114483871Y-103943932D01*
X114487616Y-103943762D01*
X114487618Y-103943762D01*
X114683143Y-103934883D01*
X114686886Y-103934713D01*
X114690516Y-103933794D01*
X114690519Y-103933794D01*
X114880267Y-103885781D01*
X114880271Y-103885779D01*
X114883901Y-103884861D01*
X115066868Y-103796411D01*
X115228312Y-103672978D01*
X115343281Y-103540722D01*
X115359180Y-103522432D01*
X115359181Y-103522431D01*
X115361639Y-103519603D01*
X115461403Y-103342551D01*
X115523527Y-103149055D01*
X115545475Y-102947020D01*
X115545500Y-102940000D01*
X115528354Y-102771195D01*
X115525342Y-102741547D01*
X115524963Y-102737816D01*
X115495186Y-102642796D01*
X115465312Y-102547467D01*
X115465311Y-102547464D01*
X115464191Y-102543891D01*
X115416627Y-102458082D01*
X115408709Y-102408088D01*
X115429023Y-102369882D01*
X122148905Y-95650000D01*
X124994500Y-95650000D01*
X124994500Y-97850000D01*
X124995210Y-97853569D01*
X124995210Y-97853570D01*
X124997886Y-97867020D01*
X125006337Y-97909507D01*
X125040045Y-97959955D01*
X125090493Y-97993663D01*
X125097638Y-97995084D01*
X125097640Y-97995085D01*
X125146430Y-98004790D01*
X125146431Y-98004790D01*
X125150000Y-98005500D01*
X127350000Y-98005500D01*
X127353569Y-98004790D01*
X127353570Y-98004790D01*
X127402360Y-97995085D01*
X127402362Y-97995084D01*
X127409507Y-97993663D01*
X127459955Y-97959955D01*
X127493663Y-97909507D01*
X127502115Y-97867020D01*
X127504790Y-97853570D01*
X127504790Y-97853569D01*
X127505500Y-97850000D01*
X127505500Y-95650000D01*
X127499002Y-95617334D01*
X127495085Y-95597640D01*
X127495084Y-95597638D01*
X127493663Y-95590493D01*
X127459955Y-95540045D01*
X127409507Y-95506337D01*
X127402362Y-95504916D01*
X127402360Y-95504915D01*
X127353570Y-95495210D01*
X127353569Y-95495210D01*
X127350000Y-95494500D01*
X125150000Y-95494500D01*
X125146431Y-95495210D01*
X125146430Y-95495210D01*
X125097640Y-95504915D01*
X125097638Y-95504916D01*
X125090493Y-95506337D01*
X125040045Y-95540045D01*
X125006337Y-95590493D01*
X125004916Y-95597638D01*
X125004915Y-95597640D01*
X125000998Y-95617334D01*
X124994500Y-95650000D01*
X122148905Y-95650000D01*
X122746731Y-95052174D01*
X122792607Y-95030782D01*
X122799057Y-95030500D01*
X123800000Y-95030500D01*
X123803569Y-95029790D01*
X123803570Y-95029790D01*
X123852360Y-95020085D01*
X123852362Y-95020084D01*
X123859507Y-95018663D01*
X123909955Y-94984955D01*
X123943663Y-94934507D01*
X123946168Y-94921917D01*
X123954790Y-94878570D01*
X123954790Y-94878569D01*
X123955500Y-94875000D01*
X123955500Y-94625000D01*
X123951843Y-94606617D01*
X123945085Y-94572640D01*
X123945084Y-94572638D01*
X123943663Y-94565493D01*
X123927372Y-94541111D01*
X123915341Y-94491944D01*
X123927372Y-94458888D01*
X123932283Y-94451539D01*
X123943663Y-94434507D01*
X123955500Y-94375000D01*
X123955500Y-94125000D01*
X123943663Y-94065493D01*
X123927372Y-94041111D01*
X123915341Y-93991944D01*
X123927372Y-93958888D01*
X123939615Y-93940565D01*
X123943663Y-93934507D01*
X123955500Y-93875000D01*
X123955500Y-93625000D01*
X123947842Y-93586500D01*
X123945085Y-93572640D01*
X123945084Y-93572638D01*
X123943663Y-93565493D01*
X123927372Y-93541111D01*
X123915341Y-93491944D01*
X123927372Y-93458888D01*
X123939615Y-93440565D01*
X123943663Y-93434507D01*
X123955500Y-93375000D01*
X123955500Y-93125000D01*
X123950890Y-93101826D01*
X123945085Y-93072640D01*
X123945084Y-93072638D01*
X123943663Y-93065493D01*
X123927372Y-93041111D01*
X123915341Y-92991944D01*
X123927372Y-92958888D01*
X123939615Y-92940565D01*
X123943663Y-92934507D01*
X123955500Y-92875000D01*
X123955500Y-92625000D01*
X123949685Y-92595765D01*
X123945085Y-92572640D01*
X123945084Y-92572638D01*
X123943663Y-92565493D01*
X123927372Y-92541111D01*
X123915341Y-92491944D01*
X123927372Y-92458888D01*
X123939615Y-92440565D01*
X123943663Y-92434507D01*
X123953732Y-92383891D01*
X123954790Y-92378570D01*
X123954790Y-92378569D01*
X123955500Y-92375000D01*
X123955500Y-92125000D01*
X123952802Y-92111438D01*
X123945085Y-92072640D01*
X123945084Y-92072638D01*
X123943663Y-92065493D01*
X123927372Y-92041111D01*
X123915341Y-91991944D01*
X123927372Y-91958888D01*
X123939615Y-91940565D01*
X123943663Y-91934507D01*
X123955500Y-91875000D01*
X123955500Y-91625000D01*
X123949685Y-91595765D01*
X123945085Y-91572640D01*
X123945084Y-91572638D01*
X123943663Y-91565493D01*
X123927372Y-91541111D01*
X123915341Y-91491944D01*
X123927372Y-91458888D01*
X123939615Y-91440565D01*
X123943663Y-91434507D01*
X123955500Y-91375000D01*
X123955500Y-91125000D01*
X123949685Y-91095765D01*
X123945085Y-91072640D01*
X123945084Y-91072638D01*
X123943663Y-91065493D01*
X123927372Y-91041111D01*
X123915341Y-90991944D01*
X123927372Y-90958888D01*
X123939615Y-90940565D01*
X123943663Y-90934507D01*
X123947180Y-90916829D01*
X123954790Y-90878570D01*
X123954790Y-90878569D01*
X123955500Y-90875000D01*
X123955500Y-90625000D01*
X123950890Y-90601826D01*
X123945085Y-90572640D01*
X123945084Y-90572638D01*
X123943663Y-90565493D01*
X123927372Y-90541111D01*
X123915341Y-90491944D01*
X123927372Y-90458888D01*
X123931562Y-90452618D01*
X123943663Y-90434507D01*
X123955500Y-90375000D01*
X123955500Y-90125000D01*
X123952802Y-90111438D01*
X123945085Y-90072640D01*
X123945084Y-90072638D01*
X123943663Y-90065493D01*
X123927372Y-90041111D01*
X123915341Y-89991944D01*
X123927372Y-89958888D01*
X123939615Y-89940565D01*
X123943663Y-89934507D01*
X123955500Y-89875000D01*
X123955500Y-89625000D01*
X123950890Y-89601826D01*
X123945085Y-89572640D01*
X123945084Y-89572638D01*
X123943663Y-89565493D01*
X123927372Y-89541111D01*
X123915341Y-89491944D01*
X123927372Y-89458888D01*
X123939615Y-89440565D01*
X123943663Y-89434507D01*
X123955500Y-89375000D01*
X123955500Y-89125000D01*
X123952815Y-89111501D01*
X123945085Y-89072640D01*
X123945084Y-89072638D01*
X123943663Y-89065493D01*
X123927372Y-89041111D01*
X123915341Y-88991944D01*
X123927372Y-88958888D01*
X123939615Y-88940565D01*
X123943663Y-88934507D01*
X123955500Y-88875000D01*
X123955500Y-88625000D01*
X123950257Y-88598640D01*
X123945085Y-88572640D01*
X123945084Y-88572638D01*
X123943663Y-88565493D01*
X123927372Y-88541111D01*
X123915341Y-88491944D01*
X123927372Y-88458888D01*
X123937287Y-88444050D01*
X123943663Y-88434507D01*
X123955500Y-88375000D01*
X123955500Y-88125000D01*
X123951684Y-88105817D01*
X123945085Y-88072640D01*
X123945084Y-88072638D01*
X123943663Y-88065493D01*
X123927372Y-88041111D01*
X123915341Y-87991944D01*
X123927372Y-87958888D01*
X123934144Y-87948754D01*
X123943663Y-87934507D01*
X123946184Y-87921836D01*
X123954790Y-87878570D01*
X123954790Y-87878569D01*
X123955500Y-87875000D01*
X123955500Y-87625000D01*
X123943663Y-87565493D01*
X123927372Y-87541111D01*
X123915341Y-87491944D01*
X123927372Y-87458888D01*
X123934144Y-87448754D01*
X123943663Y-87434507D01*
X123946184Y-87421836D01*
X123954790Y-87378570D01*
X123954790Y-87378569D01*
X123955500Y-87375000D01*
X123955500Y-87125000D01*
X123943663Y-87065493D01*
X123927372Y-87041111D01*
X123915341Y-86991944D01*
X123927372Y-86958888D01*
X123939615Y-86940565D01*
X123943663Y-86934507D01*
X123946184Y-86921836D01*
X123954790Y-86878570D01*
X123954790Y-86878569D01*
X123955500Y-86875000D01*
X123955500Y-86625000D01*
X123943663Y-86565493D01*
X123927372Y-86541111D01*
X123915341Y-86491944D01*
X123927372Y-86458888D01*
X123928908Y-86456590D01*
X123943663Y-86434507D01*
X123945525Y-86425149D01*
X123954790Y-86378570D01*
X123954790Y-86378569D01*
X123955500Y-86375000D01*
X123955500Y-86125000D01*
X123943663Y-86065493D01*
X123927372Y-86041111D01*
X123915341Y-85991944D01*
X123927372Y-85958888D01*
X123939615Y-85940565D01*
X123943663Y-85934507D01*
X123946184Y-85921836D01*
X123954790Y-85878570D01*
X123954790Y-85878569D01*
X123955500Y-85875000D01*
X123955500Y-85625000D01*
X123943663Y-85565493D01*
X123927372Y-85541111D01*
X123915341Y-85491944D01*
X123927372Y-85458888D01*
X123928411Y-85457334D01*
X123943663Y-85434507D01*
X123946184Y-85421836D01*
X123954790Y-85378570D01*
X123954790Y-85378569D01*
X123955500Y-85375000D01*
X123955500Y-85125000D01*
X123943663Y-85065493D01*
X123927372Y-85041111D01*
X123915341Y-84991944D01*
X123927372Y-84958888D01*
X123928089Y-84957816D01*
X123943663Y-84934507D01*
X123946184Y-84921836D01*
X123954790Y-84878570D01*
X123954790Y-84878569D01*
X123955500Y-84875000D01*
X123955500Y-84625000D01*
X123954790Y-84621430D01*
X123945085Y-84572640D01*
X123945084Y-84572638D01*
X123943663Y-84565493D01*
X123927372Y-84541111D01*
X123915341Y-84491944D01*
X123927372Y-84458888D01*
X123939615Y-84440565D01*
X123943663Y-84434507D01*
X123955500Y-84375000D01*
X123955500Y-84125000D01*
X123943663Y-84065493D01*
X123946198Y-84064989D01*
X123944491Y-84025980D01*
X123953539Y-84007113D01*
X123985347Y-83959508D01*
X123990817Y-83946303D01*
X124002454Y-83887798D01*
X124000836Y-83877284D01*
X123998262Y-83875027D01*
X123998119Y-83875000D01*
X123125002Y-83874999D01*
X123124996Y-83875000D01*
X122008048Y-83874999D01*
X121998052Y-83878637D01*
X121996320Y-83881638D01*
X121998665Y-83893427D01*
X121990964Y-83943457D01*
X121952907Y-83976832D01*
X121902300Y-83977936D01*
X121873761Y-83960189D01*
X116247174Y-78333604D01*
X116225782Y-78287728D01*
X116225500Y-78281278D01*
X116225500Y-77437479D01*
X116225601Y-77433606D01*
X116227255Y-77402052D01*
X116227662Y-77394286D01*
X116218935Y-77371551D01*
X116215636Y-77360415D01*
X116212189Y-77344198D01*
X116210572Y-77336591D01*
X116205576Y-77329715D01*
X116196358Y-77312737D01*
X116193313Y-77304804D01*
X116193090Y-77304529D01*
X116175956Y-77287395D01*
X116168414Y-77278565D01*
X116158805Y-77265339D01*
X116154235Y-77259049D01*
X116147460Y-77255137D01*
X116146996Y-77254869D01*
X116131671Y-77243110D01*
X115159182Y-76270622D01*
X115156515Y-76267812D01*
X115135358Y-76244315D01*
X115135359Y-76244315D01*
X115130153Y-76238534D01*
X115123046Y-76235370D01*
X115123045Y-76235369D01*
X115107897Y-76228625D01*
X115097699Y-76223088D01*
X115077271Y-76209822D01*
X115068880Y-76208493D01*
X115050359Y-76203007D01*
X115042592Y-76199549D01*
X115042240Y-76199512D01*
X115018002Y-76199512D01*
X115006428Y-76198601D01*
X114982605Y-76194828D01*
X114975093Y-76196841D01*
X114975090Y-76196841D01*
X114974534Y-76196990D01*
X114955380Y-76199512D01*
X113932156Y-76199512D01*
X113928283Y-76199411D01*
X113896721Y-76197757D01*
X113888954Y-76197350D01*
X113866214Y-76206079D01*
X113855088Y-76209375D01*
X113831259Y-76214440D01*
X113824386Y-76219434D01*
X113807410Y-76228651D01*
X113799473Y-76231698D01*
X113799198Y-76231921D01*
X113782063Y-76249056D01*
X113773233Y-76256598D01*
X113753717Y-76270777D01*
X113749828Y-76277513D01*
X113749537Y-76278016D01*
X113737778Y-76293341D01*
X113508294Y-76522826D01*
X113462418Y-76544218D01*
X113455968Y-76544500D01*
X112777124Y-76544500D01*
X112773251Y-76544399D01*
X112741709Y-76542746D01*
X112733942Y-76542339D01*
X112711207Y-76551066D01*
X112700081Y-76554362D01*
X112676247Y-76559428D01*
X112669953Y-76564001D01*
X112669951Y-76564002D01*
X112669370Y-76564424D01*
X112652393Y-76573642D01*
X112649909Y-76574595D01*
X112649906Y-76574597D01*
X112644460Y-76576687D01*
X112644185Y-76576910D01*
X112627051Y-76594044D01*
X112618221Y-76601586D01*
X112598705Y-76615765D01*
X112594816Y-76622501D01*
X112594525Y-76623004D01*
X112582766Y-76638329D01*
X112570948Y-76650147D01*
X112525072Y-76671539D01*
X112485951Y-76664218D01*
X112378193Y-76611195D01*
X112350489Y-76597563D01*
X112153827Y-76546336D01*
X112150088Y-76546140D01*
X111954627Y-76535896D01*
X111954624Y-76535896D01*
X111950882Y-76535700D01*
X111749942Y-76566090D01*
X111746427Y-76567383D01*
X111746424Y-76567384D01*
X111572326Y-76631440D01*
X111559218Y-76636263D01*
X111556031Y-76638239D01*
X111389682Y-76741379D01*
X111389679Y-76741381D01*
X111386499Y-76743353D01*
X111383777Y-76745927D01*
X111345542Y-76782084D01*
X111238841Y-76882986D01*
X111236695Y-76886051D01*
X111236694Y-76886052D01*
X111158544Y-76997662D01*
X111122277Y-77049457D01*
X111041567Y-77235967D01*
X111040802Y-77239629D01*
X111040801Y-77239632D01*
X111019510Y-77341547D01*
X111000008Y-77434897D01*
X110999299Y-77638120D01*
X111039468Y-77837334D01*
X111040932Y-77840784D01*
X111040933Y-77840786D01*
X111117118Y-78020265D01*
X111118874Y-78024403D01*
X111234273Y-78191685D01*
X111309974Y-78264280D01*
X111332322Y-78309696D01*
X111320248Y-78358854D01*
X111311081Y-78370014D01*
X108523414Y-81157682D01*
X106088787Y-83592309D01*
X106042911Y-83613701D01*
X106003661Y-83605000D01*
X105449000Y-83604999D01*
X105401434Y-83587686D01*
X105376124Y-83543849D01*
X105375000Y-83530998D01*
X105375001Y-83428999D01*
X105392314Y-83381433D01*
X105436152Y-83356124D01*
X105449001Y-83355000D01*
X105996952Y-83355001D01*
X106006948Y-83351363D01*
X106010000Y-83346076D01*
X106010000Y-83314881D01*
X106009438Y-83308460D01*
X105995318Y-83228378D01*
X105990958Y-83216398D01*
X105937521Y-83123843D01*
X105929327Y-83114078D01*
X105847460Y-83045384D01*
X105830809Y-83035770D01*
X105831481Y-83034606D01*
X105798188Y-83006669D01*
X105789398Y-82956819D01*
X105814708Y-82912982D01*
X105823444Y-82906676D01*
X105862676Y-82882493D01*
X105868492Y-82878908D01*
X105933990Y-82792774D01*
X105960499Y-82701233D01*
X105960500Y-82353154D01*
X105945688Y-82273622D01*
X105888908Y-82181508D01*
X105845118Y-82148209D01*
X105829708Y-82136491D01*
X105802325Y-82093918D01*
X105800500Y-82077587D01*
X105800500Y-81655122D01*
X105817813Y-81607556D01*
X105822174Y-81602796D01*
X111397797Y-76027174D01*
X111443673Y-76005782D01*
X111450123Y-76005500D01*
X112850000Y-76005500D01*
X112853569Y-76004790D01*
X112853570Y-76004790D01*
X112902360Y-75995085D01*
X112902362Y-75995084D01*
X112909507Y-75993663D01*
X112959955Y-75959955D01*
X112993663Y-75909507D01*
X113005500Y-75850000D01*
X113005500Y-75132792D01*
X113497490Y-75132792D01*
X113502029Y-75186840D01*
X113503330Y-75193927D01*
X113558088Y-75384892D01*
X113560739Y-75391588D01*
X113651547Y-75568282D01*
X113655452Y-75574340D01*
X113778847Y-75730027D01*
X113783853Y-75735211D01*
X113935140Y-75863965D01*
X113941059Y-75868079D01*
X114114473Y-75964998D01*
X114121074Y-75967881D01*
X114310008Y-76029269D01*
X114317053Y-76030818D01*
X114402043Y-76040953D01*
X114412400Y-76038524D01*
X114415000Y-76035049D01*
X114415000Y-75138048D01*
X114413500Y-75133925D01*
X114665000Y-75133925D01*
X114665000Y-76030402D01*
X114668638Y-76040398D01*
X114672875Y-76042844D01*
X114719589Y-76039250D01*
X114726687Y-76037998D01*
X114918033Y-75984574D01*
X114924741Y-75981972D01*
X115102062Y-75892400D01*
X115108151Y-75888536D01*
X115264696Y-75766230D01*
X115269915Y-75761260D01*
X115399725Y-75610873D01*
X115403873Y-75604993D01*
X115502004Y-75432250D01*
X115504932Y-75425675D01*
X115567640Y-75237168D01*
X115569237Y-75230144D01*
X115580884Y-75137944D01*
X115578528Y-75127573D01*
X115575137Y-75125000D01*
X114678048Y-75125000D01*
X114668052Y-75128638D01*
X114665000Y-75133925D01*
X114413500Y-75133925D01*
X114411362Y-75128052D01*
X114406075Y-75125000D01*
X113509884Y-75125000D01*
X113499888Y-75128638D01*
X113497490Y-75132792D01*
X113005500Y-75132792D01*
X113005500Y-74450123D01*
X113022813Y-74402557D01*
X113027174Y-74397797D01*
X113252798Y-74172173D01*
X113298674Y-74150781D01*
X113305124Y-74150499D01*
X113723491Y-74150499D01*
X113771057Y-74167812D01*
X113796367Y-74211649D01*
X113787577Y-74261499D01*
X113780178Y-74272065D01*
X113671832Y-74401186D01*
X113667763Y-74407130D01*
X113572054Y-74581223D01*
X113569218Y-74587840D01*
X113509150Y-74777198D01*
X113507650Y-74784254D01*
X113498926Y-74862033D01*
X113501428Y-74872372D01*
X113504993Y-74875000D01*
X115569696Y-74875000D01*
X115595537Y-74865594D01*
X115610035Y-74853429D01*
X115660654Y-74853429D01*
X115687671Y-74870640D01*
X122677826Y-81860795D01*
X122699218Y-81906671D01*
X122699500Y-81913121D01*
X122699501Y-82421547D01*
X122699501Y-82895500D01*
X122682188Y-82943066D01*
X122638351Y-82968376D01*
X122625501Y-82969500D01*
X122200000Y-82969500D01*
X122196431Y-82970210D01*
X122196430Y-82970210D01*
X122147640Y-82979915D01*
X122147638Y-82979916D01*
X122140493Y-82981337D01*
X122090045Y-83015045D01*
X122056337Y-83065493D01*
X122054916Y-83072638D01*
X122054915Y-83072640D01*
X122045210Y-83121430D01*
X122044500Y-83125000D01*
X122044500Y-83375000D01*
X122045210Y-83378569D01*
X122045210Y-83378570D01*
X122056337Y-83434507D01*
X122053802Y-83435011D01*
X122055509Y-83474020D01*
X122046461Y-83492887D01*
X122014653Y-83540492D01*
X122009183Y-83553697D01*
X121997546Y-83612202D01*
X121999164Y-83622716D01*
X122001738Y-83624973D01*
X122001881Y-83625000D01*
X122874998Y-83625001D01*
X122875004Y-83625000D01*
X123991952Y-83625001D01*
X124001948Y-83621363D01*
X124003680Y-83618363D01*
X123990817Y-83553697D01*
X123985347Y-83540492D01*
X123953539Y-83492887D01*
X123941508Y-83443718D01*
X123943859Y-83434546D01*
X123943663Y-83434507D01*
X123954790Y-83378570D01*
X123954790Y-83378569D01*
X123955500Y-83375000D01*
X123955500Y-83125000D01*
X123954790Y-83121430D01*
X123945085Y-83072640D01*
X123945084Y-83072638D01*
X123943663Y-83065493D01*
X123909955Y-83015045D01*
X123859507Y-82981337D01*
X123852362Y-82979916D01*
X123852360Y-82979915D01*
X123803570Y-82970210D01*
X123803569Y-82970210D01*
X123800000Y-82969500D01*
X123374500Y-82969500D01*
X123326934Y-82952187D01*
X123301624Y-82908350D01*
X123300500Y-82895500D01*
X123300500Y-81811158D01*
X123300829Y-81806684D01*
X123302222Y-81802626D01*
X123300712Y-81762392D01*
X123300552Y-81758144D01*
X123300500Y-81755368D01*
X123300500Y-81731152D01*
X123299875Y-81727794D01*
X123299562Y-81724408D01*
X123299665Y-81724399D01*
X123299092Y-81719259D01*
X123298281Y-81697661D01*
X123298025Y-81690835D01*
X123292389Y-81677716D01*
X123287631Y-81662056D01*
X123286268Y-81654737D01*
X123285017Y-81648019D01*
X123281430Y-81642199D01*
X123270091Y-81623803D01*
X123265095Y-81614185D01*
X123255930Y-81592852D01*
X123255925Y-81592844D01*
X123253865Y-81588049D01*
X123248544Y-81581571D01*
X123242975Y-81576002D01*
X123232307Y-81562507D01*
X123229900Y-81558602D01*
X123226316Y-81552787D01*
X123220877Y-81548651D01*
X123220876Y-81548650D01*
X123202947Y-81535017D01*
X123195412Y-81528439D01*
X121816973Y-80150000D01*
X124994500Y-80150000D01*
X124994500Y-82350000D01*
X125006337Y-82409507D01*
X125040045Y-82459955D01*
X125090493Y-82493663D01*
X125097638Y-82495084D01*
X125097640Y-82495085D01*
X125146430Y-82504790D01*
X125146431Y-82504790D01*
X125150000Y-82505500D01*
X127350000Y-82505500D01*
X127353569Y-82504790D01*
X127353570Y-82504790D01*
X127402360Y-82495085D01*
X127402362Y-82495084D01*
X127409507Y-82493663D01*
X127459955Y-82459955D01*
X127493663Y-82409507D01*
X127505500Y-82350000D01*
X127505500Y-80150000D01*
X127493663Y-80090493D01*
X127459955Y-80040045D01*
X127409507Y-80006337D01*
X127402362Y-80004916D01*
X127402360Y-80004915D01*
X127353570Y-79995210D01*
X127353569Y-79995210D01*
X127350000Y-79994500D01*
X125150000Y-79994500D01*
X125146431Y-79995210D01*
X125146430Y-79995210D01*
X125097640Y-80004915D01*
X125097638Y-80004916D01*
X125090493Y-80006337D01*
X125040045Y-80040045D01*
X125006337Y-80090493D01*
X124994500Y-80150000D01*
X121816973Y-80150000D01*
X115342084Y-73675112D01*
X115339148Y-73671710D01*
X115337262Y-73667852D01*
X115304599Y-73637553D01*
X115302599Y-73635627D01*
X115285503Y-73618531D01*
X115282691Y-73616602D01*
X115280070Y-73614424D01*
X115280136Y-73614345D01*
X115276113Y-73611129D01*
X115255246Y-73591772D01*
X115241981Y-73586479D01*
X115227547Y-73578772D01*
X115221407Y-73574561D01*
X115221406Y-73574561D01*
X115215771Y-73570695D01*
X115188100Y-73564128D01*
X115177767Y-73560860D01*
X115156190Y-73552252D01*
X115151340Y-73550317D01*
X115142997Y-73549499D01*
X115135114Y-73549499D01*
X115118027Y-73547499D01*
X115113575Y-73546442D01*
X115113573Y-73546442D01*
X115106924Y-73544864D01*
X115085528Y-73547776D01*
X115077835Y-73548823D01*
X115067856Y-73549499D01*
X113203167Y-73549499D01*
X113198689Y-73549170D01*
X113194629Y-73547776D01*
X113187803Y-73548032D01*
X113187801Y-73548032D01*
X113150131Y-73549447D01*
X113147354Y-73549499D01*
X113123155Y-73549499D01*
X113119802Y-73550124D01*
X113116410Y-73550437D01*
X113116401Y-73550335D01*
X113111267Y-73550907D01*
X113082838Y-73551974D01*
X113076561Y-73554671D01*
X113076556Y-73554672D01*
X113069720Y-73557609D01*
X113054057Y-73562368D01*
X113051346Y-73562873D01*
X113040022Y-73564982D01*
X113030754Y-73570695D01*
X113015807Y-73579908D01*
X113006189Y-73584903D01*
X112984857Y-73594068D01*
X112984853Y-73594070D01*
X112980052Y-73596133D01*
X112973575Y-73601454D01*
X112968005Y-73607024D01*
X112954513Y-73617690D01*
X112944790Y-73623683D01*
X112940654Y-73629122D01*
X112927016Y-73647057D01*
X112920438Y-73654591D01*
X112602203Y-73972826D01*
X112556327Y-73994218D01*
X112549877Y-73994500D01*
X111150000Y-73994500D01*
X111146431Y-73995210D01*
X111146430Y-73995210D01*
X111097640Y-74004915D01*
X111097638Y-74004916D01*
X111090493Y-74006337D01*
X111040045Y-74040045D01*
X111006337Y-74090493D01*
X110994500Y-74150000D01*
X110994500Y-75549876D01*
X110977187Y-75597442D01*
X110972826Y-75602202D01*
X105325110Y-81249920D01*
X105321711Y-81252854D01*
X105317854Y-81254739D01*
X105313207Y-81259749D01*
X105287568Y-81287388D01*
X105285642Y-81289388D01*
X105268532Y-81306498D01*
X105266600Y-81309314D01*
X105264428Y-81311928D01*
X105264349Y-81311862D01*
X105261122Y-81315897D01*
X105241774Y-81336755D01*
X105236482Y-81350019D01*
X105228775Y-81364454D01*
X105220696Y-81376230D01*
X105214125Y-81403917D01*
X105210860Y-81414240D01*
X105200319Y-81440661D01*
X105199501Y-81449004D01*
X105199501Y-81456883D01*
X105197501Y-81473968D01*
X105194865Y-81485077D01*
X105195787Y-81491849D01*
X105198825Y-81514173D01*
X105199501Y-81524152D01*
X105199500Y-82077866D01*
X105182187Y-82125432D01*
X105164330Y-82140860D01*
X105131508Y-82161092D01*
X105066010Y-82247226D01*
X105039501Y-82338767D01*
X105039501Y-82343986D01*
X105039500Y-82524877D01*
X105022187Y-82572444D01*
X105017826Y-82577203D01*
X104667204Y-82927826D01*
X104621328Y-82949218D01*
X104614878Y-82949500D01*
X103973154Y-82949500D01*
X103969799Y-82950125D01*
X103969797Y-82950125D01*
X103949121Y-82953976D01*
X103890021Y-82964983D01*
X103889050Y-82965581D01*
X103868008Y-82969500D01*
X103200000Y-82969500D01*
X103196431Y-82970210D01*
X103196430Y-82970210D01*
X103147640Y-82979915D01*
X103147638Y-82979916D01*
X103140493Y-82981337D01*
X103090045Y-83015045D01*
X103056337Y-83065493D01*
X103054916Y-83072638D01*
X103054915Y-83072640D01*
X103045210Y-83121430D01*
X103044500Y-83125000D01*
X103044500Y-83375000D01*
X103045210Y-83378569D01*
X103045210Y-83378570D01*
X103056337Y-83434507D01*
X103053802Y-83435011D01*
X103055509Y-83474020D01*
X103046461Y-83492887D01*
X103014653Y-83540492D01*
X103009183Y-83553697D01*
X102997546Y-83612202D01*
X102999164Y-83622716D01*
X103001738Y-83624973D01*
X103001881Y-83625000D01*
X104051000Y-83625001D01*
X104098566Y-83642314D01*
X104123876Y-83686151D01*
X104125000Y-83699002D01*
X104124999Y-83801001D01*
X104107686Y-83848567D01*
X104063848Y-83873876D01*
X104050999Y-83875000D01*
X103008048Y-83874999D01*
X102998052Y-83878637D01*
X102996320Y-83881637D01*
X99150000Y-83881637D01*
X99150000Y-80150000D01*
X99494500Y-80150000D01*
X99494500Y-82350000D01*
X99506337Y-82409507D01*
X99540045Y-82459955D01*
X99590493Y-82493663D01*
X99597638Y-82495084D01*
X99597640Y-82495085D01*
X99646430Y-82504790D01*
X99646431Y-82504790D01*
X99650000Y-82505500D01*
X101850000Y-82505500D01*
X101853569Y-82504790D01*
X101853570Y-82504790D01*
X101902360Y-82495085D01*
X101902362Y-82495084D01*
X101909507Y-82493663D01*
X101959955Y-82459955D01*
X101993663Y-82409507D01*
X102005500Y-82350000D01*
X102005500Y-80150000D01*
X101993663Y-80090493D01*
X101959955Y-80040045D01*
X101909507Y-80006337D01*
X101902362Y-80004916D01*
X101902360Y-80004915D01*
X101853570Y-79995210D01*
X101853569Y-79995210D01*
X101850000Y-79994500D01*
X99650000Y-79994500D01*
X99646431Y-79995210D01*
X99646430Y-79995210D01*
X99597640Y-80004915D01*
X99597638Y-80004916D01*
X99590493Y-80006337D01*
X99540045Y-80040045D01*
X99506337Y-80090493D01*
X99494500Y-80150000D01*
X99150000Y-80150000D01*
X99150000Y-78047587D01*
X99152724Y-78027694D01*
X99153494Y-78024937D01*
X99153494Y-78024936D01*
X99154798Y-78020264D01*
X99156509Y-77855115D01*
X99156575Y-77852672D01*
X99161411Y-77741914D01*
X99161623Y-77738693D01*
X99170750Y-77634370D01*
X99189756Y-77417135D01*
X99190102Y-77413969D01*
X99202316Y-77321196D01*
X99202807Y-77318005D01*
X99258863Y-77000101D01*
X99259493Y-76996936D01*
X99273713Y-76932790D01*
X99279735Y-76905624D01*
X99280492Y-76902533D01*
X99362209Y-76597563D01*
X99364047Y-76590705D01*
X99364950Y-76587606D01*
X99375432Y-76554362D01*
X99393076Y-76498401D01*
X99394104Y-76495373D01*
X99502762Y-76196841D01*
X99504526Y-76191994D01*
X99505696Y-76188985D01*
X99541468Y-76102624D01*
X99542768Y-76099669D01*
X99571280Y-76038524D01*
X99679217Y-75807053D01*
X99680624Y-75804199D01*
X99723812Y-75721237D01*
X99725364Y-75718408D01*
X99783059Y-75618477D01*
X99886778Y-75438831D01*
X99888443Y-75436088D01*
X99938699Y-75357204D01*
X99940492Y-75354520D01*
X100092068Y-75138048D01*
X100125658Y-75090077D01*
X100127558Y-75087486D01*
X100184486Y-75013297D01*
X100186469Y-75010825D01*
X100324234Y-74846644D01*
X100394020Y-74763477D01*
X100396148Y-74761051D01*
X100459286Y-74692147D01*
X100461519Y-74689814D01*
X100689824Y-74461510D01*
X100692156Y-74459278D01*
X100755552Y-74401186D01*
X100761080Y-74396121D01*
X100763502Y-74393997D01*
X101010813Y-74186480D01*
X101013285Y-74184495D01*
X101087487Y-74127558D01*
X101087503Y-74127546D01*
X101090106Y-74125638D01*
X101308343Y-73972826D01*
X101354546Y-73940474D01*
X101357221Y-73938687D01*
X101436099Y-73888437D01*
X101438859Y-73886762D01*
X101718426Y-73725354D01*
X101721257Y-73723801D01*
X101804184Y-73680632D01*
X101804214Y-73680617D01*
X101807081Y-73679203D01*
X102000009Y-73589240D01*
X102099661Y-73542772D01*
X102102615Y-73541472D01*
X102189007Y-73505687D01*
X102192016Y-73504517D01*
X102495415Y-73394090D01*
X102498403Y-73393076D01*
X102587614Y-73364947D01*
X102590647Y-73364063D01*
X102855709Y-73293040D01*
X102902550Y-73280489D01*
X102905685Y-73279722D01*
X102950400Y-73269809D01*
X102996932Y-73259493D01*
X103000084Y-73258866D01*
X103112625Y-73239022D01*
X103318023Y-73202805D01*
X103321214Y-73202314D01*
X103370876Y-73195776D01*
X103413947Y-73190105D01*
X103417126Y-73189758D01*
X103738698Y-73161623D01*
X103741916Y-73161411D01*
X103852690Y-73156575D01*
X103855115Y-73156509D01*
X104020265Y-73154798D01*
X104024936Y-73153494D01*
X104024938Y-73153494D01*
X104027696Y-73152724D01*
X104047589Y-73150000D01*
X122952413Y-73150000D01*
X122972303Y-73152724D01*
G37*
%TD.AperFunction*%
%TD*%
M02*
