M48
; DRILL file {KiCad 5.99.0-unknown-7565f60a0~106~ubuntu20.04.1} date Sun Dec 13 15:15:32 2020
; FORMAT={-:-/ absolute / inch / decimal}
; #@! TF.CreationDate,2020-12-13T15:15:32+00:00
; #@! TF.GenerationSoftware,Kicad,Pcbnew,5.99.0-unknown-7565f60a0~106~ubuntu20.04.1
FMAT,2
INCH
T1C0.0118
T2C0.0394
%
G90
G05
T1
X3.9764Y-2.9528
X3.9764Y-4.0551
X4.0945Y-3.2283
X4.0945Y-3.7795
X4.1831Y-3.2283
X4.1831Y-3.2677
X4.3504Y-2.9528
X4.3504Y-3.0512
X4.626Y-2.9528
X4.7835Y-3.2677
X4.8425Y-3.7795
X4.8661Y-3.2407
X4.9606Y-2.9528
X4.9606Y-4.0551
T2
X4.4094Y-2.9528
X4.4094Y-3.0528
X4.4094Y-3.1528
X4.4094Y-3.2528
X4.4094Y-3.3528
X4.4094Y-3.4528
X4.4094Y-3.5528
X4.4094Y-3.6528
X4.4094Y-3.7528
X4.4094Y-3.8528
X4.4094Y-3.9528
X4.4094Y-4.0528
X4.5094Y-2.9528
X4.5094Y-3.0528
X4.5094Y-3.1528
X4.5094Y-3.2528
X4.5094Y-3.3528
X4.5094Y-3.4528
X4.5094Y-3.5528
X4.5094Y-3.6528
X4.5094Y-3.7528
X4.5094Y-3.8528
X4.5094Y-3.9528
X4.5094Y-4.0528
T0
M30
