%TF.GenerationSoftware,KiCad,Pcbnew,5.99.0-unknown-7565f60a0~106~ubuntu20.04.1*%
%TF.CreationDate,2020-12-13T15:13:58+00:00*%
%TF.ProjectId,24pin_flex_interposer,32347069-6e5f-4666-9c65-785f696e7465,rev?*%
%TF.SameCoordinates,Original*%
%TF.FileFunction,Legend,Top*%
%TF.FilePolarity,Positive*%
%FSLAX46Y46*%
G04 Gerber Fmt 4.6, Leading zero omitted, Abs format (unit mm)*
G04 Created by KiCad (PCBNEW 5.99.0-unknown-7565f60a0~106~ubuntu20.04.1) date 2020-12-13 15:13:58*
%MOMM*%
%LPD*%
G01*
G04 APERTURE LIST*
%ADD10C,0.150000*%
%ADD11C,0.100000*%
%ADD12C,0.120000*%
G04 APERTURE END LIST*
D10*
X100507142Y-93157142D02*
X101150000Y-93157142D01*
X101278571Y-93200000D01*
X101364285Y-93285714D01*
X101407142Y-93414285D01*
X101407142Y-93500000D01*
X101407142Y-92300000D02*
X101407142Y-92728571D01*
X100507142Y-92728571D01*
X101321428Y-91485714D02*
X101364285Y-91528571D01*
X101407142Y-91657142D01*
X101407142Y-91742857D01*
X101364285Y-91871428D01*
X101278571Y-91957142D01*
X101192857Y-92000000D01*
X101021428Y-92042857D01*
X100892857Y-92042857D01*
X100721428Y-92000000D01*
X100635714Y-91957142D01*
X100550000Y-91871428D01*
X100507142Y-91742857D01*
X100507142Y-91657142D01*
X100550000Y-91528571D01*
X100592857Y-91485714D01*
X100507142Y-90842857D02*
X101150000Y-90842857D01*
X101278571Y-90885714D01*
X101364285Y-90971428D01*
X101407142Y-91100000D01*
X101407142Y-91185714D01*
X101407142Y-89985714D02*
X101407142Y-90414285D01*
X100507142Y-90414285D01*
X101321428Y-89171428D02*
X101364285Y-89214285D01*
X101407142Y-89342857D01*
X101407142Y-89428571D01*
X101364285Y-89557142D01*
X101278571Y-89642857D01*
X101192857Y-89685714D01*
X101021428Y-89728571D01*
X100892857Y-89728571D01*
X100721428Y-89685714D01*
X100635714Y-89642857D01*
X100550000Y-89557142D01*
X100507142Y-89428571D01*
X100507142Y-89342857D01*
X100550000Y-89214285D01*
X100592857Y-89171428D01*
X100507142Y-88528571D02*
X101150000Y-88528571D01*
X101278571Y-88571428D01*
X101364285Y-88657142D01*
X101407142Y-88785714D01*
X101407142Y-88871428D01*
X101407142Y-87671428D02*
X101407142Y-88100000D01*
X100507142Y-88100000D01*
X101321428Y-86857142D02*
X101364285Y-86900000D01*
X101407142Y-87028571D01*
X101407142Y-87114285D01*
X101364285Y-87242857D01*
X101278571Y-87328571D01*
X101192857Y-87371428D01*
X101021428Y-87414285D01*
X100892857Y-87414285D01*
X100721428Y-87371428D01*
X100635714Y-87328571D01*
X100550000Y-87242857D01*
X100507142Y-87114285D01*
X100507142Y-87028571D01*
X100550000Y-86900000D01*
X100592857Y-86857142D01*
X100507142Y-86214285D02*
X101150000Y-86214285D01*
X101278571Y-86257142D01*
X101364285Y-86342857D01*
X101407142Y-86471428D01*
X101407142Y-86557142D01*
X101407142Y-85357142D02*
X101407142Y-85785714D01*
X100507142Y-85785714D01*
X101321428Y-84542857D02*
X101364285Y-84585714D01*
X101407142Y-84714285D01*
X101407142Y-84800000D01*
X101364285Y-84928571D01*
X101278571Y-85014285D01*
X101192857Y-85057142D01*
X101021428Y-85100000D01*
X100892857Y-85100000D01*
X100721428Y-85057142D01*
X100635714Y-85014285D01*
X100550000Y-84928571D01*
X100507142Y-84800000D01*
X100507142Y-84714285D01*
X100550000Y-84585714D01*
X100592857Y-84542857D01*
D11*
X124066428Y-77403857D02*
X123799761Y-77403857D01*
X123799761Y-77822904D02*
X123799761Y-77022904D01*
X124180714Y-77022904D01*
X124485476Y-77822904D02*
X124485476Y-77289571D01*
X124485476Y-77441952D02*
X124523571Y-77365761D01*
X124561666Y-77327666D01*
X124637857Y-77289571D01*
X124714047Y-77289571D01*
X125095000Y-77822904D02*
X125018809Y-77784809D01*
X124980714Y-77746714D01*
X124942619Y-77670523D01*
X124942619Y-77441952D01*
X124980714Y-77365761D01*
X125018809Y-77327666D01*
X125095000Y-77289571D01*
X125209285Y-77289571D01*
X125285476Y-77327666D01*
X125323571Y-77365761D01*
X125361666Y-77441952D01*
X125361666Y-77670523D01*
X125323571Y-77746714D01*
X125285476Y-77784809D01*
X125209285Y-77822904D01*
X125095000Y-77822904D01*
X125704523Y-77822904D02*
X125704523Y-77289571D01*
X125704523Y-77365761D02*
X125742619Y-77327666D01*
X125818809Y-77289571D01*
X125933095Y-77289571D01*
X126009285Y-77327666D01*
X126047380Y-77403857D01*
X126047380Y-77822904D01*
X126047380Y-77403857D02*
X126085476Y-77327666D01*
X126161666Y-77289571D01*
X126275952Y-77289571D01*
X126352142Y-77327666D01*
X126390238Y-77403857D01*
X126390238Y-77822904D01*
X123133095Y-79072809D02*
X123247380Y-79110904D01*
X123437857Y-79110904D01*
X123514047Y-79072809D01*
X123552142Y-79034714D01*
X123590238Y-78958523D01*
X123590238Y-78882333D01*
X123552142Y-78806142D01*
X123514047Y-78768047D01*
X123437857Y-78729952D01*
X123285476Y-78691857D01*
X123209285Y-78653761D01*
X123171190Y-78615666D01*
X123133095Y-78539476D01*
X123133095Y-78463285D01*
X123171190Y-78387095D01*
X123209285Y-78349000D01*
X123285476Y-78310904D01*
X123475952Y-78310904D01*
X123590238Y-78349000D01*
X123856904Y-78577571D02*
X124047380Y-79110904D01*
X124237857Y-78577571D02*
X124047380Y-79110904D01*
X123971190Y-79301380D01*
X123933095Y-79339476D01*
X123856904Y-79377571D01*
X124504523Y-79072809D02*
X124580714Y-79110904D01*
X124733095Y-79110904D01*
X124809285Y-79072809D01*
X124847380Y-78996619D01*
X124847380Y-78958523D01*
X124809285Y-78882333D01*
X124733095Y-78844238D01*
X124618809Y-78844238D01*
X124542619Y-78806142D01*
X124504523Y-78729952D01*
X124504523Y-78691857D01*
X124542619Y-78615666D01*
X124618809Y-78577571D01*
X124733095Y-78577571D01*
X124809285Y-78615666D01*
X125075952Y-78577571D02*
X125380714Y-78577571D01*
X125190238Y-78310904D02*
X125190238Y-78996619D01*
X125228333Y-79072809D01*
X125304523Y-79110904D01*
X125380714Y-79110904D01*
X125952142Y-79072809D02*
X125875952Y-79110904D01*
X125723571Y-79110904D01*
X125647380Y-79072809D01*
X125609285Y-78996619D01*
X125609285Y-78691857D01*
X125647380Y-78615666D01*
X125723571Y-78577571D01*
X125875952Y-78577571D01*
X125952142Y-78615666D01*
X125990238Y-78691857D01*
X125990238Y-78768047D01*
X125609285Y-78844238D01*
X126333095Y-79110904D02*
X126333095Y-78577571D01*
X126333095Y-78653761D02*
X126371190Y-78615666D01*
X126447380Y-78577571D01*
X126561666Y-78577571D01*
X126637857Y-78615666D01*
X126675952Y-78691857D01*
X126675952Y-79110904D01*
X126675952Y-78691857D02*
X126714047Y-78615666D01*
X126790238Y-78577571D01*
X126904523Y-78577571D01*
X126980714Y-78615666D01*
X127018809Y-78691857D01*
X127018809Y-79110904D01*
X100850952Y-78301904D02*
X101308095Y-78301904D01*
X101079523Y-79101904D02*
X101079523Y-78301904D01*
X101689047Y-79101904D02*
X101612857Y-79063809D01*
X101574761Y-79025714D01*
X101536666Y-78949523D01*
X101536666Y-78720952D01*
X101574761Y-78644761D01*
X101612857Y-78606666D01*
X101689047Y-78568571D01*
X101803333Y-78568571D01*
X101879523Y-78606666D01*
X101917619Y-78644761D01*
X101955714Y-78720952D01*
X101955714Y-78949523D01*
X101917619Y-79025714D01*
X101879523Y-79063809D01*
X101803333Y-79101904D01*
X101689047Y-79101904D01*
X103289047Y-79101904D02*
X102908095Y-79101904D01*
X102908095Y-78301904D01*
X104012857Y-79025714D02*
X103974761Y-79063809D01*
X103860476Y-79101904D01*
X103784285Y-79101904D01*
X103670000Y-79063809D01*
X103593809Y-78987619D01*
X103555714Y-78911428D01*
X103517619Y-78759047D01*
X103517619Y-78644761D01*
X103555714Y-78492380D01*
X103593809Y-78416190D01*
X103670000Y-78340000D01*
X103784285Y-78301904D01*
X103860476Y-78301904D01*
X103974761Y-78340000D01*
X104012857Y-78378095D01*
X104355714Y-79101904D02*
X104355714Y-78301904D01*
X104546190Y-78301904D01*
X104660476Y-78340000D01*
X104736666Y-78416190D01*
X104774761Y-78492380D01*
X104812857Y-78644761D01*
X104812857Y-78759047D01*
X104774761Y-78911428D01*
X104736666Y-78987619D01*
X104660476Y-79063809D01*
X104546190Y-79101904D01*
X104355714Y-79101904D01*
X116422380Y-102508095D02*
X116460476Y-102470000D01*
X116536666Y-102431904D01*
X116727142Y-102431904D01*
X116803333Y-102470000D01*
X116841428Y-102508095D01*
X116879523Y-102584285D01*
X116879523Y-102660476D01*
X116841428Y-102774761D01*
X116384285Y-103231904D01*
X116879523Y-103231904D01*
X117565238Y-102698571D02*
X117565238Y-103231904D01*
X117374761Y-102393809D02*
X117184285Y-102965238D01*
X117679523Y-102965238D01*
X118593809Y-103231904D02*
X118593809Y-102431904D01*
X118784285Y-102431904D01*
X118898571Y-102470000D01*
X118974761Y-102546190D01*
X119012857Y-102622380D01*
X119050952Y-102774761D01*
X119050952Y-102889047D01*
X119012857Y-103041428D01*
X118974761Y-103117619D01*
X118898571Y-103193809D01*
X118784285Y-103231904D01*
X118593809Y-103231904D01*
X119660476Y-102812857D02*
X119774761Y-102850952D01*
X119812857Y-102889047D01*
X119850952Y-102965238D01*
X119850952Y-103079523D01*
X119812857Y-103155714D01*
X119774761Y-103193809D01*
X119698571Y-103231904D01*
X119393809Y-103231904D01*
X119393809Y-102431904D01*
X119660476Y-102431904D01*
X119736666Y-102470000D01*
X119774761Y-102508095D01*
X119812857Y-102584285D01*
X119812857Y-102660476D01*
X119774761Y-102736666D01*
X119736666Y-102774761D01*
X119660476Y-102812857D01*
X119393809Y-102812857D01*
X120612857Y-103231904D02*
X120155714Y-103231904D01*
X120384285Y-103231904D02*
X120384285Y-102431904D01*
X120308095Y-102546190D01*
X120231904Y-102622380D01*
X120155714Y-102660476D01*
X121336666Y-102431904D02*
X120955714Y-102431904D01*
X120917619Y-102812857D01*
X120955714Y-102774761D01*
X121031904Y-102736666D01*
X121222380Y-102736666D01*
X121298571Y-102774761D01*
X121336666Y-102812857D01*
X121374761Y-102889047D01*
X121374761Y-103079523D01*
X121336666Y-103155714D01*
X121298571Y-103193809D01*
X121222380Y-103231904D01*
X121031904Y-103231904D01*
X120955714Y-103193809D01*
X120917619Y-103155714D01*
X116422380Y-99968095D02*
X116460476Y-99930000D01*
X116536666Y-99891904D01*
X116727142Y-99891904D01*
X116803333Y-99930000D01*
X116841428Y-99968095D01*
X116879523Y-100044285D01*
X116879523Y-100120476D01*
X116841428Y-100234761D01*
X116384285Y-100691904D01*
X116879523Y-100691904D01*
X117184285Y-99968095D02*
X117222380Y-99930000D01*
X117298571Y-99891904D01*
X117489047Y-99891904D01*
X117565238Y-99930000D01*
X117603333Y-99968095D01*
X117641428Y-100044285D01*
X117641428Y-100120476D01*
X117603333Y-100234761D01*
X117146190Y-100691904D01*
X117641428Y-100691904D01*
X118593809Y-100691904D02*
X118593809Y-99891904D01*
X118784285Y-99891904D01*
X118898571Y-99930000D01*
X118974761Y-100006190D01*
X119012857Y-100082380D01*
X119050952Y-100234761D01*
X119050952Y-100349047D01*
X119012857Y-100501428D01*
X118974761Y-100577619D01*
X118898571Y-100653809D01*
X118784285Y-100691904D01*
X118593809Y-100691904D01*
X119660476Y-100272857D02*
X119774761Y-100310952D01*
X119812857Y-100349047D01*
X119850952Y-100425238D01*
X119850952Y-100539523D01*
X119812857Y-100615714D01*
X119774761Y-100653809D01*
X119698571Y-100691904D01*
X119393809Y-100691904D01*
X119393809Y-99891904D01*
X119660476Y-99891904D01*
X119736666Y-99930000D01*
X119774761Y-99968095D01*
X119812857Y-100044285D01*
X119812857Y-100120476D01*
X119774761Y-100196666D01*
X119736666Y-100234761D01*
X119660476Y-100272857D01*
X119393809Y-100272857D01*
X120612857Y-100691904D02*
X120155714Y-100691904D01*
X120384285Y-100691904D02*
X120384285Y-99891904D01*
X120308095Y-100006190D01*
X120231904Y-100082380D01*
X120155714Y-100120476D01*
X120879523Y-99891904D02*
X121374761Y-99891904D01*
X121108095Y-100196666D01*
X121222380Y-100196666D01*
X121298571Y-100234761D01*
X121336666Y-100272857D01*
X121374761Y-100349047D01*
X121374761Y-100539523D01*
X121336666Y-100615714D01*
X121298571Y-100653809D01*
X121222380Y-100691904D01*
X120993809Y-100691904D01*
X120917619Y-100653809D01*
X120879523Y-100615714D01*
X116422380Y-97428095D02*
X116460476Y-97390000D01*
X116536666Y-97351904D01*
X116727142Y-97351904D01*
X116803333Y-97390000D01*
X116841428Y-97428095D01*
X116879523Y-97504285D01*
X116879523Y-97580476D01*
X116841428Y-97694761D01*
X116384285Y-98151904D01*
X116879523Y-98151904D01*
X117374761Y-97351904D02*
X117450952Y-97351904D01*
X117527142Y-97390000D01*
X117565238Y-97428095D01*
X117603333Y-97504285D01*
X117641428Y-97656666D01*
X117641428Y-97847142D01*
X117603333Y-97999523D01*
X117565238Y-98075714D01*
X117527142Y-98113809D01*
X117450952Y-98151904D01*
X117374761Y-98151904D01*
X117298571Y-98113809D01*
X117260476Y-98075714D01*
X117222380Y-97999523D01*
X117184285Y-97847142D01*
X117184285Y-97656666D01*
X117222380Y-97504285D01*
X117260476Y-97428095D01*
X117298571Y-97390000D01*
X117374761Y-97351904D01*
X118593809Y-98151904D02*
X118593809Y-97351904D01*
X118784285Y-97351904D01*
X118898571Y-97390000D01*
X118974761Y-97466190D01*
X119012857Y-97542380D01*
X119050952Y-97694761D01*
X119050952Y-97809047D01*
X119012857Y-97961428D01*
X118974761Y-98037619D01*
X118898571Y-98113809D01*
X118784285Y-98151904D01*
X118593809Y-98151904D01*
X119660476Y-97732857D02*
X119774761Y-97770952D01*
X119812857Y-97809047D01*
X119850952Y-97885238D01*
X119850952Y-97999523D01*
X119812857Y-98075714D01*
X119774761Y-98113809D01*
X119698571Y-98151904D01*
X119393809Y-98151904D01*
X119393809Y-97351904D01*
X119660476Y-97351904D01*
X119736666Y-97390000D01*
X119774761Y-97428095D01*
X119812857Y-97504285D01*
X119812857Y-97580476D01*
X119774761Y-97656666D01*
X119736666Y-97694761D01*
X119660476Y-97732857D01*
X119393809Y-97732857D01*
X120612857Y-98151904D02*
X120155714Y-98151904D01*
X120384285Y-98151904D02*
X120384285Y-97351904D01*
X120308095Y-97466190D01*
X120231904Y-97542380D01*
X120155714Y-97580476D01*
X121374761Y-98151904D02*
X120917619Y-98151904D01*
X121146190Y-98151904D02*
X121146190Y-97351904D01*
X121070000Y-97466190D01*
X120993809Y-97542380D01*
X120917619Y-97580476D01*
X116879523Y-95611904D02*
X116422380Y-95611904D01*
X116650952Y-95611904D02*
X116650952Y-94811904D01*
X116574761Y-94926190D01*
X116498571Y-95002380D01*
X116422380Y-95040476D01*
X117336666Y-95154761D02*
X117260476Y-95116666D01*
X117222380Y-95078571D01*
X117184285Y-95002380D01*
X117184285Y-94964285D01*
X117222380Y-94888095D01*
X117260476Y-94850000D01*
X117336666Y-94811904D01*
X117489047Y-94811904D01*
X117565238Y-94850000D01*
X117603333Y-94888095D01*
X117641428Y-94964285D01*
X117641428Y-95002380D01*
X117603333Y-95078571D01*
X117565238Y-95116666D01*
X117489047Y-95154761D01*
X117336666Y-95154761D01*
X117260476Y-95192857D01*
X117222380Y-95230952D01*
X117184285Y-95307142D01*
X117184285Y-95459523D01*
X117222380Y-95535714D01*
X117260476Y-95573809D01*
X117336666Y-95611904D01*
X117489047Y-95611904D01*
X117565238Y-95573809D01*
X117603333Y-95535714D01*
X117641428Y-95459523D01*
X117641428Y-95307142D01*
X117603333Y-95230952D01*
X117565238Y-95192857D01*
X117489047Y-95154761D01*
X118593809Y-95611904D02*
X118593809Y-94811904D01*
X118784285Y-94811904D01*
X118898571Y-94850000D01*
X118974761Y-94926190D01*
X119012857Y-95002380D01*
X119050952Y-95154761D01*
X119050952Y-95269047D01*
X119012857Y-95421428D01*
X118974761Y-95497619D01*
X118898571Y-95573809D01*
X118784285Y-95611904D01*
X118593809Y-95611904D01*
X119660476Y-95192857D02*
X119774761Y-95230952D01*
X119812857Y-95269047D01*
X119850952Y-95345238D01*
X119850952Y-95459523D01*
X119812857Y-95535714D01*
X119774761Y-95573809D01*
X119698571Y-95611904D01*
X119393809Y-95611904D01*
X119393809Y-94811904D01*
X119660476Y-94811904D01*
X119736666Y-94850000D01*
X119774761Y-94888095D01*
X119812857Y-94964285D01*
X119812857Y-95040476D01*
X119774761Y-95116666D01*
X119736666Y-95154761D01*
X119660476Y-95192857D01*
X119393809Y-95192857D01*
X120231904Y-95611904D02*
X120384285Y-95611904D01*
X120460476Y-95573809D01*
X120498571Y-95535714D01*
X120574761Y-95421428D01*
X120612857Y-95269047D01*
X120612857Y-94964285D01*
X120574761Y-94888095D01*
X120536666Y-94850000D01*
X120460476Y-94811904D01*
X120308095Y-94811904D01*
X120231904Y-94850000D01*
X120193809Y-94888095D01*
X120155714Y-94964285D01*
X120155714Y-95154761D01*
X120193809Y-95230952D01*
X120231904Y-95269047D01*
X120308095Y-95307142D01*
X120460476Y-95307142D01*
X120536666Y-95269047D01*
X120574761Y-95230952D01*
X120612857Y-95154761D01*
X116879523Y-93071904D02*
X116422380Y-93071904D01*
X116650952Y-93071904D02*
X116650952Y-92271904D01*
X116574761Y-92386190D01*
X116498571Y-92462380D01*
X116422380Y-92500476D01*
X117565238Y-92271904D02*
X117412857Y-92271904D01*
X117336666Y-92310000D01*
X117298571Y-92348095D01*
X117222380Y-92462380D01*
X117184285Y-92614761D01*
X117184285Y-92919523D01*
X117222380Y-92995714D01*
X117260476Y-93033809D01*
X117336666Y-93071904D01*
X117489047Y-93071904D01*
X117565238Y-93033809D01*
X117603333Y-92995714D01*
X117641428Y-92919523D01*
X117641428Y-92729047D01*
X117603333Y-92652857D01*
X117565238Y-92614761D01*
X117489047Y-92576666D01*
X117336666Y-92576666D01*
X117260476Y-92614761D01*
X117222380Y-92652857D01*
X117184285Y-92729047D01*
X118593809Y-93071904D02*
X118593809Y-92271904D01*
X118784285Y-92271904D01*
X118898571Y-92310000D01*
X118974761Y-92386190D01*
X119012857Y-92462380D01*
X119050952Y-92614761D01*
X119050952Y-92729047D01*
X119012857Y-92881428D01*
X118974761Y-92957619D01*
X118898571Y-93033809D01*
X118784285Y-93071904D01*
X118593809Y-93071904D01*
X119660476Y-92652857D02*
X119774761Y-92690952D01*
X119812857Y-92729047D01*
X119850952Y-92805238D01*
X119850952Y-92919523D01*
X119812857Y-92995714D01*
X119774761Y-93033809D01*
X119698571Y-93071904D01*
X119393809Y-93071904D01*
X119393809Y-92271904D01*
X119660476Y-92271904D01*
X119736666Y-92310000D01*
X119774761Y-92348095D01*
X119812857Y-92424285D01*
X119812857Y-92500476D01*
X119774761Y-92576666D01*
X119736666Y-92614761D01*
X119660476Y-92652857D01*
X119393809Y-92652857D01*
X120117619Y-92271904D02*
X120650952Y-92271904D01*
X120308095Y-93071904D01*
X116879523Y-90531904D02*
X116422380Y-90531904D01*
X116650952Y-90531904D02*
X116650952Y-89731904D01*
X116574761Y-89846190D01*
X116498571Y-89922380D01*
X116422380Y-89960476D01*
X117565238Y-89998571D02*
X117565238Y-90531904D01*
X117374761Y-89693809D02*
X117184285Y-90265238D01*
X117679523Y-90265238D01*
X118593809Y-90531904D02*
X118593809Y-89731904D01*
X118784285Y-89731904D01*
X118898571Y-89770000D01*
X118974761Y-89846190D01*
X119012857Y-89922380D01*
X119050952Y-90074761D01*
X119050952Y-90189047D01*
X119012857Y-90341428D01*
X118974761Y-90417619D01*
X118898571Y-90493809D01*
X118784285Y-90531904D01*
X118593809Y-90531904D01*
X119660476Y-90112857D02*
X119774761Y-90150952D01*
X119812857Y-90189047D01*
X119850952Y-90265238D01*
X119850952Y-90379523D01*
X119812857Y-90455714D01*
X119774761Y-90493809D01*
X119698571Y-90531904D01*
X119393809Y-90531904D01*
X119393809Y-89731904D01*
X119660476Y-89731904D01*
X119736666Y-89770000D01*
X119774761Y-89808095D01*
X119812857Y-89884285D01*
X119812857Y-89960476D01*
X119774761Y-90036666D01*
X119736666Y-90074761D01*
X119660476Y-90112857D01*
X119393809Y-90112857D01*
X120574761Y-89731904D02*
X120193809Y-89731904D01*
X120155714Y-90112857D01*
X120193809Y-90074761D01*
X120270000Y-90036666D01*
X120460476Y-90036666D01*
X120536666Y-90074761D01*
X120574761Y-90112857D01*
X120612857Y-90189047D01*
X120612857Y-90379523D01*
X120574761Y-90455714D01*
X120536666Y-90493809D01*
X120460476Y-90531904D01*
X120270000Y-90531904D01*
X120193809Y-90493809D01*
X120155714Y-90455714D01*
X116879523Y-87991904D02*
X116422380Y-87991904D01*
X116650952Y-87991904D02*
X116650952Y-87191904D01*
X116574761Y-87306190D01*
X116498571Y-87382380D01*
X116422380Y-87420476D01*
X117184285Y-87268095D02*
X117222380Y-87230000D01*
X117298571Y-87191904D01*
X117489047Y-87191904D01*
X117565238Y-87230000D01*
X117603333Y-87268095D01*
X117641428Y-87344285D01*
X117641428Y-87420476D01*
X117603333Y-87534761D01*
X117146190Y-87991904D01*
X117641428Y-87991904D01*
X118593809Y-87991904D02*
X118593809Y-87191904D01*
X118784285Y-87191904D01*
X118898571Y-87230000D01*
X118974761Y-87306190D01*
X119012857Y-87382380D01*
X119050952Y-87534761D01*
X119050952Y-87649047D01*
X119012857Y-87801428D01*
X118974761Y-87877619D01*
X118898571Y-87953809D01*
X118784285Y-87991904D01*
X118593809Y-87991904D01*
X119660476Y-87572857D02*
X119774761Y-87610952D01*
X119812857Y-87649047D01*
X119850952Y-87725238D01*
X119850952Y-87839523D01*
X119812857Y-87915714D01*
X119774761Y-87953809D01*
X119698571Y-87991904D01*
X119393809Y-87991904D01*
X119393809Y-87191904D01*
X119660476Y-87191904D01*
X119736666Y-87230000D01*
X119774761Y-87268095D01*
X119812857Y-87344285D01*
X119812857Y-87420476D01*
X119774761Y-87496666D01*
X119736666Y-87534761D01*
X119660476Y-87572857D01*
X119393809Y-87572857D01*
X120117619Y-87191904D02*
X120612857Y-87191904D01*
X120346190Y-87496666D01*
X120460476Y-87496666D01*
X120536666Y-87534761D01*
X120574761Y-87572857D01*
X120612857Y-87649047D01*
X120612857Y-87839523D01*
X120574761Y-87915714D01*
X120536666Y-87953809D01*
X120460476Y-87991904D01*
X120231904Y-87991904D01*
X120155714Y-87953809D01*
X120117619Y-87915714D01*
X116879523Y-85451904D02*
X116422380Y-85451904D01*
X116650952Y-85451904D02*
X116650952Y-84651904D01*
X116574761Y-84766190D01*
X116498571Y-84842380D01*
X116422380Y-84880476D01*
X117374761Y-84651904D02*
X117450952Y-84651904D01*
X117527142Y-84690000D01*
X117565238Y-84728095D01*
X117603333Y-84804285D01*
X117641428Y-84956666D01*
X117641428Y-85147142D01*
X117603333Y-85299523D01*
X117565238Y-85375714D01*
X117527142Y-85413809D01*
X117450952Y-85451904D01*
X117374761Y-85451904D01*
X117298571Y-85413809D01*
X117260476Y-85375714D01*
X117222380Y-85299523D01*
X117184285Y-85147142D01*
X117184285Y-84956666D01*
X117222380Y-84804285D01*
X117260476Y-84728095D01*
X117298571Y-84690000D01*
X117374761Y-84651904D01*
X118593809Y-85451904D02*
X118593809Y-84651904D01*
X118784285Y-84651904D01*
X118898571Y-84690000D01*
X118974761Y-84766190D01*
X119012857Y-84842380D01*
X119050952Y-84994761D01*
X119050952Y-85109047D01*
X119012857Y-85261428D01*
X118974761Y-85337619D01*
X118898571Y-85413809D01*
X118784285Y-85451904D01*
X118593809Y-85451904D01*
X119660476Y-85032857D02*
X119774761Y-85070952D01*
X119812857Y-85109047D01*
X119850952Y-85185238D01*
X119850952Y-85299523D01*
X119812857Y-85375714D01*
X119774761Y-85413809D01*
X119698571Y-85451904D01*
X119393809Y-85451904D01*
X119393809Y-84651904D01*
X119660476Y-84651904D01*
X119736666Y-84690000D01*
X119774761Y-84728095D01*
X119812857Y-84804285D01*
X119812857Y-84880476D01*
X119774761Y-84956666D01*
X119736666Y-84994761D01*
X119660476Y-85032857D01*
X119393809Y-85032857D01*
X120612857Y-85451904D02*
X120155714Y-85451904D01*
X120384285Y-85451904D02*
X120384285Y-84651904D01*
X120308095Y-84766190D01*
X120231904Y-84842380D01*
X120155714Y-84880476D01*
X116574761Y-82454761D02*
X116498571Y-82416666D01*
X116460476Y-82378571D01*
X116422380Y-82302380D01*
X116422380Y-82264285D01*
X116460476Y-82188095D01*
X116498571Y-82150000D01*
X116574761Y-82111904D01*
X116727142Y-82111904D01*
X116803333Y-82150000D01*
X116841428Y-82188095D01*
X116879523Y-82264285D01*
X116879523Y-82302380D01*
X116841428Y-82378571D01*
X116803333Y-82416666D01*
X116727142Y-82454761D01*
X116574761Y-82454761D01*
X116498571Y-82492857D01*
X116460476Y-82530952D01*
X116422380Y-82607142D01*
X116422380Y-82759523D01*
X116460476Y-82835714D01*
X116498571Y-82873809D01*
X116574761Y-82911904D01*
X116727142Y-82911904D01*
X116803333Y-82873809D01*
X116841428Y-82835714D01*
X116879523Y-82759523D01*
X116879523Y-82607142D01*
X116841428Y-82530952D01*
X116803333Y-82492857D01*
X116727142Y-82454761D01*
X117641428Y-81886000D02*
X118441428Y-81886000D01*
X118289047Y-82911904D02*
X118022380Y-82530952D01*
X117831904Y-82911904D02*
X117831904Y-82111904D01*
X118136666Y-82111904D01*
X118212857Y-82150000D01*
X118250952Y-82188095D01*
X118289047Y-82264285D01*
X118289047Y-82378571D01*
X118250952Y-82454761D01*
X118212857Y-82492857D01*
X118136666Y-82530952D01*
X117831904Y-82530952D01*
X118441428Y-81886000D02*
X119241428Y-81886000D01*
X118631904Y-82911904D02*
X118631904Y-82111904D01*
X118822380Y-82111904D01*
X118936666Y-82150000D01*
X119012857Y-82226190D01*
X119050952Y-82302380D01*
X119089047Y-82454761D01*
X119089047Y-82569047D01*
X119050952Y-82721428D01*
X119012857Y-82797619D01*
X118936666Y-82873809D01*
X118822380Y-82911904D01*
X118631904Y-82911904D01*
X116803333Y-79571904D02*
X116650952Y-79571904D01*
X116574761Y-79610000D01*
X116536666Y-79648095D01*
X116460476Y-79762380D01*
X116422380Y-79914761D01*
X116422380Y-80219523D01*
X116460476Y-80295714D01*
X116498571Y-80333809D01*
X116574761Y-80371904D01*
X116727142Y-80371904D01*
X116803333Y-80333809D01*
X116841428Y-80295714D01*
X116879523Y-80219523D01*
X116879523Y-80029047D01*
X116841428Y-79952857D01*
X116803333Y-79914761D01*
X116727142Y-79876666D01*
X116574761Y-79876666D01*
X116498571Y-79914761D01*
X116460476Y-79952857D01*
X116422380Y-80029047D01*
X118289047Y-80371904D02*
X118022380Y-79990952D01*
X117831904Y-80371904D02*
X117831904Y-79571904D01*
X118136666Y-79571904D01*
X118212857Y-79610000D01*
X118250952Y-79648095D01*
X118289047Y-79724285D01*
X118289047Y-79838571D01*
X118250952Y-79914761D01*
X118212857Y-79952857D01*
X118136666Y-79990952D01*
X117831904Y-79990952D01*
X118593809Y-80333809D02*
X118708095Y-80371904D01*
X118898571Y-80371904D01*
X118974761Y-80333809D01*
X119012857Y-80295714D01*
X119050952Y-80219523D01*
X119050952Y-80143333D01*
X119012857Y-80067142D01*
X118974761Y-80029047D01*
X118898571Y-79990952D01*
X118746190Y-79952857D01*
X118670000Y-79914761D01*
X118631904Y-79876666D01*
X118593809Y-79800476D01*
X118593809Y-79724285D01*
X118631904Y-79648095D01*
X118670000Y-79610000D01*
X118746190Y-79571904D01*
X118936666Y-79571904D01*
X119050952Y-79610000D01*
X116422380Y-74568095D02*
X116460476Y-74530000D01*
X116536666Y-74491904D01*
X116727142Y-74491904D01*
X116803333Y-74530000D01*
X116841428Y-74568095D01*
X116879523Y-74644285D01*
X116879523Y-74720476D01*
X116841428Y-74834761D01*
X116384285Y-75291904D01*
X116879523Y-75291904D01*
X118250952Y-74530000D02*
X118174761Y-74491904D01*
X118060476Y-74491904D01*
X117946190Y-74530000D01*
X117870000Y-74606190D01*
X117831904Y-74682380D01*
X117793809Y-74834761D01*
X117793809Y-74949047D01*
X117831904Y-75101428D01*
X117870000Y-75177619D01*
X117946190Y-75253809D01*
X118060476Y-75291904D01*
X118136666Y-75291904D01*
X118250952Y-75253809D01*
X118289047Y-75215714D01*
X118289047Y-74949047D01*
X118136666Y-74949047D01*
X118631904Y-75291904D02*
X118631904Y-74491904D01*
X119089047Y-75291904D01*
X119089047Y-74491904D01*
X119470000Y-75291904D02*
X119470000Y-74491904D01*
X119660476Y-74491904D01*
X119774761Y-74530000D01*
X119850952Y-74606190D01*
X119889047Y-74682380D01*
X119927142Y-74834761D01*
X119927142Y-74949047D01*
X119889047Y-75101428D01*
X119850952Y-75177619D01*
X119774761Y-75253809D01*
X119660476Y-75291904D01*
X119470000Y-75291904D01*
X116803333Y-77298571D02*
X116803333Y-77831904D01*
X116612857Y-76993809D02*
X116422380Y-77565238D01*
X116917619Y-77565238D01*
X117641428Y-76806000D02*
X118441428Y-76806000D01*
X118289047Y-77831904D02*
X118022380Y-77450952D01*
X117831904Y-77831904D02*
X117831904Y-77031904D01*
X118136666Y-77031904D01*
X118212857Y-77070000D01*
X118250952Y-77108095D01*
X118289047Y-77184285D01*
X118289047Y-77298571D01*
X118250952Y-77374761D01*
X118212857Y-77412857D01*
X118136666Y-77450952D01*
X117831904Y-77450952D01*
X118441428Y-76806000D02*
X119203333Y-76806000D01*
X118593809Y-77793809D02*
X118708095Y-77831904D01*
X118898571Y-77831904D01*
X118974761Y-77793809D01*
X119012857Y-77755714D01*
X119050952Y-77679523D01*
X119050952Y-77603333D01*
X119012857Y-77527142D01*
X118974761Y-77489047D01*
X118898571Y-77450952D01*
X118746190Y-77412857D01*
X118670000Y-77374761D01*
X118631904Y-77336666D01*
X118593809Y-77260476D01*
X118593809Y-77184285D01*
X118631904Y-77108095D01*
X118670000Y-77070000D01*
X118746190Y-77031904D01*
X118936666Y-77031904D01*
X119050952Y-77070000D01*
X119203333Y-76806000D02*
X119812857Y-76806000D01*
X119279523Y-77031904D02*
X119736666Y-77031904D01*
X119508095Y-77831904D02*
X119508095Y-77031904D01*
X105358333Y-103231904D02*
X105358333Y-102431904D01*
X105548809Y-102431904D01*
X105663095Y-102470000D01*
X105739285Y-102546190D01*
X105777380Y-102622380D01*
X105815476Y-102774761D01*
X105815476Y-102889047D01*
X105777380Y-103041428D01*
X105739285Y-103117619D01*
X105663095Y-103193809D01*
X105548809Y-103231904D01*
X105358333Y-103231904D01*
X106425000Y-102812857D02*
X106539285Y-102850952D01*
X106577380Y-102889047D01*
X106615476Y-102965238D01*
X106615476Y-103079523D01*
X106577380Y-103155714D01*
X106539285Y-103193809D01*
X106463095Y-103231904D01*
X106158333Y-103231904D01*
X106158333Y-102431904D01*
X106425000Y-102431904D01*
X106501190Y-102470000D01*
X106539285Y-102508095D01*
X106577380Y-102584285D01*
X106577380Y-102660476D01*
X106539285Y-102736666D01*
X106501190Y-102774761D01*
X106425000Y-102812857D01*
X106158333Y-102812857D01*
X107377380Y-103231904D02*
X106920238Y-103231904D01*
X107148809Y-103231904D02*
X107148809Y-102431904D01*
X107072619Y-102546190D01*
X106996428Y-102622380D01*
X106920238Y-102660476D01*
X108063095Y-102698571D02*
X108063095Y-103231904D01*
X107872619Y-102393809D02*
X107682142Y-102965238D01*
X108177380Y-102965238D01*
X109053571Y-102508095D02*
X109091666Y-102470000D01*
X109167857Y-102431904D01*
X109358333Y-102431904D01*
X109434523Y-102470000D01*
X109472619Y-102508095D01*
X109510714Y-102584285D01*
X109510714Y-102660476D01*
X109472619Y-102774761D01*
X109015476Y-103231904D01*
X109510714Y-103231904D01*
X109777380Y-102431904D02*
X110272619Y-102431904D01*
X110005952Y-102736666D01*
X110120238Y-102736666D01*
X110196428Y-102774761D01*
X110234523Y-102812857D01*
X110272619Y-102889047D01*
X110272619Y-103079523D01*
X110234523Y-103155714D01*
X110196428Y-103193809D01*
X110120238Y-103231904D01*
X109891666Y-103231904D01*
X109815476Y-103193809D01*
X109777380Y-103155714D01*
X105358333Y-100691904D02*
X105358333Y-99891904D01*
X105548809Y-99891904D01*
X105663095Y-99930000D01*
X105739285Y-100006190D01*
X105777380Y-100082380D01*
X105815476Y-100234761D01*
X105815476Y-100349047D01*
X105777380Y-100501428D01*
X105739285Y-100577619D01*
X105663095Y-100653809D01*
X105548809Y-100691904D01*
X105358333Y-100691904D01*
X106425000Y-100272857D02*
X106539285Y-100310952D01*
X106577380Y-100349047D01*
X106615476Y-100425238D01*
X106615476Y-100539523D01*
X106577380Y-100615714D01*
X106539285Y-100653809D01*
X106463095Y-100691904D01*
X106158333Y-100691904D01*
X106158333Y-99891904D01*
X106425000Y-99891904D01*
X106501190Y-99930000D01*
X106539285Y-99968095D01*
X106577380Y-100044285D01*
X106577380Y-100120476D01*
X106539285Y-100196666D01*
X106501190Y-100234761D01*
X106425000Y-100272857D01*
X106158333Y-100272857D01*
X107377380Y-100691904D02*
X106920238Y-100691904D01*
X107148809Y-100691904D02*
X107148809Y-99891904D01*
X107072619Y-100006190D01*
X106996428Y-100082380D01*
X106920238Y-100120476D01*
X107682142Y-99968095D02*
X107720238Y-99930000D01*
X107796428Y-99891904D01*
X107986904Y-99891904D01*
X108063095Y-99930000D01*
X108101190Y-99968095D01*
X108139285Y-100044285D01*
X108139285Y-100120476D01*
X108101190Y-100234761D01*
X107644047Y-100691904D01*
X108139285Y-100691904D01*
X109053571Y-99968095D02*
X109091666Y-99930000D01*
X109167857Y-99891904D01*
X109358333Y-99891904D01*
X109434523Y-99930000D01*
X109472619Y-99968095D01*
X109510714Y-100044285D01*
X109510714Y-100120476D01*
X109472619Y-100234761D01*
X109015476Y-100691904D01*
X109510714Y-100691904D01*
X110272619Y-100691904D02*
X109815476Y-100691904D01*
X110044047Y-100691904D02*
X110044047Y-99891904D01*
X109967857Y-100006190D01*
X109891666Y-100082380D01*
X109815476Y-100120476D01*
X105358333Y-98151904D02*
X105358333Y-97351904D01*
X105548809Y-97351904D01*
X105663095Y-97390000D01*
X105739285Y-97466190D01*
X105777380Y-97542380D01*
X105815476Y-97694761D01*
X105815476Y-97809047D01*
X105777380Y-97961428D01*
X105739285Y-98037619D01*
X105663095Y-98113809D01*
X105548809Y-98151904D01*
X105358333Y-98151904D01*
X106425000Y-97732857D02*
X106539285Y-97770952D01*
X106577380Y-97809047D01*
X106615476Y-97885238D01*
X106615476Y-97999523D01*
X106577380Y-98075714D01*
X106539285Y-98113809D01*
X106463095Y-98151904D01*
X106158333Y-98151904D01*
X106158333Y-97351904D01*
X106425000Y-97351904D01*
X106501190Y-97390000D01*
X106539285Y-97428095D01*
X106577380Y-97504285D01*
X106577380Y-97580476D01*
X106539285Y-97656666D01*
X106501190Y-97694761D01*
X106425000Y-97732857D01*
X106158333Y-97732857D01*
X107377380Y-98151904D02*
X106920238Y-98151904D01*
X107148809Y-98151904D02*
X107148809Y-97351904D01*
X107072619Y-97466190D01*
X106996428Y-97542380D01*
X106920238Y-97580476D01*
X107872619Y-97351904D02*
X107948809Y-97351904D01*
X108025000Y-97390000D01*
X108063095Y-97428095D01*
X108101190Y-97504285D01*
X108139285Y-97656666D01*
X108139285Y-97847142D01*
X108101190Y-97999523D01*
X108063095Y-98075714D01*
X108025000Y-98113809D01*
X107948809Y-98151904D01*
X107872619Y-98151904D01*
X107796428Y-98113809D01*
X107758333Y-98075714D01*
X107720238Y-97999523D01*
X107682142Y-97847142D01*
X107682142Y-97656666D01*
X107720238Y-97504285D01*
X107758333Y-97428095D01*
X107796428Y-97390000D01*
X107872619Y-97351904D01*
X109510714Y-98151904D02*
X109053571Y-98151904D01*
X109282142Y-98151904D02*
X109282142Y-97351904D01*
X109205952Y-97466190D01*
X109129761Y-97542380D01*
X109053571Y-97580476D01*
X109891666Y-98151904D02*
X110044047Y-98151904D01*
X110120238Y-98113809D01*
X110158333Y-98075714D01*
X110234523Y-97961428D01*
X110272619Y-97809047D01*
X110272619Y-97504285D01*
X110234523Y-97428095D01*
X110196428Y-97390000D01*
X110120238Y-97351904D01*
X109967857Y-97351904D01*
X109891666Y-97390000D01*
X109853571Y-97428095D01*
X109815476Y-97504285D01*
X109815476Y-97694761D01*
X109853571Y-97770952D01*
X109891666Y-97809047D01*
X109967857Y-97847142D01*
X110120238Y-97847142D01*
X110196428Y-97809047D01*
X110234523Y-97770952D01*
X110272619Y-97694761D01*
X106120238Y-95611904D02*
X106120238Y-94811904D01*
X106310714Y-94811904D01*
X106425000Y-94850000D01*
X106501190Y-94926190D01*
X106539285Y-95002380D01*
X106577380Y-95154761D01*
X106577380Y-95269047D01*
X106539285Y-95421428D01*
X106501190Y-95497619D01*
X106425000Y-95573809D01*
X106310714Y-95611904D01*
X106120238Y-95611904D01*
X107186904Y-95192857D02*
X107301190Y-95230952D01*
X107339285Y-95269047D01*
X107377380Y-95345238D01*
X107377380Y-95459523D01*
X107339285Y-95535714D01*
X107301190Y-95573809D01*
X107225000Y-95611904D01*
X106920238Y-95611904D01*
X106920238Y-94811904D01*
X107186904Y-94811904D01*
X107263095Y-94850000D01*
X107301190Y-94888095D01*
X107339285Y-94964285D01*
X107339285Y-95040476D01*
X107301190Y-95116666D01*
X107263095Y-95154761D01*
X107186904Y-95192857D01*
X106920238Y-95192857D01*
X107834523Y-95154761D02*
X107758333Y-95116666D01*
X107720238Y-95078571D01*
X107682142Y-95002380D01*
X107682142Y-94964285D01*
X107720238Y-94888095D01*
X107758333Y-94850000D01*
X107834523Y-94811904D01*
X107986904Y-94811904D01*
X108063095Y-94850000D01*
X108101190Y-94888095D01*
X108139285Y-94964285D01*
X108139285Y-95002380D01*
X108101190Y-95078571D01*
X108063095Y-95116666D01*
X107986904Y-95154761D01*
X107834523Y-95154761D01*
X107758333Y-95192857D01*
X107720238Y-95230952D01*
X107682142Y-95307142D01*
X107682142Y-95459523D01*
X107720238Y-95535714D01*
X107758333Y-95573809D01*
X107834523Y-95611904D01*
X107986904Y-95611904D01*
X108063095Y-95573809D01*
X108101190Y-95535714D01*
X108139285Y-95459523D01*
X108139285Y-95307142D01*
X108101190Y-95230952D01*
X108063095Y-95192857D01*
X107986904Y-95154761D01*
X109510714Y-95611904D02*
X109053571Y-95611904D01*
X109282142Y-95611904D02*
X109282142Y-94811904D01*
X109205952Y-94926190D01*
X109129761Y-95002380D01*
X109053571Y-95040476D01*
X109777380Y-94811904D02*
X110310714Y-94811904D01*
X109967857Y-95611904D01*
X106120238Y-93071904D02*
X106120238Y-92271904D01*
X106310714Y-92271904D01*
X106425000Y-92310000D01*
X106501190Y-92386190D01*
X106539285Y-92462380D01*
X106577380Y-92614761D01*
X106577380Y-92729047D01*
X106539285Y-92881428D01*
X106501190Y-92957619D01*
X106425000Y-93033809D01*
X106310714Y-93071904D01*
X106120238Y-93071904D01*
X107186904Y-92652857D02*
X107301190Y-92690952D01*
X107339285Y-92729047D01*
X107377380Y-92805238D01*
X107377380Y-92919523D01*
X107339285Y-92995714D01*
X107301190Y-93033809D01*
X107225000Y-93071904D01*
X106920238Y-93071904D01*
X106920238Y-92271904D01*
X107186904Y-92271904D01*
X107263095Y-92310000D01*
X107301190Y-92348095D01*
X107339285Y-92424285D01*
X107339285Y-92500476D01*
X107301190Y-92576666D01*
X107263095Y-92614761D01*
X107186904Y-92652857D01*
X106920238Y-92652857D01*
X108063095Y-92271904D02*
X107910714Y-92271904D01*
X107834523Y-92310000D01*
X107796428Y-92348095D01*
X107720238Y-92462380D01*
X107682142Y-92614761D01*
X107682142Y-92919523D01*
X107720238Y-92995714D01*
X107758333Y-93033809D01*
X107834523Y-93071904D01*
X107986904Y-93071904D01*
X108063095Y-93033809D01*
X108101190Y-92995714D01*
X108139285Y-92919523D01*
X108139285Y-92729047D01*
X108101190Y-92652857D01*
X108063095Y-92614761D01*
X107986904Y-92576666D01*
X107834523Y-92576666D01*
X107758333Y-92614761D01*
X107720238Y-92652857D01*
X107682142Y-92729047D01*
X109510714Y-93071904D02*
X109053571Y-93071904D01*
X109282142Y-93071904D02*
X109282142Y-92271904D01*
X109205952Y-92386190D01*
X109129761Y-92462380D01*
X109053571Y-92500476D01*
X110234523Y-92271904D02*
X109853571Y-92271904D01*
X109815476Y-92652857D01*
X109853571Y-92614761D01*
X109929761Y-92576666D01*
X110120238Y-92576666D01*
X110196428Y-92614761D01*
X110234523Y-92652857D01*
X110272619Y-92729047D01*
X110272619Y-92919523D01*
X110234523Y-92995714D01*
X110196428Y-93033809D01*
X110120238Y-93071904D01*
X109929761Y-93071904D01*
X109853571Y-93033809D01*
X109815476Y-92995714D01*
X106120238Y-90631904D02*
X106120238Y-89831904D01*
X106310714Y-89831904D01*
X106425000Y-89870000D01*
X106501190Y-89946190D01*
X106539285Y-90022380D01*
X106577380Y-90174761D01*
X106577380Y-90289047D01*
X106539285Y-90441428D01*
X106501190Y-90517619D01*
X106425000Y-90593809D01*
X106310714Y-90631904D01*
X106120238Y-90631904D01*
X107186904Y-90212857D02*
X107301190Y-90250952D01*
X107339285Y-90289047D01*
X107377380Y-90365238D01*
X107377380Y-90479523D01*
X107339285Y-90555714D01*
X107301190Y-90593809D01*
X107225000Y-90631904D01*
X106920238Y-90631904D01*
X106920238Y-89831904D01*
X107186904Y-89831904D01*
X107263095Y-89870000D01*
X107301190Y-89908095D01*
X107339285Y-89984285D01*
X107339285Y-90060476D01*
X107301190Y-90136666D01*
X107263095Y-90174761D01*
X107186904Y-90212857D01*
X106920238Y-90212857D01*
X108063095Y-90098571D02*
X108063095Y-90631904D01*
X107872619Y-89793809D02*
X107682142Y-90365238D01*
X108177380Y-90365238D01*
X109510714Y-90631904D02*
X109053571Y-90631904D01*
X109282142Y-90631904D02*
X109282142Y-89831904D01*
X109205952Y-89946190D01*
X109129761Y-90022380D01*
X109053571Y-90060476D01*
X109777380Y-89831904D02*
X110272619Y-89831904D01*
X110005952Y-90136666D01*
X110120238Y-90136666D01*
X110196428Y-90174761D01*
X110234523Y-90212857D01*
X110272619Y-90289047D01*
X110272619Y-90479523D01*
X110234523Y-90555714D01*
X110196428Y-90593809D01*
X110120238Y-90631904D01*
X109891666Y-90631904D01*
X109815476Y-90593809D01*
X109777380Y-90555714D01*
X106120238Y-87991904D02*
X106120238Y-87191904D01*
X106310714Y-87191904D01*
X106425000Y-87230000D01*
X106501190Y-87306190D01*
X106539285Y-87382380D01*
X106577380Y-87534761D01*
X106577380Y-87649047D01*
X106539285Y-87801428D01*
X106501190Y-87877619D01*
X106425000Y-87953809D01*
X106310714Y-87991904D01*
X106120238Y-87991904D01*
X107186904Y-87572857D02*
X107301190Y-87610952D01*
X107339285Y-87649047D01*
X107377380Y-87725238D01*
X107377380Y-87839523D01*
X107339285Y-87915714D01*
X107301190Y-87953809D01*
X107225000Y-87991904D01*
X106920238Y-87991904D01*
X106920238Y-87191904D01*
X107186904Y-87191904D01*
X107263095Y-87230000D01*
X107301190Y-87268095D01*
X107339285Y-87344285D01*
X107339285Y-87420476D01*
X107301190Y-87496666D01*
X107263095Y-87534761D01*
X107186904Y-87572857D01*
X106920238Y-87572857D01*
X107682142Y-87268095D02*
X107720238Y-87230000D01*
X107796428Y-87191904D01*
X107986904Y-87191904D01*
X108063095Y-87230000D01*
X108101190Y-87268095D01*
X108139285Y-87344285D01*
X108139285Y-87420476D01*
X108101190Y-87534761D01*
X107644047Y-87991904D01*
X108139285Y-87991904D01*
X109510714Y-87991904D02*
X109053571Y-87991904D01*
X109282142Y-87991904D02*
X109282142Y-87191904D01*
X109205952Y-87306190D01*
X109129761Y-87382380D01*
X109053571Y-87420476D01*
X110272619Y-87991904D02*
X109815476Y-87991904D01*
X110044047Y-87991904D02*
X110044047Y-87191904D01*
X109967857Y-87306190D01*
X109891666Y-87382380D01*
X109815476Y-87420476D01*
X106882142Y-85451904D02*
X106882142Y-84651904D01*
X107072619Y-84651904D01*
X107186904Y-84690000D01*
X107263095Y-84766190D01*
X107301190Y-84842380D01*
X107339285Y-84994761D01*
X107339285Y-85109047D01*
X107301190Y-85261428D01*
X107263095Y-85337619D01*
X107186904Y-85413809D01*
X107072619Y-85451904D01*
X106882142Y-85451904D01*
X107948809Y-85032857D02*
X108063095Y-85070952D01*
X108101190Y-85109047D01*
X108139285Y-85185238D01*
X108139285Y-85299523D01*
X108101190Y-85375714D01*
X108063095Y-85413809D01*
X107986904Y-85451904D01*
X107682142Y-85451904D01*
X107682142Y-84651904D01*
X107948809Y-84651904D01*
X108025000Y-84690000D01*
X108063095Y-84728095D01*
X108101190Y-84804285D01*
X108101190Y-84880476D01*
X108063095Y-84956666D01*
X108025000Y-84994761D01*
X107948809Y-85032857D01*
X107682142Y-85032857D01*
X108634523Y-84651904D02*
X108710714Y-84651904D01*
X108786904Y-84690000D01*
X108825000Y-84728095D01*
X108863095Y-84804285D01*
X108901190Y-84956666D01*
X108901190Y-85147142D01*
X108863095Y-85299523D01*
X108825000Y-85375714D01*
X108786904Y-85413809D01*
X108710714Y-85451904D01*
X108634523Y-85451904D01*
X108558333Y-85413809D01*
X108520238Y-85375714D01*
X108482142Y-85299523D01*
X108444047Y-85147142D01*
X108444047Y-84956666D01*
X108482142Y-84804285D01*
X108520238Y-84728095D01*
X108558333Y-84690000D01*
X108634523Y-84651904D01*
X109891666Y-85451904D02*
X110044047Y-85451904D01*
X110120238Y-85413809D01*
X110158333Y-85375714D01*
X110234523Y-85261428D01*
X110272619Y-85109047D01*
X110272619Y-84804285D01*
X110234523Y-84728095D01*
X110196428Y-84690000D01*
X110120238Y-84651904D01*
X109967857Y-84651904D01*
X109891666Y-84690000D01*
X109853571Y-84728095D01*
X109815476Y-84804285D01*
X109815476Y-84994761D01*
X109853571Y-85070952D01*
X109891666Y-85109047D01*
X109967857Y-85147142D01*
X110120238Y-85147142D01*
X110196428Y-85109047D01*
X110234523Y-85070952D01*
X110272619Y-84994761D01*
X107339285Y-81886000D02*
X108253571Y-81886000D01*
X107453571Y-82111904D02*
X107644047Y-82911904D01*
X107796428Y-82340476D01*
X107948809Y-82911904D01*
X108139285Y-82111904D01*
X108253571Y-81886000D02*
X109053571Y-81886000D01*
X108901190Y-82911904D02*
X108634523Y-82530952D01*
X108444047Y-82911904D02*
X108444047Y-82111904D01*
X108748809Y-82111904D01*
X108825000Y-82150000D01*
X108863095Y-82188095D01*
X108901190Y-82264285D01*
X108901190Y-82378571D01*
X108863095Y-82454761D01*
X108825000Y-82492857D01*
X108748809Y-82530952D01*
X108444047Y-82530952D01*
X109777380Y-82111904D02*
X110310714Y-82111904D01*
X109967857Y-82911904D01*
X107491666Y-79346000D02*
X108291666Y-79346000D01*
X108139285Y-80295714D02*
X108101190Y-80333809D01*
X107986904Y-80371904D01*
X107910714Y-80371904D01*
X107796428Y-80333809D01*
X107720238Y-80257619D01*
X107682142Y-80181428D01*
X107644047Y-80029047D01*
X107644047Y-79914761D01*
X107682142Y-79762380D01*
X107720238Y-79686190D01*
X107796428Y-79610000D01*
X107910714Y-79571904D01*
X107986904Y-79571904D01*
X108101190Y-79610000D01*
X108139285Y-79648095D01*
X108291666Y-79346000D02*
X109053571Y-79346000D01*
X108444047Y-80333809D02*
X108558333Y-80371904D01*
X108748809Y-80371904D01*
X108825000Y-80333809D01*
X108863095Y-80295714D01*
X108901190Y-80219523D01*
X108901190Y-80143333D01*
X108863095Y-80067142D01*
X108825000Y-80029047D01*
X108748809Y-79990952D01*
X108596428Y-79952857D01*
X108520238Y-79914761D01*
X108482142Y-79876666D01*
X108444047Y-79800476D01*
X108444047Y-79724285D01*
X108482142Y-79648095D01*
X108520238Y-79610000D01*
X108596428Y-79571904D01*
X108786904Y-79571904D01*
X108901190Y-79610000D01*
X110234523Y-79571904D02*
X109853571Y-79571904D01*
X109815476Y-79952857D01*
X109853571Y-79914761D01*
X109929761Y-79876666D01*
X110120238Y-79876666D01*
X110196428Y-79914761D01*
X110234523Y-79952857D01*
X110272619Y-80029047D01*
X110272619Y-80219523D01*
X110234523Y-80295714D01*
X110196428Y-80333809D01*
X110120238Y-80371904D01*
X109929761Y-80371904D01*
X109853571Y-80333809D01*
X109815476Y-80295714D01*
X106767857Y-77831904D02*
X106386904Y-77831904D01*
X106386904Y-77031904D01*
X107034523Y-77412857D02*
X107301190Y-77412857D01*
X107415476Y-77831904D02*
X107034523Y-77831904D01*
X107034523Y-77031904D01*
X107415476Y-77031904D01*
X107758333Y-77831904D02*
X107758333Y-77031904D01*
X107948809Y-77031904D01*
X108063095Y-77070000D01*
X108139285Y-77146190D01*
X108177380Y-77222380D01*
X108215476Y-77374761D01*
X108215476Y-77489047D01*
X108177380Y-77641428D01*
X108139285Y-77717619D01*
X108063095Y-77793809D01*
X107948809Y-77831904D01*
X107758333Y-77831904D01*
X108520238Y-77603333D02*
X108901190Y-77603333D01*
X108444047Y-77831904D02*
X108710714Y-77031904D01*
X108977380Y-77831904D01*
X109777380Y-77031904D02*
X110272619Y-77031904D01*
X110005952Y-77336666D01*
X110120238Y-77336666D01*
X110196428Y-77374761D01*
X110234523Y-77412857D01*
X110272619Y-77489047D01*
X110272619Y-77679523D01*
X110234523Y-77755714D01*
X110196428Y-77793809D01*
X110120238Y-77831904D01*
X109891666Y-77831904D01*
X109815476Y-77793809D01*
X109777380Y-77755714D01*
X106844047Y-74561904D02*
X107110714Y-75361904D01*
X107377380Y-74561904D01*
X108101190Y-75285714D02*
X108063095Y-75323809D01*
X107948809Y-75361904D01*
X107872619Y-75361904D01*
X107758333Y-75323809D01*
X107682142Y-75247619D01*
X107644047Y-75171428D01*
X107605952Y-75019047D01*
X107605952Y-74904761D01*
X107644047Y-74752380D01*
X107682142Y-74676190D01*
X107758333Y-74600000D01*
X107872619Y-74561904D01*
X107948809Y-74561904D01*
X108063095Y-74600000D01*
X108101190Y-74638095D01*
X108901190Y-75285714D02*
X108863095Y-75323809D01*
X108748809Y-75361904D01*
X108672619Y-75361904D01*
X108558333Y-75323809D01*
X108482142Y-75247619D01*
X108444047Y-75171428D01*
X108405952Y-75019047D01*
X108405952Y-74904761D01*
X108444047Y-74752380D01*
X108482142Y-74676190D01*
X108558333Y-74600000D01*
X108672619Y-74561904D01*
X108748809Y-74561904D01*
X108863095Y-74600000D01*
X108901190Y-74638095D01*
X110272619Y-75361904D02*
X109815476Y-75361904D01*
X110044047Y-75361904D02*
X110044047Y-74561904D01*
X109967857Y-74676190D01*
X109891666Y-74752380D01*
X109815476Y-74790476D01*
D12*
%TO.C,C1*%
X105140000Y-82892164D02*
X105140000Y-83107836D01*
X105860000Y-82892164D02*
X105860000Y-83107836D01*
%TO.C,J3*%
X102090000Y-95000000D02*
X104980000Y-95000000D01*
X102090000Y-83000000D02*
X104980000Y-83000000D01*
X102090000Y-98210000D02*
X102090000Y-95000000D01*
X102090000Y-79790000D02*
X102090000Y-83000000D01*
X99530000Y-98210000D02*
X102090000Y-98210000D01*
X99530000Y-79790000D02*
X102090000Y-79790000D01*
X99530000Y-95000000D02*
X99530000Y-98210000D01*
X99530000Y-83000000D02*
X99530000Y-79790000D01*
X103020000Y-95000000D02*
X99530000Y-95000000D01*
X103020000Y-83000000D02*
X99530000Y-83000000D01*
X103020000Y-83000000D02*
X103020000Y-95000000D01*
X104980000Y-83000000D02*
X104980000Y-95000000D01*
%TO.C,J2*%
X110670000Y-73670000D02*
X112000000Y-73670000D01*
X110670000Y-75000000D02*
X110670000Y-73670000D01*
X113270000Y-73670000D02*
X115870000Y-73670000D01*
X113270000Y-76270000D02*
X113270000Y-73670000D01*
X110670000Y-76270000D02*
X113270000Y-76270000D01*
X115870000Y-73670000D02*
X115870000Y-104270000D01*
X110670000Y-76270000D02*
X110670000Y-104270000D01*
X110670000Y-104270000D02*
X115870000Y-104270000D01*
%TO.C,J1*%
X124910000Y-83000000D02*
X122020000Y-83000000D01*
X124910000Y-95000000D02*
X122020000Y-95000000D01*
X124910000Y-79790000D02*
X124910000Y-83000000D01*
X124910000Y-98210000D02*
X124910000Y-95000000D01*
X127470000Y-79790000D02*
X124910000Y-79790000D01*
X127470000Y-98210000D02*
X124910000Y-98210000D01*
X127470000Y-83000000D02*
X127470000Y-79790000D01*
X127470000Y-95000000D02*
X127470000Y-98210000D01*
X123980000Y-83000000D02*
X127470000Y-83000000D01*
X123980000Y-95000000D02*
X127470000Y-95000000D01*
X123980000Y-95000000D02*
X123980000Y-83000000D01*
X122020000Y-95000000D02*
X122020000Y-83000000D01*
%TD*%
M02*
