%TF.GenerationSoftware,KiCad,Pcbnew,5.99.0-unknown-7565f60a0~106~ubuntu20.04.1*%
%TF.CreationDate,2020-12-13T15:13:58+00:00*%
%TF.ProjectId,24pin_flex_interposer,32347069-6e5f-4666-9c65-785f696e7465,rev?*%
%TF.SameCoordinates,Original*%
%TF.FileFunction,Soldermask,Top*%
%TF.FilePolarity,Negative*%
%FSLAX46Y46*%
G04 Gerber Fmt 4.6, Leading zero omitted, Abs format (unit mm)*
G04 Created by KiCad (PCBNEW 5.99.0-unknown-7565f60a0~106~ubuntu20.04.1) date 2020-12-13 15:13:58*
%MOMM*%
%LPD*%
G01*
G04 APERTURE LIST*
G04 Aperture macros list*
%AMRoundRect*
0 Rectangle with rounded corners*
0 $1 Rounding radius*
0 $2 $3 $4 $5 $6 $7 $8 $9 X,Y pos of 4 corners*
0 Add a 4 corners polygon primitive as box body*
4,1,4,$2,$3,$4,$5,$6,$7,$8,$9,$2,$3,0*
0 Add four circle primitives for the rounded corners*
1,1,$1+$1,$2,$3,0*
1,1,$1+$1,$4,$5,0*
1,1,$1+$1,$6,$7,0*
1,1,$1+$1,$8,$9,0*
0 Add four rect primitives between the rounded corners*
20,1,$1+$1,$2,$3,$4,$5,0*
20,1,$1+$1,$4,$5,$6,$7,0*
20,1,$1+$1,$6,$7,$8,$9,0*
20,1,$1+$1,$8,$9,$2,$3,0*%
G04 Aperture macros list end*
%ADD10RoundRect,0.140000X-0.170000X0.140000X-0.170000X-0.140000X0.170000X-0.140000X0.170000X0.140000X0*%
%ADD11R,2.200000X2.200000*%
%ADD12R,1.600000X0.250000*%
%ADD13O,1.700000X1.700000*%
%ADD14R,1.700000X1.700000*%
G04 APERTURE END LIST*
D10*
%TO.C,C1*%
X105500000Y-83480000D03*
X105500000Y-82520000D03*
%TD*%
D11*
%TO.C,J3*%
X100750000Y-96750000D03*
X100750000Y-81250000D03*
D12*
X104000000Y-94750000D03*
X104000000Y-94250000D03*
X104000000Y-93750000D03*
X104000000Y-93250000D03*
X104000000Y-92750000D03*
X104000000Y-92250000D03*
X104000000Y-91750000D03*
X104000000Y-91250000D03*
X104000000Y-90750000D03*
X104000000Y-90250000D03*
X104000000Y-89750000D03*
X104000000Y-89250000D03*
X104000000Y-88750000D03*
X104000000Y-88250000D03*
X104000000Y-87750000D03*
X104000000Y-87250000D03*
X104000000Y-86750000D03*
X104000000Y-86250000D03*
X104000000Y-85750000D03*
X104000000Y-85250000D03*
X104000000Y-84750000D03*
X104000000Y-84250000D03*
X104000000Y-83750000D03*
X104000000Y-83250000D03*
%TD*%
D13*
%TO.C,J2*%
X114540000Y-102940000D03*
X112000000Y-102940000D03*
X114540000Y-100400000D03*
X112000000Y-100400000D03*
X114540000Y-97860000D03*
X112000000Y-97860000D03*
X114540000Y-95320000D03*
X112000000Y-95320000D03*
X114540000Y-92780000D03*
X112000000Y-92780000D03*
X114540000Y-90240000D03*
X112000000Y-90240000D03*
X114540000Y-87700000D03*
X112000000Y-87700000D03*
X114540000Y-85160000D03*
X112000000Y-85160000D03*
X114540000Y-82620000D03*
X112000000Y-82620000D03*
X114540000Y-80080000D03*
X112000000Y-80080000D03*
X114540000Y-77540000D03*
X112000000Y-77540000D03*
X114540000Y-75000000D03*
D14*
X112000000Y-75000000D03*
%TD*%
D11*
%TO.C,J1*%
X126250000Y-81250000D03*
X126250000Y-96750000D03*
D12*
X123000000Y-83250000D03*
X123000000Y-83750000D03*
X123000000Y-84250000D03*
X123000000Y-84750000D03*
X123000000Y-85250000D03*
X123000000Y-85750000D03*
X123000000Y-86250000D03*
X123000000Y-86750000D03*
X123000000Y-87250000D03*
X123000000Y-87750000D03*
X123000000Y-88250000D03*
X123000000Y-88750000D03*
X123000000Y-89250000D03*
X123000000Y-89750000D03*
X123000000Y-90250000D03*
X123000000Y-90750000D03*
X123000000Y-91250000D03*
X123000000Y-91750000D03*
X123000000Y-92250000D03*
X123000000Y-92750000D03*
X123000000Y-93250000D03*
X123000000Y-93750000D03*
X123000000Y-94250000D03*
X123000000Y-94750000D03*
%TD*%
M02*
