%TF.GenerationSoftware,KiCad,Pcbnew,5.99.0-unknown-7565f60a0~106~ubuntu20.04.1*%
%TF.CreationDate,2020-12-13T15:13:57+00:00*%
%TF.ProjectId,24pin_flex_interposer,32347069-6e5f-4666-9c65-785f696e7465,rev?*%
%TF.SameCoordinates,Original*%
%TF.FileFunction,Copper,L2,Bot*%
%TF.FilePolarity,Positive*%
%FSLAX46Y46*%
G04 Gerber Fmt 4.6, Leading zero omitted, Abs format (unit mm)*
G04 Created by KiCad (PCBNEW 5.99.0-unknown-7565f60a0~106~ubuntu20.04.1) date 2020-12-13 15:13:57*
%MOMM*%
%LPD*%
G01*
G04 APERTURE LIST*
%TA.AperFunction,ComponentPad*%
%ADD10O,1.700000X1.700000*%
%TD*%
%TA.AperFunction,ComponentPad*%
%ADD11R,1.700000X1.700000*%
%TD*%
%TA.AperFunction,ViaPad*%
%ADD12C,0.600000*%
%TD*%
G04 APERTURE END LIST*
D10*
%TO.P,J2,24,Pin_24*%
%TO.N,/LCD24*%
X114540000Y-102940000D03*
%TO.P,J2,23,Pin_23*%
%TO.N,/LCD23*%
X112000000Y-102940000D03*
%TO.P,J2,22,Pin_22*%
%TO.N,/LCD22*%
X114540000Y-100400000D03*
%TO.P,J2,21,Pin_21*%
%TO.N,/LCD21*%
X112000000Y-100400000D03*
%TO.P,J2,20,Pin_20*%
%TO.N,/LCD20*%
X114540000Y-97860000D03*
%TO.P,J2,19,Pin_19*%
%TO.N,/LCD19*%
X112000000Y-97860000D03*
%TO.P,J2,18,Pin_18*%
%TO.N,/LCD18*%
X114540000Y-95320000D03*
%TO.P,J2,17,Pin_17*%
%TO.N,/LCD17*%
X112000000Y-95320000D03*
%TO.P,J2,16,Pin_16*%
%TO.N,/LCD16*%
X114540000Y-92780000D03*
%TO.P,J2,15,Pin_15*%
%TO.N,/LCD15*%
X112000000Y-92780000D03*
%TO.P,J2,14,Pin_14*%
%TO.N,/LCD14*%
X114540000Y-90240000D03*
%TO.P,J2,13,Pin_13*%
%TO.N,/LCD13*%
X112000000Y-90240000D03*
%TO.P,J2,12,Pin_12*%
%TO.N,/LCD12*%
X114540000Y-87700000D03*
%TO.P,J2,11,Pin_11*%
%TO.N,/LCD11*%
X112000000Y-87700000D03*
%TO.P,J2,10,Pin_10*%
%TO.N,/LCD10*%
X114540000Y-85160000D03*
%TO.P,J2,9,Pin_9*%
%TO.N,/LCD9*%
X112000000Y-85160000D03*
%TO.P,J2,8,Pin_8*%
%TO.N,/LCD8*%
X114540000Y-82620000D03*
%TO.P,J2,7,Pin_7*%
%TO.N,/LCD7*%
X112000000Y-82620000D03*
%TO.P,J2,6,Pin_6*%
%TO.N,/LCD6*%
X114540000Y-80080000D03*
%TO.P,J2,5,Pin_5*%
%TO.N,/LCD5*%
X112000000Y-80080000D03*
%TO.P,J2,4,Pin_4*%
%TO.N,/LCD4*%
X114540000Y-77540000D03*
%TO.P,J2,3,Pin_3*%
%TO.N,/LCD3*%
X112000000Y-77540000D03*
%TO.P,J2,2,Pin_2*%
%TO.N,/LCD2*%
X114540000Y-75000000D03*
D11*
%TO.P,J2,1,Pin_1*%
%TO.N,/LCD1*%
X112000000Y-75000000D03*
%TD*%
D12*
%TO.N,/LCD2*%
X123600010Y-82312522D03*
X117500000Y-75000000D03*
X110500000Y-75000000D03*
X121500000Y-83000000D03*
X104000000Y-82000000D03*
X104000000Y-96000000D03*
X123000000Y-96000000D03*
X126000000Y-103000000D03*
X101000000Y-103000000D03*
X101000000Y-75000000D03*
X126000000Y-75000000D03*
X110500000Y-77500000D03*
X106250000Y-82000000D03*
X106250000Y-83000000D03*
%TD*%
%TA.AperFunction,Conductor*%
%TO.N,/LCD2*%
G36*
X122972303Y-73152724D02*
G01*
X122974304Y-73153282D01*
X122975063Y-73153494D01*
X122975064Y-73153494D01*
X122979736Y-73154798D01*
X123144885Y-73156509D01*
X123147310Y-73156575D01*
X123258095Y-73161412D01*
X123261298Y-73161622D01*
X123582865Y-73189756D01*
X123586022Y-73190101D01*
X123674231Y-73201714D01*
X123678804Y-73202316D01*
X123681995Y-73202807D01*
X123999899Y-73258863D01*
X124003064Y-73259493D01*
X124067210Y-73273713D01*
X124094376Y-73279735D01*
X124097467Y-73280492D01*
X124359154Y-73350612D01*
X124409295Y-73364047D01*
X124412394Y-73364950D01*
X124425374Y-73369042D01*
X124501599Y-73393076D01*
X124504608Y-73394098D01*
X124781771Y-73494977D01*
X124808006Y-73504526D01*
X124811015Y-73505696D01*
X124897376Y-73541468D01*
X124900331Y-73542768D01*
X125192947Y-73679217D01*
X125195790Y-73680619D01*
X125278743Y-73723801D01*
X125278762Y-73723811D01*
X125281591Y-73725364D01*
X125561169Y-73886778D01*
X125563912Y-73888443D01*
X125642796Y-73938699D01*
X125645480Y-73940492D01*
X125760170Y-74020799D01*
X125909923Y-74125658D01*
X125912498Y-74127546D01*
X125986692Y-74184477D01*
X125989175Y-74186469D01*
X126128101Y-74303042D01*
X126236523Y-74394020D01*
X126238949Y-74396148D01*
X126307853Y-74459286D01*
X126310186Y-74461519D01*
X126538490Y-74689824D01*
X126540722Y-74692156D01*
X126603874Y-74761074D01*
X126605998Y-74763496D01*
X126813520Y-75010813D01*
X126815505Y-75013285D01*
X126847244Y-75054647D01*
X126872454Y-75087503D01*
X126874362Y-75090106D01*
X126971481Y-75228805D01*
X127059508Y-75354520D01*
X127059519Y-75354536D01*
X127061313Y-75357221D01*
X127111563Y-75436099D01*
X127113238Y-75438859D01*
X127222880Y-75628764D01*
X127274636Y-75718408D01*
X127274646Y-75718426D01*
X127276189Y-75721238D01*
X127319368Y-75804183D01*
X127319376Y-75804199D01*
X127320796Y-75807079D01*
X127349241Y-75868079D01*
X127457228Y-76099661D01*
X127458528Y-76102615D01*
X127494313Y-76189007D01*
X127495481Y-76192010D01*
X127605910Y-76495415D01*
X127606924Y-76498403D01*
X127635050Y-76587606D01*
X127635937Y-76590647D01*
X127706960Y-76855709D01*
X127719511Y-76902550D01*
X127720278Y-76905685D01*
X127740505Y-76996922D01*
X127741135Y-77000089D01*
X127797195Y-77318023D01*
X127797686Y-77321214D01*
X127809893Y-77413931D01*
X127810242Y-77417126D01*
X127829899Y-77641798D01*
X127838377Y-77738696D01*
X127838589Y-77741918D01*
X127843425Y-77852672D01*
X127843491Y-77855114D01*
X127845202Y-78020265D01*
X127846506Y-78024936D01*
X127846506Y-78024938D01*
X127847276Y-78027696D01*
X127850000Y-78047589D01*
X127850000Y-99952411D01*
X127847276Y-99972304D01*
X127845202Y-99979735D01*
X127843960Y-100099632D01*
X127843491Y-100144867D01*
X127843425Y-100147310D01*
X127838589Y-100258082D01*
X127838377Y-100261304D01*
X127810244Y-100582860D01*
X127809895Y-100586048D01*
X127804224Y-100629124D01*
X127797686Y-100678786D01*
X127797195Y-100681977D01*
X127741135Y-100999911D01*
X127740505Y-101003078D01*
X127720278Y-101094315D01*
X127719511Y-101097450D01*
X127717533Y-101104831D01*
X127635937Y-101409353D01*
X127635053Y-101412386D01*
X127606924Y-101501597D01*
X127605910Y-101504585D01*
X127495483Y-101807984D01*
X127494313Y-101810993D01*
X127458528Y-101897385D01*
X127457228Y-101900339D01*
X127426568Y-101966090D01*
X127344831Y-102141379D01*
X127320804Y-102192905D01*
X127319383Y-102195786D01*
X127312220Y-102209547D01*
X127276199Y-102278743D01*
X127274648Y-102281570D01*
X127273831Y-102282986D01*
X127113238Y-102561141D01*
X127111563Y-102563901D01*
X127061313Y-102642779D01*
X127059526Y-102645454D01*
X126997358Y-102734239D01*
X126874362Y-102909894D01*
X126872454Y-102912497D01*
X126852824Y-102938080D01*
X126815505Y-102986715D01*
X126813520Y-102989187D01*
X126675767Y-103153356D01*
X126606003Y-103236498D01*
X126603879Y-103238920D01*
X126564737Y-103281637D01*
X126540722Y-103307844D01*
X126538490Y-103310176D01*
X126310186Y-103538481D01*
X126307853Y-103540714D01*
X126238949Y-103603852D01*
X126236523Y-103605980D01*
X126156679Y-103672978D01*
X125989175Y-103813531D01*
X125986703Y-103815514D01*
X125912502Y-103872451D01*
X125909923Y-103874342D01*
X125810782Y-103943762D01*
X125645480Y-104059508D01*
X125642796Y-104061301D01*
X125563912Y-104111557D01*
X125561169Y-104113222D01*
X125281592Y-104274636D01*
X125278763Y-104276188D01*
X125195790Y-104319381D01*
X125192947Y-104320783D01*
X124935587Y-104440792D01*
X124900331Y-104457232D01*
X124897376Y-104458532D01*
X124811015Y-104494304D01*
X124808006Y-104495474D01*
X124504608Y-104605902D01*
X124501599Y-104606924D01*
X124425374Y-104630958D01*
X124412394Y-104635050D01*
X124409295Y-104635953D01*
X124097467Y-104719508D01*
X124094376Y-104720265D01*
X124067210Y-104726287D01*
X124003064Y-104740507D01*
X123999899Y-104741137D01*
X123681995Y-104797193D01*
X123678803Y-104797684D01*
X123586022Y-104809899D01*
X123582865Y-104810244D01*
X123261298Y-104838378D01*
X123258095Y-104838588D01*
X123147310Y-104843425D01*
X123144885Y-104843491D01*
X122979736Y-104845202D01*
X122975064Y-104846506D01*
X122975063Y-104846506D01*
X122974304Y-104846718D01*
X122972303Y-104847276D01*
X122952413Y-104850000D01*
X104047589Y-104850000D01*
X104027696Y-104847276D01*
X104024938Y-104846506D01*
X104024936Y-104846506D01*
X104020265Y-104845202D01*
X103855115Y-104843491D01*
X103852690Y-104843425D01*
X103741916Y-104838589D01*
X103738696Y-104838377D01*
X103417126Y-104810242D01*
X103413947Y-104809895D01*
X103370876Y-104804224D01*
X103321214Y-104797686D01*
X103318023Y-104797195D01*
X103065906Y-104752740D01*
X103000084Y-104741134D01*
X102996927Y-104740506D01*
X102950400Y-104730191D01*
X102905685Y-104720278D01*
X102902550Y-104719511D01*
X102855709Y-104706960D01*
X102590647Y-104635937D01*
X102587614Y-104635053D01*
X102498403Y-104606924D01*
X102495415Y-104605910D01*
X102192010Y-104495481D01*
X102189007Y-104494313D01*
X102102615Y-104458528D01*
X102099661Y-104457228D01*
X101888536Y-104358780D01*
X101807079Y-104320796D01*
X101804214Y-104319383D01*
X101721252Y-104276196D01*
X101718426Y-104274646D01*
X101438859Y-104113238D01*
X101436099Y-104111563D01*
X101357221Y-104061313D01*
X101354536Y-104059519D01*
X101354521Y-104059508D01*
X101263220Y-103995578D01*
X101090106Y-103874362D01*
X101087503Y-103872454D01*
X101043435Y-103838640D01*
X101013285Y-103815505D01*
X101010803Y-103813512D01*
X100763496Y-103605998D01*
X100761074Y-103603874D01*
X100744406Y-103588600D01*
X100692156Y-103540722D01*
X100689824Y-103538490D01*
X100461519Y-103310186D01*
X100459286Y-103307853D01*
X100396148Y-103238949D01*
X100394020Y-103236523D01*
X100300652Y-103125253D01*
X100227539Y-103038120D01*
X110999299Y-103038120D01*
X111039468Y-103237334D01*
X111040932Y-103240784D01*
X111040933Y-103240786D01*
X111070388Y-103310176D01*
X111118874Y-103424403D01*
X111234273Y-103591685D01*
X111380952Y-103732345D01*
X111384118Y-103734339D01*
X111384121Y-103734341D01*
X111549746Y-103838640D01*
X111552919Y-103840638D01*
X111556428Y-103841957D01*
X111556430Y-103841958D01*
X111713669Y-103901060D01*
X111743149Y-103912141D01*
X111943871Y-103943932D01*
X111947616Y-103943762D01*
X111947618Y-103943762D01*
X112143143Y-103934883D01*
X112146886Y-103934713D01*
X112150516Y-103933794D01*
X112150519Y-103933794D01*
X112340267Y-103885781D01*
X112340271Y-103885779D01*
X112343901Y-103884861D01*
X112526868Y-103796411D01*
X112688312Y-103672978D01*
X112803281Y-103540722D01*
X112819180Y-103522432D01*
X112819181Y-103522431D01*
X112821639Y-103519603D01*
X112921403Y-103342551D01*
X112983527Y-103149055D01*
X112995578Y-103038120D01*
X113539299Y-103038120D01*
X113579468Y-103237334D01*
X113580932Y-103240784D01*
X113580933Y-103240786D01*
X113610388Y-103310176D01*
X113658874Y-103424403D01*
X113774273Y-103591685D01*
X113920952Y-103732345D01*
X113924118Y-103734339D01*
X113924121Y-103734341D01*
X114089746Y-103838640D01*
X114092919Y-103840638D01*
X114096428Y-103841957D01*
X114096430Y-103841958D01*
X114253669Y-103901060D01*
X114283149Y-103912141D01*
X114483871Y-103943932D01*
X114487616Y-103943762D01*
X114487618Y-103943762D01*
X114683143Y-103934883D01*
X114686886Y-103934713D01*
X114690516Y-103933794D01*
X114690519Y-103933794D01*
X114880267Y-103885781D01*
X114880271Y-103885779D01*
X114883901Y-103884861D01*
X115066868Y-103796411D01*
X115228312Y-103672978D01*
X115343281Y-103540722D01*
X115359180Y-103522432D01*
X115359181Y-103522431D01*
X115361639Y-103519603D01*
X115461403Y-103342551D01*
X115523527Y-103149055D01*
X115545475Y-102947020D01*
X115545500Y-102940000D01*
X115528354Y-102771195D01*
X115525342Y-102741547D01*
X115524963Y-102737816D01*
X115495186Y-102642796D01*
X115465312Y-102547467D01*
X115465311Y-102547464D01*
X115464191Y-102543891D01*
X115365666Y-102366148D01*
X115233412Y-102211845D01*
X115230452Y-102209549D01*
X115230450Y-102209547D01*
X115075800Y-102089588D01*
X115075796Y-102089585D01*
X115072834Y-102087288D01*
X114890489Y-101997563D01*
X114693827Y-101946336D01*
X114690088Y-101946140D01*
X114494627Y-101935896D01*
X114494624Y-101935896D01*
X114490882Y-101935700D01*
X114289942Y-101966090D01*
X114286427Y-101967383D01*
X114286424Y-101967384D01*
X114102740Y-102034967D01*
X114099218Y-102036263D01*
X114096031Y-102038239D01*
X113929682Y-102141379D01*
X113929679Y-102141381D01*
X113926499Y-102143353D01*
X113778841Y-102282986D01*
X113662277Y-102449457D01*
X113581567Y-102635967D01*
X113580802Y-102639629D01*
X113580801Y-102639632D01*
X113556521Y-102755855D01*
X113540008Y-102834897D01*
X113539299Y-103038120D01*
X112995578Y-103038120D01*
X113005475Y-102947020D01*
X113005500Y-102940000D01*
X112988354Y-102771195D01*
X112985342Y-102741547D01*
X112984963Y-102737816D01*
X112955186Y-102642796D01*
X112925312Y-102547467D01*
X112925311Y-102547464D01*
X112924191Y-102543891D01*
X112825666Y-102366148D01*
X112693412Y-102211845D01*
X112690452Y-102209549D01*
X112690450Y-102209547D01*
X112535800Y-102089588D01*
X112535796Y-102089585D01*
X112532834Y-102087288D01*
X112350489Y-101997563D01*
X112153827Y-101946336D01*
X112150088Y-101946140D01*
X111954627Y-101935896D01*
X111954624Y-101935896D01*
X111950882Y-101935700D01*
X111749942Y-101966090D01*
X111746427Y-101967383D01*
X111746424Y-101967384D01*
X111562740Y-102034967D01*
X111559218Y-102036263D01*
X111556031Y-102038239D01*
X111389682Y-102141379D01*
X111389679Y-102141381D01*
X111386499Y-102143353D01*
X111238841Y-102282986D01*
X111122277Y-102449457D01*
X111041567Y-102635967D01*
X111040802Y-102639629D01*
X111040801Y-102639632D01*
X111016521Y-102755855D01*
X111000008Y-102834897D01*
X110999299Y-103038120D01*
X100227539Y-103038120D01*
X100186469Y-102989175D01*
X100184486Y-102986703D01*
X100127549Y-102912502D01*
X100125649Y-102909911D01*
X100075745Y-102838640D01*
X100021702Y-102761460D01*
X99940492Y-102645480D01*
X99938699Y-102642796D01*
X99888443Y-102563912D01*
X99886778Y-102561169D01*
X99725354Y-102281574D01*
X99723811Y-102278762D01*
X99723801Y-102278743D01*
X99680619Y-102195790D01*
X99679217Y-102192947D01*
X99542768Y-101900331D01*
X99541468Y-101897376D01*
X99505696Y-101811015D01*
X99504526Y-101808006D01*
X99494977Y-101781771D01*
X99394098Y-101504608D01*
X99393076Y-101501599D01*
X99364950Y-101412394D01*
X99364047Y-101409295D01*
X99334932Y-101300638D01*
X99280492Y-101097467D01*
X99279731Y-101094358D01*
X99279722Y-101094315D01*
X99269587Y-101048600D01*
X99259493Y-101003064D01*
X99258863Y-100999899D01*
X99202807Y-100681995D01*
X99202316Y-100678804D01*
X99201714Y-100674231D01*
X99190101Y-100586022D01*
X99189756Y-100582865D01*
X99182342Y-100498120D01*
X110999299Y-100498120D01*
X111000041Y-100501798D01*
X111038123Y-100690662D01*
X111039468Y-100697334D01*
X111118874Y-100884403D01*
X111234273Y-101051685D01*
X111380952Y-101192345D01*
X111384118Y-101194339D01*
X111384121Y-101194341D01*
X111479073Y-101254135D01*
X111552919Y-101300638D01*
X111556428Y-101301957D01*
X111556430Y-101301958D01*
X111713669Y-101361060D01*
X111743149Y-101372141D01*
X111943871Y-101403932D01*
X111947616Y-101403762D01*
X111947618Y-101403762D01*
X112143143Y-101394883D01*
X112146886Y-101394713D01*
X112150516Y-101393794D01*
X112150519Y-101393794D01*
X112340267Y-101345781D01*
X112340271Y-101345779D01*
X112343901Y-101344861D01*
X112526868Y-101256411D01*
X112688312Y-101132978D01*
X112758979Y-101051685D01*
X112819180Y-100982432D01*
X112819181Y-100982431D01*
X112821639Y-100979603D01*
X112921403Y-100802551D01*
X112983527Y-100609055D01*
X112995578Y-100498120D01*
X113539299Y-100498120D01*
X113540041Y-100501798D01*
X113578123Y-100690662D01*
X113579468Y-100697334D01*
X113658874Y-100884403D01*
X113774273Y-101051685D01*
X113920952Y-101192345D01*
X113924118Y-101194339D01*
X113924121Y-101194341D01*
X114019073Y-101254135D01*
X114092919Y-101300638D01*
X114096428Y-101301957D01*
X114096430Y-101301958D01*
X114253669Y-101361060D01*
X114283149Y-101372141D01*
X114483871Y-101403932D01*
X114487616Y-101403762D01*
X114487618Y-101403762D01*
X114683143Y-101394883D01*
X114686886Y-101394713D01*
X114690516Y-101393794D01*
X114690519Y-101393794D01*
X114880267Y-101345781D01*
X114880271Y-101345779D01*
X114883901Y-101344861D01*
X115066868Y-101256411D01*
X115228312Y-101132978D01*
X115298979Y-101051685D01*
X115359180Y-100982432D01*
X115359181Y-100982431D01*
X115361639Y-100979603D01*
X115461403Y-100802551D01*
X115523527Y-100609055D01*
X115545475Y-100407020D01*
X115545500Y-100400000D01*
X115525988Y-100207902D01*
X115525342Y-100201547D01*
X115524963Y-100197816D01*
X115517456Y-100173862D01*
X115465312Y-100007467D01*
X115465311Y-100007464D01*
X115464191Y-100003891D01*
X115365666Y-99826148D01*
X115233412Y-99671845D01*
X115230452Y-99669549D01*
X115230450Y-99669547D01*
X115075800Y-99549588D01*
X115075796Y-99549585D01*
X115072834Y-99547288D01*
X114890489Y-99457563D01*
X114693827Y-99406336D01*
X114690088Y-99406140D01*
X114494627Y-99395896D01*
X114494624Y-99395896D01*
X114490882Y-99395700D01*
X114289942Y-99426090D01*
X114286427Y-99427383D01*
X114286424Y-99427384D01*
X114102740Y-99494967D01*
X114099218Y-99496263D01*
X114096031Y-99498239D01*
X113929682Y-99601379D01*
X113929679Y-99601381D01*
X113926499Y-99603353D01*
X113778841Y-99742986D01*
X113662277Y-99909457D01*
X113581567Y-100095967D01*
X113580802Y-100099629D01*
X113580801Y-100099632D01*
X113558182Y-100207902D01*
X113540008Y-100294897D01*
X113539299Y-100498120D01*
X112995578Y-100498120D01*
X113005475Y-100407020D01*
X113005500Y-100400000D01*
X112985988Y-100207902D01*
X112985342Y-100201547D01*
X112984963Y-100197816D01*
X112977456Y-100173862D01*
X112925312Y-100007467D01*
X112925311Y-100007464D01*
X112924191Y-100003891D01*
X112825666Y-99826148D01*
X112693412Y-99671845D01*
X112690452Y-99669549D01*
X112690450Y-99669547D01*
X112535800Y-99549588D01*
X112535796Y-99549585D01*
X112532834Y-99547288D01*
X112350489Y-99457563D01*
X112153827Y-99406336D01*
X112150088Y-99406140D01*
X111954627Y-99395896D01*
X111954624Y-99395896D01*
X111950882Y-99395700D01*
X111749942Y-99426090D01*
X111746427Y-99427383D01*
X111746424Y-99427384D01*
X111562740Y-99494967D01*
X111559218Y-99496263D01*
X111556031Y-99498239D01*
X111389682Y-99601379D01*
X111389679Y-99601381D01*
X111386499Y-99603353D01*
X111238841Y-99742986D01*
X111122277Y-99909457D01*
X111041567Y-100095967D01*
X111040802Y-100099629D01*
X111040801Y-100099632D01*
X111018182Y-100207902D01*
X111000008Y-100294897D01*
X110999299Y-100498120D01*
X99182342Y-100498120D01*
X99161622Y-100261298D01*
X99161411Y-100258086D01*
X99161411Y-100258082D01*
X99156575Y-100147310D01*
X99156509Y-100144867D01*
X99156041Y-100099632D01*
X99154798Y-99979736D01*
X99152724Y-99972303D01*
X99150000Y-99952413D01*
X99150000Y-97958120D01*
X110999299Y-97958120D01*
X111039468Y-98157334D01*
X111118874Y-98344403D01*
X111234273Y-98511685D01*
X111380952Y-98652345D01*
X111384118Y-98654339D01*
X111384121Y-98654341D01*
X111479073Y-98714135D01*
X111552919Y-98760638D01*
X111556428Y-98761957D01*
X111556430Y-98761958D01*
X111713669Y-98821060D01*
X111743149Y-98832141D01*
X111943871Y-98863932D01*
X111947616Y-98863762D01*
X111947618Y-98863762D01*
X112143143Y-98854883D01*
X112146886Y-98854713D01*
X112150516Y-98853794D01*
X112150519Y-98853794D01*
X112340267Y-98805781D01*
X112340271Y-98805779D01*
X112343901Y-98804861D01*
X112526868Y-98716411D01*
X112688312Y-98592978D01*
X112821639Y-98439603D01*
X112921403Y-98262551D01*
X112983527Y-98069055D01*
X112995578Y-97958120D01*
X113539299Y-97958120D01*
X113579468Y-98157334D01*
X113658874Y-98344403D01*
X113774273Y-98511685D01*
X113920952Y-98652345D01*
X113924118Y-98654339D01*
X113924121Y-98654341D01*
X114019073Y-98714135D01*
X114092919Y-98760638D01*
X114096428Y-98761957D01*
X114096430Y-98761958D01*
X114253669Y-98821060D01*
X114283149Y-98832141D01*
X114483871Y-98863932D01*
X114487616Y-98863762D01*
X114487618Y-98863762D01*
X114683143Y-98854883D01*
X114686886Y-98854713D01*
X114690516Y-98853794D01*
X114690519Y-98853794D01*
X114880267Y-98805781D01*
X114880271Y-98805779D01*
X114883901Y-98804861D01*
X115066868Y-98716411D01*
X115228312Y-98592978D01*
X115361639Y-98439603D01*
X115461403Y-98262551D01*
X115523527Y-98069055D01*
X115545475Y-97867020D01*
X115545500Y-97860000D01*
X115524963Y-97657816D01*
X115464191Y-97463891D01*
X115365666Y-97286148D01*
X115233412Y-97131845D01*
X115230452Y-97129549D01*
X115230450Y-97129547D01*
X115075800Y-97009588D01*
X115075796Y-97009585D01*
X115072834Y-97007288D01*
X114890489Y-96917563D01*
X114693827Y-96866336D01*
X114690088Y-96866140D01*
X114494627Y-96855896D01*
X114494624Y-96855896D01*
X114490882Y-96855700D01*
X114289942Y-96886090D01*
X114286427Y-96887383D01*
X114286424Y-96887384D01*
X114102740Y-96954967D01*
X114099218Y-96956263D01*
X114096031Y-96958239D01*
X113929682Y-97061379D01*
X113929679Y-97061381D01*
X113926499Y-97063353D01*
X113778841Y-97202986D01*
X113662277Y-97369457D01*
X113581567Y-97555967D01*
X113540008Y-97754897D01*
X113539299Y-97958120D01*
X112995578Y-97958120D01*
X113005475Y-97867020D01*
X113005500Y-97860000D01*
X112984963Y-97657816D01*
X112924191Y-97463891D01*
X112825666Y-97286148D01*
X112693412Y-97131845D01*
X112690452Y-97129549D01*
X112690450Y-97129547D01*
X112535800Y-97009588D01*
X112535796Y-97009585D01*
X112532834Y-97007288D01*
X112350489Y-96917563D01*
X112153827Y-96866336D01*
X112150088Y-96866140D01*
X111954627Y-96855896D01*
X111954624Y-96855896D01*
X111950882Y-96855700D01*
X111749942Y-96886090D01*
X111746427Y-96887383D01*
X111746424Y-96887384D01*
X111562740Y-96954967D01*
X111559218Y-96956263D01*
X111556031Y-96958239D01*
X111389682Y-97061379D01*
X111389679Y-97061381D01*
X111386499Y-97063353D01*
X111238841Y-97202986D01*
X111122277Y-97369457D01*
X111041567Y-97555967D01*
X111000008Y-97754897D01*
X110999299Y-97958120D01*
X99150000Y-97958120D01*
X99150000Y-95418120D01*
X110999299Y-95418120D01*
X111039468Y-95617334D01*
X111118874Y-95804403D01*
X111234273Y-95971685D01*
X111380952Y-96112345D01*
X111384118Y-96114339D01*
X111384121Y-96114341D01*
X111479073Y-96174135D01*
X111552919Y-96220638D01*
X111556428Y-96221957D01*
X111556430Y-96221958D01*
X111713669Y-96281060D01*
X111743149Y-96292141D01*
X111943871Y-96323932D01*
X111947616Y-96323762D01*
X111947618Y-96323762D01*
X112143143Y-96314883D01*
X112146886Y-96314713D01*
X112150516Y-96313794D01*
X112150519Y-96313794D01*
X112340267Y-96265781D01*
X112340271Y-96265779D01*
X112343901Y-96264861D01*
X112526868Y-96176411D01*
X112688312Y-96052978D01*
X112821639Y-95899603D01*
X112921403Y-95722551D01*
X112983527Y-95529055D01*
X112995578Y-95418120D01*
X113539299Y-95418120D01*
X113579468Y-95617334D01*
X113658874Y-95804403D01*
X113774273Y-95971685D01*
X113920952Y-96112345D01*
X113924118Y-96114339D01*
X113924121Y-96114341D01*
X114019073Y-96174135D01*
X114092919Y-96220638D01*
X114096428Y-96221957D01*
X114096430Y-96221958D01*
X114253669Y-96281060D01*
X114283149Y-96292141D01*
X114483871Y-96323932D01*
X114487616Y-96323762D01*
X114487618Y-96323762D01*
X114683143Y-96314883D01*
X114686886Y-96314713D01*
X114690516Y-96313794D01*
X114690519Y-96313794D01*
X114880267Y-96265781D01*
X114880271Y-96265779D01*
X114883901Y-96264861D01*
X115066868Y-96176411D01*
X115228312Y-96052978D01*
X115361639Y-95899603D01*
X115461403Y-95722551D01*
X115523527Y-95529055D01*
X115545475Y-95327020D01*
X115545500Y-95320000D01*
X115524963Y-95117816D01*
X115464191Y-94923891D01*
X115365666Y-94746148D01*
X115233412Y-94591845D01*
X115230452Y-94589549D01*
X115230450Y-94589547D01*
X115075800Y-94469588D01*
X115075796Y-94469585D01*
X115072834Y-94467288D01*
X114890489Y-94377563D01*
X114693827Y-94326336D01*
X114690088Y-94326140D01*
X114494627Y-94315896D01*
X114494624Y-94315896D01*
X114490882Y-94315700D01*
X114289942Y-94346090D01*
X114286427Y-94347383D01*
X114286424Y-94347384D01*
X114102740Y-94414967D01*
X114099218Y-94416263D01*
X114096031Y-94418239D01*
X113929682Y-94521379D01*
X113929679Y-94521381D01*
X113926499Y-94523353D01*
X113778841Y-94662986D01*
X113662277Y-94829457D01*
X113581567Y-95015967D01*
X113540008Y-95214897D01*
X113539299Y-95418120D01*
X112995578Y-95418120D01*
X113005475Y-95327020D01*
X113005500Y-95320000D01*
X112984963Y-95117816D01*
X112924191Y-94923891D01*
X112825666Y-94746148D01*
X112693412Y-94591845D01*
X112690452Y-94589549D01*
X112690450Y-94589547D01*
X112535800Y-94469588D01*
X112535796Y-94469585D01*
X112532834Y-94467288D01*
X112350489Y-94377563D01*
X112153827Y-94326336D01*
X112150088Y-94326140D01*
X111954627Y-94315896D01*
X111954624Y-94315896D01*
X111950882Y-94315700D01*
X111749942Y-94346090D01*
X111746427Y-94347383D01*
X111746424Y-94347384D01*
X111562740Y-94414967D01*
X111559218Y-94416263D01*
X111556031Y-94418239D01*
X111389682Y-94521379D01*
X111389679Y-94521381D01*
X111386499Y-94523353D01*
X111238841Y-94662986D01*
X111122277Y-94829457D01*
X111041567Y-95015967D01*
X111000008Y-95214897D01*
X110999299Y-95418120D01*
X99150000Y-95418120D01*
X99150000Y-92878120D01*
X110999299Y-92878120D01*
X111039468Y-93077334D01*
X111118874Y-93264403D01*
X111234273Y-93431685D01*
X111380952Y-93572345D01*
X111384118Y-93574339D01*
X111384121Y-93574341D01*
X111479073Y-93634135D01*
X111552919Y-93680638D01*
X111556428Y-93681957D01*
X111556430Y-93681958D01*
X111713669Y-93741060D01*
X111743149Y-93752141D01*
X111943871Y-93783932D01*
X111947616Y-93783762D01*
X111947618Y-93783762D01*
X112143143Y-93774883D01*
X112146886Y-93774713D01*
X112150516Y-93773794D01*
X112150519Y-93773794D01*
X112340267Y-93725781D01*
X112340271Y-93725779D01*
X112343901Y-93724861D01*
X112526868Y-93636411D01*
X112688312Y-93512978D01*
X112821639Y-93359603D01*
X112921403Y-93182551D01*
X112983527Y-92989055D01*
X112995578Y-92878120D01*
X113539299Y-92878120D01*
X113579468Y-93077334D01*
X113658874Y-93264403D01*
X113774273Y-93431685D01*
X113920952Y-93572345D01*
X113924118Y-93574339D01*
X113924121Y-93574341D01*
X114019073Y-93634135D01*
X114092919Y-93680638D01*
X114096428Y-93681957D01*
X114096430Y-93681958D01*
X114253669Y-93741060D01*
X114283149Y-93752141D01*
X114483871Y-93783932D01*
X114487616Y-93783762D01*
X114487618Y-93783762D01*
X114683143Y-93774883D01*
X114686886Y-93774713D01*
X114690516Y-93773794D01*
X114690519Y-93773794D01*
X114880267Y-93725781D01*
X114880271Y-93725779D01*
X114883901Y-93724861D01*
X115066868Y-93636411D01*
X115228312Y-93512978D01*
X115361639Y-93359603D01*
X115461403Y-93182551D01*
X115523527Y-92989055D01*
X115545475Y-92787020D01*
X115545500Y-92780000D01*
X115524963Y-92577816D01*
X115464191Y-92383891D01*
X115365666Y-92206148D01*
X115233412Y-92051845D01*
X115230452Y-92049549D01*
X115230450Y-92049547D01*
X115075800Y-91929588D01*
X115075796Y-91929585D01*
X115072834Y-91927288D01*
X114890489Y-91837563D01*
X114693827Y-91786336D01*
X114690088Y-91786140D01*
X114494627Y-91775896D01*
X114494624Y-91775896D01*
X114490882Y-91775700D01*
X114289942Y-91806090D01*
X114286427Y-91807383D01*
X114286424Y-91807384D01*
X114102740Y-91874967D01*
X114099218Y-91876263D01*
X114096031Y-91878239D01*
X113929682Y-91981379D01*
X113929679Y-91981381D01*
X113926499Y-91983353D01*
X113778841Y-92122986D01*
X113662277Y-92289457D01*
X113581567Y-92475967D01*
X113540008Y-92674897D01*
X113539299Y-92878120D01*
X112995578Y-92878120D01*
X113005475Y-92787020D01*
X113005500Y-92780000D01*
X112984963Y-92577816D01*
X112924191Y-92383891D01*
X112825666Y-92206148D01*
X112693412Y-92051845D01*
X112690452Y-92049549D01*
X112690450Y-92049547D01*
X112535800Y-91929588D01*
X112535796Y-91929585D01*
X112532834Y-91927288D01*
X112350489Y-91837563D01*
X112153827Y-91786336D01*
X112150088Y-91786140D01*
X111954627Y-91775896D01*
X111954624Y-91775896D01*
X111950882Y-91775700D01*
X111749942Y-91806090D01*
X111746427Y-91807383D01*
X111746424Y-91807384D01*
X111562740Y-91874967D01*
X111559218Y-91876263D01*
X111556031Y-91878239D01*
X111389682Y-91981379D01*
X111389679Y-91981381D01*
X111386499Y-91983353D01*
X111238841Y-92122986D01*
X111122277Y-92289457D01*
X111041567Y-92475967D01*
X111000008Y-92674897D01*
X110999299Y-92878120D01*
X99150000Y-92878120D01*
X99150000Y-90338120D01*
X110999299Y-90338120D01*
X111039468Y-90537334D01*
X111118874Y-90724403D01*
X111234273Y-90891685D01*
X111380952Y-91032345D01*
X111384118Y-91034339D01*
X111384121Y-91034341D01*
X111479073Y-91094135D01*
X111552919Y-91140638D01*
X111556428Y-91141957D01*
X111556430Y-91141958D01*
X111713669Y-91201060D01*
X111743149Y-91212141D01*
X111943871Y-91243932D01*
X111947616Y-91243762D01*
X111947618Y-91243762D01*
X112143143Y-91234883D01*
X112146886Y-91234713D01*
X112150516Y-91233794D01*
X112150519Y-91233794D01*
X112340267Y-91185781D01*
X112340271Y-91185779D01*
X112343901Y-91184861D01*
X112526868Y-91096411D01*
X112688312Y-90972978D01*
X112821639Y-90819603D01*
X112921403Y-90642551D01*
X112983527Y-90449055D01*
X112995578Y-90338120D01*
X113539299Y-90338120D01*
X113579468Y-90537334D01*
X113658874Y-90724403D01*
X113774273Y-90891685D01*
X113920952Y-91032345D01*
X113924118Y-91034339D01*
X113924121Y-91034341D01*
X114019073Y-91094135D01*
X114092919Y-91140638D01*
X114096428Y-91141957D01*
X114096430Y-91141958D01*
X114253669Y-91201060D01*
X114283149Y-91212141D01*
X114483871Y-91243932D01*
X114487616Y-91243762D01*
X114487618Y-91243762D01*
X114683143Y-91234883D01*
X114686886Y-91234713D01*
X114690516Y-91233794D01*
X114690519Y-91233794D01*
X114880267Y-91185781D01*
X114880271Y-91185779D01*
X114883901Y-91184861D01*
X115066868Y-91096411D01*
X115228312Y-90972978D01*
X115361639Y-90819603D01*
X115461403Y-90642551D01*
X115523527Y-90449055D01*
X115545475Y-90247020D01*
X115545500Y-90240000D01*
X115524963Y-90037816D01*
X115464191Y-89843891D01*
X115365666Y-89666148D01*
X115233412Y-89511845D01*
X115230452Y-89509549D01*
X115230450Y-89509547D01*
X115075800Y-89389588D01*
X115075796Y-89389585D01*
X115072834Y-89387288D01*
X114890489Y-89297563D01*
X114693827Y-89246336D01*
X114690088Y-89246140D01*
X114494627Y-89235896D01*
X114494624Y-89235896D01*
X114490882Y-89235700D01*
X114289942Y-89266090D01*
X114286427Y-89267383D01*
X114286424Y-89267384D01*
X114102740Y-89334967D01*
X114099218Y-89336263D01*
X114096031Y-89338239D01*
X113929682Y-89441379D01*
X113929679Y-89441381D01*
X113926499Y-89443353D01*
X113778841Y-89582986D01*
X113662277Y-89749457D01*
X113581567Y-89935967D01*
X113540008Y-90134897D01*
X113539299Y-90338120D01*
X112995578Y-90338120D01*
X113005475Y-90247020D01*
X113005500Y-90240000D01*
X112984963Y-90037816D01*
X112924191Y-89843891D01*
X112825666Y-89666148D01*
X112693412Y-89511845D01*
X112690452Y-89509549D01*
X112690450Y-89509547D01*
X112535800Y-89389588D01*
X112535796Y-89389585D01*
X112532834Y-89387288D01*
X112350489Y-89297563D01*
X112153827Y-89246336D01*
X112150088Y-89246140D01*
X111954627Y-89235896D01*
X111954624Y-89235896D01*
X111950882Y-89235700D01*
X111749942Y-89266090D01*
X111746427Y-89267383D01*
X111746424Y-89267384D01*
X111562740Y-89334967D01*
X111559218Y-89336263D01*
X111556031Y-89338239D01*
X111389682Y-89441379D01*
X111389679Y-89441381D01*
X111386499Y-89443353D01*
X111238841Y-89582986D01*
X111122277Y-89749457D01*
X111041567Y-89935967D01*
X111000008Y-90134897D01*
X110999299Y-90338120D01*
X99150000Y-90338120D01*
X99150000Y-87798120D01*
X110999299Y-87798120D01*
X111039468Y-87997334D01*
X111118874Y-88184403D01*
X111234273Y-88351685D01*
X111380952Y-88492345D01*
X111384118Y-88494339D01*
X111384121Y-88494341D01*
X111479073Y-88554135D01*
X111552919Y-88600638D01*
X111556428Y-88601957D01*
X111556430Y-88601958D01*
X111713669Y-88661060D01*
X111743149Y-88672141D01*
X111943871Y-88703932D01*
X111947616Y-88703762D01*
X111947618Y-88703762D01*
X112143143Y-88694883D01*
X112146886Y-88694713D01*
X112150516Y-88693794D01*
X112150519Y-88693794D01*
X112340267Y-88645781D01*
X112340271Y-88645779D01*
X112343901Y-88644861D01*
X112526868Y-88556411D01*
X112688312Y-88432978D01*
X112821639Y-88279603D01*
X112921403Y-88102551D01*
X112983527Y-87909055D01*
X112995578Y-87798120D01*
X113539299Y-87798120D01*
X113579468Y-87997334D01*
X113658874Y-88184403D01*
X113774273Y-88351685D01*
X113920952Y-88492345D01*
X113924118Y-88494339D01*
X113924121Y-88494341D01*
X114019073Y-88554135D01*
X114092919Y-88600638D01*
X114096428Y-88601957D01*
X114096430Y-88601958D01*
X114253669Y-88661060D01*
X114283149Y-88672141D01*
X114483871Y-88703932D01*
X114487616Y-88703762D01*
X114487618Y-88703762D01*
X114683143Y-88694883D01*
X114686886Y-88694713D01*
X114690516Y-88693794D01*
X114690519Y-88693794D01*
X114880267Y-88645781D01*
X114880271Y-88645779D01*
X114883901Y-88644861D01*
X115066868Y-88556411D01*
X115228312Y-88432978D01*
X115361639Y-88279603D01*
X115461403Y-88102551D01*
X115523527Y-87909055D01*
X115545475Y-87707020D01*
X115545500Y-87700000D01*
X115524963Y-87497816D01*
X115464191Y-87303891D01*
X115365666Y-87126148D01*
X115233412Y-86971845D01*
X115230452Y-86969549D01*
X115230450Y-86969547D01*
X115075800Y-86849588D01*
X115075796Y-86849585D01*
X115072834Y-86847288D01*
X114890489Y-86757563D01*
X114693827Y-86706336D01*
X114690088Y-86706140D01*
X114494627Y-86695896D01*
X114494624Y-86695896D01*
X114490882Y-86695700D01*
X114289942Y-86726090D01*
X114286427Y-86727383D01*
X114286424Y-86727384D01*
X114102740Y-86794967D01*
X114099218Y-86796263D01*
X114096031Y-86798239D01*
X113929682Y-86901379D01*
X113929679Y-86901381D01*
X113926499Y-86903353D01*
X113778841Y-87042986D01*
X113662277Y-87209457D01*
X113581567Y-87395967D01*
X113540008Y-87594897D01*
X113539299Y-87798120D01*
X112995578Y-87798120D01*
X113005475Y-87707020D01*
X113005500Y-87700000D01*
X112984963Y-87497816D01*
X112924191Y-87303891D01*
X112825666Y-87126148D01*
X112693412Y-86971845D01*
X112690452Y-86969549D01*
X112690450Y-86969547D01*
X112535800Y-86849588D01*
X112535796Y-86849585D01*
X112532834Y-86847288D01*
X112350489Y-86757563D01*
X112153827Y-86706336D01*
X112150088Y-86706140D01*
X111954627Y-86695896D01*
X111954624Y-86695896D01*
X111950882Y-86695700D01*
X111749942Y-86726090D01*
X111746427Y-86727383D01*
X111746424Y-86727384D01*
X111562740Y-86794967D01*
X111559218Y-86796263D01*
X111556031Y-86798239D01*
X111389682Y-86901379D01*
X111389679Y-86901381D01*
X111386499Y-86903353D01*
X111238841Y-87042986D01*
X111122277Y-87209457D01*
X111041567Y-87395967D01*
X111000008Y-87594897D01*
X110999299Y-87798120D01*
X99150000Y-87798120D01*
X99150000Y-85258120D01*
X110999299Y-85258120D01*
X111039468Y-85457334D01*
X111118874Y-85644403D01*
X111234273Y-85811685D01*
X111380952Y-85952345D01*
X111384118Y-85954339D01*
X111384121Y-85954341D01*
X111479073Y-86014135D01*
X111552919Y-86060638D01*
X111556428Y-86061957D01*
X111556430Y-86061958D01*
X111713669Y-86121060D01*
X111743149Y-86132141D01*
X111943871Y-86163932D01*
X111947616Y-86163762D01*
X111947618Y-86163762D01*
X112143143Y-86154883D01*
X112146886Y-86154713D01*
X112150516Y-86153794D01*
X112150519Y-86153794D01*
X112340267Y-86105781D01*
X112340271Y-86105779D01*
X112343901Y-86104861D01*
X112526868Y-86016411D01*
X112688312Y-85892978D01*
X112821639Y-85739603D01*
X112921403Y-85562551D01*
X112983527Y-85369055D01*
X112995578Y-85258120D01*
X113539299Y-85258120D01*
X113579468Y-85457334D01*
X113658874Y-85644403D01*
X113774273Y-85811685D01*
X113920952Y-85952345D01*
X113924118Y-85954339D01*
X113924121Y-85954341D01*
X114019073Y-86014135D01*
X114092919Y-86060638D01*
X114096428Y-86061957D01*
X114096430Y-86061958D01*
X114253669Y-86121060D01*
X114283149Y-86132141D01*
X114483871Y-86163932D01*
X114487616Y-86163762D01*
X114487618Y-86163762D01*
X114683143Y-86154883D01*
X114686886Y-86154713D01*
X114690516Y-86153794D01*
X114690519Y-86153794D01*
X114880267Y-86105781D01*
X114880271Y-86105779D01*
X114883901Y-86104861D01*
X115066868Y-86016411D01*
X115228312Y-85892978D01*
X115361639Y-85739603D01*
X115461403Y-85562551D01*
X115523527Y-85369055D01*
X115545475Y-85167020D01*
X115545500Y-85160000D01*
X115524963Y-84957816D01*
X115464191Y-84763891D01*
X115365666Y-84586148D01*
X115233412Y-84431845D01*
X115230452Y-84429549D01*
X115230450Y-84429547D01*
X115075800Y-84309588D01*
X115075796Y-84309585D01*
X115072834Y-84307288D01*
X114890489Y-84217563D01*
X114693827Y-84166336D01*
X114690088Y-84166140D01*
X114494627Y-84155896D01*
X114494624Y-84155896D01*
X114490882Y-84155700D01*
X114289942Y-84186090D01*
X114286427Y-84187383D01*
X114286424Y-84187384D01*
X114102740Y-84254967D01*
X114099218Y-84256263D01*
X114096031Y-84258239D01*
X113929682Y-84361379D01*
X113929679Y-84361381D01*
X113926499Y-84363353D01*
X113778841Y-84502986D01*
X113662277Y-84669457D01*
X113581567Y-84855967D01*
X113540008Y-85054897D01*
X113539299Y-85258120D01*
X112995578Y-85258120D01*
X113005475Y-85167020D01*
X113005500Y-85160000D01*
X112984963Y-84957816D01*
X112924191Y-84763891D01*
X112825666Y-84586148D01*
X112693412Y-84431845D01*
X112690452Y-84429549D01*
X112690450Y-84429547D01*
X112535800Y-84309588D01*
X112535796Y-84309585D01*
X112532834Y-84307288D01*
X112350489Y-84217563D01*
X112153827Y-84166336D01*
X112150088Y-84166140D01*
X111954627Y-84155896D01*
X111954624Y-84155896D01*
X111950882Y-84155700D01*
X111749942Y-84186090D01*
X111746427Y-84187383D01*
X111746424Y-84187384D01*
X111562740Y-84254967D01*
X111559218Y-84256263D01*
X111556031Y-84258239D01*
X111389682Y-84361379D01*
X111389679Y-84361381D01*
X111386499Y-84363353D01*
X111238841Y-84502986D01*
X111122277Y-84669457D01*
X111041567Y-84855967D01*
X111000008Y-85054897D01*
X110999299Y-85258120D01*
X99150000Y-85258120D01*
X99150000Y-82718120D01*
X110999299Y-82718120D01*
X111039468Y-82917334D01*
X111118874Y-83104403D01*
X111234273Y-83271685D01*
X111380952Y-83412345D01*
X111384118Y-83414339D01*
X111384121Y-83414341D01*
X111479073Y-83474135D01*
X111552919Y-83520638D01*
X111556428Y-83521957D01*
X111556430Y-83521958D01*
X111713669Y-83581060D01*
X111743149Y-83592141D01*
X111943871Y-83623932D01*
X111947616Y-83623762D01*
X111947618Y-83623762D01*
X112143143Y-83614883D01*
X112146886Y-83614713D01*
X112150516Y-83613794D01*
X112150519Y-83613794D01*
X112340267Y-83565781D01*
X112340271Y-83565779D01*
X112343901Y-83564861D01*
X112526868Y-83476411D01*
X112688312Y-83352978D01*
X112821639Y-83199603D01*
X112921403Y-83022551D01*
X112983527Y-82829055D01*
X112995578Y-82718120D01*
X113539299Y-82718120D01*
X113579468Y-82917334D01*
X113658874Y-83104403D01*
X113774273Y-83271685D01*
X113920952Y-83412345D01*
X113924118Y-83414339D01*
X113924121Y-83414341D01*
X114019073Y-83474135D01*
X114092919Y-83520638D01*
X114096428Y-83521957D01*
X114096430Y-83521958D01*
X114253669Y-83581060D01*
X114283149Y-83592141D01*
X114483871Y-83623932D01*
X114487616Y-83623762D01*
X114487618Y-83623762D01*
X114683143Y-83614883D01*
X114686886Y-83614713D01*
X114690516Y-83613794D01*
X114690519Y-83613794D01*
X114880267Y-83565781D01*
X114880271Y-83565779D01*
X114883901Y-83564861D01*
X115066868Y-83476411D01*
X115228312Y-83352978D01*
X115361639Y-83199603D01*
X115461403Y-83022551D01*
X115523527Y-82829055D01*
X115545475Y-82627020D01*
X115545500Y-82620000D01*
X115524963Y-82417816D01*
X115464191Y-82223891D01*
X115365666Y-82046148D01*
X115233412Y-81891845D01*
X115230452Y-81889549D01*
X115230450Y-81889547D01*
X115075800Y-81769588D01*
X115075796Y-81769585D01*
X115072834Y-81767288D01*
X114890489Y-81677563D01*
X114693827Y-81626336D01*
X114690088Y-81626140D01*
X114494627Y-81615896D01*
X114494624Y-81615896D01*
X114490882Y-81615700D01*
X114289942Y-81646090D01*
X114286427Y-81647383D01*
X114286424Y-81647384D01*
X114102740Y-81714967D01*
X114099218Y-81716263D01*
X114096031Y-81718239D01*
X113929682Y-81821379D01*
X113929679Y-81821381D01*
X113926499Y-81823353D01*
X113778841Y-81962986D01*
X113662277Y-82129457D01*
X113581567Y-82315967D01*
X113540008Y-82514897D01*
X113539299Y-82718120D01*
X112995578Y-82718120D01*
X113005475Y-82627020D01*
X113005500Y-82620000D01*
X112984963Y-82417816D01*
X112924191Y-82223891D01*
X112825666Y-82046148D01*
X112693412Y-81891845D01*
X112690452Y-81889549D01*
X112690450Y-81889547D01*
X112535800Y-81769588D01*
X112535796Y-81769585D01*
X112532834Y-81767288D01*
X112350489Y-81677563D01*
X112153827Y-81626336D01*
X112150088Y-81626140D01*
X111954627Y-81615896D01*
X111954624Y-81615896D01*
X111950882Y-81615700D01*
X111749942Y-81646090D01*
X111746427Y-81647383D01*
X111746424Y-81647384D01*
X111562740Y-81714967D01*
X111559218Y-81716263D01*
X111556031Y-81718239D01*
X111389682Y-81821379D01*
X111389679Y-81821381D01*
X111386499Y-81823353D01*
X111238841Y-81962986D01*
X111122277Y-82129457D01*
X111041567Y-82315967D01*
X111000008Y-82514897D01*
X110999299Y-82718120D01*
X99150000Y-82718120D01*
X99150000Y-80178120D01*
X110999299Y-80178120D01*
X111039468Y-80377334D01*
X111118874Y-80564403D01*
X111234273Y-80731685D01*
X111380952Y-80872345D01*
X111384118Y-80874339D01*
X111384121Y-80874341D01*
X111479073Y-80934135D01*
X111552919Y-80980638D01*
X111556428Y-80981957D01*
X111556430Y-80981958D01*
X111713669Y-81041060D01*
X111743149Y-81052141D01*
X111943871Y-81083932D01*
X111947616Y-81083762D01*
X111947618Y-81083762D01*
X112143143Y-81074883D01*
X112146886Y-81074713D01*
X112150516Y-81073794D01*
X112150519Y-81073794D01*
X112340267Y-81025781D01*
X112340271Y-81025779D01*
X112343901Y-81024861D01*
X112526868Y-80936411D01*
X112688312Y-80812978D01*
X112821639Y-80659603D01*
X112921403Y-80482551D01*
X112983527Y-80289055D01*
X112995578Y-80178120D01*
X113539299Y-80178120D01*
X113579468Y-80377334D01*
X113658874Y-80564403D01*
X113774273Y-80731685D01*
X113920952Y-80872345D01*
X113924118Y-80874339D01*
X113924121Y-80874341D01*
X114019073Y-80934135D01*
X114092919Y-80980638D01*
X114096428Y-80981957D01*
X114096430Y-80981958D01*
X114253669Y-81041060D01*
X114283149Y-81052141D01*
X114483871Y-81083932D01*
X114487616Y-81083762D01*
X114487618Y-81083762D01*
X114683143Y-81074883D01*
X114686886Y-81074713D01*
X114690516Y-81073794D01*
X114690519Y-81073794D01*
X114880267Y-81025781D01*
X114880271Y-81025779D01*
X114883901Y-81024861D01*
X115066868Y-80936411D01*
X115228312Y-80812978D01*
X115361639Y-80659603D01*
X115461403Y-80482551D01*
X115523527Y-80289055D01*
X115545475Y-80087020D01*
X115545500Y-80080000D01*
X115524963Y-79877816D01*
X115464191Y-79683891D01*
X115365666Y-79506148D01*
X115233412Y-79351845D01*
X115230452Y-79349549D01*
X115230450Y-79349547D01*
X115075800Y-79229588D01*
X115075796Y-79229585D01*
X115072834Y-79227288D01*
X114890489Y-79137563D01*
X114693827Y-79086336D01*
X114690088Y-79086140D01*
X114494627Y-79075896D01*
X114494624Y-79075896D01*
X114490882Y-79075700D01*
X114289942Y-79106090D01*
X114286427Y-79107383D01*
X114286424Y-79107384D01*
X114102740Y-79174967D01*
X114099218Y-79176263D01*
X114096031Y-79178239D01*
X113929682Y-79281379D01*
X113929679Y-79281381D01*
X113926499Y-79283353D01*
X113778841Y-79422986D01*
X113662277Y-79589457D01*
X113581567Y-79775967D01*
X113540008Y-79974897D01*
X113539299Y-80178120D01*
X112995578Y-80178120D01*
X113005475Y-80087020D01*
X113005500Y-80080000D01*
X112984963Y-79877816D01*
X112924191Y-79683891D01*
X112825666Y-79506148D01*
X112693412Y-79351845D01*
X112690452Y-79349549D01*
X112690450Y-79349547D01*
X112535800Y-79229588D01*
X112535796Y-79229585D01*
X112532834Y-79227288D01*
X112350489Y-79137563D01*
X112153827Y-79086336D01*
X112150088Y-79086140D01*
X111954627Y-79075896D01*
X111954624Y-79075896D01*
X111950882Y-79075700D01*
X111749942Y-79106090D01*
X111746427Y-79107383D01*
X111746424Y-79107384D01*
X111562740Y-79174967D01*
X111559218Y-79176263D01*
X111556031Y-79178239D01*
X111389682Y-79281379D01*
X111389679Y-79281381D01*
X111386499Y-79283353D01*
X111238841Y-79422986D01*
X111122277Y-79589457D01*
X111041567Y-79775967D01*
X111000008Y-79974897D01*
X110999299Y-80178120D01*
X99150000Y-80178120D01*
X99150000Y-78047587D01*
X99152724Y-78027694D01*
X99153494Y-78024937D01*
X99153494Y-78024936D01*
X99154798Y-78020264D01*
X99156509Y-77855115D01*
X99156575Y-77852672D01*
X99161411Y-77741914D01*
X99161623Y-77738693D01*
X99170421Y-77638120D01*
X110999299Y-77638120D01*
X111039468Y-77837334D01*
X111040932Y-77840784D01*
X111040933Y-77840786D01*
X111117118Y-78020265D01*
X111118874Y-78024403D01*
X111234273Y-78191685D01*
X111380952Y-78332345D01*
X111384118Y-78334339D01*
X111384121Y-78334341D01*
X111479073Y-78394135D01*
X111552919Y-78440638D01*
X111556428Y-78441957D01*
X111556430Y-78441958D01*
X111713669Y-78501060D01*
X111743149Y-78512141D01*
X111943871Y-78543932D01*
X111947616Y-78543762D01*
X111947618Y-78543762D01*
X112143143Y-78534883D01*
X112146886Y-78534713D01*
X112150516Y-78533794D01*
X112150519Y-78533794D01*
X112340267Y-78485781D01*
X112340271Y-78485779D01*
X112343901Y-78484861D01*
X112526868Y-78396411D01*
X112688312Y-78272978D01*
X112821639Y-78119603D01*
X112880347Y-78015414D01*
X112919563Y-77945817D01*
X112919564Y-77945815D01*
X112921403Y-77942551D01*
X112983527Y-77749055D01*
X112995578Y-77638120D01*
X113539299Y-77638120D01*
X113579468Y-77837334D01*
X113580932Y-77840784D01*
X113580933Y-77840786D01*
X113657118Y-78020265D01*
X113658874Y-78024403D01*
X113774273Y-78191685D01*
X113920952Y-78332345D01*
X113924118Y-78334339D01*
X113924121Y-78334341D01*
X114019073Y-78394135D01*
X114092919Y-78440638D01*
X114096428Y-78441957D01*
X114096430Y-78441958D01*
X114253669Y-78501060D01*
X114283149Y-78512141D01*
X114483871Y-78543932D01*
X114487616Y-78543762D01*
X114487618Y-78543762D01*
X114683143Y-78534883D01*
X114686886Y-78534713D01*
X114690516Y-78533794D01*
X114690519Y-78533794D01*
X114880267Y-78485781D01*
X114880271Y-78485779D01*
X114883901Y-78484861D01*
X115066868Y-78396411D01*
X115228312Y-78272978D01*
X115361639Y-78119603D01*
X115420347Y-78015414D01*
X115459563Y-77945817D01*
X115459564Y-77945815D01*
X115461403Y-77942551D01*
X115523527Y-77749055D01*
X115545475Y-77547020D01*
X115545500Y-77540000D01*
X115524963Y-77337816D01*
X115464191Y-77143891D01*
X115365666Y-76966148D01*
X115304830Y-76895169D01*
X115235851Y-76814691D01*
X115233412Y-76811845D01*
X115230452Y-76809549D01*
X115230450Y-76809547D01*
X115075800Y-76689588D01*
X115075796Y-76689585D01*
X115072834Y-76687288D01*
X114890489Y-76597563D01*
X114693827Y-76546336D01*
X114690088Y-76546140D01*
X114494627Y-76535896D01*
X114494624Y-76535896D01*
X114490882Y-76535700D01*
X114289942Y-76566090D01*
X114286427Y-76567383D01*
X114286424Y-76567384D01*
X114102740Y-76634967D01*
X114099218Y-76636263D01*
X114096031Y-76638239D01*
X113929682Y-76741379D01*
X113929679Y-76741381D01*
X113926499Y-76743353D01*
X113778841Y-76882986D01*
X113776695Y-76886051D01*
X113776694Y-76886052D01*
X113696845Y-77000089D01*
X113662277Y-77049457D01*
X113581567Y-77235967D01*
X113580802Y-77239629D01*
X113580801Y-77239632D01*
X113559510Y-77341547D01*
X113540008Y-77434897D01*
X113539299Y-77638120D01*
X112995578Y-77638120D01*
X113005475Y-77547020D01*
X113005500Y-77540000D01*
X112984963Y-77337816D01*
X112924191Y-77143891D01*
X112825666Y-76966148D01*
X112764830Y-76895169D01*
X112695851Y-76814691D01*
X112693412Y-76811845D01*
X112690452Y-76809549D01*
X112690450Y-76809547D01*
X112535800Y-76689588D01*
X112535796Y-76689585D01*
X112532834Y-76687288D01*
X112350489Y-76597563D01*
X112153827Y-76546336D01*
X112150088Y-76546140D01*
X111954627Y-76535896D01*
X111954624Y-76535896D01*
X111950882Y-76535700D01*
X111749942Y-76566090D01*
X111746427Y-76567383D01*
X111746424Y-76567384D01*
X111562740Y-76634967D01*
X111559218Y-76636263D01*
X111556031Y-76638239D01*
X111389682Y-76741379D01*
X111389679Y-76741381D01*
X111386499Y-76743353D01*
X111238841Y-76882986D01*
X111236695Y-76886051D01*
X111236694Y-76886052D01*
X111156845Y-77000089D01*
X111122277Y-77049457D01*
X111041567Y-77235967D01*
X111040802Y-77239629D01*
X111040801Y-77239632D01*
X111019510Y-77341547D01*
X111000008Y-77434897D01*
X110999299Y-77638120D01*
X99170421Y-77638120D01*
X99178838Y-77541924D01*
X99189756Y-77417135D01*
X99190101Y-77413978D01*
X99202316Y-77321196D01*
X99202807Y-77318005D01*
X99258863Y-77000101D01*
X99259493Y-76996936D01*
X99273713Y-76932790D01*
X99279735Y-76905624D01*
X99280492Y-76902533D01*
X99362209Y-76597563D01*
X99364047Y-76590705D01*
X99364950Y-76587606D01*
X99381254Y-76535896D01*
X99393076Y-76498401D01*
X99394104Y-76495373D01*
X99504526Y-76191994D01*
X99505696Y-76188985D01*
X99541468Y-76102624D01*
X99542768Y-76099669D01*
X99571280Y-76038524D01*
X99679217Y-75807053D01*
X99680624Y-75804199D01*
X99723812Y-75721237D01*
X99725364Y-75718408D01*
X99783059Y-75618477D01*
X99886778Y-75438831D01*
X99888443Y-75436088D01*
X99938699Y-75357204D01*
X99940492Y-75354520D01*
X100092068Y-75138048D01*
X100125658Y-75090077D01*
X100127558Y-75087486D01*
X100184486Y-75013297D01*
X100186469Y-75010825D01*
X100305195Y-74869333D01*
X100394020Y-74763477D01*
X100396148Y-74761051D01*
X100459286Y-74692147D01*
X100461519Y-74689814D01*
X100689824Y-74461510D01*
X100692156Y-74459278D01*
X100761074Y-74396126D01*
X100763502Y-74393997D01*
X101010813Y-74186480D01*
X101013285Y-74184495D01*
X101058239Y-74150000D01*
X110994500Y-74150000D01*
X110994500Y-75850000D01*
X111006337Y-75909507D01*
X111040045Y-75959955D01*
X111090493Y-75993663D01*
X111097638Y-75995084D01*
X111097640Y-75995085D01*
X111146430Y-76004790D01*
X111146431Y-76004790D01*
X111150000Y-76005500D01*
X112850000Y-76005500D01*
X112853569Y-76004790D01*
X112853570Y-76004790D01*
X112902360Y-75995085D01*
X112902362Y-75995084D01*
X112909507Y-75993663D01*
X112959955Y-75959955D01*
X112993663Y-75909507D01*
X113005500Y-75850000D01*
X113005500Y-75132792D01*
X113497490Y-75132792D01*
X113502029Y-75186840D01*
X113503330Y-75193927D01*
X113558088Y-75384892D01*
X113560739Y-75391588D01*
X113651547Y-75568282D01*
X113655452Y-75574340D01*
X113778847Y-75730027D01*
X113783853Y-75735211D01*
X113935140Y-75863965D01*
X113941059Y-75868079D01*
X114114473Y-75964998D01*
X114121074Y-75967881D01*
X114310008Y-76029269D01*
X114317053Y-76030818D01*
X114402043Y-76040953D01*
X114412400Y-76038524D01*
X114415000Y-76035049D01*
X114415000Y-75138048D01*
X114413500Y-75133925D01*
X114665000Y-75133925D01*
X114665000Y-76030402D01*
X114668638Y-76040398D01*
X114672875Y-76042844D01*
X114719589Y-76039250D01*
X114726687Y-76037998D01*
X114918033Y-75984574D01*
X114924741Y-75981972D01*
X115102062Y-75892400D01*
X115108151Y-75888536D01*
X115264696Y-75766230D01*
X115269915Y-75761260D01*
X115399725Y-75610873D01*
X115403873Y-75604993D01*
X115502004Y-75432250D01*
X115504932Y-75425675D01*
X115567640Y-75237168D01*
X115569237Y-75230144D01*
X115580884Y-75137944D01*
X115578528Y-75127573D01*
X115575137Y-75125000D01*
X114678048Y-75125000D01*
X114668052Y-75128638D01*
X114665000Y-75133925D01*
X114413500Y-75133925D01*
X114411362Y-75128052D01*
X114406075Y-75125000D01*
X113509884Y-75125000D01*
X113499888Y-75128638D01*
X113497490Y-75132792D01*
X113005500Y-75132792D01*
X113005500Y-74862033D01*
X113498926Y-74862033D01*
X113501428Y-74872372D01*
X113504993Y-74875000D01*
X114401952Y-74875000D01*
X114411948Y-74871362D01*
X114415000Y-74866075D01*
X114415000Y-73970120D01*
X114413131Y-73964982D01*
X114665000Y-73964982D01*
X114665000Y-74861952D01*
X114668638Y-74871948D01*
X114673925Y-74875000D01*
X115569696Y-74875000D01*
X115579692Y-74871362D01*
X115581996Y-74867371D01*
X115575261Y-74798686D01*
X115573862Y-74791618D01*
X115516441Y-74601434D01*
X115513697Y-74594776D01*
X115420431Y-74419367D01*
X115416445Y-74413368D01*
X115290883Y-74259414D01*
X115285812Y-74254307D01*
X115132734Y-74127669D01*
X115126768Y-74123645D01*
X114952012Y-74029155D01*
X114945374Y-74026365D01*
X114755596Y-73967619D01*
X114748537Y-73966170D01*
X114677976Y-73958754D01*
X114667656Y-73961327D01*
X114665000Y-73964982D01*
X114413131Y-73964982D01*
X114411362Y-73960124D01*
X114407290Y-73957774D01*
X114345918Y-73963359D01*
X114338841Y-73964709D01*
X114148261Y-74020799D01*
X114141585Y-74023497D01*
X113965524Y-74115539D01*
X113959503Y-74119480D01*
X113804679Y-74243961D01*
X113799526Y-74249006D01*
X113671833Y-74401186D01*
X113667763Y-74407130D01*
X113572054Y-74581223D01*
X113569218Y-74587840D01*
X113509150Y-74777198D01*
X113507650Y-74784254D01*
X113498926Y-74862033D01*
X113005500Y-74862033D01*
X113005500Y-74150000D01*
X112993663Y-74090493D01*
X112959955Y-74040045D01*
X112909507Y-74006337D01*
X112902362Y-74004916D01*
X112902360Y-74004915D01*
X112853570Y-73995210D01*
X112853569Y-73995210D01*
X112850000Y-73994500D01*
X111150000Y-73994500D01*
X111146431Y-73995210D01*
X111146430Y-73995210D01*
X111097640Y-74004915D01*
X111097638Y-74004916D01*
X111090493Y-74006337D01*
X111040045Y-74040045D01*
X111006337Y-74090493D01*
X110994500Y-74150000D01*
X101058239Y-74150000D01*
X101062892Y-74146430D01*
X101087503Y-74127546D01*
X101090106Y-74125638D01*
X101277389Y-73994500D01*
X101354546Y-73940474D01*
X101357221Y-73938687D01*
X101436099Y-73888437D01*
X101438859Y-73886762D01*
X101718426Y-73725354D01*
X101721257Y-73723801D01*
X101804184Y-73680632D01*
X101804214Y-73680617D01*
X101807081Y-73679203D01*
X101953378Y-73610984D01*
X102099661Y-73542772D01*
X102102615Y-73541472D01*
X102189007Y-73505687D01*
X102192016Y-73504517D01*
X102495415Y-73394090D01*
X102498403Y-73393076D01*
X102587614Y-73364947D01*
X102590647Y-73364063D01*
X102855709Y-73293040D01*
X102902550Y-73280489D01*
X102905685Y-73279722D01*
X102950400Y-73269809D01*
X102996932Y-73259493D01*
X103000084Y-73258866D01*
X103112625Y-73239022D01*
X103318023Y-73202805D01*
X103321214Y-73202314D01*
X103370876Y-73195776D01*
X103413947Y-73190105D01*
X103417126Y-73189758D01*
X103738698Y-73161623D01*
X103741916Y-73161411D01*
X103852690Y-73156575D01*
X103855115Y-73156509D01*
X104020265Y-73154798D01*
X104024936Y-73153494D01*
X104024938Y-73153494D01*
X104027696Y-73152724D01*
X104047589Y-73150000D01*
X122952413Y-73150000D01*
X122972303Y-73152724D01*
G37*
%TD.AperFunction*%
%TD*%
M02*
