M48
;DRILL file {KiCad 5.0.2-bee76a0~70~ubuntu18.04.1} date Thu 04 Apr 2019 22:52:23 BST
;FORMAT={-:-/ absolute / inch / decimal}
FMAT,2
INCH,TZ
T1C0.0118
T2C0.0394
%
G90
G05
T1
X4.8425Y-3.0709
X4.8425Y-4.8031
X5.063Y-3.7008
X5.0748Y-3.2165
X5.0748Y-3.2795
X5.126Y-3.3937
X5.1339Y-4.3701
X5.1417Y-4.8189
X5.2008Y-3.0827
X5.2126Y-3.8031
X5.2126Y-4.2598
X5.2165Y-3.2165
X5.2165Y-3.2835
X5.2205Y-2.9803
X5.3228Y-3.185
X5.4016Y-4.8179
X5.4331Y-3.3071
X5.4331Y-4.5512
X5.4567Y-4.7559
X5.4724Y-4.4409
X5.6142Y-3.5748
X5.7087Y-3.0709
X5.7087Y-4.6929
X5.7244Y-3.5276
X5.7717Y-4.1496
X5.8268Y-3.5669
X5.9291Y-3.8189
X5.937Y-3.1811
X5.937Y-3.5669
X5.9449Y-3.4843
X6.0236Y-4.1417
X6.063Y-3.685
X6.0709Y-3.4646
X6.252Y-3.1732
X6.252Y-3.9055
X6.3071Y-4.7559
X6.3622Y-3.2598
X6.3701Y-3.6063
X6.378Y-4.7087
X6.3858Y-3.5276
X6.4882Y-3.5827
X6.5748Y-3.0709
X6.5748Y-4.8031
X6.6614Y-3.7638
T2
X4.9244Y-3.2496
X4.9244Y-3.3496
X4.9244Y-3.4496
X4.9244Y-3.5496
X4.9244Y-3.6496
X4.9244Y-3.7496
X4.9244Y-3.8496
X4.9244Y-3.9496
X4.9244Y-4.0496
X4.9244Y-4.1496
X4.9244Y-4.2496
X4.9244Y-4.3496
X4.9244Y-4.4496
X4.9244Y-4.5496
X4.9244Y-4.6496
X5.0244Y-3.2496
X5.0244Y-3.3496
X5.0244Y-3.4496
X5.0244Y-3.5496
X5.0244Y-3.6496
X5.0244Y-3.7496
X5.0244Y-3.8496
X5.0244Y-3.9496
X5.0244Y-4.0496
X5.0244Y-4.1496
X5.0244Y-4.2496
X5.0244Y-4.3496
X5.0244Y-4.4496
X5.0244Y-4.5496
X5.0244Y-4.6496
X5.2756Y-3.2496
X5.2756Y-3.3496
X5.2756Y-3.4496
X5.2756Y-3.5496
X5.2756Y-3.6496
X5.2756Y-3.7496
X5.2756Y-3.8496
X5.2756Y-3.9496
X5.2756Y-4.0496
X5.2756Y-4.1496
X5.2756Y-4.2496
X5.2756Y-4.3496
X5.2756Y-4.4496
X5.2756Y-4.5496
X5.2756Y-4.6496
X5.3756Y-3.2496
X5.3756Y-3.3496
X5.3756Y-3.4496
X5.3756Y-3.5496
X5.3756Y-3.6496
X5.3756Y-3.7496
X5.3756Y-3.8496
X5.3756Y-3.9496
X5.3756Y-4.0496
X5.3756Y-4.1496
X5.3756Y-4.2496
X5.3756Y-4.3496
X5.3756Y-4.4496
X5.3756Y-4.5496
X5.3756Y-4.6496
T0
M30
