G04 #@! TF.GenerationSoftware,KiCad,Pcbnew,5.0.2-bee76a0~70~ubuntu18.04.1*
G04 #@! TF.CreationDate,2019-04-04T22:51:14+01:00*
G04 #@! TF.ProjectId,sram_dev_board,7372616d-5f64-4657-965f-626f6172642e,rev?*
G04 #@! TF.SameCoordinates,Original*
G04 #@! TF.FileFunction,Copper,L1,Top*
G04 #@! TF.FilePolarity,Positive*
%FSLAX46Y46*%
G04 Gerber Fmt 4.6, Leading zero omitted, Abs format (unit mm)*
G04 Created by KiCad (PCBNEW 5.0.2-bee76a0~70~ubuntu18.04.1) date Thu 04 Apr 2019 22:51:14 BST*
%MOMM*%
%LPD*%
G01*
G04 APERTURE LIST*
G04 #@! TA.AperFunction,Conductor*
%ADD10C,0.100000*%
G04 #@! TD*
G04 #@! TA.AperFunction,SMDPad,CuDef*
%ADD11C,0.950000*%
G04 #@! TD*
G04 #@! TA.AperFunction,ComponentPad*
%ADD12R,1.700000X1.700000*%
G04 #@! TD*
G04 #@! TA.AperFunction,ComponentPad*
%ADD13O,1.700000X1.700000*%
G04 #@! TD*
G04 #@! TA.AperFunction,SMDPad,CuDef*
%ADD14R,2.750000X1.000000*%
G04 #@! TD*
G04 #@! TA.AperFunction,SMDPad,CuDef*
%ADD15R,1.000000X2.750000*%
G04 #@! TD*
G04 #@! TA.AperFunction,SMDPad,CuDef*
%ADD16R,0.800000X0.300000*%
G04 #@! TD*
G04 #@! TA.AperFunction,ViaPad*
%ADD17C,0.600000*%
G04 #@! TD*
G04 #@! TA.AperFunction,Conductor*
%ADD18C,0.500000*%
G04 #@! TD*
G04 #@! TA.AperFunction,Conductor*
%ADD19C,0.200000*%
G04 #@! TD*
G04 #@! TA.AperFunction,Conductor*
%ADD20C,0.300000*%
G04 #@! TD*
G04 #@! TA.AperFunction,Conductor*
%ADD21C,0.150000*%
G04 #@! TD*
G04 APERTURE END LIST*
D10*
G04 #@! TO.N,+3V3*
G04 #@! TO.C,C1*
G36*
X128060779Y-78776144D02*
X128083834Y-78779563D01*
X128106443Y-78785227D01*
X128128387Y-78793079D01*
X128149457Y-78803044D01*
X128169448Y-78815026D01*
X128188168Y-78828910D01*
X128205438Y-78844562D01*
X128221090Y-78861832D01*
X128234974Y-78880552D01*
X128246956Y-78900543D01*
X128256921Y-78921613D01*
X128264773Y-78943557D01*
X128270437Y-78966166D01*
X128273856Y-78989221D01*
X128275000Y-79012500D01*
X128275000Y-79487500D01*
X128273856Y-79510779D01*
X128270437Y-79533834D01*
X128264773Y-79556443D01*
X128256921Y-79578387D01*
X128246956Y-79599457D01*
X128234974Y-79619448D01*
X128221090Y-79638168D01*
X128205438Y-79655438D01*
X128188168Y-79671090D01*
X128169448Y-79684974D01*
X128149457Y-79696956D01*
X128128387Y-79706921D01*
X128106443Y-79714773D01*
X128083834Y-79720437D01*
X128060779Y-79723856D01*
X128037500Y-79725000D01*
X127462500Y-79725000D01*
X127439221Y-79723856D01*
X127416166Y-79720437D01*
X127393557Y-79714773D01*
X127371613Y-79706921D01*
X127350543Y-79696956D01*
X127330552Y-79684974D01*
X127311832Y-79671090D01*
X127294562Y-79655438D01*
X127278910Y-79638168D01*
X127265026Y-79619448D01*
X127253044Y-79599457D01*
X127243079Y-79578387D01*
X127235227Y-79556443D01*
X127229563Y-79533834D01*
X127226144Y-79510779D01*
X127225000Y-79487500D01*
X127225000Y-79012500D01*
X127226144Y-78989221D01*
X127229563Y-78966166D01*
X127235227Y-78943557D01*
X127243079Y-78921613D01*
X127253044Y-78900543D01*
X127265026Y-78880552D01*
X127278910Y-78861832D01*
X127294562Y-78844562D01*
X127311832Y-78828910D01*
X127330552Y-78815026D01*
X127350543Y-78803044D01*
X127371613Y-78793079D01*
X127393557Y-78785227D01*
X127416166Y-78779563D01*
X127439221Y-78776144D01*
X127462500Y-78775000D01*
X128037500Y-78775000D01*
X128060779Y-78776144D01*
X128060779Y-78776144D01*
G37*
D11*
G04 #@! TD*
G04 #@! TO.P,C1,1*
G04 #@! TO.N,+3V3*
X127750000Y-79250000D03*
D10*
G04 #@! TO.N,GND*
G04 #@! TO.C,C1*
G36*
X129810779Y-78776144D02*
X129833834Y-78779563D01*
X129856443Y-78785227D01*
X129878387Y-78793079D01*
X129899457Y-78803044D01*
X129919448Y-78815026D01*
X129938168Y-78828910D01*
X129955438Y-78844562D01*
X129971090Y-78861832D01*
X129984974Y-78880552D01*
X129996956Y-78900543D01*
X130006921Y-78921613D01*
X130014773Y-78943557D01*
X130020437Y-78966166D01*
X130023856Y-78989221D01*
X130025000Y-79012500D01*
X130025000Y-79487500D01*
X130023856Y-79510779D01*
X130020437Y-79533834D01*
X130014773Y-79556443D01*
X130006921Y-79578387D01*
X129996956Y-79599457D01*
X129984974Y-79619448D01*
X129971090Y-79638168D01*
X129955438Y-79655438D01*
X129938168Y-79671090D01*
X129919448Y-79684974D01*
X129899457Y-79696956D01*
X129878387Y-79706921D01*
X129856443Y-79714773D01*
X129833834Y-79720437D01*
X129810779Y-79723856D01*
X129787500Y-79725000D01*
X129212500Y-79725000D01*
X129189221Y-79723856D01*
X129166166Y-79720437D01*
X129143557Y-79714773D01*
X129121613Y-79706921D01*
X129100543Y-79696956D01*
X129080552Y-79684974D01*
X129061832Y-79671090D01*
X129044562Y-79655438D01*
X129028910Y-79638168D01*
X129015026Y-79619448D01*
X129003044Y-79599457D01*
X128993079Y-79578387D01*
X128985227Y-79556443D01*
X128979563Y-79533834D01*
X128976144Y-79510779D01*
X128975000Y-79487500D01*
X128975000Y-79012500D01*
X128976144Y-78989221D01*
X128979563Y-78966166D01*
X128985227Y-78943557D01*
X128993079Y-78921613D01*
X129003044Y-78900543D01*
X129015026Y-78880552D01*
X129028910Y-78861832D01*
X129044562Y-78844562D01*
X129061832Y-78828910D01*
X129080552Y-78815026D01*
X129100543Y-78803044D01*
X129121613Y-78793079D01*
X129143557Y-78785227D01*
X129166166Y-78779563D01*
X129189221Y-78776144D01*
X129212500Y-78775000D01*
X129787500Y-78775000D01*
X129810779Y-78776144D01*
X129810779Y-78776144D01*
G37*
D11*
G04 #@! TD*
G04 #@! TO.P,C1,2*
G04 #@! TO.N,GND*
X129500000Y-79250000D03*
D10*
G04 #@! TO.N,GND*
G04 #@! TO.C,C2*
G36*
X134685779Y-79026144D02*
X134708834Y-79029563D01*
X134731443Y-79035227D01*
X134753387Y-79043079D01*
X134774457Y-79053044D01*
X134794448Y-79065026D01*
X134813168Y-79078910D01*
X134830438Y-79094562D01*
X134846090Y-79111832D01*
X134859974Y-79130552D01*
X134871956Y-79150543D01*
X134881921Y-79171613D01*
X134889773Y-79193557D01*
X134895437Y-79216166D01*
X134898856Y-79239221D01*
X134900000Y-79262500D01*
X134900000Y-79737500D01*
X134898856Y-79760779D01*
X134895437Y-79783834D01*
X134889773Y-79806443D01*
X134881921Y-79828387D01*
X134871956Y-79849457D01*
X134859974Y-79869448D01*
X134846090Y-79888168D01*
X134830438Y-79905438D01*
X134813168Y-79921090D01*
X134794448Y-79934974D01*
X134774457Y-79946956D01*
X134753387Y-79956921D01*
X134731443Y-79964773D01*
X134708834Y-79970437D01*
X134685779Y-79973856D01*
X134662500Y-79975000D01*
X134087500Y-79975000D01*
X134064221Y-79973856D01*
X134041166Y-79970437D01*
X134018557Y-79964773D01*
X133996613Y-79956921D01*
X133975543Y-79946956D01*
X133955552Y-79934974D01*
X133936832Y-79921090D01*
X133919562Y-79905438D01*
X133903910Y-79888168D01*
X133890026Y-79869448D01*
X133878044Y-79849457D01*
X133868079Y-79828387D01*
X133860227Y-79806443D01*
X133854563Y-79783834D01*
X133851144Y-79760779D01*
X133850000Y-79737500D01*
X133850000Y-79262500D01*
X133851144Y-79239221D01*
X133854563Y-79216166D01*
X133860227Y-79193557D01*
X133868079Y-79171613D01*
X133878044Y-79150543D01*
X133890026Y-79130552D01*
X133903910Y-79111832D01*
X133919562Y-79094562D01*
X133936832Y-79078910D01*
X133955552Y-79065026D01*
X133975543Y-79053044D01*
X133996613Y-79043079D01*
X134018557Y-79035227D01*
X134041166Y-79029563D01*
X134064221Y-79026144D01*
X134087500Y-79025000D01*
X134662500Y-79025000D01*
X134685779Y-79026144D01*
X134685779Y-79026144D01*
G37*
D11*
G04 #@! TD*
G04 #@! TO.P,C2,2*
G04 #@! TO.N,GND*
X134375000Y-79500000D03*
D10*
G04 #@! TO.N,+3V3*
G04 #@! TO.C,C2*
G36*
X136435779Y-79026144D02*
X136458834Y-79029563D01*
X136481443Y-79035227D01*
X136503387Y-79043079D01*
X136524457Y-79053044D01*
X136544448Y-79065026D01*
X136563168Y-79078910D01*
X136580438Y-79094562D01*
X136596090Y-79111832D01*
X136609974Y-79130552D01*
X136621956Y-79150543D01*
X136631921Y-79171613D01*
X136639773Y-79193557D01*
X136645437Y-79216166D01*
X136648856Y-79239221D01*
X136650000Y-79262500D01*
X136650000Y-79737500D01*
X136648856Y-79760779D01*
X136645437Y-79783834D01*
X136639773Y-79806443D01*
X136631921Y-79828387D01*
X136621956Y-79849457D01*
X136609974Y-79869448D01*
X136596090Y-79888168D01*
X136580438Y-79905438D01*
X136563168Y-79921090D01*
X136544448Y-79934974D01*
X136524457Y-79946956D01*
X136503387Y-79956921D01*
X136481443Y-79964773D01*
X136458834Y-79970437D01*
X136435779Y-79973856D01*
X136412500Y-79975000D01*
X135837500Y-79975000D01*
X135814221Y-79973856D01*
X135791166Y-79970437D01*
X135768557Y-79964773D01*
X135746613Y-79956921D01*
X135725543Y-79946956D01*
X135705552Y-79934974D01*
X135686832Y-79921090D01*
X135669562Y-79905438D01*
X135653910Y-79888168D01*
X135640026Y-79869448D01*
X135628044Y-79849457D01*
X135618079Y-79828387D01*
X135610227Y-79806443D01*
X135604563Y-79783834D01*
X135601144Y-79760779D01*
X135600000Y-79737500D01*
X135600000Y-79262500D01*
X135601144Y-79239221D01*
X135604563Y-79216166D01*
X135610227Y-79193557D01*
X135618079Y-79171613D01*
X135628044Y-79150543D01*
X135640026Y-79130552D01*
X135653910Y-79111832D01*
X135669562Y-79094562D01*
X135686832Y-79078910D01*
X135705552Y-79065026D01*
X135725543Y-79053044D01*
X135746613Y-79043079D01*
X135768557Y-79035227D01*
X135791166Y-79029563D01*
X135814221Y-79026144D01*
X135837500Y-79025000D01*
X136412500Y-79025000D01*
X136435779Y-79026144D01*
X136435779Y-79026144D01*
G37*
D11*
G04 #@! TD*
G04 #@! TO.P,C2,1*
G04 #@! TO.N,+3V3*
X136125000Y-79500000D03*
D10*
G04 #@! TO.N,+3V3*
G04 #@! TO.C,C3*
G36*
X146760779Y-88601144D02*
X146783834Y-88604563D01*
X146806443Y-88610227D01*
X146828387Y-88618079D01*
X146849457Y-88628044D01*
X146869448Y-88640026D01*
X146888168Y-88653910D01*
X146905438Y-88669562D01*
X146921090Y-88686832D01*
X146934974Y-88705552D01*
X146946956Y-88725543D01*
X146956921Y-88746613D01*
X146964773Y-88768557D01*
X146970437Y-88791166D01*
X146973856Y-88814221D01*
X146975000Y-88837500D01*
X146975000Y-89412500D01*
X146973856Y-89435779D01*
X146970437Y-89458834D01*
X146964773Y-89481443D01*
X146956921Y-89503387D01*
X146946956Y-89524457D01*
X146934974Y-89544448D01*
X146921090Y-89563168D01*
X146905438Y-89580438D01*
X146888168Y-89596090D01*
X146869448Y-89609974D01*
X146849457Y-89621956D01*
X146828387Y-89631921D01*
X146806443Y-89639773D01*
X146783834Y-89645437D01*
X146760779Y-89648856D01*
X146737500Y-89650000D01*
X146262500Y-89650000D01*
X146239221Y-89648856D01*
X146216166Y-89645437D01*
X146193557Y-89639773D01*
X146171613Y-89631921D01*
X146150543Y-89621956D01*
X146130552Y-89609974D01*
X146111832Y-89596090D01*
X146094562Y-89580438D01*
X146078910Y-89563168D01*
X146065026Y-89544448D01*
X146053044Y-89524457D01*
X146043079Y-89503387D01*
X146035227Y-89481443D01*
X146029563Y-89458834D01*
X146026144Y-89435779D01*
X146025000Y-89412500D01*
X146025000Y-88837500D01*
X146026144Y-88814221D01*
X146029563Y-88791166D01*
X146035227Y-88768557D01*
X146043079Y-88746613D01*
X146053044Y-88725543D01*
X146065026Y-88705552D01*
X146078910Y-88686832D01*
X146094562Y-88669562D01*
X146111832Y-88653910D01*
X146130552Y-88640026D01*
X146150543Y-88628044D01*
X146171613Y-88618079D01*
X146193557Y-88610227D01*
X146216166Y-88604563D01*
X146239221Y-88601144D01*
X146262500Y-88600000D01*
X146737500Y-88600000D01*
X146760779Y-88601144D01*
X146760779Y-88601144D01*
G37*
D11*
G04 #@! TD*
G04 #@! TO.P,C3,1*
G04 #@! TO.N,+3V3*
X146500000Y-89125000D03*
D10*
G04 #@! TO.N,GND*
G04 #@! TO.C,C3*
G36*
X146760779Y-90351144D02*
X146783834Y-90354563D01*
X146806443Y-90360227D01*
X146828387Y-90368079D01*
X146849457Y-90378044D01*
X146869448Y-90390026D01*
X146888168Y-90403910D01*
X146905438Y-90419562D01*
X146921090Y-90436832D01*
X146934974Y-90455552D01*
X146946956Y-90475543D01*
X146956921Y-90496613D01*
X146964773Y-90518557D01*
X146970437Y-90541166D01*
X146973856Y-90564221D01*
X146975000Y-90587500D01*
X146975000Y-91162500D01*
X146973856Y-91185779D01*
X146970437Y-91208834D01*
X146964773Y-91231443D01*
X146956921Y-91253387D01*
X146946956Y-91274457D01*
X146934974Y-91294448D01*
X146921090Y-91313168D01*
X146905438Y-91330438D01*
X146888168Y-91346090D01*
X146869448Y-91359974D01*
X146849457Y-91371956D01*
X146828387Y-91381921D01*
X146806443Y-91389773D01*
X146783834Y-91395437D01*
X146760779Y-91398856D01*
X146737500Y-91400000D01*
X146262500Y-91400000D01*
X146239221Y-91398856D01*
X146216166Y-91395437D01*
X146193557Y-91389773D01*
X146171613Y-91381921D01*
X146150543Y-91371956D01*
X146130552Y-91359974D01*
X146111832Y-91346090D01*
X146094562Y-91330438D01*
X146078910Y-91313168D01*
X146065026Y-91294448D01*
X146053044Y-91274457D01*
X146043079Y-91253387D01*
X146035227Y-91231443D01*
X146029563Y-91208834D01*
X146026144Y-91185779D01*
X146025000Y-91162500D01*
X146025000Y-90587500D01*
X146026144Y-90564221D01*
X146029563Y-90541166D01*
X146035227Y-90518557D01*
X146043079Y-90496613D01*
X146053044Y-90475543D01*
X146065026Y-90455552D01*
X146078910Y-90436832D01*
X146094562Y-90419562D01*
X146111832Y-90403910D01*
X146130552Y-90390026D01*
X146150543Y-90378044D01*
X146171613Y-90368079D01*
X146193557Y-90360227D01*
X146216166Y-90354563D01*
X146239221Y-90351144D01*
X146262500Y-90350000D01*
X146737500Y-90350000D01*
X146760779Y-90351144D01*
X146760779Y-90351144D01*
G37*
D11*
G04 #@! TD*
G04 #@! TO.P,C3,2*
G04 #@! TO.N,GND*
X146500000Y-90875000D03*
D10*
G04 #@! TO.N,GND*
G04 #@! TO.C,C4*
G36*
X163760779Y-88601144D02*
X163783834Y-88604563D01*
X163806443Y-88610227D01*
X163828387Y-88618079D01*
X163849457Y-88628044D01*
X163869448Y-88640026D01*
X163888168Y-88653910D01*
X163905438Y-88669562D01*
X163921090Y-88686832D01*
X163934974Y-88705552D01*
X163946956Y-88725543D01*
X163956921Y-88746613D01*
X163964773Y-88768557D01*
X163970437Y-88791166D01*
X163973856Y-88814221D01*
X163975000Y-88837500D01*
X163975000Y-89412500D01*
X163973856Y-89435779D01*
X163970437Y-89458834D01*
X163964773Y-89481443D01*
X163956921Y-89503387D01*
X163946956Y-89524457D01*
X163934974Y-89544448D01*
X163921090Y-89563168D01*
X163905438Y-89580438D01*
X163888168Y-89596090D01*
X163869448Y-89609974D01*
X163849457Y-89621956D01*
X163828387Y-89631921D01*
X163806443Y-89639773D01*
X163783834Y-89645437D01*
X163760779Y-89648856D01*
X163737500Y-89650000D01*
X163262500Y-89650000D01*
X163239221Y-89648856D01*
X163216166Y-89645437D01*
X163193557Y-89639773D01*
X163171613Y-89631921D01*
X163150543Y-89621956D01*
X163130552Y-89609974D01*
X163111832Y-89596090D01*
X163094562Y-89580438D01*
X163078910Y-89563168D01*
X163065026Y-89544448D01*
X163053044Y-89524457D01*
X163043079Y-89503387D01*
X163035227Y-89481443D01*
X163029563Y-89458834D01*
X163026144Y-89435779D01*
X163025000Y-89412500D01*
X163025000Y-88837500D01*
X163026144Y-88814221D01*
X163029563Y-88791166D01*
X163035227Y-88768557D01*
X163043079Y-88746613D01*
X163053044Y-88725543D01*
X163065026Y-88705552D01*
X163078910Y-88686832D01*
X163094562Y-88669562D01*
X163111832Y-88653910D01*
X163130552Y-88640026D01*
X163150543Y-88628044D01*
X163171613Y-88618079D01*
X163193557Y-88610227D01*
X163216166Y-88604563D01*
X163239221Y-88601144D01*
X163262500Y-88600000D01*
X163737500Y-88600000D01*
X163760779Y-88601144D01*
X163760779Y-88601144D01*
G37*
D11*
G04 #@! TD*
G04 #@! TO.P,C4,2*
G04 #@! TO.N,GND*
X163500000Y-89125000D03*
D10*
G04 #@! TO.N,+3V3*
G04 #@! TO.C,C4*
G36*
X163760779Y-90351144D02*
X163783834Y-90354563D01*
X163806443Y-90360227D01*
X163828387Y-90368079D01*
X163849457Y-90378044D01*
X163869448Y-90390026D01*
X163888168Y-90403910D01*
X163905438Y-90419562D01*
X163921090Y-90436832D01*
X163934974Y-90455552D01*
X163946956Y-90475543D01*
X163956921Y-90496613D01*
X163964773Y-90518557D01*
X163970437Y-90541166D01*
X163973856Y-90564221D01*
X163975000Y-90587500D01*
X163975000Y-91162500D01*
X163973856Y-91185779D01*
X163970437Y-91208834D01*
X163964773Y-91231443D01*
X163956921Y-91253387D01*
X163946956Y-91274457D01*
X163934974Y-91294448D01*
X163921090Y-91313168D01*
X163905438Y-91330438D01*
X163888168Y-91346090D01*
X163869448Y-91359974D01*
X163849457Y-91371956D01*
X163828387Y-91381921D01*
X163806443Y-91389773D01*
X163783834Y-91395437D01*
X163760779Y-91398856D01*
X163737500Y-91400000D01*
X163262500Y-91400000D01*
X163239221Y-91398856D01*
X163216166Y-91395437D01*
X163193557Y-91389773D01*
X163171613Y-91381921D01*
X163150543Y-91371956D01*
X163130552Y-91359974D01*
X163111832Y-91346090D01*
X163094562Y-91330438D01*
X163078910Y-91313168D01*
X163065026Y-91294448D01*
X163053044Y-91274457D01*
X163043079Y-91253387D01*
X163035227Y-91231443D01*
X163029563Y-91208834D01*
X163026144Y-91185779D01*
X163025000Y-91162500D01*
X163025000Y-90587500D01*
X163026144Y-90564221D01*
X163029563Y-90541166D01*
X163035227Y-90518557D01*
X163043079Y-90496613D01*
X163053044Y-90475543D01*
X163065026Y-90455552D01*
X163078910Y-90436832D01*
X163094562Y-90419562D01*
X163111832Y-90403910D01*
X163130552Y-90390026D01*
X163150543Y-90378044D01*
X163171613Y-90368079D01*
X163193557Y-90360227D01*
X163216166Y-90354563D01*
X163239221Y-90351144D01*
X163262500Y-90350000D01*
X163737500Y-90350000D01*
X163760779Y-90351144D01*
X163760779Y-90351144D01*
G37*
D11*
G04 #@! TD*
G04 #@! TO.P,C4,1*
G04 #@! TO.N,+3V3*
X163500000Y-90875000D03*
D12*
G04 #@! TO.P,J1,1*
G04 #@! TO.N,/R16*
X125080000Y-82540000D03*
D13*
G04 #@! TO.P,J1,2*
G04 #@! TO.N,+3V3*
X127620000Y-82540000D03*
G04 #@! TO.P,J1,3*
G04 #@! TO.N,/T15*
X125080000Y-85080000D03*
G04 #@! TO.P,J1,4*
G04 #@! TO.N,/T16*
X127620000Y-85080000D03*
G04 #@! TO.P,J1,5*
G04 #@! TO.N,/T13*
X125080000Y-87620000D03*
G04 #@! TO.P,J1,6*
G04 #@! TO.N,/T14*
X127620000Y-87620000D03*
G04 #@! TO.P,J1,7*
G04 #@! TO.N,GND*
X125080000Y-90160000D03*
G04 #@! TO.P,J1,8*
X127620000Y-90160000D03*
G04 #@! TO.P,J1,9*
G04 #@! TO.N,/N12*
X125080000Y-92700000D03*
G04 #@! TO.P,J1,10*
G04 #@! TO.N,/P13*
X127620000Y-92700000D03*
G04 #@! TO.P,J1,11*
G04 #@! TO.N,/N10*
X125080000Y-95240000D03*
G04 #@! TO.P,J1,12*
G04 #@! TO.N,/M11*
X127620000Y-95240000D03*
G04 #@! TO.P,J1,13*
G04 #@! TO.N,/T11*
X125080000Y-97780000D03*
G04 #@! TO.P,J1,14*
G04 #@! TO.N,/P10*
X127620000Y-97780000D03*
G04 #@! TO.P,J1,15*
G04 #@! TO.N,GND*
X125080000Y-100320000D03*
G04 #@! TO.P,J1,16*
X127620000Y-100320000D03*
G04 #@! TO.P,J1,17*
G04 #@! TO.N,/T10*
X125080000Y-102860000D03*
G04 #@! TO.P,J1,18*
G04 #@! TO.N,/R10*
X127620000Y-102860000D03*
G04 #@! TO.P,J1,19*
G04 #@! TO.N,/P8*
X125080000Y-105400000D03*
G04 #@! TO.P,J1,20*
G04 #@! TO.N,/P9*
X127620000Y-105400000D03*
G04 #@! TO.P,J1,21*
G04 #@! TO.N,/T9*
X125080000Y-107940000D03*
G04 #@! TO.P,J1,22*
G04 #@! TO.N,/R9*
X127620000Y-107940000D03*
G04 #@! TO.P,J1,23*
G04 #@! TO.N,GND*
X125080000Y-110480000D03*
G04 #@! TO.P,J1,24*
X127620000Y-110480000D03*
G04 #@! TO.P,J1,25*
G04 #@! TO.N,/T7*
X125080000Y-113020000D03*
G04 #@! TO.P,J1,26*
G04 #@! TO.N,/T8*
X127620000Y-113020000D03*
G04 #@! TO.P,J1,27*
G04 #@! TO.N,/T6*
X125080000Y-115560000D03*
G04 #@! TO.P,J1,28*
G04 #@! TO.N,/R6*
X127620000Y-115560000D03*
G04 #@! TO.P,J1,29*
G04 #@! TO.N,/T5*
X125080000Y-118100000D03*
G04 #@! TO.P,J1,30*
G04 #@! TO.N,/R5*
X127620000Y-118100000D03*
G04 #@! TD*
D12*
G04 #@! TO.P,J2,1*
G04 #@! TO.N,+3V3*
X134000000Y-82540000D03*
D13*
G04 #@! TO.P,J2,2*
X136540000Y-82540000D03*
G04 #@! TO.P,J2,3*
X134000000Y-85080000D03*
G04 #@! TO.P,J2,4*
G04 #@! TO.N,/R1*
X136540000Y-85080000D03*
G04 #@! TO.P,J2,5*
G04 #@! TO.N,/P1*
X134000000Y-87620000D03*
G04 #@! TO.P,J2,6*
G04 #@! TO.N,/P2*
X136540000Y-87620000D03*
G04 #@! TO.P,J2,7*
G04 #@! TO.N,GND*
X134000000Y-90160000D03*
G04 #@! TO.P,J2,8*
X136540000Y-90160000D03*
G04 #@! TO.P,J2,9*
G04 #@! TO.N,/N3*
X134000000Y-92700000D03*
G04 #@! TO.P,J2,10*
G04 #@! TO.N,/N2*
X136540000Y-92700000D03*
G04 #@! TO.P,J2,11*
G04 #@! TO.N,/M2*
X134000000Y-95240000D03*
G04 #@! TO.P,J2,12*
G04 #@! TO.N,/M1*
X136540000Y-95240000D03*
G04 #@! TO.P,J2,13*
G04 #@! TO.N,/L3*
X134000000Y-97780000D03*
G04 #@! TO.P,J2,14*
G04 #@! TO.N,/L1*
X136540000Y-97780000D03*
G04 #@! TO.P,J2,15*
G04 #@! TO.N,GND*
X134000000Y-100320000D03*
G04 #@! TO.P,J2,16*
X136540000Y-100320000D03*
G04 #@! TO.P,J2,17*
G04 #@! TO.N,/K3*
X134000000Y-102860000D03*
G04 #@! TO.P,J2,18*
G04 #@! TO.N,/K1*
X136540000Y-102860000D03*
G04 #@! TO.P,J2,19*
G04 #@! TO.N,/J2*
X134000000Y-105400000D03*
G04 #@! TO.P,J2,20*
G04 #@! TO.N,/J1*
X136540000Y-105400000D03*
G04 #@! TO.P,J2,21*
G04 #@! TO.N,/H2*
X134000000Y-107940000D03*
G04 #@! TO.P,J2,22*
G04 #@! TO.N,/J3*
X136540000Y-107940000D03*
G04 #@! TO.P,J2,23*
G04 #@! TO.N,GND*
X134000000Y-110480000D03*
G04 #@! TO.P,J2,24*
X136540000Y-110480000D03*
G04 #@! TO.P,J2,25*
G04 #@! TO.N,/G2*
X134000000Y-113020000D03*
G04 #@! TO.P,J2,26*
G04 #@! TO.N,/H1*
X136540000Y-113020000D03*
G04 #@! TO.P,J2,27*
G04 #@! TO.N,/F2*
X134000000Y-115560000D03*
G04 #@! TO.P,J2,28*
G04 #@! TO.N,/G1*
X136540000Y-115560000D03*
G04 #@! TO.P,J2,29*
G04 #@! TO.N,/E2*
X134000000Y-118100000D03*
G04 #@! TO.P,J2,30*
G04 #@! TO.N,/F1*
X136540000Y-118100000D03*
G04 #@! TD*
D14*
G04 #@! TO.P,SW1,1*
G04 #@! TO.N,/F1*
X152120000Y-112000000D03*
X157880000Y-112000000D03*
G04 #@! TO.P,SW1,2*
G04 #@! TO.N,GND*
X157880000Y-108000000D03*
X152120000Y-108000000D03*
G04 #@! TD*
G04 #@! TO.P,SW2,2*
G04 #@! TO.N,GND*
X152120000Y-118000000D03*
X157880000Y-118000000D03*
G04 #@! TO.P,SW2,1*
G04 #@! TO.N,/E2*
X157880000Y-122000000D03*
X152120000Y-122000000D03*
G04 #@! TD*
D15*
G04 #@! TO.P,SW3,1*
G04 #@! TO.N,/F2*
X143000000Y-112120000D03*
X143000000Y-117880000D03*
G04 #@! TO.P,SW3,2*
G04 #@! TO.N,GND*
X147000000Y-117880000D03*
X147000000Y-112120000D03*
G04 #@! TD*
G04 #@! TO.P,SW4,2*
G04 #@! TO.N,GND*
X167000000Y-112120000D03*
X167000000Y-117880000D03*
G04 #@! TO.P,SW4,1*
G04 #@! TO.N,/T5*
X163000000Y-117880000D03*
X163000000Y-112120000D03*
G04 #@! TD*
D16*
G04 #@! TO.P,U1,1*
G04 #@! TO.N,/G1*
X160500000Y-98400000D03*
X160500000Y-98400000D03*
G04 #@! TO.P,U1,2*
G04 #@! TO.N,/R6*
X160500000Y-97600000D03*
G04 #@! TO.P,U1,3*
G04 #@! TO.N,/T6*
X160500000Y-96800000D03*
G04 #@! TO.P,U1,4*
G04 #@! TO.N,/H1*
X160500000Y-96000000D03*
G04 #@! TO.P,U1,5*
G04 #@! TO.N,/G2*
X160500000Y-95200000D03*
G04 #@! TO.P,U1,6*
G04 #@! TO.N,/T8*
X160500000Y-94400000D03*
G04 #@! TO.P,U1,7*
G04 #@! TO.N,/T7*
X160500000Y-93600000D03*
G04 #@! TO.P,U1,8*
G04 #@! TO.N,/H2*
X160500000Y-92800000D03*
G04 #@! TO.P,U1,9*
G04 #@! TO.N,/J3*
X160500000Y-92000000D03*
G04 #@! TO.P,U1,10*
G04 #@! TO.N,/R9*
X160500000Y-91200000D03*
G04 #@! TO.P,U1,11*
G04 #@! TO.N,+3V3*
X160500000Y-90400000D03*
G04 #@! TO.P,U1,12*
G04 #@! TO.N,GND*
X160500000Y-89600000D03*
G04 #@! TO.P,U1,13*
G04 #@! TO.N,/T9*
X160500000Y-88800000D03*
G04 #@! TO.P,U1,14*
G04 #@! TO.N,/J1*
X160500000Y-88000000D03*
G04 #@! TO.P,U1,15*
G04 #@! TO.N,/J2*
X160500000Y-87200000D03*
G04 #@! TO.P,U1,16*
G04 #@! TO.N,/P9*
X160500000Y-86400000D03*
G04 #@! TO.P,U1,17*
G04 #@! TO.N,/K1*
X160500000Y-85600000D03*
G04 #@! TO.P,U1,18*
G04 #@! TO.N,/K3*
X160500000Y-84800000D03*
G04 #@! TO.P,U1,19*
G04 #@! TO.N,/P8*
X160500000Y-84000000D03*
G04 #@! TO.P,U1,20*
G04 #@! TO.N,/R10*
X160500000Y-83200000D03*
G04 #@! TO.P,U1,21*
G04 #@! TO.N,/T10*
X160500000Y-82400000D03*
G04 #@! TO.P,U1,22*
G04 #@! TO.N,/L1*
X160500000Y-81600000D03*
G04 #@! TO.P,U1,23*
G04 #@! TO.N,/N12*
X149500000Y-81600000D03*
G04 #@! TO.P,U1,24*
G04 #@! TO.N,/T13*
X149500000Y-82400000D03*
G04 #@! TO.P,U1,25*
G04 #@! TO.N,/R16*
X149500000Y-83200000D03*
G04 #@! TO.P,U1,26*
G04 #@! TO.N,/T15*
X149500000Y-84000000D03*
G04 #@! TO.P,U1,27*
G04 #@! TO.N,/N10*
X149500000Y-84800000D03*
G04 #@! TO.P,U1,28*
G04 #@! TO.N,Net-(U1-Pad28)*
X149500000Y-85600000D03*
G04 #@! TO.P,U1,29*
G04 #@! TO.N,/T16*
X149500000Y-86400000D03*
G04 #@! TO.P,U1,30*
G04 #@! TO.N,/T14*
X149500000Y-87200000D03*
G04 #@! TO.P,U1,31*
G04 #@! TO.N,/M11*
X149500000Y-88000000D03*
G04 #@! TO.P,U1,32*
G04 #@! TO.N,/P13*
X149500000Y-88800000D03*
G04 #@! TO.P,U1,33*
G04 #@! TO.N,+3V3*
X149500000Y-89600000D03*
G04 #@! TO.P,U1,34*
G04 #@! TO.N,GND*
X149500000Y-90400000D03*
G04 #@! TO.P,U1,35*
G04 #@! TO.N,/R1*
X149500000Y-91200000D03*
G04 #@! TO.P,U1,36*
G04 #@! TO.N,/P1*
X149500000Y-92000000D03*
G04 #@! TO.P,U1,37*
G04 #@! TO.N,/P2*
X149500000Y-92800000D03*
G04 #@! TO.P,U1,38*
G04 #@! TO.N,/N3*
X149500000Y-93600000D03*
G04 #@! TO.P,U1,39*
G04 #@! TO.N,/N2*
X149500000Y-94400000D03*
G04 #@! TO.P,U1,40*
G04 #@! TO.N,/T11*
X149500000Y-95200000D03*
G04 #@! TO.P,U1,41*
G04 #@! TO.N,/P10*
X149500000Y-96000000D03*
G04 #@! TO.P,U1,42*
G04 #@! TO.N,/M1*
X149500000Y-96800000D03*
G04 #@! TO.P,U1,43*
G04 #@! TO.N,/M2*
X149500000Y-97600000D03*
G04 #@! TO.P,U1,44*
G04 #@! TO.N,/L3*
X149500000Y-98400000D03*
G04 #@! TD*
D15*
G04 #@! TO.P,SW5,1*
G04 #@! TO.N,/R5*
X163000000Y-100320000D03*
X163000000Y-106080000D03*
G04 #@! TO.P,SW5,2*
G04 #@! TO.N,GND*
X167000000Y-106080000D03*
X167000000Y-100320000D03*
G04 #@! TD*
D17*
G04 #@! TO.N,GND*
X123000000Y-78000000D03*
X132600000Y-75700000D03*
X135200000Y-80900000D03*
X132500000Y-81700000D03*
X132500000Y-83400000D03*
X132100000Y-78300000D03*
X128900000Y-81700000D03*
X128900000Y-83300000D03*
X123000000Y-122000000D03*
X167000000Y-122000000D03*
X167000000Y-78000000D03*
X145000000Y-78000000D03*
X151000000Y-88500000D03*
X154200000Y-88000000D03*
X148000000Y-90600000D03*
X145400000Y-89600000D03*
X138000000Y-84000000D03*
X128600000Y-94000000D03*
X142600000Y-90800000D03*
X132400000Y-96600000D03*
X132400000Y-108200000D03*
X130400000Y-111000000D03*
X130600000Y-122400000D03*
X137200000Y-122374979D03*
X145000000Y-119200000D03*
X160200000Y-120800000D03*
X138600000Y-120800000D03*
X162000000Y-119600000D03*
X162200000Y-89600000D03*
X161600000Y-82800000D03*
X161800000Y-91600000D03*
X164800000Y-91000000D03*
X169200000Y-95600000D03*
X138000000Y-115600000D03*
X130200000Y-86200000D03*
X150600000Y-97000000D03*
X154000000Y-93600000D03*
X150800000Y-90600000D03*
X158800000Y-99200000D03*
X146600000Y-105400000D03*
X153000000Y-105200000D03*
X139000000Y-112800000D03*
X158800000Y-80600000D03*
X150800000Y-80800000D03*
G04 #@! TD*
D18*
G04 #@! TO.N,+3V3*
X134000000Y-85080000D02*
X134000000Y-82540000D01*
X134000000Y-82540000D02*
X136540000Y-82540000D01*
D19*
X146500000Y-89125000D02*
X146625000Y-89250000D01*
X163375000Y-90750000D02*
X163500000Y-90875000D01*
X160500000Y-90400000D02*
X161650000Y-90400000D01*
X162000000Y-90750000D02*
X163375000Y-90750000D01*
X161650000Y-90400000D02*
X162000000Y-90750000D01*
D18*
X136125000Y-80875000D02*
X136125000Y-79500000D01*
X136500000Y-81250000D02*
X136125000Y-80875000D01*
X136540000Y-82540000D02*
X136500000Y-82500000D01*
X136500000Y-82500000D02*
X136500000Y-81250000D01*
X127620000Y-79380000D02*
X127620000Y-82540000D01*
X127750000Y-79250000D02*
X127620000Y-79380000D01*
X136540000Y-82540000D02*
X139915000Y-82540000D01*
X139915000Y-82540000D02*
X146000928Y-88625928D01*
X146000928Y-88625928D02*
X146500000Y-89125000D01*
D19*
X149500000Y-89600000D02*
X150100000Y-89600000D01*
D20*
X151400000Y-89600000D02*
X159850001Y-81149999D01*
X149500000Y-89600000D02*
X151400000Y-89600000D01*
X164275010Y-84285008D02*
X164275010Y-90099990D01*
X159850001Y-81149999D02*
X161140001Y-81149999D01*
X163999072Y-90375928D02*
X163500000Y-90875000D01*
X161140001Y-81149999D02*
X164275010Y-84285008D01*
X164275010Y-90099990D02*
X163999072Y-90375928D01*
X148400000Y-89600000D02*
X149500000Y-89600000D01*
X146500000Y-89125000D02*
X146575000Y-89200000D01*
X148000000Y-89200000D02*
X148400000Y-89600000D01*
X146575000Y-89200000D02*
X148000000Y-89200000D01*
D21*
G04 #@! TO.N,/R16*
X137349786Y-77000022D02*
X138151472Y-77000022D01*
X137349688Y-76999924D02*
X137349786Y-77000022D01*
X133150214Y-77000022D02*
X133150312Y-76999924D01*
X138151472Y-77000022D02*
X138151476Y-77000026D01*
X127749976Y-77000022D02*
X133150214Y-77000022D01*
X138543227Y-77391781D02*
X144351444Y-83200000D01*
X125080000Y-79670000D02*
X127749976Y-77000022D01*
X138151476Y-77000026D02*
X138543227Y-77391781D01*
X133150312Y-76999924D02*
X137349688Y-76999924D01*
X125080000Y-82540000D02*
X125080000Y-79670000D01*
X144351444Y-83200000D02*
X148950000Y-83200000D01*
X148950000Y-83200000D02*
X149500000Y-83200000D01*
G04 #@! TO.N,/T15*
X138338160Y-77610992D02*
X144727168Y-84000000D01*
X137225518Y-77300033D02*
X138027204Y-77300033D01*
X133274580Y-77299935D02*
X137225420Y-77299935D01*
X126155001Y-79019276D02*
X127874244Y-77300033D01*
X125080000Y-85080000D02*
X126155001Y-84004999D01*
X138027204Y-77300033D02*
X138027206Y-77300035D01*
X133274482Y-77300033D02*
X133274580Y-77299935D01*
X127874244Y-77300033D02*
X133274482Y-77300033D01*
X137225420Y-77299935D02*
X137225518Y-77300033D01*
X148950000Y-84000000D02*
X149500000Y-84000000D01*
X126155001Y-84004999D02*
X126155001Y-79019276D01*
X138027206Y-77300035D02*
X138338160Y-77610992D01*
X144727168Y-84000000D02*
X148950000Y-84000000D01*
G04 #@! TO.N,/T16*
X146278612Y-86400000D02*
X148950000Y-86400000D01*
X137778668Y-77900055D02*
X137954411Y-78075799D01*
X136976982Y-77900055D02*
X137778668Y-77900055D01*
X128020000Y-85080000D02*
X130250000Y-82850000D01*
X127620000Y-85080000D02*
X128020000Y-85080000D01*
X130250000Y-81173073D02*
X133523116Y-77899957D01*
X137954411Y-78075799D02*
X146278612Y-86400000D01*
X136976884Y-77899957D02*
X136976982Y-77900055D01*
X148950000Y-86400000D02*
X149500000Y-86400000D01*
X130250000Y-82850000D02*
X130250000Y-81173073D01*
X133523116Y-77899957D02*
X136976884Y-77899957D01*
G04 #@! TO.N,/T13*
X124004999Y-86544999D02*
X124004999Y-80245001D01*
X138275740Y-76700011D02*
X138275746Y-76700017D01*
X137473956Y-76699913D02*
X137474054Y-76700011D01*
X125080000Y-87620000D02*
X124004999Y-86544999D01*
X124004999Y-80245001D02*
X127549989Y-76700011D01*
X127549989Y-76700011D02*
X133025946Y-76700011D01*
X133025946Y-76700011D02*
X133026044Y-76699913D01*
X133026044Y-76699913D02*
X137473956Y-76699913D01*
X137474054Y-76700011D02*
X138275740Y-76700011D01*
X138275746Y-76700017D02*
X138751304Y-77175580D01*
X138751304Y-77175580D02*
X143975724Y-82400000D01*
X143975724Y-82400000D02*
X148950000Y-82400000D01*
X148950000Y-82400000D02*
X149500000Y-82400000D01*
G04 #@! TO.N,/T14*
X136852616Y-78199968D02*
X136852714Y-78200066D01*
X148950000Y-87200000D02*
X149500000Y-87200000D01*
X133647384Y-78199968D02*
X136852616Y-78199968D01*
X137654400Y-78200066D02*
X146654334Y-87200000D01*
X130550011Y-81297341D02*
X133647384Y-78199968D01*
X130550011Y-84689989D02*
X130550011Y-81297341D01*
X127620000Y-87620000D02*
X130550011Y-84689989D01*
X146654334Y-87200000D02*
X148950000Y-87200000D01*
X136852714Y-78200066D02*
X137654400Y-78200066D01*
G04 #@! TO.N,/N12*
X138961222Y-76961220D02*
X143600000Y-81600000D01*
X123704988Y-80045012D02*
X127350000Y-76400000D01*
X127350000Y-76400000D02*
X132901678Y-76400000D01*
X125080000Y-92700000D02*
X123704988Y-91324988D01*
X123704988Y-91324988D02*
X123704988Y-80045012D01*
X132901678Y-76400000D02*
X132901776Y-76399902D01*
X132901776Y-76399902D02*
X137598224Y-76399902D01*
X137598224Y-76399902D02*
X137598322Y-76400000D01*
X137598322Y-76400000D02*
X138400008Y-76400000D01*
X138400008Y-76400000D02*
X138400016Y-76400008D01*
X138400016Y-76400008D02*
X138961222Y-76961220D01*
X143600000Y-81600000D02*
X149500000Y-81600000D01*
G04 #@! TO.N,/P13*
X136604178Y-78800088D02*
X137405864Y-78800088D01*
X131150033Y-89169967D02*
X131150033Y-81545877D01*
X148950000Y-88800000D02*
X149500000Y-88800000D01*
X147405776Y-88800000D02*
X148950000Y-88800000D01*
X133895920Y-78799990D02*
X136604080Y-78799990D01*
X127620000Y-92700000D02*
X131150033Y-89169967D01*
X131150033Y-81545877D02*
X133895920Y-78799990D01*
X137405864Y-78800088D02*
X147405776Y-88800000D01*
X136604080Y-78799990D02*
X136604178Y-78800088D01*
G04 #@! TO.N,/N10*
X138138920Y-77836030D02*
X145102890Y-84800000D01*
X137902936Y-77600044D02*
X138138920Y-77836030D01*
X137101250Y-77600044D02*
X137902936Y-77600044D01*
X148950000Y-84800000D02*
X149500000Y-84800000D01*
X137101152Y-77599946D02*
X137101250Y-77600044D01*
X133398848Y-77599946D02*
X137101152Y-77599946D01*
X145102890Y-84800000D02*
X148950000Y-84800000D01*
X133398750Y-77600044D02*
X133398848Y-77599946D01*
X126244988Y-94075012D02*
X126244988Y-84355012D01*
X125080000Y-95240000D02*
X126244988Y-94075012D01*
X126455012Y-84144988D02*
X126455012Y-79143544D01*
X127998512Y-77600044D02*
X133398750Y-77600044D01*
X126244988Y-84355012D02*
X126455012Y-84144988D01*
X126455012Y-79143544D02*
X127998512Y-77600044D01*
G04 #@! TO.N,/M11*
X148950000Y-88000000D02*
X149500000Y-88000000D01*
X136728446Y-78500077D02*
X137530132Y-78500077D01*
X136728348Y-78499979D02*
X136728446Y-78500077D01*
X133771652Y-78499979D02*
X136728348Y-78499979D01*
X130850022Y-81421609D02*
X133771652Y-78499979D01*
X126544999Y-94164999D02*
X126544999Y-92183999D01*
X127103999Y-91624999D02*
X127975001Y-91624999D01*
X127620000Y-95240000D02*
X126544999Y-94164999D01*
X126544999Y-92183999D02*
X127103999Y-91624999D01*
X137530132Y-78500077D02*
X147030055Y-88000000D01*
X130850022Y-88749978D02*
X130850022Y-81421609D01*
X147030055Y-88000000D02*
X148950000Y-88000000D01*
X127975001Y-91624999D02*
X130850022Y-88749978D01*
G04 #@! TO.N,/T11*
X148800000Y-95200000D02*
X149500000Y-95200000D01*
X126544999Y-96315001D02*
X129862802Y-96315001D01*
X125080000Y-97780000D02*
X126544999Y-96315001D01*
X129862802Y-96315001D02*
X132312814Y-93864988D01*
X139000000Y-95200000D02*
X148800000Y-95200000D01*
X132312814Y-93864988D02*
X137664988Y-93864988D01*
X137664988Y-93864988D02*
X139000000Y-95200000D01*
G04 #@! TO.N,/P10*
X148200000Y-96000000D02*
X149500000Y-96000000D01*
X128822081Y-97780000D02*
X132437082Y-94164999D01*
X127620000Y-97780000D02*
X128822081Y-97780000D01*
X138799999Y-95800000D02*
X148000000Y-95800000D01*
X148000000Y-95800000D02*
X148200000Y-96000000D01*
X132437082Y-94164999D02*
X137164998Y-94164999D01*
X137164998Y-94164999D02*
X138799999Y-95800000D01*
G04 #@! TO.N,/T10*
X155100011Y-94099990D02*
X155100011Y-87299989D01*
X150124990Y-99075010D02*
X155100011Y-94099990D01*
X160000000Y-82400000D02*
X160500000Y-82400000D01*
X126340000Y-101600000D02*
X129600000Y-101600000D01*
X129600000Y-101600000D02*
X132300009Y-98899991D01*
X125080000Y-102860000D02*
X126340000Y-101600000D01*
X132300009Y-98899991D02*
X137699991Y-98899991D01*
X155100011Y-87299989D02*
X160000000Y-82400000D01*
X137699991Y-98899991D02*
X137875010Y-99075010D01*
X137875010Y-99075010D02*
X150124990Y-99075010D01*
G04 #@! TO.N,/R10*
X128822081Y-102860000D02*
X132437082Y-99244999D01*
X127620000Y-102860000D02*
X128822081Y-102860000D01*
X132437082Y-99244999D02*
X137620720Y-99244999D01*
X160000000Y-83200000D02*
X160500000Y-83200000D01*
X155400022Y-87799978D02*
X160000000Y-83200000D01*
X155400022Y-94224258D02*
X155400022Y-87799978D01*
X137620720Y-99244999D02*
X137750742Y-99375021D01*
X137750742Y-99375021D02*
X150249258Y-99375022D01*
X150249258Y-99375022D02*
X155400022Y-94224258D01*
G04 #@! TO.N,/P8*
X160000000Y-84000000D02*
X160500000Y-84000000D01*
X155700033Y-88299967D02*
X160000000Y-84000000D01*
X155700033Y-94348526D02*
X155700033Y-88299967D01*
X150373525Y-99675034D02*
X155700033Y-94348526D01*
X138900687Y-99675034D02*
X150373525Y-99675034D01*
X128660721Y-103935001D02*
X131200721Y-101395001D01*
X125800000Y-105400000D02*
X127264999Y-103935001D01*
X125080000Y-105400000D02*
X125800000Y-105400000D01*
X131200721Y-101395001D02*
X137180721Y-101395001D01*
X127264999Y-103935001D02*
X128660721Y-103935001D01*
X137180721Y-101395001D02*
X138900687Y-99675034D01*
G04 #@! TO.N,/P9*
X160000000Y-86400000D02*
X160500000Y-86400000D01*
X156600066Y-89799934D02*
X160000000Y-86400000D01*
X156600066Y-94721330D02*
X156600066Y-89799934D01*
X129020022Y-103999978D02*
X141284396Y-103999978D01*
X127620000Y-105400000D02*
X129020022Y-103999978D01*
X141284396Y-103999978D02*
X144709312Y-100575062D01*
X151021537Y-100299857D02*
X156600066Y-94721330D01*
X150746332Y-100575061D02*
X151021537Y-100299857D01*
X144709312Y-100575062D02*
X150746332Y-100575061D01*
G04 #@! TO.N,/T9*
X160000000Y-88800000D02*
X160500000Y-88800000D01*
X157500099Y-95094134D02*
X157500099Y-91299901D01*
X125080000Y-107940000D02*
X126455012Y-106564988D01*
X126455012Y-106564988D02*
X139992222Y-106564988D01*
X139992222Y-106564988D02*
X145082119Y-101475091D01*
X145082119Y-101475091D02*
X151119139Y-101475091D01*
X157500099Y-91299901D02*
X160000000Y-88800000D01*
X151119139Y-101475091D02*
X151394341Y-101199890D01*
X151394341Y-101199890D02*
X157500099Y-95094134D01*
G04 #@! TO.N,/R9*
X157800110Y-93399890D02*
X160000000Y-91200000D01*
X157800110Y-95218402D02*
X157800110Y-93399890D01*
X160000000Y-91200000D02*
X160500000Y-91200000D01*
X145206387Y-101775102D02*
X151243408Y-101775101D01*
X151243408Y-101775101D02*
X151551248Y-101467263D01*
X127620000Y-107940000D02*
X128695001Y-106864999D01*
X140116490Y-106864999D02*
X145206387Y-101775102D01*
X128695001Y-106864999D02*
X140116490Y-106864999D01*
X151551248Y-101467263D02*
X157800110Y-95218402D01*
G04 #@! TO.N,/T7*
X158700143Y-94899857D02*
X160000000Y-93600000D01*
X158700143Y-95591206D02*
X158700143Y-94899857D01*
X151924055Y-102367290D02*
X158700143Y-95591206D01*
X151616213Y-102675132D02*
X151924055Y-102367290D01*
X126155001Y-111944999D02*
X128255001Y-111944999D01*
X160000000Y-93600000D02*
X160500000Y-93600000D01*
X125080000Y-113020000D02*
X126155001Y-111944999D01*
X128255001Y-111944999D02*
X130795001Y-109404999D01*
X145579193Y-102675133D02*
X151616213Y-102675132D01*
X130795001Y-109404999D02*
X138849327Y-109404999D01*
X138849327Y-109404999D02*
X145579193Y-102675133D01*
G04 #@! TO.N,/T8*
X159200000Y-95000000D02*
X159800000Y-94400000D01*
X159800000Y-94400000D02*
X160500000Y-94400000D01*
X128995012Y-111644988D02*
X137033618Y-111644988D01*
X159200000Y-95515623D02*
X159200000Y-95000000D01*
X127620000Y-113020000D02*
X128995012Y-111644988D01*
X137033618Y-111644988D02*
X145703463Y-102975142D01*
X145703463Y-102975142D02*
X151740482Y-102975141D01*
X151740482Y-102975141D02*
X159200000Y-95515623D01*
G04 #@! TO.N,/T6*
X125080000Y-115560000D02*
X126544999Y-114095001D01*
X126544999Y-114095001D02*
X137056001Y-114095001D01*
X137056001Y-114095001D02*
X137615001Y-113536001D01*
X137615001Y-113536001D02*
X137615001Y-112336441D01*
X137615001Y-112336441D02*
X146076273Y-103875169D01*
X146076273Y-103875169D02*
X152113289Y-103875168D01*
X152113289Y-103875168D02*
X159188457Y-96800000D01*
X159188457Y-96800000D02*
X159950000Y-96800000D01*
X159950000Y-96800000D02*
X160500000Y-96800000D01*
G04 #@! TO.N,/R6*
X127620000Y-115560000D02*
X128695001Y-114484999D01*
X158812735Y-97600000D02*
X159950000Y-97600000D01*
X159950000Y-97600000D02*
X160500000Y-97600000D01*
X146200543Y-104175178D02*
X152237558Y-104175177D01*
X152237558Y-104175177D02*
X158812735Y-97600000D01*
X137915012Y-113660709D02*
X137915012Y-112460709D01*
X137090722Y-114484999D02*
X137915012Y-113660709D01*
X137915012Y-112460709D02*
X146200543Y-104175178D01*
X128695001Y-114484999D02*
X137090722Y-114484999D01*
G04 #@! TO.N,/T5*
X163000000Y-119584281D02*
X163000000Y-119405000D01*
X163000000Y-119405000D02*
X163000000Y-117880000D01*
X159384259Y-123200022D02*
X163000000Y-119584281D01*
X125080000Y-118100000D02*
X130180022Y-123200022D01*
X130180022Y-123200022D02*
X159384259Y-123200022D01*
G04 #@! TO.N,/R5*
X161299989Y-109305011D02*
X163000000Y-107605000D01*
X163000000Y-107605000D02*
X163000000Y-106080000D01*
X132420011Y-122900011D02*
X159259992Y-122900011D01*
X159259992Y-122900011D02*
X161299989Y-120860014D01*
X127620000Y-118100000D02*
X132420011Y-122900011D01*
X161299989Y-120860014D02*
X161299989Y-109305011D01*
G04 #@! TO.N,/F1*
X149600000Y-112600000D02*
X150200000Y-112000000D01*
X150200000Y-112000000D02*
X152120000Y-112000000D01*
X149600000Y-118000000D02*
X149600000Y-112600000D01*
X147800000Y-119800000D02*
X149600000Y-118000000D01*
X136540000Y-118100000D02*
X138240000Y-119800000D01*
X138240000Y-119800000D02*
X147800000Y-119800000D01*
G04 #@! TO.N,/E2*
X149600000Y-122000000D02*
X152120000Y-122000000D01*
X149000000Y-122600000D02*
X149600000Y-122000000D01*
X138500000Y-122600000D02*
X149000000Y-122600000D01*
X134000000Y-118100000D02*
X138500000Y-122600000D01*
G04 #@! TO.N,/G1*
X159200000Y-98400000D02*
X160500000Y-98400000D01*
X138215023Y-113884977D02*
X138215023Y-112584977D01*
X136540000Y-115560000D02*
X138215023Y-113884977D01*
X152361827Y-104475186D02*
X158437013Y-98400000D01*
X138215023Y-112584977D02*
X146324813Y-104475187D01*
X146324813Y-104475187D02*
X152361827Y-104475186D01*
X158437013Y-98400000D02*
X159200000Y-98400000D01*
G04 #@! TO.N,/F2*
X139009998Y-117880000D02*
X143000000Y-117880000D01*
X134000000Y-115560000D02*
X135075001Y-116635001D01*
X137764999Y-116635001D02*
X139009998Y-117880000D01*
X135075001Y-116635001D02*
X137764999Y-116635001D01*
G04 #@! TO.N,/H1*
X151989020Y-103575159D02*
X152537543Y-103026636D01*
X145952003Y-103575160D02*
X151989020Y-103575159D01*
X136540000Y-113020000D02*
X136540000Y-112987163D01*
X159564186Y-96000000D02*
X159950000Y-96000000D01*
X136540000Y-112987163D02*
X145952003Y-103575160D01*
X159950000Y-96000000D02*
X160500000Y-96000000D01*
X152537543Y-103026636D02*
X159564186Y-96000000D01*
G04 #@! TO.N,/G2*
X159939901Y-95200000D02*
X159950000Y-95200000D01*
X135075001Y-111944999D02*
X137157886Y-111944999D01*
X145827733Y-103275151D02*
X151864751Y-103275150D01*
X137157886Y-111944999D02*
X145827733Y-103275151D01*
X134000000Y-113020000D02*
X135075001Y-111944999D01*
X151864751Y-103275150D02*
X159939901Y-95200000D01*
X159950000Y-95200000D02*
X160500000Y-95200000D01*
G04 #@! TO.N,/J3*
X158100121Y-93899879D02*
X160000000Y-92000000D01*
X139465768Y-107940000D02*
X145330657Y-102075111D01*
X160000000Y-92000000D02*
X160500000Y-92000000D01*
X136540000Y-107940000D02*
X139465768Y-107940000D01*
X151675517Y-101767272D02*
X158100121Y-95342670D01*
X151367676Y-102075111D02*
X151675517Y-101767272D01*
X145330657Y-102075111D02*
X151367676Y-102075111D01*
X158100121Y-95342670D02*
X158100121Y-93899879D01*
G04 #@! TO.N,/H2*
X160000000Y-92800000D02*
X160500000Y-92800000D01*
X158400132Y-94399868D02*
X160000000Y-92800000D01*
X158400132Y-95466938D02*
X158400132Y-94399868D01*
X135075001Y-109015001D02*
X138815046Y-109015001D01*
X134000000Y-107940000D02*
X135075001Y-109015001D01*
X138815046Y-109015001D02*
X145454925Y-102375122D01*
X145454925Y-102375122D02*
X151491944Y-102375122D01*
X151491944Y-102375122D02*
X151799786Y-102067281D01*
X151799786Y-102067281D02*
X158400132Y-95466938D01*
G04 #@! TO.N,/J1*
X160000000Y-88000000D02*
X160500000Y-88000000D01*
X157200088Y-90799912D02*
X160000000Y-88000000D01*
X151270073Y-100899879D02*
X157200088Y-94969866D01*
X136540000Y-105400000D02*
X140732932Y-105400000D01*
X157200088Y-94969866D02*
X157200088Y-90799912D01*
X140732932Y-105400000D02*
X144957850Y-101175082D01*
X144957850Y-101175082D02*
X150994870Y-101175081D01*
X150994870Y-101175081D02*
X151270073Y-100899879D01*
G04 #@! TO.N,/J2*
X160000000Y-87200000D02*
X160500000Y-87200000D01*
X156900077Y-90299923D02*
X160000000Y-87200000D01*
X156900077Y-94845598D02*
X156900077Y-90299923D01*
X151145805Y-100599868D02*
X156900077Y-94845598D01*
X134948998Y-105400000D02*
X136049010Y-104299989D01*
X136049010Y-104299989D02*
X141408664Y-104299989D01*
X134000000Y-105400000D02*
X134948998Y-105400000D01*
X141408664Y-104299989D02*
X144833581Y-100875071D01*
X144833581Y-100875071D02*
X150870601Y-100875071D01*
X150870601Y-100875071D02*
X151145805Y-100599868D01*
G04 #@! TO.N,/K1*
X156300055Y-89299945D02*
X160000000Y-85600000D01*
X142000095Y-102860000D02*
X144585044Y-100275051D01*
X136540000Y-102860000D02*
X142000095Y-102860000D01*
X144585044Y-100275051D02*
X150622063Y-100275051D01*
X160000000Y-85600000D02*
X160500000Y-85600000D01*
X150622063Y-100275051D02*
X150897269Y-99999846D01*
X150897269Y-99999846D02*
X156300055Y-94597062D01*
X156300055Y-94597062D02*
X156300055Y-89299945D01*
G04 #@! TO.N,/K3*
X134849999Y-102010001D02*
X134000000Y-102860000D01*
X137304988Y-101695012D02*
X135164988Y-101695012D01*
X160000000Y-84800000D02*
X156000044Y-88799956D01*
X135164988Y-101695012D02*
X134849999Y-102010001D01*
X160500000Y-84800000D02*
X160000000Y-84800000D01*
X156000044Y-88799956D02*
X156000044Y-94472794D01*
X156000044Y-94472794D02*
X150497793Y-99975045D01*
X150497793Y-99975045D02*
X139024955Y-99975045D01*
X139024955Y-99975045D02*
X137304988Y-101695012D01*
G04 #@! TO.N,/L1*
X137742081Y-97780000D02*
X136540000Y-97780000D01*
X147180000Y-97780000D02*
X137742081Y-97780000D01*
X159950000Y-81600000D02*
X154800000Y-86750000D01*
X160500000Y-81600000D02*
X159950000Y-81600000D01*
X154800000Y-93975722D02*
X150000721Y-98775001D01*
X150000721Y-98775001D02*
X148175001Y-98775001D01*
X154800000Y-86750000D02*
X154800000Y-93975722D01*
X148175001Y-98775001D02*
X147180000Y-97780000D01*
G04 #@! TO.N,/L3*
X148351444Y-98400000D02*
X148950000Y-98400000D01*
X146656443Y-96704999D02*
X148351444Y-98400000D01*
X148950000Y-98400000D02*
X149500000Y-98400000D01*
X134000000Y-97780000D02*
X135075001Y-96704999D01*
X135075001Y-96704999D02*
X146656443Y-96704999D01*
G04 #@! TO.N,/M1*
X137400011Y-96100011D02*
X146900011Y-96100011D01*
X136540000Y-95240000D02*
X137400011Y-96100011D01*
X146900011Y-96100011D02*
X147600000Y-96800000D01*
X147600000Y-96800000D02*
X148950000Y-96800000D01*
X148950000Y-96800000D02*
X149500000Y-96800000D01*
G04 #@! TO.N,/M2*
X148950000Y-97600000D02*
X149500000Y-97600000D01*
X135164988Y-96404988D02*
X146780710Y-96404988D01*
X134000000Y-95240000D02*
X135164988Y-96404988D01*
X146780710Y-96404988D02*
X147975722Y-97600000D01*
X147975722Y-97600000D02*
X148950000Y-97600000D01*
G04 #@! TO.N,/N2*
X136540000Y-92700000D02*
X145002884Y-92700000D01*
X145002884Y-92700000D02*
X146702884Y-94400000D01*
X148950000Y-94400000D02*
X149500000Y-94400000D01*
X146702884Y-94400000D02*
X148950000Y-94400000D01*
G04 #@! TO.N,/N3*
X134000000Y-92700000D02*
X135075001Y-91624999D01*
X135075001Y-91624999D02*
X144352163Y-91624999D01*
X144352163Y-91624999D02*
X146327164Y-93600000D01*
X148950000Y-93600000D02*
X149500000Y-93600000D01*
X146327164Y-93600000D02*
X148950000Y-93600000D01*
G04 #@! TO.N,/P2*
X140771442Y-87620000D02*
X145951442Y-92800000D01*
X136540000Y-87620000D02*
X140771442Y-87620000D01*
X145951442Y-92800000D02*
X148950000Y-92800000D01*
X148950000Y-92800000D02*
X149500000Y-92800000D01*
G04 #@! TO.N,/P1*
X148950000Y-92000000D02*
X149500000Y-92000000D01*
X145575722Y-92000000D02*
X148950000Y-92000000D01*
X140120721Y-86544999D02*
X145575722Y-92000000D01*
X135075001Y-86544999D02*
X140120721Y-86544999D01*
X134000000Y-87620000D02*
X135075001Y-86544999D01*
G04 #@! TO.N,/R1*
X149250000Y-91200000D02*
X148824990Y-91625010D01*
X149500000Y-91200000D02*
X149250000Y-91200000D01*
X148824990Y-91625010D02*
X145625010Y-91625010D01*
X145625010Y-91625010D02*
X139080000Y-85080000D01*
X139080000Y-85080000D02*
X137742081Y-85080000D01*
X137742081Y-85080000D02*
X136540000Y-85080000D01*
G04 #@! TD*
D19*
G04 #@! TO.N,GND*
G36*
X165818752Y-75449562D02*
X166611628Y-75666468D01*
X167353558Y-76020351D01*
X168021098Y-76500027D01*
X168593140Y-77090329D01*
X169051613Y-77772609D01*
X169382016Y-78525289D01*
X169574603Y-79327470D01*
X169625000Y-80013751D01*
X169625001Y-119983293D01*
X169550438Y-120818752D01*
X169333533Y-121611622D01*
X168979649Y-122353558D01*
X168499973Y-123021098D01*
X167909671Y-123593140D01*
X167227391Y-124051613D01*
X166474714Y-124382015D01*
X165672530Y-124574603D01*
X164986249Y-124625000D01*
X125016696Y-124625000D01*
X124181248Y-124550438D01*
X123388378Y-124333533D01*
X122646442Y-123979649D01*
X121978902Y-123499973D01*
X121406860Y-122909671D01*
X120948387Y-122227391D01*
X120617985Y-121474714D01*
X120425397Y-120672530D01*
X120375000Y-119986249D01*
X120375000Y-118100000D01*
X123907471Y-118100000D01*
X123996724Y-118548707D01*
X124250897Y-118929103D01*
X124631293Y-119183276D01*
X124966739Y-119250000D01*
X125193261Y-119250000D01*
X125528707Y-119183276D01*
X125591194Y-119141523D01*
X129888746Y-123439077D01*
X129909663Y-123470381D01*
X129940967Y-123491298D01*
X129940970Y-123491301D01*
X130033703Y-123553263D01*
X130033704Y-123553263D01*
X130033705Y-123553264D01*
X130143091Y-123575022D01*
X130143095Y-123575022D01*
X130180021Y-123582367D01*
X130216947Y-123575022D01*
X159347333Y-123575022D01*
X159384259Y-123582367D01*
X159421185Y-123575022D01*
X159421190Y-123575022D01*
X159530576Y-123553264D01*
X159654618Y-123470381D01*
X159675539Y-123439071D01*
X163239053Y-119875558D01*
X163270359Y-119854640D01*
X163306870Y-119799999D01*
X163353241Y-119730600D01*
X163353241Y-119730599D01*
X163353242Y-119730598D01*
X163375000Y-119621212D01*
X163375000Y-119621208D01*
X163382345Y-119584281D01*
X163377690Y-119560877D01*
X163500000Y-119560877D01*
X163617054Y-119537593D01*
X163716288Y-119471288D01*
X163782593Y-119372054D01*
X163805877Y-119255000D01*
X163805877Y-118030000D01*
X166100000Y-118030000D01*
X166100000Y-119334565D01*
X166160896Y-119481582D01*
X166273418Y-119594104D01*
X166420435Y-119655000D01*
X166850000Y-119655000D01*
X166950000Y-119555000D01*
X166950000Y-117930000D01*
X167050000Y-117930000D01*
X167050000Y-119555000D01*
X167150000Y-119655000D01*
X167579565Y-119655000D01*
X167726582Y-119594104D01*
X167839104Y-119481582D01*
X167900000Y-119334565D01*
X167900000Y-118030000D01*
X167800000Y-117930000D01*
X167050000Y-117930000D01*
X166950000Y-117930000D01*
X166200000Y-117930000D01*
X166100000Y-118030000D01*
X163805877Y-118030000D01*
X163805877Y-116505000D01*
X163790051Y-116425435D01*
X166100000Y-116425435D01*
X166100000Y-117730000D01*
X166200000Y-117830000D01*
X166950000Y-117830000D01*
X166950000Y-116205000D01*
X167050000Y-116205000D01*
X167050000Y-117830000D01*
X167800000Y-117830000D01*
X167900000Y-117730000D01*
X167900000Y-116425435D01*
X167839104Y-116278418D01*
X167726582Y-116165896D01*
X167579565Y-116105000D01*
X167150000Y-116105000D01*
X167050000Y-116205000D01*
X166950000Y-116205000D01*
X166850000Y-116105000D01*
X166420435Y-116105000D01*
X166273418Y-116165896D01*
X166160896Y-116278418D01*
X166100000Y-116425435D01*
X163790051Y-116425435D01*
X163782593Y-116387946D01*
X163716288Y-116288712D01*
X163617054Y-116222407D01*
X163500000Y-116199123D01*
X162500000Y-116199123D01*
X162382946Y-116222407D01*
X162283712Y-116288712D01*
X162217407Y-116387946D01*
X162194123Y-116505000D01*
X162194123Y-119255000D01*
X162217407Y-119372054D01*
X162283712Y-119471288D01*
X162382946Y-119537593D01*
X162494223Y-119559728D01*
X161674989Y-120378962D01*
X161674989Y-110745000D01*
X162194123Y-110745000D01*
X162194123Y-113495000D01*
X162217407Y-113612054D01*
X162283712Y-113711288D01*
X162382946Y-113777593D01*
X162500000Y-113800877D01*
X163500000Y-113800877D01*
X163617054Y-113777593D01*
X163716288Y-113711288D01*
X163782593Y-113612054D01*
X163805877Y-113495000D01*
X163805877Y-112270000D01*
X166100000Y-112270000D01*
X166100000Y-113574565D01*
X166160896Y-113721582D01*
X166273418Y-113834104D01*
X166420435Y-113895000D01*
X166850000Y-113895000D01*
X166950000Y-113795000D01*
X166950000Y-112170000D01*
X167050000Y-112170000D01*
X167050000Y-113795000D01*
X167150000Y-113895000D01*
X167579565Y-113895000D01*
X167726582Y-113834104D01*
X167839104Y-113721582D01*
X167900000Y-113574565D01*
X167900000Y-112270000D01*
X167800000Y-112170000D01*
X167050000Y-112170000D01*
X166950000Y-112170000D01*
X166200000Y-112170000D01*
X166100000Y-112270000D01*
X163805877Y-112270000D01*
X163805877Y-110745000D01*
X163790051Y-110665435D01*
X166100000Y-110665435D01*
X166100000Y-111970000D01*
X166200000Y-112070000D01*
X166950000Y-112070000D01*
X166950000Y-110445000D01*
X167050000Y-110445000D01*
X167050000Y-112070000D01*
X167800000Y-112070000D01*
X167900000Y-111970000D01*
X167900000Y-110665435D01*
X167839104Y-110518418D01*
X167726582Y-110405896D01*
X167579565Y-110345000D01*
X167150000Y-110345000D01*
X167050000Y-110445000D01*
X166950000Y-110445000D01*
X166850000Y-110345000D01*
X166420435Y-110345000D01*
X166273418Y-110405896D01*
X166160896Y-110518418D01*
X166100000Y-110665435D01*
X163790051Y-110665435D01*
X163782593Y-110627946D01*
X163716288Y-110528712D01*
X163617054Y-110462407D01*
X163500000Y-110439123D01*
X162500000Y-110439123D01*
X162382946Y-110462407D01*
X162283712Y-110528712D01*
X162217407Y-110627946D01*
X162194123Y-110745000D01*
X161674989Y-110745000D01*
X161674989Y-109460340D01*
X163239053Y-107896277D01*
X163270359Y-107875359D01*
X163346854Y-107760877D01*
X163500000Y-107760877D01*
X163617054Y-107737593D01*
X163716288Y-107671288D01*
X163782593Y-107572054D01*
X163805877Y-107455000D01*
X163805877Y-106230000D01*
X166100000Y-106230000D01*
X166100000Y-107534565D01*
X166160896Y-107681582D01*
X166273418Y-107794104D01*
X166420435Y-107855000D01*
X166850000Y-107855000D01*
X166950000Y-107755000D01*
X166950000Y-106130000D01*
X167050000Y-106130000D01*
X167050000Y-107755000D01*
X167150000Y-107855000D01*
X167579565Y-107855000D01*
X167726582Y-107794104D01*
X167839104Y-107681582D01*
X167900000Y-107534565D01*
X167900000Y-106230000D01*
X167800000Y-106130000D01*
X167050000Y-106130000D01*
X166950000Y-106130000D01*
X166200000Y-106130000D01*
X166100000Y-106230000D01*
X163805877Y-106230000D01*
X163805877Y-104705000D01*
X163790051Y-104625435D01*
X166100000Y-104625435D01*
X166100000Y-105930000D01*
X166200000Y-106030000D01*
X166950000Y-106030000D01*
X166950000Y-104405000D01*
X167050000Y-104405000D01*
X167050000Y-106030000D01*
X167800000Y-106030000D01*
X167900000Y-105930000D01*
X167900000Y-104625435D01*
X167839104Y-104478418D01*
X167726582Y-104365896D01*
X167579565Y-104305000D01*
X167150000Y-104305000D01*
X167050000Y-104405000D01*
X166950000Y-104405000D01*
X166850000Y-104305000D01*
X166420435Y-104305000D01*
X166273418Y-104365896D01*
X166160896Y-104478418D01*
X166100000Y-104625435D01*
X163790051Y-104625435D01*
X163782593Y-104587946D01*
X163716288Y-104488712D01*
X163617054Y-104422407D01*
X163500000Y-104399123D01*
X162500000Y-104399123D01*
X162382946Y-104422407D01*
X162283712Y-104488712D01*
X162217407Y-104587946D01*
X162194123Y-104705000D01*
X162194123Y-107455000D01*
X162217407Y-107572054D01*
X162283712Y-107671288D01*
X162355450Y-107719221D01*
X161060938Y-109013733D01*
X161029631Y-109034652D01*
X161008712Y-109065959D01*
X161008710Y-109065961D01*
X160946748Y-109158693D01*
X160917644Y-109305011D01*
X160924990Y-109341942D01*
X160924989Y-120704684D01*
X159560877Y-122068797D01*
X159560877Y-121500000D01*
X159537593Y-121382946D01*
X159471288Y-121283712D01*
X159372054Y-121217407D01*
X159255000Y-121194123D01*
X156505000Y-121194123D01*
X156387946Y-121217407D01*
X156288712Y-121283712D01*
X156222407Y-121382946D01*
X156199123Y-121500000D01*
X156199123Y-122500000D01*
X156204098Y-122525011D01*
X153795902Y-122525011D01*
X153800877Y-122500000D01*
X153800877Y-121500000D01*
X153777593Y-121382946D01*
X153711288Y-121283712D01*
X153612054Y-121217407D01*
X153495000Y-121194123D01*
X150745000Y-121194123D01*
X150627946Y-121217407D01*
X150528712Y-121283712D01*
X150462407Y-121382946D01*
X150439123Y-121500000D01*
X150439123Y-121625000D01*
X149636925Y-121625000D01*
X149599999Y-121617655D01*
X149563073Y-121625000D01*
X149563069Y-121625000D01*
X149453683Y-121646758D01*
X149453682Y-121646759D01*
X149453681Y-121646759D01*
X149360949Y-121708721D01*
X149360948Y-121708722D01*
X149329641Y-121729641D01*
X149308722Y-121760948D01*
X148844671Y-122225000D01*
X138655330Y-122225000D01*
X135041523Y-118611194D01*
X135083276Y-118548707D01*
X135172529Y-118100000D01*
X135083276Y-117651293D01*
X134829103Y-117270897D01*
X134448707Y-117016724D01*
X134113261Y-116950000D01*
X133886739Y-116950000D01*
X133551293Y-117016724D01*
X133170897Y-117270897D01*
X132916724Y-117651293D01*
X132827471Y-118100000D01*
X132916724Y-118548707D01*
X133170897Y-118929103D01*
X133551293Y-119183276D01*
X133886739Y-119250000D01*
X134113261Y-119250000D01*
X134448707Y-119183276D01*
X134511194Y-119141523D01*
X137894681Y-122525011D01*
X132575341Y-122525011D01*
X128661523Y-118611194D01*
X128703276Y-118548707D01*
X128792529Y-118100000D01*
X128703276Y-117651293D01*
X128449103Y-117270897D01*
X128068707Y-117016724D01*
X127733261Y-116950000D01*
X127506739Y-116950000D01*
X127171293Y-117016724D01*
X126790897Y-117270897D01*
X126536724Y-117651293D01*
X126447471Y-118100000D01*
X126536724Y-118548707D01*
X126790897Y-118929103D01*
X127171293Y-119183276D01*
X127506739Y-119250000D01*
X127733261Y-119250000D01*
X128068707Y-119183276D01*
X128131194Y-119141523D01*
X131814692Y-122825022D01*
X130335353Y-122825022D01*
X126121523Y-118611194D01*
X126163276Y-118548707D01*
X126252529Y-118100000D01*
X126163276Y-117651293D01*
X125909103Y-117270897D01*
X125528707Y-117016724D01*
X125193261Y-116950000D01*
X124966739Y-116950000D01*
X124631293Y-117016724D01*
X124250897Y-117270897D01*
X123996724Y-117651293D01*
X123907471Y-118100000D01*
X120375000Y-118100000D01*
X120375000Y-110724771D01*
X123854199Y-110724771D01*
X124040145Y-111173695D01*
X124384765Y-111518826D01*
X124835228Y-111705805D01*
X125030000Y-111629004D01*
X125030000Y-110530000D01*
X125130000Y-110530000D01*
X125130000Y-111629004D01*
X125324772Y-111705805D01*
X125775235Y-111518826D01*
X126119855Y-111173695D01*
X126305801Y-110724771D01*
X126228913Y-110530000D01*
X125130000Y-110530000D01*
X125030000Y-110530000D01*
X123931087Y-110530000D01*
X123854199Y-110724771D01*
X120375000Y-110724771D01*
X120375000Y-110235229D01*
X123854199Y-110235229D01*
X123931087Y-110430000D01*
X125030000Y-110430000D01*
X125030000Y-109330996D01*
X125130000Y-109330996D01*
X125130000Y-110430000D01*
X126228913Y-110430000D01*
X126305801Y-110235229D01*
X126394199Y-110235229D01*
X126471087Y-110430000D01*
X127570000Y-110430000D01*
X127570000Y-109330996D01*
X127670000Y-109330996D01*
X127670000Y-110430000D01*
X128768913Y-110430000D01*
X128845801Y-110235229D01*
X128659855Y-109786305D01*
X128315235Y-109441174D01*
X127864772Y-109254195D01*
X127670000Y-109330996D01*
X127570000Y-109330996D01*
X127375228Y-109254195D01*
X126924765Y-109441174D01*
X126580145Y-109786305D01*
X126394199Y-110235229D01*
X126305801Y-110235229D01*
X126119855Y-109786305D01*
X125775235Y-109441174D01*
X125324772Y-109254195D01*
X125130000Y-109330996D01*
X125030000Y-109330996D01*
X124835228Y-109254195D01*
X124384765Y-109441174D01*
X124040145Y-109786305D01*
X123854199Y-110235229D01*
X120375000Y-110235229D01*
X120375000Y-100564771D01*
X123854199Y-100564771D01*
X124040145Y-101013695D01*
X124384765Y-101358826D01*
X124835228Y-101545805D01*
X125030000Y-101469004D01*
X125030000Y-100370000D01*
X125130000Y-100370000D01*
X125130000Y-101469004D01*
X125324772Y-101545805D01*
X125775235Y-101358826D01*
X126119855Y-101013695D01*
X126305801Y-100564771D01*
X126228913Y-100370000D01*
X125130000Y-100370000D01*
X125030000Y-100370000D01*
X123931087Y-100370000D01*
X123854199Y-100564771D01*
X120375000Y-100564771D01*
X120375000Y-100075229D01*
X123854199Y-100075229D01*
X123931087Y-100270000D01*
X125030000Y-100270000D01*
X125030000Y-99170996D01*
X125130000Y-99170996D01*
X125130000Y-100270000D01*
X126228913Y-100270000D01*
X126305801Y-100075229D01*
X126394199Y-100075229D01*
X126471087Y-100270000D01*
X127570000Y-100270000D01*
X127570000Y-99170996D01*
X127670000Y-99170996D01*
X127670000Y-100270000D01*
X128768913Y-100270000D01*
X128845801Y-100075229D01*
X128659855Y-99626305D01*
X128315235Y-99281174D01*
X127864772Y-99094195D01*
X127670000Y-99170996D01*
X127570000Y-99170996D01*
X127375228Y-99094195D01*
X126924765Y-99281174D01*
X126580145Y-99626305D01*
X126394199Y-100075229D01*
X126305801Y-100075229D01*
X126119855Y-99626305D01*
X125775235Y-99281174D01*
X125324772Y-99094195D01*
X125130000Y-99170996D01*
X125030000Y-99170996D01*
X124835228Y-99094195D01*
X124384765Y-99281174D01*
X124040145Y-99626305D01*
X123854199Y-100075229D01*
X120375000Y-100075229D01*
X120375000Y-80045012D01*
X123322643Y-80045012D01*
X123329989Y-80081943D01*
X123329988Y-91288062D01*
X123322643Y-91324988D01*
X123329988Y-91361914D01*
X123329988Y-91361918D01*
X123351746Y-91471304D01*
X123351747Y-91471305D01*
X123351747Y-91471306D01*
X123356683Y-91478693D01*
X123434629Y-91595347D01*
X123465939Y-91616268D01*
X124038477Y-92188806D01*
X123996724Y-92251293D01*
X123907471Y-92700000D01*
X123996724Y-93148707D01*
X124250897Y-93529103D01*
X124631293Y-93783276D01*
X124966739Y-93850000D01*
X125193261Y-93850000D01*
X125528707Y-93783276D01*
X125869988Y-93555239D01*
X125869988Y-93919682D01*
X125591194Y-94198476D01*
X125528707Y-94156724D01*
X125193261Y-94090000D01*
X124966739Y-94090000D01*
X124631293Y-94156724D01*
X124250897Y-94410897D01*
X123996724Y-94791293D01*
X123907471Y-95240000D01*
X123996724Y-95688707D01*
X124250897Y-96069103D01*
X124631293Y-96323276D01*
X124966739Y-96390000D01*
X125193261Y-96390000D01*
X125528707Y-96323276D01*
X125909103Y-96069103D01*
X126163276Y-95688707D01*
X126252529Y-95240000D01*
X126163276Y-94791293D01*
X126121524Y-94728806D01*
X126350000Y-94500329D01*
X126578477Y-94728806D01*
X126536724Y-94791293D01*
X126447471Y-95240000D01*
X126536724Y-95688707D01*
X126704634Y-95940001D01*
X126581924Y-95940001D01*
X126544998Y-95932656D01*
X126508072Y-95940001D01*
X126508068Y-95940001D01*
X126398682Y-95961759D01*
X126398681Y-95961760D01*
X126398680Y-95961760D01*
X126305947Y-96023723D01*
X126274640Y-96044642D01*
X126253721Y-96075949D01*
X125591194Y-96738477D01*
X125528707Y-96696724D01*
X125193261Y-96630000D01*
X124966739Y-96630000D01*
X124631293Y-96696724D01*
X124250897Y-96950897D01*
X123996724Y-97331293D01*
X123907471Y-97780000D01*
X123996724Y-98228707D01*
X124250897Y-98609103D01*
X124631293Y-98863276D01*
X124966739Y-98930000D01*
X125193261Y-98930000D01*
X125528707Y-98863276D01*
X125909103Y-98609103D01*
X126163276Y-98228707D01*
X126252529Y-97780000D01*
X126163276Y-97331293D01*
X126121523Y-97268806D01*
X126700329Y-96690001D01*
X127205092Y-96690001D01*
X127171293Y-96696724D01*
X126790897Y-96950897D01*
X126536724Y-97331293D01*
X126447471Y-97780000D01*
X126536724Y-98228707D01*
X126790897Y-98609103D01*
X127171293Y-98863276D01*
X127506739Y-98930000D01*
X127733261Y-98930000D01*
X128068707Y-98863276D01*
X128449103Y-98609103D01*
X128703276Y-98228707D01*
X128717937Y-98155000D01*
X128785155Y-98155000D01*
X128822081Y-98162345D01*
X128859007Y-98155000D01*
X128859012Y-98155000D01*
X128968398Y-98133242D01*
X129092440Y-98050359D01*
X129113361Y-98019049D01*
X132592412Y-94539999D01*
X133084634Y-94539999D01*
X132916724Y-94791293D01*
X132827471Y-95240000D01*
X132916724Y-95688707D01*
X133170897Y-96069103D01*
X133551293Y-96323276D01*
X133886739Y-96390000D01*
X134113261Y-96390000D01*
X134448707Y-96323276D01*
X134511194Y-96281524D01*
X134739670Y-96510000D01*
X134511194Y-96738476D01*
X134448707Y-96696724D01*
X134113261Y-96630000D01*
X133886739Y-96630000D01*
X133551293Y-96696724D01*
X133170897Y-96950897D01*
X132916724Y-97331293D01*
X132827471Y-97780000D01*
X132916724Y-98228707D01*
X133114695Y-98524991D01*
X132336934Y-98524991D01*
X132300008Y-98517646D01*
X132263082Y-98524991D01*
X132263078Y-98524991D01*
X132153692Y-98546749D01*
X132153691Y-98546750D01*
X132153690Y-98546750D01*
X132060957Y-98608713D01*
X132029650Y-98629632D01*
X132008731Y-98660939D01*
X129444671Y-101225000D01*
X128448863Y-101225000D01*
X128659855Y-101013695D01*
X128845801Y-100564771D01*
X128768913Y-100370000D01*
X127670000Y-100370000D01*
X127670000Y-100390000D01*
X127570000Y-100390000D01*
X127570000Y-100370000D01*
X126471087Y-100370000D01*
X126394199Y-100564771D01*
X126580145Y-101013695D01*
X126791137Y-101225000D01*
X126376926Y-101225000D01*
X126339999Y-101217655D01*
X126303073Y-101225000D01*
X126303069Y-101225000D01*
X126193683Y-101246758D01*
X126193682Y-101246759D01*
X126193681Y-101246759D01*
X126100949Y-101308721D01*
X126100948Y-101308722D01*
X126069641Y-101329641D01*
X126048722Y-101360948D01*
X125591194Y-101818476D01*
X125528707Y-101776724D01*
X125193261Y-101710000D01*
X124966739Y-101710000D01*
X124631293Y-101776724D01*
X124250897Y-102030897D01*
X123996724Y-102411293D01*
X123907471Y-102860000D01*
X123996724Y-103308707D01*
X124250897Y-103689103D01*
X124631293Y-103943276D01*
X124966739Y-104010000D01*
X125193261Y-104010000D01*
X125528707Y-103943276D01*
X125909103Y-103689103D01*
X126163276Y-103308707D01*
X126252529Y-102860000D01*
X126163276Y-102411293D01*
X126121524Y-102348806D01*
X126495330Y-101975000D01*
X126874553Y-101975000D01*
X126790897Y-102030897D01*
X126536724Y-102411293D01*
X126447471Y-102860000D01*
X126536724Y-103308707D01*
X126790897Y-103689103D01*
X126904596Y-103765074D01*
X125985075Y-104684596D01*
X125909103Y-104570897D01*
X125528707Y-104316724D01*
X125193261Y-104250000D01*
X124966739Y-104250000D01*
X124631293Y-104316724D01*
X124250897Y-104570897D01*
X123996724Y-104951293D01*
X123907471Y-105400000D01*
X123996724Y-105848707D01*
X124250897Y-106229103D01*
X124631293Y-106483276D01*
X124966739Y-106550000D01*
X125193261Y-106550000D01*
X125528707Y-106483276D01*
X125909103Y-106229103D01*
X126163276Y-105848707D01*
X126233211Y-105497118D01*
X126476557Y-105253772D01*
X126447471Y-105400000D01*
X126536724Y-105848707D01*
X126764761Y-106189988D01*
X126491938Y-106189988D01*
X126455012Y-106182643D01*
X126418086Y-106189988D01*
X126418081Y-106189988D01*
X126308695Y-106211746D01*
X126308693Y-106211747D01*
X126308694Y-106211747D01*
X126215961Y-106273709D01*
X126215960Y-106273710D01*
X126184653Y-106294629D01*
X126163734Y-106325936D01*
X125591194Y-106898477D01*
X125528707Y-106856724D01*
X125193261Y-106790000D01*
X124966739Y-106790000D01*
X124631293Y-106856724D01*
X124250897Y-107110897D01*
X123996724Y-107491293D01*
X123907471Y-107940000D01*
X123996724Y-108388707D01*
X124250897Y-108769103D01*
X124631293Y-109023276D01*
X124966739Y-109090000D01*
X125193261Y-109090000D01*
X125528707Y-109023276D01*
X125909103Y-108769103D01*
X126163276Y-108388707D01*
X126252529Y-107940000D01*
X126163276Y-107491293D01*
X126121523Y-107428806D01*
X126610342Y-106939988D01*
X127046680Y-106939988D01*
X126790897Y-107110897D01*
X126536724Y-107491293D01*
X126447471Y-107940000D01*
X126536724Y-108388707D01*
X126790897Y-108769103D01*
X127171293Y-109023276D01*
X127506739Y-109090000D01*
X127733261Y-109090000D01*
X128068707Y-109023276D01*
X128449103Y-108769103D01*
X128703276Y-108388707D01*
X128792529Y-107940000D01*
X128703276Y-107491293D01*
X128661524Y-107428806D01*
X128850331Y-107239999D01*
X133084634Y-107239999D01*
X132916724Y-107491293D01*
X132827471Y-107940000D01*
X132916724Y-108388707D01*
X133170897Y-108769103D01*
X133551293Y-109023276D01*
X133585092Y-109029999D01*
X130831926Y-109029999D01*
X130795000Y-109022654D01*
X130758074Y-109029999D01*
X130758070Y-109029999D01*
X130648684Y-109051757D01*
X130648683Y-109051758D01*
X130648682Y-109051758D01*
X130627426Y-109065961D01*
X130524642Y-109134640D01*
X130503723Y-109165947D01*
X128775730Y-110893940D01*
X128845801Y-110724771D01*
X128768913Y-110530000D01*
X127670000Y-110530000D01*
X127670000Y-110550000D01*
X127570000Y-110550000D01*
X127570000Y-110530000D01*
X126471087Y-110530000D01*
X126394199Y-110724771D01*
X126580145Y-111173695D01*
X126924765Y-111518826D01*
X127048049Y-111569999D01*
X126191927Y-111569999D01*
X126155001Y-111562654D01*
X126118074Y-111569999D01*
X126118070Y-111569999D01*
X126008684Y-111591757D01*
X126008683Y-111591758D01*
X126008682Y-111591758D01*
X125915950Y-111653720D01*
X125915949Y-111653721D01*
X125884642Y-111674640D01*
X125863723Y-111705947D01*
X125591194Y-111978476D01*
X125528707Y-111936724D01*
X125193261Y-111870000D01*
X124966739Y-111870000D01*
X124631293Y-111936724D01*
X124250897Y-112190897D01*
X123996724Y-112571293D01*
X123907471Y-113020000D01*
X123996724Y-113468707D01*
X124250897Y-113849103D01*
X124631293Y-114103276D01*
X124966739Y-114170000D01*
X125193261Y-114170000D01*
X125528707Y-114103276D01*
X125909103Y-113849103D01*
X126163276Y-113468707D01*
X126252529Y-113020000D01*
X126163276Y-112571293D01*
X126121524Y-112508806D01*
X126310331Y-112319999D01*
X126704634Y-112319999D01*
X126536724Y-112571293D01*
X126447471Y-113020000D01*
X126536724Y-113468707D01*
X126704634Y-113720001D01*
X126581924Y-113720001D01*
X126544998Y-113712656D01*
X126508072Y-113720001D01*
X126508068Y-113720001D01*
X126398682Y-113741759D01*
X126398681Y-113741760D01*
X126398680Y-113741760D01*
X126348854Y-113775053D01*
X126274640Y-113824642D01*
X126253721Y-113855949D01*
X125591194Y-114518477D01*
X125528707Y-114476724D01*
X125193261Y-114410000D01*
X124966739Y-114410000D01*
X124631293Y-114476724D01*
X124250897Y-114730897D01*
X123996724Y-115111293D01*
X123907471Y-115560000D01*
X123996724Y-116008707D01*
X124250897Y-116389103D01*
X124631293Y-116643276D01*
X124966739Y-116710000D01*
X125193261Y-116710000D01*
X125528707Y-116643276D01*
X125909103Y-116389103D01*
X126163276Y-116008707D01*
X126252529Y-115560000D01*
X126163276Y-115111293D01*
X126121523Y-115048806D01*
X126700329Y-114470001D01*
X127205092Y-114470001D01*
X127171293Y-114476724D01*
X126790897Y-114730897D01*
X126536724Y-115111293D01*
X126447471Y-115560000D01*
X126536724Y-116008707D01*
X126790897Y-116389103D01*
X127171293Y-116643276D01*
X127506739Y-116710000D01*
X127733261Y-116710000D01*
X128068707Y-116643276D01*
X128449103Y-116389103D01*
X128703276Y-116008707D01*
X128792529Y-115560000D01*
X128703276Y-115111293D01*
X128661524Y-115048806D01*
X128850331Y-114859999D01*
X133084634Y-114859999D01*
X132916724Y-115111293D01*
X132827471Y-115560000D01*
X132916724Y-116008707D01*
X133170897Y-116389103D01*
X133551293Y-116643276D01*
X133886739Y-116710000D01*
X134113261Y-116710000D01*
X134448707Y-116643276D01*
X134511194Y-116601524D01*
X134783723Y-116874053D01*
X134804642Y-116905360D01*
X134835949Y-116926279D01*
X134835950Y-116926280D01*
X134928682Y-116988242D01*
X134928683Y-116988242D01*
X134928684Y-116988243D01*
X135038070Y-117010001D01*
X135038074Y-117010001D01*
X135075001Y-117017346D01*
X135111927Y-117010001D01*
X136125092Y-117010001D01*
X136091293Y-117016724D01*
X135710897Y-117270897D01*
X135456724Y-117651293D01*
X135367471Y-118100000D01*
X135456724Y-118548707D01*
X135710897Y-118929103D01*
X136091293Y-119183276D01*
X136426739Y-119250000D01*
X136653261Y-119250000D01*
X136988707Y-119183276D01*
X137051194Y-119141523D01*
X137948722Y-120039052D01*
X137969641Y-120070359D01*
X138000948Y-120091278D01*
X138000949Y-120091279D01*
X138093681Y-120153241D01*
X138093682Y-120153241D01*
X138093683Y-120153242D01*
X138203069Y-120175000D01*
X138203073Y-120175000D01*
X138239999Y-120182345D01*
X138276926Y-120175000D01*
X147763074Y-120175000D01*
X147800000Y-120182345D01*
X147836926Y-120175000D01*
X147836931Y-120175000D01*
X147946317Y-120153242D01*
X148070359Y-120070359D01*
X148091280Y-120039049D01*
X149839053Y-118291277D01*
X149870359Y-118270359D01*
X149895161Y-118233241D01*
X149950781Y-118150000D01*
X150345000Y-118150000D01*
X150345000Y-118579565D01*
X150405896Y-118726582D01*
X150518418Y-118839104D01*
X150665435Y-118900000D01*
X151970000Y-118900000D01*
X152070000Y-118800000D01*
X152070000Y-118050000D01*
X152170000Y-118050000D01*
X152170000Y-118800000D01*
X152270000Y-118900000D01*
X153574565Y-118900000D01*
X153721582Y-118839104D01*
X153834104Y-118726582D01*
X153895000Y-118579565D01*
X153895000Y-118150000D01*
X156105000Y-118150000D01*
X156105000Y-118579565D01*
X156165896Y-118726582D01*
X156278418Y-118839104D01*
X156425435Y-118900000D01*
X157730000Y-118900000D01*
X157830000Y-118800000D01*
X157830000Y-118050000D01*
X157930000Y-118050000D01*
X157930000Y-118800000D01*
X158030000Y-118900000D01*
X159334565Y-118900000D01*
X159481582Y-118839104D01*
X159594104Y-118726582D01*
X159655000Y-118579565D01*
X159655000Y-118150000D01*
X159555000Y-118050000D01*
X157930000Y-118050000D01*
X157830000Y-118050000D01*
X156205000Y-118050000D01*
X156105000Y-118150000D01*
X153895000Y-118150000D01*
X153795000Y-118050000D01*
X152170000Y-118050000D01*
X152070000Y-118050000D01*
X150445000Y-118050000D01*
X150345000Y-118150000D01*
X149950781Y-118150000D01*
X149953241Y-118146319D01*
X149953241Y-118146318D01*
X149953242Y-118146317D01*
X149975000Y-118036931D01*
X149975000Y-118036927D01*
X149982345Y-118000001D01*
X149975000Y-117963075D01*
X149975000Y-117420435D01*
X150345000Y-117420435D01*
X150345000Y-117850000D01*
X150445000Y-117950000D01*
X152070000Y-117950000D01*
X152070000Y-117200000D01*
X152170000Y-117200000D01*
X152170000Y-117950000D01*
X153795000Y-117950000D01*
X153895000Y-117850000D01*
X153895000Y-117420435D01*
X156105000Y-117420435D01*
X156105000Y-117850000D01*
X156205000Y-117950000D01*
X157830000Y-117950000D01*
X157830000Y-117200000D01*
X157930000Y-117200000D01*
X157930000Y-117950000D01*
X159555000Y-117950000D01*
X159655000Y-117850000D01*
X159655000Y-117420435D01*
X159594104Y-117273418D01*
X159481582Y-117160896D01*
X159334565Y-117100000D01*
X158030000Y-117100000D01*
X157930000Y-117200000D01*
X157830000Y-117200000D01*
X157730000Y-117100000D01*
X156425435Y-117100000D01*
X156278418Y-117160896D01*
X156165896Y-117273418D01*
X156105000Y-117420435D01*
X153895000Y-117420435D01*
X153834104Y-117273418D01*
X153721582Y-117160896D01*
X153574565Y-117100000D01*
X152270000Y-117100000D01*
X152170000Y-117200000D01*
X152070000Y-117200000D01*
X151970000Y-117100000D01*
X150665435Y-117100000D01*
X150518418Y-117160896D01*
X150405896Y-117273418D01*
X150345000Y-117420435D01*
X149975000Y-117420435D01*
X149975000Y-112755329D01*
X150355330Y-112375000D01*
X150439123Y-112375000D01*
X150439123Y-112500000D01*
X150462407Y-112617054D01*
X150528712Y-112716288D01*
X150627946Y-112782593D01*
X150745000Y-112805877D01*
X153495000Y-112805877D01*
X153612054Y-112782593D01*
X153711288Y-112716288D01*
X153777593Y-112617054D01*
X153800877Y-112500000D01*
X153800877Y-111500000D01*
X156199123Y-111500000D01*
X156199123Y-112500000D01*
X156222407Y-112617054D01*
X156288712Y-112716288D01*
X156387946Y-112782593D01*
X156505000Y-112805877D01*
X159255000Y-112805877D01*
X159372054Y-112782593D01*
X159471288Y-112716288D01*
X159537593Y-112617054D01*
X159560877Y-112500000D01*
X159560877Y-111500000D01*
X159537593Y-111382946D01*
X159471288Y-111283712D01*
X159372054Y-111217407D01*
X159255000Y-111194123D01*
X156505000Y-111194123D01*
X156387946Y-111217407D01*
X156288712Y-111283712D01*
X156222407Y-111382946D01*
X156199123Y-111500000D01*
X153800877Y-111500000D01*
X153777593Y-111382946D01*
X153711288Y-111283712D01*
X153612054Y-111217407D01*
X153495000Y-111194123D01*
X150745000Y-111194123D01*
X150627946Y-111217407D01*
X150528712Y-111283712D01*
X150462407Y-111382946D01*
X150439123Y-111500000D01*
X150439123Y-111625000D01*
X150236925Y-111625000D01*
X150199999Y-111617655D01*
X150163073Y-111625000D01*
X150163069Y-111625000D01*
X150053683Y-111646758D01*
X150053682Y-111646759D01*
X150053681Y-111646759D01*
X149960949Y-111708721D01*
X149960948Y-111708722D01*
X149929641Y-111729641D01*
X149908722Y-111760948D01*
X149360948Y-112308723D01*
X149329642Y-112329641D01*
X149308723Y-112360948D01*
X149308721Y-112360950D01*
X149246759Y-112453682D01*
X149217655Y-112600000D01*
X149225001Y-112636931D01*
X149225000Y-117844670D01*
X147900000Y-119169671D01*
X147900000Y-118030000D01*
X147800000Y-117930000D01*
X147050000Y-117930000D01*
X147050000Y-117950000D01*
X146950000Y-117950000D01*
X146950000Y-117930000D01*
X146200000Y-117930000D01*
X146100000Y-118030000D01*
X146100000Y-119334565D01*
X146137459Y-119425000D01*
X143747216Y-119425000D01*
X143782593Y-119372054D01*
X143805877Y-119255000D01*
X143805877Y-116505000D01*
X143790051Y-116425435D01*
X146100000Y-116425435D01*
X146100000Y-117730000D01*
X146200000Y-117830000D01*
X146950000Y-117830000D01*
X146950000Y-116205000D01*
X147050000Y-116205000D01*
X147050000Y-117830000D01*
X147800000Y-117830000D01*
X147900000Y-117730000D01*
X147900000Y-116425435D01*
X147839104Y-116278418D01*
X147726582Y-116165896D01*
X147579565Y-116105000D01*
X147150000Y-116105000D01*
X147050000Y-116205000D01*
X146950000Y-116205000D01*
X146850000Y-116105000D01*
X146420435Y-116105000D01*
X146273418Y-116165896D01*
X146160896Y-116278418D01*
X146100000Y-116425435D01*
X143790051Y-116425435D01*
X143782593Y-116387946D01*
X143716288Y-116288712D01*
X143617054Y-116222407D01*
X143500000Y-116199123D01*
X142500000Y-116199123D01*
X142382946Y-116222407D01*
X142283712Y-116288712D01*
X142217407Y-116387946D01*
X142194123Y-116505000D01*
X142194123Y-117505000D01*
X139165328Y-117505000D01*
X138056279Y-116395951D01*
X138035358Y-116364642D01*
X137911316Y-116281759D01*
X137801930Y-116260001D01*
X137801925Y-116260001D01*
X137764999Y-116252656D01*
X137728073Y-116260001D01*
X137455366Y-116260001D01*
X137623276Y-116008707D01*
X137712529Y-115560000D01*
X137623276Y-115111293D01*
X137581524Y-115048806D01*
X138454079Y-114176252D01*
X138485382Y-114155336D01*
X138506299Y-114124032D01*
X138506302Y-114124029D01*
X138568264Y-114031296D01*
X138568264Y-114031295D01*
X138568265Y-114031294D01*
X138590023Y-113921908D01*
X138590023Y-113921904D01*
X138597368Y-113884978D01*
X138590023Y-113848052D01*
X138590023Y-112740306D01*
X140585329Y-110745000D01*
X142194123Y-110745000D01*
X142194123Y-113495000D01*
X142217407Y-113612054D01*
X142283712Y-113711288D01*
X142382946Y-113777593D01*
X142500000Y-113800877D01*
X143500000Y-113800877D01*
X143617054Y-113777593D01*
X143716288Y-113711288D01*
X143782593Y-113612054D01*
X143805877Y-113495000D01*
X143805877Y-112270000D01*
X146100000Y-112270000D01*
X146100000Y-113574565D01*
X146160896Y-113721582D01*
X146273418Y-113834104D01*
X146420435Y-113895000D01*
X146850000Y-113895000D01*
X146950000Y-113795000D01*
X146950000Y-112170000D01*
X147050000Y-112170000D01*
X147050000Y-113795000D01*
X147150000Y-113895000D01*
X147579565Y-113895000D01*
X147726582Y-113834104D01*
X147839104Y-113721582D01*
X147900000Y-113574565D01*
X147900000Y-112270000D01*
X147800000Y-112170000D01*
X147050000Y-112170000D01*
X146950000Y-112170000D01*
X146200000Y-112170000D01*
X146100000Y-112270000D01*
X143805877Y-112270000D01*
X143805877Y-110745000D01*
X143790051Y-110665435D01*
X146100000Y-110665435D01*
X146100000Y-111970000D01*
X146200000Y-112070000D01*
X146950000Y-112070000D01*
X146950000Y-110445000D01*
X147050000Y-110445000D01*
X147050000Y-112070000D01*
X147800000Y-112070000D01*
X147900000Y-111970000D01*
X147900000Y-110665435D01*
X147839104Y-110518418D01*
X147726582Y-110405896D01*
X147579565Y-110345000D01*
X147150000Y-110345000D01*
X147050000Y-110445000D01*
X146950000Y-110445000D01*
X146850000Y-110345000D01*
X146420435Y-110345000D01*
X146273418Y-110405896D01*
X146160896Y-110518418D01*
X146100000Y-110665435D01*
X143790051Y-110665435D01*
X143782593Y-110627946D01*
X143716288Y-110528712D01*
X143617054Y-110462407D01*
X143500000Y-110439123D01*
X142500000Y-110439123D01*
X142382946Y-110462407D01*
X142283712Y-110528712D01*
X142217407Y-110627946D01*
X142194123Y-110745000D01*
X140585329Y-110745000D01*
X143180329Y-108150000D01*
X150345000Y-108150000D01*
X150345000Y-108579565D01*
X150405896Y-108726582D01*
X150518418Y-108839104D01*
X150665435Y-108900000D01*
X151970000Y-108900000D01*
X152070000Y-108800000D01*
X152070000Y-108050000D01*
X152170000Y-108050000D01*
X152170000Y-108800000D01*
X152270000Y-108900000D01*
X153574565Y-108900000D01*
X153721582Y-108839104D01*
X153834104Y-108726582D01*
X153895000Y-108579565D01*
X153895000Y-108150000D01*
X156105000Y-108150000D01*
X156105000Y-108579565D01*
X156165896Y-108726582D01*
X156278418Y-108839104D01*
X156425435Y-108900000D01*
X157730000Y-108900000D01*
X157830000Y-108800000D01*
X157830000Y-108050000D01*
X157930000Y-108050000D01*
X157930000Y-108800000D01*
X158030000Y-108900000D01*
X159334565Y-108900000D01*
X159481582Y-108839104D01*
X159594104Y-108726582D01*
X159655000Y-108579565D01*
X159655000Y-108150000D01*
X159555000Y-108050000D01*
X157930000Y-108050000D01*
X157830000Y-108050000D01*
X156205000Y-108050000D01*
X156105000Y-108150000D01*
X153895000Y-108150000D01*
X153795000Y-108050000D01*
X152170000Y-108050000D01*
X152070000Y-108050000D01*
X150445000Y-108050000D01*
X150345000Y-108150000D01*
X143180329Y-108150000D01*
X143909894Y-107420435D01*
X150345000Y-107420435D01*
X150345000Y-107850000D01*
X150445000Y-107950000D01*
X152070000Y-107950000D01*
X152070000Y-107200000D01*
X152170000Y-107200000D01*
X152170000Y-107950000D01*
X153795000Y-107950000D01*
X153895000Y-107850000D01*
X153895000Y-107420435D01*
X156105000Y-107420435D01*
X156105000Y-107850000D01*
X156205000Y-107950000D01*
X157830000Y-107950000D01*
X157830000Y-107200000D01*
X157930000Y-107200000D01*
X157930000Y-107950000D01*
X159555000Y-107950000D01*
X159655000Y-107850000D01*
X159655000Y-107420435D01*
X159594104Y-107273418D01*
X159481582Y-107160896D01*
X159334565Y-107100000D01*
X158030000Y-107100000D01*
X157930000Y-107200000D01*
X157830000Y-107200000D01*
X157730000Y-107100000D01*
X156425435Y-107100000D01*
X156278418Y-107160896D01*
X156165896Y-107273418D01*
X156105000Y-107420435D01*
X153895000Y-107420435D01*
X153834104Y-107273418D01*
X153721582Y-107160896D01*
X153574565Y-107100000D01*
X152270000Y-107100000D01*
X152170000Y-107200000D01*
X152070000Y-107200000D01*
X151970000Y-107100000D01*
X150665435Y-107100000D01*
X150518418Y-107160896D01*
X150405896Y-107273418D01*
X150345000Y-107420435D01*
X143909894Y-107420435D01*
X146480143Y-104850187D01*
X152324896Y-104850185D01*
X152361827Y-104857531D01*
X152508145Y-104828427D01*
X152600877Y-104766465D01*
X152600879Y-104766463D01*
X152632186Y-104745544D01*
X152653105Y-104714237D01*
X158422342Y-98945000D01*
X162194123Y-98945000D01*
X162194123Y-101695000D01*
X162217407Y-101812054D01*
X162283712Y-101911288D01*
X162382946Y-101977593D01*
X162500000Y-102000877D01*
X163500000Y-102000877D01*
X163617054Y-101977593D01*
X163716288Y-101911288D01*
X163782593Y-101812054D01*
X163805877Y-101695000D01*
X163805877Y-100470000D01*
X166100000Y-100470000D01*
X166100000Y-101774565D01*
X166160896Y-101921582D01*
X166273418Y-102034104D01*
X166420435Y-102095000D01*
X166850000Y-102095000D01*
X166950000Y-101995000D01*
X166950000Y-100370000D01*
X167050000Y-100370000D01*
X167050000Y-101995000D01*
X167150000Y-102095000D01*
X167579565Y-102095000D01*
X167726582Y-102034104D01*
X167839104Y-101921582D01*
X167900000Y-101774565D01*
X167900000Y-100470000D01*
X167800000Y-100370000D01*
X167050000Y-100370000D01*
X166950000Y-100370000D01*
X166200000Y-100370000D01*
X166100000Y-100470000D01*
X163805877Y-100470000D01*
X163805877Y-98945000D01*
X163790051Y-98865435D01*
X166100000Y-98865435D01*
X166100000Y-100170000D01*
X166200000Y-100270000D01*
X166950000Y-100270000D01*
X166950000Y-98645000D01*
X167050000Y-98645000D01*
X167050000Y-100270000D01*
X167800000Y-100270000D01*
X167900000Y-100170000D01*
X167900000Y-98865435D01*
X167839104Y-98718418D01*
X167726582Y-98605896D01*
X167579565Y-98545000D01*
X167150000Y-98545000D01*
X167050000Y-98645000D01*
X166950000Y-98645000D01*
X166850000Y-98545000D01*
X166420435Y-98545000D01*
X166273418Y-98605896D01*
X166160896Y-98718418D01*
X166100000Y-98865435D01*
X163790051Y-98865435D01*
X163782593Y-98827946D01*
X163716288Y-98728712D01*
X163617054Y-98662407D01*
X163500000Y-98639123D01*
X162500000Y-98639123D01*
X162382946Y-98662407D01*
X162283712Y-98728712D01*
X162217407Y-98827946D01*
X162194123Y-98945000D01*
X158422342Y-98945000D01*
X158592343Y-98775000D01*
X159896751Y-98775000D01*
X159982946Y-98832593D01*
X160100000Y-98855877D01*
X160900000Y-98855877D01*
X161017054Y-98832593D01*
X161116288Y-98766288D01*
X161182593Y-98667054D01*
X161205877Y-98550000D01*
X161205877Y-98250000D01*
X161182593Y-98132946D01*
X161116288Y-98033712D01*
X161065834Y-98000000D01*
X161116288Y-97966288D01*
X161182593Y-97867054D01*
X161205877Y-97750000D01*
X161205877Y-97450000D01*
X161182593Y-97332946D01*
X161116288Y-97233712D01*
X161065834Y-97200000D01*
X161116288Y-97166288D01*
X161182593Y-97067054D01*
X161205877Y-96950000D01*
X161205877Y-96650000D01*
X161182593Y-96532946D01*
X161116288Y-96433712D01*
X161065834Y-96400000D01*
X161116288Y-96366288D01*
X161182593Y-96267054D01*
X161205877Y-96150000D01*
X161205877Y-95850000D01*
X161182593Y-95732946D01*
X161116288Y-95633712D01*
X161065834Y-95600000D01*
X161116288Y-95566288D01*
X161182593Y-95467054D01*
X161205877Y-95350000D01*
X161205877Y-95050000D01*
X161182593Y-94932946D01*
X161116288Y-94833712D01*
X161065834Y-94800000D01*
X161116288Y-94766288D01*
X161182593Y-94667054D01*
X161205877Y-94550000D01*
X161205877Y-94250000D01*
X161182593Y-94132946D01*
X161116288Y-94033712D01*
X161065834Y-94000000D01*
X161116288Y-93966288D01*
X161182593Y-93867054D01*
X161205877Y-93750000D01*
X161205877Y-93450000D01*
X161182593Y-93332946D01*
X161116288Y-93233712D01*
X161065834Y-93200000D01*
X161116288Y-93166288D01*
X161182593Y-93067054D01*
X161205877Y-92950000D01*
X161205877Y-92650000D01*
X161182593Y-92532946D01*
X161116288Y-92433712D01*
X161065834Y-92400000D01*
X161116288Y-92366288D01*
X161182593Y-92267054D01*
X161205877Y-92150000D01*
X161205877Y-91850000D01*
X161182593Y-91732946D01*
X161116288Y-91633712D01*
X161065834Y-91600000D01*
X161116288Y-91566288D01*
X161182593Y-91467054D01*
X161205877Y-91350000D01*
X161205877Y-91050000D01*
X161182593Y-90932946D01*
X161116288Y-90833712D01*
X161065834Y-90800000D01*
X161484316Y-90800000D01*
X161689299Y-91004984D01*
X161711616Y-91038384D01*
X161843928Y-91126791D01*
X162000000Y-91157836D01*
X162039394Y-91150000D01*
X162719123Y-91150000D01*
X162719123Y-91162500D01*
X162760485Y-91370441D01*
X162878274Y-91546726D01*
X163054559Y-91664515D01*
X163262500Y-91705877D01*
X163737500Y-91705877D01*
X163945441Y-91664515D01*
X164121726Y-91546726D01*
X164239515Y-91370441D01*
X164280877Y-91162500D01*
X164280877Y-90730519D01*
X164348609Y-90662787D01*
X164348611Y-90662784D01*
X164561865Y-90449530D01*
X164599442Y-90424422D01*
X164698901Y-90275571D01*
X164725010Y-90144311D01*
X164725010Y-90144307D01*
X164733825Y-90099991D01*
X164725010Y-90055674D01*
X164725010Y-84329324D01*
X164733825Y-84285007D01*
X164725010Y-84240691D01*
X164725010Y-84240687D01*
X164698901Y-84109427D01*
X164599442Y-83960576D01*
X164561868Y-83935470D01*
X161489541Y-80863144D01*
X161464433Y-80825567D01*
X161315582Y-80726108D01*
X161184322Y-80699999D01*
X161184321Y-80699999D01*
X161140001Y-80691183D01*
X161095681Y-80699999D01*
X159894320Y-80699999D01*
X159850000Y-80691183D01*
X159805680Y-80699999D01*
X159674420Y-80726108D01*
X159525569Y-80825567D01*
X159500463Y-80863141D01*
X151213605Y-89150000D01*
X150127171Y-89150000D01*
X150182593Y-89067054D01*
X150205877Y-88950000D01*
X150205877Y-88650000D01*
X150182593Y-88532946D01*
X150116288Y-88433712D01*
X150065834Y-88400000D01*
X150116288Y-88366288D01*
X150182593Y-88267054D01*
X150205877Y-88150000D01*
X150205877Y-87850000D01*
X150182593Y-87732946D01*
X150116288Y-87633712D01*
X150065834Y-87600000D01*
X150116288Y-87566288D01*
X150182593Y-87467054D01*
X150205877Y-87350000D01*
X150205877Y-87050000D01*
X150182593Y-86932946D01*
X150116288Y-86833712D01*
X150065834Y-86800000D01*
X150116288Y-86766288D01*
X150182593Y-86667054D01*
X150205877Y-86550000D01*
X150205877Y-86250000D01*
X150182593Y-86132946D01*
X150116288Y-86033712D01*
X150065834Y-86000000D01*
X150116288Y-85966288D01*
X150182593Y-85867054D01*
X150205877Y-85750000D01*
X150205877Y-85450000D01*
X150182593Y-85332946D01*
X150116288Y-85233712D01*
X150065834Y-85200000D01*
X150116288Y-85166288D01*
X150182593Y-85067054D01*
X150205877Y-84950000D01*
X150205877Y-84650000D01*
X150182593Y-84532946D01*
X150116288Y-84433712D01*
X150065834Y-84400000D01*
X150116288Y-84366288D01*
X150182593Y-84267054D01*
X150205877Y-84150000D01*
X150205877Y-83850000D01*
X150182593Y-83732946D01*
X150116288Y-83633712D01*
X150065834Y-83600000D01*
X150116288Y-83566288D01*
X150182593Y-83467054D01*
X150205877Y-83350000D01*
X150205877Y-83050000D01*
X150182593Y-82932946D01*
X150116288Y-82833712D01*
X150065834Y-82800000D01*
X150116288Y-82766288D01*
X150182593Y-82667054D01*
X150205877Y-82550000D01*
X150205877Y-82250000D01*
X150182593Y-82132946D01*
X150116288Y-82033712D01*
X150065834Y-82000000D01*
X150116288Y-81966288D01*
X150182593Y-81867054D01*
X150205877Y-81750000D01*
X150205877Y-81450000D01*
X150182593Y-81332946D01*
X150116288Y-81233712D01*
X150017054Y-81167407D01*
X149900000Y-81144123D01*
X149100000Y-81144123D01*
X148982946Y-81167407D01*
X148896751Y-81225000D01*
X143755330Y-81225000D01*
X139252504Y-76722173D01*
X139252502Y-76722170D01*
X138691287Y-76160950D01*
X138670367Y-76129641D01*
X138546325Y-76046758D01*
X138436939Y-76025000D01*
X138436934Y-76025000D01*
X138400008Y-76017655D01*
X138363082Y-76025000D01*
X137635648Y-76025000D01*
X137635155Y-76024902D01*
X137635150Y-76024902D01*
X137598224Y-76017557D01*
X137561298Y-76024902D01*
X132938702Y-76024902D01*
X132901776Y-76017557D01*
X132864850Y-76024902D01*
X132864845Y-76024902D01*
X132864352Y-76025000D01*
X127386925Y-76025000D01*
X127349999Y-76017655D01*
X127313073Y-76025000D01*
X127313069Y-76025000D01*
X127203683Y-76046758D01*
X127203682Y-76046759D01*
X127203681Y-76046759D01*
X127110948Y-76108722D01*
X127079641Y-76129641D01*
X127058722Y-76160948D01*
X123465937Y-79753734D01*
X123434630Y-79774653D01*
X123413711Y-79805960D01*
X123413709Y-79805962D01*
X123351747Y-79898694D01*
X123322643Y-80045012D01*
X120375000Y-80045012D01*
X120375000Y-80016696D01*
X120449562Y-79181248D01*
X120666468Y-78388372D01*
X121020351Y-77646442D01*
X121500027Y-76978902D01*
X122090329Y-76406860D01*
X122772609Y-75948387D01*
X123525289Y-75617984D01*
X124327470Y-75425397D01*
X125013751Y-75375000D01*
X164983304Y-75375000D01*
X165818752Y-75449562D01*
X165818752Y-75449562D01*
G37*
X165818752Y-75449562D02*
X166611628Y-75666468D01*
X167353558Y-76020351D01*
X168021098Y-76500027D01*
X168593140Y-77090329D01*
X169051613Y-77772609D01*
X169382016Y-78525289D01*
X169574603Y-79327470D01*
X169625000Y-80013751D01*
X169625001Y-119983293D01*
X169550438Y-120818752D01*
X169333533Y-121611622D01*
X168979649Y-122353558D01*
X168499973Y-123021098D01*
X167909671Y-123593140D01*
X167227391Y-124051613D01*
X166474714Y-124382015D01*
X165672530Y-124574603D01*
X164986249Y-124625000D01*
X125016696Y-124625000D01*
X124181248Y-124550438D01*
X123388378Y-124333533D01*
X122646442Y-123979649D01*
X121978902Y-123499973D01*
X121406860Y-122909671D01*
X120948387Y-122227391D01*
X120617985Y-121474714D01*
X120425397Y-120672530D01*
X120375000Y-119986249D01*
X120375000Y-118100000D01*
X123907471Y-118100000D01*
X123996724Y-118548707D01*
X124250897Y-118929103D01*
X124631293Y-119183276D01*
X124966739Y-119250000D01*
X125193261Y-119250000D01*
X125528707Y-119183276D01*
X125591194Y-119141523D01*
X129888746Y-123439077D01*
X129909663Y-123470381D01*
X129940967Y-123491298D01*
X129940970Y-123491301D01*
X130033703Y-123553263D01*
X130033704Y-123553263D01*
X130033705Y-123553264D01*
X130143091Y-123575022D01*
X130143095Y-123575022D01*
X130180021Y-123582367D01*
X130216947Y-123575022D01*
X159347333Y-123575022D01*
X159384259Y-123582367D01*
X159421185Y-123575022D01*
X159421190Y-123575022D01*
X159530576Y-123553264D01*
X159654618Y-123470381D01*
X159675539Y-123439071D01*
X163239053Y-119875558D01*
X163270359Y-119854640D01*
X163306870Y-119799999D01*
X163353241Y-119730600D01*
X163353241Y-119730599D01*
X163353242Y-119730598D01*
X163375000Y-119621212D01*
X163375000Y-119621208D01*
X163382345Y-119584281D01*
X163377690Y-119560877D01*
X163500000Y-119560877D01*
X163617054Y-119537593D01*
X163716288Y-119471288D01*
X163782593Y-119372054D01*
X163805877Y-119255000D01*
X163805877Y-118030000D01*
X166100000Y-118030000D01*
X166100000Y-119334565D01*
X166160896Y-119481582D01*
X166273418Y-119594104D01*
X166420435Y-119655000D01*
X166850000Y-119655000D01*
X166950000Y-119555000D01*
X166950000Y-117930000D01*
X167050000Y-117930000D01*
X167050000Y-119555000D01*
X167150000Y-119655000D01*
X167579565Y-119655000D01*
X167726582Y-119594104D01*
X167839104Y-119481582D01*
X167900000Y-119334565D01*
X167900000Y-118030000D01*
X167800000Y-117930000D01*
X167050000Y-117930000D01*
X166950000Y-117930000D01*
X166200000Y-117930000D01*
X166100000Y-118030000D01*
X163805877Y-118030000D01*
X163805877Y-116505000D01*
X163790051Y-116425435D01*
X166100000Y-116425435D01*
X166100000Y-117730000D01*
X166200000Y-117830000D01*
X166950000Y-117830000D01*
X166950000Y-116205000D01*
X167050000Y-116205000D01*
X167050000Y-117830000D01*
X167800000Y-117830000D01*
X167900000Y-117730000D01*
X167900000Y-116425435D01*
X167839104Y-116278418D01*
X167726582Y-116165896D01*
X167579565Y-116105000D01*
X167150000Y-116105000D01*
X167050000Y-116205000D01*
X166950000Y-116205000D01*
X166850000Y-116105000D01*
X166420435Y-116105000D01*
X166273418Y-116165896D01*
X166160896Y-116278418D01*
X166100000Y-116425435D01*
X163790051Y-116425435D01*
X163782593Y-116387946D01*
X163716288Y-116288712D01*
X163617054Y-116222407D01*
X163500000Y-116199123D01*
X162500000Y-116199123D01*
X162382946Y-116222407D01*
X162283712Y-116288712D01*
X162217407Y-116387946D01*
X162194123Y-116505000D01*
X162194123Y-119255000D01*
X162217407Y-119372054D01*
X162283712Y-119471288D01*
X162382946Y-119537593D01*
X162494223Y-119559728D01*
X161674989Y-120378962D01*
X161674989Y-110745000D01*
X162194123Y-110745000D01*
X162194123Y-113495000D01*
X162217407Y-113612054D01*
X162283712Y-113711288D01*
X162382946Y-113777593D01*
X162500000Y-113800877D01*
X163500000Y-113800877D01*
X163617054Y-113777593D01*
X163716288Y-113711288D01*
X163782593Y-113612054D01*
X163805877Y-113495000D01*
X163805877Y-112270000D01*
X166100000Y-112270000D01*
X166100000Y-113574565D01*
X166160896Y-113721582D01*
X166273418Y-113834104D01*
X166420435Y-113895000D01*
X166850000Y-113895000D01*
X166950000Y-113795000D01*
X166950000Y-112170000D01*
X167050000Y-112170000D01*
X167050000Y-113795000D01*
X167150000Y-113895000D01*
X167579565Y-113895000D01*
X167726582Y-113834104D01*
X167839104Y-113721582D01*
X167900000Y-113574565D01*
X167900000Y-112270000D01*
X167800000Y-112170000D01*
X167050000Y-112170000D01*
X166950000Y-112170000D01*
X166200000Y-112170000D01*
X166100000Y-112270000D01*
X163805877Y-112270000D01*
X163805877Y-110745000D01*
X163790051Y-110665435D01*
X166100000Y-110665435D01*
X166100000Y-111970000D01*
X166200000Y-112070000D01*
X166950000Y-112070000D01*
X166950000Y-110445000D01*
X167050000Y-110445000D01*
X167050000Y-112070000D01*
X167800000Y-112070000D01*
X167900000Y-111970000D01*
X167900000Y-110665435D01*
X167839104Y-110518418D01*
X167726582Y-110405896D01*
X167579565Y-110345000D01*
X167150000Y-110345000D01*
X167050000Y-110445000D01*
X166950000Y-110445000D01*
X166850000Y-110345000D01*
X166420435Y-110345000D01*
X166273418Y-110405896D01*
X166160896Y-110518418D01*
X166100000Y-110665435D01*
X163790051Y-110665435D01*
X163782593Y-110627946D01*
X163716288Y-110528712D01*
X163617054Y-110462407D01*
X163500000Y-110439123D01*
X162500000Y-110439123D01*
X162382946Y-110462407D01*
X162283712Y-110528712D01*
X162217407Y-110627946D01*
X162194123Y-110745000D01*
X161674989Y-110745000D01*
X161674989Y-109460340D01*
X163239053Y-107896277D01*
X163270359Y-107875359D01*
X163346854Y-107760877D01*
X163500000Y-107760877D01*
X163617054Y-107737593D01*
X163716288Y-107671288D01*
X163782593Y-107572054D01*
X163805877Y-107455000D01*
X163805877Y-106230000D01*
X166100000Y-106230000D01*
X166100000Y-107534565D01*
X166160896Y-107681582D01*
X166273418Y-107794104D01*
X166420435Y-107855000D01*
X166850000Y-107855000D01*
X166950000Y-107755000D01*
X166950000Y-106130000D01*
X167050000Y-106130000D01*
X167050000Y-107755000D01*
X167150000Y-107855000D01*
X167579565Y-107855000D01*
X167726582Y-107794104D01*
X167839104Y-107681582D01*
X167900000Y-107534565D01*
X167900000Y-106230000D01*
X167800000Y-106130000D01*
X167050000Y-106130000D01*
X166950000Y-106130000D01*
X166200000Y-106130000D01*
X166100000Y-106230000D01*
X163805877Y-106230000D01*
X163805877Y-104705000D01*
X163790051Y-104625435D01*
X166100000Y-104625435D01*
X166100000Y-105930000D01*
X166200000Y-106030000D01*
X166950000Y-106030000D01*
X166950000Y-104405000D01*
X167050000Y-104405000D01*
X167050000Y-106030000D01*
X167800000Y-106030000D01*
X167900000Y-105930000D01*
X167900000Y-104625435D01*
X167839104Y-104478418D01*
X167726582Y-104365896D01*
X167579565Y-104305000D01*
X167150000Y-104305000D01*
X167050000Y-104405000D01*
X166950000Y-104405000D01*
X166850000Y-104305000D01*
X166420435Y-104305000D01*
X166273418Y-104365896D01*
X166160896Y-104478418D01*
X166100000Y-104625435D01*
X163790051Y-104625435D01*
X163782593Y-104587946D01*
X163716288Y-104488712D01*
X163617054Y-104422407D01*
X163500000Y-104399123D01*
X162500000Y-104399123D01*
X162382946Y-104422407D01*
X162283712Y-104488712D01*
X162217407Y-104587946D01*
X162194123Y-104705000D01*
X162194123Y-107455000D01*
X162217407Y-107572054D01*
X162283712Y-107671288D01*
X162355450Y-107719221D01*
X161060938Y-109013733D01*
X161029631Y-109034652D01*
X161008712Y-109065959D01*
X161008710Y-109065961D01*
X160946748Y-109158693D01*
X160917644Y-109305011D01*
X160924990Y-109341942D01*
X160924989Y-120704684D01*
X159560877Y-122068797D01*
X159560877Y-121500000D01*
X159537593Y-121382946D01*
X159471288Y-121283712D01*
X159372054Y-121217407D01*
X159255000Y-121194123D01*
X156505000Y-121194123D01*
X156387946Y-121217407D01*
X156288712Y-121283712D01*
X156222407Y-121382946D01*
X156199123Y-121500000D01*
X156199123Y-122500000D01*
X156204098Y-122525011D01*
X153795902Y-122525011D01*
X153800877Y-122500000D01*
X153800877Y-121500000D01*
X153777593Y-121382946D01*
X153711288Y-121283712D01*
X153612054Y-121217407D01*
X153495000Y-121194123D01*
X150745000Y-121194123D01*
X150627946Y-121217407D01*
X150528712Y-121283712D01*
X150462407Y-121382946D01*
X150439123Y-121500000D01*
X150439123Y-121625000D01*
X149636925Y-121625000D01*
X149599999Y-121617655D01*
X149563073Y-121625000D01*
X149563069Y-121625000D01*
X149453683Y-121646758D01*
X149453682Y-121646759D01*
X149453681Y-121646759D01*
X149360949Y-121708721D01*
X149360948Y-121708722D01*
X149329641Y-121729641D01*
X149308722Y-121760948D01*
X148844671Y-122225000D01*
X138655330Y-122225000D01*
X135041523Y-118611194D01*
X135083276Y-118548707D01*
X135172529Y-118100000D01*
X135083276Y-117651293D01*
X134829103Y-117270897D01*
X134448707Y-117016724D01*
X134113261Y-116950000D01*
X133886739Y-116950000D01*
X133551293Y-117016724D01*
X133170897Y-117270897D01*
X132916724Y-117651293D01*
X132827471Y-118100000D01*
X132916724Y-118548707D01*
X133170897Y-118929103D01*
X133551293Y-119183276D01*
X133886739Y-119250000D01*
X134113261Y-119250000D01*
X134448707Y-119183276D01*
X134511194Y-119141523D01*
X137894681Y-122525011D01*
X132575341Y-122525011D01*
X128661523Y-118611194D01*
X128703276Y-118548707D01*
X128792529Y-118100000D01*
X128703276Y-117651293D01*
X128449103Y-117270897D01*
X128068707Y-117016724D01*
X127733261Y-116950000D01*
X127506739Y-116950000D01*
X127171293Y-117016724D01*
X126790897Y-117270897D01*
X126536724Y-117651293D01*
X126447471Y-118100000D01*
X126536724Y-118548707D01*
X126790897Y-118929103D01*
X127171293Y-119183276D01*
X127506739Y-119250000D01*
X127733261Y-119250000D01*
X128068707Y-119183276D01*
X128131194Y-119141523D01*
X131814692Y-122825022D01*
X130335353Y-122825022D01*
X126121523Y-118611194D01*
X126163276Y-118548707D01*
X126252529Y-118100000D01*
X126163276Y-117651293D01*
X125909103Y-117270897D01*
X125528707Y-117016724D01*
X125193261Y-116950000D01*
X124966739Y-116950000D01*
X124631293Y-117016724D01*
X124250897Y-117270897D01*
X123996724Y-117651293D01*
X123907471Y-118100000D01*
X120375000Y-118100000D01*
X120375000Y-110724771D01*
X123854199Y-110724771D01*
X124040145Y-111173695D01*
X124384765Y-111518826D01*
X124835228Y-111705805D01*
X125030000Y-111629004D01*
X125030000Y-110530000D01*
X125130000Y-110530000D01*
X125130000Y-111629004D01*
X125324772Y-111705805D01*
X125775235Y-111518826D01*
X126119855Y-111173695D01*
X126305801Y-110724771D01*
X126228913Y-110530000D01*
X125130000Y-110530000D01*
X125030000Y-110530000D01*
X123931087Y-110530000D01*
X123854199Y-110724771D01*
X120375000Y-110724771D01*
X120375000Y-110235229D01*
X123854199Y-110235229D01*
X123931087Y-110430000D01*
X125030000Y-110430000D01*
X125030000Y-109330996D01*
X125130000Y-109330996D01*
X125130000Y-110430000D01*
X126228913Y-110430000D01*
X126305801Y-110235229D01*
X126394199Y-110235229D01*
X126471087Y-110430000D01*
X127570000Y-110430000D01*
X127570000Y-109330996D01*
X127670000Y-109330996D01*
X127670000Y-110430000D01*
X128768913Y-110430000D01*
X128845801Y-110235229D01*
X128659855Y-109786305D01*
X128315235Y-109441174D01*
X127864772Y-109254195D01*
X127670000Y-109330996D01*
X127570000Y-109330996D01*
X127375228Y-109254195D01*
X126924765Y-109441174D01*
X126580145Y-109786305D01*
X126394199Y-110235229D01*
X126305801Y-110235229D01*
X126119855Y-109786305D01*
X125775235Y-109441174D01*
X125324772Y-109254195D01*
X125130000Y-109330996D01*
X125030000Y-109330996D01*
X124835228Y-109254195D01*
X124384765Y-109441174D01*
X124040145Y-109786305D01*
X123854199Y-110235229D01*
X120375000Y-110235229D01*
X120375000Y-100564771D01*
X123854199Y-100564771D01*
X124040145Y-101013695D01*
X124384765Y-101358826D01*
X124835228Y-101545805D01*
X125030000Y-101469004D01*
X125030000Y-100370000D01*
X125130000Y-100370000D01*
X125130000Y-101469004D01*
X125324772Y-101545805D01*
X125775235Y-101358826D01*
X126119855Y-101013695D01*
X126305801Y-100564771D01*
X126228913Y-100370000D01*
X125130000Y-100370000D01*
X125030000Y-100370000D01*
X123931087Y-100370000D01*
X123854199Y-100564771D01*
X120375000Y-100564771D01*
X120375000Y-100075229D01*
X123854199Y-100075229D01*
X123931087Y-100270000D01*
X125030000Y-100270000D01*
X125030000Y-99170996D01*
X125130000Y-99170996D01*
X125130000Y-100270000D01*
X126228913Y-100270000D01*
X126305801Y-100075229D01*
X126394199Y-100075229D01*
X126471087Y-100270000D01*
X127570000Y-100270000D01*
X127570000Y-99170996D01*
X127670000Y-99170996D01*
X127670000Y-100270000D01*
X128768913Y-100270000D01*
X128845801Y-100075229D01*
X128659855Y-99626305D01*
X128315235Y-99281174D01*
X127864772Y-99094195D01*
X127670000Y-99170996D01*
X127570000Y-99170996D01*
X127375228Y-99094195D01*
X126924765Y-99281174D01*
X126580145Y-99626305D01*
X126394199Y-100075229D01*
X126305801Y-100075229D01*
X126119855Y-99626305D01*
X125775235Y-99281174D01*
X125324772Y-99094195D01*
X125130000Y-99170996D01*
X125030000Y-99170996D01*
X124835228Y-99094195D01*
X124384765Y-99281174D01*
X124040145Y-99626305D01*
X123854199Y-100075229D01*
X120375000Y-100075229D01*
X120375000Y-80045012D01*
X123322643Y-80045012D01*
X123329989Y-80081943D01*
X123329988Y-91288062D01*
X123322643Y-91324988D01*
X123329988Y-91361914D01*
X123329988Y-91361918D01*
X123351746Y-91471304D01*
X123351747Y-91471305D01*
X123351747Y-91471306D01*
X123356683Y-91478693D01*
X123434629Y-91595347D01*
X123465939Y-91616268D01*
X124038477Y-92188806D01*
X123996724Y-92251293D01*
X123907471Y-92700000D01*
X123996724Y-93148707D01*
X124250897Y-93529103D01*
X124631293Y-93783276D01*
X124966739Y-93850000D01*
X125193261Y-93850000D01*
X125528707Y-93783276D01*
X125869988Y-93555239D01*
X125869988Y-93919682D01*
X125591194Y-94198476D01*
X125528707Y-94156724D01*
X125193261Y-94090000D01*
X124966739Y-94090000D01*
X124631293Y-94156724D01*
X124250897Y-94410897D01*
X123996724Y-94791293D01*
X123907471Y-95240000D01*
X123996724Y-95688707D01*
X124250897Y-96069103D01*
X124631293Y-96323276D01*
X124966739Y-96390000D01*
X125193261Y-96390000D01*
X125528707Y-96323276D01*
X125909103Y-96069103D01*
X126163276Y-95688707D01*
X126252529Y-95240000D01*
X126163276Y-94791293D01*
X126121524Y-94728806D01*
X126350000Y-94500329D01*
X126578477Y-94728806D01*
X126536724Y-94791293D01*
X126447471Y-95240000D01*
X126536724Y-95688707D01*
X126704634Y-95940001D01*
X126581924Y-95940001D01*
X126544998Y-95932656D01*
X126508072Y-95940001D01*
X126508068Y-95940001D01*
X126398682Y-95961759D01*
X126398681Y-95961760D01*
X126398680Y-95961760D01*
X126305947Y-96023723D01*
X126274640Y-96044642D01*
X126253721Y-96075949D01*
X125591194Y-96738477D01*
X125528707Y-96696724D01*
X125193261Y-96630000D01*
X124966739Y-96630000D01*
X124631293Y-96696724D01*
X124250897Y-96950897D01*
X123996724Y-97331293D01*
X123907471Y-97780000D01*
X123996724Y-98228707D01*
X124250897Y-98609103D01*
X124631293Y-98863276D01*
X124966739Y-98930000D01*
X125193261Y-98930000D01*
X125528707Y-98863276D01*
X125909103Y-98609103D01*
X126163276Y-98228707D01*
X126252529Y-97780000D01*
X126163276Y-97331293D01*
X126121523Y-97268806D01*
X126700329Y-96690001D01*
X127205092Y-96690001D01*
X127171293Y-96696724D01*
X126790897Y-96950897D01*
X126536724Y-97331293D01*
X126447471Y-97780000D01*
X126536724Y-98228707D01*
X126790897Y-98609103D01*
X127171293Y-98863276D01*
X127506739Y-98930000D01*
X127733261Y-98930000D01*
X128068707Y-98863276D01*
X128449103Y-98609103D01*
X128703276Y-98228707D01*
X128717937Y-98155000D01*
X128785155Y-98155000D01*
X128822081Y-98162345D01*
X128859007Y-98155000D01*
X128859012Y-98155000D01*
X128968398Y-98133242D01*
X129092440Y-98050359D01*
X129113361Y-98019049D01*
X132592412Y-94539999D01*
X133084634Y-94539999D01*
X132916724Y-94791293D01*
X132827471Y-95240000D01*
X132916724Y-95688707D01*
X133170897Y-96069103D01*
X133551293Y-96323276D01*
X133886739Y-96390000D01*
X134113261Y-96390000D01*
X134448707Y-96323276D01*
X134511194Y-96281524D01*
X134739670Y-96510000D01*
X134511194Y-96738476D01*
X134448707Y-96696724D01*
X134113261Y-96630000D01*
X133886739Y-96630000D01*
X133551293Y-96696724D01*
X133170897Y-96950897D01*
X132916724Y-97331293D01*
X132827471Y-97780000D01*
X132916724Y-98228707D01*
X133114695Y-98524991D01*
X132336934Y-98524991D01*
X132300008Y-98517646D01*
X132263082Y-98524991D01*
X132263078Y-98524991D01*
X132153692Y-98546749D01*
X132153691Y-98546750D01*
X132153690Y-98546750D01*
X132060957Y-98608713D01*
X132029650Y-98629632D01*
X132008731Y-98660939D01*
X129444671Y-101225000D01*
X128448863Y-101225000D01*
X128659855Y-101013695D01*
X128845801Y-100564771D01*
X128768913Y-100370000D01*
X127670000Y-100370000D01*
X127670000Y-100390000D01*
X127570000Y-100390000D01*
X127570000Y-100370000D01*
X126471087Y-100370000D01*
X126394199Y-100564771D01*
X126580145Y-101013695D01*
X126791137Y-101225000D01*
X126376926Y-101225000D01*
X126339999Y-101217655D01*
X126303073Y-101225000D01*
X126303069Y-101225000D01*
X126193683Y-101246758D01*
X126193682Y-101246759D01*
X126193681Y-101246759D01*
X126100949Y-101308721D01*
X126100948Y-101308722D01*
X126069641Y-101329641D01*
X126048722Y-101360948D01*
X125591194Y-101818476D01*
X125528707Y-101776724D01*
X125193261Y-101710000D01*
X124966739Y-101710000D01*
X124631293Y-101776724D01*
X124250897Y-102030897D01*
X123996724Y-102411293D01*
X123907471Y-102860000D01*
X123996724Y-103308707D01*
X124250897Y-103689103D01*
X124631293Y-103943276D01*
X124966739Y-104010000D01*
X125193261Y-104010000D01*
X125528707Y-103943276D01*
X125909103Y-103689103D01*
X126163276Y-103308707D01*
X126252529Y-102860000D01*
X126163276Y-102411293D01*
X126121524Y-102348806D01*
X126495330Y-101975000D01*
X126874553Y-101975000D01*
X126790897Y-102030897D01*
X126536724Y-102411293D01*
X126447471Y-102860000D01*
X126536724Y-103308707D01*
X126790897Y-103689103D01*
X126904596Y-103765074D01*
X125985075Y-104684596D01*
X125909103Y-104570897D01*
X125528707Y-104316724D01*
X125193261Y-104250000D01*
X124966739Y-104250000D01*
X124631293Y-104316724D01*
X124250897Y-104570897D01*
X123996724Y-104951293D01*
X123907471Y-105400000D01*
X123996724Y-105848707D01*
X124250897Y-106229103D01*
X124631293Y-106483276D01*
X124966739Y-106550000D01*
X125193261Y-106550000D01*
X125528707Y-106483276D01*
X125909103Y-106229103D01*
X126163276Y-105848707D01*
X126233211Y-105497118D01*
X126476557Y-105253772D01*
X126447471Y-105400000D01*
X126536724Y-105848707D01*
X126764761Y-106189988D01*
X126491938Y-106189988D01*
X126455012Y-106182643D01*
X126418086Y-106189988D01*
X126418081Y-106189988D01*
X126308695Y-106211746D01*
X126308693Y-106211747D01*
X126308694Y-106211747D01*
X126215961Y-106273709D01*
X126215960Y-106273710D01*
X126184653Y-106294629D01*
X126163734Y-106325936D01*
X125591194Y-106898477D01*
X125528707Y-106856724D01*
X125193261Y-106790000D01*
X124966739Y-106790000D01*
X124631293Y-106856724D01*
X124250897Y-107110897D01*
X123996724Y-107491293D01*
X123907471Y-107940000D01*
X123996724Y-108388707D01*
X124250897Y-108769103D01*
X124631293Y-109023276D01*
X124966739Y-109090000D01*
X125193261Y-109090000D01*
X125528707Y-109023276D01*
X125909103Y-108769103D01*
X126163276Y-108388707D01*
X126252529Y-107940000D01*
X126163276Y-107491293D01*
X126121523Y-107428806D01*
X126610342Y-106939988D01*
X127046680Y-106939988D01*
X126790897Y-107110897D01*
X126536724Y-107491293D01*
X126447471Y-107940000D01*
X126536724Y-108388707D01*
X126790897Y-108769103D01*
X127171293Y-109023276D01*
X127506739Y-109090000D01*
X127733261Y-109090000D01*
X128068707Y-109023276D01*
X128449103Y-108769103D01*
X128703276Y-108388707D01*
X128792529Y-107940000D01*
X128703276Y-107491293D01*
X128661524Y-107428806D01*
X128850331Y-107239999D01*
X133084634Y-107239999D01*
X132916724Y-107491293D01*
X132827471Y-107940000D01*
X132916724Y-108388707D01*
X133170897Y-108769103D01*
X133551293Y-109023276D01*
X133585092Y-109029999D01*
X130831926Y-109029999D01*
X130795000Y-109022654D01*
X130758074Y-109029999D01*
X130758070Y-109029999D01*
X130648684Y-109051757D01*
X130648683Y-109051758D01*
X130648682Y-109051758D01*
X130627426Y-109065961D01*
X130524642Y-109134640D01*
X130503723Y-109165947D01*
X128775730Y-110893940D01*
X128845801Y-110724771D01*
X128768913Y-110530000D01*
X127670000Y-110530000D01*
X127670000Y-110550000D01*
X127570000Y-110550000D01*
X127570000Y-110530000D01*
X126471087Y-110530000D01*
X126394199Y-110724771D01*
X126580145Y-111173695D01*
X126924765Y-111518826D01*
X127048049Y-111569999D01*
X126191927Y-111569999D01*
X126155001Y-111562654D01*
X126118074Y-111569999D01*
X126118070Y-111569999D01*
X126008684Y-111591757D01*
X126008683Y-111591758D01*
X126008682Y-111591758D01*
X125915950Y-111653720D01*
X125915949Y-111653721D01*
X125884642Y-111674640D01*
X125863723Y-111705947D01*
X125591194Y-111978476D01*
X125528707Y-111936724D01*
X125193261Y-111870000D01*
X124966739Y-111870000D01*
X124631293Y-111936724D01*
X124250897Y-112190897D01*
X123996724Y-112571293D01*
X123907471Y-113020000D01*
X123996724Y-113468707D01*
X124250897Y-113849103D01*
X124631293Y-114103276D01*
X124966739Y-114170000D01*
X125193261Y-114170000D01*
X125528707Y-114103276D01*
X125909103Y-113849103D01*
X126163276Y-113468707D01*
X126252529Y-113020000D01*
X126163276Y-112571293D01*
X126121524Y-112508806D01*
X126310331Y-112319999D01*
X126704634Y-112319999D01*
X126536724Y-112571293D01*
X126447471Y-113020000D01*
X126536724Y-113468707D01*
X126704634Y-113720001D01*
X126581924Y-113720001D01*
X126544998Y-113712656D01*
X126508072Y-113720001D01*
X126508068Y-113720001D01*
X126398682Y-113741759D01*
X126398681Y-113741760D01*
X126398680Y-113741760D01*
X126348854Y-113775053D01*
X126274640Y-113824642D01*
X126253721Y-113855949D01*
X125591194Y-114518477D01*
X125528707Y-114476724D01*
X125193261Y-114410000D01*
X124966739Y-114410000D01*
X124631293Y-114476724D01*
X124250897Y-114730897D01*
X123996724Y-115111293D01*
X123907471Y-115560000D01*
X123996724Y-116008707D01*
X124250897Y-116389103D01*
X124631293Y-116643276D01*
X124966739Y-116710000D01*
X125193261Y-116710000D01*
X125528707Y-116643276D01*
X125909103Y-116389103D01*
X126163276Y-116008707D01*
X126252529Y-115560000D01*
X126163276Y-115111293D01*
X126121523Y-115048806D01*
X126700329Y-114470001D01*
X127205092Y-114470001D01*
X127171293Y-114476724D01*
X126790897Y-114730897D01*
X126536724Y-115111293D01*
X126447471Y-115560000D01*
X126536724Y-116008707D01*
X126790897Y-116389103D01*
X127171293Y-116643276D01*
X127506739Y-116710000D01*
X127733261Y-116710000D01*
X128068707Y-116643276D01*
X128449103Y-116389103D01*
X128703276Y-116008707D01*
X128792529Y-115560000D01*
X128703276Y-115111293D01*
X128661524Y-115048806D01*
X128850331Y-114859999D01*
X133084634Y-114859999D01*
X132916724Y-115111293D01*
X132827471Y-115560000D01*
X132916724Y-116008707D01*
X133170897Y-116389103D01*
X133551293Y-116643276D01*
X133886739Y-116710000D01*
X134113261Y-116710000D01*
X134448707Y-116643276D01*
X134511194Y-116601524D01*
X134783723Y-116874053D01*
X134804642Y-116905360D01*
X134835949Y-116926279D01*
X134835950Y-116926280D01*
X134928682Y-116988242D01*
X134928683Y-116988242D01*
X134928684Y-116988243D01*
X135038070Y-117010001D01*
X135038074Y-117010001D01*
X135075001Y-117017346D01*
X135111927Y-117010001D01*
X136125092Y-117010001D01*
X136091293Y-117016724D01*
X135710897Y-117270897D01*
X135456724Y-117651293D01*
X135367471Y-118100000D01*
X135456724Y-118548707D01*
X135710897Y-118929103D01*
X136091293Y-119183276D01*
X136426739Y-119250000D01*
X136653261Y-119250000D01*
X136988707Y-119183276D01*
X137051194Y-119141523D01*
X137948722Y-120039052D01*
X137969641Y-120070359D01*
X138000948Y-120091278D01*
X138000949Y-120091279D01*
X138093681Y-120153241D01*
X138093682Y-120153241D01*
X138093683Y-120153242D01*
X138203069Y-120175000D01*
X138203073Y-120175000D01*
X138239999Y-120182345D01*
X138276926Y-120175000D01*
X147763074Y-120175000D01*
X147800000Y-120182345D01*
X147836926Y-120175000D01*
X147836931Y-120175000D01*
X147946317Y-120153242D01*
X148070359Y-120070359D01*
X148091280Y-120039049D01*
X149839053Y-118291277D01*
X149870359Y-118270359D01*
X149895161Y-118233241D01*
X149950781Y-118150000D01*
X150345000Y-118150000D01*
X150345000Y-118579565D01*
X150405896Y-118726582D01*
X150518418Y-118839104D01*
X150665435Y-118900000D01*
X151970000Y-118900000D01*
X152070000Y-118800000D01*
X152070000Y-118050000D01*
X152170000Y-118050000D01*
X152170000Y-118800000D01*
X152270000Y-118900000D01*
X153574565Y-118900000D01*
X153721582Y-118839104D01*
X153834104Y-118726582D01*
X153895000Y-118579565D01*
X153895000Y-118150000D01*
X156105000Y-118150000D01*
X156105000Y-118579565D01*
X156165896Y-118726582D01*
X156278418Y-118839104D01*
X156425435Y-118900000D01*
X157730000Y-118900000D01*
X157830000Y-118800000D01*
X157830000Y-118050000D01*
X157930000Y-118050000D01*
X157930000Y-118800000D01*
X158030000Y-118900000D01*
X159334565Y-118900000D01*
X159481582Y-118839104D01*
X159594104Y-118726582D01*
X159655000Y-118579565D01*
X159655000Y-118150000D01*
X159555000Y-118050000D01*
X157930000Y-118050000D01*
X157830000Y-118050000D01*
X156205000Y-118050000D01*
X156105000Y-118150000D01*
X153895000Y-118150000D01*
X153795000Y-118050000D01*
X152170000Y-118050000D01*
X152070000Y-118050000D01*
X150445000Y-118050000D01*
X150345000Y-118150000D01*
X149950781Y-118150000D01*
X149953241Y-118146319D01*
X149953241Y-118146318D01*
X149953242Y-118146317D01*
X149975000Y-118036931D01*
X149975000Y-118036927D01*
X149982345Y-118000001D01*
X149975000Y-117963075D01*
X149975000Y-117420435D01*
X150345000Y-117420435D01*
X150345000Y-117850000D01*
X150445000Y-117950000D01*
X152070000Y-117950000D01*
X152070000Y-117200000D01*
X152170000Y-117200000D01*
X152170000Y-117950000D01*
X153795000Y-117950000D01*
X153895000Y-117850000D01*
X153895000Y-117420435D01*
X156105000Y-117420435D01*
X156105000Y-117850000D01*
X156205000Y-117950000D01*
X157830000Y-117950000D01*
X157830000Y-117200000D01*
X157930000Y-117200000D01*
X157930000Y-117950000D01*
X159555000Y-117950000D01*
X159655000Y-117850000D01*
X159655000Y-117420435D01*
X159594104Y-117273418D01*
X159481582Y-117160896D01*
X159334565Y-117100000D01*
X158030000Y-117100000D01*
X157930000Y-117200000D01*
X157830000Y-117200000D01*
X157730000Y-117100000D01*
X156425435Y-117100000D01*
X156278418Y-117160896D01*
X156165896Y-117273418D01*
X156105000Y-117420435D01*
X153895000Y-117420435D01*
X153834104Y-117273418D01*
X153721582Y-117160896D01*
X153574565Y-117100000D01*
X152270000Y-117100000D01*
X152170000Y-117200000D01*
X152070000Y-117200000D01*
X151970000Y-117100000D01*
X150665435Y-117100000D01*
X150518418Y-117160896D01*
X150405896Y-117273418D01*
X150345000Y-117420435D01*
X149975000Y-117420435D01*
X149975000Y-112755329D01*
X150355330Y-112375000D01*
X150439123Y-112375000D01*
X150439123Y-112500000D01*
X150462407Y-112617054D01*
X150528712Y-112716288D01*
X150627946Y-112782593D01*
X150745000Y-112805877D01*
X153495000Y-112805877D01*
X153612054Y-112782593D01*
X153711288Y-112716288D01*
X153777593Y-112617054D01*
X153800877Y-112500000D01*
X153800877Y-111500000D01*
X156199123Y-111500000D01*
X156199123Y-112500000D01*
X156222407Y-112617054D01*
X156288712Y-112716288D01*
X156387946Y-112782593D01*
X156505000Y-112805877D01*
X159255000Y-112805877D01*
X159372054Y-112782593D01*
X159471288Y-112716288D01*
X159537593Y-112617054D01*
X159560877Y-112500000D01*
X159560877Y-111500000D01*
X159537593Y-111382946D01*
X159471288Y-111283712D01*
X159372054Y-111217407D01*
X159255000Y-111194123D01*
X156505000Y-111194123D01*
X156387946Y-111217407D01*
X156288712Y-111283712D01*
X156222407Y-111382946D01*
X156199123Y-111500000D01*
X153800877Y-111500000D01*
X153777593Y-111382946D01*
X153711288Y-111283712D01*
X153612054Y-111217407D01*
X153495000Y-111194123D01*
X150745000Y-111194123D01*
X150627946Y-111217407D01*
X150528712Y-111283712D01*
X150462407Y-111382946D01*
X150439123Y-111500000D01*
X150439123Y-111625000D01*
X150236925Y-111625000D01*
X150199999Y-111617655D01*
X150163073Y-111625000D01*
X150163069Y-111625000D01*
X150053683Y-111646758D01*
X150053682Y-111646759D01*
X150053681Y-111646759D01*
X149960949Y-111708721D01*
X149960948Y-111708722D01*
X149929641Y-111729641D01*
X149908722Y-111760948D01*
X149360948Y-112308723D01*
X149329642Y-112329641D01*
X149308723Y-112360948D01*
X149308721Y-112360950D01*
X149246759Y-112453682D01*
X149217655Y-112600000D01*
X149225001Y-112636931D01*
X149225000Y-117844670D01*
X147900000Y-119169671D01*
X147900000Y-118030000D01*
X147800000Y-117930000D01*
X147050000Y-117930000D01*
X147050000Y-117950000D01*
X146950000Y-117950000D01*
X146950000Y-117930000D01*
X146200000Y-117930000D01*
X146100000Y-118030000D01*
X146100000Y-119334565D01*
X146137459Y-119425000D01*
X143747216Y-119425000D01*
X143782593Y-119372054D01*
X143805877Y-119255000D01*
X143805877Y-116505000D01*
X143790051Y-116425435D01*
X146100000Y-116425435D01*
X146100000Y-117730000D01*
X146200000Y-117830000D01*
X146950000Y-117830000D01*
X146950000Y-116205000D01*
X147050000Y-116205000D01*
X147050000Y-117830000D01*
X147800000Y-117830000D01*
X147900000Y-117730000D01*
X147900000Y-116425435D01*
X147839104Y-116278418D01*
X147726582Y-116165896D01*
X147579565Y-116105000D01*
X147150000Y-116105000D01*
X147050000Y-116205000D01*
X146950000Y-116205000D01*
X146850000Y-116105000D01*
X146420435Y-116105000D01*
X146273418Y-116165896D01*
X146160896Y-116278418D01*
X146100000Y-116425435D01*
X143790051Y-116425435D01*
X143782593Y-116387946D01*
X143716288Y-116288712D01*
X143617054Y-116222407D01*
X143500000Y-116199123D01*
X142500000Y-116199123D01*
X142382946Y-116222407D01*
X142283712Y-116288712D01*
X142217407Y-116387946D01*
X142194123Y-116505000D01*
X142194123Y-117505000D01*
X139165328Y-117505000D01*
X138056279Y-116395951D01*
X138035358Y-116364642D01*
X137911316Y-116281759D01*
X137801930Y-116260001D01*
X137801925Y-116260001D01*
X137764999Y-116252656D01*
X137728073Y-116260001D01*
X137455366Y-116260001D01*
X137623276Y-116008707D01*
X137712529Y-115560000D01*
X137623276Y-115111293D01*
X137581524Y-115048806D01*
X138454079Y-114176252D01*
X138485382Y-114155336D01*
X138506299Y-114124032D01*
X138506302Y-114124029D01*
X138568264Y-114031296D01*
X138568264Y-114031295D01*
X138568265Y-114031294D01*
X138590023Y-113921908D01*
X138590023Y-113921904D01*
X138597368Y-113884978D01*
X138590023Y-113848052D01*
X138590023Y-112740306D01*
X140585329Y-110745000D01*
X142194123Y-110745000D01*
X142194123Y-113495000D01*
X142217407Y-113612054D01*
X142283712Y-113711288D01*
X142382946Y-113777593D01*
X142500000Y-113800877D01*
X143500000Y-113800877D01*
X143617054Y-113777593D01*
X143716288Y-113711288D01*
X143782593Y-113612054D01*
X143805877Y-113495000D01*
X143805877Y-112270000D01*
X146100000Y-112270000D01*
X146100000Y-113574565D01*
X146160896Y-113721582D01*
X146273418Y-113834104D01*
X146420435Y-113895000D01*
X146850000Y-113895000D01*
X146950000Y-113795000D01*
X146950000Y-112170000D01*
X147050000Y-112170000D01*
X147050000Y-113795000D01*
X147150000Y-113895000D01*
X147579565Y-113895000D01*
X147726582Y-113834104D01*
X147839104Y-113721582D01*
X147900000Y-113574565D01*
X147900000Y-112270000D01*
X147800000Y-112170000D01*
X147050000Y-112170000D01*
X146950000Y-112170000D01*
X146200000Y-112170000D01*
X146100000Y-112270000D01*
X143805877Y-112270000D01*
X143805877Y-110745000D01*
X143790051Y-110665435D01*
X146100000Y-110665435D01*
X146100000Y-111970000D01*
X146200000Y-112070000D01*
X146950000Y-112070000D01*
X146950000Y-110445000D01*
X147050000Y-110445000D01*
X147050000Y-112070000D01*
X147800000Y-112070000D01*
X147900000Y-111970000D01*
X147900000Y-110665435D01*
X147839104Y-110518418D01*
X147726582Y-110405896D01*
X147579565Y-110345000D01*
X147150000Y-110345000D01*
X147050000Y-110445000D01*
X146950000Y-110445000D01*
X146850000Y-110345000D01*
X146420435Y-110345000D01*
X146273418Y-110405896D01*
X146160896Y-110518418D01*
X146100000Y-110665435D01*
X143790051Y-110665435D01*
X143782593Y-110627946D01*
X143716288Y-110528712D01*
X143617054Y-110462407D01*
X143500000Y-110439123D01*
X142500000Y-110439123D01*
X142382946Y-110462407D01*
X142283712Y-110528712D01*
X142217407Y-110627946D01*
X142194123Y-110745000D01*
X140585329Y-110745000D01*
X143180329Y-108150000D01*
X150345000Y-108150000D01*
X150345000Y-108579565D01*
X150405896Y-108726582D01*
X150518418Y-108839104D01*
X150665435Y-108900000D01*
X151970000Y-108900000D01*
X152070000Y-108800000D01*
X152070000Y-108050000D01*
X152170000Y-108050000D01*
X152170000Y-108800000D01*
X152270000Y-108900000D01*
X153574565Y-108900000D01*
X153721582Y-108839104D01*
X153834104Y-108726582D01*
X153895000Y-108579565D01*
X153895000Y-108150000D01*
X156105000Y-108150000D01*
X156105000Y-108579565D01*
X156165896Y-108726582D01*
X156278418Y-108839104D01*
X156425435Y-108900000D01*
X157730000Y-108900000D01*
X157830000Y-108800000D01*
X157830000Y-108050000D01*
X157930000Y-108050000D01*
X157930000Y-108800000D01*
X158030000Y-108900000D01*
X159334565Y-108900000D01*
X159481582Y-108839104D01*
X159594104Y-108726582D01*
X159655000Y-108579565D01*
X159655000Y-108150000D01*
X159555000Y-108050000D01*
X157930000Y-108050000D01*
X157830000Y-108050000D01*
X156205000Y-108050000D01*
X156105000Y-108150000D01*
X153895000Y-108150000D01*
X153795000Y-108050000D01*
X152170000Y-108050000D01*
X152070000Y-108050000D01*
X150445000Y-108050000D01*
X150345000Y-108150000D01*
X143180329Y-108150000D01*
X143909894Y-107420435D01*
X150345000Y-107420435D01*
X150345000Y-107850000D01*
X150445000Y-107950000D01*
X152070000Y-107950000D01*
X152070000Y-107200000D01*
X152170000Y-107200000D01*
X152170000Y-107950000D01*
X153795000Y-107950000D01*
X153895000Y-107850000D01*
X153895000Y-107420435D01*
X156105000Y-107420435D01*
X156105000Y-107850000D01*
X156205000Y-107950000D01*
X157830000Y-107950000D01*
X157830000Y-107200000D01*
X157930000Y-107200000D01*
X157930000Y-107950000D01*
X159555000Y-107950000D01*
X159655000Y-107850000D01*
X159655000Y-107420435D01*
X159594104Y-107273418D01*
X159481582Y-107160896D01*
X159334565Y-107100000D01*
X158030000Y-107100000D01*
X157930000Y-107200000D01*
X157830000Y-107200000D01*
X157730000Y-107100000D01*
X156425435Y-107100000D01*
X156278418Y-107160896D01*
X156165896Y-107273418D01*
X156105000Y-107420435D01*
X153895000Y-107420435D01*
X153834104Y-107273418D01*
X153721582Y-107160896D01*
X153574565Y-107100000D01*
X152270000Y-107100000D01*
X152170000Y-107200000D01*
X152070000Y-107200000D01*
X151970000Y-107100000D01*
X150665435Y-107100000D01*
X150518418Y-107160896D01*
X150405896Y-107273418D01*
X150345000Y-107420435D01*
X143909894Y-107420435D01*
X146480143Y-104850187D01*
X152324896Y-104850185D01*
X152361827Y-104857531D01*
X152508145Y-104828427D01*
X152600877Y-104766465D01*
X152600879Y-104766463D01*
X152632186Y-104745544D01*
X152653105Y-104714237D01*
X158422342Y-98945000D01*
X162194123Y-98945000D01*
X162194123Y-101695000D01*
X162217407Y-101812054D01*
X162283712Y-101911288D01*
X162382946Y-101977593D01*
X162500000Y-102000877D01*
X163500000Y-102000877D01*
X163617054Y-101977593D01*
X163716288Y-101911288D01*
X163782593Y-101812054D01*
X163805877Y-101695000D01*
X163805877Y-100470000D01*
X166100000Y-100470000D01*
X166100000Y-101774565D01*
X166160896Y-101921582D01*
X166273418Y-102034104D01*
X166420435Y-102095000D01*
X166850000Y-102095000D01*
X166950000Y-101995000D01*
X166950000Y-100370000D01*
X167050000Y-100370000D01*
X167050000Y-101995000D01*
X167150000Y-102095000D01*
X167579565Y-102095000D01*
X167726582Y-102034104D01*
X167839104Y-101921582D01*
X167900000Y-101774565D01*
X167900000Y-100470000D01*
X167800000Y-100370000D01*
X167050000Y-100370000D01*
X166950000Y-100370000D01*
X166200000Y-100370000D01*
X166100000Y-100470000D01*
X163805877Y-100470000D01*
X163805877Y-98945000D01*
X163790051Y-98865435D01*
X166100000Y-98865435D01*
X166100000Y-100170000D01*
X166200000Y-100270000D01*
X166950000Y-100270000D01*
X166950000Y-98645000D01*
X167050000Y-98645000D01*
X167050000Y-100270000D01*
X167800000Y-100270000D01*
X167900000Y-100170000D01*
X167900000Y-98865435D01*
X167839104Y-98718418D01*
X167726582Y-98605896D01*
X167579565Y-98545000D01*
X167150000Y-98545000D01*
X167050000Y-98645000D01*
X166950000Y-98645000D01*
X166850000Y-98545000D01*
X166420435Y-98545000D01*
X166273418Y-98605896D01*
X166160896Y-98718418D01*
X166100000Y-98865435D01*
X163790051Y-98865435D01*
X163782593Y-98827946D01*
X163716288Y-98728712D01*
X163617054Y-98662407D01*
X163500000Y-98639123D01*
X162500000Y-98639123D01*
X162382946Y-98662407D01*
X162283712Y-98728712D01*
X162217407Y-98827946D01*
X162194123Y-98945000D01*
X158422342Y-98945000D01*
X158592343Y-98775000D01*
X159896751Y-98775000D01*
X159982946Y-98832593D01*
X160100000Y-98855877D01*
X160900000Y-98855877D01*
X161017054Y-98832593D01*
X161116288Y-98766288D01*
X161182593Y-98667054D01*
X161205877Y-98550000D01*
X161205877Y-98250000D01*
X161182593Y-98132946D01*
X161116288Y-98033712D01*
X161065834Y-98000000D01*
X161116288Y-97966288D01*
X161182593Y-97867054D01*
X161205877Y-97750000D01*
X161205877Y-97450000D01*
X161182593Y-97332946D01*
X161116288Y-97233712D01*
X161065834Y-97200000D01*
X161116288Y-97166288D01*
X161182593Y-97067054D01*
X161205877Y-96950000D01*
X161205877Y-96650000D01*
X161182593Y-96532946D01*
X161116288Y-96433712D01*
X161065834Y-96400000D01*
X161116288Y-96366288D01*
X161182593Y-96267054D01*
X161205877Y-96150000D01*
X161205877Y-95850000D01*
X161182593Y-95732946D01*
X161116288Y-95633712D01*
X161065834Y-95600000D01*
X161116288Y-95566288D01*
X161182593Y-95467054D01*
X161205877Y-95350000D01*
X161205877Y-95050000D01*
X161182593Y-94932946D01*
X161116288Y-94833712D01*
X161065834Y-94800000D01*
X161116288Y-94766288D01*
X161182593Y-94667054D01*
X161205877Y-94550000D01*
X161205877Y-94250000D01*
X161182593Y-94132946D01*
X161116288Y-94033712D01*
X161065834Y-94000000D01*
X161116288Y-93966288D01*
X161182593Y-93867054D01*
X161205877Y-93750000D01*
X161205877Y-93450000D01*
X161182593Y-93332946D01*
X161116288Y-93233712D01*
X161065834Y-93200000D01*
X161116288Y-93166288D01*
X161182593Y-93067054D01*
X161205877Y-92950000D01*
X161205877Y-92650000D01*
X161182593Y-92532946D01*
X161116288Y-92433712D01*
X161065834Y-92400000D01*
X161116288Y-92366288D01*
X161182593Y-92267054D01*
X161205877Y-92150000D01*
X161205877Y-91850000D01*
X161182593Y-91732946D01*
X161116288Y-91633712D01*
X161065834Y-91600000D01*
X161116288Y-91566288D01*
X161182593Y-91467054D01*
X161205877Y-91350000D01*
X161205877Y-91050000D01*
X161182593Y-90932946D01*
X161116288Y-90833712D01*
X161065834Y-90800000D01*
X161484316Y-90800000D01*
X161689299Y-91004984D01*
X161711616Y-91038384D01*
X161843928Y-91126791D01*
X162000000Y-91157836D01*
X162039394Y-91150000D01*
X162719123Y-91150000D01*
X162719123Y-91162500D01*
X162760485Y-91370441D01*
X162878274Y-91546726D01*
X163054559Y-91664515D01*
X163262500Y-91705877D01*
X163737500Y-91705877D01*
X163945441Y-91664515D01*
X164121726Y-91546726D01*
X164239515Y-91370441D01*
X164280877Y-91162500D01*
X164280877Y-90730519D01*
X164348609Y-90662787D01*
X164348611Y-90662784D01*
X164561865Y-90449530D01*
X164599442Y-90424422D01*
X164698901Y-90275571D01*
X164725010Y-90144311D01*
X164725010Y-90144307D01*
X164733825Y-90099991D01*
X164725010Y-90055674D01*
X164725010Y-84329324D01*
X164733825Y-84285007D01*
X164725010Y-84240691D01*
X164725010Y-84240687D01*
X164698901Y-84109427D01*
X164599442Y-83960576D01*
X164561868Y-83935470D01*
X161489541Y-80863144D01*
X161464433Y-80825567D01*
X161315582Y-80726108D01*
X161184322Y-80699999D01*
X161184321Y-80699999D01*
X161140001Y-80691183D01*
X161095681Y-80699999D01*
X159894320Y-80699999D01*
X159850000Y-80691183D01*
X159805680Y-80699999D01*
X159674420Y-80726108D01*
X159525569Y-80825567D01*
X159500463Y-80863141D01*
X151213605Y-89150000D01*
X150127171Y-89150000D01*
X150182593Y-89067054D01*
X150205877Y-88950000D01*
X150205877Y-88650000D01*
X150182593Y-88532946D01*
X150116288Y-88433712D01*
X150065834Y-88400000D01*
X150116288Y-88366288D01*
X150182593Y-88267054D01*
X150205877Y-88150000D01*
X150205877Y-87850000D01*
X150182593Y-87732946D01*
X150116288Y-87633712D01*
X150065834Y-87600000D01*
X150116288Y-87566288D01*
X150182593Y-87467054D01*
X150205877Y-87350000D01*
X150205877Y-87050000D01*
X150182593Y-86932946D01*
X150116288Y-86833712D01*
X150065834Y-86800000D01*
X150116288Y-86766288D01*
X150182593Y-86667054D01*
X150205877Y-86550000D01*
X150205877Y-86250000D01*
X150182593Y-86132946D01*
X150116288Y-86033712D01*
X150065834Y-86000000D01*
X150116288Y-85966288D01*
X150182593Y-85867054D01*
X150205877Y-85750000D01*
X150205877Y-85450000D01*
X150182593Y-85332946D01*
X150116288Y-85233712D01*
X150065834Y-85200000D01*
X150116288Y-85166288D01*
X150182593Y-85067054D01*
X150205877Y-84950000D01*
X150205877Y-84650000D01*
X150182593Y-84532946D01*
X150116288Y-84433712D01*
X150065834Y-84400000D01*
X150116288Y-84366288D01*
X150182593Y-84267054D01*
X150205877Y-84150000D01*
X150205877Y-83850000D01*
X150182593Y-83732946D01*
X150116288Y-83633712D01*
X150065834Y-83600000D01*
X150116288Y-83566288D01*
X150182593Y-83467054D01*
X150205877Y-83350000D01*
X150205877Y-83050000D01*
X150182593Y-82932946D01*
X150116288Y-82833712D01*
X150065834Y-82800000D01*
X150116288Y-82766288D01*
X150182593Y-82667054D01*
X150205877Y-82550000D01*
X150205877Y-82250000D01*
X150182593Y-82132946D01*
X150116288Y-82033712D01*
X150065834Y-82000000D01*
X150116288Y-81966288D01*
X150182593Y-81867054D01*
X150205877Y-81750000D01*
X150205877Y-81450000D01*
X150182593Y-81332946D01*
X150116288Y-81233712D01*
X150017054Y-81167407D01*
X149900000Y-81144123D01*
X149100000Y-81144123D01*
X148982946Y-81167407D01*
X148896751Y-81225000D01*
X143755330Y-81225000D01*
X139252504Y-76722173D01*
X139252502Y-76722170D01*
X138691287Y-76160950D01*
X138670367Y-76129641D01*
X138546325Y-76046758D01*
X138436939Y-76025000D01*
X138436934Y-76025000D01*
X138400008Y-76017655D01*
X138363082Y-76025000D01*
X137635648Y-76025000D01*
X137635155Y-76024902D01*
X137635150Y-76024902D01*
X137598224Y-76017557D01*
X137561298Y-76024902D01*
X132938702Y-76024902D01*
X132901776Y-76017557D01*
X132864850Y-76024902D01*
X132864845Y-76024902D01*
X132864352Y-76025000D01*
X127386925Y-76025000D01*
X127349999Y-76017655D01*
X127313073Y-76025000D01*
X127313069Y-76025000D01*
X127203683Y-76046758D01*
X127203682Y-76046759D01*
X127203681Y-76046759D01*
X127110948Y-76108722D01*
X127079641Y-76129641D01*
X127058722Y-76160948D01*
X123465937Y-79753734D01*
X123434630Y-79774653D01*
X123413711Y-79805960D01*
X123413709Y-79805962D01*
X123351747Y-79898694D01*
X123322643Y-80045012D01*
X120375000Y-80045012D01*
X120375000Y-80016696D01*
X120449562Y-79181248D01*
X120666468Y-78388372D01*
X121020351Y-77646442D01*
X121500027Y-76978902D01*
X122090329Y-76406860D01*
X122772609Y-75948387D01*
X123525289Y-75617984D01*
X124327470Y-75425397D01*
X125013751Y-75375000D01*
X164983304Y-75375000D01*
X165818752Y-75449562D01*
G36*
X132960145Y-109786305D02*
X132774199Y-110235229D01*
X132851087Y-110430000D01*
X133950000Y-110430000D01*
X133950000Y-110410000D01*
X134050000Y-110410000D01*
X134050000Y-110430000D01*
X135148913Y-110430000D01*
X135225801Y-110235229D01*
X135039855Y-109786305D01*
X135033558Y-109779999D01*
X135506442Y-109779999D01*
X135500145Y-109786305D01*
X135314199Y-110235229D01*
X135391087Y-110430000D01*
X136490000Y-110430000D01*
X136490000Y-110410000D01*
X136590000Y-110410000D01*
X136590000Y-110430000D01*
X136610000Y-110430000D01*
X136610000Y-110530000D01*
X136590000Y-110530000D01*
X136590000Y-110550000D01*
X136490000Y-110550000D01*
X136490000Y-110530000D01*
X135391087Y-110530000D01*
X135314199Y-110724771D01*
X135500145Y-111173695D01*
X135596295Y-111269988D01*
X134943705Y-111269988D01*
X135039855Y-111173695D01*
X135225801Y-110724771D01*
X135148913Y-110530000D01*
X134050000Y-110530000D01*
X134050000Y-110550000D01*
X133950000Y-110550000D01*
X133950000Y-110530000D01*
X132851087Y-110530000D01*
X132774199Y-110724771D01*
X132960145Y-111173695D01*
X133056295Y-111269988D01*
X129460341Y-111269988D01*
X130950331Y-109779999D01*
X132966442Y-109779999D01*
X132960145Y-109786305D01*
X132960145Y-109786305D01*
G37*
X132960145Y-109786305D02*
X132774199Y-110235229D01*
X132851087Y-110430000D01*
X133950000Y-110430000D01*
X133950000Y-110410000D01*
X134050000Y-110410000D01*
X134050000Y-110430000D01*
X135148913Y-110430000D01*
X135225801Y-110235229D01*
X135039855Y-109786305D01*
X135033558Y-109779999D01*
X135506442Y-109779999D01*
X135500145Y-109786305D01*
X135314199Y-110235229D01*
X135391087Y-110430000D01*
X136490000Y-110430000D01*
X136490000Y-110410000D01*
X136590000Y-110410000D01*
X136590000Y-110430000D01*
X136610000Y-110430000D01*
X136610000Y-110530000D01*
X136590000Y-110530000D01*
X136590000Y-110550000D01*
X136490000Y-110550000D01*
X136490000Y-110530000D01*
X135391087Y-110530000D01*
X135314199Y-110724771D01*
X135500145Y-111173695D01*
X135596295Y-111269988D01*
X134943705Y-111269988D01*
X135039855Y-111173695D01*
X135225801Y-110724771D01*
X135148913Y-110530000D01*
X134050000Y-110530000D01*
X134050000Y-110550000D01*
X133950000Y-110550000D01*
X133950000Y-110530000D01*
X132851087Y-110530000D01*
X132774199Y-110724771D01*
X132960145Y-111173695D01*
X133056295Y-111269988D01*
X129460341Y-111269988D01*
X130950331Y-109779999D01*
X132966442Y-109779999D01*
X132960145Y-109786305D01*
G36*
X132960145Y-99626305D02*
X132774199Y-100075229D01*
X132851087Y-100270000D01*
X133950000Y-100270000D01*
X133950000Y-100250000D01*
X134050000Y-100250000D01*
X134050000Y-100270000D01*
X135148913Y-100270000D01*
X135225801Y-100075229D01*
X135039855Y-99626305D01*
X135033558Y-99619999D01*
X135506442Y-99619999D01*
X135500145Y-99626305D01*
X135314199Y-100075229D01*
X135391087Y-100270000D01*
X136490000Y-100270000D01*
X136490000Y-100250000D01*
X136590000Y-100250000D01*
X136590000Y-100270000D01*
X136610000Y-100270000D01*
X136610000Y-100370000D01*
X136590000Y-100370000D01*
X136590000Y-100390000D01*
X136490000Y-100390000D01*
X136490000Y-100370000D01*
X135391087Y-100370000D01*
X135314199Y-100564771D01*
X135500145Y-101013695D01*
X135506442Y-101020001D01*
X135033558Y-101020001D01*
X135039855Y-101013695D01*
X135225801Y-100564771D01*
X135148913Y-100370000D01*
X134050000Y-100370000D01*
X134050000Y-100390000D01*
X133950000Y-100390000D01*
X133950000Y-100370000D01*
X132851087Y-100370000D01*
X132774199Y-100564771D01*
X132960145Y-101013695D01*
X132966442Y-101020001D01*
X131237646Y-101020001D01*
X131200720Y-101012656D01*
X131199515Y-101012896D01*
X132592412Y-99619999D01*
X132966442Y-99619999D01*
X132960145Y-99626305D01*
X132960145Y-99626305D01*
G37*
X132960145Y-99626305D02*
X132774199Y-100075229D01*
X132851087Y-100270000D01*
X133950000Y-100270000D01*
X133950000Y-100250000D01*
X134050000Y-100250000D01*
X134050000Y-100270000D01*
X135148913Y-100270000D01*
X135225801Y-100075229D01*
X135039855Y-99626305D01*
X135033558Y-99619999D01*
X135506442Y-99619999D01*
X135500145Y-99626305D01*
X135314199Y-100075229D01*
X135391087Y-100270000D01*
X136490000Y-100270000D01*
X136490000Y-100250000D01*
X136590000Y-100250000D01*
X136590000Y-100270000D01*
X136610000Y-100270000D01*
X136610000Y-100370000D01*
X136590000Y-100370000D01*
X136590000Y-100390000D01*
X136490000Y-100390000D01*
X136490000Y-100370000D01*
X135391087Y-100370000D01*
X135314199Y-100564771D01*
X135500145Y-101013695D01*
X135506442Y-101020001D01*
X135033558Y-101020001D01*
X135039855Y-101013695D01*
X135225801Y-100564771D01*
X135148913Y-100370000D01*
X134050000Y-100370000D01*
X134050000Y-100390000D01*
X133950000Y-100390000D01*
X133950000Y-100370000D01*
X132851087Y-100370000D01*
X132774199Y-100564771D01*
X132960145Y-101013695D01*
X132966442Y-101020001D01*
X131237646Y-101020001D01*
X131200720Y-101012656D01*
X131199515Y-101012896D01*
X132592412Y-99619999D01*
X132966442Y-99619999D01*
X132960145Y-99626305D01*
G36*
X134425000Y-79450000D02*
X134445000Y-79450000D01*
X134445000Y-79550000D01*
X134425000Y-79550000D01*
X134425000Y-80275000D01*
X134525000Y-80375000D01*
X134979565Y-80375000D01*
X135126582Y-80314104D01*
X135239104Y-80201582D01*
X135300000Y-80054565D01*
X135300000Y-79767046D01*
X135335485Y-79945441D01*
X135453274Y-80121726D01*
X135575000Y-80203060D01*
X135575000Y-80820831D01*
X135564225Y-80875000D01*
X135575000Y-80929169D01*
X135606911Y-81089598D01*
X135728472Y-81271528D01*
X135774400Y-81302216D01*
X135950001Y-81477817D01*
X135950001Y-81551133D01*
X135710897Y-81710897D01*
X135524406Y-81990000D01*
X135155877Y-81990000D01*
X135155877Y-81690000D01*
X135132593Y-81572946D01*
X135066288Y-81473712D01*
X134967054Y-81407407D01*
X134850000Y-81384123D01*
X133150000Y-81384123D01*
X133032946Y-81407407D01*
X132933712Y-81473712D01*
X132867407Y-81572946D01*
X132844123Y-81690000D01*
X132844123Y-83390000D01*
X132867407Y-83507054D01*
X132933712Y-83606288D01*
X133032946Y-83672593D01*
X133150000Y-83695877D01*
X133450001Y-83695877D01*
X133450000Y-84064406D01*
X133170897Y-84250897D01*
X132916724Y-84631293D01*
X132827471Y-85080000D01*
X132916724Y-85528707D01*
X133170897Y-85909103D01*
X133551293Y-86163276D01*
X133886739Y-86230000D01*
X134113261Y-86230000D01*
X134448707Y-86163276D01*
X134829103Y-85909103D01*
X135083276Y-85528707D01*
X135172529Y-85080000D01*
X135083276Y-84631293D01*
X134829103Y-84250897D01*
X134550000Y-84064406D01*
X134550000Y-83695877D01*
X134850000Y-83695877D01*
X134967054Y-83672593D01*
X135066288Y-83606288D01*
X135132593Y-83507054D01*
X135155877Y-83390000D01*
X135155877Y-83090000D01*
X135524406Y-83090000D01*
X135710897Y-83369103D01*
X136091293Y-83623276D01*
X136426739Y-83690000D01*
X136653261Y-83690000D01*
X136988707Y-83623276D01*
X137369103Y-83369103D01*
X137555594Y-83090000D01*
X139687184Y-83090000D01*
X145650323Y-89053140D01*
X145650325Y-89053141D01*
X145719123Y-89121940D01*
X145719123Y-89412500D01*
X145760485Y-89620441D01*
X145878274Y-89796726D01*
X146054559Y-89914515D01*
X146232954Y-89950000D01*
X145945435Y-89950000D01*
X145798418Y-90010896D01*
X145685896Y-90123418D01*
X145625000Y-90270435D01*
X145625000Y-90725000D01*
X145725000Y-90825000D01*
X146450000Y-90825000D01*
X146450000Y-90805000D01*
X146550000Y-90805000D01*
X146550000Y-90825000D01*
X147275000Y-90825000D01*
X147375000Y-90725000D01*
X147375000Y-90270435D01*
X147314104Y-90123418D01*
X147201582Y-90010896D01*
X147054565Y-89950000D01*
X146767046Y-89950000D01*
X146945441Y-89914515D01*
X147121726Y-89796726D01*
X147219764Y-89650000D01*
X147813605Y-89650000D01*
X148050461Y-89886857D01*
X148075568Y-89924432D01*
X148224419Y-90023891D01*
X148355679Y-90050000D01*
X148355683Y-90050000D01*
X148399999Y-90058815D01*
X148444316Y-90050000D01*
X148749885Y-90050000D01*
X148700000Y-90170435D01*
X148700000Y-90250000D01*
X148800000Y-90350000D01*
X149450000Y-90350000D01*
X149450000Y-90330000D01*
X149550000Y-90330000D01*
X149550000Y-90350000D01*
X150200000Y-90350000D01*
X150300000Y-90250000D01*
X150300000Y-90170435D01*
X150250115Y-90050000D01*
X151355680Y-90050000D01*
X151400000Y-90058816D01*
X151444320Y-90050000D01*
X151444321Y-90050000D01*
X151575581Y-90023891D01*
X151724432Y-89924432D01*
X151749540Y-89886855D01*
X154425000Y-87211395D01*
X154425001Y-93820391D01*
X150154497Y-98090896D01*
X150116288Y-98033712D01*
X150065834Y-98000000D01*
X150116288Y-97966288D01*
X150182593Y-97867054D01*
X150205877Y-97750000D01*
X150205877Y-97450000D01*
X150182593Y-97332946D01*
X150116288Y-97233712D01*
X150065834Y-97200000D01*
X150116288Y-97166288D01*
X150182593Y-97067054D01*
X150205877Y-96950000D01*
X150205877Y-96650000D01*
X150182593Y-96532946D01*
X150116288Y-96433712D01*
X150065834Y-96400000D01*
X150116288Y-96366288D01*
X150182593Y-96267054D01*
X150205877Y-96150000D01*
X150205877Y-95850000D01*
X150182593Y-95732946D01*
X150116288Y-95633712D01*
X150065834Y-95600000D01*
X150116288Y-95566288D01*
X150182593Y-95467054D01*
X150205877Y-95350000D01*
X150205877Y-95050000D01*
X150182593Y-94932946D01*
X150116288Y-94833712D01*
X150065834Y-94800000D01*
X150116288Y-94766288D01*
X150182593Y-94667054D01*
X150205877Y-94550000D01*
X150205877Y-94250000D01*
X150182593Y-94132946D01*
X150116288Y-94033712D01*
X150065834Y-94000000D01*
X150116288Y-93966288D01*
X150182593Y-93867054D01*
X150205877Y-93750000D01*
X150205877Y-93450000D01*
X150182593Y-93332946D01*
X150116288Y-93233712D01*
X150065834Y-93200000D01*
X150116288Y-93166288D01*
X150182593Y-93067054D01*
X150205877Y-92950000D01*
X150205877Y-92650000D01*
X150182593Y-92532946D01*
X150116288Y-92433712D01*
X150065834Y-92400000D01*
X150116288Y-92366288D01*
X150182593Y-92267054D01*
X150205877Y-92150000D01*
X150205877Y-91850000D01*
X150182593Y-91732946D01*
X150116288Y-91633712D01*
X150065834Y-91600000D01*
X150116288Y-91566288D01*
X150182593Y-91467054D01*
X150205877Y-91350000D01*
X150205877Y-91050000D01*
X150182593Y-90932946D01*
X150142598Y-90873088D01*
X150239104Y-90776582D01*
X150300000Y-90629565D01*
X150300000Y-90550000D01*
X150200000Y-90450000D01*
X149550000Y-90450000D01*
X149550000Y-90470000D01*
X149450000Y-90470000D01*
X149450000Y-90450000D01*
X148800000Y-90450000D01*
X148700000Y-90550000D01*
X148700000Y-90629565D01*
X148760896Y-90776582D01*
X148857402Y-90873088D01*
X148817407Y-90932946D01*
X148794123Y-91050000D01*
X148794123Y-91125547D01*
X148669661Y-91250010D01*
X147375000Y-91250010D01*
X147375000Y-91025000D01*
X147275000Y-90925000D01*
X146550000Y-90925000D01*
X146550000Y-90945000D01*
X146450000Y-90945000D01*
X146450000Y-90925000D01*
X145725000Y-90925000D01*
X145625000Y-91025000D01*
X145625000Y-91094670D01*
X139371279Y-84840950D01*
X139350359Y-84809641D01*
X139226317Y-84726758D01*
X139116931Y-84705000D01*
X139116926Y-84705000D01*
X139080000Y-84697655D01*
X139043074Y-84705000D01*
X137637937Y-84705000D01*
X137623276Y-84631293D01*
X137369103Y-84250897D01*
X136988707Y-83996724D01*
X136653261Y-83930000D01*
X136426739Y-83930000D01*
X136091293Y-83996724D01*
X135710897Y-84250897D01*
X135456724Y-84631293D01*
X135367471Y-85080000D01*
X135456724Y-85528707D01*
X135710897Y-85909103D01*
X136091293Y-86163276D01*
X136125092Y-86169999D01*
X135111927Y-86169999D01*
X135075001Y-86162654D01*
X135038074Y-86169999D01*
X135038070Y-86169999D01*
X134928684Y-86191757D01*
X134928683Y-86191758D01*
X134928682Y-86191758D01*
X134835950Y-86253720D01*
X134835949Y-86253721D01*
X134804642Y-86274640D01*
X134783723Y-86305947D01*
X134511194Y-86578476D01*
X134448707Y-86536724D01*
X134113261Y-86470000D01*
X133886739Y-86470000D01*
X133551293Y-86536724D01*
X133170897Y-86790897D01*
X132916724Y-87171293D01*
X132827471Y-87620000D01*
X132916724Y-88068707D01*
X133170897Y-88449103D01*
X133551293Y-88703276D01*
X133886739Y-88770000D01*
X134113261Y-88770000D01*
X134448707Y-88703276D01*
X134829103Y-88449103D01*
X135083276Y-88068707D01*
X135172529Y-87620000D01*
X135083276Y-87171293D01*
X135041524Y-87108806D01*
X135230331Y-86919999D01*
X135624634Y-86919999D01*
X135456724Y-87171293D01*
X135367471Y-87620000D01*
X135456724Y-88068707D01*
X135710897Y-88449103D01*
X136091293Y-88703276D01*
X136426739Y-88770000D01*
X136653261Y-88770000D01*
X136988707Y-88703276D01*
X137369103Y-88449103D01*
X137623276Y-88068707D01*
X137637937Y-87995000D01*
X140616113Y-87995000D01*
X143871111Y-91249999D01*
X137111951Y-91249999D01*
X137235235Y-91198826D01*
X137579855Y-90853695D01*
X137765801Y-90404771D01*
X137688913Y-90210000D01*
X136590000Y-90210000D01*
X136590000Y-90230000D01*
X136490000Y-90230000D01*
X136490000Y-90210000D01*
X135391087Y-90210000D01*
X135314199Y-90404771D01*
X135500145Y-90853695D01*
X135844765Y-91198826D01*
X135968049Y-91249999D01*
X135111927Y-91249999D01*
X135075001Y-91242654D01*
X135038074Y-91249999D01*
X135038070Y-91249999D01*
X134928684Y-91271757D01*
X134928683Y-91271758D01*
X134928682Y-91271758D01*
X134835950Y-91333720D01*
X134835949Y-91333721D01*
X134804642Y-91354640D01*
X134783723Y-91385947D01*
X134511194Y-91658476D01*
X134448707Y-91616724D01*
X134113261Y-91550000D01*
X133886739Y-91550000D01*
X133551293Y-91616724D01*
X133170897Y-91870897D01*
X132916724Y-92251293D01*
X132827471Y-92700000D01*
X132916724Y-93148707D01*
X133144761Y-93489988D01*
X132349740Y-93489988D01*
X132312813Y-93482643D01*
X132275887Y-93489988D01*
X132275883Y-93489988D01*
X132166497Y-93511746D01*
X132166496Y-93511747D01*
X132166495Y-93511747D01*
X132073763Y-93573709D01*
X132073762Y-93573710D01*
X132042455Y-93594629D01*
X132021536Y-93625936D01*
X129707473Y-95940001D01*
X128535366Y-95940001D01*
X128703276Y-95688707D01*
X128792529Y-95240000D01*
X128703276Y-94791293D01*
X128449103Y-94410897D01*
X128068707Y-94156724D01*
X127733261Y-94090000D01*
X127506739Y-94090000D01*
X127171293Y-94156724D01*
X127108806Y-94198477D01*
X126919999Y-94009670D01*
X126919999Y-93615366D01*
X127171293Y-93783276D01*
X127506739Y-93850000D01*
X127733261Y-93850000D01*
X128068707Y-93783276D01*
X128449103Y-93529103D01*
X128703276Y-93148707D01*
X128792529Y-92700000D01*
X128703276Y-92251293D01*
X128661523Y-92188806D01*
X130445558Y-90404771D01*
X132774199Y-90404771D01*
X132960145Y-90853695D01*
X133304765Y-91198826D01*
X133755228Y-91385805D01*
X133950000Y-91309004D01*
X133950000Y-90210000D01*
X134050000Y-90210000D01*
X134050000Y-91309004D01*
X134244772Y-91385805D01*
X134695235Y-91198826D01*
X135039855Y-90853695D01*
X135225801Y-90404771D01*
X135148913Y-90210000D01*
X134050000Y-90210000D01*
X133950000Y-90210000D01*
X132851087Y-90210000D01*
X132774199Y-90404771D01*
X130445558Y-90404771D01*
X130935100Y-89915229D01*
X132774199Y-89915229D01*
X132851087Y-90110000D01*
X133950000Y-90110000D01*
X133950000Y-89010996D01*
X134050000Y-89010996D01*
X134050000Y-90110000D01*
X135148913Y-90110000D01*
X135225801Y-89915229D01*
X135314199Y-89915229D01*
X135391087Y-90110000D01*
X136490000Y-90110000D01*
X136490000Y-89010996D01*
X136590000Y-89010996D01*
X136590000Y-90110000D01*
X137688913Y-90110000D01*
X137765801Y-89915229D01*
X137579855Y-89466305D01*
X137235235Y-89121174D01*
X136784772Y-88934195D01*
X136590000Y-89010996D01*
X136490000Y-89010996D01*
X136295228Y-88934195D01*
X135844765Y-89121174D01*
X135500145Y-89466305D01*
X135314199Y-89915229D01*
X135225801Y-89915229D01*
X135039855Y-89466305D01*
X134695235Y-89121174D01*
X134244772Y-88934195D01*
X134050000Y-89010996D01*
X133950000Y-89010996D01*
X133755228Y-88934195D01*
X133304765Y-89121174D01*
X132960145Y-89466305D01*
X132774199Y-89915229D01*
X130935100Y-89915229D01*
X131389086Y-89461244D01*
X131420392Y-89440326D01*
X131503275Y-89316284D01*
X131525033Y-89206898D01*
X131525033Y-89206893D01*
X131532378Y-89169967D01*
X131525033Y-89133041D01*
X131525033Y-81701206D01*
X133450000Y-79776240D01*
X133450000Y-80054565D01*
X133510896Y-80201582D01*
X133623418Y-80314104D01*
X133770435Y-80375000D01*
X134225000Y-80375000D01*
X134325000Y-80275000D01*
X134325000Y-79550000D01*
X134305000Y-79550000D01*
X134305000Y-79450000D01*
X134325000Y-79450000D01*
X134325000Y-79430000D01*
X134425000Y-79430000D01*
X134425000Y-79450000D01*
X134425000Y-79450000D01*
G37*
X134425000Y-79450000D02*
X134445000Y-79450000D01*
X134445000Y-79550000D01*
X134425000Y-79550000D01*
X134425000Y-80275000D01*
X134525000Y-80375000D01*
X134979565Y-80375000D01*
X135126582Y-80314104D01*
X135239104Y-80201582D01*
X135300000Y-80054565D01*
X135300000Y-79767046D01*
X135335485Y-79945441D01*
X135453274Y-80121726D01*
X135575000Y-80203060D01*
X135575000Y-80820831D01*
X135564225Y-80875000D01*
X135575000Y-80929169D01*
X135606911Y-81089598D01*
X135728472Y-81271528D01*
X135774400Y-81302216D01*
X135950001Y-81477817D01*
X135950001Y-81551133D01*
X135710897Y-81710897D01*
X135524406Y-81990000D01*
X135155877Y-81990000D01*
X135155877Y-81690000D01*
X135132593Y-81572946D01*
X135066288Y-81473712D01*
X134967054Y-81407407D01*
X134850000Y-81384123D01*
X133150000Y-81384123D01*
X133032946Y-81407407D01*
X132933712Y-81473712D01*
X132867407Y-81572946D01*
X132844123Y-81690000D01*
X132844123Y-83390000D01*
X132867407Y-83507054D01*
X132933712Y-83606288D01*
X133032946Y-83672593D01*
X133150000Y-83695877D01*
X133450001Y-83695877D01*
X133450000Y-84064406D01*
X133170897Y-84250897D01*
X132916724Y-84631293D01*
X132827471Y-85080000D01*
X132916724Y-85528707D01*
X133170897Y-85909103D01*
X133551293Y-86163276D01*
X133886739Y-86230000D01*
X134113261Y-86230000D01*
X134448707Y-86163276D01*
X134829103Y-85909103D01*
X135083276Y-85528707D01*
X135172529Y-85080000D01*
X135083276Y-84631293D01*
X134829103Y-84250897D01*
X134550000Y-84064406D01*
X134550000Y-83695877D01*
X134850000Y-83695877D01*
X134967054Y-83672593D01*
X135066288Y-83606288D01*
X135132593Y-83507054D01*
X135155877Y-83390000D01*
X135155877Y-83090000D01*
X135524406Y-83090000D01*
X135710897Y-83369103D01*
X136091293Y-83623276D01*
X136426739Y-83690000D01*
X136653261Y-83690000D01*
X136988707Y-83623276D01*
X137369103Y-83369103D01*
X137555594Y-83090000D01*
X139687184Y-83090000D01*
X145650323Y-89053140D01*
X145650325Y-89053141D01*
X145719123Y-89121940D01*
X145719123Y-89412500D01*
X145760485Y-89620441D01*
X145878274Y-89796726D01*
X146054559Y-89914515D01*
X146232954Y-89950000D01*
X145945435Y-89950000D01*
X145798418Y-90010896D01*
X145685896Y-90123418D01*
X145625000Y-90270435D01*
X145625000Y-90725000D01*
X145725000Y-90825000D01*
X146450000Y-90825000D01*
X146450000Y-90805000D01*
X146550000Y-90805000D01*
X146550000Y-90825000D01*
X147275000Y-90825000D01*
X147375000Y-90725000D01*
X147375000Y-90270435D01*
X147314104Y-90123418D01*
X147201582Y-90010896D01*
X147054565Y-89950000D01*
X146767046Y-89950000D01*
X146945441Y-89914515D01*
X147121726Y-89796726D01*
X147219764Y-89650000D01*
X147813605Y-89650000D01*
X148050461Y-89886857D01*
X148075568Y-89924432D01*
X148224419Y-90023891D01*
X148355679Y-90050000D01*
X148355683Y-90050000D01*
X148399999Y-90058815D01*
X148444316Y-90050000D01*
X148749885Y-90050000D01*
X148700000Y-90170435D01*
X148700000Y-90250000D01*
X148800000Y-90350000D01*
X149450000Y-90350000D01*
X149450000Y-90330000D01*
X149550000Y-90330000D01*
X149550000Y-90350000D01*
X150200000Y-90350000D01*
X150300000Y-90250000D01*
X150300000Y-90170435D01*
X150250115Y-90050000D01*
X151355680Y-90050000D01*
X151400000Y-90058816D01*
X151444320Y-90050000D01*
X151444321Y-90050000D01*
X151575581Y-90023891D01*
X151724432Y-89924432D01*
X151749540Y-89886855D01*
X154425000Y-87211395D01*
X154425001Y-93820391D01*
X150154497Y-98090896D01*
X150116288Y-98033712D01*
X150065834Y-98000000D01*
X150116288Y-97966288D01*
X150182593Y-97867054D01*
X150205877Y-97750000D01*
X150205877Y-97450000D01*
X150182593Y-97332946D01*
X150116288Y-97233712D01*
X150065834Y-97200000D01*
X150116288Y-97166288D01*
X150182593Y-97067054D01*
X150205877Y-96950000D01*
X150205877Y-96650000D01*
X150182593Y-96532946D01*
X150116288Y-96433712D01*
X150065834Y-96400000D01*
X150116288Y-96366288D01*
X150182593Y-96267054D01*
X150205877Y-96150000D01*
X150205877Y-95850000D01*
X150182593Y-95732946D01*
X150116288Y-95633712D01*
X150065834Y-95600000D01*
X150116288Y-95566288D01*
X150182593Y-95467054D01*
X150205877Y-95350000D01*
X150205877Y-95050000D01*
X150182593Y-94932946D01*
X150116288Y-94833712D01*
X150065834Y-94800000D01*
X150116288Y-94766288D01*
X150182593Y-94667054D01*
X150205877Y-94550000D01*
X150205877Y-94250000D01*
X150182593Y-94132946D01*
X150116288Y-94033712D01*
X150065834Y-94000000D01*
X150116288Y-93966288D01*
X150182593Y-93867054D01*
X150205877Y-93750000D01*
X150205877Y-93450000D01*
X150182593Y-93332946D01*
X150116288Y-93233712D01*
X150065834Y-93200000D01*
X150116288Y-93166288D01*
X150182593Y-93067054D01*
X150205877Y-92950000D01*
X150205877Y-92650000D01*
X150182593Y-92532946D01*
X150116288Y-92433712D01*
X150065834Y-92400000D01*
X150116288Y-92366288D01*
X150182593Y-92267054D01*
X150205877Y-92150000D01*
X150205877Y-91850000D01*
X150182593Y-91732946D01*
X150116288Y-91633712D01*
X150065834Y-91600000D01*
X150116288Y-91566288D01*
X150182593Y-91467054D01*
X150205877Y-91350000D01*
X150205877Y-91050000D01*
X150182593Y-90932946D01*
X150142598Y-90873088D01*
X150239104Y-90776582D01*
X150300000Y-90629565D01*
X150300000Y-90550000D01*
X150200000Y-90450000D01*
X149550000Y-90450000D01*
X149550000Y-90470000D01*
X149450000Y-90470000D01*
X149450000Y-90450000D01*
X148800000Y-90450000D01*
X148700000Y-90550000D01*
X148700000Y-90629565D01*
X148760896Y-90776582D01*
X148857402Y-90873088D01*
X148817407Y-90932946D01*
X148794123Y-91050000D01*
X148794123Y-91125547D01*
X148669661Y-91250010D01*
X147375000Y-91250010D01*
X147375000Y-91025000D01*
X147275000Y-90925000D01*
X146550000Y-90925000D01*
X146550000Y-90945000D01*
X146450000Y-90945000D01*
X146450000Y-90925000D01*
X145725000Y-90925000D01*
X145625000Y-91025000D01*
X145625000Y-91094670D01*
X139371279Y-84840950D01*
X139350359Y-84809641D01*
X139226317Y-84726758D01*
X139116931Y-84705000D01*
X139116926Y-84705000D01*
X139080000Y-84697655D01*
X139043074Y-84705000D01*
X137637937Y-84705000D01*
X137623276Y-84631293D01*
X137369103Y-84250897D01*
X136988707Y-83996724D01*
X136653261Y-83930000D01*
X136426739Y-83930000D01*
X136091293Y-83996724D01*
X135710897Y-84250897D01*
X135456724Y-84631293D01*
X135367471Y-85080000D01*
X135456724Y-85528707D01*
X135710897Y-85909103D01*
X136091293Y-86163276D01*
X136125092Y-86169999D01*
X135111927Y-86169999D01*
X135075001Y-86162654D01*
X135038074Y-86169999D01*
X135038070Y-86169999D01*
X134928684Y-86191757D01*
X134928683Y-86191758D01*
X134928682Y-86191758D01*
X134835950Y-86253720D01*
X134835949Y-86253721D01*
X134804642Y-86274640D01*
X134783723Y-86305947D01*
X134511194Y-86578476D01*
X134448707Y-86536724D01*
X134113261Y-86470000D01*
X133886739Y-86470000D01*
X133551293Y-86536724D01*
X133170897Y-86790897D01*
X132916724Y-87171293D01*
X132827471Y-87620000D01*
X132916724Y-88068707D01*
X133170897Y-88449103D01*
X133551293Y-88703276D01*
X133886739Y-88770000D01*
X134113261Y-88770000D01*
X134448707Y-88703276D01*
X134829103Y-88449103D01*
X135083276Y-88068707D01*
X135172529Y-87620000D01*
X135083276Y-87171293D01*
X135041524Y-87108806D01*
X135230331Y-86919999D01*
X135624634Y-86919999D01*
X135456724Y-87171293D01*
X135367471Y-87620000D01*
X135456724Y-88068707D01*
X135710897Y-88449103D01*
X136091293Y-88703276D01*
X136426739Y-88770000D01*
X136653261Y-88770000D01*
X136988707Y-88703276D01*
X137369103Y-88449103D01*
X137623276Y-88068707D01*
X137637937Y-87995000D01*
X140616113Y-87995000D01*
X143871111Y-91249999D01*
X137111951Y-91249999D01*
X137235235Y-91198826D01*
X137579855Y-90853695D01*
X137765801Y-90404771D01*
X137688913Y-90210000D01*
X136590000Y-90210000D01*
X136590000Y-90230000D01*
X136490000Y-90230000D01*
X136490000Y-90210000D01*
X135391087Y-90210000D01*
X135314199Y-90404771D01*
X135500145Y-90853695D01*
X135844765Y-91198826D01*
X135968049Y-91249999D01*
X135111927Y-91249999D01*
X135075001Y-91242654D01*
X135038074Y-91249999D01*
X135038070Y-91249999D01*
X134928684Y-91271757D01*
X134928683Y-91271758D01*
X134928682Y-91271758D01*
X134835950Y-91333720D01*
X134835949Y-91333721D01*
X134804642Y-91354640D01*
X134783723Y-91385947D01*
X134511194Y-91658476D01*
X134448707Y-91616724D01*
X134113261Y-91550000D01*
X133886739Y-91550000D01*
X133551293Y-91616724D01*
X133170897Y-91870897D01*
X132916724Y-92251293D01*
X132827471Y-92700000D01*
X132916724Y-93148707D01*
X133144761Y-93489988D01*
X132349740Y-93489988D01*
X132312813Y-93482643D01*
X132275887Y-93489988D01*
X132275883Y-93489988D01*
X132166497Y-93511746D01*
X132166496Y-93511747D01*
X132166495Y-93511747D01*
X132073763Y-93573709D01*
X132073762Y-93573710D01*
X132042455Y-93594629D01*
X132021536Y-93625936D01*
X129707473Y-95940001D01*
X128535366Y-95940001D01*
X128703276Y-95688707D01*
X128792529Y-95240000D01*
X128703276Y-94791293D01*
X128449103Y-94410897D01*
X128068707Y-94156724D01*
X127733261Y-94090000D01*
X127506739Y-94090000D01*
X127171293Y-94156724D01*
X127108806Y-94198477D01*
X126919999Y-94009670D01*
X126919999Y-93615366D01*
X127171293Y-93783276D01*
X127506739Y-93850000D01*
X127733261Y-93850000D01*
X128068707Y-93783276D01*
X128449103Y-93529103D01*
X128703276Y-93148707D01*
X128792529Y-92700000D01*
X128703276Y-92251293D01*
X128661523Y-92188806D01*
X130445558Y-90404771D01*
X132774199Y-90404771D01*
X132960145Y-90853695D01*
X133304765Y-91198826D01*
X133755228Y-91385805D01*
X133950000Y-91309004D01*
X133950000Y-90210000D01*
X134050000Y-90210000D01*
X134050000Y-91309004D01*
X134244772Y-91385805D01*
X134695235Y-91198826D01*
X135039855Y-90853695D01*
X135225801Y-90404771D01*
X135148913Y-90210000D01*
X134050000Y-90210000D01*
X133950000Y-90210000D01*
X132851087Y-90210000D01*
X132774199Y-90404771D01*
X130445558Y-90404771D01*
X130935100Y-89915229D01*
X132774199Y-89915229D01*
X132851087Y-90110000D01*
X133950000Y-90110000D01*
X133950000Y-89010996D01*
X134050000Y-89010996D01*
X134050000Y-90110000D01*
X135148913Y-90110000D01*
X135225801Y-89915229D01*
X135314199Y-89915229D01*
X135391087Y-90110000D01*
X136490000Y-90110000D01*
X136490000Y-89010996D01*
X136590000Y-89010996D01*
X136590000Y-90110000D01*
X137688913Y-90110000D01*
X137765801Y-89915229D01*
X137579855Y-89466305D01*
X137235235Y-89121174D01*
X136784772Y-88934195D01*
X136590000Y-89010996D01*
X136490000Y-89010996D01*
X136295228Y-88934195D01*
X135844765Y-89121174D01*
X135500145Y-89466305D01*
X135314199Y-89915229D01*
X135225801Y-89915229D01*
X135039855Y-89466305D01*
X134695235Y-89121174D01*
X134244772Y-88934195D01*
X134050000Y-89010996D01*
X133950000Y-89010996D01*
X133755228Y-88934195D01*
X133304765Y-89121174D01*
X132960145Y-89466305D01*
X132774199Y-89915229D01*
X130935100Y-89915229D01*
X131389086Y-89461244D01*
X131420392Y-89440326D01*
X131503275Y-89316284D01*
X131525033Y-89206898D01*
X131525033Y-89206893D01*
X131532378Y-89169967D01*
X131525033Y-89133041D01*
X131525033Y-81701206D01*
X133450000Y-79776240D01*
X133450000Y-80054565D01*
X133510896Y-80201582D01*
X133623418Y-80314104D01*
X133770435Y-80375000D01*
X134225000Y-80375000D01*
X134325000Y-80275000D01*
X134325000Y-79550000D01*
X134305000Y-79550000D01*
X134305000Y-79450000D01*
X134325000Y-79450000D01*
X134325000Y-79430000D01*
X134425000Y-79430000D01*
X134425000Y-79450000D01*
G36*
X124250897Y-88449103D02*
X124631293Y-88703276D01*
X124966739Y-88770000D01*
X125193261Y-88770000D01*
X125528707Y-88703276D01*
X125869989Y-88475238D01*
X125869988Y-89216068D01*
X125775235Y-89121174D01*
X125324772Y-88934195D01*
X125130000Y-89010996D01*
X125130000Y-90110000D01*
X125150000Y-90110000D01*
X125150000Y-90210000D01*
X125130000Y-90210000D01*
X125130000Y-91309004D01*
X125324772Y-91385805D01*
X125775235Y-91198826D01*
X125869988Y-91103932D01*
X125869988Y-91844761D01*
X125528707Y-91616724D01*
X125193261Y-91550000D01*
X124966739Y-91550000D01*
X124631293Y-91616724D01*
X124568806Y-91658477D01*
X124079988Y-91169659D01*
X124079988Y-90893597D01*
X124384765Y-91198826D01*
X124835228Y-91385805D01*
X125030000Y-91309004D01*
X125030000Y-90210000D01*
X125010000Y-90210000D01*
X125010000Y-90110000D01*
X125030000Y-90110000D01*
X125030000Y-89010996D01*
X124835228Y-88934195D01*
X124384765Y-89121174D01*
X124079988Y-89426403D01*
X124079988Y-88193320D01*
X124250897Y-88449103D01*
X124250897Y-88449103D01*
G37*
X124250897Y-88449103D02*
X124631293Y-88703276D01*
X124966739Y-88770000D01*
X125193261Y-88770000D01*
X125528707Y-88703276D01*
X125869989Y-88475238D01*
X125869988Y-89216068D01*
X125775235Y-89121174D01*
X125324772Y-88934195D01*
X125130000Y-89010996D01*
X125130000Y-90110000D01*
X125150000Y-90110000D01*
X125150000Y-90210000D01*
X125130000Y-90210000D01*
X125130000Y-91309004D01*
X125324772Y-91385805D01*
X125775235Y-91198826D01*
X125869988Y-91103932D01*
X125869988Y-91844761D01*
X125528707Y-91616724D01*
X125193261Y-91550000D01*
X124966739Y-91550000D01*
X124631293Y-91616724D01*
X124568806Y-91658477D01*
X124079988Y-91169659D01*
X124079988Y-90893597D01*
X124384765Y-91198826D01*
X124835228Y-91385805D01*
X125030000Y-91309004D01*
X125030000Y-90210000D01*
X125010000Y-90210000D01*
X125010000Y-90110000D01*
X125030000Y-90110000D01*
X125030000Y-89010996D01*
X124835228Y-88934195D01*
X124384765Y-89121174D01*
X124079988Y-89426403D01*
X124079988Y-88193320D01*
X124250897Y-88449103D01*
G36*
X163825010Y-84471404D02*
X163825011Y-88200000D01*
X163650000Y-88200000D01*
X163550000Y-88300000D01*
X163550000Y-89075000D01*
X163570000Y-89075000D01*
X163570000Y-89175000D01*
X163550000Y-89175000D01*
X163550000Y-89195000D01*
X163450000Y-89195000D01*
X163450000Y-89175000D01*
X162725000Y-89175000D01*
X162625000Y-89275000D01*
X162625000Y-89729565D01*
X162685896Y-89876582D01*
X162798418Y-89989104D01*
X162945435Y-90050000D01*
X163232954Y-90050000D01*
X163054559Y-90085485D01*
X162878274Y-90203274D01*
X162780236Y-90350000D01*
X162165685Y-90350000D01*
X161960702Y-90145018D01*
X161938384Y-90111616D01*
X161806072Y-90023209D01*
X161689394Y-90000000D01*
X161650000Y-89992164D01*
X161610606Y-90000000D01*
X161215686Y-90000000D01*
X161239104Y-89976582D01*
X161300000Y-89829565D01*
X161300000Y-89750000D01*
X161200000Y-89650000D01*
X160550000Y-89650000D01*
X160550000Y-89670000D01*
X160450000Y-89670000D01*
X160450000Y-89650000D01*
X160430000Y-89650000D01*
X160430000Y-89550000D01*
X160450000Y-89550000D01*
X160450000Y-89530000D01*
X160550000Y-89530000D01*
X160550000Y-89550000D01*
X161200000Y-89550000D01*
X161300000Y-89450000D01*
X161300000Y-89370435D01*
X161239104Y-89223418D01*
X161142598Y-89126912D01*
X161182593Y-89067054D01*
X161205877Y-88950000D01*
X161205877Y-88650000D01*
X161182593Y-88532946D01*
X161174234Y-88520435D01*
X162625000Y-88520435D01*
X162625000Y-88975000D01*
X162725000Y-89075000D01*
X163450000Y-89075000D01*
X163450000Y-88300000D01*
X163350000Y-88200000D01*
X162945435Y-88200000D01*
X162798418Y-88260896D01*
X162685896Y-88373418D01*
X162625000Y-88520435D01*
X161174234Y-88520435D01*
X161116288Y-88433712D01*
X161065834Y-88400000D01*
X161116288Y-88366288D01*
X161182593Y-88267054D01*
X161205877Y-88150000D01*
X161205877Y-87850000D01*
X161182593Y-87732946D01*
X161116288Y-87633712D01*
X161065834Y-87600000D01*
X161116288Y-87566288D01*
X161182593Y-87467054D01*
X161205877Y-87350000D01*
X161205877Y-87050000D01*
X161182593Y-86932946D01*
X161116288Y-86833712D01*
X161065834Y-86800000D01*
X161116288Y-86766288D01*
X161182593Y-86667054D01*
X161205877Y-86550000D01*
X161205877Y-86250000D01*
X161182593Y-86132946D01*
X161116288Y-86033712D01*
X161065834Y-86000000D01*
X161116288Y-85966288D01*
X161182593Y-85867054D01*
X161205877Y-85750000D01*
X161205877Y-85450000D01*
X161182593Y-85332946D01*
X161116288Y-85233712D01*
X161065834Y-85200000D01*
X161116288Y-85166288D01*
X161182593Y-85067054D01*
X161205877Y-84950000D01*
X161205877Y-84650000D01*
X161182593Y-84532946D01*
X161116288Y-84433712D01*
X161065834Y-84400000D01*
X161116288Y-84366288D01*
X161182593Y-84267054D01*
X161205877Y-84150000D01*
X161205877Y-83850000D01*
X161182593Y-83732946D01*
X161116288Y-83633712D01*
X161065834Y-83600000D01*
X161116288Y-83566288D01*
X161182593Y-83467054D01*
X161205877Y-83350000D01*
X161205877Y-83050000D01*
X161182593Y-82932946D01*
X161116288Y-82833712D01*
X161065834Y-82800000D01*
X161116288Y-82766288D01*
X161182593Y-82667054D01*
X161205877Y-82550000D01*
X161205877Y-82250000D01*
X161182593Y-82132946D01*
X161116288Y-82033712D01*
X161065834Y-82000000D01*
X161116288Y-81966288D01*
X161182593Y-81867054D01*
X161188909Y-81835302D01*
X163825010Y-84471404D01*
X163825010Y-84471404D01*
G37*
X163825010Y-84471404D02*
X163825011Y-88200000D01*
X163650000Y-88200000D01*
X163550000Y-88300000D01*
X163550000Y-89075000D01*
X163570000Y-89075000D01*
X163570000Y-89175000D01*
X163550000Y-89175000D01*
X163550000Y-89195000D01*
X163450000Y-89195000D01*
X163450000Y-89175000D01*
X162725000Y-89175000D01*
X162625000Y-89275000D01*
X162625000Y-89729565D01*
X162685896Y-89876582D01*
X162798418Y-89989104D01*
X162945435Y-90050000D01*
X163232954Y-90050000D01*
X163054559Y-90085485D01*
X162878274Y-90203274D01*
X162780236Y-90350000D01*
X162165685Y-90350000D01*
X161960702Y-90145018D01*
X161938384Y-90111616D01*
X161806072Y-90023209D01*
X161689394Y-90000000D01*
X161650000Y-89992164D01*
X161610606Y-90000000D01*
X161215686Y-90000000D01*
X161239104Y-89976582D01*
X161300000Y-89829565D01*
X161300000Y-89750000D01*
X161200000Y-89650000D01*
X160550000Y-89650000D01*
X160550000Y-89670000D01*
X160450000Y-89670000D01*
X160450000Y-89650000D01*
X160430000Y-89650000D01*
X160430000Y-89550000D01*
X160450000Y-89550000D01*
X160450000Y-89530000D01*
X160550000Y-89530000D01*
X160550000Y-89550000D01*
X161200000Y-89550000D01*
X161300000Y-89450000D01*
X161300000Y-89370435D01*
X161239104Y-89223418D01*
X161142598Y-89126912D01*
X161182593Y-89067054D01*
X161205877Y-88950000D01*
X161205877Y-88650000D01*
X161182593Y-88532946D01*
X161174234Y-88520435D01*
X162625000Y-88520435D01*
X162625000Y-88975000D01*
X162725000Y-89075000D01*
X163450000Y-89075000D01*
X163450000Y-88300000D01*
X163350000Y-88200000D01*
X162945435Y-88200000D01*
X162798418Y-88260896D01*
X162685896Y-88373418D01*
X162625000Y-88520435D01*
X161174234Y-88520435D01*
X161116288Y-88433712D01*
X161065834Y-88400000D01*
X161116288Y-88366288D01*
X161182593Y-88267054D01*
X161205877Y-88150000D01*
X161205877Y-87850000D01*
X161182593Y-87732946D01*
X161116288Y-87633712D01*
X161065834Y-87600000D01*
X161116288Y-87566288D01*
X161182593Y-87467054D01*
X161205877Y-87350000D01*
X161205877Y-87050000D01*
X161182593Y-86932946D01*
X161116288Y-86833712D01*
X161065834Y-86800000D01*
X161116288Y-86766288D01*
X161182593Y-86667054D01*
X161205877Y-86550000D01*
X161205877Y-86250000D01*
X161182593Y-86132946D01*
X161116288Y-86033712D01*
X161065834Y-86000000D01*
X161116288Y-85966288D01*
X161182593Y-85867054D01*
X161205877Y-85750000D01*
X161205877Y-85450000D01*
X161182593Y-85332946D01*
X161116288Y-85233712D01*
X161065834Y-85200000D01*
X161116288Y-85166288D01*
X161182593Y-85067054D01*
X161205877Y-84950000D01*
X161205877Y-84650000D01*
X161182593Y-84532946D01*
X161116288Y-84433712D01*
X161065834Y-84400000D01*
X161116288Y-84366288D01*
X161182593Y-84267054D01*
X161205877Y-84150000D01*
X161205877Y-83850000D01*
X161182593Y-83732946D01*
X161116288Y-83633712D01*
X161065834Y-83600000D01*
X161116288Y-83566288D01*
X161182593Y-83467054D01*
X161205877Y-83350000D01*
X161205877Y-83050000D01*
X161182593Y-82932946D01*
X161116288Y-82833712D01*
X161065834Y-82800000D01*
X161116288Y-82766288D01*
X161182593Y-82667054D01*
X161205877Y-82550000D01*
X161205877Y-82250000D01*
X161182593Y-82132946D01*
X161116288Y-82033712D01*
X161065834Y-82000000D01*
X161116288Y-81966288D01*
X161182593Y-81867054D01*
X161188909Y-81835302D01*
X163825010Y-84471404D01*
G36*
X130475022Y-88594648D02*
X128794600Y-90275070D01*
X128768913Y-90210000D01*
X127670000Y-90210000D01*
X127670000Y-90230000D01*
X127570000Y-90230000D01*
X127570000Y-90210000D01*
X127550000Y-90210000D01*
X127550000Y-90110000D01*
X127570000Y-90110000D01*
X127570000Y-89010996D01*
X127670000Y-89010996D01*
X127670000Y-90110000D01*
X128768913Y-90110000D01*
X128845801Y-89915229D01*
X128659855Y-89466305D01*
X128315235Y-89121174D01*
X127864772Y-88934195D01*
X127670000Y-89010996D01*
X127570000Y-89010996D01*
X127375228Y-88934195D01*
X126924765Y-89121174D01*
X126619988Y-89426403D01*
X126619988Y-88193320D01*
X126790897Y-88449103D01*
X127171293Y-88703276D01*
X127506739Y-88770000D01*
X127733261Y-88770000D01*
X128068707Y-88703276D01*
X128449103Y-88449103D01*
X128703276Y-88068707D01*
X128792529Y-87620000D01*
X128703276Y-87171293D01*
X128661523Y-87108806D01*
X130475022Y-85295307D01*
X130475022Y-88594648D01*
X130475022Y-88594648D01*
G37*
X130475022Y-88594648D02*
X128794600Y-90275070D01*
X128768913Y-90210000D01*
X127670000Y-90210000D01*
X127670000Y-90230000D01*
X127570000Y-90230000D01*
X127570000Y-90210000D01*
X127550000Y-90210000D01*
X127550000Y-90110000D01*
X127570000Y-90110000D01*
X127570000Y-89010996D01*
X127670000Y-89010996D01*
X127670000Y-90110000D01*
X128768913Y-90110000D01*
X128845801Y-89915229D01*
X128659855Y-89466305D01*
X128315235Y-89121174D01*
X127864772Y-88934195D01*
X127670000Y-89010996D01*
X127570000Y-89010996D01*
X127375228Y-88934195D01*
X126924765Y-89121174D01*
X126619988Y-89426403D01*
X126619988Y-88193320D01*
X126790897Y-88449103D01*
X127171293Y-88703276D01*
X127506739Y-88770000D01*
X127733261Y-88770000D01*
X128068707Y-88703276D01*
X128449103Y-88449103D01*
X128703276Y-88068707D01*
X128792529Y-87620000D01*
X128703276Y-87171293D01*
X128661523Y-87108806D01*
X130475022Y-85295307D01*
X130475022Y-88594648D01*
G36*
X130010949Y-80881795D02*
X129979642Y-80902714D01*
X129958723Y-80934021D01*
X129958721Y-80934023D01*
X129896759Y-81026755D01*
X129867655Y-81173073D01*
X129875001Y-81210004D01*
X129875000Y-82694669D01*
X128370976Y-84198694D01*
X128068707Y-83996724D01*
X127733261Y-83930000D01*
X127506739Y-83930000D01*
X127171293Y-83996724D01*
X126820184Y-84231328D01*
X126830012Y-84181919D01*
X126830012Y-84181914D01*
X126837357Y-84144988D01*
X126830012Y-84108062D01*
X126830012Y-83395239D01*
X127171293Y-83623276D01*
X127506739Y-83690000D01*
X127733261Y-83690000D01*
X128068707Y-83623276D01*
X128449103Y-83369103D01*
X128703276Y-82988707D01*
X128792529Y-82540000D01*
X128703276Y-82091293D01*
X128449103Y-81710897D01*
X128170000Y-81524406D01*
X128170000Y-80004521D01*
X128245441Y-79989515D01*
X128421726Y-79871726D01*
X128539515Y-79695441D01*
X128575000Y-79517046D01*
X128575000Y-79804565D01*
X128635896Y-79951582D01*
X128748418Y-80064104D01*
X128895435Y-80125000D01*
X129350000Y-80125000D01*
X129450000Y-80025000D01*
X129450000Y-79300000D01*
X129550000Y-79300000D01*
X129550000Y-80025000D01*
X129650000Y-80125000D01*
X130104565Y-80125000D01*
X130251582Y-80064104D01*
X130364104Y-79951582D01*
X130425000Y-79804565D01*
X130425000Y-79400000D01*
X130325000Y-79300000D01*
X129550000Y-79300000D01*
X129450000Y-79300000D01*
X129430000Y-79300000D01*
X129430000Y-79200000D01*
X129450000Y-79200000D01*
X129450000Y-78475000D01*
X129550000Y-78475000D01*
X129550000Y-79200000D01*
X130325000Y-79200000D01*
X130425000Y-79100000D01*
X130425000Y-78695435D01*
X130364104Y-78548418D01*
X130251582Y-78435896D01*
X130104565Y-78375000D01*
X129650000Y-78375000D01*
X129550000Y-78475000D01*
X129450000Y-78475000D01*
X129350000Y-78375000D01*
X128895435Y-78375000D01*
X128748418Y-78435896D01*
X128635896Y-78548418D01*
X128575000Y-78695435D01*
X128575000Y-78982954D01*
X128539515Y-78804559D01*
X128421726Y-78628274D01*
X128245441Y-78510485D01*
X128037500Y-78469123D01*
X127659763Y-78469123D01*
X128153842Y-77975044D01*
X132917699Y-77975044D01*
X130010949Y-80881795D01*
X130010949Y-80881795D01*
G37*
X130010949Y-80881795D02*
X129979642Y-80902714D01*
X129958723Y-80934021D01*
X129958721Y-80934023D01*
X129896759Y-81026755D01*
X129867655Y-81173073D01*
X129875001Y-81210004D01*
X129875000Y-82694669D01*
X128370976Y-84198694D01*
X128068707Y-83996724D01*
X127733261Y-83930000D01*
X127506739Y-83930000D01*
X127171293Y-83996724D01*
X126820184Y-84231328D01*
X126830012Y-84181919D01*
X126830012Y-84181914D01*
X126837357Y-84144988D01*
X126830012Y-84108062D01*
X126830012Y-83395239D01*
X127171293Y-83623276D01*
X127506739Y-83690000D01*
X127733261Y-83690000D01*
X128068707Y-83623276D01*
X128449103Y-83369103D01*
X128703276Y-82988707D01*
X128792529Y-82540000D01*
X128703276Y-82091293D01*
X128449103Y-81710897D01*
X128170000Y-81524406D01*
X128170000Y-80004521D01*
X128245441Y-79989515D01*
X128421726Y-79871726D01*
X128539515Y-79695441D01*
X128575000Y-79517046D01*
X128575000Y-79804565D01*
X128635896Y-79951582D01*
X128748418Y-80064104D01*
X128895435Y-80125000D01*
X129350000Y-80125000D01*
X129450000Y-80025000D01*
X129450000Y-79300000D01*
X129550000Y-79300000D01*
X129550000Y-80025000D01*
X129650000Y-80125000D01*
X130104565Y-80125000D01*
X130251582Y-80064104D01*
X130364104Y-79951582D01*
X130425000Y-79804565D01*
X130425000Y-79400000D01*
X130325000Y-79300000D01*
X129550000Y-79300000D01*
X129450000Y-79300000D01*
X129430000Y-79300000D01*
X129430000Y-79200000D01*
X129450000Y-79200000D01*
X129450000Y-78475000D01*
X129550000Y-78475000D01*
X129550000Y-79200000D01*
X130325000Y-79200000D01*
X130425000Y-79100000D01*
X130425000Y-78695435D01*
X130364104Y-78548418D01*
X130251582Y-78435896D01*
X130104565Y-78375000D01*
X129650000Y-78375000D01*
X129550000Y-78475000D01*
X129450000Y-78475000D01*
X129350000Y-78375000D01*
X128895435Y-78375000D01*
X128748418Y-78435896D01*
X128635896Y-78548418D01*
X128575000Y-78695435D01*
X128575000Y-78982954D01*
X128539515Y-78804559D01*
X128421726Y-78628274D01*
X128245441Y-78510485D01*
X128037500Y-78469123D01*
X127659763Y-78469123D01*
X128153842Y-77975044D01*
X132917699Y-77975044D01*
X130010949Y-80881795D01*
G04 #@! TD*
M02*
