G04 #@! TF.GenerationSoftware,KiCad,Pcbnew,5.0.2-bee76a0~70~ubuntu18.04.1*
G04 #@! TF.CreationDate,2019-04-04T22:51:14+01:00*
G04 #@! TF.ProjectId,sram_dev_board,7372616d-5f64-4657-965f-626f6172642e,rev?*
G04 #@! TF.SameCoordinates,Original*
G04 #@! TF.FileFunction,Soldermask,Top*
G04 #@! TF.FilePolarity,Negative*
%FSLAX46Y46*%
G04 Gerber Fmt 4.6, Leading zero omitted, Abs format (unit mm)*
G04 Created by KiCad (PCBNEW 5.0.2-bee76a0~70~ubuntu18.04.1) date Thu 04 Apr 2019 22:51:14 BST*
%MOMM*%
%LPD*%
G01*
G04 APERTURE LIST*
%ADD10C,0.100000*%
G04 APERTURE END LIST*
D10*
G36*
X159306000Y-122551000D02*
X156454000Y-122551000D01*
X156454000Y-121449000D01*
X159306000Y-121449000D01*
X159306000Y-122551000D01*
X159306000Y-122551000D01*
G37*
G36*
X153546000Y-122551000D02*
X150694000Y-122551000D01*
X150694000Y-121449000D01*
X153546000Y-121449000D01*
X153546000Y-122551000D01*
X153546000Y-122551000D01*
G37*
G36*
X163551000Y-119306000D02*
X162449000Y-119306000D01*
X162449000Y-116454000D01*
X163551000Y-116454000D01*
X163551000Y-119306000D01*
X163551000Y-119306000D01*
G37*
G36*
X167551000Y-119306000D02*
X166449000Y-119306000D01*
X166449000Y-116454000D01*
X167551000Y-116454000D01*
X167551000Y-119306000D01*
X167551000Y-119306000D01*
G37*
G36*
X143551000Y-119306000D02*
X142449000Y-119306000D01*
X142449000Y-116454000D01*
X143551000Y-116454000D01*
X143551000Y-119306000D01*
X143551000Y-119306000D01*
G37*
G36*
X147551000Y-119306000D02*
X146449000Y-119306000D01*
X146449000Y-116454000D01*
X147551000Y-116454000D01*
X147551000Y-119306000D01*
X147551000Y-119306000D01*
G37*
G36*
X125190443Y-117205519D02*
X125256627Y-117212037D01*
X125369853Y-117246384D01*
X125426467Y-117263557D01*
X125565087Y-117337652D01*
X125582991Y-117347222D01*
X125618729Y-117376552D01*
X125720186Y-117459814D01*
X125803448Y-117561271D01*
X125832778Y-117597009D01*
X125832779Y-117597011D01*
X125916443Y-117753533D01*
X125916443Y-117753534D01*
X125967963Y-117923373D01*
X125985359Y-118100000D01*
X125967963Y-118276627D01*
X125933616Y-118389853D01*
X125916443Y-118446467D01*
X125860568Y-118551000D01*
X125832778Y-118602991D01*
X125803448Y-118638729D01*
X125720186Y-118740186D01*
X125618729Y-118823448D01*
X125582991Y-118852778D01*
X125582989Y-118852779D01*
X125426467Y-118936443D01*
X125369853Y-118953616D01*
X125256627Y-118987963D01*
X125190442Y-118994482D01*
X125124260Y-119001000D01*
X125035740Y-119001000D01*
X124969558Y-118994482D01*
X124903373Y-118987963D01*
X124790147Y-118953616D01*
X124733533Y-118936443D01*
X124577011Y-118852779D01*
X124577009Y-118852778D01*
X124541271Y-118823448D01*
X124439814Y-118740186D01*
X124356552Y-118638729D01*
X124327222Y-118602991D01*
X124299432Y-118551000D01*
X124243557Y-118446467D01*
X124226384Y-118389853D01*
X124192037Y-118276627D01*
X124174641Y-118100000D01*
X124192037Y-117923373D01*
X124243557Y-117753534D01*
X124243557Y-117753533D01*
X124327221Y-117597011D01*
X124327222Y-117597009D01*
X124356552Y-117561271D01*
X124439814Y-117459814D01*
X124541271Y-117376552D01*
X124577009Y-117347222D01*
X124594913Y-117337652D01*
X124733533Y-117263557D01*
X124790147Y-117246384D01*
X124903373Y-117212037D01*
X124969557Y-117205519D01*
X125035740Y-117199000D01*
X125124260Y-117199000D01*
X125190443Y-117205519D01*
X125190443Y-117205519D01*
G37*
G36*
X127730443Y-117205519D02*
X127796627Y-117212037D01*
X127909853Y-117246384D01*
X127966467Y-117263557D01*
X128105087Y-117337652D01*
X128122991Y-117347222D01*
X128158729Y-117376552D01*
X128260186Y-117459814D01*
X128343448Y-117561271D01*
X128372778Y-117597009D01*
X128372779Y-117597011D01*
X128456443Y-117753533D01*
X128456443Y-117753534D01*
X128507963Y-117923373D01*
X128525359Y-118100000D01*
X128507963Y-118276627D01*
X128473616Y-118389853D01*
X128456443Y-118446467D01*
X128400568Y-118551000D01*
X128372778Y-118602991D01*
X128343448Y-118638729D01*
X128260186Y-118740186D01*
X128158729Y-118823448D01*
X128122991Y-118852778D01*
X128122989Y-118852779D01*
X127966467Y-118936443D01*
X127909853Y-118953616D01*
X127796627Y-118987963D01*
X127730442Y-118994482D01*
X127664260Y-119001000D01*
X127575740Y-119001000D01*
X127509558Y-118994482D01*
X127443373Y-118987963D01*
X127330147Y-118953616D01*
X127273533Y-118936443D01*
X127117011Y-118852779D01*
X127117009Y-118852778D01*
X127081271Y-118823448D01*
X126979814Y-118740186D01*
X126896552Y-118638729D01*
X126867222Y-118602991D01*
X126839432Y-118551000D01*
X126783557Y-118446467D01*
X126766384Y-118389853D01*
X126732037Y-118276627D01*
X126714641Y-118100000D01*
X126732037Y-117923373D01*
X126783557Y-117753534D01*
X126783557Y-117753533D01*
X126867221Y-117597011D01*
X126867222Y-117597009D01*
X126896552Y-117561271D01*
X126979814Y-117459814D01*
X127081271Y-117376552D01*
X127117009Y-117347222D01*
X127134913Y-117337652D01*
X127273533Y-117263557D01*
X127330147Y-117246384D01*
X127443373Y-117212037D01*
X127509557Y-117205519D01*
X127575740Y-117199000D01*
X127664260Y-117199000D01*
X127730443Y-117205519D01*
X127730443Y-117205519D01*
G37*
G36*
X136650443Y-117205519D02*
X136716627Y-117212037D01*
X136829853Y-117246384D01*
X136886467Y-117263557D01*
X137025087Y-117337652D01*
X137042991Y-117347222D01*
X137078729Y-117376552D01*
X137180186Y-117459814D01*
X137263448Y-117561271D01*
X137292778Y-117597009D01*
X137292779Y-117597011D01*
X137376443Y-117753533D01*
X137376443Y-117753534D01*
X137427963Y-117923373D01*
X137445359Y-118100000D01*
X137427963Y-118276627D01*
X137393616Y-118389853D01*
X137376443Y-118446467D01*
X137320568Y-118551000D01*
X137292778Y-118602991D01*
X137263448Y-118638729D01*
X137180186Y-118740186D01*
X137078729Y-118823448D01*
X137042991Y-118852778D01*
X137042989Y-118852779D01*
X136886467Y-118936443D01*
X136829853Y-118953616D01*
X136716627Y-118987963D01*
X136650442Y-118994482D01*
X136584260Y-119001000D01*
X136495740Y-119001000D01*
X136429558Y-118994482D01*
X136363373Y-118987963D01*
X136250147Y-118953616D01*
X136193533Y-118936443D01*
X136037011Y-118852779D01*
X136037009Y-118852778D01*
X136001271Y-118823448D01*
X135899814Y-118740186D01*
X135816552Y-118638729D01*
X135787222Y-118602991D01*
X135759432Y-118551000D01*
X135703557Y-118446467D01*
X135686384Y-118389853D01*
X135652037Y-118276627D01*
X135634641Y-118100000D01*
X135652037Y-117923373D01*
X135703557Y-117753534D01*
X135703557Y-117753533D01*
X135787221Y-117597011D01*
X135787222Y-117597009D01*
X135816552Y-117561271D01*
X135899814Y-117459814D01*
X136001271Y-117376552D01*
X136037009Y-117347222D01*
X136054913Y-117337652D01*
X136193533Y-117263557D01*
X136250147Y-117246384D01*
X136363373Y-117212037D01*
X136429557Y-117205519D01*
X136495740Y-117199000D01*
X136584260Y-117199000D01*
X136650443Y-117205519D01*
X136650443Y-117205519D01*
G37*
G36*
X134110443Y-117205519D02*
X134176627Y-117212037D01*
X134289853Y-117246384D01*
X134346467Y-117263557D01*
X134485087Y-117337652D01*
X134502991Y-117347222D01*
X134538729Y-117376552D01*
X134640186Y-117459814D01*
X134723448Y-117561271D01*
X134752778Y-117597009D01*
X134752779Y-117597011D01*
X134836443Y-117753533D01*
X134836443Y-117753534D01*
X134887963Y-117923373D01*
X134905359Y-118100000D01*
X134887963Y-118276627D01*
X134853616Y-118389853D01*
X134836443Y-118446467D01*
X134780568Y-118551000D01*
X134752778Y-118602991D01*
X134723448Y-118638729D01*
X134640186Y-118740186D01*
X134538729Y-118823448D01*
X134502991Y-118852778D01*
X134502989Y-118852779D01*
X134346467Y-118936443D01*
X134289853Y-118953616D01*
X134176627Y-118987963D01*
X134110442Y-118994482D01*
X134044260Y-119001000D01*
X133955740Y-119001000D01*
X133889558Y-118994482D01*
X133823373Y-118987963D01*
X133710147Y-118953616D01*
X133653533Y-118936443D01*
X133497011Y-118852779D01*
X133497009Y-118852778D01*
X133461271Y-118823448D01*
X133359814Y-118740186D01*
X133276552Y-118638729D01*
X133247222Y-118602991D01*
X133219432Y-118551000D01*
X133163557Y-118446467D01*
X133146384Y-118389853D01*
X133112037Y-118276627D01*
X133094641Y-118100000D01*
X133112037Y-117923373D01*
X133163557Y-117753534D01*
X133163557Y-117753533D01*
X133247221Y-117597011D01*
X133247222Y-117597009D01*
X133276552Y-117561271D01*
X133359814Y-117459814D01*
X133461271Y-117376552D01*
X133497009Y-117347222D01*
X133514913Y-117337652D01*
X133653533Y-117263557D01*
X133710147Y-117246384D01*
X133823373Y-117212037D01*
X133889557Y-117205519D01*
X133955740Y-117199000D01*
X134044260Y-117199000D01*
X134110443Y-117205519D01*
X134110443Y-117205519D01*
G37*
G36*
X159306000Y-118551000D02*
X156454000Y-118551000D01*
X156454000Y-117449000D01*
X159306000Y-117449000D01*
X159306000Y-118551000D01*
X159306000Y-118551000D01*
G37*
G36*
X153546000Y-118551000D02*
X150694000Y-118551000D01*
X150694000Y-117449000D01*
X153546000Y-117449000D01*
X153546000Y-118551000D01*
X153546000Y-118551000D01*
G37*
G36*
X136650443Y-114665519D02*
X136716627Y-114672037D01*
X136829853Y-114706384D01*
X136886467Y-114723557D01*
X137025087Y-114797652D01*
X137042991Y-114807222D01*
X137078729Y-114836552D01*
X137180186Y-114919814D01*
X137263448Y-115021271D01*
X137292778Y-115057009D01*
X137292779Y-115057011D01*
X137376443Y-115213533D01*
X137376443Y-115213534D01*
X137427963Y-115383373D01*
X137445359Y-115560000D01*
X137427963Y-115736627D01*
X137393616Y-115849853D01*
X137376443Y-115906467D01*
X137302348Y-116045087D01*
X137292778Y-116062991D01*
X137263448Y-116098729D01*
X137180186Y-116200186D01*
X137078729Y-116283448D01*
X137042991Y-116312778D01*
X137042989Y-116312779D01*
X136886467Y-116396443D01*
X136829853Y-116413616D01*
X136716627Y-116447963D01*
X136655331Y-116454000D01*
X136584260Y-116461000D01*
X136495740Y-116461000D01*
X136424669Y-116454000D01*
X136363373Y-116447963D01*
X136250147Y-116413616D01*
X136193533Y-116396443D01*
X136037011Y-116312779D01*
X136037009Y-116312778D01*
X136001271Y-116283448D01*
X135899814Y-116200186D01*
X135816552Y-116098729D01*
X135787222Y-116062991D01*
X135777652Y-116045087D01*
X135703557Y-115906467D01*
X135686384Y-115849853D01*
X135652037Y-115736627D01*
X135634641Y-115560000D01*
X135652037Y-115383373D01*
X135703557Y-115213534D01*
X135703557Y-115213533D01*
X135787221Y-115057011D01*
X135787222Y-115057009D01*
X135816552Y-115021271D01*
X135899814Y-114919814D01*
X136001271Y-114836552D01*
X136037009Y-114807222D01*
X136054913Y-114797652D01*
X136193533Y-114723557D01*
X136250147Y-114706384D01*
X136363373Y-114672037D01*
X136429557Y-114665519D01*
X136495740Y-114659000D01*
X136584260Y-114659000D01*
X136650443Y-114665519D01*
X136650443Y-114665519D01*
G37*
G36*
X127730443Y-114665519D02*
X127796627Y-114672037D01*
X127909853Y-114706384D01*
X127966467Y-114723557D01*
X128105087Y-114797652D01*
X128122991Y-114807222D01*
X128158729Y-114836552D01*
X128260186Y-114919814D01*
X128343448Y-115021271D01*
X128372778Y-115057009D01*
X128372779Y-115057011D01*
X128456443Y-115213533D01*
X128456443Y-115213534D01*
X128507963Y-115383373D01*
X128525359Y-115560000D01*
X128507963Y-115736627D01*
X128473616Y-115849853D01*
X128456443Y-115906467D01*
X128382348Y-116045087D01*
X128372778Y-116062991D01*
X128343448Y-116098729D01*
X128260186Y-116200186D01*
X128158729Y-116283448D01*
X128122991Y-116312778D01*
X128122989Y-116312779D01*
X127966467Y-116396443D01*
X127909853Y-116413616D01*
X127796627Y-116447963D01*
X127735331Y-116454000D01*
X127664260Y-116461000D01*
X127575740Y-116461000D01*
X127504669Y-116454000D01*
X127443373Y-116447963D01*
X127330147Y-116413616D01*
X127273533Y-116396443D01*
X127117011Y-116312779D01*
X127117009Y-116312778D01*
X127081271Y-116283448D01*
X126979814Y-116200186D01*
X126896552Y-116098729D01*
X126867222Y-116062991D01*
X126857652Y-116045087D01*
X126783557Y-115906467D01*
X126766384Y-115849853D01*
X126732037Y-115736627D01*
X126714641Y-115560000D01*
X126732037Y-115383373D01*
X126783557Y-115213534D01*
X126783557Y-115213533D01*
X126867221Y-115057011D01*
X126867222Y-115057009D01*
X126896552Y-115021271D01*
X126979814Y-114919814D01*
X127081271Y-114836552D01*
X127117009Y-114807222D01*
X127134913Y-114797652D01*
X127273533Y-114723557D01*
X127330147Y-114706384D01*
X127443373Y-114672037D01*
X127509557Y-114665519D01*
X127575740Y-114659000D01*
X127664260Y-114659000D01*
X127730443Y-114665519D01*
X127730443Y-114665519D01*
G37*
G36*
X125190443Y-114665519D02*
X125256627Y-114672037D01*
X125369853Y-114706384D01*
X125426467Y-114723557D01*
X125565087Y-114797652D01*
X125582991Y-114807222D01*
X125618729Y-114836552D01*
X125720186Y-114919814D01*
X125803448Y-115021271D01*
X125832778Y-115057009D01*
X125832779Y-115057011D01*
X125916443Y-115213533D01*
X125916443Y-115213534D01*
X125967963Y-115383373D01*
X125985359Y-115560000D01*
X125967963Y-115736627D01*
X125933616Y-115849853D01*
X125916443Y-115906467D01*
X125842348Y-116045087D01*
X125832778Y-116062991D01*
X125803448Y-116098729D01*
X125720186Y-116200186D01*
X125618729Y-116283448D01*
X125582991Y-116312778D01*
X125582989Y-116312779D01*
X125426467Y-116396443D01*
X125369853Y-116413616D01*
X125256627Y-116447963D01*
X125195331Y-116454000D01*
X125124260Y-116461000D01*
X125035740Y-116461000D01*
X124964669Y-116454000D01*
X124903373Y-116447963D01*
X124790147Y-116413616D01*
X124733533Y-116396443D01*
X124577011Y-116312779D01*
X124577009Y-116312778D01*
X124541271Y-116283448D01*
X124439814Y-116200186D01*
X124356552Y-116098729D01*
X124327222Y-116062991D01*
X124317652Y-116045087D01*
X124243557Y-115906467D01*
X124226384Y-115849853D01*
X124192037Y-115736627D01*
X124174641Y-115560000D01*
X124192037Y-115383373D01*
X124243557Y-115213534D01*
X124243557Y-115213533D01*
X124327221Y-115057011D01*
X124327222Y-115057009D01*
X124356552Y-115021271D01*
X124439814Y-114919814D01*
X124541271Y-114836552D01*
X124577009Y-114807222D01*
X124594913Y-114797652D01*
X124733533Y-114723557D01*
X124790147Y-114706384D01*
X124903373Y-114672037D01*
X124969557Y-114665519D01*
X125035740Y-114659000D01*
X125124260Y-114659000D01*
X125190443Y-114665519D01*
X125190443Y-114665519D01*
G37*
G36*
X134110443Y-114665519D02*
X134176627Y-114672037D01*
X134289853Y-114706384D01*
X134346467Y-114723557D01*
X134485087Y-114797652D01*
X134502991Y-114807222D01*
X134538729Y-114836552D01*
X134640186Y-114919814D01*
X134723448Y-115021271D01*
X134752778Y-115057009D01*
X134752779Y-115057011D01*
X134836443Y-115213533D01*
X134836443Y-115213534D01*
X134887963Y-115383373D01*
X134905359Y-115560000D01*
X134887963Y-115736627D01*
X134853616Y-115849853D01*
X134836443Y-115906467D01*
X134762348Y-116045087D01*
X134752778Y-116062991D01*
X134723448Y-116098729D01*
X134640186Y-116200186D01*
X134538729Y-116283448D01*
X134502991Y-116312778D01*
X134502989Y-116312779D01*
X134346467Y-116396443D01*
X134289853Y-116413616D01*
X134176627Y-116447963D01*
X134115331Y-116454000D01*
X134044260Y-116461000D01*
X133955740Y-116461000D01*
X133884669Y-116454000D01*
X133823373Y-116447963D01*
X133710147Y-116413616D01*
X133653533Y-116396443D01*
X133497011Y-116312779D01*
X133497009Y-116312778D01*
X133461271Y-116283448D01*
X133359814Y-116200186D01*
X133276552Y-116098729D01*
X133247222Y-116062991D01*
X133237652Y-116045087D01*
X133163557Y-115906467D01*
X133146384Y-115849853D01*
X133112037Y-115736627D01*
X133094641Y-115560000D01*
X133112037Y-115383373D01*
X133163557Y-115213534D01*
X133163557Y-115213533D01*
X133247221Y-115057011D01*
X133247222Y-115057009D01*
X133276552Y-115021271D01*
X133359814Y-114919814D01*
X133461271Y-114836552D01*
X133497009Y-114807222D01*
X133514913Y-114797652D01*
X133653533Y-114723557D01*
X133710147Y-114706384D01*
X133823373Y-114672037D01*
X133889557Y-114665519D01*
X133955740Y-114659000D01*
X134044260Y-114659000D01*
X134110443Y-114665519D01*
X134110443Y-114665519D01*
G37*
G36*
X134110442Y-112125518D02*
X134176627Y-112132037D01*
X134289853Y-112166384D01*
X134346467Y-112183557D01*
X134485087Y-112257652D01*
X134502991Y-112267222D01*
X134538729Y-112296552D01*
X134640186Y-112379814D01*
X134723448Y-112481271D01*
X134752778Y-112517009D01*
X134752779Y-112517011D01*
X134836443Y-112673533D01*
X134836443Y-112673534D01*
X134887963Y-112843373D01*
X134905359Y-113020000D01*
X134887963Y-113196627D01*
X134853616Y-113309853D01*
X134836443Y-113366467D01*
X134762348Y-113505087D01*
X134752778Y-113522991D01*
X134733895Y-113546000D01*
X134640186Y-113660186D01*
X134538729Y-113743448D01*
X134502991Y-113772778D01*
X134502989Y-113772779D01*
X134346467Y-113856443D01*
X134289853Y-113873616D01*
X134176627Y-113907963D01*
X134110443Y-113914481D01*
X134044260Y-113921000D01*
X133955740Y-113921000D01*
X133889557Y-113914481D01*
X133823373Y-113907963D01*
X133710147Y-113873616D01*
X133653533Y-113856443D01*
X133497011Y-113772779D01*
X133497009Y-113772778D01*
X133461271Y-113743448D01*
X133359814Y-113660186D01*
X133266105Y-113546000D01*
X133247222Y-113522991D01*
X133237652Y-113505087D01*
X133163557Y-113366467D01*
X133146384Y-113309853D01*
X133112037Y-113196627D01*
X133094641Y-113020000D01*
X133112037Y-112843373D01*
X133163557Y-112673534D01*
X133163557Y-112673533D01*
X133247221Y-112517011D01*
X133247222Y-112517009D01*
X133276552Y-112481271D01*
X133359814Y-112379814D01*
X133461271Y-112296552D01*
X133497009Y-112267222D01*
X133514913Y-112257652D01*
X133653533Y-112183557D01*
X133710147Y-112166384D01*
X133823373Y-112132037D01*
X133889558Y-112125518D01*
X133955740Y-112119000D01*
X134044260Y-112119000D01*
X134110442Y-112125518D01*
X134110442Y-112125518D01*
G37*
G36*
X136650442Y-112125518D02*
X136716627Y-112132037D01*
X136829853Y-112166384D01*
X136886467Y-112183557D01*
X137025087Y-112257652D01*
X137042991Y-112267222D01*
X137078729Y-112296552D01*
X137180186Y-112379814D01*
X137263448Y-112481271D01*
X137292778Y-112517009D01*
X137292779Y-112517011D01*
X137376443Y-112673533D01*
X137376443Y-112673534D01*
X137427963Y-112843373D01*
X137445359Y-113020000D01*
X137427963Y-113196627D01*
X137393616Y-113309853D01*
X137376443Y-113366467D01*
X137302348Y-113505087D01*
X137292778Y-113522991D01*
X137273895Y-113546000D01*
X137180186Y-113660186D01*
X137078729Y-113743448D01*
X137042991Y-113772778D01*
X137042989Y-113772779D01*
X136886467Y-113856443D01*
X136829853Y-113873616D01*
X136716627Y-113907963D01*
X136650443Y-113914481D01*
X136584260Y-113921000D01*
X136495740Y-113921000D01*
X136429557Y-113914481D01*
X136363373Y-113907963D01*
X136250147Y-113873616D01*
X136193533Y-113856443D01*
X136037011Y-113772779D01*
X136037009Y-113772778D01*
X136001271Y-113743448D01*
X135899814Y-113660186D01*
X135806105Y-113546000D01*
X135787222Y-113522991D01*
X135777652Y-113505087D01*
X135703557Y-113366467D01*
X135686384Y-113309853D01*
X135652037Y-113196627D01*
X135634641Y-113020000D01*
X135652037Y-112843373D01*
X135703557Y-112673534D01*
X135703557Y-112673533D01*
X135787221Y-112517011D01*
X135787222Y-112517009D01*
X135816552Y-112481271D01*
X135899814Y-112379814D01*
X136001271Y-112296552D01*
X136037009Y-112267222D01*
X136054913Y-112257652D01*
X136193533Y-112183557D01*
X136250147Y-112166384D01*
X136363373Y-112132037D01*
X136429558Y-112125518D01*
X136495740Y-112119000D01*
X136584260Y-112119000D01*
X136650442Y-112125518D01*
X136650442Y-112125518D01*
G37*
G36*
X125190442Y-112125518D02*
X125256627Y-112132037D01*
X125369853Y-112166384D01*
X125426467Y-112183557D01*
X125565087Y-112257652D01*
X125582991Y-112267222D01*
X125618729Y-112296552D01*
X125720186Y-112379814D01*
X125803448Y-112481271D01*
X125832778Y-112517009D01*
X125832779Y-112517011D01*
X125916443Y-112673533D01*
X125916443Y-112673534D01*
X125967963Y-112843373D01*
X125985359Y-113020000D01*
X125967963Y-113196627D01*
X125933616Y-113309853D01*
X125916443Y-113366467D01*
X125842348Y-113505087D01*
X125832778Y-113522991D01*
X125813895Y-113546000D01*
X125720186Y-113660186D01*
X125618729Y-113743448D01*
X125582991Y-113772778D01*
X125582989Y-113772779D01*
X125426467Y-113856443D01*
X125369853Y-113873616D01*
X125256627Y-113907963D01*
X125190443Y-113914481D01*
X125124260Y-113921000D01*
X125035740Y-113921000D01*
X124969557Y-113914481D01*
X124903373Y-113907963D01*
X124790147Y-113873616D01*
X124733533Y-113856443D01*
X124577011Y-113772779D01*
X124577009Y-113772778D01*
X124541271Y-113743448D01*
X124439814Y-113660186D01*
X124346105Y-113546000D01*
X124327222Y-113522991D01*
X124317652Y-113505087D01*
X124243557Y-113366467D01*
X124226384Y-113309853D01*
X124192037Y-113196627D01*
X124174641Y-113020000D01*
X124192037Y-112843373D01*
X124243557Y-112673534D01*
X124243557Y-112673533D01*
X124327221Y-112517011D01*
X124327222Y-112517009D01*
X124356552Y-112481271D01*
X124439814Y-112379814D01*
X124541271Y-112296552D01*
X124577009Y-112267222D01*
X124594913Y-112257652D01*
X124733533Y-112183557D01*
X124790147Y-112166384D01*
X124903373Y-112132037D01*
X124969558Y-112125518D01*
X125035740Y-112119000D01*
X125124260Y-112119000D01*
X125190442Y-112125518D01*
X125190442Y-112125518D01*
G37*
G36*
X127730442Y-112125518D02*
X127796627Y-112132037D01*
X127909853Y-112166384D01*
X127966467Y-112183557D01*
X128105087Y-112257652D01*
X128122991Y-112267222D01*
X128158729Y-112296552D01*
X128260186Y-112379814D01*
X128343448Y-112481271D01*
X128372778Y-112517009D01*
X128372779Y-112517011D01*
X128456443Y-112673533D01*
X128456443Y-112673534D01*
X128507963Y-112843373D01*
X128525359Y-113020000D01*
X128507963Y-113196627D01*
X128473616Y-113309853D01*
X128456443Y-113366467D01*
X128382348Y-113505087D01*
X128372778Y-113522991D01*
X128353895Y-113546000D01*
X128260186Y-113660186D01*
X128158729Y-113743448D01*
X128122991Y-113772778D01*
X128122989Y-113772779D01*
X127966467Y-113856443D01*
X127909853Y-113873616D01*
X127796627Y-113907963D01*
X127730443Y-113914481D01*
X127664260Y-113921000D01*
X127575740Y-113921000D01*
X127509557Y-113914481D01*
X127443373Y-113907963D01*
X127330147Y-113873616D01*
X127273533Y-113856443D01*
X127117011Y-113772779D01*
X127117009Y-113772778D01*
X127081271Y-113743448D01*
X126979814Y-113660186D01*
X126886105Y-113546000D01*
X126867222Y-113522991D01*
X126857652Y-113505087D01*
X126783557Y-113366467D01*
X126766384Y-113309853D01*
X126732037Y-113196627D01*
X126714641Y-113020000D01*
X126732037Y-112843373D01*
X126783557Y-112673534D01*
X126783557Y-112673533D01*
X126867221Y-112517011D01*
X126867222Y-112517009D01*
X126896552Y-112481271D01*
X126979814Y-112379814D01*
X127081271Y-112296552D01*
X127117009Y-112267222D01*
X127134913Y-112257652D01*
X127273533Y-112183557D01*
X127330147Y-112166384D01*
X127443373Y-112132037D01*
X127509558Y-112125518D01*
X127575740Y-112119000D01*
X127664260Y-112119000D01*
X127730442Y-112125518D01*
X127730442Y-112125518D01*
G37*
G36*
X167551000Y-113546000D02*
X166449000Y-113546000D01*
X166449000Y-110694000D01*
X167551000Y-110694000D01*
X167551000Y-113546000D01*
X167551000Y-113546000D01*
G37*
G36*
X143551000Y-113546000D02*
X142449000Y-113546000D01*
X142449000Y-110694000D01*
X143551000Y-110694000D01*
X143551000Y-113546000D01*
X143551000Y-113546000D01*
G37*
G36*
X163551000Y-113546000D02*
X162449000Y-113546000D01*
X162449000Y-110694000D01*
X163551000Y-110694000D01*
X163551000Y-113546000D01*
X163551000Y-113546000D01*
G37*
G36*
X147551000Y-113546000D02*
X146449000Y-113546000D01*
X146449000Y-110694000D01*
X147551000Y-110694000D01*
X147551000Y-113546000D01*
X147551000Y-113546000D01*
G37*
G36*
X159306000Y-112551000D02*
X156454000Y-112551000D01*
X156454000Y-111449000D01*
X159306000Y-111449000D01*
X159306000Y-112551000D01*
X159306000Y-112551000D01*
G37*
G36*
X153546000Y-112551000D02*
X150694000Y-112551000D01*
X150694000Y-111449000D01*
X153546000Y-111449000D01*
X153546000Y-112551000D01*
X153546000Y-112551000D01*
G37*
G36*
X136650443Y-109585519D02*
X136716627Y-109592037D01*
X136829853Y-109626384D01*
X136886467Y-109643557D01*
X137025087Y-109717652D01*
X137042991Y-109727222D01*
X137078729Y-109756552D01*
X137180186Y-109839814D01*
X137263448Y-109941271D01*
X137292778Y-109977009D01*
X137292779Y-109977011D01*
X137376443Y-110133533D01*
X137376443Y-110133534D01*
X137427963Y-110303373D01*
X137445359Y-110480000D01*
X137427963Y-110656627D01*
X137416626Y-110694000D01*
X137376443Y-110826467D01*
X137302348Y-110965087D01*
X137292778Y-110982991D01*
X137263448Y-111018729D01*
X137180186Y-111120186D01*
X137078729Y-111203448D01*
X137042991Y-111232778D01*
X137042989Y-111232779D01*
X136886467Y-111316443D01*
X136829853Y-111333616D01*
X136716627Y-111367963D01*
X136650443Y-111374481D01*
X136584260Y-111381000D01*
X136495740Y-111381000D01*
X136429557Y-111374481D01*
X136363373Y-111367963D01*
X136250147Y-111333616D01*
X136193533Y-111316443D01*
X136037011Y-111232779D01*
X136037009Y-111232778D01*
X136001271Y-111203448D01*
X135899814Y-111120186D01*
X135816552Y-111018729D01*
X135787222Y-110982991D01*
X135777652Y-110965087D01*
X135703557Y-110826467D01*
X135663374Y-110694000D01*
X135652037Y-110656627D01*
X135634641Y-110480000D01*
X135652037Y-110303373D01*
X135703557Y-110133534D01*
X135703557Y-110133533D01*
X135787221Y-109977011D01*
X135787222Y-109977009D01*
X135816552Y-109941271D01*
X135899814Y-109839814D01*
X136001271Y-109756552D01*
X136037009Y-109727222D01*
X136054913Y-109717652D01*
X136193533Y-109643557D01*
X136250147Y-109626384D01*
X136363373Y-109592037D01*
X136429557Y-109585519D01*
X136495740Y-109579000D01*
X136584260Y-109579000D01*
X136650443Y-109585519D01*
X136650443Y-109585519D01*
G37*
G36*
X127730443Y-109585519D02*
X127796627Y-109592037D01*
X127909853Y-109626384D01*
X127966467Y-109643557D01*
X128105087Y-109717652D01*
X128122991Y-109727222D01*
X128158729Y-109756552D01*
X128260186Y-109839814D01*
X128343448Y-109941271D01*
X128372778Y-109977009D01*
X128372779Y-109977011D01*
X128456443Y-110133533D01*
X128456443Y-110133534D01*
X128507963Y-110303373D01*
X128525359Y-110480000D01*
X128507963Y-110656627D01*
X128496626Y-110694000D01*
X128456443Y-110826467D01*
X128382348Y-110965087D01*
X128372778Y-110982991D01*
X128343448Y-111018729D01*
X128260186Y-111120186D01*
X128158729Y-111203448D01*
X128122991Y-111232778D01*
X128122989Y-111232779D01*
X127966467Y-111316443D01*
X127909853Y-111333616D01*
X127796627Y-111367963D01*
X127730443Y-111374481D01*
X127664260Y-111381000D01*
X127575740Y-111381000D01*
X127509557Y-111374481D01*
X127443373Y-111367963D01*
X127330147Y-111333616D01*
X127273533Y-111316443D01*
X127117011Y-111232779D01*
X127117009Y-111232778D01*
X127081271Y-111203448D01*
X126979814Y-111120186D01*
X126896552Y-111018729D01*
X126867222Y-110982991D01*
X126857652Y-110965087D01*
X126783557Y-110826467D01*
X126743374Y-110694000D01*
X126732037Y-110656627D01*
X126714641Y-110480000D01*
X126732037Y-110303373D01*
X126783557Y-110133534D01*
X126783557Y-110133533D01*
X126867221Y-109977011D01*
X126867222Y-109977009D01*
X126896552Y-109941271D01*
X126979814Y-109839814D01*
X127081271Y-109756552D01*
X127117009Y-109727222D01*
X127134913Y-109717652D01*
X127273533Y-109643557D01*
X127330147Y-109626384D01*
X127443373Y-109592037D01*
X127509557Y-109585519D01*
X127575740Y-109579000D01*
X127664260Y-109579000D01*
X127730443Y-109585519D01*
X127730443Y-109585519D01*
G37*
G36*
X125190443Y-109585519D02*
X125256627Y-109592037D01*
X125369853Y-109626384D01*
X125426467Y-109643557D01*
X125565087Y-109717652D01*
X125582991Y-109727222D01*
X125618729Y-109756552D01*
X125720186Y-109839814D01*
X125803448Y-109941271D01*
X125832778Y-109977009D01*
X125832779Y-109977011D01*
X125916443Y-110133533D01*
X125916443Y-110133534D01*
X125967963Y-110303373D01*
X125985359Y-110480000D01*
X125967963Y-110656627D01*
X125956626Y-110694000D01*
X125916443Y-110826467D01*
X125842348Y-110965087D01*
X125832778Y-110982991D01*
X125803448Y-111018729D01*
X125720186Y-111120186D01*
X125618729Y-111203448D01*
X125582991Y-111232778D01*
X125582989Y-111232779D01*
X125426467Y-111316443D01*
X125369853Y-111333616D01*
X125256627Y-111367963D01*
X125190443Y-111374481D01*
X125124260Y-111381000D01*
X125035740Y-111381000D01*
X124969557Y-111374481D01*
X124903373Y-111367963D01*
X124790147Y-111333616D01*
X124733533Y-111316443D01*
X124577011Y-111232779D01*
X124577009Y-111232778D01*
X124541271Y-111203448D01*
X124439814Y-111120186D01*
X124356552Y-111018729D01*
X124327222Y-110982991D01*
X124317652Y-110965087D01*
X124243557Y-110826467D01*
X124203374Y-110694000D01*
X124192037Y-110656627D01*
X124174641Y-110480000D01*
X124192037Y-110303373D01*
X124243557Y-110133534D01*
X124243557Y-110133533D01*
X124327221Y-109977011D01*
X124327222Y-109977009D01*
X124356552Y-109941271D01*
X124439814Y-109839814D01*
X124541271Y-109756552D01*
X124577009Y-109727222D01*
X124594913Y-109717652D01*
X124733533Y-109643557D01*
X124790147Y-109626384D01*
X124903373Y-109592037D01*
X124969557Y-109585519D01*
X125035740Y-109579000D01*
X125124260Y-109579000D01*
X125190443Y-109585519D01*
X125190443Y-109585519D01*
G37*
G36*
X134110443Y-109585519D02*
X134176627Y-109592037D01*
X134289853Y-109626384D01*
X134346467Y-109643557D01*
X134485087Y-109717652D01*
X134502991Y-109727222D01*
X134538729Y-109756552D01*
X134640186Y-109839814D01*
X134723448Y-109941271D01*
X134752778Y-109977009D01*
X134752779Y-109977011D01*
X134836443Y-110133533D01*
X134836443Y-110133534D01*
X134887963Y-110303373D01*
X134905359Y-110480000D01*
X134887963Y-110656627D01*
X134876626Y-110694000D01*
X134836443Y-110826467D01*
X134762348Y-110965087D01*
X134752778Y-110982991D01*
X134723448Y-111018729D01*
X134640186Y-111120186D01*
X134538729Y-111203448D01*
X134502991Y-111232778D01*
X134502989Y-111232779D01*
X134346467Y-111316443D01*
X134289853Y-111333616D01*
X134176627Y-111367963D01*
X134110443Y-111374481D01*
X134044260Y-111381000D01*
X133955740Y-111381000D01*
X133889557Y-111374481D01*
X133823373Y-111367963D01*
X133710147Y-111333616D01*
X133653533Y-111316443D01*
X133497011Y-111232779D01*
X133497009Y-111232778D01*
X133461271Y-111203448D01*
X133359814Y-111120186D01*
X133276552Y-111018729D01*
X133247222Y-110982991D01*
X133237652Y-110965087D01*
X133163557Y-110826467D01*
X133123374Y-110694000D01*
X133112037Y-110656627D01*
X133094641Y-110480000D01*
X133112037Y-110303373D01*
X133163557Y-110133534D01*
X133163557Y-110133533D01*
X133247221Y-109977011D01*
X133247222Y-109977009D01*
X133276552Y-109941271D01*
X133359814Y-109839814D01*
X133461271Y-109756552D01*
X133497009Y-109727222D01*
X133514913Y-109717652D01*
X133653533Y-109643557D01*
X133710147Y-109626384D01*
X133823373Y-109592037D01*
X133889557Y-109585519D01*
X133955740Y-109579000D01*
X134044260Y-109579000D01*
X134110443Y-109585519D01*
X134110443Y-109585519D01*
G37*
G36*
X136650442Y-107045518D02*
X136716627Y-107052037D01*
X136829853Y-107086384D01*
X136886467Y-107103557D01*
X137025087Y-107177652D01*
X137042991Y-107187222D01*
X137078729Y-107216552D01*
X137180186Y-107299814D01*
X137263448Y-107401271D01*
X137292778Y-107437009D01*
X137292779Y-107437011D01*
X137376443Y-107593533D01*
X137376443Y-107593534D01*
X137427963Y-107763373D01*
X137445359Y-107940000D01*
X137427963Y-108116627D01*
X137393616Y-108229853D01*
X137376443Y-108286467D01*
X137302348Y-108425087D01*
X137292778Y-108442991D01*
X137263448Y-108478729D01*
X137180186Y-108580186D01*
X137078729Y-108663448D01*
X137042991Y-108692778D01*
X137042989Y-108692779D01*
X136886467Y-108776443D01*
X136829853Y-108793616D01*
X136716627Y-108827963D01*
X136650442Y-108834482D01*
X136584260Y-108841000D01*
X136495740Y-108841000D01*
X136429558Y-108834482D01*
X136363373Y-108827963D01*
X136250147Y-108793616D01*
X136193533Y-108776443D01*
X136037011Y-108692779D01*
X136037009Y-108692778D01*
X136001271Y-108663448D01*
X135899814Y-108580186D01*
X135816552Y-108478729D01*
X135787222Y-108442991D01*
X135777652Y-108425087D01*
X135703557Y-108286467D01*
X135686384Y-108229853D01*
X135652037Y-108116627D01*
X135634641Y-107940000D01*
X135652037Y-107763373D01*
X135703557Y-107593534D01*
X135703557Y-107593533D01*
X135787221Y-107437011D01*
X135787222Y-107437009D01*
X135816552Y-107401271D01*
X135899814Y-107299814D01*
X136001271Y-107216552D01*
X136037009Y-107187222D01*
X136054913Y-107177652D01*
X136193533Y-107103557D01*
X136250147Y-107086384D01*
X136363373Y-107052037D01*
X136429558Y-107045518D01*
X136495740Y-107039000D01*
X136584260Y-107039000D01*
X136650442Y-107045518D01*
X136650442Y-107045518D01*
G37*
G36*
X134110442Y-107045518D02*
X134176627Y-107052037D01*
X134289853Y-107086384D01*
X134346467Y-107103557D01*
X134485087Y-107177652D01*
X134502991Y-107187222D01*
X134538729Y-107216552D01*
X134640186Y-107299814D01*
X134723448Y-107401271D01*
X134752778Y-107437009D01*
X134752779Y-107437011D01*
X134836443Y-107593533D01*
X134836443Y-107593534D01*
X134887963Y-107763373D01*
X134905359Y-107940000D01*
X134887963Y-108116627D01*
X134853616Y-108229853D01*
X134836443Y-108286467D01*
X134762348Y-108425087D01*
X134752778Y-108442991D01*
X134723448Y-108478729D01*
X134640186Y-108580186D01*
X134538729Y-108663448D01*
X134502991Y-108692778D01*
X134502989Y-108692779D01*
X134346467Y-108776443D01*
X134289853Y-108793616D01*
X134176627Y-108827963D01*
X134110442Y-108834482D01*
X134044260Y-108841000D01*
X133955740Y-108841000D01*
X133889558Y-108834482D01*
X133823373Y-108827963D01*
X133710147Y-108793616D01*
X133653533Y-108776443D01*
X133497011Y-108692779D01*
X133497009Y-108692778D01*
X133461271Y-108663448D01*
X133359814Y-108580186D01*
X133276552Y-108478729D01*
X133247222Y-108442991D01*
X133237652Y-108425087D01*
X133163557Y-108286467D01*
X133146384Y-108229853D01*
X133112037Y-108116627D01*
X133094641Y-107940000D01*
X133112037Y-107763373D01*
X133163557Y-107593534D01*
X133163557Y-107593533D01*
X133247221Y-107437011D01*
X133247222Y-107437009D01*
X133276552Y-107401271D01*
X133359814Y-107299814D01*
X133461271Y-107216552D01*
X133497009Y-107187222D01*
X133514913Y-107177652D01*
X133653533Y-107103557D01*
X133710147Y-107086384D01*
X133823373Y-107052037D01*
X133889558Y-107045518D01*
X133955740Y-107039000D01*
X134044260Y-107039000D01*
X134110442Y-107045518D01*
X134110442Y-107045518D01*
G37*
G36*
X127730442Y-107045518D02*
X127796627Y-107052037D01*
X127909853Y-107086384D01*
X127966467Y-107103557D01*
X128105087Y-107177652D01*
X128122991Y-107187222D01*
X128158729Y-107216552D01*
X128260186Y-107299814D01*
X128343448Y-107401271D01*
X128372778Y-107437009D01*
X128372779Y-107437011D01*
X128456443Y-107593533D01*
X128456443Y-107593534D01*
X128507963Y-107763373D01*
X128525359Y-107940000D01*
X128507963Y-108116627D01*
X128473616Y-108229853D01*
X128456443Y-108286467D01*
X128382348Y-108425087D01*
X128372778Y-108442991D01*
X128343448Y-108478729D01*
X128260186Y-108580186D01*
X128158729Y-108663448D01*
X128122991Y-108692778D01*
X128122989Y-108692779D01*
X127966467Y-108776443D01*
X127909853Y-108793616D01*
X127796627Y-108827963D01*
X127730442Y-108834482D01*
X127664260Y-108841000D01*
X127575740Y-108841000D01*
X127509558Y-108834482D01*
X127443373Y-108827963D01*
X127330147Y-108793616D01*
X127273533Y-108776443D01*
X127117011Y-108692779D01*
X127117009Y-108692778D01*
X127081271Y-108663448D01*
X126979814Y-108580186D01*
X126896552Y-108478729D01*
X126867222Y-108442991D01*
X126857652Y-108425087D01*
X126783557Y-108286467D01*
X126766384Y-108229853D01*
X126732037Y-108116627D01*
X126714641Y-107940000D01*
X126732037Y-107763373D01*
X126783557Y-107593534D01*
X126783557Y-107593533D01*
X126867221Y-107437011D01*
X126867222Y-107437009D01*
X126896552Y-107401271D01*
X126979814Y-107299814D01*
X127081271Y-107216552D01*
X127117009Y-107187222D01*
X127134913Y-107177652D01*
X127273533Y-107103557D01*
X127330147Y-107086384D01*
X127443373Y-107052037D01*
X127509558Y-107045518D01*
X127575740Y-107039000D01*
X127664260Y-107039000D01*
X127730442Y-107045518D01*
X127730442Y-107045518D01*
G37*
G36*
X125190442Y-107045518D02*
X125256627Y-107052037D01*
X125369853Y-107086384D01*
X125426467Y-107103557D01*
X125565087Y-107177652D01*
X125582991Y-107187222D01*
X125618729Y-107216552D01*
X125720186Y-107299814D01*
X125803448Y-107401271D01*
X125832778Y-107437009D01*
X125832779Y-107437011D01*
X125916443Y-107593533D01*
X125916443Y-107593534D01*
X125967963Y-107763373D01*
X125985359Y-107940000D01*
X125967963Y-108116627D01*
X125933616Y-108229853D01*
X125916443Y-108286467D01*
X125842348Y-108425087D01*
X125832778Y-108442991D01*
X125803448Y-108478729D01*
X125720186Y-108580186D01*
X125618729Y-108663448D01*
X125582991Y-108692778D01*
X125582989Y-108692779D01*
X125426467Y-108776443D01*
X125369853Y-108793616D01*
X125256627Y-108827963D01*
X125190442Y-108834482D01*
X125124260Y-108841000D01*
X125035740Y-108841000D01*
X124969558Y-108834482D01*
X124903373Y-108827963D01*
X124790147Y-108793616D01*
X124733533Y-108776443D01*
X124577011Y-108692779D01*
X124577009Y-108692778D01*
X124541271Y-108663448D01*
X124439814Y-108580186D01*
X124356552Y-108478729D01*
X124327222Y-108442991D01*
X124317652Y-108425087D01*
X124243557Y-108286467D01*
X124226384Y-108229853D01*
X124192037Y-108116627D01*
X124174641Y-107940000D01*
X124192037Y-107763373D01*
X124243557Y-107593534D01*
X124243557Y-107593533D01*
X124327221Y-107437011D01*
X124327222Y-107437009D01*
X124356552Y-107401271D01*
X124439814Y-107299814D01*
X124541271Y-107216552D01*
X124577009Y-107187222D01*
X124594913Y-107177652D01*
X124733533Y-107103557D01*
X124790147Y-107086384D01*
X124903373Y-107052037D01*
X124969558Y-107045518D01*
X125035740Y-107039000D01*
X125124260Y-107039000D01*
X125190442Y-107045518D01*
X125190442Y-107045518D01*
G37*
G36*
X159306000Y-108551000D02*
X156454000Y-108551000D01*
X156454000Y-107449000D01*
X159306000Y-107449000D01*
X159306000Y-108551000D01*
X159306000Y-108551000D01*
G37*
G36*
X153546000Y-108551000D02*
X150694000Y-108551000D01*
X150694000Y-107449000D01*
X153546000Y-107449000D01*
X153546000Y-108551000D01*
X153546000Y-108551000D01*
G37*
G36*
X167551000Y-107506000D02*
X166449000Y-107506000D01*
X166449000Y-104654000D01*
X167551000Y-104654000D01*
X167551000Y-107506000D01*
X167551000Y-107506000D01*
G37*
G36*
X163551000Y-107506000D02*
X162449000Y-107506000D01*
X162449000Y-104654000D01*
X163551000Y-104654000D01*
X163551000Y-107506000D01*
X163551000Y-107506000D01*
G37*
G36*
X136650443Y-104505519D02*
X136716627Y-104512037D01*
X136829853Y-104546384D01*
X136886467Y-104563557D01*
X137025087Y-104637652D01*
X137042991Y-104647222D01*
X137078729Y-104676552D01*
X137180186Y-104759814D01*
X137263448Y-104861271D01*
X137292778Y-104897009D01*
X137292779Y-104897011D01*
X137376443Y-105053533D01*
X137376443Y-105053534D01*
X137427963Y-105223373D01*
X137445359Y-105400000D01*
X137427963Y-105576627D01*
X137393616Y-105689853D01*
X137376443Y-105746467D01*
X137302348Y-105885087D01*
X137292778Y-105902991D01*
X137263448Y-105938729D01*
X137180186Y-106040186D01*
X137078729Y-106123448D01*
X137042991Y-106152778D01*
X137042989Y-106152779D01*
X136886467Y-106236443D01*
X136829853Y-106253616D01*
X136716627Y-106287963D01*
X136650442Y-106294482D01*
X136584260Y-106301000D01*
X136495740Y-106301000D01*
X136429558Y-106294482D01*
X136363373Y-106287963D01*
X136250147Y-106253616D01*
X136193533Y-106236443D01*
X136037011Y-106152779D01*
X136037009Y-106152778D01*
X136001271Y-106123448D01*
X135899814Y-106040186D01*
X135816552Y-105938729D01*
X135787222Y-105902991D01*
X135777652Y-105885087D01*
X135703557Y-105746467D01*
X135686384Y-105689853D01*
X135652037Y-105576627D01*
X135634641Y-105400000D01*
X135652037Y-105223373D01*
X135703557Y-105053534D01*
X135703557Y-105053533D01*
X135787221Y-104897011D01*
X135787222Y-104897009D01*
X135816552Y-104861271D01*
X135899814Y-104759814D01*
X136001271Y-104676552D01*
X136037009Y-104647222D01*
X136054913Y-104637652D01*
X136193533Y-104563557D01*
X136250147Y-104546384D01*
X136363373Y-104512037D01*
X136429557Y-104505519D01*
X136495740Y-104499000D01*
X136584260Y-104499000D01*
X136650443Y-104505519D01*
X136650443Y-104505519D01*
G37*
G36*
X134110443Y-104505519D02*
X134176627Y-104512037D01*
X134289853Y-104546384D01*
X134346467Y-104563557D01*
X134485087Y-104637652D01*
X134502991Y-104647222D01*
X134538729Y-104676552D01*
X134640186Y-104759814D01*
X134723448Y-104861271D01*
X134752778Y-104897009D01*
X134752779Y-104897011D01*
X134836443Y-105053533D01*
X134836443Y-105053534D01*
X134887963Y-105223373D01*
X134905359Y-105400000D01*
X134887963Y-105576627D01*
X134853616Y-105689853D01*
X134836443Y-105746467D01*
X134762348Y-105885087D01*
X134752778Y-105902991D01*
X134723448Y-105938729D01*
X134640186Y-106040186D01*
X134538729Y-106123448D01*
X134502991Y-106152778D01*
X134502989Y-106152779D01*
X134346467Y-106236443D01*
X134289853Y-106253616D01*
X134176627Y-106287963D01*
X134110442Y-106294482D01*
X134044260Y-106301000D01*
X133955740Y-106301000D01*
X133889558Y-106294482D01*
X133823373Y-106287963D01*
X133710147Y-106253616D01*
X133653533Y-106236443D01*
X133497011Y-106152779D01*
X133497009Y-106152778D01*
X133461271Y-106123448D01*
X133359814Y-106040186D01*
X133276552Y-105938729D01*
X133247222Y-105902991D01*
X133237652Y-105885087D01*
X133163557Y-105746467D01*
X133146384Y-105689853D01*
X133112037Y-105576627D01*
X133094641Y-105400000D01*
X133112037Y-105223373D01*
X133163557Y-105053534D01*
X133163557Y-105053533D01*
X133247221Y-104897011D01*
X133247222Y-104897009D01*
X133276552Y-104861271D01*
X133359814Y-104759814D01*
X133461271Y-104676552D01*
X133497009Y-104647222D01*
X133514913Y-104637652D01*
X133653533Y-104563557D01*
X133710147Y-104546384D01*
X133823373Y-104512037D01*
X133889557Y-104505519D01*
X133955740Y-104499000D01*
X134044260Y-104499000D01*
X134110443Y-104505519D01*
X134110443Y-104505519D01*
G37*
G36*
X125190443Y-104505519D02*
X125256627Y-104512037D01*
X125369853Y-104546384D01*
X125426467Y-104563557D01*
X125565087Y-104637652D01*
X125582991Y-104647222D01*
X125618729Y-104676552D01*
X125720186Y-104759814D01*
X125803448Y-104861271D01*
X125832778Y-104897009D01*
X125832779Y-104897011D01*
X125916443Y-105053533D01*
X125916443Y-105053534D01*
X125967963Y-105223373D01*
X125985359Y-105400000D01*
X125967963Y-105576627D01*
X125933616Y-105689853D01*
X125916443Y-105746467D01*
X125842348Y-105885087D01*
X125832778Y-105902991D01*
X125803448Y-105938729D01*
X125720186Y-106040186D01*
X125618729Y-106123448D01*
X125582991Y-106152778D01*
X125582989Y-106152779D01*
X125426467Y-106236443D01*
X125369853Y-106253616D01*
X125256627Y-106287963D01*
X125190442Y-106294482D01*
X125124260Y-106301000D01*
X125035740Y-106301000D01*
X124969558Y-106294482D01*
X124903373Y-106287963D01*
X124790147Y-106253616D01*
X124733533Y-106236443D01*
X124577011Y-106152779D01*
X124577009Y-106152778D01*
X124541271Y-106123448D01*
X124439814Y-106040186D01*
X124356552Y-105938729D01*
X124327222Y-105902991D01*
X124317652Y-105885087D01*
X124243557Y-105746467D01*
X124226384Y-105689853D01*
X124192037Y-105576627D01*
X124174641Y-105400000D01*
X124192037Y-105223373D01*
X124243557Y-105053534D01*
X124243557Y-105053533D01*
X124327221Y-104897011D01*
X124327222Y-104897009D01*
X124356552Y-104861271D01*
X124439814Y-104759814D01*
X124541271Y-104676552D01*
X124577009Y-104647222D01*
X124594913Y-104637652D01*
X124733533Y-104563557D01*
X124790147Y-104546384D01*
X124903373Y-104512037D01*
X124969557Y-104505519D01*
X125035740Y-104499000D01*
X125124260Y-104499000D01*
X125190443Y-104505519D01*
X125190443Y-104505519D01*
G37*
G36*
X127730443Y-104505519D02*
X127796627Y-104512037D01*
X127909853Y-104546384D01*
X127966467Y-104563557D01*
X128105087Y-104637652D01*
X128122991Y-104647222D01*
X128158729Y-104676552D01*
X128260186Y-104759814D01*
X128343448Y-104861271D01*
X128372778Y-104897009D01*
X128372779Y-104897011D01*
X128456443Y-105053533D01*
X128456443Y-105053534D01*
X128507963Y-105223373D01*
X128525359Y-105400000D01*
X128507963Y-105576627D01*
X128473616Y-105689853D01*
X128456443Y-105746467D01*
X128382348Y-105885087D01*
X128372778Y-105902991D01*
X128343448Y-105938729D01*
X128260186Y-106040186D01*
X128158729Y-106123448D01*
X128122991Y-106152778D01*
X128122989Y-106152779D01*
X127966467Y-106236443D01*
X127909853Y-106253616D01*
X127796627Y-106287963D01*
X127730442Y-106294482D01*
X127664260Y-106301000D01*
X127575740Y-106301000D01*
X127509558Y-106294482D01*
X127443373Y-106287963D01*
X127330147Y-106253616D01*
X127273533Y-106236443D01*
X127117011Y-106152779D01*
X127117009Y-106152778D01*
X127081271Y-106123448D01*
X126979814Y-106040186D01*
X126896552Y-105938729D01*
X126867222Y-105902991D01*
X126857652Y-105885087D01*
X126783557Y-105746467D01*
X126766384Y-105689853D01*
X126732037Y-105576627D01*
X126714641Y-105400000D01*
X126732037Y-105223373D01*
X126783557Y-105053534D01*
X126783557Y-105053533D01*
X126867221Y-104897011D01*
X126867222Y-104897009D01*
X126896552Y-104861271D01*
X126979814Y-104759814D01*
X127081271Y-104676552D01*
X127117009Y-104647222D01*
X127134913Y-104637652D01*
X127273533Y-104563557D01*
X127330147Y-104546384D01*
X127443373Y-104512037D01*
X127509557Y-104505519D01*
X127575740Y-104499000D01*
X127664260Y-104499000D01*
X127730443Y-104505519D01*
X127730443Y-104505519D01*
G37*
G36*
X125190442Y-101965518D02*
X125256627Y-101972037D01*
X125369853Y-102006384D01*
X125426467Y-102023557D01*
X125565087Y-102097652D01*
X125582991Y-102107222D01*
X125618729Y-102136552D01*
X125720186Y-102219814D01*
X125803448Y-102321271D01*
X125832778Y-102357009D01*
X125832779Y-102357011D01*
X125916443Y-102513533D01*
X125916443Y-102513534D01*
X125967963Y-102683373D01*
X125985359Y-102860000D01*
X125967963Y-103036627D01*
X125933616Y-103149853D01*
X125916443Y-103206467D01*
X125842348Y-103345087D01*
X125832778Y-103362991D01*
X125803448Y-103398729D01*
X125720186Y-103500186D01*
X125618729Y-103583448D01*
X125582991Y-103612778D01*
X125582989Y-103612779D01*
X125426467Y-103696443D01*
X125369853Y-103713616D01*
X125256627Y-103747963D01*
X125190442Y-103754482D01*
X125124260Y-103761000D01*
X125035740Y-103761000D01*
X124969558Y-103754482D01*
X124903373Y-103747963D01*
X124790147Y-103713616D01*
X124733533Y-103696443D01*
X124577011Y-103612779D01*
X124577009Y-103612778D01*
X124541271Y-103583448D01*
X124439814Y-103500186D01*
X124356552Y-103398729D01*
X124327222Y-103362991D01*
X124317652Y-103345087D01*
X124243557Y-103206467D01*
X124226384Y-103149853D01*
X124192037Y-103036627D01*
X124174641Y-102860000D01*
X124192037Y-102683373D01*
X124243557Y-102513534D01*
X124243557Y-102513533D01*
X124327221Y-102357011D01*
X124327222Y-102357009D01*
X124356552Y-102321271D01*
X124439814Y-102219814D01*
X124541271Y-102136552D01*
X124577009Y-102107222D01*
X124594913Y-102097652D01*
X124733533Y-102023557D01*
X124790147Y-102006384D01*
X124903373Y-101972037D01*
X124969557Y-101965519D01*
X125035740Y-101959000D01*
X125124260Y-101959000D01*
X125190442Y-101965518D01*
X125190442Y-101965518D01*
G37*
G36*
X127730442Y-101965518D02*
X127796627Y-101972037D01*
X127909853Y-102006384D01*
X127966467Y-102023557D01*
X128105087Y-102097652D01*
X128122991Y-102107222D01*
X128158729Y-102136552D01*
X128260186Y-102219814D01*
X128343448Y-102321271D01*
X128372778Y-102357009D01*
X128372779Y-102357011D01*
X128456443Y-102513533D01*
X128456443Y-102513534D01*
X128507963Y-102683373D01*
X128525359Y-102860000D01*
X128507963Y-103036627D01*
X128473616Y-103149853D01*
X128456443Y-103206467D01*
X128382348Y-103345087D01*
X128372778Y-103362991D01*
X128343448Y-103398729D01*
X128260186Y-103500186D01*
X128158729Y-103583448D01*
X128122991Y-103612778D01*
X128122989Y-103612779D01*
X127966467Y-103696443D01*
X127909853Y-103713616D01*
X127796627Y-103747963D01*
X127730442Y-103754482D01*
X127664260Y-103761000D01*
X127575740Y-103761000D01*
X127509558Y-103754482D01*
X127443373Y-103747963D01*
X127330147Y-103713616D01*
X127273533Y-103696443D01*
X127117011Y-103612779D01*
X127117009Y-103612778D01*
X127081271Y-103583448D01*
X126979814Y-103500186D01*
X126896552Y-103398729D01*
X126867222Y-103362991D01*
X126857652Y-103345087D01*
X126783557Y-103206467D01*
X126766384Y-103149853D01*
X126732037Y-103036627D01*
X126714641Y-102860000D01*
X126732037Y-102683373D01*
X126783557Y-102513534D01*
X126783557Y-102513533D01*
X126867221Y-102357011D01*
X126867222Y-102357009D01*
X126896552Y-102321271D01*
X126979814Y-102219814D01*
X127081271Y-102136552D01*
X127117009Y-102107222D01*
X127134913Y-102097652D01*
X127273533Y-102023557D01*
X127330147Y-102006384D01*
X127443373Y-101972037D01*
X127509557Y-101965519D01*
X127575740Y-101959000D01*
X127664260Y-101959000D01*
X127730442Y-101965518D01*
X127730442Y-101965518D01*
G37*
G36*
X136650442Y-101965518D02*
X136716627Y-101972037D01*
X136829853Y-102006384D01*
X136886467Y-102023557D01*
X137025087Y-102097652D01*
X137042991Y-102107222D01*
X137078729Y-102136552D01*
X137180186Y-102219814D01*
X137263448Y-102321271D01*
X137292778Y-102357009D01*
X137292779Y-102357011D01*
X137376443Y-102513533D01*
X137376443Y-102513534D01*
X137427963Y-102683373D01*
X137445359Y-102860000D01*
X137427963Y-103036627D01*
X137393616Y-103149853D01*
X137376443Y-103206467D01*
X137302348Y-103345087D01*
X137292778Y-103362991D01*
X137263448Y-103398729D01*
X137180186Y-103500186D01*
X137078729Y-103583448D01*
X137042991Y-103612778D01*
X137042989Y-103612779D01*
X136886467Y-103696443D01*
X136829853Y-103713616D01*
X136716627Y-103747963D01*
X136650442Y-103754482D01*
X136584260Y-103761000D01*
X136495740Y-103761000D01*
X136429558Y-103754482D01*
X136363373Y-103747963D01*
X136250147Y-103713616D01*
X136193533Y-103696443D01*
X136037011Y-103612779D01*
X136037009Y-103612778D01*
X136001271Y-103583448D01*
X135899814Y-103500186D01*
X135816552Y-103398729D01*
X135787222Y-103362991D01*
X135777652Y-103345087D01*
X135703557Y-103206467D01*
X135686384Y-103149853D01*
X135652037Y-103036627D01*
X135634641Y-102860000D01*
X135652037Y-102683373D01*
X135703557Y-102513534D01*
X135703557Y-102513533D01*
X135787221Y-102357011D01*
X135787222Y-102357009D01*
X135816552Y-102321271D01*
X135899814Y-102219814D01*
X136001271Y-102136552D01*
X136037009Y-102107222D01*
X136054913Y-102097652D01*
X136193533Y-102023557D01*
X136250147Y-102006384D01*
X136363373Y-101972037D01*
X136429557Y-101965519D01*
X136495740Y-101959000D01*
X136584260Y-101959000D01*
X136650442Y-101965518D01*
X136650442Y-101965518D01*
G37*
G36*
X134110442Y-101965518D02*
X134176627Y-101972037D01*
X134289853Y-102006384D01*
X134346467Y-102023557D01*
X134485087Y-102097652D01*
X134502991Y-102107222D01*
X134538729Y-102136552D01*
X134640186Y-102219814D01*
X134723448Y-102321271D01*
X134752778Y-102357009D01*
X134752779Y-102357011D01*
X134836443Y-102513533D01*
X134836443Y-102513534D01*
X134887963Y-102683373D01*
X134905359Y-102860000D01*
X134887963Y-103036627D01*
X134853616Y-103149853D01*
X134836443Y-103206467D01*
X134762348Y-103345087D01*
X134752778Y-103362991D01*
X134723448Y-103398729D01*
X134640186Y-103500186D01*
X134538729Y-103583448D01*
X134502991Y-103612778D01*
X134502989Y-103612779D01*
X134346467Y-103696443D01*
X134289853Y-103713616D01*
X134176627Y-103747963D01*
X134110442Y-103754482D01*
X134044260Y-103761000D01*
X133955740Y-103761000D01*
X133889558Y-103754482D01*
X133823373Y-103747963D01*
X133710147Y-103713616D01*
X133653533Y-103696443D01*
X133497011Y-103612779D01*
X133497009Y-103612778D01*
X133461271Y-103583448D01*
X133359814Y-103500186D01*
X133276552Y-103398729D01*
X133247222Y-103362991D01*
X133237652Y-103345087D01*
X133163557Y-103206467D01*
X133146384Y-103149853D01*
X133112037Y-103036627D01*
X133094641Y-102860000D01*
X133112037Y-102683373D01*
X133163557Y-102513534D01*
X133163557Y-102513533D01*
X133247221Y-102357011D01*
X133247222Y-102357009D01*
X133276552Y-102321271D01*
X133359814Y-102219814D01*
X133461271Y-102136552D01*
X133497009Y-102107222D01*
X133514913Y-102097652D01*
X133653533Y-102023557D01*
X133710147Y-102006384D01*
X133823373Y-101972037D01*
X133889557Y-101965519D01*
X133955740Y-101959000D01*
X134044260Y-101959000D01*
X134110442Y-101965518D01*
X134110442Y-101965518D01*
G37*
G36*
X167551000Y-101746000D02*
X166449000Y-101746000D01*
X166449000Y-98894000D01*
X167551000Y-98894000D01*
X167551000Y-101746000D01*
X167551000Y-101746000D01*
G37*
G36*
X163551000Y-101746000D02*
X162449000Y-101746000D01*
X162449000Y-98894000D01*
X163551000Y-98894000D01*
X163551000Y-101746000D01*
X163551000Y-101746000D01*
G37*
G36*
X134110443Y-99425519D02*
X134176627Y-99432037D01*
X134289853Y-99466384D01*
X134346467Y-99483557D01*
X134485087Y-99557652D01*
X134502991Y-99567222D01*
X134538729Y-99596552D01*
X134640186Y-99679814D01*
X134723448Y-99781271D01*
X134752778Y-99817009D01*
X134752779Y-99817011D01*
X134836443Y-99973533D01*
X134836443Y-99973534D01*
X134887963Y-100143373D01*
X134905359Y-100320000D01*
X134887963Y-100496627D01*
X134853616Y-100609853D01*
X134836443Y-100666467D01*
X134762348Y-100805087D01*
X134752778Y-100822991D01*
X134723448Y-100858729D01*
X134640186Y-100960186D01*
X134538729Y-101043448D01*
X134502991Y-101072778D01*
X134502989Y-101072779D01*
X134346467Y-101156443D01*
X134289853Y-101173616D01*
X134176627Y-101207963D01*
X134110442Y-101214482D01*
X134044260Y-101221000D01*
X133955740Y-101221000D01*
X133889558Y-101214482D01*
X133823373Y-101207963D01*
X133710147Y-101173616D01*
X133653533Y-101156443D01*
X133497011Y-101072779D01*
X133497009Y-101072778D01*
X133461271Y-101043448D01*
X133359814Y-100960186D01*
X133276552Y-100858729D01*
X133247222Y-100822991D01*
X133237652Y-100805087D01*
X133163557Y-100666467D01*
X133146384Y-100609853D01*
X133112037Y-100496627D01*
X133094641Y-100320000D01*
X133112037Y-100143373D01*
X133163557Y-99973534D01*
X133163557Y-99973533D01*
X133247221Y-99817011D01*
X133247222Y-99817009D01*
X133276552Y-99781271D01*
X133359814Y-99679814D01*
X133461271Y-99596552D01*
X133497009Y-99567222D01*
X133514913Y-99557652D01*
X133653533Y-99483557D01*
X133710147Y-99466384D01*
X133823373Y-99432037D01*
X133889557Y-99425519D01*
X133955740Y-99419000D01*
X134044260Y-99419000D01*
X134110443Y-99425519D01*
X134110443Y-99425519D01*
G37*
G36*
X136650443Y-99425519D02*
X136716627Y-99432037D01*
X136829853Y-99466384D01*
X136886467Y-99483557D01*
X137025087Y-99557652D01*
X137042991Y-99567222D01*
X137078729Y-99596552D01*
X137180186Y-99679814D01*
X137263448Y-99781271D01*
X137292778Y-99817009D01*
X137292779Y-99817011D01*
X137376443Y-99973533D01*
X137376443Y-99973534D01*
X137427963Y-100143373D01*
X137445359Y-100320000D01*
X137427963Y-100496627D01*
X137393616Y-100609853D01*
X137376443Y-100666467D01*
X137302348Y-100805087D01*
X137292778Y-100822991D01*
X137263448Y-100858729D01*
X137180186Y-100960186D01*
X137078729Y-101043448D01*
X137042991Y-101072778D01*
X137042989Y-101072779D01*
X136886467Y-101156443D01*
X136829853Y-101173616D01*
X136716627Y-101207963D01*
X136650442Y-101214482D01*
X136584260Y-101221000D01*
X136495740Y-101221000D01*
X136429558Y-101214482D01*
X136363373Y-101207963D01*
X136250147Y-101173616D01*
X136193533Y-101156443D01*
X136037011Y-101072779D01*
X136037009Y-101072778D01*
X136001271Y-101043448D01*
X135899814Y-100960186D01*
X135816552Y-100858729D01*
X135787222Y-100822991D01*
X135777652Y-100805087D01*
X135703557Y-100666467D01*
X135686384Y-100609853D01*
X135652037Y-100496627D01*
X135634641Y-100320000D01*
X135652037Y-100143373D01*
X135703557Y-99973534D01*
X135703557Y-99973533D01*
X135787221Y-99817011D01*
X135787222Y-99817009D01*
X135816552Y-99781271D01*
X135899814Y-99679814D01*
X136001271Y-99596552D01*
X136037009Y-99567222D01*
X136054913Y-99557652D01*
X136193533Y-99483557D01*
X136250147Y-99466384D01*
X136363373Y-99432037D01*
X136429557Y-99425519D01*
X136495740Y-99419000D01*
X136584260Y-99419000D01*
X136650443Y-99425519D01*
X136650443Y-99425519D01*
G37*
G36*
X127730443Y-99425519D02*
X127796627Y-99432037D01*
X127909853Y-99466384D01*
X127966467Y-99483557D01*
X128105087Y-99557652D01*
X128122991Y-99567222D01*
X128158729Y-99596552D01*
X128260186Y-99679814D01*
X128343448Y-99781271D01*
X128372778Y-99817009D01*
X128372779Y-99817011D01*
X128456443Y-99973533D01*
X128456443Y-99973534D01*
X128507963Y-100143373D01*
X128525359Y-100320000D01*
X128507963Y-100496627D01*
X128473616Y-100609853D01*
X128456443Y-100666467D01*
X128382348Y-100805087D01*
X128372778Y-100822991D01*
X128343448Y-100858729D01*
X128260186Y-100960186D01*
X128158729Y-101043448D01*
X128122991Y-101072778D01*
X128122989Y-101072779D01*
X127966467Y-101156443D01*
X127909853Y-101173616D01*
X127796627Y-101207963D01*
X127730442Y-101214482D01*
X127664260Y-101221000D01*
X127575740Y-101221000D01*
X127509558Y-101214482D01*
X127443373Y-101207963D01*
X127330147Y-101173616D01*
X127273533Y-101156443D01*
X127117011Y-101072779D01*
X127117009Y-101072778D01*
X127081271Y-101043448D01*
X126979814Y-100960186D01*
X126896552Y-100858729D01*
X126867222Y-100822991D01*
X126857652Y-100805087D01*
X126783557Y-100666467D01*
X126766384Y-100609853D01*
X126732037Y-100496627D01*
X126714641Y-100320000D01*
X126732037Y-100143373D01*
X126783557Y-99973534D01*
X126783557Y-99973533D01*
X126867221Y-99817011D01*
X126867222Y-99817009D01*
X126896552Y-99781271D01*
X126979814Y-99679814D01*
X127081271Y-99596552D01*
X127117009Y-99567222D01*
X127134913Y-99557652D01*
X127273533Y-99483557D01*
X127330147Y-99466384D01*
X127443373Y-99432037D01*
X127509557Y-99425519D01*
X127575740Y-99419000D01*
X127664260Y-99419000D01*
X127730443Y-99425519D01*
X127730443Y-99425519D01*
G37*
G36*
X125190443Y-99425519D02*
X125256627Y-99432037D01*
X125369853Y-99466384D01*
X125426467Y-99483557D01*
X125565087Y-99557652D01*
X125582991Y-99567222D01*
X125618729Y-99596552D01*
X125720186Y-99679814D01*
X125803448Y-99781271D01*
X125832778Y-99817009D01*
X125832779Y-99817011D01*
X125916443Y-99973533D01*
X125916443Y-99973534D01*
X125967963Y-100143373D01*
X125985359Y-100320000D01*
X125967963Y-100496627D01*
X125933616Y-100609853D01*
X125916443Y-100666467D01*
X125842348Y-100805087D01*
X125832778Y-100822991D01*
X125803448Y-100858729D01*
X125720186Y-100960186D01*
X125618729Y-101043448D01*
X125582991Y-101072778D01*
X125582989Y-101072779D01*
X125426467Y-101156443D01*
X125369853Y-101173616D01*
X125256627Y-101207963D01*
X125190442Y-101214482D01*
X125124260Y-101221000D01*
X125035740Y-101221000D01*
X124969558Y-101214482D01*
X124903373Y-101207963D01*
X124790147Y-101173616D01*
X124733533Y-101156443D01*
X124577011Y-101072779D01*
X124577009Y-101072778D01*
X124541271Y-101043448D01*
X124439814Y-100960186D01*
X124356552Y-100858729D01*
X124327222Y-100822991D01*
X124317652Y-100805087D01*
X124243557Y-100666467D01*
X124226384Y-100609853D01*
X124192037Y-100496627D01*
X124174641Y-100320000D01*
X124192037Y-100143373D01*
X124243557Y-99973534D01*
X124243557Y-99973533D01*
X124327221Y-99817011D01*
X124327222Y-99817009D01*
X124356552Y-99781271D01*
X124439814Y-99679814D01*
X124541271Y-99596552D01*
X124577009Y-99567222D01*
X124594913Y-99557652D01*
X124733533Y-99483557D01*
X124790147Y-99466384D01*
X124903373Y-99432037D01*
X124969557Y-99425519D01*
X125035740Y-99419000D01*
X125124260Y-99419000D01*
X125190443Y-99425519D01*
X125190443Y-99425519D01*
G37*
G36*
X127730442Y-96885518D02*
X127796627Y-96892037D01*
X127909853Y-96926384D01*
X127966467Y-96943557D01*
X128105087Y-97017652D01*
X128122991Y-97027222D01*
X128158729Y-97056552D01*
X128260186Y-97139814D01*
X128343448Y-97241271D01*
X128372778Y-97277009D01*
X128372779Y-97277011D01*
X128456443Y-97433533D01*
X128456443Y-97433534D01*
X128507963Y-97603373D01*
X128525359Y-97780000D01*
X128507963Y-97956627D01*
X128473616Y-98069853D01*
X128456443Y-98126467D01*
X128382348Y-98265087D01*
X128372778Y-98282991D01*
X128343448Y-98318729D01*
X128260186Y-98420186D01*
X128158729Y-98503448D01*
X128122991Y-98532778D01*
X128122989Y-98532779D01*
X127966467Y-98616443D01*
X127909853Y-98633616D01*
X127796627Y-98667963D01*
X127730443Y-98674481D01*
X127664260Y-98681000D01*
X127575740Y-98681000D01*
X127509557Y-98674481D01*
X127443373Y-98667963D01*
X127330147Y-98633616D01*
X127273533Y-98616443D01*
X127117011Y-98532779D01*
X127117009Y-98532778D01*
X127081271Y-98503448D01*
X126979814Y-98420186D01*
X126896552Y-98318729D01*
X126867222Y-98282991D01*
X126857652Y-98265087D01*
X126783557Y-98126467D01*
X126766384Y-98069853D01*
X126732037Y-97956627D01*
X126714641Y-97780000D01*
X126732037Y-97603373D01*
X126783557Y-97433534D01*
X126783557Y-97433533D01*
X126867221Y-97277011D01*
X126867222Y-97277009D01*
X126896552Y-97241271D01*
X126979814Y-97139814D01*
X127081271Y-97056552D01*
X127117009Y-97027222D01*
X127134913Y-97017652D01*
X127273533Y-96943557D01*
X127330147Y-96926384D01*
X127443373Y-96892037D01*
X127509558Y-96885518D01*
X127575740Y-96879000D01*
X127664260Y-96879000D01*
X127730442Y-96885518D01*
X127730442Y-96885518D01*
G37*
G36*
X125190442Y-96885518D02*
X125256627Y-96892037D01*
X125369853Y-96926384D01*
X125426467Y-96943557D01*
X125565087Y-97017652D01*
X125582991Y-97027222D01*
X125618729Y-97056552D01*
X125720186Y-97139814D01*
X125803448Y-97241271D01*
X125832778Y-97277009D01*
X125832779Y-97277011D01*
X125916443Y-97433533D01*
X125916443Y-97433534D01*
X125967963Y-97603373D01*
X125985359Y-97780000D01*
X125967963Y-97956627D01*
X125933616Y-98069853D01*
X125916443Y-98126467D01*
X125842348Y-98265087D01*
X125832778Y-98282991D01*
X125803448Y-98318729D01*
X125720186Y-98420186D01*
X125618729Y-98503448D01*
X125582991Y-98532778D01*
X125582989Y-98532779D01*
X125426467Y-98616443D01*
X125369853Y-98633616D01*
X125256627Y-98667963D01*
X125190443Y-98674481D01*
X125124260Y-98681000D01*
X125035740Y-98681000D01*
X124969557Y-98674481D01*
X124903373Y-98667963D01*
X124790147Y-98633616D01*
X124733533Y-98616443D01*
X124577011Y-98532779D01*
X124577009Y-98532778D01*
X124541271Y-98503448D01*
X124439814Y-98420186D01*
X124356552Y-98318729D01*
X124327222Y-98282991D01*
X124317652Y-98265087D01*
X124243557Y-98126467D01*
X124226384Y-98069853D01*
X124192037Y-97956627D01*
X124174641Y-97780000D01*
X124192037Y-97603373D01*
X124243557Y-97433534D01*
X124243557Y-97433533D01*
X124327221Y-97277011D01*
X124327222Y-97277009D01*
X124356552Y-97241271D01*
X124439814Y-97139814D01*
X124541271Y-97056552D01*
X124577009Y-97027222D01*
X124594913Y-97017652D01*
X124733533Y-96943557D01*
X124790147Y-96926384D01*
X124903373Y-96892037D01*
X124969558Y-96885518D01*
X125035740Y-96879000D01*
X125124260Y-96879000D01*
X125190442Y-96885518D01*
X125190442Y-96885518D01*
G37*
G36*
X136650442Y-96885518D02*
X136716627Y-96892037D01*
X136829853Y-96926384D01*
X136886467Y-96943557D01*
X137025087Y-97017652D01*
X137042991Y-97027222D01*
X137078729Y-97056552D01*
X137180186Y-97139814D01*
X137263448Y-97241271D01*
X137292778Y-97277009D01*
X137292779Y-97277011D01*
X137376443Y-97433533D01*
X137376443Y-97433534D01*
X137427963Y-97603373D01*
X137445359Y-97780000D01*
X137427963Y-97956627D01*
X137393616Y-98069853D01*
X137376443Y-98126467D01*
X137302348Y-98265087D01*
X137292778Y-98282991D01*
X137263448Y-98318729D01*
X137180186Y-98420186D01*
X137078729Y-98503448D01*
X137042991Y-98532778D01*
X137042989Y-98532779D01*
X136886467Y-98616443D01*
X136829853Y-98633616D01*
X136716627Y-98667963D01*
X136650443Y-98674481D01*
X136584260Y-98681000D01*
X136495740Y-98681000D01*
X136429557Y-98674481D01*
X136363373Y-98667963D01*
X136250147Y-98633616D01*
X136193533Y-98616443D01*
X136037011Y-98532779D01*
X136037009Y-98532778D01*
X136001271Y-98503448D01*
X135899814Y-98420186D01*
X135816552Y-98318729D01*
X135787222Y-98282991D01*
X135777652Y-98265087D01*
X135703557Y-98126467D01*
X135686384Y-98069853D01*
X135652037Y-97956627D01*
X135634641Y-97780000D01*
X135652037Y-97603373D01*
X135703557Y-97433534D01*
X135703557Y-97433533D01*
X135787221Y-97277011D01*
X135787222Y-97277009D01*
X135816552Y-97241271D01*
X135899814Y-97139814D01*
X136001271Y-97056552D01*
X136037009Y-97027222D01*
X136054913Y-97017652D01*
X136193533Y-96943557D01*
X136250147Y-96926384D01*
X136363373Y-96892037D01*
X136429558Y-96885518D01*
X136495740Y-96879000D01*
X136584260Y-96879000D01*
X136650442Y-96885518D01*
X136650442Y-96885518D01*
G37*
G36*
X134110442Y-96885518D02*
X134176627Y-96892037D01*
X134289853Y-96926384D01*
X134346467Y-96943557D01*
X134485087Y-97017652D01*
X134502991Y-97027222D01*
X134538729Y-97056552D01*
X134640186Y-97139814D01*
X134723448Y-97241271D01*
X134752778Y-97277009D01*
X134752779Y-97277011D01*
X134836443Y-97433533D01*
X134836443Y-97433534D01*
X134887963Y-97603373D01*
X134905359Y-97780000D01*
X134887963Y-97956627D01*
X134853616Y-98069853D01*
X134836443Y-98126467D01*
X134762348Y-98265087D01*
X134752778Y-98282991D01*
X134723448Y-98318729D01*
X134640186Y-98420186D01*
X134538729Y-98503448D01*
X134502991Y-98532778D01*
X134502989Y-98532779D01*
X134346467Y-98616443D01*
X134289853Y-98633616D01*
X134176627Y-98667963D01*
X134110443Y-98674481D01*
X134044260Y-98681000D01*
X133955740Y-98681000D01*
X133889557Y-98674481D01*
X133823373Y-98667963D01*
X133710147Y-98633616D01*
X133653533Y-98616443D01*
X133497011Y-98532779D01*
X133497009Y-98532778D01*
X133461271Y-98503448D01*
X133359814Y-98420186D01*
X133276552Y-98318729D01*
X133247222Y-98282991D01*
X133237652Y-98265087D01*
X133163557Y-98126467D01*
X133146384Y-98069853D01*
X133112037Y-97956627D01*
X133094641Y-97780000D01*
X133112037Y-97603373D01*
X133163557Y-97433534D01*
X133163557Y-97433533D01*
X133247221Y-97277011D01*
X133247222Y-97277009D01*
X133276552Y-97241271D01*
X133359814Y-97139814D01*
X133461271Y-97056552D01*
X133497009Y-97027222D01*
X133514913Y-97017652D01*
X133653533Y-96943557D01*
X133710147Y-96926384D01*
X133823373Y-96892037D01*
X133889558Y-96885518D01*
X133955740Y-96879000D01*
X134044260Y-96879000D01*
X134110442Y-96885518D01*
X134110442Y-96885518D01*
G37*
G36*
X160951000Y-98601000D02*
X160049000Y-98601000D01*
X160049000Y-98199000D01*
X160951000Y-98199000D01*
X160951000Y-98601000D01*
X160951000Y-98601000D01*
G37*
G36*
X149951000Y-98601000D02*
X149049000Y-98601000D01*
X149049000Y-98199000D01*
X149951000Y-98199000D01*
X149951000Y-98601000D01*
X149951000Y-98601000D01*
G37*
G36*
X160951000Y-97801000D02*
X160049000Y-97801000D01*
X160049000Y-97399000D01*
X160951000Y-97399000D01*
X160951000Y-97801000D01*
X160951000Y-97801000D01*
G37*
G36*
X149951000Y-97801000D02*
X149049000Y-97801000D01*
X149049000Y-97399000D01*
X149951000Y-97399000D01*
X149951000Y-97801000D01*
X149951000Y-97801000D01*
G37*
G36*
X149951000Y-97001000D02*
X149049000Y-97001000D01*
X149049000Y-96599000D01*
X149951000Y-96599000D01*
X149951000Y-97001000D01*
X149951000Y-97001000D01*
G37*
G36*
X160951000Y-97001000D02*
X160049000Y-97001000D01*
X160049000Y-96599000D01*
X160951000Y-96599000D01*
X160951000Y-97001000D01*
X160951000Y-97001000D01*
G37*
G36*
X149951000Y-96201000D02*
X149049000Y-96201000D01*
X149049000Y-95799000D01*
X149951000Y-95799000D01*
X149951000Y-96201000D01*
X149951000Y-96201000D01*
G37*
G36*
X160951000Y-96201000D02*
X160049000Y-96201000D01*
X160049000Y-95799000D01*
X160951000Y-95799000D01*
X160951000Y-96201000D01*
X160951000Y-96201000D01*
G37*
G36*
X125190443Y-94345519D02*
X125256627Y-94352037D01*
X125369853Y-94386384D01*
X125426467Y-94403557D01*
X125565087Y-94477652D01*
X125582991Y-94487222D01*
X125618729Y-94516552D01*
X125720186Y-94599814D01*
X125803448Y-94701271D01*
X125832778Y-94737009D01*
X125832779Y-94737011D01*
X125916443Y-94893533D01*
X125916443Y-94893534D01*
X125967963Y-95063373D01*
X125985359Y-95240000D01*
X125967963Y-95416627D01*
X125933616Y-95529853D01*
X125916443Y-95586467D01*
X125842348Y-95725087D01*
X125832778Y-95742991D01*
X125803448Y-95778729D01*
X125720186Y-95880186D01*
X125618729Y-95963448D01*
X125582991Y-95992778D01*
X125582989Y-95992779D01*
X125426467Y-96076443D01*
X125369853Y-96093616D01*
X125256627Y-96127963D01*
X125190443Y-96134481D01*
X125124260Y-96141000D01*
X125035740Y-96141000D01*
X124969557Y-96134481D01*
X124903373Y-96127963D01*
X124790147Y-96093616D01*
X124733533Y-96076443D01*
X124577011Y-95992779D01*
X124577009Y-95992778D01*
X124541271Y-95963448D01*
X124439814Y-95880186D01*
X124356552Y-95778729D01*
X124327222Y-95742991D01*
X124317652Y-95725087D01*
X124243557Y-95586467D01*
X124226384Y-95529853D01*
X124192037Y-95416627D01*
X124174641Y-95240000D01*
X124192037Y-95063373D01*
X124243557Y-94893534D01*
X124243557Y-94893533D01*
X124327221Y-94737011D01*
X124327222Y-94737009D01*
X124356552Y-94701271D01*
X124439814Y-94599814D01*
X124541271Y-94516552D01*
X124577009Y-94487222D01*
X124594913Y-94477652D01*
X124733533Y-94403557D01*
X124790147Y-94386384D01*
X124903373Y-94352037D01*
X124969557Y-94345519D01*
X125035740Y-94339000D01*
X125124260Y-94339000D01*
X125190443Y-94345519D01*
X125190443Y-94345519D01*
G37*
G36*
X127730443Y-94345519D02*
X127796627Y-94352037D01*
X127909853Y-94386384D01*
X127966467Y-94403557D01*
X128105087Y-94477652D01*
X128122991Y-94487222D01*
X128158729Y-94516552D01*
X128260186Y-94599814D01*
X128343448Y-94701271D01*
X128372778Y-94737009D01*
X128372779Y-94737011D01*
X128456443Y-94893533D01*
X128456443Y-94893534D01*
X128507963Y-95063373D01*
X128525359Y-95240000D01*
X128507963Y-95416627D01*
X128473616Y-95529853D01*
X128456443Y-95586467D01*
X128382348Y-95725087D01*
X128372778Y-95742991D01*
X128343448Y-95778729D01*
X128260186Y-95880186D01*
X128158729Y-95963448D01*
X128122991Y-95992778D01*
X128122989Y-95992779D01*
X127966467Y-96076443D01*
X127909853Y-96093616D01*
X127796627Y-96127963D01*
X127730443Y-96134481D01*
X127664260Y-96141000D01*
X127575740Y-96141000D01*
X127509557Y-96134481D01*
X127443373Y-96127963D01*
X127330147Y-96093616D01*
X127273533Y-96076443D01*
X127117011Y-95992779D01*
X127117009Y-95992778D01*
X127081271Y-95963448D01*
X126979814Y-95880186D01*
X126896552Y-95778729D01*
X126867222Y-95742991D01*
X126857652Y-95725087D01*
X126783557Y-95586467D01*
X126766384Y-95529853D01*
X126732037Y-95416627D01*
X126714641Y-95240000D01*
X126732037Y-95063373D01*
X126783557Y-94893534D01*
X126783557Y-94893533D01*
X126867221Y-94737011D01*
X126867222Y-94737009D01*
X126896552Y-94701271D01*
X126979814Y-94599814D01*
X127081271Y-94516552D01*
X127117009Y-94487222D01*
X127134913Y-94477652D01*
X127273533Y-94403557D01*
X127330147Y-94386384D01*
X127443373Y-94352037D01*
X127509557Y-94345519D01*
X127575740Y-94339000D01*
X127664260Y-94339000D01*
X127730443Y-94345519D01*
X127730443Y-94345519D01*
G37*
G36*
X136650443Y-94345519D02*
X136716627Y-94352037D01*
X136829853Y-94386384D01*
X136886467Y-94403557D01*
X137025087Y-94477652D01*
X137042991Y-94487222D01*
X137078729Y-94516552D01*
X137180186Y-94599814D01*
X137263448Y-94701271D01*
X137292778Y-94737009D01*
X137292779Y-94737011D01*
X137376443Y-94893533D01*
X137376443Y-94893534D01*
X137427963Y-95063373D01*
X137445359Y-95240000D01*
X137427963Y-95416627D01*
X137393616Y-95529853D01*
X137376443Y-95586467D01*
X137302348Y-95725087D01*
X137292778Y-95742991D01*
X137263448Y-95778729D01*
X137180186Y-95880186D01*
X137078729Y-95963448D01*
X137042991Y-95992778D01*
X137042989Y-95992779D01*
X136886467Y-96076443D01*
X136829853Y-96093616D01*
X136716627Y-96127963D01*
X136650443Y-96134481D01*
X136584260Y-96141000D01*
X136495740Y-96141000D01*
X136429557Y-96134481D01*
X136363373Y-96127963D01*
X136250147Y-96093616D01*
X136193533Y-96076443D01*
X136037011Y-95992779D01*
X136037009Y-95992778D01*
X136001271Y-95963448D01*
X135899814Y-95880186D01*
X135816552Y-95778729D01*
X135787222Y-95742991D01*
X135777652Y-95725087D01*
X135703557Y-95586467D01*
X135686384Y-95529853D01*
X135652037Y-95416627D01*
X135634641Y-95240000D01*
X135652037Y-95063373D01*
X135703557Y-94893534D01*
X135703557Y-94893533D01*
X135787221Y-94737011D01*
X135787222Y-94737009D01*
X135816552Y-94701271D01*
X135899814Y-94599814D01*
X136001271Y-94516552D01*
X136037009Y-94487222D01*
X136054913Y-94477652D01*
X136193533Y-94403557D01*
X136250147Y-94386384D01*
X136363373Y-94352037D01*
X136429557Y-94345519D01*
X136495740Y-94339000D01*
X136584260Y-94339000D01*
X136650443Y-94345519D01*
X136650443Y-94345519D01*
G37*
G36*
X134110443Y-94345519D02*
X134176627Y-94352037D01*
X134289853Y-94386384D01*
X134346467Y-94403557D01*
X134485087Y-94477652D01*
X134502991Y-94487222D01*
X134538729Y-94516552D01*
X134640186Y-94599814D01*
X134723448Y-94701271D01*
X134752778Y-94737009D01*
X134752779Y-94737011D01*
X134836443Y-94893533D01*
X134836443Y-94893534D01*
X134887963Y-95063373D01*
X134905359Y-95240000D01*
X134887963Y-95416627D01*
X134853616Y-95529853D01*
X134836443Y-95586467D01*
X134762348Y-95725087D01*
X134752778Y-95742991D01*
X134723448Y-95778729D01*
X134640186Y-95880186D01*
X134538729Y-95963448D01*
X134502991Y-95992778D01*
X134502989Y-95992779D01*
X134346467Y-96076443D01*
X134289853Y-96093616D01*
X134176627Y-96127963D01*
X134110443Y-96134481D01*
X134044260Y-96141000D01*
X133955740Y-96141000D01*
X133889557Y-96134481D01*
X133823373Y-96127963D01*
X133710147Y-96093616D01*
X133653533Y-96076443D01*
X133497011Y-95992779D01*
X133497009Y-95992778D01*
X133461271Y-95963448D01*
X133359814Y-95880186D01*
X133276552Y-95778729D01*
X133247222Y-95742991D01*
X133237652Y-95725087D01*
X133163557Y-95586467D01*
X133146384Y-95529853D01*
X133112037Y-95416627D01*
X133094641Y-95240000D01*
X133112037Y-95063373D01*
X133163557Y-94893534D01*
X133163557Y-94893533D01*
X133247221Y-94737011D01*
X133247222Y-94737009D01*
X133276552Y-94701271D01*
X133359814Y-94599814D01*
X133461271Y-94516552D01*
X133497009Y-94487222D01*
X133514913Y-94477652D01*
X133653533Y-94403557D01*
X133710147Y-94386384D01*
X133823373Y-94352037D01*
X133889557Y-94345519D01*
X133955740Y-94339000D01*
X134044260Y-94339000D01*
X134110443Y-94345519D01*
X134110443Y-94345519D01*
G37*
G36*
X160951000Y-95401000D02*
X160049000Y-95401000D01*
X160049000Y-94999000D01*
X160951000Y-94999000D01*
X160951000Y-95401000D01*
X160951000Y-95401000D01*
G37*
G36*
X149951000Y-95401000D02*
X149049000Y-95401000D01*
X149049000Y-94999000D01*
X149951000Y-94999000D01*
X149951000Y-95401000D01*
X149951000Y-95401000D01*
G37*
G36*
X149951000Y-94601000D02*
X149049000Y-94601000D01*
X149049000Y-94199000D01*
X149951000Y-94199000D01*
X149951000Y-94601000D01*
X149951000Y-94601000D01*
G37*
G36*
X160951000Y-94601000D02*
X160049000Y-94601000D01*
X160049000Y-94199000D01*
X160951000Y-94199000D01*
X160951000Y-94601000D01*
X160951000Y-94601000D01*
G37*
G36*
X149951000Y-93801000D02*
X149049000Y-93801000D01*
X149049000Y-93399000D01*
X149951000Y-93399000D01*
X149951000Y-93801000D01*
X149951000Y-93801000D01*
G37*
G36*
X160951000Y-93801000D02*
X160049000Y-93801000D01*
X160049000Y-93399000D01*
X160951000Y-93399000D01*
X160951000Y-93801000D01*
X160951000Y-93801000D01*
G37*
G36*
X136650443Y-91805519D02*
X136716627Y-91812037D01*
X136829853Y-91846384D01*
X136886467Y-91863557D01*
X137025087Y-91937652D01*
X137042991Y-91947222D01*
X137078729Y-91976552D01*
X137180186Y-92059814D01*
X137263448Y-92161271D01*
X137292778Y-92197009D01*
X137292779Y-92197011D01*
X137376443Y-92353533D01*
X137376443Y-92353534D01*
X137427963Y-92523373D01*
X137445359Y-92700000D01*
X137427963Y-92876627D01*
X137393616Y-92989853D01*
X137376443Y-93046467D01*
X137302348Y-93185087D01*
X137292778Y-93202991D01*
X137263448Y-93238729D01*
X137180186Y-93340186D01*
X137078729Y-93423448D01*
X137042991Y-93452778D01*
X137042989Y-93452779D01*
X136886467Y-93536443D01*
X136829853Y-93553616D01*
X136716627Y-93587963D01*
X136650443Y-93594481D01*
X136584260Y-93601000D01*
X136495740Y-93601000D01*
X136429558Y-93594482D01*
X136363373Y-93587963D01*
X136250147Y-93553616D01*
X136193533Y-93536443D01*
X136037011Y-93452779D01*
X136037009Y-93452778D01*
X136001271Y-93423448D01*
X135899814Y-93340186D01*
X135816552Y-93238729D01*
X135787222Y-93202991D01*
X135777652Y-93185087D01*
X135703557Y-93046467D01*
X135686384Y-92989853D01*
X135652037Y-92876627D01*
X135634641Y-92700000D01*
X135652037Y-92523373D01*
X135703557Y-92353534D01*
X135703557Y-92353533D01*
X135787221Y-92197011D01*
X135787222Y-92197009D01*
X135816552Y-92161271D01*
X135899814Y-92059814D01*
X136001271Y-91976552D01*
X136037009Y-91947222D01*
X136054913Y-91937652D01*
X136193533Y-91863557D01*
X136250147Y-91846384D01*
X136363373Y-91812037D01*
X136429557Y-91805519D01*
X136495740Y-91799000D01*
X136584260Y-91799000D01*
X136650443Y-91805519D01*
X136650443Y-91805519D01*
G37*
G36*
X134110443Y-91805519D02*
X134176627Y-91812037D01*
X134289853Y-91846384D01*
X134346467Y-91863557D01*
X134485087Y-91937652D01*
X134502991Y-91947222D01*
X134538729Y-91976552D01*
X134640186Y-92059814D01*
X134723448Y-92161271D01*
X134752778Y-92197009D01*
X134752779Y-92197011D01*
X134836443Y-92353533D01*
X134836443Y-92353534D01*
X134887963Y-92523373D01*
X134905359Y-92700000D01*
X134887963Y-92876627D01*
X134853616Y-92989853D01*
X134836443Y-93046467D01*
X134762348Y-93185087D01*
X134752778Y-93202991D01*
X134723448Y-93238729D01*
X134640186Y-93340186D01*
X134538729Y-93423448D01*
X134502991Y-93452778D01*
X134502989Y-93452779D01*
X134346467Y-93536443D01*
X134289853Y-93553616D01*
X134176627Y-93587963D01*
X134110443Y-93594481D01*
X134044260Y-93601000D01*
X133955740Y-93601000D01*
X133889558Y-93594482D01*
X133823373Y-93587963D01*
X133710147Y-93553616D01*
X133653533Y-93536443D01*
X133497011Y-93452779D01*
X133497009Y-93452778D01*
X133461271Y-93423448D01*
X133359814Y-93340186D01*
X133276552Y-93238729D01*
X133247222Y-93202991D01*
X133237652Y-93185087D01*
X133163557Y-93046467D01*
X133146384Y-92989853D01*
X133112037Y-92876627D01*
X133094641Y-92700000D01*
X133112037Y-92523373D01*
X133163557Y-92353534D01*
X133163557Y-92353533D01*
X133247221Y-92197011D01*
X133247222Y-92197009D01*
X133276552Y-92161271D01*
X133359814Y-92059814D01*
X133461271Y-91976552D01*
X133497009Y-91947222D01*
X133514913Y-91937652D01*
X133653533Y-91863557D01*
X133710147Y-91846384D01*
X133823373Y-91812037D01*
X133889557Y-91805519D01*
X133955740Y-91799000D01*
X134044260Y-91799000D01*
X134110443Y-91805519D01*
X134110443Y-91805519D01*
G37*
G36*
X125190443Y-91805519D02*
X125256627Y-91812037D01*
X125369853Y-91846384D01*
X125426467Y-91863557D01*
X125565087Y-91937652D01*
X125582991Y-91947222D01*
X125618729Y-91976552D01*
X125720186Y-92059814D01*
X125803448Y-92161271D01*
X125832778Y-92197009D01*
X125832779Y-92197011D01*
X125916443Y-92353533D01*
X125916443Y-92353534D01*
X125967963Y-92523373D01*
X125985359Y-92700000D01*
X125967963Y-92876627D01*
X125933616Y-92989853D01*
X125916443Y-93046467D01*
X125842348Y-93185087D01*
X125832778Y-93202991D01*
X125803448Y-93238729D01*
X125720186Y-93340186D01*
X125618729Y-93423448D01*
X125582991Y-93452778D01*
X125582989Y-93452779D01*
X125426467Y-93536443D01*
X125369853Y-93553616D01*
X125256627Y-93587963D01*
X125190443Y-93594481D01*
X125124260Y-93601000D01*
X125035740Y-93601000D01*
X124969558Y-93594482D01*
X124903373Y-93587963D01*
X124790147Y-93553616D01*
X124733533Y-93536443D01*
X124577011Y-93452779D01*
X124577009Y-93452778D01*
X124541271Y-93423448D01*
X124439814Y-93340186D01*
X124356552Y-93238729D01*
X124327222Y-93202991D01*
X124317652Y-93185087D01*
X124243557Y-93046467D01*
X124226384Y-92989853D01*
X124192037Y-92876627D01*
X124174641Y-92700000D01*
X124192037Y-92523373D01*
X124243557Y-92353534D01*
X124243557Y-92353533D01*
X124327221Y-92197011D01*
X124327222Y-92197009D01*
X124356552Y-92161271D01*
X124439814Y-92059814D01*
X124541271Y-91976552D01*
X124577009Y-91947222D01*
X124594913Y-91937652D01*
X124733533Y-91863557D01*
X124790147Y-91846384D01*
X124903373Y-91812037D01*
X124969557Y-91805519D01*
X125035740Y-91799000D01*
X125124260Y-91799000D01*
X125190443Y-91805519D01*
X125190443Y-91805519D01*
G37*
G36*
X127730443Y-91805519D02*
X127796627Y-91812037D01*
X127909853Y-91846384D01*
X127966467Y-91863557D01*
X128105087Y-91937652D01*
X128122991Y-91947222D01*
X128158729Y-91976552D01*
X128260186Y-92059814D01*
X128343448Y-92161271D01*
X128372778Y-92197009D01*
X128372779Y-92197011D01*
X128456443Y-92353533D01*
X128456443Y-92353534D01*
X128507963Y-92523373D01*
X128525359Y-92700000D01*
X128507963Y-92876627D01*
X128473616Y-92989853D01*
X128456443Y-93046467D01*
X128382348Y-93185087D01*
X128372778Y-93202991D01*
X128343448Y-93238729D01*
X128260186Y-93340186D01*
X128158729Y-93423448D01*
X128122991Y-93452778D01*
X128122989Y-93452779D01*
X127966467Y-93536443D01*
X127909853Y-93553616D01*
X127796627Y-93587963D01*
X127730443Y-93594481D01*
X127664260Y-93601000D01*
X127575740Y-93601000D01*
X127509558Y-93594482D01*
X127443373Y-93587963D01*
X127330147Y-93553616D01*
X127273533Y-93536443D01*
X127117011Y-93452779D01*
X127117009Y-93452778D01*
X127081271Y-93423448D01*
X126979814Y-93340186D01*
X126896552Y-93238729D01*
X126867222Y-93202991D01*
X126857652Y-93185087D01*
X126783557Y-93046467D01*
X126766384Y-92989853D01*
X126732037Y-92876627D01*
X126714641Y-92700000D01*
X126732037Y-92523373D01*
X126783557Y-92353534D01*
X126783557Y-92353533D01*
X126867221Y-92197011D01*
X126867222Y-92197009D01*
X126896552Y-92161271D01*
X126979814Y-92059814D01*
X127081271Y-91976552D01*
X127117009Y-91947222D01*
X127134913Y-91937652D01*
X127273533Y-91863557D01*
X127330147Y-91846384D01*
X127443373Y-91812037D01*
X127509557Y-91805519D01*
X127575740Y-91799000D01*
X127664260Y-91799000D01*
X127730443Y-91805519D01*
X127730443Y-91805519D01*
G37*
G36*
X160951000Y-93001000D02*
X160049000Y-93001000D01*
X160049000Y-92599000D01*
X160951000Y-92599000D01*
X160951000Y-93001000D01*
X160951000Y-93001000D01*
G37*
G36*
X149951000Y-93001000D02*
X149049000Y-93001000D01*
X149049000Y-92599000D01*
X149951000Y-92599000D01*
X149951000Y-93001000D01*
X149951000Y-93001000D01*
G37*
G36*
X160951000Y-92201000D02*
X160049000Y-92201000D01*
X160049000Y-91799000D01*
X160951000Y-91799000D01*
X160951000Y-92201000D01*
X160951000Y-92201000D01*
G37*
G36*
X149951000Y-92201000D02*
X149049000Y-92201000D01*
X149049000Y-91799000D01*
X149951000Y-91799000D01*
X149951000Y-92201000D01*
X149951000Y-92201000D01*
G37*
G36*
X163864499Y-90303445D02*
X163901993Y-90314819D01*
X163936557Y-90333294D01*
X163966847Y-90358153D01*
X163991706Y-90388443D01*
X164010181Y-90423007D01*
X164021555Y-90460501D01*
X164026000Y-90505638D01*
X164026000Y-91244362D01*
X164021555Y-91289499D01*
X164010181Y-91326993D01*
X163991706Y-91361557D01*
X163966847Y-91391847D01*
X163936557Y-91416706D01*
X163901993Y-91435181D01*
X163864499Y-91446555D01*
X163819362Y-91451000D01*
X163180638Y-91451000D01*
X163135501Y-91446555D01*
X163098007Y-91435181D01*
X163063443Y-91416706D01*
X163033153Y-91391847D01*
X163008294Y-91361557D01*
X162989819Y-91326993D01*
X162978445Y-91289499D01*
X162974000Y-91244362D01*
X162974000Y-90505638D01*
X162978445Y-90460501D01*
X162989819Y-90423007D01*
X163008294Y-90388443D01*
X163033153Y-90358153D01*
X163063443Y-90333294D01*
X163098007Y-90314819D01*
X163135501Y-90303445D01*
X163180638Y-90299000D01*
X163819362Y-90299000D01*
X163864499Y-90303445D01*
X163864499Y-90303445D01*
G37*
G36*
X146864499Y-90303445D02*
X146901993Y-90314819D01*
X146936557Y-90333294D01*
X146966847Y-90358153D01*
X146991706Y-90388443D01*
X147010181Y-90423007D01*
X147021555Y-90460501D01*
X147026000Y-90505638D01*
X147026000Y-91244362D01*
X147021555Y-91289499D01*
X147010181Y-91326993D01*
X146991706Y-91361557D01*
X146966847Y-91391847D01*
X146936557Y-91416706D01*
X146901993Y-91435181D01*
X146864499Y-91446555D01*
X146819362Y-91451000D01*
X146180638Y-91451000D01*
X146135501Y-91446555D01*
X146098007Y-91435181D01*
X146063443Y-91416706D01*
X146033153Y-91391847D01*
X146008294Y-91361557D01*
X145989819Y-91326993D01*
X145978445Y-91289499D01*
X145974000Y-91244362D01*
X145974000Y-90505638D01*
X145978445Y-90460501D01*
X145989819Y-90423007D01*
X146008294Y-90388443D01*
X146033153Y-90358153D01*
X146063443Y-90333294D01*
X146098007Y-90314819D01*
X146135501Y-90303445D01*
X146180638Y-90299000D01*
X146819362Y-90299000D01*
X146864499Y-90303445D01*
X146864499Y-90303445D01*
G37*
G36*
X149951000Y-91401000D02*
X149049000Y-91401000D01*
X149049000Y-90999000D01*
X149951000Y-90999000D01*
X149951000Y-91401000D01*
X149951000Y-91401000D01*
G37*
G36*
X160951000Y-91401000D02*
X160049000Y-91401000D01*
X160049000Y-90999000D01*
X160951000Y-90999000D01*
X160951000Y-91401000D01*
X160951000Y-91401000D01*
G37*
G36*
X125190443Y-89265519D02*
X125256627Y-89272037D01*
X125369853Y-89306384D01*
X125426467Y-89323557D01*
X125565087Y-89397652D01*
X125582991Y-89407222D01*
X125618729Y-89436552D01*
X125720186Y-89519814D01*
X125795476Y-89611557D01*
X125832778Y-89657009D01*
X125832779Y-89657011D01*
X125916443Y-89813533D01*
X125916443Y-89813534D01*
X125967963Y-89983373D01*
X125985359Y-90160000D01*
X125967963Y-90336627D01*
X125943920Y-90415885D01*
X125916443Y-90506467D01*
X125865913Y-90601000D01*
X125832778Y-90662991D01*
X125803448Y-90698729D01*
X125720186Y-90800186D01*
X125618729Y-90883448D01*
X125582991Y-90912778D01*
X125582989Y-90912779D01*
X125426467Y-90996443D01*
X125369853Y-91013616D01*
X125256627Y-91047963D01*
X125190443Y-91054481D01*
X125124260Y-91061000D01*
X125035740Y-91061000D01*
X124969557Y-91054481D01*
X124903373Y-91047963D01*
X124790147Y-91013616D01*
X124733533Y-90996443D01*
X124577011Y-90912779D01*
X124577009Y-90912778D01*
X124541271Y-90883448D01*
X124439814Y-90800186D01*
X124356552Y-90698729D01*
X124327222Y-90662991D01*
X124294087Y-90601000D01*
X124243557Y-90506467D01*
X124216080Y-90415885D01*
X124192037Y-90336627D01*
X124174641Y-90160000D01*
X124192037Y-89983373D01*
X124243557Y-89813534D01*
X124243557Y-89813533D01*
X124327221Y-89657011D01*
X124327222Y-89657009D01*
X124364524Y-89611557D01*
X124439814Y-89519814D01*
X124541271Y-89436552D01*
X124577009Y-89407222D01*
X124594913Y-89397652D01*
X124733533Y-89323557D01*
X124790147Y-89306384D01*
X124903373Y-89272037D01*
X124969557Y-89265519D01*
X125035740Y-89259000D01*
X125124260Y-89259000D01*
X125190443Y-89265519D01*
X125190443Y-89265519D01*
G37*
G36*
X127730443Y-89265519D02*
X127796627Y-89272037D01*
X127909853Y-89306384D01*
X127966467Y-89323557D01*
X128105087Y-89397652D01*
X128122991Y-89407222D01*
X128158729Y-89436552D01*
X128260186Y-89519814D01*
X128335476Y-89611557D01*
X128372778Y-89657009D01*
X128372779Y-89657011D01*
X128456443Y-89813533D01*
X128456443Y-89813534D01*
X128507963Y-89983373D01*
X128525359Y-90160000D01*
X128507963Y-90336627D01*
X128483920Y-90415885D01*
X128456443Y-90506467D01*
X128405913Y-90601000D01*
X128372778Y-90662991D01*
X128343448Y-90698729D01*
X128260186Y-90800186D01*
X128158729Y-90883448D01*
X128122991Y-90912778D01*
X128122989Y-90912779D01*
X127966467Y-90996443D01*
X127909853Y-91013616D01*
X127796627Y-91047963D01*
X127730443Y-91054481D01*
X127664260Y-91061000D01*
X127575740Y-91061000D01*
X127509557Y-91054481D01*
X127443373Y-91047963D01*
X127330147Y-91013616D01*
X127273533Y-90996443D01*
X127117011Y-90912779D01*
X127117009Y-90912778D01*
X127081271Y-90883448D01*
X126979814Y-90800186D01*
X126896552Y-90698729D01*
X126867222Y-90662991D01*
X126834087Y-90601000D01*
X126783557Y-90506467D01*
X126756080Y-90415885D01*
X126732037Y-90336627D01*
X126714641Y-90160000D01*
X126732037Y-89983373D01*
X126783557Y-89813534D01*
X126783557Y-89813533D01*
X126867221Y-89657011D01*
X126867222Y-89657009D01*
X126904524Y-89611557D01*
X126979814Y-89519814D01*
X127081271Y-89436552D01*
X127117009Y-89407222D01*
X127134913Y-89397652D01*
X127273533Y-89323557D01*
X127330147Y-89306384D01*
X127443373Y-89272037D01*
X127509557Y-89265519D01*
X127575740Y-89259000D01*
X127664260Y-89259000D01*
X127730443Y-89265519D01*
X127730443Y-89265519D01*
G37*
G36*
X134110443Y-89265519D02*
X134176627Y-89272037D01*
X134289853Y-89306384D01*
X134346467Y-89323557D01*
X134485087Y-89397652D01*
X134502991Y-89407222D01*
X134538729Y-89436552D01*
X134640186Y-89519814D01*
X134715476Y-89611557D01*
X134752778Y-89657009D01*
X134752779Y-89657011D01*
X134836443Y-89813533D01*
X134836443Y-89813534D01*
X134887963Y-89983373D01*
X134905359Y-90160000D01*
X134887963Y-90336627D01*
X134863920Y-90415885D01*
X134836443Y-90506467D01*
X134785913Y-90601000D01*
X134752778Y-90662991D01*
X134723448Y-90698729D01*
X134640186Y-90800186D01*
X134538729Y-90883448D01*
X134502991Y-90912778D01*
X134502989Y-90912779D01*
X134346467Y-90996443D01*
X134289853Y-91013616D01*
X134176627Y-91047963D01*
X134110443Y-91054481D01*
X134044260Y-91061000D01*
X133955740Y-91061000D01*
X133889557Y-91054481D01*
X133823373Y-91047963D01*
X133710147Y-91013616D01*
X133653533Y-90996443D01*
X133497011Y-90912779D01*
X133497009Y-90912778D01*
X133461271Y-90883448D01*
X133359814Y-90800186D01*
X133276552Y-90698729D01*
X133247222Y-90662991D01*
X133214087Y-90601000D01*
X133163557Y-90506467D01*
X133136080Y-90415885D01*
X133112037Y-90336627D01*
X133094641Y-90160000D01*
X133112037Y-89983373D01*
X133163557Y-89813534D01*
X133163557Y-89813533D01*
X133247221Y-89657011D01*
X133247222Y-89657009D01*
X133284524Y-89611557D01*
X133359814Y-89519814D01*
X133461271Y-89436552D01*
X133497009Y-89407222D01*
X133514913Y-89397652D01*
X133653533Y-89323557D01*
X133710147Y-89306384D01*
X133823373Y-89272037D01*
X133889557Y-89265519D01*
X133955740Y-89259000D01*
X134044260Y-89259000D01*
X134110443Y-89265519D01*
X134110443Y-89265519D01*
G37*
G36*
X136650443Y-89265519D02*
X136716627Y-89272037D01*
X136829853Y-89306384D01*
X136886467Y-89323557D01*
X137025087Y-89397652D01*
X137042991Y-89407222D01*
X137078729Y-89436552D01*
X137180186Y-89519814D01*
X137255476Y-89611557D01*
X137292778Y-89657009D01*
X137292779Y-89657011D01*
X137376443Y-89813533D01*
X137376443Y-89813534D01*
X137427963Y-89983373D01*
X137445359Y-90160000D01*
X137427963Y-90336627D01*
X137403920Y-90415885D01*
X137376443Y-90506467D01*
X137325913Y-90601000D01*
X137292778Y-90662991D01*
X137263448Y-90698729D01*
X137180186Y-90800186D01*
X137078729Y-90883448D01*
X137042991Y-90912778D01*
X137042989Y-90912779D01*
X136886467Y-90996443D01*
X136829853Y-91013616D01*
X136716627Y-91047963D01*
X136650443Y-91054481D01*
X136584260Y-91061000D01*
X136495740Y-91061000D01*
X136429557Y-91054481D01*
X136363373Y-91047963D01*
X136250147Y-91013616D01*
X136193533Y-90996443D01*
X136037011Y-90912779D01*
X136037009Y-90912778D01*
X136001271Y-90883448D01*
X135899814Y-90800186D01*
X135816552Y-90698729D01*
X135787222Y-90662991D01*
X135754087Y-90601000D01*
X135703557Y-90506467D01*
X135676080Y-90415885D01*
X135652037Y-90336627D01*
X135634641Y-90160000D01*
X135652037Y-89983373D01*
X135703557Y-89813534D01*
X135703557Y-89813533D01*
X135787221Y-89657011D01*
X135787222Y-89657009D01*
X135824524Y-89611557D01*
X135899814Y-89519814D01*
X136001271Y-89436552D01*
X136037009Y-89407222D01*
X136054913Y-89397652D01*
X136193533Y-89323557D01*
X136250147Y-89306384D01*
X136363373Y-89272037D01*
X136429557Y-89265519D01*
X136495740Y-89259000D01*
X136584260Y-89259000D01*
X136650443Y-89265519D01*
X136650443Y-89265519D01*
G37*
G36*
X160951000Y-90601000D02*
X160049000Y-90601000D01*
X160049000Y-90199000D01*
X160951000Y-90199000D01*
X160951000Y-90601000D01*
X160951000Y-90601000D01*
G37*
G36*
X149951000Y-90601000D02*
X149049000Y-90601000D01*
X149049000Y-90199000D01*
X149951000Y-90199000D01*
X149951000Y-90601000D01*
X149951000Y-90601000D01*
G37*
G36*
X160951000Y-89801000D02*
X160049000Y-89801000D01*
X160049000Y-89399000D01*
X160951000Y-89399000D01*
X160951000Y-89801000D01*
X160951000Y-89801000D01*
G37*
G36*
X149951000Y-89801000D02*
X149049000Y-89801000D01*
X149049000Y-89399000D01*
X149951000Y-89399000D01*
X149951000Y-89801000D01*
X149951000Y-89801000D01*
G37*
G36*
X146864499Y-88553445D02*
X146901993Y-88564819D01*
X146936557Y-88583294D01*
X146966847Y-88608153D01*
X146991706Y-88638443D01*
X147010181Y-88673007D01*
X147021555Y-88710501D01*
X147026000Y-88755638D01*
X147026000Y-89494362D01*
X147021555Y-89539499D01*
X147010181Y-89576993D01*
X146991706Y-89611557D01*
X146966847Y-89641847D01*
X146936557Y-89666706D01*
X146901993Y-89685181D01*
X146864499Y-89696555D01*
X146819362Y-89701000D01*
X146180638Y-89701000D01*
X146135501Y-89696555D01*
X146098007Y-89685181D01*
X146063443Y-89666706D01*
X146033153Y-89641847D01*
X146008294Y-89611557D01*
X145989819Y-89576993D01*
X145978445Y-89539499D01*
X145974000Y-89494362D01*
X145974000Y-88755638D01*
X145978445Y-88710501D01*
X145989819Y-88673007D01*
X146008294Y-88638443D01*
X146033153Y-88608153D01*
X146063443Y-88583294D01*
X146098007Y-88564819D01*
X146135501Y-88553445D01*
X146180638Y-88549000D01*
X146819362Y-88549000D01*
X146864499Y-88553445D01*
X146864499Y-88553445D01*
G37*
G36*
X163864499Y-88553445D02*
X163901993Y-88564819D01*
X163936557Y-88583294D01*
X163966847Y-88608153D01*
X163991706Y-88638443D01*
X164010181Y-88673007D01*
X164021555Y-88710501D01*
X164026000Y-88755638D01*
X164026000Y-89494362D01*
X164021555Y-89539499D01*
X164010181Y-89576993D01*
X163991706Y-89611557D01*
X163966847Y-89641847D01*
X163936557Y-89666706D01*
X163901993Y-89685181D01*
X163864499Y-89696555D01*
X163819362Y-89701000D01*
X163180638Y-89701000D01*
X163135501Y-89696555D01*
X163098007Y-89685181D01*
X163063443Y-89666706D01*
X163033153Y-89641847D01*
X163008294Y-89611557D01*
X162989819Y-89576993D01*
X162978445Y-89539499D01*
X162974000Y-89494362D01*
X162974000Y-88755638D01*
X162978445Y-88710501D01*
X162989819Y-88673007D01*
X163008294Y-88638443D01*
X163033153Y-88608153D01*
X163063443Y-88583294D01*
X163098007Y-88564819D01*
X163135501Y-88553445D01*
X163180638Y-88549000D01*
X163819362Y-88549000D01*
X163864499Y-88553445D01*
X163864499Y-88553445D01*
G37*
G36*
X160951000Y-89001000D02*
X160049000Y-89001000D01*
X160049000Y-88599000D01*
X160951000Y-88599000D01*
X160951000Y-89001000D01*
X160951000Y-89001000D01*
G37*
G36*
X149951000Y-89001000D02*
X149049000Y-89001000D01*
X149049000Y-88599000D01*
X149951000Y-88599000D01*
X149951000Y-89001000D01*
X149951000Y-89001000D01*
G37*
G36*
X125190442Y-86725518D02*
X125256627Y-86732037D01*
X125369853Y-86766384D01*
X125426467Y-86783557D01*
X125565087Y-86857652D01*
X125582991Y-86867222D01*
X125618729Y-86896552D01*
X125720186Y-86979814D01*
X125803448Y-87081271D01*
X125832778Y-87117009D01*
X125832779Y-87117011D01*
X125916443Y-87273533D01*
X125916443Y-87273534D01*
X125967963Y-87443373D01*
X125985359Y-87620000D01*
X125967963Y-87796627D01*
X125967243Y-87799000D01*
X125916443Y-87966467D01*
X125842348Y-88105087D01*
X125832778Y-88122991D01*
X125803448Y-88158729D01*
X125720186Y-88260186D01*
X125618729Y-88343448D01*
X125582991Y-88372778D01*
X125582989Y-88372779D01*
X125426467Y-88456443D01*
X125369853Y-88473616D01*
X125256627Y-88507963D01*
X125190443Y-88514481D01*
X125124260Y-88521000D01*
X125035740Y-88521000D01*
X124969557Y-88514481D01*
X124903373Y-88507963D01*
X124790147Y-88473616D01*
X124733533Y-88456443D01*
X124577011Y-88372779D01*
X124577009Y-88372778D01*
X124541271Y-88343448D01*
X124439814Y-88260186D01*
X124356552Y-88158729D01*
X124327222Y-88122991D01*
X124317652Y-88105087D01*
X124243557Y-87966467D01*
X124192757Y-87799000D01*
X124192037Y-87796627D01*
X124174641Y-87620000D01*
X124192037Y-87443373D01*
X124243557Y-87273534D01*
X124243557Y-87273533D01*
X124327221Y-87117011D01*
X124327222Y-87117009D01*
X124356552Y-87081271D01*
X124439814Y-86979814D01*
X124541271Y-86896552D01*
X124577009Y-86867222D01*
X124594913Y-86857652D01*
X124733533Y-86783557D01*
X124790147Y-86766384D01*
X124903373Y-86732037D01*
X124969558Y-86725518D01*
X125035740Y-86719000D01*
X125124260Y-86719000D01*
X125190442Y-86725518D01*
X125190442Y-86725518D01*
G37*
G36*
X134110442Y-86725518D02*
X134176627Y-86732037D01*
X134289853Y-86766384D01*
X134346467Y-86783557D01*
X134485087Y-86857652D01*
X134502991Y-86867222D01*
X134538729Y-86896552D01*
X134640186Y-86979814D01*
X134723448Y-87081271D01*
X134752778Y-87117009D01*
X134752779Y-87117011D01*
X134836443Y-87273533D01*
X134836443Y-87273534D01*
X134887963Y-87443373D01*
X134905359Y-87620000D01*
X134887963Y-87796627D01*
X134887243Y-87799000D01*
X134836443Y-87966467D01*
X134762348Y-88105087D01*
X134752778Y-88122991D01*
X134723448Y-88158729D01*
X134640186Y-88260186D01*
X134538729Y-88343448D01*
X134502991Y-88372778D01*
X134502989Y-88372779D01*
X134346467Y-88456443D01*
X134289853Y-88473616D01*
X134176627Y-88507963D01*
X134110443Y-88514481D01*
X134044260Y-88521000D01*
X133955740Y-88521000D01*
X133889557Y-88514481D01*
X133823373Y-88507963D01*
X133710147Y-88473616D01*
X133653533Y-88456443D01*
X133497011Y-88372779D01*
X133497009Y-88372778D01*
X133461271Y-88343448D01*
X133359814Y-88260186D01*
X133276552Y-88158729D01*
X133247222Y-88122991D01*
X133237652Y-88105087D01*
X133163557Y-87966467D01*
X133112757Y-87799000D01*
X133112037Y-87796627D01*
X133094641Y-87620000D01*
X133112037Y-87443373D01*
X133163557Y-87273534D01*
X133163557Y-87273533D01*
X133247221Y-87117011D01*
X133247222Y-87117009D01*
X133276552Y-87081271D01*
X133359814Y-86979814D01*
X133461271Y-86896552D01*
X133497009Y-86867222D01*
X133514913Y-86857652D01*
X133653533Y-86783557D01*
X133710147Y-86766384D01*
X133823373Y-86732037D01*
X133889558Y-86725518D01*
X133955740Y-86719000D01*
X134044260Y-86719000D01*
X134110442Y-86725518D01*
X134110442Y-86725518D01*
G37*
G36*
X136650442Y-86725518D02*
X136716627Y-86732037D01*
X136829853Y-86766384D01*
X136886467Y-86783557D01*
X137025087Y-86857652D01*
X137042991Y-86867222D01*
X137078729Y-86896552D01*
X137180186Y-86979814D01*
X137263448Y-87081271D01*
X137292778Y-87117009D01*
X137292779Y-87117011D01*
X137376443Y-87273533D01*
X137376443Y-87273534D01*
X137427963Y-87443373D01*
X137445359Y-87620000D01*
X137427963Y-87796627D01*
X137427243Y-87799000D01*
X137376443Y-87966467D01*
X137302348Y-88105087D01*
X137292778Y-88122991D01*
X137263448Y-88158729D01*
X137180186Y-88260186D01*
X137078729Y-88343448D01*
X137042991Y-88372778D01*
X137042989Y-88372779D01*
X136886467Y-88456443D01*
X136829853Y-88473616D01*
X136716627Y-88507963D01*
X136650443Y-88514481D01*
X136584260Y-88521000D01*
X136495740Y-88521000D01*
X136429557Y-88514481D01*
X136363373Y-88507963D01*
X136250147Y-88473616D01*
X136193533Y-88456443D01*
X136037011Y-88372779D01*
X136037009Y-88372778D01*
X136001271Y-88343448D01*
X135899814Y-88260186D01*
X135816552Y-88158729D01*
X135787222Y-88122991D01*
X135777652Y-88105087D01*
X135703557Y-87966467D01*
X135652757Y-87799000D01*
X135652037Y-87796627D01*
X135634641Y-87620000D01*
X135652037Y-87443373D01*
X135703557Y-87273534D01*
X135703557Y-87273533D01*
X135787221Y-87117011D01*
X135787222Y-87117009D01*
X135816552Y-87081271D01*
X135899814Y-86979814D01*
X136001271Y-86896552D01*
X136037009Y-86867222D01*
X136054913Y-86857652D01*
X136193533Y-86783557D01*
X136250147Y-86766384D01*
X136363373Y-86732037D01*
X136429558Y-86725518D01*
X136495740Y-86719000D01*
X136584260Y-86719000D01*
X136650442Y-86725518D01*
X136650442Y-86725518D01*
G37*
G36*
X127730442Y-86725518D02*
X127796627Y-86732037D01*
X127909853Y-86766384D01*
X127966467Y-86783557D01*
X128105087Y-86857652D01*
X128122991Y-86867222D01*
X128158729Y-86896552D01*
X128260186Y-86979814D01*
X128343448Y-87081271D01*
X128372778Y-87117009D01*
X128372779Y-87117011D01*
X128456443Y-87273533D01*
X128456443Y-87273534D01*
X128507963Y-87443373D01*
X128525359Y-87620000D01*
X128507963Y-87796627D01*
X128507243Y-87799000D01*
X128456443Y-87966467D01*
X128382348Y-88105087D01*
X128372778Y-88122991D01*
X128343448Y-88158729D01*
X128260186Y-88260186D01*
X128158729Y-88343448D01*
X128122991Y-88372778D01*
X128122989Y-88372779D01*
X127966467Y-88456443D01*
X127909853Y-88473616D01*
X127796627Y-88507963D01*
X127730443Y-88514481D01*
X127664260Y-88521000D01*
X127575740Y-88521000D01*
X127509557Y-88514481D01*
X127443373Y-88507963D01*
X127330147Y-88473616D01*
X127273533Y-88456443D01*
X127117011Y-88372779D01*
X127117009Y-88372778D01*
X127081271Y-88343448D01*
X126979814Y-88260186D01*
X126896552Y-88158729D01*
X126867222Y-88122991D01*
X126857652Y-88105087D01*
X126783557Y-87966467D01*
X126732757Y-87799000D01*
X126732037Y-87796627D01*
X126714641Y-87620000D01*
X126732037Y-87443373D01*
X126783557Y-87273534D01*
X126783557Y-87273533D01*
X126867221Y-87117011D01*
X126867222Y-87117009D01*
X126896552Y-87081271D01*
X126979814Y-86979814D01*
X127081271Y-86896552D01*
X127117009Y-86867222D01*
X127134913Y-86857652D01*
X127273533Y-86783557D01*
X127330147Y-86766384D01*
X127443373Y-86732037D01*
X127509558Y-86725518D01*
X127575740Y-86719000D01*
X127664260Y-86719000D01*
X127730442Y-86725518D01*
X127730442Y-86725518D01*
G37*
G36*
X149951000Y-88201000D02*
X149049000Y-88201000D01*
X149049000Y-87799000D01*
X149951000Y-87799000D01*
X149951000Y-88201000D01*
X149951000Y-88201000D01*
G37*
G36*
X160951000Y-88201000D02*
X160049000Y-88201000D01*
X160049000Y-87799000D01*
X160951000Y-87799000D01*
X160951000Y-88201000D01*
X160951000Y-88201000D01*
G37*
G36*
X160951000Y-87401000D02*
X160049000Y-87401000D01*
X160049000Y-86999000D01*
X160951000Y-86999000D01*
X160951000Y-87401000D01*
X160951000Y-87401000D01*
G37*
G36*
X149951000Y-87401000D02*
X149049000Y-87401000D01*
X149049000Y-86999000D01*
X149951000Y-86999000D01*
X149951000Y-87401000D01*
X149951000Y-87401000D01*
G37*
G36*
X149951000Y-86601000D02*
X149049000Y-86601000D01*
X149049000Y-86199000D01*
X149951000Y-86199000D01*
X149951000Y-86601000D01*
X149951000Y-86601000D01*
G37*
G36*
X160951000Y-86601000D02*
X160049000Y-86601000D01*
X160049000Y-86199000D01*
X160951000Y-86199000D01*
X160951000Y-86601000D01*
X160951000Y-86601000D01*
G37*
G36*
X136650443Y-84185519D02*
X136716627Y-84192037D01*
X136829853Y-84226384D01*
X136886467Y-84243557D01*
X137025087Y-84317652D01*
X137042991Y-84327222D01*
X137078729Y-84356552D01*
X137180186Y-84439814D01*
X137263448Y-84541271D01*
X137292778Y-84577009D01*
X137292779Y-84577011D01*
X137376443Y-84733533D01*
X137376443Y-84733534D01*
X137427963Y-84903373D01*
X137445359Y-85080000D01*
X137427963Y-85256627D01*
X137393616Y-85369853D01*
X137376443Y-85426467D01*
X137302348Y-85565087D01*
X137292778Y-85582991D01*
X137263448Y-85618729D01*
X137180186Y-85720186D01*
X137081712Y-85801000D01*
X137042991Y-85832778D01*
X137042989Y-85832779D01*
X136886467Y-85916443D01*
X136829853Y-85933616D01*
X136716627Y-85967963D01*
X136650443Y-85974481D01*
X136584260Y-85981000D01*
X136495740Y-85981000D01*
X136429557Y-85974481D01*
X136363373Y-85967963D01*
X136250147Y-85933616D01*
X136193533Y-85916443D01*
X136037011Y-85832779D01*
X136037009Y-85832778D01*
X135998288Y-85801000D01*
X135899814Y-85720186D01*
X135816552Y-85618729D01*
X135787222Y-85582991D01*
X135777652Y-85565087D01*
X135703557Y-85426467D01*
X135686384Y-85369853D01*
X135652037Y-85256627D01*
X135634641Y-85080000D01*
X135652037Y-84903373D01*
X135703557Y-84733534D01*
X135703557Y-84733533D01*
X135787221Y-84577011D01*
X135787222Y-84577009D01*
X135816552Y-84541271D01*
X135899814Y-84439814D01*
X136001271Y-84356552D01*
X136037009Y-84327222D01*
X136054913Y-84317652D01*
X136193533Y-84243557D01*
X136250147Y-84226384D01*
X136363373Y-84192037D01*
X136429557Y-84185519D01*
X136495740Y-84179000D01*
X136584260Y-84179000D01*
X136650443Y-84185519D01*
X136650443Y-84185519D01*
G37*
G36*
X134110443Y-84185519D02*
X134176627Y-84192037D01*
X134289853Y-84226384D01*
X134346467Y-84243557D01*
X134485087Y-84317652D01*
X134502991Y-84327222D01*
X134538729Y-84356552D01*
X134640186Y-84439814D01*
X134723448Y-84541271D01*
X134752778Y-84577009D01*
X134752779Y-84577011D01*
X134836443Y-84733533D01*
X134836443Y-84733534D01*
X134887963Y-84903373D01*
X134905359Y-85080000D01*
X134887963Y-85256627D01*
X134853616Y-85369853D01*
X134836443Y-85426467D01*
X134762348Y-85565087D01*
X134752778Y-85582991D01*
X134723448Y-85618729D01*
X134640186Y-85720186D01*
X134541712Y-85801000D01*
X134502991Y-85832778D01*
X134502989Y-85832779D01*
X134346467Y-85916443D01*
X134289853Y-85933616D01*
X134176627Y-85967963D01*
X134110443Y-85974481D01*
X134044260Y-85981000D01*
X133955740Y-85981000D01*
X133889557Y-85974481D01*
X133823373Y-85967963D01*
X133710147Y-85933616D01*
X133653533Y-85916443D01*
X133497011Y-85832779D01*
X133497009Y-85832778D01*
X133458288Y-85801000D01*
X133359814Y-85720186D01*
X133276552Y-85618729D01*
X133247222Y-85582991D01*
X133237652Y-85565087D01*
X133163557Y-85426467D01*
X133146384Y-85369853D01*
X133112037Y-85256627D01*
X133094641Y-85080000D01*
X133112037Y-84903373D01*
X133163557Y-84733534D01*
X133163557Y-84733533D01*
X133247221Y-84577011D01*
X133247222Y-84577009D01*
X133276552Y-84541271D01*
X133359814Y-84439814D01*
X133461271Y-84356552D01*
X133497009Y-84327222D01*
X133514913Y-84317652D01*
X133653533Y-84243557D01*
X133710147Y-84226384D01*
X133823373Y-84192037D01*
X133889557Y-84185519D01*
X133955740Y-84179000D01*
X134044260Y-84179000D01*
X134110443Y-84185519D01*
X134110443Y-84185519D01*
G37*
G36*
X127730443Y-84185519D02*
X127796627Y-84192037D01*
X127909853Y-84226384D01*
X127966467Y-84243557D01*
X128105087Y-84317652D01*
X128122991Y-84327222D01*
X128158729Y-84356552D01*
X128260186Y-84439814D01*
X128343448Y-84541271D01*
X128372778Y-84577009D01*
X128372779Y-84577011D01*
X128456443Y-84733533D01*
X128456443Y-84733534D01*
X128507963Y-84903373D01*
X128525359Y-85080000D01*
X128507963Y-85256627D01*
X128473616Y-85369853D01*
X128456443Y-85426467D01*
X128382348Y-85565087D01*
X128372778Y-85582991D01*
X128343448Y-85618729D01*
X128260186Y-85720186D01*
X128161712Y-85801000D01*
X128122991Y-85832778D01*
X128122989Y-85832779D01*
X127966467Y-85916443D01*
X127909853Y-85933616D01*
X127796627Y-85967963D01*
X127730443Y-85974481D01*
X127664260Y-85981000D01*
X127575740Y-85981000D01*
X127509557Y-85974481D01*
X127443373Y-85967963D01*
X127330147Y-85933616D01*
X127273533Y-85916443D01*
X127117011Y-85832779D01*
X127117009Y-85832778D01*
X127078288Y-85801000D01*
X126979814Y-85720186D01*
X126896552Y-85618729D01*
X126867222Y-85582991D01*
X126857652Y-85565087D01*
X126783557Y-85426467D01*
X126766384Y-85369853D01*
X126732037Y-85256627D01*
X126714641Y-85080000D01*
X126732037Y-84903373D01*
X126783557Y-84733534D01*
X126783557Y-84733533D01*
X126867221Y-84577011D01*
X126867222Y-84577009D01*
X126896552Y-84541271D01*
X126979814Y-84439814D01*
X127081271Y-84356552D01*
X127117009Y-84327222D01*
X127134913Y-84317652D01*
X127273533Y-84243557D01*
X127330147Y-84226384D01*
X127443373Y-84192037D01*
X127509557Y-84185519D01*
X127575740Y-84179000D01*
X127664260Y-84179000D01*
X127730443Y-84185519D01*
X127730443Y-84185519D01*
G37*
G36*
X125190443Y-84185519D02*
X125256627Y-84192037D01*
X125369853Y-84226384D01*
X125426467Y-84243557D01*
X125565087Y-84317652D01*
X125582991Y-84327222D01*
X125618729Y-84356552D01*
X125720186Y-84439814D01*
X125803448Y-84541271D01*
X125832778Y-84577009D01*
X125832779Y-84577011D01*
X125916443Y-84733533D01*
X125916443Y-84733534D01*
X125967963Y-84903373D01*
X125985359Y-85080000D01*
X125967963Y-85256627D01*
X125933616Y-85369853D01*
X125916443Y-85426467D01*
X125842348Y-85565087D01*
X125832778Y-85582991D01*
X125803448Y-85618729D01*
X125720186Y-85720186D01*
X125621712Y-85801000D01*
X125582991Y-85832778D01*
X125582989Y-85832779D01*
X125426467Y-85916443D01*
X125369853Y-85933616D01*
X125256627Y-85967963D01*
X125190443Y-85974481D01*
X125124260Y-85981000D01*
X125035740Y-85981000D01*
X124969557Y-85974481D01*
X124903373Y-85967963D01*
X124790147Y-85933616D01*
X124733533Y-85916443D01*
X124577011Y-85832779D01*
X124577009Y-85832778D01*
X124538288Y-85801000D01*
X124439814Y-85720186D01*
X124356552Y-85618729D01*
X124327222Y-85582991D01*
X124317652Y-85565087D01*
X124243557Y-85426467D01*
X124226384Y-85369853D01*
X124192037Y-85256627D01*
X124174641Y-85080000D01*
X124192037Y-84903373D01*
X124243557Y-84733534D01*
X124243557Y-84733533D01*
X124327221Y-84577011D01*
X124327222Y-84577009D01*
X124356552Y-84541271D01*
X124439814Y-84439814D01*
X124541271Y-84356552D01*
X124577009Y-84327222D01*
X124594913Y-84317652D01*
X124733533Y-84243557D01*
X124790147Y-84226384D01*
X124903373Y-84192037D01*
X124969557Y-84185519D01*
X125035740Y-84179000D01*
X125124260Y-84179000D01*
X125190443Y-84185519D01*
X125190443Y-84185519D01*
G37*
G36*
X160951000Y-85801000D02*
X160049000Y-85801000D01*
X160049000Y-85399000D01*
X160951000Y-85399000D01*
X160951000Y-85801000D01*
X160951000Y-85801000D01*
G37*
G36*
X149951000Y-85801000D02*
X149049000Y-85801000D01*
X149049000Y-85399000D01*
X149951000Y-85399000D01*
X149951000Y-85801000D01*
X149951000Y-85801000D01*
G37*
G36*
X149951000Y-85001000D02*
X149049000Y-85001000D01*
X149049000Y-84599000D01*
X149951000Y-84599000D01*
X149951000Y-85001000D01*
X149951000Y-85001000D01*
G37*
G36*
X160951000Y-85001000D02*
X160049000Y-85001000D01*
X160049000Y-84599000D01*
X160951000Y-84599000D01*
X160951000Y-85001000D01*
X160951000Y-85001000D01*
G37*
G36*
X160951000Y-84201000D02*
X160049000Y-84201000D01*
X160049000Y-83799000D01*
X160951000Y-83799000D01*
X160951000Y-84201000D01*
X160951000Y-84201000D01*
G37*
G36*
X149951000Y-84201000D02*
X149049000Y-84201000D01*
X149049000Y-83799000D01*
X149951000Y-83799000D01*
X149951000Y-84201000D01*
X149951000Y-84201000D01*
G37*
G36*
X134901000Y-83441000D02*
X133099000Y-83441000D01*
X133099000Y-81639000D01*
X134901000Y-81639000D01*
X134901000Y-83441000D01*
X134901000Y-83441000D01*
G37*
G36*
X136650443Y-81645519D02*
X136716627Y-81652037D01*
X136829853Y-81686384D01*
X136886467Y-81703557D01*
X137025087Y-81777652D01*
X137042991Y-81787222D01*
X137059779Y-81801000D01*
X137180186Y-81899814D01*
X137263448Y-82001271D01*
X137292778Y-82037009D01*
X137292779Y-82037011D01*
X137376443Y-82193533D01*
X137376443Y-82193534D01*
X137427963Y-82363373D01*
X137445359Y-82540000D01*
X137427963Y-82716627D01*
X137393616Y-82829853D01*
X137376443Y-82886467D01*
X137316292Y-82999000D01*
X137292778Y-83042991D01*
X137263448Y-83078729D01*
X137180186Y-83180186D01*
X137078729Y-83263448D01*
X137042991Y-83292778D01*
X137042989Y-83292779D01*
X136886467Y-83376443D01*
X136829853Y-83393616D01*
X136716627Y-83427963D01*
X136650442Y-83434482D01*
X136584260Y-83441000D01*
X136495740Y-83441000D01*
X136429558Y-83434482D01*
X136363373Y-83427963D01*
X136250147Y-83393616D01*
X136193533Y-83376443D01*
X136037011Y-83292779D01*
X136037009Y-83292778D01*
X136001271Y-83263448D01*
X135899814Y-83180186D01*
X135816552Y-83078729D01*
X135787222Y-83042991D01*
X135763708Y-82999000D01*
X135703557Y-82886467D01*
X135686384Y-82829853D01*
X135652037Y-82716627D01*
X135634641Y-82540000D01*
X135652037Y-82363373D01*
X135703557Y-82193534D01*
X135703557Y-82193533D01*
X135787221Y-82037011D01*
X135787222Y-82037009D01*
X135816552Y-82001271D01*
X135899814Y-81899814D01*
X136020221Y-81801000D01*
X136037009Y-81787222D01*
X136054913Y-81777652D01*
X136193533Y-81703557D01*
X136250147Y-81686384D01*
X136363373Y-81652037D01*
X136429557Y-81645519D01*
X136495740Y-81639000D01*
X136584260Y-81639000D01*
X136650443Y-81645519D01*
X136650443Y-81645519D01*
G37*
G36*
X125981000Y-83441000D02*
X124179000Y-83441000D01*
X124179000Y-81639000D01*
X125981000Y-81639000D01*
X125981000Y-83441000D01*
X125981000Y-83441000D01*
G37*
G36*
X127730443Y-81645519D02*
X127796627Y-81652037D01*
X127909853Y-81686384D01*
X127966467Y-81703557D01*
X128105087Y-81777652D01*
X128122991Y-81787222D01*
X128139779Y-81801000D01*
X128260186Y-81899814D01*
X128343448Y-82001271D01*
X128372778Y-82037009D01*
X128372779Y-82037011D01*
X128456443Y-82193533D01*
X128456443Y-82193534D01*
X128507963Y-82363373D01*
X128525359Y-82540000D01*
X128507963Y-82716627D01*
X128473616Y-82829853D01*
X128456443Y-82886467D01*
X128396292Y-82999000D01*
X128372778Y-83042991D01*
X128343448Y-83078729D01*
X128260186Y-83180186D01*
X128158729Y-83263448D01*
X128122991Y-83292778D01*
X128122989Y-83292779D01*
X127966467Y-83376443D01*
X127909853Y-83393616D01*
X127796627Y-83427963D01*
X127730442Y-83434482D01*
X127664260Y-83441000D01*
X127575740Y-83441000D01*
X127509558Y-83434482D01*
X127443373Y-83427963D01*
X127330147Y-83393616D01*
X127273533Y-83376443D01*
X127117011Y-83292779D01*
X127117009Y-83292778D01*
X127081271Y-83263448D01*
X126979814Y-83180186D01*
X126896552Y-83078729D01*
X126867222Y-83042991D01*
X126843708Y-82999000D01*
X126783557Y-82886467D01*
X126766384Y-82829853D01*
X126732037Y-82716627D01*
X126714641Y-82540000D01*
X126732037Y-82363373D01*
X126783557Y-82193534D01*
X126783557Y-82193533D01*
X126867221Y-82037011D01*
X126867222Y-82037009D01*
X126896552Y-82001271D01*
X126979814Y-81899814D01*
X127100221Y-81801000D01*
X127117009Y-81787222D01*
X127134913Y-81777652D01*
X127273533Y-81703557D01*
X127330147Y-81686384D01*
X127443373Y-81652037D01*
X127509557Y-81645519D01*
X127575740Y-81639000D01*
X127664260Y-81639000D01*
X127730443Y-81645519D01*
X127730443Y-81645519D01*
G37*
G36*
X149951000Y-83401000D02*
X149049000Y-83401000D01*
X149049000Y-82999000D01*
X149951000Y-82999000D01*
X149951000Y-83401000D01*
X149951000Y-83401000D01*
G37*
G36*
X160951000Y-83401000D02*
X160049000Y-83401000D01*
X160049000Y-82999000D01*
X160951000Y-82999000D01*
X160951000Y-83401000D01*
X160951000Y-83401000D01*
G37*
G36*
X149951000Y-82601000D02*
X149049000Y-82601000D01*
X149049000Y-82199000D01*
X149951000Y-82199000D01*
X149951000Y-82601000D01*
X149951000Y-82601000D01*
G37*
G36*
X160951000Y-82601000D02*
X160049000Y-82601000D01*
X160049000Y-82199000D01*
X160951000Y-82199000D01*
X160951000Y-82601000D01*
X160951000Y-82601000D01*
G37*
G36*
X149951000Y-81801000D02*
X149049000Y-81801000D01*
X149049000Y-81399000D01*
X149951000Y-81399000D01*
X149951000Y-81801000D01*
X149951000Y-81801000D01*
G37*
G36*
X160951000Y-81801000D02*
X160049000Y-81801000D01*
X160049000Y-81399000D01*
X160951000Y-81399000D01*
X160951000Y-81801000D01*
X160951000Y-81801000D01*
G37*
G36*
X136539499Y-78978445D02*
X136576993Y-78989819D01*
X136611557Y-79008294D01*
X136641847Y-79033153D01*
X136666706Y-79063443D01*
X136685181Y-79098007D01*
X136696555Y-79135501D01*
X136701000Y-79180638D01*
X136701000Y-79819362D01*
X136696555Y-79864499D01*
X136685181Y-79901993D01*
X136666706Y-79936557D01*
X136641847Y-79966847D01*
X136611557Y-79991706D01*
X136576993Y-80010181D01*
X136539499Y-80021555D01*
X136494362Y-80026000D01*
X135755638Y-80026000D01*
X135710501Y-80021555D01*
X135673007Y-80010181D01*
X135638443Y-79991706D01*
X135608153Y-79966847D01*
X135583294Y-79936557D01*
X135564819Y-79901993D01*
X135553445Y-79864499D01*
X135549000Y-79819362D01*
X135549000Y-79180638D01*
X135553445Y-79135501D01*
X135564819Y-79098007D01*
X135583294Y-79063443D01*
X135608153Y-79033153D01*
X135638443Y-79008294D01*
X135673007Y-78989819D01*
X135710501Y-78978445D01*
X135755638Y-78974000D01*
X136494362Y-78974000D01*
X136539499Y-78978445D01*
X136539499Y-78978445D01*
G37*
G36*
X134789499Y-78978445D02*
X134826993Y-78989819D01*
X134861557Y-79008294D01*
X134891847Y-79033153D01*
X134916706Y-79063443D01*
X134935181Y-79098007D01*
X134946555Y-79135501D01*
X134951000Y-79180638D01*
X134951000Y-79819362D01*
X134946555Y-79864499D01*
X134935181Y-79901993D01*
X134916706Y-79936557D01*
X134891847Y-79966847D01*
X134861557Y-79991706D01*
X134826993Y-80010181D01*
X134789499Y-80021555D01*
X134744362Y-80026000D01*
X134005638Y-80026000D01*
X133960501Y-80021555D01*
X133923007Y-80010181D01*
X133888443Y-79991706D01*
X133858153Y-79966847D01*
X133833294Y-79936557D01*
X133814819Y-79901993D01*
X133803445Y-79864499D01*
X133799000Y-79819362D01*
X133799000Y-79180638D01*
X133803445Y-79135501D01*
X133814819Y-79098007D01*
X133833294Y-79063443D01*
X133858153Y-79033153D01*
X133888443Y-79008294D01*
X133923007Y-78989819D01*
X133960501Y-78978445D01*
X134005638Y-78974000D01*
X134744362Y-78974000D01*
X134789499Y-78978445D01*
X134789499Y-78978445D01*
G37*
G36*
X129914499Y-78728445D02*
X129951993Y-78739819D01*
X129986557Y-78758294D01*
X130016847Y-78783153D01*
X130041706Y-78813443D01*
X130060181Y-78848007D01*
X130071555Y-78885501D01*
X130076000Y-78930638D01*
X130076000Y-79569362D01*
X130071555Y-79614499D01*
X130060181Y-79651993D01*
X130041706Y-79686557D01*
X130016847Y-79716847D01*
X129986557Y-79741706D01*
X129951993Y-79760181D01*
X129914499Y-79771555D01*
X129869362Y-79776000D01*
X129130638Y-79776000D01*
X129085501Y-79771555D01*
X129048007Y-79760181D01*
X129013443Y-79741706D01*
X128983153Y-79716847D01*
X128958294Y-79686557D01*
X128939819Y-79651993D01*
X128928445Y-79614499D01*
X128924000Y-79569362D01*
X128924000Y-78930638D01*
X128928445Y-78885501D01*
X128939819Y-78848007D01*
X128958294Y-78813443D01*
X128983153Y-78783153D01*
X129013443Y-78758294D01*
X129048007Y-78739819D01*
X129085501Y-78728445D01*
X129130638Y-78724000D01*
X129869362Y-78724000D01*
X129914499Y-78728445D01*
X129914499Y-78728445D01*
G37*
G36*
X128164499Y-78728445D02*
X128201993Y-78739819D01*
X128236557Y-78758294D01*
X128266847Y-78783153D01*
X128291706Y-78813443D01*
X128310181Y-78848007D01*
X128321555Y-78885501D01*
X128326000Y-78930638D01*
X128326000Y-79569362D01*
X128321555Y-79614499D01*
X128310181Y-79651993D01*
X128291706Y-79686557D01*
X128266847Y-79716847D01*
X128236557Y-79741706D01*
X128201993Y-79760181D01*
X128164499Y-79771555D01*
X128119362Y-79776000D01*
X127380638Y-79776000D01*
X127335501Y-79771555D01*
X127298007Y-79760181D01*
X127263443Y-79741706D01*
X127233153Y-79716847D01*
X127208294Y-79686557D01*
X127189819Y-79651993D01*
X127178445Y-79614499D01*
X127174000Y-79569362D01*
X127174000Y-78930638D01*
X127178445Y-78885501D01*
X127189819Y-78848007D01*
X127208294Y-78813443D01*
X127233153Y-78783153D01*
X127263443Y-78758294D01*
X127298007Y-78739819D01*
X127335501Y-78728445D01*
X127380638Y-78724000D01*
X128119362Y-78724000D01*
X128164499Y-78728445D01*
X128164499Y-78728445D01*
G37*
M02*
