G04 #@! TF.GenerationSoftware,KiCad,Pcbnew,5.0.2-bee76a0~70~ubuntu18.04.1*
G04 #@! TF.CreationDate,2019-04-04T22:51:14+01:00*
G04 #@! TF.ProjectId,sram_dev_board,7372616d-5f64-4657-965f-626f6172642e,rev?*
G04 #@! TF.SameCoordinates,Original*
G04 #@! TF.FileFunction,Legend,Top*
G04 #@! TF.FilePolarity,Positive*
%FSLAX46Y46*%
G04 Gerber Fmt 4.6, Leading zero omitted, Abs format (unit mm)*
G04 Created by KiCad (PCBNEW 5.0.2-bee76a0~70~ubuntu18.04.1) date Thu 04 Apr 2019 22:51:14 BST*
%MOMM*%
%LPD*%
G01*
G04 APERTURE LIST*
%ADD10C,0.250000*%
%ADD11C,0.200000*%
%ADD12C,0.120000*%
%ADD13C,0.150000*%
G04 APERTURE END LIST*
D10*
X160761904Y-103366666D02*
X161238095Y-103366666D01*
X160666666Y-103652380D02*
X161000000Y-102652380D01*
X161333333Y-103652380D01*
D11*
X154600000Y-115000000D02*
X155400000Y-115000000D01*
X155000000Y-114600000D02*
X155000000Y-115400000D01*
X153847619Y-115361904D02*
X153466666Y-115361904D01*
X153466666Y-114561904D01*
X154790476Y-116561904D02*
X154790476Y-115761904D01*
X154980952Y-115761904D01*
X155095238Y-115800000D01*
X155171428Y-115876190D01*
X155209523Y-115952380D01*
X155247619Y-116104761D01*
X155247619Y-116219047D01*
X155209523Y-116371428D01*
X155171428Y-116447619D01*
X155095238Y-116523809D01*
X154980952Y-116561904D01*
X154790476Y-116561904D01*
X156647619Y-115361904D02*
X156380952Y-114980952D01*
X156190476Y-115361904D02*
X156190476Y-114561904D01*
X156495238Y-114561904D01*
X156571428Y-114600000D01*
X156609523Y-114638095D01*
X156647619Y-114714285D01*
X156647619Y-114828571D01*
X156609523Y-114904761D01*
X156571428Y-114942857D01*
X156495238Y-114980952D01*
X156190476Y-114980952D01*
X154771428Y-113361904D02*
X154771428Y-114009523D01*
X154809523Y-114085714D01*
X154847619Y-114123809D01*
X154923809Y-114161904D01*
X155076190Y-114161904D01*
X155152380Y-114123809D01*
X155190476Y-114085714D01*
X155228571Y-114009523D01*
X155228571Y-113361904D01*
D10*
X168252380Y-96461904D02*
X167776190Y-96795238D01*
X168252380Y-97033333D02*
X167252380Y-97033333D01*
X167252380Y-96652380D01*
X167300000Y-96557142D01*
X167347619Y-96509523D01*
X167442857Y-96461904D01*
X167585714Y-96461904D01*
X167680952Y-96509523D01*
X167728571Y-96557142D01*
X167776190Y-96652380D01*
X167776190Y-97033333D01*
X168252380Y-96033333D02*
X167252380Y-96033333D01*
X168204761Y-95604761D02*
X168252380Y-95461904D01*
X168252380Y-95223809D01*
X168204761Y-95128571D01*
X168157142Y-95080952D01*
X168061904Y-95033333D01*
X167966666Y-95033333D01*
X167871428Y-95080952D01*
X167823809Y-95128571D01*
X167776190Y-95223809D01*
X167728571Y-95414285D01*
X167680952Y-95509523D01*
X167633333Y-95557142D01*
X167538095Y-95604761D01*
X167442857Y-95604761D01*
X167347619Y-95557142D01*
X167300000Y-95509523D01*
X167252380Y-95414285D01*
X167252380Y-95176190D01*
X167300000Y-95033333D01*
X168157142Y-94033333D02*
X168204761Y-94080952D01*
X168252380Y-94223809D01*
X168252380Y-94319047D01*
X168204761Y-94461904D01*
X168109523Y-94557142D01*
X168014285Y-94604761D01*
X167823809Y-94652380D01*
X167680952Y-94652380D01*
X167490476Y-94604761D01*
X167395238Y-94557142D01*
X167300000Y-94461904D01*
X167252380Y-94319047D01*
X167252380Y-94223809D01*
X167300000Y-94080952D01*
X167347619Y-94033333D01*
X167728571Y-93271428D02*
X167776190Y-93128571D01*
X167823809Y-93080952D01*
X167919047Y-93033333D01*
X168061904Y-93033333D01*
X168157142Y-93080952D01*
X168204761Y-93128571D01*
X168252380Y-93223809D01*
X168252380Y-93604761D01*
X167252380Y-93604761D01*
X167252380Y-93271428D01*
X167300000Y-93176190D01*
X167347619Y-93128571D01*
X167442857Y-93080952D01*
X167538095Y-93080952D01*
X167633333Y-93128571D01*
X167680952Y-93176190D01*
X167728571Y-93271428D01*
X167728571Y-93604761D01*
X168252380Y-92461904D02*
X168204761Y-92557142D01*
X168157142Y-92604761D01*
X168061904Y-92652380D01*
X167776190Y-92652380D01*
X167680952Y-92604761D01*
X167633333Y-92557142D01*
X167585714Y-92461904D01*
X167585714Y-92319047D01*
X167633333Y-92223809D01*
X167680952Y-92176190D01*
X167776190Y-92128571D01*
X168061904Y-92128571D01*
X168157142Y-92176190D01*
X168204761Y-92223809D01*
X168252380Y-92319047D01*
X168252380Y-92461904D01*
X167585714Y-91795238D02*
X168252380Y-91557142D01*
X167585714Y-91319047D02*
X168252380Y-91557142D01*
X168490476Y-91652380D01*
X168538095Y-91700000D01*
X168585714Y-91795238D01*
X168204761Y-90223809D02*
X168252380Y-90080952D01*
X168252380Y-89842857D01*
X168204761Y-89747619D01*
X168157142Y-89700000D01*
X168061904Y-89652380D01*
X167966666Y-89652380D01*
X167871428Y-89700000D01*
X167823809Y-89747619D01*
X167776190Y-89842857D01*
X167728571Y-90033333D01*
X167680952Y-90128571D01*
X167633333Y-90176190D01*
X167538095Y-90223809D01*
X167442857Y-90223809D01*
X167347619Y-90176190D01*
X167300000Y-90128571D01*
X167252380Y-90033333D01*
X167252380Y-89795238D01*
X167300000Y-89652380D01*
X168252380Y-88652380D02*
X167776190Y-88985714D01*
X168252380Y-89223809D02*
X167252380Y-89223809D01*
X167252380Y-88842857D01*
X167300000Y-88747619D01*
X167347619Y-88700000D01*
X167442857Y-88652380D01*
X167585714Y-88652380D01*
X167680952Y-88700000D01*
X167728571Y-88747619D01*
X167776190Y-88842857D01*
X167776190Y-89223809D01*
X167966666Y-88271428D02*
X167966666Y-87795238D01*
X168252380Y-88366666D02*
X167252380Y-88033333D01*
X168252380Y-87700000D01*
X168252380Y-87366666D02*
X167252380Y-87366666D01*
X167966666Y-87033333D01*
X167252380Y-86700000D01*
X168252380Y-86700000D01*
X167728571Y-85128571D02*
X167776190Y-84985714D01*
X167823809Y-84938095D01*
X167919047Y-84890476D01*
X168061904Y-84890476D01*
X168157142Y-84938095D01*
X168204761Y-84985714D01*
X168252380Y-85080952D01*
X168252380Y-85461904D01*
X167252380Y-85461904D01*
X167252380Y-85128571D01*
X167300000Y-85033333D01*
X167347619Y-84985714D01*
X167442857Y-84938095D01*
X167538095Y-84938095D01*
X167633333Y-84985714D01*
X167680952Y-85033333D01*
X167728571Y-85128571D01*
X167728571Y-85461904D01*
X168252380Y-84461904D02*
X167585714Y-84461904D01*
X167776190Y-84461904D02*
X167680952Y-84414285D01*
X167633333Y-84366666D01*
X167585714Y-84271428D01*
X167585714Y-84176190D01*
X168204761Y-83461904D02*
X168252380Y-83557142D01*
X168252380Y-83747619D01*
X168204761Y-83842857D01*
X168109523Y-83890476D01*
X167728571Y-83890476D01*
X167633333Y-83842857D01*
X167585714Y-83747619D01*
X167585714Y-83557142D01*
X167633333Y-83461904D01*
X167728571Y-83414285D01*
X167823809Y-83414285D01*
X167919047Y-83890476D01*
X168252380Y-82557142D02*
X167728571Y-82557142D01*
X167633333Y-82604761D01*
X167585714Y-82700000D01*
X167585714Y-82890476D01*
X167633333Y-82985714D01*
X168204761Y-82557142D02*
X168252380Y-82652380D01*
X168252380Y-82890476D01*
X168204761Y-82985714D01*
X168109523Y-83033333D01*
X168014285Y-83033333D01*
X167919047Y-82985714D01*
X167871428Y-82890476D01*
X167871428Y-82652380D01*
X167823809Y-82557142D01*
X168252380Y-82080952D02*
X167252380Y-82080952D01*
X167871428Y-81985714D02*
X168252380Y-81700000D01*
X167585714Y-81700000D02*
X167966666Y-82080952D01*
X168252380Y-81128571D02*
X168204761Y-81223809D01*
X168157142Y-81271428D01*
X168061904Y-81319047D01*
X167776190Y-81319047D01*
X167680952Y-81271428D01*
X167633333Y-81223809D01*
X167585714Y-81128571D01*
X167585714Y-80985714D01*
X167633333Y-80890476D01*
X167680952Y-80842857D01*
X167776190Y-80795238D01*
X168061904Y-80795238D01*
X168157142Y-80842857D01*
X168204761Y-80890476D01*
X168252380Y-80985714D01*
X168252380Y-81128571D01*
X167585714Y-79938095D02*
X168252380Y-79938095D01*
X167585714Y-80366666D02*
X168109523Y-80366666D01*
X168204761Y-80319047D01*
X168252380Y-80223809D01*
X168252380Y-80080952D01*
X168204761Y-79985714D01*
X168157142Y-79938095D01*
X167585714Y-79604761D02*
X167585714Y-79223809D01*
X167252380Y-79461904D02*
X168109523Y-79461904D01*
X168204761Y-79414285D01*
X168252380Y-79319047D01*
X168252380Y-79223809D01*
D12*
G04 #@! TO.C,C1*
X128453733Y-78740000D02*
X128796267Y-78740000D01*
X128453733Y-79760000D02*
X128796267Y-79760000D01*
G04 #@! TO.C,C2*
X135421267Y-78990000D02*
X135078733Y-78990000D01*
X135421267Y-80010000D02*
X135078733Y-80010000D01*
G04 #@! TO.C,C3*
X147010000Y-89828733D02*
X147010000Y-90171267D01*
X145990000Y-89828733D02*
X145990000Y-90171267D01*
G04 #@! TO.C,C4*
X164010000Y-90171267D02*
X164010000Y-89828733D01*
X162990000Y-90171267D02*
X162990000Y-89828733D01*
G04 #@! TO.C,J1*
X123750000Y-119430000D02*
X128950000Y-119430000D01*
X123750000Y-83810000D02*
X123750000Y-119430000D01*
X128950000Y-81210000D02*
X128950000Y-119430000D01*
X123750000Y-83810000D02*
X126350000Y-83810000D01*
X126350000Y-83810000D02*
X126350000Y-81210000D01*
X126350000Y-81210000D02*
X128950000Y-81210000D01*
X123750000Y-82540000D02*
X123750000Y-81210000D01*
X123750000Y-81210000D02*
X125080000Y-81210000D01*
G04 #@! TO.C,J2*
X132670000Y-119430000D02*
X137870000Y-119430000D01*
X132670000Y-83810000D02*
X132670000Y-119430000D01*
X137870000Y-81210000D02*
X137870000Y-119430000D01*
X132670000Y-83810000D02*
X135270000Y-83810000D01*
X135270000Y-83810000D02*
X135270000Y-81210000D01*
X135270000Y-81210000D02*
X137870000Y-81210000D01*
X132670000Y-82540000D02*
X132670000Y-81210000D01*
X132670000Y-81210000D02*
X134000000Y-81210000D01*
G04 #@! TO.C,SW1*
X158350000Y-107350000D02*
X158350000Y-106900000D01*
X158350000Y-106900000D02*
X151650000Y-106900000D01*
X151650000Y-106900000D02*
X151650000Y-107300000D01*
X158350000Y-108650000D02*
X158350000Y-111350000D01*
X151650000Y-111350000D02*
X151650000Y-108650000D01*
X158350000Y-113100000D02*
X151650000Y-113100000D01*
X151650000Y-113100000D02*
X151650000Y-112650000D01*
X158350000Y-112650000D02*
X158350000Y-113100000D01*
G04 #@! TO.C,SW2*
X158350000Y-122650000D02*
X158350000Y-123100000D01*
X151650000Y-123100000D02*
X151650000Y-122650000D01*
X158350000Y-123100000D02*
X151650000Y-123100000D01*
X151650000Y-121350000D02*
X151650000Y-118650000D01*
X158350000Y-118650000D02*
X158350000Y-121350000D01*
X151650000Y-116900000D02*
X151650000Y-117300000D01*
X158350000Y-116900000D02*
X151650000Y-116900000D01*
X158350000Y-117350000D02*
X158350000Y-116900000D01*
G04 #@! TO.C,SW3*
X147650000Y-118350000D02*
X148100000Y-118350000D01*
X148100000Y-118350000D02*
X148100000Y-111650000D01*
X148100000Y-111650000D02*
X147700000Y-111650000D01*
X146350000Y-118350000D02*
X143650000Y-118350000D01*
X143650000Y-111650000D02*
X146350000Y-111650000D01*
X141900000Y-118350000D02*
X141900000Y-111650000D01*
X141900000Y-111650000D02*
X142350000Y-111650000D01*
X142350000Y-118350000D02*
X141900000Y-118350000D01*
G04 #@! TO.C,SW4*
X162350000Y-118350000D02*
X161900000Y-118350000D01*
X161900000Y-111650000D02*
X162350000Y-111650000D01*
X161900000Y-118350000D02*
X161900000Y-111650000D01*
X163650000Y-111650000D02*
X166350000Y-111650000D01*
X166350000Y-118350000D02*
X163650000Y-118350000D01*
X168100000Y-111650000D02*
X167700000Y-111650000D01*
X168100000Y-118350000D02*
X168100000Y-111650000D01*
X167650000Y-118350000D02*
X168100000Y-118350000D01*
D13*
G04 #@! TO.C,U1*
X159000000Y-99000000D02*
G75*
G03X159000000Y-99000000I-500000J0D01*
G01*
X159500000Y-100000000D02*
X150500000Y-100000000D01*
X159500000Y-80000000D02*
X159500000Y-100000000D01*
X150500000Y-80000000D02*
X159500000Y-80000000D01*
X150500000Y-100000000D02*
X150500000Y-80000000D01*
D12*
G04 #@! TO.C,SW5*
X167650000Y-106550000D02*
X168100000Y-106550000D01*
X168100000Y-106550000D02*
X168100000Y-99850000D01*
X168100000Y-99850000D02*
X167700000Y-99850000D01*
X166350000Y-106550000D02*
X163650000Y-106550000D01*
X163650000Y-99850000D02*
X166350000Y-99850000D01*
X161900000Y-106550000D02*
X161900000Y-99850000D01*
X161900000Y-99850000D02*
X162350000Y-99850000D01*
X162350000Y-106550000D02*
X161900000Y-106550000D01*
G04 #@! TO.C,C1*
D13*
X125233333Y-77357142D02*
X125185714Y-77404761D01*
X125042857Y-77452380D01*
X124947619Y-77452380D01*
X124804761Y-77404761D01*
X124709523Y-77309523D01*
X124661904Y-77214285D01*
X124614285Y-77023809D01*
X124614285Y-76880952D01*
X124661904Y-76690476D01*
X124709523Y-76595238D01*
X124804761Y-76500000D01*
X124947619Y-76452380D01*
X125042857Y-76452380D01*
X125185714Y-76500000D01*
X125233333Y-76547619D01*
X126185714Y-77452380D02*
X125614285Y-77452380D01*
X125900000Y-77452380D02*
X125900000Y-76452380D01*
X125804761Y-76595238D01*
X125709523Y-76690476D01*
X125614285Y-76738095D01*
G04 #@! TO.C,C2*
X140633333Y-77157142D02*
X140585714Y-77204761D01*
X140442857Y-77252380D01*
X140347619Y-77252380D01*
X140204761Y-77204761D01*
X140109523Y-77109523D01*
X140061904Y-77014285D01*
X140014285Y-76823809D01*
X140014285Y-76680952D01*
X140061904Y-76490476D01*
X140109523Y-76395238D01*
X140204761Y-76300000D01*
X140347619Y-76252380D01*
X140442857Y-76252380D01*
X140585714Y-76300000D01*
X140633333Y-76347619D01*
X141014285Y-76347619D02*
X141061904Y-76300000D01*
X141157142Y-76252380D01*
X141395238Y-76252380D01*
X141490476Y-76300000D01*
X141538095Y-76347619D01*
X141585714Y-76442857D01*
X141585714Y-76538095D01*
X141538095Y-76680952D01*
X140966666Y-77252380D01*
X141585714Y-77252380D01*
G04 #@! TO.C,C3*
X144233333Y-89357142D02*
X144185714Y-89404761D01*
X144042857Y-89452380D01*
X143947619Y-89452380D01*
X143804761Y-89404761D01*
X143709523Y-89309523D01*
X143661904Y-89214285D01*
X143614285Y-89023809D01*
X143614285Y-88880952D01*
X143661904Y-88690476D01*
X143709523Y-88595238D01*
X143804761Y-88500000D01*
X143947619Y-88452380D01*
X144042857Y-88452380D01*
X144185714Y-88500000D01*
X144233333Y-88547619D01*
X144566666Y-88452380D02*
X145185714Y-88452380D01*
X144852380Y-88833333D01*
X144995238Y-88833333D01*
X145090476Y-88880952D01*
X145138095Y-88928571D01*
X145185714Y-89023809D01*
X145185714Y-89261904D01*
X145138095Y-89357142D01*
X145090476Y-89404761D01*
X144995238Y-89452380D01*
X144709523Y-89452380D01*
X144614285Y-89404761D01*
X144566666Y-89357142D01*
G04 #@! TO.C,C4*
X162427142Y-90166666D02*
X162474761Y-90214285D01*
X162522380Y-90357142D01*
X162522380Y-90452380D01*
X162474761Y-90595238D01*
X162379523Y-90690476D01*
X162284285Y-90738095D01*
X162093809Y-90785714D01*
X161950952Y-90785714D01*
X161760476Y-90738095D01*
X161665238Y-90690476D01*
X161570000Y-90595238D01*
X161522380Y-90452380D01*
X161522380Y-90357142D01*
X161570000Y-90214285D01*
X161617619Y-90166666D01*
X161855714Y-89309523D02*
X162522380Y-89309523D01*
X161474761Y-89547619D02*
X162189047Y-89785714D01*
X162189047Y-89166666D01*
G04 #@! TO.C,J1*
X126016666Y-120052380D02*
X126016666Y-120766666D01*
X125969047Y-120909523D01*
X125873809Y-121004761D01*
X125730952Y-121052380D01*
X125635714Y-121052380D01*
X127016666Y-121052380D02*
X126445238Y-121052380D01*
X126730952Y-121052380D02*
X126730952Y-120052380D01*
X126635714Y-120195238D01*
X126540476Y-120290476D01*
X126445238Y-120338095D01*
G04 #@! TO.C,J2*
X134866666Y-120052380D02*
X134866666Y-120766666D01*
X134819047Y-120909523D01*
X134723809Y-121004761D01*
X134580952Y-121052380D01*
X134485714Y-121052380D01*
X135295238Y-120147619D02*
X135342857Y-120100000D01*
X135438095Y-120052380D01*
X135676190Y-120052380D01*
X135771428Y-120100000D01*
X135819047Y-120147619D01*
X135866666Y-120242857D01*
X135866666Y-120338095D01*
X135819047Y-120480952D01*
X135247619Y-121052380D01*
X135866666Y-121052380D01*
G04 #@! TO.C,SW1*
X153666666Y-106204761D02*
X153809523Y-106252380D01*
X154047619Y-106252380D01*
X154142857Y-106204761D01*
X154190476Y-106157142D01*
X154238095Y-106061904D01*
X154238095Y-105966666D01*
X154190476Y-105871428D01*
X154142857Y-105823809D01*
X154047619Y-105776190D01*
X153857142Y-105728571D01*
X153761904Y-105680952D01*
X153714285Y-105633333D01*
X153666666Y-105538095D01*
X153666666Y-105442857D01*
X153714285Y-105347619D01*
X153761904Y-105300000D01*
X153857142Y-105252380D01*
X154095238Y-105252380D01*
X154238095Y-105300000D01*
X154571428Y-105252380D02*
X154809523Y-106252380D01*
X155000000Y-105538095D01*
X155190476Y-106252380D01*
X155428571Y-105252380D01*
X156333333Y-106252380D02*
X155761904Y-106252380D01*
X156047619Y-106252380D02*
X156047619Y-105252380D01*
X155952380Y-105395238D01*
X155857142Y-105490476D01*
X155761904Y-105538095D01*
G04 #@! TO.C,SW2*
X153666666Y-124404761D02*
X153809523Y-124452380D01*
X154047619Y-124452380D01*
X154142857Y-124404761D01*
X154190476Y-124357142D01*
X154238095Y-124261904D01*
X154238095Y-124166666D01*
X154190476Y-124071428D01*
X154142857Y-124023809D01*
X154047619Y-123976190D01*
X153857142Y-123928571D01*
X153761904Y-123880952D01*
X153714285Y-123833333D01*
X153666666Y-123738095D01*
X153666666Y-123642857D01*
X153714285Y-123547619D01*
X153761904Y-123500000D01*
X153857142Y-123452380D01*
X154095238Y-123452380D01*
X154238095Y-123500000D01*
X154571428Y-123452380D02*
X154809523Y-124452380D01*
X155000000Y-123738095D01*
X155190476Y-124452380D01*
X155428571Y-123452380D01*
X155761904Y-123547619D02*
X155809523Y-123500000D01*
X155904761Y-123452380D01*
X156142857Y-123452380D01*
X156238095Y-123500000D01*
X156285714Y-123547619D01*
X156333333Y-123642857D01*
X156333333Y-123738095D01*
X156285714Y-123880952D01*
X155714285Y-124452380D01*
X156333333Y-124452380D01*
G04 #@! TO.C,SW3*
X143666666Y-110004761D02*
X143809523Y-110052380D01*
X144047619Y-110052380D01*
X144142857Y-110004761D01*
X144190476Y-109957142D01*
X144238095Y-109861904D01*
X144238095Y-109766666D01*
X144190476Y-109671428D01*
X144142857Y-109623809D01*
X144047619Y-109576190D01*
X143857142Y-109528571D01*
X143761904Y-109480952D01*
X143714285Y-109433333D01*
X143666666Y-109338095D01*
X143666666Y-109242857D01*
X143714285Y-109147619D01*
X143761904Y-109100000D01*
X143857142Y-109052380D01*
X144095238Y-109052380D01*
X144238095Y-109100000D01*
X144571428Y-109052380D02*
X144809523Y-110052380D01*
X145000000Y-109338095D01*
X145190476Y-110052380D01*
X145428571Y-109052380D01*
X145714285Y-109052380D02*
X146333333Y-109052380D01*
X146000000Y-109433333D01*
X146142857Y-109433333D01*
X146238095Y-109480952D01*
X146285714Y-109528571D01*
X146333333Y-109623809D01*
X146333333Y-109861904D01*
X146285714Y-109957142D01*
X146238095Y-110004761D01*
X146142857Y-110052380D01*
X145857142Y-110052380D01*
X145761904Y-110004761D01*
X145714285Y-109957142D01*
G04 #@! TO.C,SW4*
X163666666Y-110404761D02*
X163809523Y-110452380D01*
X164047619Y-110452380D01*
X164142857Y-110404761D01*
X164190476Y-110357142D01*
X164238095Y-110261904D01*
X164238095Y-110166666D01*
X164190476Y-110071428D01*
X164142857Y-110023809D01*
X164047619Y-109976190D01*
X163857142Y-109928571D01*
X163761904Y-109880952D01*
X163714285Y-109833333D01*
X163666666Y-109738095D01*
X163666666Y-109642857D01*
X163714285Y-109547619D01*
X163761904Y-109500000D01*
X163857142Y-109452380D01*
X164095238Y-109452380D01*
X164238095Y-109500000D01*
X164571428Y-109452380D02*
X164809523Y-110452380D01*
X165000000Y-109738095D01*
X165190476Y-110452380D01*
X165428571Y-109452380D01*
X166238095Y-109785714D02*
X166238095Y-110452380D01*
X166000000Y-109404761D02*
X165761904Y-110119047D01*
X166380952Y-110119047D01*
G04 #@! TO.C,U1*
X154238095Y-78452380D02*
X154238095Y-79261904D01*
X154285714Y-79357142D01*
X154333333Y-79404761D01*
X154428571Y-79452380D01*
X154619047Y-79452380D01*
X154714285Y-79404761D01*
X154761904Y-79357142D01*
X154809523Y-79261904D01*
X154809523Y-78452380D01*
X155809523Y-79452380D02*
X155238095Y-79452380D01*
X155523809Y-79452380D02*
X155523809Y-78452380D01*
X155428571Y-78595238D01*
X155333333Y-78690476D01*
X155238095Y-78738095D01*
G04 #@! TO.C,SW5*
X163666666Y-97804761D02*
X163809523Y-97852380D01*
X164047619Y-97852380D01*
X164142857Y-97804761D01*
X164190476Y-97757142D01*
X164238095Y-97661904D01*
X164238095Y-97566666D01*
X164190476Y-97471428D01*
X164142857Y-97423809D01*
X164047619Y-97376190D01*
X163857142Y-97328571D01*
X163761904Y-97280952D01*
X163714285Y-97233333D01*
X163666666Y-97138095D01*
X163666666Y-97042857D01*
X163714285Y-96947619D01*
X163761904Y-96900000D01*
X163857142Y-96852380D01*
X164095238Y-96852380D01*
X164238095Y-96900000D01*
X164571428Y-96852380D02*
X164809523Y-97852380D01*
X165000000Y-97138095D01*
X165190476Y-97852380D01*
X165428571Y-96852380D01*
X166285714Y-96852380D02*
X165809523Y-96852380D01*
X165761904Y-97328571D01*
X165809523Y-97280952D01*
X165904761Y-97233333D01*
X166142857Y-97233333D01*
X166238095Y-97280952D01*
X166285714Y-97328571D01*
X166333333Y-97423809D01*
X166333333Y-97661904D01*
X166285714Y-97757142D01*
X166238095Y-97804761D01*
X166142857Y-97852380D01*
X165904761Y-97852380D01*
X165809523Y-97804761D01*
X165761904Y-97757142D01*
G04 #@! TD*
M02*
